<svg viewBox="0 0 330 200" xmlns="http://www.w3.org/2000/svg"><g><g><g><g><g><line x1="58.59375" y1="177.828125" x2="53.59375" y2="177.828125" style="visibility: inherit;" fill="rgb(0, 0, 0)" stroke="rgb(204, 204, 204)" stroke-width="1px"></line><line x1="58.59375" y1="152.42410714285714" x2="53.59375" y2="152.42410714285714" style="visibility: inherit;" fill="rgb(0, 0, 0)" stroke="rgb(204, 204, 204)" stroke-width="1px"></line><line x1="58.59375" y1="127.02008928571428" x2="53.59375" y2="127.02008928571428" style="visibility: inherit;" fill="rgb(0, 0, 0)" stroke="rgb(204, 204, 204)" stroke-width="1px"></line><line x1="58.59375" y1="101.61607142857142" x2="53.59375" y2="101.61607142857142" style="visibility: inherit;" fill="rgb(0, 0, 0)" stroke="rgb(204, 204, 204)" stroke-width="1px"></line><line x1="58.59375" y1="76.21205357142856" x2="53.59375" y2="76.21205357142856" style="visibility: inherit;" fill="rgb(0, 0, 0)" stroke="rgb(204, 204, 204)" stroke-width="1px"></line><line x1="58.59375" y1="50.808035714285694" x2="53.59375" y2="50.808035714285694" style="visibility: inherit;" fill="rgb(0, 0, 0)" stroke="rgb(204, 204, 204)" stroke-width="1px"></line><line x1="58.59375" y1="25.404017857142833" x2="53.59375" y2="25.404017857142833" style="visibility: inherit;" fill="rgb(0, 0, 0)" stroke="rgb(204, 204, 204)" stroke-width="1px"></line><line x1="58.59375" y1="0" x2="53.59375" y2="0" style="visibility: inherit;" fill="rgb(0, 0, 0)" stroke="rgb(204, 204, 204)" stroke-width="1px"></line></g><g transform="translate(48.59375, 0)"><text x="0" y="177.828125" dx="0em" dy="0.3em" style="text-anchor: end; visibility: hidden; font-family: &quot;Helvetica Neue&quot;, sans-serif; font-size: 12px; font-weight: 200;" fill="rgb(50, 49, 63)" stroke="none" stroke-width="1px">-5e-3</text><text x="0" y="152.42410714285714" dx="0em" dy="0.3em" style="text-anchor: end; visibility: inherit; font-family: &quot;Helvetica Neue&quot;, sans-serif; font-size: 12px; font-weight: 200;" fill="rgb(50, 49, 63)" stroke="none" stroke-width="1px">0</text><text x="0" y="127.02008928571428" dx="0em" dy="0.3em" style="text-anchor: end; visibility: inherit; font-family: &quot;Helvetica Neue&quot;, sans-serif; font-size: 12px; font-weight: 200;" fill="rgb(50, 49, 63)" stroke="none" stroke-width="1px">5e-3</text><text x="0" y="101.61607142857142" dx="0em" dy="0.3em" style="text-anchor: end; visibility: inherit; font-family: &quot;Helvetica Neue&quot;, sans-serif; font-size: 12px; font-weight: 200;" fill="rgb(50, 49, 63)" stroke="none" stroke-width="1px">0.01</text><text x="0" y="76.21205357142856" dx="0em" dy="0.3em" style="text-anchor: end; visibility: inherit; font-family: &quot;Helvetica Neue&quot;, sans-serif; font-size: 12px; font-weight: 200;" fill="rgb(50, 49, 63)" stroke="none" stroke-width="1px">0.015</text><text x="0" y="50.808035714285694" dx="0em" dy="0.3em" style="text-anchor: end; visibility: inherit; font-family: &quot;Helvetica Neue&quot;, sans-serif; font-size: 12px; font-weight: 200;" fill="rgb(50, 49, 63)" stroke="none" stroke-width="1px">0.02</text><text x="0" y="25.404017857142833" dx="0em" dy="0.3em" style="text-anchor: end; visibility: inherit; font-family: &quot;Helvetica Neue&quot;, sans-serif; font-size: 12px; font-weight: 200;" fill="rgb(50, 49, 63)" stroke="none" stroke-width="1px">0.025</text><text x="0" y="0" dx="0em" dy="0.3em" style="text-anchor: end; visibility: hidden; font-family: &quot;Helvetica Neue&quot;, sans-serif; font-size: 12px; font-weight: 200;" fill="rgb(50, 49, 63)" stroke="none" stroke-width="1px">0.03</text></g><line x1="58.59375" y1="0" x2="58.59375" y2="177.828125" fill="rgb(0, 0, 0)" stroke="rgb(204, 204, 204)" stroke-width="1px"></line></g></g><g transform="translate(58, 0)" clip-path="url(#clip_0)"><clipPath id="clip_0"><rect width="271" height="177"></rect></clipPath><g><g><g><line x1="0" y1="0" x2="0" y2="177.828125" fill="rgb(0, 0, 0)" stroke="rgb(60, 60, 60)" stroke-width="1px" opacity="0.25"></line><line x1="20.877403846153847" y1="0" x2="20.877403846153847" y2="177.828125" fill="rgb(0, 0, 0)" stroke="rgb(60, 60, 60)" stroke-width="1px" opacity="0.25"></line><line x1="41.75480769230769" y1="0" x2="41.75480769230769" y2="177.828125" fill="rgb(0, 0, 0)" stroke="rgb(60, 60, 60)" stroke-width="1px" opacity="0.25"></line><line x1="62.63221153846154" y1="0" x2="62.63221153846154" y2="177.828125" fill="rgb(0, 0, 0)" stroke="rgb(60, 60, 60)" stroke-width="1px" opacity="0.25"></line><line x1="83.50961538461539" y1="0" x2="83.50961538461539" y2="177.828125" fill="rgb(0, 0, 0)" stroke="rgb(60, 60, 60)" stroke-width="1px" opacity="0.25"></line><line x1="104.38701923076924" y1="0" x2="104.38701923076924" y2="177.828125" fill="rgb(0, 0, 0)" stroke="rgb(60, 60, 60)" stroke-width="1px" opacity="0.25"></line><line x1="125.26442307692308" y1="0" x2="125.26442307692308" y2="177.828125" fill="rgb(0, 0, 0)" stroke="rgb(60, 60, 60)" stroke-width="1px" opacity="0.25"></line><line x1="146.1418269230769" y1="0" x2="146.1418269230769" y2="177.828125" fill="rgb(0, 0, 0)" stroke="rgb(60, 60, 60)" stroke-width="1px" opacity="0.25"></line><line x1="167.01923076923077" y1="0" x2="167.01923076923077" y2="177.828125" fill="rgb(0, 0, 0)" stroke="rgb(60, 60, 60)" stroke-width="1px" opacity="0.25"></line><line x1="187.8966346153846" y1="0" x2="187.8966346153846" y2="177.828125" fill="rgb(0, 0, 0)" stroke="rgb(60, 60, 60)" stroke-width="1px" opacity="0.25"></line><line x1="208.77403846153848" y1="0" x2="208.77403846153848" y2="177.828125" fill="rgb(0, 0, 0)" stroke="rgb(60, 60, 60)" stroke-width="1px" opacity="0.25"></line><line x1="229.6514423076923" y1="0" x2="229.6514423076923" y2="177.828125" fill="rgb(0, 0, 0)" stroke="rgb(60, 60, 60)" stroke-width="1px" opacity="0.25"></line><line x1="250.52884615384616" y1="0" x2="250.52884615384616" y2="177.828125" fill="rgb(0, 0, 0)" stroke="rgb(60, 60, 60)" stroke-width="1px" opacity="0.25"></line><line x1="271.40625" y1="0" x2="271.40625" y2="177.828125" fill="rgb(0, 0, 0)" stroke="rgb(60, 60, 60)" stroke-width="1px" opacity="0.25"></line></g><g><line x1="0" y1="177.828125" x2="271.40625" y2="177.828125" fill="rgb(0, 0, 0)" stroke="rgb(60, 60, 60)" stroke-width="1px" opacity="0.25"></line><line x1="0" y1="152.42410714285714" x2="271.40625" y2="152.42410714285714" fill="rgb(0, 0, 0)" stroke="rgb(60, 60, 60)" stroke-width="1px" opacity="0.25"></line><line x1="0" y1="127.02008928571428" x2="271.40625" y2="127.02008928571428" fill="rgb(0, 0, 0)" stroke="rgb(60, 60, 60)" stroke-width="1px" opacity="0.25"></line><line x1="0" y1="101.61607142857142" x2="271.40625" y2="101.61607142857142" fill="rgb(0, 0, 0)" stroke="rgb(60, 60, 60)" stroke-width="1px" opacity="0.25"></line><line x1="0" y1="76.21205357142856" x2="271.40625" y2="76.21205357142856" fill="rgb(0, 0, 0)" stroke="rgb(60, 60, 60)" stroke-width="1px" opacity="0.25"></line><line x1="0" y1="50.808035714285694" x2="271.40625" y2="50.808035714285694" fill="rgb(0, 0, 0)" stroke="rgb(60, 60, 60)" stroke-width="1px" opacity="0.25"></line><line x1="0" y1="25.404017857142833" x2="271.40625" y2="25.404017857142833" fill="rgb(0, 0, 0)" stroke="rgb(60, 60, 60)" stroke-width="1px" opacity="0.25"></line><line x1="0" y1="0" x2="271.40625" y2="0" fill="rgb(0, 0, 0)" stroke="rgb(60, 60, 60)" stroke-width="1px" opacity="0.25"></line></g></g></g><g><g><line x1="0" y1="152.42410714285714" x2="271.40625" y2="152.42410714285714" fill="rgb(0, 0, 0)" stroke="rgb(153, 153, 153)" stroke-width="1.5px"></line></g></g><g><g><line x1="20.877403846153847" y1="0" x2="20.877403846153847" y2="177.828125" fill="rgb(0, 0, 0)" stroke="rgb(153, 153, 153)" stroke-width="1.5px"></line></g></g><g><g><g><g><g><path stroke="rgb(255, 112, 67)" stroke-width="2px" d="M29.27012019230769,-16.750325957717166L30.9403125,15.756523216499318L32.61050480769231,37.68423348849032L34.28069711538462,47.59412954384712L35.95088942307692,56.87483414271527L37.62108173076923,66.09545096983616L39.29127403846154,61.42799821647864L40.96146634615384,75.97774195023194L42.63165865384616,82.66548279973767L44.30185096153846,89.05641426139687L45.97204326923077,82.99304604516104L47.64223557692308,92.2391526414585L49.31242788461538,97.99520420943712L50.98262019230769,96.20849608051293L52.6528125,90.79000686656528L54.32300480769231,96.67749230442199L55.99319711538461,103.540675689926L57.66338942307692,100.4130112337579L59.33358173076923,103.14345653874635L61.00377403846154,96.38372532161284L62.67396634615385,103.05916898229493L64.34415865384615,105.06851485714668L66.01435096153845,110.8867346624832L67.68454326923077,111.25083399502265L69.35473557692308,115.26836467214741L71.02492788461538,117.4067054804112L72.6951201923077,120.31002895566672L74.3653125,119.79779065393346L76.0355048076923,121.45186058575007L77.70569711538462,118.61701600183318L79.37588942307691,119.13184391283343L81.04608173076923,121.11906198938001L82.71627403846155,121.63085759661917L84.38646634615384,122.74958927979516L86.05665865384616,121.1582756386766L87.72685096153846,124.13255447318485L89.39704326923076,120.84443346407167L91.06723557692308,122.4935845925814L92.73742788461539,124.38898364781295L94.40762019230769,123.74559879169061L96.0778125,124.27523336627506L97.74800480769231,123.4859294581218L99.41819711538463,122.98634266461534L101.08838942307692,120.08934446733414L102.75858173076924,122.8911704186866L104.42877403846154,126.35254390568923L106.09896634615384,125.189546632385L107.76915865384615,126.46974724984332L109.43935096153847,124.39532624247215L111.10954326923077,125.90007578374139L112.77973557692307,127.11333220235855L114.44992788461539,125.7433030117166L116.12012019230768,127.612683470186L117.7903125,128.1820460765804L119.46050480769232,127.31302870151009L121.1306971153846,124.67840524732657L122.80088942307692,127.14648161869601L124.47108173076923,128.1153924221842L126.14127403846153,128.14175525114894L127.81146634615385,128.1875994841644L129.48165865384615,126.83014153146905L131.15185096153846,128.1429618253734L132.82204326923076,128.30049612292726L134.49223557692306,129.71031202244504L136.16242788461537,128.42801879837307L137.8326201923077,128.58081372292645L139.5028125,128.7893346710515L141.1730048076923,128.9730069339546L142.8431971153846,129.98660604855937L144.51338942307692,130.72210479186157L146.18358173076922,130.87960652523034L147.85377403846155,132.08829948242197L149.52396634615386,131.5481278840411L151.19415865384613,129.92537441960886L152.86435096153846,130.37211621490357L154.53454326923077,127.09838624006048L156.20473557692307,129.83417837043797L157.8749278846154,130.4521015914642L159.54512019230768,131.91078936454292L161.21531249999998,131.78032696495487L162.8855048076923,131.98655681787412L164.55569711538462,132.65116038418387L166.22588942307692,133.383740603308L167.89608173076923,133.10656939224546L169.56627403846153,133.77403962324888L171.23646634615383,133.5067133632133L172.90665865384616,132.65522605666953L174.57685096153847,131.90816050937553L176.24704326923074,132.88294029479994L177.91723557692308,133.65692007235793L179.58742788461538,129.26242904629578L181.2576201923077,130.30856833258096L182.92781250000002,133.12993222565086L184.5980048076923,134.4489023063595L186.26819711538462,133.1071421211331L187.8966346153846,133.01840882207438L189.56682692307692,133.34157514510684L191.23701923076925,133.65050568086073L192.90721153846155,135.20890986805875L194.57740384615383,130.64375124184284L196.20584134615385,132.82420080676815L197.75076923076924,134.14563696582687L199.42096153846154,134.59414271397395L201.09115384615384,133.78298551802902L202.76134615384615,131.56744773286928L204.43153846153848,132.30117746092392L206.05997596153847,131.43757204143776L207.68841346153846,133.0009902339429L209.31685096153848,133.6700250431656L210.94528846153847,133.7077934275271L212.44846153846154,134.74080129393082L215.74709134615387,134.96415362967852L217.41728365384617,133.59968304777496L219.00396634615385,134.24030566182148L220.50713942307692,135.73404748213545L222.0103125,134.74960917091158L223.63875,134.4996443982255L225.1836778846154,134.6293311809068L226.8121153846154,135.40215846520684L228.3570432692308,135.876224722456L229.6931971153846,137.23629735565078L230.86233173076926,137.2957636571967L232.07322115384616,137.1321911407043L235.41360576923077,136.81342858766482L238.04415865384615,136.33724499293396L238.54521634615384,136.37133807156576L240.34067307692305,137.41756001654397L241.0505048076923,137.75099518471828L243.51403846153846,138.88382652684106L247.89829326923075,138.61095885185068L248.31584134615386,138.3474048423691L249.98603365384616,137.82626962085584L250.86288461538462,137.75742822233147" style="fill: none;" fill="none"></path></g></g></g></g><g opacity="0.20000000298023224"><g><g><g><path stroke="rgb(255, 112, 67)" stroke-width="2px" d="M24.259543269230768,-4.773920490772355L25.92973557692308,10.709874724570113L27.599927884615386,-0.4301895552447945L29.27012019230769,60.70621429091052L30.9403125,62.241837645215625L32.61050480769231,69.65504557107174L34.28069711538462,62.20930132728866L35.95088942307692,70.65559886159772L37.62108173076923,79.8427458945329L39.29127403846154,54.452219158211435L40.96146634615384,97.75485011313242L42.63165865384616,92.68399209346221L44.30185096153846,98.63529915385878L45.97204326923077,73.90227007784414L47.64223557692308,106.1043998934661L49.31242788461538,106.6278201005355L50.98262019230769,93.52870607412684L52.6528125,82.66276831702062L54.32300480769231,105.50839757751339L55.99319711538461,113.83522493220931L57.66338942307692,95.72157629978442L59.33358173076923,107.23909215150134L61.00377403846154,86.24417654118898L62.67396634615385,113.07230600560017L64.34415865384615,108.08252852805889L66.01435096153845,119.6140554381501L67.68454326923077,111.79698265844489L69.35473557692308,121.2946584674064L71.02492788461538,120.61421598370984L72.6951201923077,124.66501359088579L74.3653125,119.02943326248453L76.0355048076923,123.93296536499733L77.70569711538462,114.36474924779031L79.37588942307691,119.90408576605842L81.04608173076923,124.09988907345436L82.71627403846155,122.39855100272689L84.38646634615384,124.42768679832807L86.05665865384616,118.77130518231672L87.72685096153846,128.59397271898342L89.39704326923076,115.91225195435773L91.06723557692308,124.96731128415558L92.73742788461539,127.23208222983936L94.40762019230769,122.78052150767428L96.0778125,125.06968522806918L97.74800480769231,122.30197359596578L99.41819711538463,122.23696247438366L101.08838942307692,115.74384717150988L102.75858173076924,127.09390934565869L104.42877403846154,131.54460413615118L106.09896634615384,123.4450507224371L107.76915865384615,128.39004817602523L109.43935096153847,121.28369473142084L111.10954326923077,128.15720009564288L112.77973557692307,128.93321683028313L114.44992788461539,123.68825922575445L116.12012019230768,130.41675415788941L117.7903125,129.0360899861719L119.46050480769232,126.0095026389047L121.1306971153846,120.72647006605152L122.80088942307692,130.84859617575003L124.47108173076923,129.56875862741643L126.14127403846153,128.18129949459606L127.81146634615385,128.2563658336876L129.48165865384615,124.79395460242604L131.15185096153846,130.11219226622987L132.82204326923076,128.53679756925806L134.49223557692306,131.82503587172167L136.16242788461537,126.50457896226517L137.8326201923077,128.81000610975647L139.5028125,129.10211609323906L141.1730048076923,129.24851532830922L142.8431971153846,131.50700472046654L144.51338942307692,131.82535290681489L146.18358173076922,131.11585912528346L147.85377403846155,133.9013389182094L149.52396634615386,130.7378704864698L151.19415865384613,127.49124422296049L152.86435096153846,131.04222890784564L154.53454326923077,122.18779127779581L156.20473557692307,133.93786656600423L157.8749278846154,131.3789864230036L159.54512019230768,134.09882102416094L161.21531249999998,131.5846333655728L162.8855048076923,132.29590159725296L164.55569711538462,133.64806573364848L166.22588942307692,134.4826109319942L167.89608173076923,132.69081257565162L169.56627403846153,134.77524496975406L171.23646634615383,133.1057239731599L172.90665865384616,131.37799509685385L174.57685096153847,130.7875621884346L176.24704326923074,134.34510997293648L177.91723557692308,134.81788973869487L179.58742788461538,122.67069250720252L181.2576201923077,131.87777726200875L182.92781250000002,137.36197806525576L184.5980048076923,136.42735742742246L186.26819711538462,131.09450184329344L187.8966346153846,132.88530887348625L189.56682692307692,133.82632462965557L191.23701923076925,134.11390148449158L192.90721153846155,137.54651614885577L194.57740384615383,123.79601330251899L196.20584134615385,136.0948751541561L197.75076923076924,136.1277912044149L199.42096153846154,135.26690133619454L201.09115384615384,132.56624972411163L202.76134615384615,128.24414105512966L204.43153846153848,133.4017720530059L206.05997596153847,130.14216391220853L207.68841346153846,135.34611752270055L209.31685096153848,134.67357725699964L210.94528846153847,133.76444600406933L212.44846153846154,136.29031309353635L215.74709134615387,135.2991821333001L217.41728365384617,131.55297717491962L219.00396634615385,135.20123958289122L220.50713942307692,137.97466021260647L222.0103125,133.27295170407575L223.63875,134.1246972391964L225.1836778846154,134.82386135492874L226.8121153846154,136.5613993916569L228.3570432692308,136.5873241083297L229.6931971153846,139.27640630544295L230.86233173076926,137.38496310951552L232.07322115384616,136.88683236596574L235.41360576923077,136.33528475810556L238.04415865384615,135.62296960083768L238.54521634615384,136.42247768951347L240.34067307692305,138.98689293401134L241.0505048076923,138.2511479369797L243.51403846153846,140.58307354002525L247.89829326923075,138.20165733936508L248.31584134615386,137.95207382814675L249.98603365384616,137.0445667885859L250.86288461538462,137.6541661245449" style="fill: none;" fill="none"></path></g></g></g></g></g></g><g transform="translate(58, 177)" clip-path="url(#clip_1)"><clipPath id="clip_1"><rect width="271" height="22"></rect></clipPath><g><g><line x1="0" y1="0" x2="0" y2="5" style="visibility: inherit;" fill="rgb(0, 0, 0)" stroke="rgb(204, 204, 204)" stroke-width="1px"></line><line x1="20.877403846153847" y1="0" x2="20.877403846153847" y2="5" style="visibility: inherit;" fill="rgb(0, 0, 0)" stroke="rgb(204, 204, 204)" stroke-width="1px"></line><line x1="41.75480769230769" y1="0" x2="41.75480769230769" y2="5" style="visibility: inherit;" fill="rgb(0, 0, 0)" stroke="rgb(204, 204, 204)" stroke-width="1px"></line><line x1="62.63221153846154" y1="0" x2="62.63221153846154" y2="5" style="visibility: inherit;" fill="rgb(0, 0, 0)" stroke="rgb(204, 204, 204)" stroke-width="1px"></line><line x1="83.50961538461539" y1="0" x2="83.50961538461539" y2="5" style="visibility: inherit;" fill="rgb(0, 0, 0)" stroke="rgb(204, 204, 204)" stroke-width="1px"></line><line x1="104.38701923076924" y1="0" x2="104.38701923076924" y2="5" style="visibility: inherit;" fill="rgb(0, 0, 0)" stroke="rgb(204, 204, 204)" stroke-width="1px"></line><line x1="125.26442307692308" y1="0" x2="125.26442307692308" y2="5" style="visibility: inherit;" fill="rgb(0, 0, 0)" stroke="rgb(204, 204, 204)" stroke-width="1px"></line><line x1="146.1418269230769" y1="0" x2="146.1418269230769" y2="5" style="visibility: inherit;" fill="rgb(0, 0, 0)" stroke="rgb(204, 204, 204)" stroke-width="1px"></line><line x1="167.01923076923077" y1="0" x2="167.01923076923077" y2="5" style="visibility: inherit;" fill="rgb(0, 0, 0)" stroke="rgb(204, 204, 204)" stroke-width="1px"></line><line x1="187.8966346153846" y1="0" x2="187.8966346153846" y2="5" style="visibility: inherit;" fill="rgb(0, 0, 0)" stroke="rgb(204, 204, 204)" stroke-width="1px"></line><line x1="208.77403846153848" y1="0" x2="208.77403846153848" y2="5" style="visibility: inherit;" fill="rgb(0, 0, 0)" stroke="rgb(204, 204, 204)" stroke-width="1px"></line><line x1="229.6514423076923" y1="0" x2="229.6514423076923" y2="5" style="visibility: inherit;" fill="rgb(0, 0, 0)" stroke="rgb(204, 204, 204)" stroke-width="1px"></line><line x1="250.52884615384616" y1="0" x2="250.52884615384616" y2="5" style="visibility: inherit;" fill="rgb(0, 0, 0)" stroke="rgb(204, 204, 204)" stroke-width="1px"></line><line x1="271.40625" y1="0" x2="271.40625" y2="5" style="visibility: inherit;" fill="rgb(0, 0, 0)" stroke="rgb(204, 204, 204)" stroke-width="1px"></line></g><g transform="translate(0, 8)"><text x="0" y="0" dx="0em" dy="0.95em" style="text-anchor: middle; visibility: hidden; font-family: &quot;Helvetica Neue&quot;, sans-serif; font-size: 12px; font-weight: 200;" fill="rgb(50, 49, 63)" stroke="none" stroke-width="1px">-500</text><text x="20.877403846153847" y="0" dx="0em" dy="0.95em" style="text-anchor: middle; visibility: inherit; font-family: &quot;Helvetica Neue&quot;, sans-serif; font-size: 12px; font-weight: 200;" fill="rgb(50, 49, 63)" stroke="none" stroke-width="1px">0</text><text x="41.75480769230769" y="0" dx="0em" dy="0.95em" style="text-anchor: middle; visibility: hidden; font-family: &quot;Helvetica Neue&quot;, sans-serif; font-size: 12px; font-weight: 200;" fill="rgb(50, 49, 63)" stroke="none" stroke-width="1px">500</text><text x="62.63221153846154" y="0" dx="0em" dy="0.95em" style="text-anchor: middle; visibility: inherit; font-family: &quot;Helvetica Neue&quot;, sans-serif; font-size: 12px; font-weight: 200;" fill="rgb(50, 49, 63)" stroke="none" stroke-width="1px">1k</text><text x="83.50961538461539" y="0" dx="0em" dy="0.95em" style="text-anchor: middle; visibility: hidden; font-family: &quot;Helvetica Neue&quot;, sans-serif; font-size: 12px; font-weight: 200;" fill="rgb(50, 49, 63)" stroke="none" stroke-width="1px">1.5k</text><text x="104.38701923076924" y="0" dx="0em" dy="0.95em" style="text-anchor: middle; visibility: inherit; font-family: &quot;Helvetica Neue&quot;, sans-serif; font-size: 12px; font-weight: 200;" fill="rgb(50, 49, 63)" stroke="none" stroke-width="1px">2k</text><text x="125.26442307692308" y="0" dx="0em" dy="0.95em" style="text-anchor: middle; visibility: hidden; font-family: &quot;Helvetica Neue&quot;, sans-serif; font-size: 12px; font-weight: 200;" fill="rgb(50, 49, 63)" stroke="none" stroke-width="1px">2.5k</text><text x="146.1418269230769" y="0" dx="0em" dy="0.95em" style="text-anchor: middle; visibility: inherit; font-family: &quot;Helvetica Neue&quot;, sans-serif; font-size: 12px; font-weight: 200;" fill="rgb(50, 49, 63)" stroke="none" stroke-width="1px">3k</text><text x="167.01923076923077" y="0" dx="0em" dy="0.95em" style="text-anchor: middle; visibility: hidden; font-family: &quot;Helvetica Neue&quot;, sans-serif; font-size: 12px; font-weight: 200;" fill="rgb(50, 49, 63)" stroke="none" stroke-width="1px">3.5k</text><text x="187.8966346153846" y="0" dx="0em" dy="0.95em" style="text-anchor: middle; visibility: inherit; font-family: &quot;Helvetica Neue&quot;, sans-serif; font-size: 12px; font-weight: 200;" fill="rgb(50, 49, 63)" stroke="none" stroke-width="1px">4k</text><text x="208.77403846153848" y="0" dx="0em" dy="0.95em" style="text-anchor: middle; visibility: hidden; font-family: &quot;Helvetica Neue&quot;, sans-serif; font-size: 12px; font-weight: 200;" fill="rgb(50, 49, 63)" stroke="none" stroke-width="1px">4.5k</text><text x="229.6514423076923" y="0" dx="0em" dy="0.95em" style="text-anchor: middle; visibility: inherit; font-family: &quot;Helvetica Neue&quot;, sans-serif; font-size: 12px; font-weight: 200;" fill="rgb(50, 49, 63)" stroke="none" stroke-width="1px">5k</text><text x="250.52884615384616" y="0" dx="0em" dy="0.95em" style="text-anchor: middle; visibility: hidden; font-family: &quot;Helvetica Neue&quot;, sans-serif; font-size: 12px; font-weight: 200;" fill="rgb(50, 49, 63)" stroke="none" stroke-width="1px">5.5k</text><text x="271.40625" y="0" dx="0em" dy="0.95em" style="text-anchor: middle; visibility: hidden; font-family: &quot;Helvetica Neue&quot;, sans-serif; font-size: 12px; font-weight: 200;" fill="rgb(50, 49, 63)" stroke="none" stroke-width="1px">6k</text></g><line x1="0" y1="0" x2="271.40625" y2="0" fill="rgb(0, 0, 0)" stroke="rgb(204, 204, 204)" stroke-width="1px"></line></g></g></g></g></svg>