<svg viewBox="0 0 1029 400" xmlns="http://www.w3.org/2000/svg"><g><g><g><g><g><line x1="68.3125" y1="377.828125" x2="63.3125" y2="377.828125" style="visibility: inherit;" fill="rgb(0, 0, 0)" stroke="rgb(204, 204, 204)" stroke-width="1px"></line><line x1="68.3125" y1="335.8472222222222" x2="63.3125" y2="335.8472222222222" style="visibility: inherit;" fill="rgb(0, 0, 0)" stroke="rgb(204, 204, 204)" stroke-width="1px"></line><line x1="68.3125" y1="293.86631944444446" x2="63.3125" y2="293.86631944444446" style="visibility: inherit;" fill="rgb(0, 0, 0)" stroke="rgb(204, 204, 204)" stroke-width="1px"></line><line x1="68.3125" y1="251.88541666666669" x2="63.3125" y2="251.88541666666669" style="visibility: inherit;" fill="rgb(0, 0, 0)" stroke="rgb(204, 204, 204)" stroke-width="1px"></line><line x1="68.3125" y1="209.90451388888886" x2="63.3125" y2="209.90451388888886" style="visibility: inherit;" fill="rgb(0, 0, 0)" stroke="rgb(204, 204, 204)" stroke-width="1px"></line><line x1="68.3125" y1="167.92361111111106" x2="63.3125" y2="167.92361111111106" style="visibility: inherit;" fill="rgb(0, 0, 0)" stroke="rgb(204, 204, 204)" stroke-width="1px"></line><line x1="68.3125" y1="125.94270833333334" x2="63.3125" y2="125.94270833333334" style="visibility: inherit;" fill="rgb(0, 0, 0)" stroke="rgb(204, 204, 204)" stroke-width="1px"></line><line x1="68.3125" y1="83.96180555555543" x2="63.3125" y2="83.96180555555543" style="visibility: inherit;" fill="rgb(0, 0, 0)" stroke="rgb(204, 204, 204)" stroke-width="1px"></line><line x1="68.3125" y1="41.980902777777715" x2="63.3125" y2="41.980902777777715" style="visibility: inherit;" fill="rgb(0, 0, 0)" stroke="rgb(204, 204, 204)" stroke-width="1px"></line></g><g transform="translate(58.3125, 0)"><text x="0" y="377.828125" dx="0em" dy="0.3em" style="text-anchor: end; visibility: hidden; font-family: &quot;Helvetica Neue&quot;, sans-serif; font-size: 12px; font-weight: 200;" fill="rgb(50, 49, 63)" stroke="none" stroke-width="1px">1.5e-3</text><text x="0" y="335.8472222222222" dx="0em" dy="0.3em" style="text-anchor: end; visibility: inherit; font-family: &quot;Helvetica Neue&quot;, sans-serif; font-size: 12px; font-weight: 200;" fill="rgb(50, 49, 63)" stroke="none" stroke-width="1px">1.6e-3</text><text x="0" y="293.86631944444446" dx="0em" dy="0.3em" style="text-anchor: end; visibility: inherit; font-family: &quot;Helvetica Neue&quot;, sans-serif; font-size: 12px; font-weight: 200;" fill="rgb(50, 49, 63)" stroke="none" stroke-width="1px">1.7e-3</text><text x="0" y="251.88541666666669" dx="0em" dy="0.3em" style="text-anchor: end; visibility: inherit; font-family: &quot;Helvetica Neue&quot;, sans-serif; font-size: 12px; font-weight: 200;" fill="rgb(50, 49, 63)" stroke="none" stroke-width="1px">1.8e-3</text><text x="0" y="209.90451388888886" dx="0em" dy="0.3em" style="text-anchor: end; visibility: inherit; font-family: &quot;Helvetica Neue&quot;, sans-serif; font-size: 12px; font-weight: 200;" fill="rgb(50, 49, 63)" stroke="none" stroke-width="1px">1.9e-3</text><text x="0" y="167.92361111111106" dx="0em" dy="0.3em" style="text-anchor: end; visibility: inherit; font-family: &quot;Helvetica Neue&quot;, sans-serif; font-size: 12px; font-weight: 200;" fill="rgb(50, 49, 63)" stroke="none" stroke-width="1px">2e-3</text><text x="0" y="125.94270833333334" dx="0em" dy="0.3em" style="text-anchor: end; visibility: inherit; font-family: &quot;Helvetica Neue&quot;, sans-serif; font-size: 12px; font-weight: 200;" fill="rgb(50, 49, 63)" stroke="none" stroke-width="1px">2.1e-3</text><text x="0" y="83.96180555555543" dx="0em" dy="0.3em" style="text-anchor: end; visibility: inherit; font-family: &quot;Helvetica Neue&quot;, sans-serif; font-size: 12px; font-weight: 200;" fill="rgb(50, 49, 63)" stroke="none" stroke-width="1px">2.2e-3</text><text x="0" y="41.980902777777715" dx="0em" dy="0.3em" style="text-anchor: end; visibility: inherit; font-family: &quot;Helvetica Neue&quot;, sans-serif; font-size: 12px; font-weight: 200;" fill="rgb(50, 49, 63)" stroke="none" stroke-width="1px">2.3e-3</text></g><line x1="68.3125" y1="0" x2="68.3125" y2="377.828125" fill="rgb(0, 0, 0)" stroke="rgb(204, 204, 204)" stroke-width="1px"></line></g></g><g transform="translate(68, 0)" clip-path="url(#clip_0)"><clipPath id="clip_0"><rect width="960" height="377"></rect></clipPath><g><g><g><line x1="0" y1="0" x2="0" y2="377.828125" fill="rgb(0, 0, 0)" stroke="rgb(60, 60, 60)" stroke-width="1px" opacity="0.25"></line><line x1="120.0859375" y1="0" x2="120.0859375" y2="377.828125" fill="rgb(0, 0, 0)" stroke="rgb(60, 60, 60)" stroke-width="1px" opacity="0.25"></line><line x1="240.171875" y1="0" x2="240.171875" y2="377.828125" fill="rgb(0, 0, 0)" stroke="rgb(60, 60, 60)" stroke-width="1px" opacity="0.25"></line><line x1="360.2578125" y1="0" x2="360.2578125" y2="377.828125" fill="rgb(0, 0, 0)" stroke="rgb(60, 60, 60)" stroke-width="1px" opacity="0.25"></line><line x1="480.34375" y1="0" x2="480.34375" y2="377.828125" fill="rgb(0, 0, 0)" stroke="rgb(60, 60, 60)" stroke-width="1px" opacity="0.25"></line><line x1="600.4296875" y1="0" x2="600.4296875" y2="377.828125" fill="rgb(0, 0, 0)" stroke="rgb(60, 60, 60)" stroke-width="1px" opacity="0.25"></line><line x1="720.515625" y1="0" x2="720.515625" y2="377.828125" fill="rgb(0, 0, 0)" stroke="rgb(60, 60, 60)" stroke-width="1px" opacity="0.25"></line><line x1="840.6015625" y1="0" x2="840.6015625" y2="377.828125" fill="rgb(0, 0, 0)" stroke="rgb(60, 60, 60)" stroke-width="1px" opacity="0.25"></line><line x1="960.6875" y1="0" x2="960.6875" y2="377.828125" fill="rgb(0, 0, 0)" stroke="rgb(60, 60, 60)" stroke-width="1px" opacity="0.25"></line></g><g><line x1="0" y1="377.828125" x2="960.6875" y2="377.828125" fill="rgb(0, 0, 0)" stroke="rgb(60, 60, 60)" stroke-width="1px" opacity="0.25"></line><line x1="0" y1="335.8472222222222" x2="960.6875" y2="335.8472222222222" fill="rgb(0, 0, 0)" stroke="rgb(60, 60, 60)" stroke-width="1px" opacity="0.25"></line><line x1="0" y1="293.86631944444446" x2="960.6875" y2="293.86631944444446" fill="rgb(0, 0, 0)" stroke="rgb(60, 60, 60)" stroke-width="1px" opacity="0.25"></line><line x1="0" y1="251.88541666666669" x2="960.6875" y2="251.88541666666669" fill="rgb(0, 0, 0)" stroke="rgb(60, 60, 60)" stroke-width="1px" opacity="0.25"></line><line x1="0" y1="209.90451388888886" x2="960.6875" y2="209.90451388888886" fill="rgb(0, 0, 0)" stroke="rgb(60, 60, 60)" stroke-width="1px" opacity="0.25"></line><line x1="0" y1="167.92361111111106" x2="960.6875" y2="167.92361111111106" fill="rgb(0, 0, 0)" stroke="rgb(60, 60, 60)" stroke-width="1px" opacity="0.25"></line><line x1="0" y1="125.94270833333334" x2="960.6875" y2="125.94270833333334" fill="rgb(0, 0, 0)" stroke="rgb(60, 60, 60)" stroke-width="1px" opacity="0.25"></line><line x1="0" y1="83.96180555555543" x2="960.6875" y2="83.96180555555543" fill="rgb(0, 0, 0)" stroke="rgb(60, 60, 60)" stroke-width="1px" opacity="0.25"></line><line x1="0" y1="41.980902777777715" x2="960.6875" y2="41.980902777777715" fill="rgb(0, 0, 0)" stroke="rgb(60, 60, 60)" stroke-width="1px" opacity="0.25"></line></g></g></g><g><g><line x1="0" y1="1007.5416666666669" x2="960.6875" y2="1007.5416666666669" fill="rgb(0, 0, 0)" stroke="rgb(153, 153, 153)" stroke-width="1.5px"></line></g></g><g><g><line x1="120.0859375" y1="0" x2="120.0859375" y2="377.828125" fill="rgb(0, 0, 0)" stroke="rgb(153, 153, 153)" stroke-width="1.5px"></line></g></g><g><g><g><g><g><path stroke="rgb(255, 112, 67)" stroke-width="2px" d="M139.3237046875,-27.190447630209178L140.28439218749998,2.466171536366801L141.24507968749998,29.948914533797677L142.2057671875,15.968644444281551L143.1664546875,17.039225568075096L144.1271421875,35.25257659889479L145.0878296875,57.76473350824273L146.04851718749998,53.871184151869556L147.0092046875,59.56580110930679L147.9698921875,46.64743116738583L148.9305796875,58.49974419502763L149.8912671875,72.29692177096888L150.8519546875,58.00165795886164L151.8126421875,71.84061323481512L152.7733296875,75.4664718364956L153.7340171875,76.3075355714866L154.6947046875,68.88020775737596L155.6553921875,46.761459179881854L156.6160796875,61.779921295505346L157.5767671875,60.98225774395473L158.5374546875,73.44556526595153L159.4981421875,89.68110061933731L160.4588296875,64.66944224500753L161.41951718750002,78.72001091301223L162.3802046875,63.45851300626765L163.3408921875,53.533782381206834L164.3015796875,42.68599564905327L165.26226718750002,30.77218386519803L166.22295468750002,47.557319952308944L167.1836421875,70.23619787973365L168.14432968749998,62.634810652945475L169.10501718749998,76.31550254773248L170.0657046875,83.16199338270775L171.0263921875,95.5025060948742L171.9870796875,110.02891769219383L172.94776718749998,120.28323651162935L173.90845468749998,119.722773598809L174.8691421875,106.81628609491838L175.8298296875,102.24530621794327L176.7905171875,115.34975593923531L177.7512046875,132.30510097473083L178.71189218749998,147.1530278214282L179.6725796875,152.03325090342983L180.6332671875,139.8058435243768L181.5939546875,143.20120407974724L182.5546421875,149.50682301258814L183.5153296875,146.92451514823148L184.4760171875,149.8746952092665L185.4367046875,151.01435201431627L186.3973921875,136.29617574013508L187.3580796875,123.55505519104557L188.31876718750001,138.46717800741752L189.2794546875,147.8327307194891L190.2401421875,142.16386051556546L191.2008296875,148.44420741560572L192.1615171875,161.94388110356044L193.12220468750002,167.29532555073786L194.08289218750002,175.5085009427027L195.0435796875,180.01988316105974L196.0042671875,191.1277821115262L196.9649546875,192.41495353691775L197.92564218750002,198.1215089113022L198.8863296875,207.71007440254624L199.8470171875,215.55226601038345L200.80770468749998,222.12720151947101L201.76839218749998,174.44402866776855L202.7290796875,173.67775946153208L203.6897671875,170.88854064185077L204.6504546875,176.77845641297853L205.61114218749998,183.61764383235732L206.57182968749999,193.90373384788947L207.5325171875,178.25490219112945L208.4932046875,148.2615447638972L209.4538921875,155.63993916597056L210.4145796875,140.50480644768004L211.3752671875,141.23659049677914L212.3359546875,145.54185568521623L213.2966421875,128.68167913013744L214.2573296875,123.06083243642604L215.2180171875,135.19483282137503L216.17870468750002,143.30518953865337L217.1393921875,156.09555151605397L218.1000796875,168.545074362785L219.0607671875,161.34196687249297L220.0214546875,157.73446428618166L220.98214218750002,152.8046948136102L221.9428296875,164.99472666055783L222.9035171875,160.9324821717249L223.8642046875,142.7169488570378L224.8248921875,134.98403468159094L225.78557968750002,141.60815320165L226.74626718750002,141.87399623881316L227.7069546875,145.4125409744418L228.66764218749998,157.07033225457127L229.62832968749998,142.34674898542775L230.5890171875,125.81675402275579L231.5497046875,119.27930997965512L232.5103921875,115.60885744542304L233.47107968749998,132.6774490166328L234.4317671875,125.85993212113831L235.3924546875,132.17697119632544L236.3531421875,139.77501180015395L237.3138296875,143.46802376797396L238.2745171875,134.07187465397732L239.2352046875,135.5908059317805L240.1958921875,130.97974857565467L241.1565796875,134.0714696794052L242.1172671875,135.25714840354928L243.0779546875,136.78569443158636L244.0386421875,148.4667350424769L244.9993296875,156.317534677027L245.9600171875,157.45547234073655L246.9207046875,153.53597038230578L247.8813921875,131.57187362009824L248.84207968750002,139.84380511233448L249.8027671875,158.81893608603502L250.7634546875,160.48306078297364L251.7241421875,162.49383891293976L252.6848296875,174.71338108972657L253.64551718750002,160.5583615591803L254.6062046875,169.9480076538593L255.5668921875,183.62720221975715L256.5275796875,193.12456216213542L257.4882671875,178.78547803116885L258.4489546875,153.46707726638772L259.4096421875,152.7134529516294L260.37032968750003,159.9015967700398L261.33101718750004,170.58044725587243L262.29170468750004,162.6307846774451L263.2523921875,175.83057809642813L264.2130796875,169.10373792686644L265.1737671875,172.2162612540495L266.1344546875,179.79843351619806L267.0951421875,167.5024612843214L268.0558296875,163.89580558313327L269.0165171875,169.8149150533338L269.97720468750003,182.86585890884498L270.93789218750004,192.7540960827727L271.89857968750005,193.99205361595548L272.85926718750005,203.07049614568112L273.8199546875,214.27875510715953L274.78064218749995,211.6695948335643L275.74132968749996,224.97413833138708L276.70201718749996,235.83699259392574L277.66270468749997,244.44411022999728L278.6233921875,250.96378318193374L279.5840796875,257.3917838925404L280.5447671875,242.0334816508813L281.5054546875,221.85336133244613L282.4661421875,217.11027827304332L283.4268296875,224.23103313285836L284.3875171875,220.161671724645L285.34820468749996,233.27469624895778L286.30889218749996,222.84513296865762L287.26957968749997,231.98137420980152L288.2302671875,228.8669033739235L289.1909546875,214.09045035413777L290.1516421875,220.54801272174987L291.1123296875,190.22787530416124L292.0730171875,191.718964760121L293.0337046875,201.41003462747656L293.9943921875,197.4890366341373L294.9550796875,195.96489098264817L295.91576718749997,188.8396067266576L296.8764546875,175.47227125166071L297.8371421875,175.16032128392453L298.7978296875,183.76762674460085L299.7585171875,197.50066179211828L300.7192046875,204.14886116131294L301.6798921875,208.51542170511834L302.6405796875,214.02653483595756L303.6012671875,218.45055685257273L304.5619546875,224.07826188377197L305.5226421875,231.5408643802123L306.4833296875,241.05837956650956L307.4440171875,221.8636946161525L308.4047046875,211.26654282517458L309.3653921875,216.88372184993958L310.3260796875,212.8431286862486L311.2867671875,201.27047668015237L312.2474546875,213.2616785646601L313.2081421875,222.5777305265731L314.1688296875,232.72811514763768L315.1295171875,228.65948760175792L316.09020468750003,228.508398589128L317.05089218750004,235.9116417107801L318.0115796875,243.7317451130862L318.9722671875,255.50819114663466L319.9329546875,265.05064840865003L320.8936421875,242.02882601101302L321.8543296875,253.07132917939995L322.8150171875,253.00637168683664L323.7757046875,210.6743945499542L324.73639218750003,223.2417008279082L325.69707968750004,225.07027804730743L326.65776718750004,228.86194088910685L327.61845468750005,242.6590419751509L328.5791421875,247.5107480826971L329.5398296875,257.49802446469033L330.5005171875,245.58053118902916L331.4612046875,254.35827688941004L332.4218921875,258.36660592705056L333.38257968749997,257.0196221738515L334.3432671875,267.7245454688637L335.3039546875,253.60120559051893L336.2646421875,258.18953017780865L337.2253296875,252.9222178249354L338.1860171875,238.25360820702363L339.1467046875,245.3022248359376L340.10739218749995,233.91852709478417L341.06807968749996,244.31717857395336L342.02876718749997,253.91161754588043L342.9894546875,237.8695872169154L343.9501421875,241.06328248228667L344.9108296875,249.2807874437218L345.8715171875,257.6697418168703L346.8322046875,238.60763737411364L347.7928921875,242.03150084631218L348.7535796875,250.23535208713707L349.7142671875,251.83011516334832L350.67495468749996,262.5466800484416L351.63564218749997,269.9853285617222L352.5963296875,256.4168712721912L353.5570171875,262.4566062930606L354.5177046875,266.7689340299588L355.4783921875,273.65339295112756L356.4390796875,282.2988072606737L357.3997671875,283.08021976290337L358.3364375,285.15805169657597L359.297125,268.7776976005185L360.2578125,260.68059413402636L361.2185,257.0121611677149L362.1791875,244.45142415616226L363.139875,221.39288183008418L364.1005625,220.4916455137189L365.06125000000003,217.87158479151594L366.0219375,234.10928101589158L366.982625,243.52515573501958L367.9433125,229.96713506556512L368.904,235.71894398041806L369.8646875,240.89336612542292L370.825375,247.9747195226611L371.7860625,237.66922806027898L372.7227328125,245.32669002170394L373.6834203125,229.57580106918778L374.6441078125,223.48512755541933L375.6047953125,235.17991068326458L376.5654828125,234.4770203458734L377.5261703125,228.76473317835354L378.48685781250003,228.77999835720036L379.44754531250004,200.82622646723982L380.40823281250005,203.7386258467871L381.3689203125,214.55776675652388L382.3296078125,213.57656919898534L383.2902953125,209.6900515138894L384.22696562500005,210.12082096133952L385.187653125,218.98576422728755L386.148340625,227.15727074466008L387.10902812499995,234.19720807807403L388.06971562499996,238.58810133906215L389.03040312499996,246.96444146617677L389.99109062499997,248.335928026345L390.951778125,257.6898312725844L391.912465625,247.42853276801378L392.873153125,227.7952995907939L393.833840625,232.74466267563295L394.794528125,228.04602451160494L395.755215625,239.7834775361247L396.715903125,246.18103415244994L397.67659062499996,258.3396434239609L398.63727812499997,239.2510498360595L399.597965625,220.76256874184202L400.558653125,228.09460948200834L401.519340625,238.37109128914082L402.480028125,250.06215388253707L403.4166984375,251.1808721390443L404.3773859375,259.10089985620016L405.3380734375,269.58520832783944L406.2987609375,253.12451689662083L407.23543125,260.7109676352412L408.19611875,269.3162218653913L409.15680625,280.9275844859858L410.11749375,282.55343075574376L411.07818125,266.16886394712446L412.03886875,270.09055817323326L412.99955625,271.82523301255515L413.96024375,284.4546784878432L414.92093125,278.3748848009517L415.88161875000003,292.31520900543023L416.84230625000004,301.09182939868856L417.80299375,299.4618806489671L418.76368125,278.78145058235555L419.72436875,262.39557503081016L420.68505625,255.53628553240867L421.64574375,242.48096797174054L422.60643125,252.7899736308612L423.56711875,250.58091934110453L424.52780625,255.94735227969193L425.48849375000003,266.9425668063319L426.4251640625,272.4360990164773L427.3858515625,271.0440429117915L428.29850468750004,271.8921637900044L429.25919218750005,277.3091092084942L430.1958625,288.51601379940183L431.15655,274.9934188448947L432.1172375,280.36461373758283L433.029890625,266.76385330177663L433.990578125,260.15549877648243L434.95126562499996,265.6557773982215L435.91195312499997,249.39911042287616L436.872640625,225.53875614602666L437.833328125,235.28119302587564L438.794015625,235.81829728901258L439.754703125,230.38095597625912L440.715390625,232.08081525852208L441.676078125,230.15670624948982L442.636765625,218.61634180961946L443.597453125,230.42414922785707L444.558140625,235.42419097593014L445.4948109375,244.97565809103216L446.4554984375,222.61911856652688L447.39216875,216.94006968640159L448.3288390625,227.91506351196614L449.2895265625,222.48520662900276L450.2502140625,220.6907974241564L451.2109015625,210.28216673791582L452.1715890625,203.85077182277718L454.0209125,205.94387711890698L454.9816,214.28891584548396L455.9182703125,216.66984182522947L456.8789578125,228.73888300972004L457.8396453125,213.90028615092402L458.776315625,209.71757909095467L459.7129859375,214.88873670512262L460.6256390625,215.41482842952246L461.5863265625,208.97471601191793L462.5470140625,219.74605372863533L463.50770156249996,229.95447633253804L464.444371875,211.8130622100808L465.405059375,209.35663460348155L466.365746875,199.63963554481393L467.326434375,203.5208013795183L468.2390875,211.45212810818222L469.151740625,227.4107693645945L470.112428125,239.30452866106705L471.073115625,238.7383891447711L472.033803125,226.8651090854994L472.994490625,226.01829492583795L473.95517812500003,211.24833784416043L474.8918484375,222.4001159415289L475.780484375,230.30669240644528L476.741171875,234.82536347695662L477.701859375,245.85658706760378L478.6145125,251.50570139202637L480.48785312499996,261.4158619540829L481.42452343750006,264.68255514643124L482.3371765625,273.29891428861845L483.2978640625,259.36806953814096L484.25855156250003,269.53251839865607L485.195221875,278.5086771492797L486.13189218749994,284.5766532564735L487.09257968749995,293.00336914530243L487.981215625,302.7069692291252L488.9178859375,307.5830170227763L489.85455625000003,310.45339228376577L490.79122656249996,309.1373678722933L491.7038796875,319.5632961312426L492.64055,322.35596357729355L493.55320312500004,302.40239428018583L494.46585625000006,307.5986548234837L495.4025265625,311.0526811418871L496.339196875,319.57748419570476L497.2758671875,324.14118208901516L498.18852031250003,328.6452194101577L499.12519062499996,330.60836808757165L500.08587812499997,336.33948036023645L500.9745140625,333.0368475257302L501.9352015625,327.53531643919064L502.84785468750005,332.5277297728953L503.784525,328.1995160350617L504.7211953125,338.67818065644195L505.657865625,318.62127840227055L506.59453593750004,326.7633850908469L507.53120624999997,338.37964734978726L508.46787656250007,315.0629939589525L509.3805296875,305.19881150943013L510.3172,311.5370533844101L511.22985312500003,301.95759404719706L512.14250625,306.83576708860153L513.055159375,312.1688311291087L513.9918296875,321.34791177804306L514.880465625,300.6739026161674L515.841153125,310.0572987715074L516.75380625,292.7082781745346L517.7144937500001,301.2800787429274L518.627146875,299.2307027512143L519.587834375,285.54521209377566L520.5245046875,295.2604009449446L521.4371578125,302.9264878175483L522.3738281249999,290.9364244324004L523.3104984375,298.20342751089873L524.24716875,281.80824606891565L525.1598218749999,278.5590919258898L526.120509375,291.19598652229837L527.0571796875,291.86196450047714L527.99385,281.31450529985653L528.906503125,282.3136158345615L529.7951390625001,291.4729373837461L530.683775,301.8690359231525L531.5724109375,290.04769346792756L532.461046875,286.7791779989398L533.3977171875,283.5776678976216L534.286353125,292.086026389008L535.19900625,277.6340360781372L536.1356765625,288.49700741858743L537.0002953125,296.69742933007683L537.9609828125,292.5604652921877L538.8736359375,301.68376326687644L539.762271875,293.83196711945357L540.6749249999999,301.05357952079237L541.5635609375,297.3540462514562L542.4762140625,303.6144420421068L543.4369015625,312.5345868796749L544.3975890625001,313.510697831108L545.286225,324.4175984473011L546.198878125,327.39110726308377L547.11153125,334.1323935775484L548.0482015624999,328.6097124390152L549.8735078125,331.103773078521L550.8341953125,319.12246105312374L551.6988140625,311.9425148789745L552.6595015624999,318.7264642843038L553.5721546875,312.45768593280764L555.3974609375,311.6177831541857L556.3341312499999,307.4611082253497L557.2708015625,288.5679064300773L558.1594375,255.77394514504718L559.072090625,257.69705095352003L560.0327781249999,227.71721680172544L560.94543125,215.71674711473568L561.90611875,217.35173148371754L562.7707375,230.1523625648822L563.6593734375,240.80970976114529L564.59604375,226.47139236541184L565.508696875,226.52721843135353L566.373315625,201.1695430291152L567.3099859375,205.74399383507358L568.1986218750001,210.76198298392708L569.0872578125,194.10038637603108L569.9758937500001,177.9639972768698L570.8645296875,189.63814536480112L571.7771828125,201.64111206357475L572.713853125,181.15564845156155L573.6024890625,172.70884198008588L574.5631765625001,189.04407295293504L575.4758296875,199.47176302688226L576.364465625,209.74600116434547L578.1177203125,181.51187699382612L579.0303734375,195.8623604662964L579.919009375,199.54297714217086L580.8556796875,200.10070021459669L581.8163671875,198.37821978016984L582.7290203125,196.73768286370523L583.5936390625,197.97090515518553L584.4822750000001,177.28034729428776L585.4189453125,191.60926370499243L586.2835640625,197.9025902126966L587.220234375,211.75790627060036L588.1569046875001,222.50260757897294L589.0695578125001,224.14968764371213L589.9822109375,238.1771139683106L590.870846875,234.25549971754342L591.7835,244.01987394051613L592.7441875,248.8502512354242L593.6328234375,257.3650953280409L594.56949375,264.2081251533782L595.4581296875,269.6674264431031L596.3707828125,271.0984015638315L597.2834359374999,263.81183043304475L598.172071875,257.89444813574534L599.084725,268.0727160977674L599.94934375,275.77882703117655L600.8379796875,272.91288971336184L602.7113203125,283.3956440009211L603.6720078125,261.81760672328835L605.4492796875,272.3341272068159L606.3379156249999,283.09796235080773L607.2745859375001,286.0400131504415L608.21125625,293.8117914998012L609.17194375,300.33224945133816L610.084596875,310.30342041208604L610.9732328125,317.6208232309043L611.86186875,323.6469349144235L612.7264875000001,324.8994948144686L613.59110625,306.427577573546L615.4404296875,311.73057753321166L617.1216328125,318.70449243641133L618.01026875,305.48915703644076L618.8989046875,313.9412819160045L620.652159375,320.4904836295734L621.5648125,326.2199601915312L622.477465625,296.7796954383234L623.39011875,277.17046983505554L624.3267890625,283.9994270666941L625.1914078125,287.83061282608685L626.0320093749999,293.9163227518985L626.8726109375,290.1235043900358L627.7852640625,296.6031288198335L628.6979171875,298.66439091380437L629.53851875,288.0344174015504L630.3791203124999,290.698079503776L631.2437390624999,296.49306115033244L632.1563921874999,305.3583871438765L633.0690453125,300.9551818541812L633.9576812500001,294.43850292010825L634.8223,297.93271933834404L635.6148671875001,285.7777353162949L636.503503125,263.1005130213506L638.328809375,257.6175039452648L639.2654796875,270.23910910209526L640.0820640625,260.0885507906044L640.8506140625,267.05110918142236L641.8113015624999,271.2374974235729L642.7479718750001,279.7199884766953L643.6366078125,261.04362582425887L644.5492609375,268.0579775585003L645.48593125,265.8793079892743L647.3112375,266.5324115536496L648.223890625,247.9806503155737L649.13654375,262.49366414737597L650.049196875,274.33339721058826L650.96185,270.0729075588113L651.82646875,272.15597424138775L652.6670703125,260.72140867695225L653.5797234375,256.4299194019959L654.3963078125,262.8862343175893L656.101528125,252.01062709405642L656.9661468749999,263.1984518136106L658.7434187499999,274.8522997718122L659.6080375,270.06812551385224L660.4486390625,252.9993112743115L661.3132578125,264.1857898793506L662.2259109375,246.83146059185137L663.114546875,255.91491927211175L664.0272,264.9814449100166L664.8197671875,279.38338693152957L665.7324203125,286.8358939788995L666.6450734375001,300.3080744215133L667.533709375,302.7745366606903L668.4223453125,309.6846677062288L669.3349984375001,305.8769441199088L670.1515828124999,272.21023223098155L671.1122703125,238.13084236736225L671.952871875,242.5149833103939L672.817490625,229.12320916058016L673.7061265625,235.31330105333433L675.507415625,227.69401902728075L676.4200687499999,208.61273369360197L677.2606703125,220.48393584683467L678.14930625,231.2119568780703L679.9025609375001,231.571854417913L681.60778125,210.63751951816653L682.520434375,224.06725420368255L683.3370187500001,230.95022242251807L684.2736890625,242.83753482732735L685.1623249999999,232.145537637059L685.978909375,215.44172866078114L686.8675453125,226.23268105040938L687.7801984375001,237.39204378988728L688.6448171875,230.2190590466662L689.5574703125001,236.79308619559274L690.494140625,235.4761145558276L691.40679375,239.47676757667227L692.319446875,248.9392995722062L693.2080828124999,257.3806242859536L694.0727015625,270.53063064288693L694.9853546875,266.02506773225423L695.8499734375,271.3878247878977L697.6272453125,280.9638299761469L698.5398984375,293.10157123431065L700.1010156250001,273.0898768810527L700.9416171875,272.2286005743038L701.8542703124999,284.57758228210207L702.7188890625,249.2401554829268L703.5114562499999,263.58662605824327L704.4000921875,271.2381566851945L705.24069375,281.8073961176661L706.153346875,293.272523870665L707.0900171875,298.31184356222104L708.0026703125001,304.8375356472224L708.7712203125,309.3116549449045L709.6598562500001,293.1905018966838L710.5484921875,306.5138827190413L711.38909375,316.04273690907735L712.1816609375,311.6879427706522L713.0943140625,288.73566907211523L713.934915625,286.3659445669507L714.799534375,288.9956662060491L715.664153125,287.2606900960445L716.5527890625,290.88280238691954L718.2820265624999,280.35623447922814L719.1466453125,290.26664827926936L720.03528125,292.34825956270333L720.8758828125,278.8013980206222L721.8125531249999,286.57747956005244L722.7252062499999,297.662456795842L723.5658078125,294.6265805118053L725.2470109374999,295.85824051747136L726.135646875,289.44686815037903L727.0242828125,298.52045574636907L727.9849703125,294.4024754461195L728.8495890625,278.103616556539L729.64215625,275.22435604497485L730.458740625,269.2407771393483L731.2513078125,279.2232828693127L732.1639609375001,267.1695421992805L733.0766140625,258.04708347074336L733.96525,268.2265617657639L734.781834375,264.8288510584075L737.1595359375,277.2396823145301L737.9761203125,282.26782101860687L738.816721875,275.3453099945398L739.729375,281.7403847275128L740.59399375,255.53393448907647L741.3625437500001,266.1923487579265L742.2031453125,274.97136916860234L743.1157984375,273.17101635368834L743.8843484375001,283.79341898711846L744.72495,275.38853687700407L745.4694828125,273.8717889129268L746.26205,280.019936925413L747.9672703125,278.1844804638994L748.7838546875,283.5930122146599L749.576421875,280.51531184792213L750.3209546874999,293.31792463843794L751.9541234375,306.63538920586774L752.69865625,315.7371888400738L753.515240625,307.465560486041L755.1964437500001,310.582395394232L756.0850796875,309.1957900565325L756.9016640625,313.35363073413964L757.7662828125,320.41753428795806L758.5828671875,307.9878230701396L759.42346875,297.3214572729176L760.240053125,304.55454986494L761.0566375,297.620047159872L761.8972390624999,292.6410553678871L762.7138234375,296.81898956270487L763.5304078125,304.2344368231936L764.41904375,307.187707031022L765.2596453125001,309.6227505383865L766.0522125,313.4395580687783L766.91683125,320.32926774850506L767.7814500000001,332.1582599373725L768.64606875,334.5513932601945L769.4626531250001,334.7023088403906L770.2071859375001,347.5956657961461L770.999753125,353.92695443622154L771.8883890625001,351.4435386953433L772.7530078125,334.38659157805387L774.4101937500001,333.2389097826598L775.2988296875,289.7835452052657L776.1394312499999,300.526795279321L777.0520843749999,311.4798375833455L777.8446515625001,314.94771454351906L778.6612359375,322.76623397948254L779.4778203125,311.8639441286326L780.318421875,316.0225621419225L781.183040625,305.0302356578531L782.09569375,281.7727909307662L782.912278125,293.01117449953983L783.680828125,296.99978692133635L785.36203125,294.97674513856293L786.9952000000001,274.2003833591275L787.7877671875,276.0460216219714L788.580334375,271.633795107422L789.4689703125,289.08070794938044L790.2375203124999,284.3068361766122L791.0541046875,269.333005612112L791.8466718750001,244.2572664608019L792.7833421875,240.2874639487161L793.5999265625001,251.4584680811643L794.39249375,265.0073486532947L795.16104375,265.26685286005795L796.0496796875,275.47158621256864L798.5474671875,281.90740455774034L799.2919999999999,291.69189806566976L800.1806359375,304.1454336248974L800.9491859375,296.6056624827156L801.837821875,291.6406220384133L803.470990625,300.9098325233761L804.2155234375,309.56207789079815L805.056125,284.7118781672303L805.8006578125,288.5689548112522L806.6652765624999,299.7159540172859L807.409809375,308.73452379325704L808.22639375,303.21158730473803L809.0910124999999,293.3777508760659L809.8595624999999,306.66026937483156L810.72418125,316.61880049824777L811.49273125,295.02175694539505L812.2852984374999,264.9787134554727L813.1018828125,269.3445385788866L813.8223984375,263.17440599204286L814.663,240.30395228484156L815.5036015625001,252.7166262574982L816.3201859374999,264.3306947742864L817.1848046875,273.9625230389009L817.9533546875,259.7503440785536L818.8660078125,267.91478948242275L819.6345578125,272.494328517128L820.4271249999999,281.9563212403551L821.243709375,288.33531029744734L822.012259375,295.72583049435434L822.8528609374999,303.9837087907279L823.6694453125,307.77880486017705L825.3746656249999,286.61598224913325L826.19125,291.5774325327337L827.8004015624999,303.1662674209199L829.409553125,301.1382375818612L830.2261374999999,311.13664360413844L831.09075625,306.75357237541056L831.8833234374999,303.92312133124943L832.675890625,301.3650829533631L833.6125609375,307.06833984075615L834.405128125,308.7712927571533L835.2217125,309.13538224284696L837.287190625,307.1745039103031L838.8002734375,318.0164850884784L839.6648921875001,327.0146545673871L840.457459375,330.6700506150606L841.3460953125,327.7155341911391L842.186696875,325.53552961529L843.0993500000001,320.51460879857774L843.9639687499999,324.51589915848035L844.780553125,309.25106043186065L846.3416703124999,289.5402699545033L847.0621859375,298.3212662037315L847.9027875,297.0417205006137L849.487921875,280.9157368872368L850.352540625,291.76409935772847L851.217159375,301.0861993638799L851.8656234375,299.6802958777351L852.658190625,308.58201335402026L853.426740625,292.2123102404847L854.1712734375001,304.66690501345624L854.8197375000001,307.23791355051264L856.3088031249999,316.0415643487111L857.077353125,322.6547096921311L857.8218859374999,333.18004855605943L859.5271062500001,342.0165081981944L860.3436906249999,318.8198552984077L861.112240625,326.30637821069985L861.9048078124999,328.3198849518637L862.7213921875,304.45315278049145L864.3305437500001,278.8948262321744L865.1231109375,270.4608854283987L865.915678125,279.6453082595773L866.82833125,295.5562739299003L867.59688125,265.10325455135876L868.36543125,275.19256313509453L870.76715,248.7501572853414L871.5597171874999,233.89909177428956L872.3763015625,230.5531009059026" style="fill: none;" fill="none"></path></g></g></g></g><g opacity="0.20000000298023224"><g><g><g><path stroke="rgb(255, 112, 67)" stroke-width="2px" d="M121.0706421875,-330.1175089413043L122.0313296875,49.89221584151437L122.9920171875,286.32239671619027L123.9527046875,-89.92988647764378L124.91339218750001,321.4048678434661L125.8740796875,-731.3522360306106L126.8347671875,-341.92004823941477L127.7954546875,124.00124262859262L128.75614218750002,-7.789495070503847L130.6775171875,-506.80029749660764L131.6382046875,63.76977113776627L132.5988921875,176.51178573328713L133.55957968750002,282.8156695289783L134.5202671875,125.83619836523167L135.4809546875,-176.10067072794004L136.4416421875,209.77459812348627L137.4023296875,288.7641985984066L138.3630171875,121.38169254379392L139.3237046875,414.17032056004007L142.2057671875,-179.87683037070235L143.1664546875,32.4002678946772L144.1271421875,302.4969944291515L145.0878296875,395.0730184866083L146.04851718749998,-5.622697074988196L147.0092046875,148.19562224948695L147.9698921875,-157.91473749744364L148.9305796875,249.2537592559626L149.8912671875,297.7717366026805L150.8519546875,-179.00016079195007L151.8126421875,304.4121005788329L152.7733296875,137.18627880727738L153.7340171875,90.79834755936292L154.6947046875,-60.55632400812152L155.6553921875,-342.88849981554097L156.6160796875,329.0658789086285L157.5767671875,46.64817674582844L158.5374546875,299.4726358862859L159.4981421875,386.6849356563051L160.4588296875,-396.6588705710926L161.41951718750002,339.9056358061692L162.3802046875,-222.34442897678446L165.26226718750002,-196.85210138663479L166.22295468750002,370.18870997490984L167.1836421875,508.6533868536709L168.14432968749998,-85.11284665379867L169.10501718749998,343.604870601292L170.0657046875,217.58633106293075L171.0263921875,338.933323326L171.9870796875,397.85814759542376L172.94776718749998,324.32752333173346L173.90845468749998,108.52537080298896L174.8691421875,-152.03335883503973L175.8298296875,10.234573423409643L176.7905171875,380.0548348427983L178.71189218749998,449.02783293656347L179.6725796875,251.55339189943493L180.6332671875,-110.26013649024162L181.5939546875,212.83126119258424L182.5546421875,279.1571941512197L183.5153296875,93.6969579237176L184.4760171875,210.82970011566385L185.4367046875,174.61476229874333L186.3973921875,-169.15280285004224L188.31876718750001,449.191310455848L189.2794546875,343.3497577012426L190.2401421875,23.60718111749469L191.2008296875,280.01392387111747L192.1615171875,445.2164364353845L193.12220468750002,279.7633072137509L194.08289218750002,348.376605892887L195.0435796875,275.1088163373319L196.0042671875,425.57274313157865L196.9649546875,219.6173620783051L197.92564218750002,318.8699644143926L198.8863296875,410.83982653711513L199.8470171875,381.8730762859858L200.80770468749998,361.72155192003186L201.76839218749998,-838.9717595330701L202.7290796875,157.3761678526449L203.6897671875,111.49513909502025L204.6504546875,302.31015599679733L205.61114218749998,329.50582648070605L206.57182968749999,413.49779017353046L208.4932046875,-493.0332911237107L209.4538921875,313.51142058048083L210.4145796875,-183.55368169681697L211.3752671875,156.91500974443295L212.3359546875,237.83911863365532L213.2966421875,-232.9850805189992L214.2573296875,2.420005896186865L215.2180171875,395.76920301940606L216.17870468750002,317.56302395977156L217.1393921875,431.04310656612506L218.1000796875,436.2922255373528L219.0607671875,6.357541553501449L220.0214546875,80.08077116950875L220.98214218750002,46.644657947207065L221.9428296875,427.6041651245776L222.9035171875,73.38674551438044L223.8642046875,-249.98859966830878L224.8248921875,-31.78584452453981L225.78557968750002,284.51241467532236L226.74626718750002,147.61091521190244L227.7069546875,221.7975999296662L228.66764218749998,408.7942804774276L231.5497046875,-21.99322345007556L232.5103921875,36.27231479987182L233.47107968749998,501.6980904009058L234.4317671875,-21.566080395203528L235.3924546875,268.8088961277972L236.3531421875,304.1466756439347L237.3138296875,223.37578111135127L238.2745171875,-69.27492954781837L239.2352046875,168.46849629567518L240.1958921875,31.15549288236707L241.1565796875,201.01445121117604L242.1172671875,160.93377100325753L243.0779546875,169.89214357123836L244.0386421875,401.4990778522786L244.9993296875,326.40258820207805L245.9600171875,182.11166050598123L246.9207046875,68.60010420084768L247.8813921875,-344.4468388827778L248.84207968750002,319.1378329594445L249.8027671875,570.148351410585L250.7634546875,196.56043411176907L251.7241421875,206.09070920012888L252.6848296875,439.6770654500967L253.64551718750002,-146.40064194187948L254.6062046875,373.58464387775166L255.5668921875,480.31684366118867L258.4489546875,-395.78865212314633L259.4096421875,136.3632709075011L260.37032968750003,315.861342720917L261.33101718750004,402.2916872417425L263.2523921875,462.27469245213763L264.2130796875,23.119045553185572L265.1737671875,239.76717591715146L266.1344546875,344.3619987713238L267.0951421875,-99.3820637854904L268.0558296875,85.60968350333854L269.0165171875,298.30072932876L269.97720468750003,466.1737168134294L270.93789218750004,407.41486254564694L271.89857968750005,220.86751303295344L272.85926718750005,400.16618625782496L273.8199546875,457.621765486217L274.78064218749995,155.02013668682446L275.74132968749996,513.8482576794859L281.5054546875,-216.37713298137544L282.4661421875,114.10735834935781L283.4268296875,378.87193203958066L284.3875171875,131.78580262312764L285.34820468749996,518.0609438401104L287.26957968749997,430.4080122871706L288.2302671875,161.2236809118961L289.1909546875,-106.84484919498215L290.1516421875,360.80446502933694L291.1123296875,-468.32712179221903L292.0730171875,224.10598069748892L293.0337046875,411.9066089858275L293.9943921875,112.32117707138718L294.9550796875,162.85855384914768L295.91576718749997,34.06768971917654L296.8764546875,-114.8898002874987L297.8371421875,168.38414287316843L298.7978296875,370.7375448154376L299.7585171875,495.8159297832527L300.7192046875,348.56549695777034L301.6798921875,303.36965648725163L302.6405796875,333.7448058865848L303.6012671875,314.5546954995144L304.5619546875,346.3313041942149L305.5226421875,393.6554313642264L308.4047046875,-18.946628054810958L309.3653921875,338.9124548952871L310.3260796875,125.06391981224678L311.2867671875,-50.139213922769954L314.1688296875,453.2434025571695L315.1295171875,140.26884414400487L316.09020468750003,225.22598497534958L317.05089218750004,396.74806437478725L321.8543296875,492.9759171903845L322.8150171875,251.59512876086063L323.7757046875,-709.0178347143296L324.73639218750003,496.27620819180936L325.69707968750004,264.7976611882461L326.65776718750004,311.2392541151364L327.61845468750005,542.4144024820125L328.5791421875,352.919032807656L329.5398296875,474.4823823137365L331.4612046875,445.06517696686853L332.4218921875,345.4524842385274L333.38257968749997,227.7546816346326L334.3432671875,500.3031311085474L335.3039546875,-53.247583782720824L336.2646421875,357.8773132983867L337.2253296875,138.4822718884097L338.1860171875,-80.44359637205116L342.9894546875,-110.66978329641285L343.9501421875,310.45162969038614L344.9108296875,427.81998477335503L346.8322046875,-175.5497832548831L347.7928921875,316.4209783183243L348.7535796875,428.47868432639456L349.7142671875,286.47922761585664L350.67495468749996,495.3836551470579L353.5570171875,393.6812358874498L354.5177046875,360.4624573522209L355.4783921875,423.23147137108674L356.4390796875,470.1371547383735L357.3997671875,300.0579293903073L358.3364375,330.303029857259L359.297125,-87.11787765713734L360.2578125,84.75490867156373L361.2185,177.30810941018473L362.1791875,-28.455888095848707L363.139875,-279.60065848883517L364.1005625,200.91045116303331L365.06125000000003,160.9454025875893L366.0219375,586.9066298448663L367.9433125,-64.60900257587991L368.904,360.6889800134717L369.8646875,353.31851419558774L370.825375,401.8319952996228L371.7860625,13.760702875242202L372.7227328125,411.70124798850804L373.6834203125,-112.6456864667191L374.6441078125,91.15228005402923L375.6047953125,489.27404329629564L376.5654828125,219.20522278977697L377.5261703125,104.65303066457591L378.48685781250003,229.111667225202L379.44754531250004,-406.5297849148825L380.40823281250005,267.0168013132546L381.3689203125,449.6270550184612L382.3296078125,192.25792084189334L383.2902953125,125.24699508496425L384.22696562500005,219.48022667647774L385.187653125,411.5960261352884L387.10902812499995,387.155281738695L388.06971562499996,333.98989998500394L389.03040312499996,428.9588537216025L389.99109062499997,278.13449442968056L390.951778125,460.9240113757648L391.912465625,24.479158964751775L392.873153125,-198.78010979792793L393.833840625,340.2805344759545L394.794528125,125.95769466207511L395.755215625,494.80569247349763L402.480028125,504.07660278014055L403.4166984375,275.487527038957L404.3773859375,431.1812194120139L409.15680625,533.210495965785L410.11749375,317.8785917750243L411.07818125,-89.82266086409805L412.03886875,355.29818052553065L412.99955625,309.5149450462583L413.96024375,558.8577973118842L414.92093125,146.27768151202724L415.88161875000003,595.2001449622202L416.84230625000004,491.7836797963796L417.80299375,264.04757061545706L418.76368125,-170.5475177813853L419.72436875,-93.62452728567757L420.68505625,106.50274580654343L421.64574375,-41.17526992363861L422.60643125,476.7763946538552L423.56711875,202.5842263739323L424.52780625,372.545229862761L425.48849375000003,505.83844570097995L426.4251640625,391.79550193181626L427.3858515625,240.79847714643174L428.29850468750004,290.31950758905276L429.25919218750005,395.0044996578977L433.029890625,-28.743452138739713L433.990578125,116.57403618293915L434.95126562499996,385.161784575282L437.833328125,446.9577041587295L438.794015625,247.48810430328334L439.754703125,112.24239508003097L440.715390625,269.01411050850743L441.676078125,188.35107692810962L442.636765625,-32.12423565862838L443.597453125,486.975534713494L444.558140625,344.06143472241496L445.4948109375,452.50293980838615L446.4554984375,-263.127402742885L447.39216875,93.54985259246308L448.3288390625,466.3716981080846L449.2895265625,104.50924864313038L450.2502140625,181.70318663268372L451.2109015625,-15.868949938390926L452.1715890625,64.11412468062991L454.0209125,251.42133920672737L454.9816,395.6038194842016L455.9182703125,268.4008621043273L456.8789578125,490.96619445555075L457.8396453125,-108.5019101124297L458.776315625,118.83877407341618L459.7129859375,327.24387430580424L460.6256390625,226.84536542422654L461.5863265625,69.04865328066637L462.5470140625,453.77782009779025L464.444371875,-182.3503503127141L465.405059375,155.98516720873556L466.365746875,-11.484233622943805L467.326434375,287.84794253516395L468.2390875,383.77821250624L470.112428125,497.7234607414576L471.073115625,226.43772237838127L472.033803125,-31.10886676755041L472.994490625,207.6193339678963L473.95517812500003,-109.66252719104529L475.780484375,402.0950254965703L476.741171875,333.0037566713646L477.701859375,485.53497765566703L478.6145125,374.24554267992954L480.48785312499996,476.7366126805525L481.42452343750006,335.6588857200016L482.3371765625,460.50889088284913L488.9178859375,413.52623379571986L489.85455625000003,372.81881645557263L490.79122656249996,280.54374742464927L491.7038796875,546.0902763640657L498.18852031250003,426.50566461606974L499.12519062499996,373.2622339540685L500.08587812499997,460.8609173615955L500.9745140625,261.27964452212393L501.9352015625,208.00205219017352L502.84785468750005,440.999254032077L503.784525,234.15923723095003L504.7211953125,566.3509812316884L508.46787656250007,-191.54428689951453L509.3805296875,90.87703180631308L510.3172,449.2497616107253L511.22985312500003,93.82207076358861L512.14250625,412.8251620426147L517.7144937500001,487.5219259438681L518.627146875,254.70335200420232L519.587834375,-11.80317362020861L521.4371578125,469.4896469198381L522.3738281249999,30.42504893521408L523.3104984375,456.0955843286033L524.24716875,-74.41433042314361L525.1598218749999,207.96383412736918L526.120509375,565.7612403571871L527.0571796875,306.33184958780635L527.99385,52.14698380256425L528.906503125,304.02156280406376L529.7951390625001,490.4800137793646L530.683775,527.7479032115274L531.5724109375,33.202163002725285L532.461046875,215.76325127163886L533.3977171875,214.01758505001715L534.286353125,476.94945112494236L537.0002953125,474.8702321173365L537.9609828125,202.67551964927566L538.8736359375,499.90814596329847L539.762271875,123.2338512959152L540.6749249999999,457.95952128166556L541.5635609375,216.97327814756295L542.4762140625,439.63576843849864L543.4369015625,506.34500608584824L544.3975890625001,334.71892663826776L545.286225,561.3948022456898L547.11153125,480.6021595827382L548.0482015624999,208.61691337705508L549.8735078125,385.2929086961311L550.8341953125,58.80122748438987L551.6988140625,155.9418664368115L552.6595015624999,466.12318295545026L553.5721546875,176.254229223084L555.3974609375,293.36898644429874L556.3341312499999,217.1478985291485L557.2708015625,-121.92984114039518L558.1594375,-456.7493946282518L559.072090625,299.4808952886055L560.0327781249999,-423.6628154023398L560.94543125,-45.020730350360736L561.90611875,252.8754827370091L562.7707375,508.2751648740766L564.59604375,-85.06113986294577L565.508696875,227.74016659031943L566.373315625,-349.7835857141182L567.3099859375,305.1343339958694L568.1986218750001,319.7892016820228L569.0872578125,-167.91066693669814L579.0303734375,507.6592284987273L579.919009375,279.51273942858745L580.8556796875,212.21850151043486L581.8163671875,160.95341762889353L582.7290203125,161.09328987409305L583.5936390625,224.7654622057776L584.4822750000001,-272.26904607239555L585.4189453125,502.93753834308075L586.2835640625,334.6394115638654L587.220234375,512.7961368916958L588.1569046875001,455.9556632112007L589.0695578125001,259.93624540400924L589.9822109375,542.9548313036115L590.870846875,149.04951738160645L591.7835,456.17309564267964L592.7441875,353.80117607315253L593.6328234375,442.36943511747654L595.4581296875,388.2831544412507L596.3707828125,302.1895882718123L597.2834359374999,105.49451225711437L598.172071875,129.32586915357058L599.084725,489.2187199624152L599.94934375,443.21160092085813L600.8379796875,210.64388799957425L602.7113203125,511.1573053059951L606.3379156249999,516.9667440854731L607.2745859375001,349.96275324367326L608.21125625,462.6713392522911L611.86186875,454.5779069343246L612.7264875000001,352.1142053674234L613.59110625,-94.91680607937622L617.1216328125,470.22864350252917L618.01026875,18.355960641534807L618.8989046875,497.582904285415L624.3267890625,432.37404327245576L625.1914078125,371.0718306844679L626.0320093749999,426.14220204180396L626.8726109375,207.7159054411717L627.7852640625,437.38769596927L628.6979171875,343.4499945897486L629.53851875,57.074083827733375L630.3791203124999,348.57219244959157L631.2437390624999,422.4022078293169L632.1563921874999,497.97774281405475L633.0690453125,205.2855396544748L633.9576812500001,152.84884244862604L634.8223,373.85251242280356L635.6148671875001,21.683082482447617L636.503503125,-229.61368046210077L638.328809375,138.48667038668643L639.2654796875,544.4721665924687L640.0820640625,39.544602028934946L640.8506140625,418.32851421423646L641.8113015624999,362.19629650069857L642.7479718750001,464.0213849900239L644.5492609375,420.46071068997526L645.48593125,218.54276007710075L647.3112375,280.7225708156992L648.223890625,-155.0985256674726L650.049196875,531.5785064885148L650.96185,177.50408694451386L651.82646875,317.4153321620801L652.6670703125,12.279484144457172L653.5797234375,163.1875615202459L654.3963078125,403.1643492998426L656.101528125,15.713342876884894L656.9661468749999,506.27937071711904L658.7434187499999,528.0586326786757L659.6080375,166.12106663759587L660.4486390625,-117.85947083512383L666.6450734375001,593.021813126779L667.533709375,356.3640344023847L668.4223453125,459.8229695126971L669.3349984375001,223.14549529046374L670.1515828124999,-459.2755988051781L671.1122703125,-502.3213555736327L671.952871875,337.77040925383983L672.817490625,-61.84352009270043L673.7061265625,369.8071158133033L675.507415625,62.14780046212638L676.4200687499999,-205.97155673594943L678.14930625,464.30259564651516L679.9025609375001,239.39144641991393L681.60778125,-244.20848421067558L687.7801984375001,479.854561492306L688.6448171875,74.36966326261683L689.5574703125001,379.62876697639393L690.494140625,206.8619125646461L691.40679375,326.4000468475181L692.319446875,454.534312929182L694.0727015625,556.2444051246729L694.9853546875,168.1314735832727L695.8499734375,387.90590990571786L700.1010156250001,-161.7096640661864L700.9416171875,253.51541536406793L701.8542703124999,552.8872757510723L711.38909375,523.078750674186L712.1816609375,217.07014285405683L713.0943140625,-209.95464128652964L713.934915625,234.87829395478667L714.799534375,346.1323454554982L715.664153125,249.56439097870475L716.5527890625,369.58142397950485L718.2820265624999,51.64262266683437L719.1466453125,505.59291175273313L720.03528125,337.57599563000906L720.8758828125,-15.534957302579073L722.7252062499999,538.5087803733057L723.5658078125,228.66526852231857L725.2470109374999,322.6188533678392L726.135646875,150.14523217453902L727.0242828125,495.66476805914306L727.9849703125,204.92999437710705L728.8495890625,-76.02613568054392L729.64215625,212.66587765737978L730.458740625,139.23392637169707L731.2513078125,496.11590736572464L732.1639609375001,5.274631277774404L733.0766140625,59.84093473259895L733.96525,489.3988629029482L734.781834375,191.00586387132512L737.1595359375,546.8931977883784L737.9761203125,391.5155619526049L738.816721875,124.93802501712662L739.729375,420.68791756206906L742.2031453125,465.715539909605L743.1157984375,234.0542597387458L743.8843484375001,514.5892580225029L744.72495,92.77337103001378L745.4694828125,240.91699223888764L746.26205,413.6024255603132L747.9672703125,238.30501734556552L748.7838546875,401.10565661752804L749.576421875,213.6452766069948L750.3209546874999,571.4837843595985L752.69865625,513.4944718014287L753.515240625,127.7456353393564L755.1964437500001,378.30271749037075L756.0850796875,279.0686377192485L756.9016640625,403.69216909304834L757.7662828125,473.8968933209027L758.5828671875,37.92409751938726L759.42346875,65.57041858784692L760.240053125,461.7099252734075L761.0566375,146.95221565886294L761.8972390624999,184.4611427965897L762.7138234375,387.5941052501019L763.5304078125,465.3518818465269L764.41904375,371.35421427383295L765.2596453125001,362.52960492566734L766.0522125,396.36837622910065L768.64606875,386.5476536378685L769.4626531250001,337.9812928101067L770.2071859375001,627.7331487439062L770.999753125,491.48858943421516L771.8883890625001,297.48568759808484L772.7530078125,-36.21435033394192L774.4101937500001,308.30291441000816L775.2988296875,-654.3830124307942L778.6612359375,492.6413380881358L779.4778203125,74.98691918744908L780.318421875,406.3779898852162L781.183040625,66.19696023126335L782.09569375,-223.5480535941058L783.680828125,383.6614568130948L785.36203125,251.0215645855771L786.9952000000001,-177.21329530313642L787.7877671875,316.1467075146696L788.580334375,175.76814629130396L789.4689703125,668.1545415155595L790.2375203124999,180.5836222046507L791.0541046875,-56.007494834749764L791.8466718750001,-300.5701569176488L792.7833421875,154.0344820952159L793.5999265625001,494.1739215043523L794.39249375,559.3875719932129L795.16104375,270.9051715342761L796.0496796875,497.19261087166126L800.1806359375,574.7267971390199L800.9491859375,132.78699857531396L801.837821875,183.76383420312126L803.470990625,502.30449669665546L805.056125,-255.21518855391912L805.8006578125,372.3727109859077L806.6652765624999,541.9098458574704L807.409809375,504.6834489257179L808.22639375,183.2132399632828L809.0910124999999,79.71530483491688L809.8595624999999,595.2531713025561L812.2852984374999,-387.77468600737905L813.1018828125,364.20201171488026L813.8223984375,129.11425251425757L814.663,-256.6086328079822L818.8660078125,445.30592143921405L819.6345578125,371.99522208935946L820.4271249999999,487.5396176813811L827.8004015624999,554.9600436278723L829.409553125,257.0746801695851L830.2261374999999,528.3747380881623L831.09075625,211.52138840577874L831.8833234374999,242.4251395535668L832.675890625,245.78588547019493L833.6125609375,430.98455766684174L834.405128125,345.77181521341686L835.2217125,317.04605379564845L837.287190625,264.5699655941215L838.8002734375,553.5831670506516L840.457459375,410.0918374690583L841.3460953125,263.5219500713897L842.186696875,278.1699756491127L843.0993500000001,211.4236928718326L843.9639687499999,411.4530260690922L847.0621859375,489.10836652787276L847.9027875,269.2406820419613L849.487921875,-69.45790707612969L851.217159375,503.63000858844487L851.8656234375,269.1338474060402L852.658190625,501.9920567023995L854.1712734375001,575.271282353474L854.8197375000001,363.0989172192834L856.3088031249999,507.3208862368419L861.112240625,488.96810330504866L861.9048078124999,372.0678950553314L862.7213921875,-214.10584621568637L864.3305437500001,-276.41790513580474L865.1231109375,87.21435341909L865.915678125,479.1977679551864L871.5597171874999,-88.77405887492938L872.3763015625,157.85384476549606" style="fill: none;" fill="none"></path></g></g></g></g></g></g><g transform="translate(68, 377)" clip-path="url(#clip_1)"><clipPath id="clip_1"><rect width="960" height="22"></rect></clipPath><g><g><line x1="0" y1="0" x2="0" y2="5" style="visibility: inherit;" fill="rgb(0, 0, 0)" stroke="rgb(204, 204, 204)" stroke-width="1px"></line><line x1="120.0859375" y1="0" x2="120.0859375" y2="5" style="visibility: inherit;" fill="rgb(0, 0, 0)" stroke="rgb(204, 204, 204)" stroke-width="1px"></line><line x1="240.171875" y1="0" x2="240.171875" y2="5" style="visibility: inherit;" fill="rgb(0, 0, 0)" stroke="rgb(204, 204, 204)" stroke-width="1px"></line><line x1="360.2578125" y1="0" x2="360.2578125" y2="5" style="visibility: inherit;" fill="rgb(0, 0, 0)" stroke="rgb(204, 204, 204)" stroke-width="1px"></line><line x1="480.34375" y1="0" x2="480.34375" y2="5" style="visibility: inherit;" fill="rgb(0, 0, 0)" stroke="rgb(204, 204, 204)" stroke-width="1px"></line><line x1="600.4296875" y1="0" x2="600.4296875" y2="5" style="visibility: inherit;" fill="rgb(0, 0, 0)" stroke="rgb(204, 204, 204)" stroke-width="1px"></line><line x1="720.515625" y1="0" x2="720.515625" y2="5" style="visibility: inherit;" fill="rgb(0, 0, 0)" stroke="rgb(204, 204, 204)" stroke-width="1px"></line><line x1="840.6015625" y1="0" x2="840.6015625" y2="5" style="visibility: inherit;" fill="rgb(0, 0, 0)" stroke="rgb(204, 204, 204)" stroke-width="1px"></line><line x1="960.6875" y1="0" x2="960.6875" y2="5" style="visibility: inherit;" fill="rgb(0, 0, 0)" stroke="rgb(204, 204, 204)" stroke-width="1px"></line></g><g transform="translate(0, 8)"><text x="0" y="0" dx="0em" dy="0.95em" style="text-anchor: middle; visibility: hidden; font-family: &quot;Helvetica Neue&quot;, sans-serif; font-size: 12px; font-weight: 200;" fill="rgb(50, 49, 63)" stroke="none" stroke-width="1px">-5k</text><text x="120.0859375" y="0" dx="0em" dy="0.95em" style="text-anchor: middle; visibility: inherit; font-family: &quot;Helvetica Neue&quot;, sans-serif; font-size: 12px; font-weight: 200;" fill="rgb(50, 49, 63)" stroke="none" stroke-width="1px">0</text><text x="240.171875" y="0" dx="0em" dy="0.95em" style="text-anchor: middle; visibility: inherit; font-family: &quot;Helvetica Neue&quot;, sans-serif; font-size: 12px; font-weight: 200;" fill="rgb(50, 49, 63)" stroke="none" stroke-width="1px">5k</text><text x="360.2578125" y="0" dx="0em" dy="0.95em" style="text-anchor: middle; visibility: inherit; font-family: &quot;Helvetica Neue&quot;, sans-serif; font-size: 12px; font-weight: 200;" fill="rgb(50, 49, 63)" stroke="none" stroke-width="1px">10k</text><text x="480.34375" y="0" dx="0em" dy="0.95em" style="text-anchor: middle; visibility: inherit; font-family: &quot;Helvetica Neue&quot;, sans-serif; font-size: 12px; font-weight: 200;" fill="rgb(50, 49, 63)" stroke="none" stroke-width="1px">15k</text><text x="600.4296875" y="0" dx="0em" dy="0.95em" style="text-anchor: middle; visibility: inherit; font-family: &quot;Helvetica Neue&quot;, sans-serif; font-size: 12px; font-weight: 200;" fill="rgb(50, 49, 63)" stroke="none" stroke-width="1px">20k</text><text x="720.515625" y="0" dx="0em" dy="0.95em" style="text-anchor: middle; visibility: inherit; font-family: &quot;Helvetica Neue&quot;, sans-serif; font-size: 12px; font-weight: 200;" fill="rgb(50, 49, 63)" stroke="none" stroke-width="1px">25k</text><text x="840.6015625" y="0" dx="0em" dy="0.95em" style="text-anchor: middle; visibility: inherit; font-family: &quot;Helvetica Neue&quot;, sans-serif; font-size: 12px; font-weight: 200;" fill="rgb(50, 49, 63)" stroke="none" stroke-width="1px">30k</text><text x="960.6875" y="0" dx="0em" dy="0.95em" style="text-anchor: middle; visibility: hidden; font-family: &quot;Helvetica Neue&quot;, sans-serif; font-size: 12px; font-weight: 200;" fill="rgb(50, 49, 63)" stroke="none" stroke-width="1px">35k</text></g><line x1="0" y1="0" x2="960.6875" y2="0" fill="rgb(0, 0, 0)" stroke="rgb(204, 204, 204)" stroke-width="1px"></line></g></g></g></g></svg>