<svg viewBox="0 0 1029 400" xmlns="http://www.w3.org/2000/svg"><g><g><g><g><g><line x1="68.3125" y1="377.828125" x2="63.3125" y2="377.828125" style="visibility: inherit;" fill="rgb(0, 0, 0)" stroke="rgb(204, 204, 204)" stroke-width="1px"></line><line x1="68.3125" y1="348.7644230769231" x2="63.3125" y2="348.7644230769231" style="visibility: inherit;" fill="rgb(0, 0, 0)" stroke="rgb(204, 204, 204)" stroke-width="1px"></line><line x1="68.3125" y1="319.70072115384613" x2="63.3125" y2="319.70072115384613" style="visibility: inherit;" fill="rgb(0, 0, 0)" stroke="rgb(204, 204, 204)" stroke-width="1px"></line><line x1="68.3125" y1="290.63701923076917" x2="63.3125" y2="290.63701923076917" style="visibility: inherit;" fill="rgb(0, 0, 0)" stroke="rgb(204, 204, 204)" stroke-width="1px"></line><line x1="68.3125" y1="261.57331730769226" x2="63.3125" y2="261.57331730769226" style="visibility: inherit;" fill="rgb(0, 0, 0)" stroke="rgb(204, 204, 204)" stroke-width="1px"></line><line x1="68.3125" y1="232.5096153846153" x2="63.3125" y2="232.5096153846153" style="visibility: inherit;" fill="rgb(0, 0, 0)" stroke="rgb(204, 204, 204)" stroke-width="1px"></line><line x1="68.3125" y1="203.4459134615384" x2="63.3125" y2="203.4459134615384" style="visibility: inherit;" fill="rgb(0, 0, 0)" stroke="rgb(204, 204, 204)" stroke-width="1px"></line><line x1="68.3125" y1="174.38221153846146" x2="63.3125" y2="174.38221153846146" style="visibility: inherit;" fill="rgb(0, 0, 0)" stroke="rgb(204, 204, 204)" stroke-width="1px"></line><line x1="68.3125" y1="145.31850961538453" x2="63.3125" y2="145.31850961538453" style="visibility: inherit;" fill="rgb(0, 0, 0)" stroke="rgb(204, 204, 204)" stroke-width="1px"></line><line x1="68.3125" y1="116.25480769230762" x2="63.3125" y2="116.25480769230762" style="visibility: inherit;" fill="rgb(0, 0, 0)" stroke="rgb(204, 204, 204)" stroke-width="1px"></line><line x1="68.3125" y1="87.19110576923072" x2="63.3125" y2="87.19110576923072" style="visibility: inherit;" fill="rgb(0, 0, 0)" stroke="rgb(204, 204, 204)" stroke-width="1px"></line><line x1="68.3125" y1="58.127403846153754" x2="63.3125" y2="58.127403846153754" style="visibility: inherit;" fill="rgb(0, 0, 0)" stroke="rgb(204, 204, 204)" stroke-width="1px"></line><line x1="68.3125" y1="29.06370192307685" x2="63.3125" y2="29.06370192307685" style="visibility: inherit;" fill="rgb(0, 0, 0)" stroke="rgb(204, 204, 204)" stroke-width="1px"></line></g><g transform="translate(58.3125, 0)"><text x="0" y="377.828125" dx="0em" dy="0.3em" style="text-anchor: end; visibility: hidden; font-family: &quot;Helvetica Neue&quot;, sans-serif; font-size: 12px; font-weight: 200;" fill="rgb(50, 49, 63)" stroke="none" stroke-width="1px">2.6e-4</text><text x="0" y="348.7644230769231" dx="0em" dy="0.3em" style="text-anchor: end; visibility: inherit; font-family: &quot;Helvetica Neue&quot;, sans-serif; font-size: 12px; font-weight: 200;" fill="rgb(50, 49, 63)" stroke="none" stroke-width="1px">2.8e-4</text><text x="0" y="319.70072115384613" dx="0em" dy="0.3em" style="text-anchor: end; visibility: inherit; font-family: &quot;Helvetica Neue&quot;, sans-serif; font-size: 12px; font-weight: 200;" fill="rgb(50, 49, 63)" stroke="none" stroke-width="1px">3e-4</text><text x="0" y="290.63701923076917" dx="0em" dy="0.3em" style="text-anchor: end; visibility: inherit; font-family: &quot;Helvetica Neue&quot;, sans-serif; font-size: 12px; font-weight: 200;" fill="rgb(50, 49, 63)" stroke="none" stroke-width="1px">3.2e-4</text><text x="0" y="261.57331730769226" dx="0em" dy="0.3em" style="text-anchor: end; visibility: inherit; font-family: &quot;Helvetica Neue&quot;, sans-serif; font-size: 12px; font-weight: 200;" fill="rgb(50, 49, 63)" stroke="none" stroke-width="1px">3.4e-4</text><text x="0" y="232.5096153846153" dx="0em" dy="0.3em" style="text-anchor: end; visibility: inherit; font-family: &quot;Helvetica Neue&quot;, sans-serif; font-size: 12px; font-weight: 200;" fill="rgb(50, 49, 63)" stroke="none" stroke-width="1px">3.6e-4</text><text x="0" y="203.4459134615384" dx="0em" dy="0.3em" style="text-anchor: end; visibility: inherit; font-family: &quot;Helvetica Neue&quot;, sans-serif; font-size: 12px; font-weight: 200;" fill="rgb(50, 49, 63)" stroke="none" stroke-width="1px">3.8e-4</text><text x="0" y="174.38221153846146" dx="0em" dy="0.3em" style="text-anchor: end; visibility: inherit; font-family: &quot;Helvetica Neue&quot;, sans-serif; font-size: 12px; font-weight: 200;" fill="rgb(50, 49, 63)" stroke="none" stroke-width="1px">4e-4</text><text x="0" y="145.31850961538453" dx="0em" dy="0.3em" style="text-anchor: end; visibility: inherit; font-family: &quot;Helvetica Neue&quot;, sans-serif; font-size: 12px; font-weight: 200;" fill="rgb(50, 49, 63)" stroke="none" stroke-width="1px">4.2e-4</text><text x="0" y="116.25480769230762" dx="0em" dy="0.3em" style="text-anchor: end; visibility: inherit; font-family: &quot;Helvetica Neue&quot;, sans-serif; font-size: 12px; font-weight: 200;" fill="rgb(50, 49, 63)" stroke="none" stroke-width="1px">4.4e-4</text><text x="0" y="87.19110576923072" dx="0em" dy="0.3em" style="text-anchor: end; visibility: inherit; font-family: &quot;Helvetica Neue&quot;, sans-serif; font-size: 12px; font-weight: 200;" fill="rgb(50, 49, 63)" stroke="none" stroke-width="1px">4.6e-4</text><text x="0" y="58.127403846153754" dx="0em" dy="0.3em" style="text-anchor: end; visibility: inherit; font-family: &quot;Helvetica Neue&quot;, sans-serif; font-size: 12px; font-weight: 200;" fill="rgb(50, 49, 63)" stroke="none" stroke-width="1px">4.8e-4</text><text x="0" y="29.06370192307685" dx="0em" dy="0.3em" style="text-anchor: end; visibility: inherit; font-family: &quot;Helvetica Neue&quot;, sans-serif; font-size: 12px; font-weight: 200;" fill="rgb(50, 49, 63)" stroke="none" stroke-width="1px">5e-4</text></g><line x1="68.3125" y1="0" x2="68.3125" y2="377.828125" fill="rgb(0, 0, 0)" stroke="rgb(204, 204, 204)" stroke-width="1px"></line></g></g><g transform="translate(68, 0)" clip-path="url(#clip_0)"><clipPath id="clip_0"><rect width="960" height="377"></rect></clipPath><g><g><g><line x1="0" y1="0" x2="0" y2="377.828125" fill="rgb(0, 0, 0)" stroke="rgb(60, 60, 60)" stroke-width="1px" opacity="0.25"></line><line x1="120.0859375" y1="0" x2="120.0859375" y2="377.828125" fill="rgb(0, 0, 0)" stroke="rgb(60, 60, 60)" stroke-width="1px" opacity="0.25"></line><line x1="240.171875" y1="0" x2="240.171875" y2="377.828125" fill="rgb(0, 0, 0)" stroke="rgb(60, 60, 60)" stroke-width="1px" opacity="0.25"></line><line x1="360.2578125" y1="0" x2="360.2578125" y2="377.828125" fill="rgb(0, 0, 0)" stroke="rgb(60, 60, 60)" stroke-width="1px" opacity="0.25"></line><line x1="480.34375" y1="0" x2="480.34375" y2="377.828125" fill="rgb(0, 0, 0)" stroke="rgb(60, 60, 60)" stroke-width="1px" opacity="0.25"></line><line x1="600.4296875" y1="0" x2="600.4296875" y2="377.828125" fill="rgb(0, 0, 0)" stroke="rgb(60, 60, 60)" stroke-width="1px" opacity="0.25"></line><line x1="720.515625" y1="0" x2="720.515625" y2="377.828125" fill="rgb(0, 0, 0)" stroke="rgb(60, 60, 60)" stroke-width="1px" opacity="0.25"></line><line x1="840.6015625" y1="0" x2="840.6015625" y2="377.828125" fill="rgb(0, 0, 0)" stroke="rgb(60, 60, 60)" stroke-width="1px" opacity="0.25"></line><line x1="960.6875" y1="0" x2="960.6875" y2="377.828125" fill="rgb(0, 0, 0)" stroke="rgb(60, 60, 60)" stroke-width="1px" opacity="0.25"></line></g><g><line x1="0" y1="377.828125" x2="960.6875" y2="377.828125" fill="rgb(0, 0, 0)" stroke="rgb(60, 60, 60)" stroke-width="1px" opacity="0.25"></line><line x1="0" y1="348.7644230769231" x2="960.6875" y2="348.7644230769231" fill="rgb(0, 0, 0)" stroke="rgb(60, 60, 60)" stroke-width="1px" opacity="0.25"></line><line x1="0" y1="319.70072115384613" x2="960.6875" y2="319.70072115384613" fill="rgb(0, 0, 0)" stroke="rgb(60, 60, 60)" stroke-width="1px" opacity="0.25"></line><line x1="0" y1="290.63701923076917" x2="960.6875" y2="290.63701923076917" fill="rgb(0, 0, 0)" stroke="rgb(60, 60, 60)" stroke-width="1px" opacity="0.25"></line><line x1="0" y1="261.57331730769226" x2="960.6875" y2="261.57331730769226" fill="rgb(0, 0, 0)" stroke="rgb(60, 60, 60)" stroke-width="1px" opacity="0.25"></line><line x1="0" y1="232.5096153846153" x2="960.6875" y2="232.5096153846153" fill="rgb(0, 0, 0)" stroke="rgb(60, 60, 60)" stroke-width="1px" opacity="0.25"></line><line x1="0" y1="203.4459134615384" x2="960.6875" y2="203.4459134615384" fill="rgb(0, 0, 0)" stroke="rgb(60, 60, 60)" stroke-width="1px" opacity="0.25"></line><line x1="0" y1="174.38221153846146" x2="960.6875" y2="174.38221153846146" fill="rgb(0, 0, 0)" stroke="rgb(60, 60, 60)" stroke-width="1px" opacity="0.25"></line><line x1="0" y1="145.31850961538453" x2="960.6875" y2="145.31850961538453" fill="rgb(0, 0, 0)" stroke="rgb(60, 60, 60)" stroke-width="1px" opacity="0.25"></line><line x1="0" y1="116.25480769230762" x2="960.6875" y2="116.25480769230762" fill="rgb(0, 0, 0)" stroke="rgb(60, 60, 60)" stroke-width="1px" opacity="0.25"></line><line x1="0" y1="87.19110576923072" x2="960.6875" y2="87.19110576923072" fill="rgb(0, 0, 0)" stroke="rgb(60, 60, 60)" stroke-width="1px" opacity="0.25"></line><line x1="0" y1="58.127403846153754" x2="960.6875" y2="58.127403846153754" fill="rgb(0, 0, 0)" stroke="rgb(60, 60, 60)" stroke-width="1px" opacity="0.25"></line><line x1="0" y1="29.06370192307685" x2="960.6875" y2="29.06370192307685" fill="rgb(0, 0, 0)" stroke="rgb(60, 60, 60)" stroke-width="1px" opacity="0.25"></line></g></g></g><g><g><line x1="0" y1="755.65625" x2="960.6875" y2="755.65625" fill="rgb(0, 0, 0)" stroke="rgb(153, 153, 153)" stroke-width="1.5px"></line></g></g><g><g><line x1="120.0859375" y1="0" x2="120.0859375" y2="377.828125" fill="rgb(0, 0, 0)" stroke="rgb(153, 153, 153)" stroke-width="1.5px"></line></g></g><g><g><g><g><g><path stroke="rgb(255, 112, 67)" stroke-width="2px" d="M120.1099546875,63.367005659592394L121.0706421875,-104.92452797343748L122.9920171875,-38.33451928415451L123.9527046875,18.091587547146617L124.91339218750001,49.031274819180965L125.8740796875,21.98514419357548L126.8347671875,-3.090789579170803L127.7954546875,-1.0351243936003698L128.75614218750002,9.195996673868478L129.7168296875,-52.99166847559451L138.3630171875,-7.13866047583781L139.3237046875,0.04173045396657926L140.28439218749998,12.11438899505896L141.24507968749998,25.507759674535578L142.2057671875,24.951845433777805L143.1664546875,33.93330426016223L144.1271421875,36.265227985529464L145.0878296875,40.043073918743005L146.04851718749998,45.709433944849025L147.0092046875,58.69472085942664L147.9698921875,52.11147872127816L148.9305796875,44.23264450947369L149.8912671875,52.19737183189591L150.8519546875,55.168299051698966L151.8126421875,58.56019966280263L152.7733296875,56.80005285450318L153.7340171875,55.74770878198916L154.6947046875,50.80242251211109L155.6553921875,43.67506389509731L156.6160796875,46.09622538931956L157.5767671875,49.85832803387166L158.5374546875,46.04027876683767L159.4981421875,48.532850461482894L160.4588296875,52.87610833608346L161.41951718750002,53.99004094553618L162.3802046875,38.073532596960206L163.3408921875,51.07106841038433L164.3015796875,49.65861642361824L165.26226718750002,55.93479878350661L166.22295468750002,57.03444568423788L167.1836421875,69.44779946374649L168.14432968749998,62.13966233448991L169.10501718749998,71.39355833487804L170.0657046875,64.27133275050528L171.0263921875,65.08323178646708L171.9870796875,68.66024826635817L172.94776718749998,58.14633474978797L173.90845468749998,60.84476395160942L174.8691421875,60.08595195203873L175.8298296875,61.13015566302977L176.7905171875,67.11600739379918L177.7512046875,73.61261076783842L178.71189218749998,81.18652936168485L179.6725796875,79.12265891284477L180.6332671875,70.55608123165825L181.5939546875,71.19798439589886L182.5546421875,70.00271867105931L183.5153296875,72.04509042823781L184.4760171875,74.10430103434476L185.4367046875,75.81947401047358L186.3973921875,73.1847844573266L187.3580796875,74.04100811346746L188.31876718750001,74.70361212362997L189.2794546875,76.65187752941813L190.2401421875,80.41392979333767L191.2008296875,76.00759565863359L192.1615171875,75.9690386560734L193.12220468750002,76.94796591551909L194.08289218750002,78.82324824423199L195.0435796875,86.01844505934184L196.0042671875,84.35408595000894L196.9649546875,85.40668688875343L197.92564218750002,86.55642776194429L198.8863296875,92.28616908127793L199.8470171875,86.11489820574081L200.80770468749998,90.61933845957958L201.76839218749998,71.37306289649985L202.7290796875,79.8208930683819L203.6897671875,84.96343486767688L204.6504546875,91.13444848081309L205.61114218749998,87.0129947267763L206.57182968749999,87.48522991494502L207.5325171875,86.72585692426065L208.4932046875,80.07641910424405L209.4538921875,86.61529302800534L210.4145796875,83.51069011214781L211.3752671875,88.01865645048406L212.3359546875,93.35579563623054L213.2966421875,81.8803082308923L214.2573296875,87.50426851317548L215.2180171875,87.83071820032796L216.17870468750002,87.07163748891423L217.1393921875,97.9982044990337L218.1000796875,102.9581027040154L219.0607671875,104.15223092314278L220.0214546875,107.28327656808176L220.98214218750002,104.866191571179L221.9428296875,111.09945551261472L222.9035171875,109.28710118666129L223.8642046875,100.30493186471148L224.8248921875,103.24999734735417L225.78557968750002,100.54591039049717L226.74626718750002,108.79049604923881L227.7069546875,112.09308198690076L228.66764218749998,112.6134809071911L229.62832968749998,114.01035869259334L230.5890171875,101.88918700558531L231.5497046875,102.23229708882536L232.5103921875,99.43729563721286L233.47107968749998,98.16328965533438L234.4317671875,99.15391290163547L235.3924546875,94.5675361456972L236.3531421875,100.73274381639311L237.3138296875,110.0756221125817L238.2745171875,106.99709502551326L239.2352046875,102.96274419248505L240.1958921875,105.6046940286277L241.1565796875,113.6496149701099L242.1172671875,111.05456780351136L243.0779546875,119.19594535616L244.0386421875,122.8946435376846L244.9993296875,123.52930458248628L245.9600171875,134.54413739226217L246.9207046875,126.42709901690299L247.8813921875,118.287485411474L248.84207968750002,116.35518249302055L249.8027671875,126.58777066818084L250.7634546875,134.92106959350411L251.7241421875,139.75889113985528L252.6848296875,140.85469817840186L253.64551718750002,134.0742093773653L254.6062046875,136.86094920117858L255.5668921875,142.5233011938957L256.5275796875,143.23765604639502L257.4882671875,137.54206890519424L258.4489546875,138.22030347404038L259.4096421875,136.43103549442472L260.37032968750003,134.66343990621323L261.33101718750004,137.03371438039596L262.29170468750004,137.83782335510654L263.2523921875,139.4217472360246L264.2130796875,140.1231081595475L265.1737671875,137.20304150721876L266.1344546875,139.1259579070891L267.0951421875,133.82793691696844L268.0558296875,137.19622590488004L269.0165171875,141.81746707584017L269.97720468750003,146.37690071741096L270.93789218750004,137.64621858833047L271.89857968750005,141.61953562349538L272.85926718750005,146.69868803538813L273.8199546875,151.07113355881975L274.78064218749995,153.02839153092305L275.74132968749996,155.92848870233442L276.70201718749996,158.2962384851876L277.66270468749997,163.67169329171992L278.6233921875,165.98648506735574L279.5840796875,163.3241518318113L280.5447671875,154.3654594399249L281.5054546875,147.92085577224535L282.4661421875,146.90414001725836L283.4268296875,146.4585407336158L284.3875171875,153.43810026925138L285.34820468749996,157.74342935188216L286.30889218749996,155.52080350058512L287.26957968749997,158.64874883968153L288.2302671875,153.28014993695206L289.1909546875,150.66741523976012L290.1516421875,150.8186960257617L291.1123296875,143.32059143916695L292.0730171875,143.27828353461507L293.0337046875,145.2702944960807L293.9943921875,149.76899446850382L294.9550796875,150.25372257913554L295.91576718749997,152.21025470702642L296.8764546875,142.11753033994074L297.8371421875,142.49944727346497L298.7978296875,140.28303588117575L299.7585171875,143.44948639875747L300.7192046875,148.22135097500276L301.6798921875,148.58959652151077L302.6405796875,150.27861944531588L303.6012671875,140.1291010345294L304.5619546875,138.31596524256085L305.5226421875,143.041030870264L306.4833296875,146.78546000257577L307.4440171875,146.10496280508846L308.4047046875,140.42385529996145L309.3653921875,140.1838769939494L310.3260796875,135.15829000687282L311.2867671875,125.9659139654743L312.2474546875,128.03057898158173L313.2081421875,129.62571754096612L314.1688296875,136.24345924415198L315.1295171875,141.90087657544737L316.09020468750003,144.05103295625622L317.05089218750004,147.14712672099893L318.0115796875,148.31325043302567L318.9722671875,154.32690690232323L319.9329546875,158.30691308029031L320.8936421875,150.47650329265736L321.8543296875,155.6360115749276L322.8150171875,154.47910837359115L323.7757046875,138.25734660351563L324.73639218750003,144.88837461121088L325.69707968750004,142.32178484037482L326.65776718750004,142.47160394168918L327.61845468750005,151.8868419659526L328.5791421875,142.96540495168585L329.5398296875,149.31414409495338L330.5005171875,151.4431810917221L331.4612046875,154.7723360048433L332.4218921875,151.6835468327652L333.38257968749997,158.7442447022656L334.3432671875,165.2957417934048L335.3039546875,161.8543487966206L336.2646421875,159.77767172205677L337.2253296875,163.1209595485557L338.1860171875,158.11181773147447L339.1467046875,159.92492209492315L340.10739218749995,159.39783189185113L341.06807968749996,163.67540961245328L342.02876718749997,166.95623427487592L342.9894546875,172.37150843174908L343.9501421875,173.10705802712764L344.9108296875,175.21508272651778L345.8715171875,173.42137686641854L346.8322046875,155.33827918863372L347.7928921875,149.84950536618302L348.7535796875,152.5137265945821L349.7142671875,150.80947354095912L350.67495468749996,158.29500448914678L351.63564218749997,157.12505007626046L352.5963296875,159.06386499238602L353.5570171875,156.49375760193146L354.5177046875,160.20054295146568L355.4783921875,165.83680176873906L356.4390796875,161.23889335014363L357.3997671875,167.48770642625232L358.3364375,166.55711382306234L359.297125,163.136875177823L360.2578125,165.7310472587833L361.2185,156.8537587012475L362.1791875,156.59803734355205L363.139875,152.67209587124648L364.1005625,152.180530846675L365.06125000000003,149.53597982086714L366.0219375,154.82863101676068L366.982625,160.3530059680536L367.9433125,153.0804775586174L368.904,159.54922360489695L369.8646875,164.98594161644593L370.825375,159.20196675475336L371.7860625,155.68282947361698L372.7227328125,156.50637533180847L373.6834203125,159.40458806883586L374.6441078125,166.10311274830727L375.6047953125,173.7082733830266L376.5654828125,169.18328117812837L377.5261703125,166.33160835638114L378.48685781250003,168.53596266994072L379.44754531250004,154.3410941777219L380.40823281250005,158.71937230885763L381.3689203125,155.2912310825315L382.3296078125,163.3484166264033L383.2902953125,161.20806413854973L384.22696562500005,158.41438805014994L385.187653125,156.5489622242835L386.148340625,163.3982934484952L387.10902812499995,171.78997796800866L388.06971562499996,174.61854395218793L389.03040312499996,171.41626437067052L389.99109062499997,175.5595379068425L390.951778125,177.60774720751394L391.912465625,179.79966349767358L392.873153125,164.18563708479095L393.833840625,167.3689407212796L394.794528125,168.15827293850984L395.755215625,173.37463271153763L396.715903125,166.9594134004215L397.67659062499996,168.48383539773056L398.63727812499997,163.1320830929055L399.597965625,159.2541678605405L400.558653125,165.19539391616092L401.519340625,168.36698601147185L402.480028125,178.61257501759243L403.4166984375,178.73660404048306L404.3773859375,175.0849801331525L405.3380734375,178.02842112896414L406.2987609375,170.7709830662851L407.23543125,170.71731789389105L408.19611875,169.23873292875572L409.15680625,176.54015733519614L410.11749375,178.51152033261985L411.07818125,171.145860433188L412.03886875,172.93222896038972L412.99955625,179.23865825991214L413.96024375,183.42689366218323L414.92093125,182.77015047870984L415.88161875000003,189.8117683213508L416.84230625000004,189.9492505085547L417.80299375,191.24195125619133L418.76368125,186.85674695882688L419.72436875,188.01032544939937L420.68505625,188.281457955323L421.64574375,172.89350821008918L422.60643125,173.42554056942305L423.56711875,176.43999766285543L424.52780625,175.366689797385L425.48849375000003,180.6107009378022L426.4251640625,181.6379800340863L427.3858515625,183.590548207488L428.29850468750004,179.44727218226424L429.25919218750005,171.98758319286824L430.1958625,175.36456561181015L431.15655,177.62650020451426L432.1172375,184.3876330177629L433.029890625,188.5474674380268L433.990578125,188.0635261743761L434.95126562499996,182.9590175492922L435.91195312499997,176.11678629309648L436.872640625,170.1982048238261L437.833328125,174.24828092430002L438.794015625,175.25479174081505L439.754703125,173.62892891827474L440.715390625,177.35923363161655L441.676078125,175.2806384260762L442.636765625,175.77553932289308L443.597453125,177.62207282024738L444.558140625,178.85406106245642L445.4948109375,180.5860151490073L446.4554984375,173.0994326653202L447.39216875,173.16392214029088L448.3288390625,177.4233629425521L449.2895265625,182.34312843516767L450.2502140625,186.23697024231737L451.2109015625,188.20801924122665L452.1715890625,190.84411912500607L454.0209125,192.87747965369186L454.9816,195.80954735324488L455.9182703125,200.65358146003092L456.8789578125,206.04851468694886L457.8396453125,202.40850126658333L458.776315625,196.13497476420252L459.7129859375,190.67491238129125L460.6256390625,187.6008594922426L461.5863265625,183.25078379460692L462.5470140625,188.10345760665862L463.50770156249996,190.40680789864763L464.444371875,190.0033302777785L465.405059375,192.03356803179867L466.365746875,184.00930660267218L467.326434375,185.29385489351014L468.2390875,183.1468335091655L469.151740625,189.06132154778356L470.112428125,190.08490227685797L471.073115625,193.48829170297472L472.033803125,188.59112366707168L472.994490625,183.8928262135332L473.95517812500003,189.4288183995729L474.8918484375,193.27337347557705L475.780484375,201.19685845318492L476.741171875,196.73195840070534L477.701859375,197.86851479604238L478.6145125,196.25932854270678L480.48785312499996,196.003339551188L481.42452343750006,195.3295958697522L482.3371765625,196.17038787076817L483.2978640625,196.68550310823855L484.25855156250003,200.41372709748114L485.195221875,203.05100450666077L486.13189218749994,191.8807321282119L487.09257968749995,191.05852879343925L487.981215625,193.0053838752191L488.9178859375,196.2154455509555L489.85455625000003,200.13079680122206L490.79122656249996,194.84999395909713L491.7038796875,201.98546195859726L492.64055,207.4568189709477L493.55320312500004,200.7132910966876L494.46585625000006,201.16608770574211L495.4025265625,204.94453204237558L496.339196875,205.4111360026658L497.2758671875,204.04707353087633L498.18852031250003,205.98431742809018L499.12519062499996,200.0630323775777L500.08587812499997,204.31934940262735L500.9745140625,204.66777501172086L501.9352015625,204.94938056428586L502.84785468750005,213.11265827483007L503.784525,218.96817774047508L504.7211953125,224.0114940395596L505.657865625,218.99174331267744L506.59453593750004,223.55314115664746L507.53120624999997,229.2656068362241L508.46787656250007,217.13050590429572L509.3805296875,212.86355018096498L510.3172,218.8130285195885L511.22985312500003,216.63774226632466L512.14250625,217.5745027815238L513.055159375,221.87146041077787L513.9918296875,224.0420735799428L514.880465625,224.74095629908285L515.841153125,227.9825087896656L516.75380625,221.9634151583854L517.7144937500001,224.34016388039348L518.627146875,232.41913314380858L519.587834375,225.60542928656872L520.5245046875,225.68496871814924L521.4371578125,225.17816611103527L522.3738281249999,226.80067224718553L523.3104984375,227.11232427949335L524.24716875,217.90361110371902L525.1598218749999,223.60247342357954L526.120509375,230.41772061158238L527.0571796875,239.423022521305L527.99385,231.5993432893299L528.906503125,231.6716890255868L529.7951390625001,231.10365784944497L530.683775,235.5564229048478L531.5724109375,236.74788245909738L532.461046875,234.49574936782614L533.3977171875,235.31587505418875L534.286353125,231.9926266028738L535.19900625,231.43431234287428L536.1356765625,236.7213535030519L537.0002953125,234.30122415010004L537.9609828125,230.56761277901975L538.8736359375,234.10332008395355L539.762271875,231.7982651048681L540.6749249999999,233.99073889598213L541.5635609375,232.05357128640244L542.4762140625,231.77430316713057L543.4369015625,236.1469358113771L544.3975890625001,239.56836517912424L545.286225,245.6704854891747L546.198878125,236.96743888646984L547.11153125,237.8309520887802L548.0482015624999,241.0551338923067L549.8735078125,244.48917169022337L550.8341953125,238.4859689207288L551.6988140625,240.45144608460535L552.6595015624999,239.71803201730486L553.5721546875,241.1144516429886L555.3974609375,239.85411840836278L556.3341312499999,235.7054771915331L557.2708015625,228.32709210493215L558.1594375,216.02748867877486L559.072090625,219.6734917008785L560.0327781249999,213.0355733925288L560.94543125,215.68996839897616L561.90611875,214.34493337416322L562.7707375,211.33165004793807L563.6593734375,215.6698149499978L564.59604375,202.63165657336154L565.508696875,205.0466998370036L566.373315625,200.03273438031485L567.3099859375,195.7577696030589L568.1986218750001,194.3466828439057L569.0872578125,186.59183196635954L569.9758937500001,177.06918091863906L570.8645296875,180.62221157610705L571.7771828125,183.7588197601426L572.713853125,180.70602449199086L573.6024890625,182.24529166897506L574.5631765625001,187.5667940021178L575.4758296875,189.06761862672073L576.364465625,187.71649915426457L578.1177203125,178.24537257337562L579.0303734375,184.8706660982274L579.919009375,188.92666593433347L580.8556796875,191.1410549731196L581.8163671875,192.22061695486065L582.7290203125,190.50281236775655L583.5936390625,193.46755459495117L584.4822750000001,189.16644591126266L585.4189453125,194.05245453875523L586.2835640625,190.4077410435527L587.220234375,189.81313556648118L588.1569046875001,190.77567819519004L589.0695578125001,194.8645589497103L589.9822109375,197.80310147139505L590.870846875,196.4058492001216L591.7835,192.29841156844464L592.7441875,195.1261970464361L593.6328234375,194.9609740859615L594.56949375,195.43814530883301L595.4581296875,197.0418078262889L596.3707828125,198.78000118642356L597.2834359374999,199.60181960838608L598.172071875,198.66700609523355L599.084725,200.3607575673246L599.94934375,202.74085515402092L600.8379796875,199.53012788016753L602.7113203125,202.87781091622168L603.6720078125,202.57611021687092L605.4492796875,206.88645606417754L606.3379156249999,210.41830298165016L607.2745859375001,211.25328719478784L608.21125625,211.2795234180129L609.17194375,215.98514504617316L610.084596875,216.31218863177432L610.9732328125,218.18323142341094L611.86186875,224.39947229945986L612.7264875000001,218.82976424288276L613.59110625,209.58744030515766L615.4404296875,206.203858156316L617.1216328125,202.81489591904858L618.01026875,200.88087165113814L618.8989046875,205.12240493998047L620.652159375,202.54409741108898L621.5648125,202.4933050085858L622.477465625,202.60528944461586L623.39011875,198.38598501360767L624.3267890625,198.11469645628466L625.1914078125,194.0729938782203L626.0320093749999,194.53277829049097L626.8726109375,197.20919728435166L627.7852640625,193.69489142567542L628.6979171875,192.8944090103437L629.53851875,194.22627025832804L630.3791203124999,198.8958955258588L631.2437390624999,193.452205269939L632.1563921874999,197.0651117303144L633.0690453125,200.60146784457632L633.9576812500001,201.34717803232155L634.8223,206.46985722757265L635.6148671875001,205.28570529053033L636.503503125,201.50161601398938L638.328809375,204.6596195767565L639.2654796875,209.7897427495247L640.0820640625,202.24115362869972L640.8506140625,205.96639963737633L641.8113015624999,204.3125705840708L642.7479718750001,206.68692657705412L643.6366078125,199.5045451959869L644.5492609375,198.89184098319902L645.48593125,205.419669612781L647.3112375,201.51664720715723L648.223890625,201.38332091915643L649.13654375,209.58203467308L650.049196875,213.84031037595582L650.96185,215.07922886997494L651.82646875,214.08199215460098L652.6670703125,218.54511245235798L653.5797234375,214.9163487192727L654.3963078125,211.986886441762L656.101528125,210.06701337456508L656.9661468749999,217.0565532436872L658.7434187499999,220.68926448456907L659.6080375,219.16772554739595L660.4486390625,213.28303300575215L661.3132578125,211.86816317097396L662.2259109375,199.06478732692895L663.114546875,198.38603375544082L664.0272,202.45851893649126L664.8197671875,210.49881689606778L665.7324203125,211.96834728850345L666.6450734375001,214.889979064605L667.533709375,220.5510661784803L668.4223453125,221.59790966043607L669.3349984375001,224.50945246258235L670.1515828124999,214.29426882655017L671.1122703125,198.10547495880976L671.952871875,200.82521133181706L672.817490625,206.67660084709556L673.7061265625,192.03341252477804L675.507415625,196.93138340548415L676.4200687499999,182.21824028439167L677.2606703125,183.91622856619355L678.14930625,185.94630622860163L679.9025609375001,191.02928284949832L681.60778125,171.9768036329453L682.520434375,170.19326915302685L683.3370187500001,169.8249322563822L684.2736890625,174.72216051545038L685.1623249999999,175.1197079396279L685.978909375,172.62434416411406L686.8675453125,169.90638374085435L687.7801984375001,177.06050622988167L688.6448171875,179.38766157522318L689.5574703125001,183.01464049763317L690.494140625,187.57129896071498L691.40679375,190.31508122382323L692.319446875,193.17511935750758L693.2080828124999,191.39063364636337L694.0727015625,197.85126096663356L694.9853546875,201.72822366174307L695.8499734375,205.61170400882224L697.6272453125,207.7177321498555L698.5398984375,213.09848298367015L700.1010156250001,211.20571570008013L700.9416171875,208.83862916696808L701.8542703124999,212.41501674967202L702.7188890625,200.53046918324307L703.5114562499999,204.7132873828987L704.4000921875,209.68676541643006L705.24069375,214.24956619234004L706.153346875,211.13099837274973L707.0900171875,215.63088188383446L708.0026703125001,217.91607445529914L708.7712203125,216.82575423684685L709.6598562500001,212.6362282864776L710.5484921875,218.24835626824068L711.38909375,220.3129858578524L712.1816609375,222.1618772328186L713.0943140625,212.87899319296704L713.934915625,213.20209762054986L714.799534375,213.2543557480561L715.664153125,215.3891791860677L716.5527890625,222.21523388611007L718.2820265624999,224.45065237377625L719.1466453125,229.04930206492685L720.03528125,224.1460679174321L720.8758828125,224.46964389962733L721.8125531249999,225.57830369809452L722.7252062499999,223.0308422429184L723.5658078125,217.05007833402692L725.2470109374999,218.42649124584327L726.135646875,218.53725648808276L727.0242828125,216.513145325541L727.9849703125,214.95456319834733L728.8495890625,213.36368098767687L729.64215625,217.10047788525853L730.458740625,219.4287563840403L731.2513078125,221.83818360859976L732.1639609375001,215.35728661177987L733.0766140625,214.01135662860258L733.96525,213.0829719034898L734.781834375,217.1112033630489L737.1595359375,219.07657114521103L737.9761203125,216.48094539169912L738.816721875,212.4026285185856L739.729375,215.40961929972738L740.59399375,209.01762464421878L741.3625437500001,209.0233294759037L742.2031453125,211.37055680383943L743.1157984375,217.78444760853057L743.8843484375001,215.04784640206321L744.72495,205.7184346275221L745.4694828125,208.22068889338632L746.26205,203.15177623202734L747.9672703125,205.36517401438329L748.7838546875,201.35099896786403L749.576421875,207.62812598979866L750.3209546874999,208.47134126452667L751.9541234375,210.1627499506636L752.69865625,215.619187322912L753.515240625,212.66970317824365L755.1964437500001,217.7619162390571L756.0850796875,221.23226571422504L756.9016640625,219.21970710071056L757.7662828125,219.25582195475522L758.5828671875,216.48306933164173L759.42346875,213.34994196155034L760.240053125,215.1007846371316L761.0566375,218.3445095143517L761.8972390624999,223.51187220539532L762.7138234375,230.66153521279062L763.5304078125,231.4884454169896L764.41904375,231.80495860841702L765.2596453125001,230.33473353410614L766.0522125,233.8459463157732L766.91683125,238.85785531704173L767.7814500000001,242.31854572129885L768.64606875,242.29521411147942L769.4626531250001,243.7488099636726L770.2071859375001,250.94208615899726L770.999753125,254.96054916241962L771.8883890625001,247.09157369602264L772.7530078125,249.76339078285343L774.4101937500001,248.43264048035334L775.2988296875,228.98065165523826L776.1394312499999,234.20145286729226L777.0520843749999,239.34934782717593L777.8446515625001,234.0881433831615L778.6612359375,235.1626928807135L779.4778203125,233.90007811404513L780.318421875,227.02371005843963L781.183040625,226.64401498941538L782.09569375,218.54430876788177L782.912278125,221.02633589487334L783.680828125,226.4762780910576L785.36203125,232.3362241464475L786.9952000000001,228.91125531396085L787.7877671875,232.6060356481832L788.580334375,231.47019064846026L789.4689703125,242.74637946291026L790.2375203124999,243.34301724236008L791.0541046875,243.40639990526807L791.8466718750001,234.1790699578427L792.7833421875,228.9189249096969L793.5999265625001,228.1928854722595L794.39249375,228.78250415002802L795.16104375,231.3859155125969L796.0496796875,235.85033385513316L798.5474671875,232.75701492808312L799.2919999999999,233.9953942015726L800.1806359375,233.41234611195057L800.9491859375,232.19065066534588L801.837821875,233.19916441612204L803.470990625,230.0715274572099L804.2155234375,231.96148675341078L805.056125,227.4596104089451L805.8006578125,225.42605329485394L806.6652765624999,224.0798715607822L807.409809375,223.4536150047916L808.22639375,226.81791720712036L809.0910124999999,220.53127992407244L809.8595624999999,226.36211608379483L810.72418125,231.66804764029848L811.49273125,222.34986224221333L812.2852984374999,213.60332993361772L813.1018828125,216.24482649347618L813.8223984375,220.50832958829506L814.663,218.35845504465806L815.5036015625001,220.61397379976515L816.3201859374999,223.30316585979884L817.1848046875,223.53469402162364L817.9533546875,215.53034816664334L818.8660078125,220.38610495842835L819.6345578125,218.64693346733796L820.4271249999999,217.84461080732754L821.243709375,218.87911762567262L822.012259375,214.52324998560786L822.8528609374999,215.9997058395982L823.6694453125,214.56914451588452L825.3746656249999,211.49616277767367L826.19125,209.59786666449673L827.8004015624999,213.96902784233114L829.409553125,211.14643884144309L830.2261374999999,212.91431172633386L831.09075625,216.1877122642904L831.8833234374999,211.49714213382893L832.675890625,203.551487479237L833.6125609375,209.97400257367883L834.405128125,208.8545197525291L835.2217125,214.2036153237752L837.287190625,216.53553872546394L838.8002734375,220.11859380082927L839.6648921875001,224.1963135706337L840.457459375,224.71440039530285L841.3460953125,223.4858977633779L842.186696875,224.2001282042543L843.0993500000001,228.1468132835354L843.9639687499999,222.52674964559858L844.780553125,223.6325318067284L846.3416703124999,216.88682206856947L847.0621859375,227.11522470944496L847.9027875,224.23244781638022L849.487921875,224.39601701447137L850.352540625,227.04173415477797L851.217159375,227.82547725993876L851.8656234375,227.98934207041987L852.658190625,226.82569537219308L853.426740625,229.54814058435255L854.1712734375001,235.46838278803574L854.8197375000001,239.81812553285084L856.3088031249999,243.6411076371354L857.077353125,239.87654340261116L857.8218859374999,242.85487412931406L859.5271062500001,242.2675564133756L860.3436906249999,239.25935781500053L861.112240625,236.7573605039486L861.9048078124999,242.53996673835442L862.7213921875,242.8751374171063L864.3305437500001,231.92828721235472L865.1231109375,220.93182918571947L865.915678125,219.84879475249915L866.82833125,228.18709639720447L867.59688125,224.19311321747114L868.36543125,225.06133579413196L870.76715,218.45027679827635L871.5597171874999,216.36974786457506L872.3763015625,217.21526191833294" style="fill: none;" fill="none"></path></g></g></g></g><g opacity="0.20000000298023224"><g><g><g><path stroke="rgb(255, 112, 67)" stroke-width="2px" d="M120.1099546875,63.367005659592394L121.0706421875,-265.81123412661304L122.0313296875,-56.16265023589625L122.9920171875,97.74938999662504L123.9527046875,220.0371157778768L124.91339218750001,184.46865946322714L125.8740796875,-117.05512203270678L126.8347671875,-150.3030321603684L127.7954546875,12.467202962181375L128.75614218750002,83.22165770766986L129.7168296875,-542.5943509743352L130.6775171875,-600.6993590747835L131.6382046875,148.66454514475197L132.5988921875,257.67794147290147L133.55957968750002,182.84142656710617L134.5202671875,35.16167775341506L135.4809546875,64.7054179332934L136.4416421875,-47.97019343599999L137.4023296875,58.50869513995093L138.3630171875,87.23702140853067L139.3237046875,92.61964138140706L140.28439218749998,172.46173191260846L141.24507968749998,208.37356714561045L142.2057671875,17.164207016174885L143.1664546875,162.80216447116473L144.1271421875,70.48153432892508L145.0878296875,96.64798911083471L146.04851718749998,132.29206576124173L147.0092046875,260.7949964872487L147.9698921875,-52.1340487469526L148.9305796875,-82.57123388928852L149.8912671875,182.35771863642555L150.8519546875,104.4234344394963L151.8126421875,115.56301196454905L152.7733296875,26.83861938930255L153.7340171875,37.616716483864195L154.6947046875,-35.37940753240014L155.6553921875,-81.88244597645604L156.6160796875,89.18602137089437L157.5767671875,117.46362844586889L158.5374546875,-23.20157294777954L159.4981421875,94.13056783271105L160.4588296875,132.98546363861414L161.41951718750002,74.69690282161838L162.3802046875,-259.99582729925953L163.3408921875,296.1924611813911L164.3015796875,22.84283746442361L165.26226718750002,175.84701073532997L166.22295468750002,78.17103976818004L167.1836421875,309.41680000984843L168.14432968749998,-79.90811235574864L169.10501718749998,252.19347934761805L170.0657046875,-75.56679455663169L171.0263921875,81.0988747701233L171.9870796875,139.5359694904635L172.94776718749998,-151.06346484320807L173.90845468749998,114.75626817004598L174.8691421875,44.86738713351161L175.8298296875,82.14926999320477L176.7905171875,188.02801731390014L177.7512046875,205.27829315638346L178.71189218749998,235.17268669407176L179.6725796875,37.03509967327403L180.6332671875,-104.64129109823944L181.5939546875,84.36175691964473L182.5546421875,45.426757693202205L183.5153296875,114.14326976598159L184.4760171875,116.65058295671935L185.4367046875,111.33787373049114L186.3973921875,18.506594855625963L187.3580796875,91.84707053505377L188.31876718750001,88.51030207313414L189.2794546875,117.32422988509921L190.2401421875,159.09211576126162L191.2008296875,-16.302612987258556L192.1615171875,75.15997164500055L193.12220468750002,97.52147165803643L194.08289218750002,118.29354894283011L195.0435796875,237.67564367978548L196.0042671875,49.22587599320883L196.9649546875,107.65180529484661L197.92564218750002,110.88449006196828L198.8863296875,213.66834403271056L199.8470171875,-44.76825586356267L200.80770468749998,186.25440747032044L201.76839218749998,-337.670177165336L202.7290796875,259.53981733478406L203.6897671875,194.46830694931566L204.6504546875,222.65718278020802L205.61114218749998,-0.9026246554288946L206.57182968749999,97.56681002488875L207.5325171875,70.50162362393888L208.4932046875,-62.0967319302157L209.4538921875,226.52401257772442L210.4145796875,17.03800395023535L211.3752671875,184.6015025698344L212.3359546875,207.77461010142943L213.2966421875,-164.27976795365987L214.2573296875,208.2119223339412L215.2180171875,94.8411367706637L216.17870468750002,70.7621500603289L217.1393921875,332.88075823999117L218.1000796875,209.62874629807513L219.0607671875,129.84548568132476L220.0214546875,174.68094346622146L220.98214218750002,52.81551581278694L221.9428296875,245.38244705937873L222.9035171875,70.2289167307826L223.8642046875,-93.34011105477003L224.8248921875,166.76398491415708L225.78557968750002,42.209763722817684L226.74626718750002,286.7094680698059L227.7069546875,183.3845988110277L228.66764218749998,123.85033253016326L229.62832968749998,144.18107972344234L230.5890171875,-159.9807434072036L231.5497046875,109.6468203161051L232.5103921875,39.02355924037016L233.47107968749998,70.61945262585164L234.4317671875,120.57573514965486L235.3924546875,-4.631705329029273L236.3531421875,234.10731965954838L237.3138296875,312.2326847719987L238.2745171875,40.37313693277355L239.2352046875,15.638097287165692L240.1958921875,162.79996522202637L241.1565796875,287.8409394582379L242.1172671875,54.85718029173023L243.0779546875,295.52828794160723L244.0386421875,203.01509662000333L244.9993296875,137.27903235547717L245.9600171875,373.20729006547646L246.9207046875,-49.46965841583295L247.8813921875,-58.118966930970146L248.84207968750002,74.4725371162533L249.8027671875,348.40255113948376L250.7634546875,315.5827333152539L251.7241421875,244.65056232208508L252.6848296875,164.61574143850882L253.64551718750002,-12.964237381737803L254.6062046875,197.2979793118334L255.5668921875,265.33471193459707L256.5275796875,158.73258082039285L257.4882671875,13.991113442052153L258.4489546875,152.9338798278404L259.4096421875,97.61214839174102L260.37032968750003,96.31226527121402L261.33101718750004,188.46427221509538L262.29170468750004,155.28652659359793L263.2523921875,173.79392707816828L264.2130796875,155.34391853745848L265.1737671875,73.82900298376791L266.1344546875,180.8609604247629L267.0951421875,18.83419839073582L268.0558296875,210.30835657508013L269.0165171875,242.13051886229644L269.97720468750003,245.35237655673697L270.93789218750004,-51.88553359431825L271.89857968750005,227.8783271144258L272.85926718750005,256.96859903927594L273.8199546875,246.0014933985736L274.78064218749995,195.5239042424744L275.74132968749996,218.89667821988067L276.70201718749996,209.70741174802404L277.66270468749997,280.3928016119176L278.6233921875,216.2506008671631L279.5840796875,105.51189358997243L280.5447671875,-40.1763928356836L281.5054546875,7.970161406767659L282.4661421875,124.82468448496081L283.4268296875,136.78149453117655L284.3875171875,305.01584872447984L285.34820468749996,251.24577214199678L286.30889218749996,107.24930040927455L287.26957968749997,226.58343459771274L288.2302671875,36.67949800490277L289.1909546875,93.92045495349265L290.1516421875,154.10447247498362L291.1123296875,-19.538638921340407L292.0730171875,142.3593401583348L293.0337046875,188.53811623424102L293.9943921875,247.48509840865879L294.9550796875,160.78261936336298L295.91576718749997,194.7090824367131L296.8764546875,-77.11422008498192L297.8371421875,150.7954483868094L298.7978296875,92.13762518083291L299.7585171875,212.23257269138463L300.7192046875,251.87898672083298L301.6798921875,156.58894730928458L302.6405796875,186.9693749065498L303.6012671875,-80.35143023013825L304.5619546875,98.9284412943004L305.5226421875,245.68645095950393L306.4833296875,228.12853399716658L307.4440171875,131.32190083845765L308.4047046875,17.007129875792998L309.3653921875,134.9705397454974L310.3260796875,25.980743052332627L311.2867671875,-73.73355122680044L312.2474546875,172.88457985271026L313.2081421875,164.2796369596141L314.1688296875,280.01271215025577L315.1295171875,264.80786488620254L316.09020468750003,190.76324884322648L317.05089218750004,214.41016768437947L318.0115796875,173.64755013070956L318.9722671875,284.97548700396925L319.9329546875,244.7741432063597L320.8936421875,-19.64293408240178L321.8543296875,267.7292290204887L322.8150171875,129.3446489833166L323.7757046875,-214.17193390642944L324.73639218750003,288.9526176044248L325.69707968750004,86.56045624571726L326.65776718750004,145.72655976217015L327.61845468750005,356.44199095125356L328.5791421875,-50.8619522934236L329.5398296875,287.2473536571448L330.5005171875,197.69891934705694L331.4612046875,227.10216134159637L332.4218921875,84.57580307136055L333.38257968749997,312.1469140556028L334.3432671875,307.6356619672951L335.3039546875,87.08540009774202L336.2646421875,114.65895139567368L337.2253296875,235.75870200293863L338.1860171875,49.280814928415055L339.1467046875,199.31735524662446L340.10739218749995,147.94598278204646L341.06807968749996,256.6125321451254L342.02876718749997,238.23742495487775L342.9894546875,290.0272045680282L343.9501421875,189.08809769184091L344.9108296875,221.0154855916771L345.8715171875,134.45003668500203L346.8322046875,-237.54851427657513L347.7928921875,30.596205715196334L348.7535796875,210.39869496276341L349.7142671875,113.78149328272184L350.67495468749996,320.931857032023L351.63564218749997,131.70562751984832L352.5963296875,201.1882395713238L353.5570171875,100.65332931081497L354.5177046875,240.7375059994105L355.4783921875,288.29533816482467L356.4390796875,61.340439871849014L357.3997671875,303.25534978922497L358.3364375,146.33816248889673L359.297125,88.8254290987091L360.2578125,222.0945979333152L361.2185,-36.02311083789618L362.1791875,151.0419757565687L363.139875,67.37306484486788L364.1005625,141.50027961029036L365.06125000000003,92.07769564181268L366.0219375,269.82236438792006L366.982625,280.3814670202045L367.9433125,-4.9302956928139L368.904,300.0962129884803L369.8646875,283.1100162156105L370.825375,33.53296459345097L371.7860625,79.2221539765568L372.7227328125,174.39965104277505L373.6834203125,222.37441009291848L374.6441078125,311.6428207771398L375.6047953125,338.9466257096014L376.5654828125,70.86813695149664L377.5261703125,104.37289400256674L378.48685781250003,216.43030489771846L379.44754531250004,-154.0730527025445L380.40823281250005,253.84693406038866L381.3689203125,80.80743196603834L382.3296078125,338.40827489648314L383.2902953125,114.7042474692733L384.22696562500005,97.71568227425445L385.187653125,116.01851029570497L386.148340625,312.21500619238657L387.10902812499995,354.1177229580313L388.06971562499996,236.07535158560938L389.03040312499996,101.83969734120063L389.99109062499997,265.581281597609L390.951778125,222.10961203800977L391.912465625,227.42388611458642L392.873153125,-175.0636169305833L393.833840625,236.53326063216693L394.794528125,185.30826511504765L395.755215625,286.71162502569155L396.715903125,27.57452198559895L397.67659062499996,201.60529333581113L398.63727812499997,46.853351398700795L399.597965625,74.99781931429936L400.558653125,294.28177890593804L401.519340625,237.27690289370028L402.480028125,401.2208815107165L403.4166984375,181.4314118166506L404.3773859375,95.74528192604447L405.3380734375,241.98126597365678L406.2987609375,13.08688370016614L407.23543125,169.55132173076143L408.19611875,137.11315821854183L409.15680625,335.1799886276382L410.11749375,221.3438081120822L411.07818125,11.110350830320328L412.03886875,211.74510066121726L412.99955625,316.26001746336254L413.96024375,274.4257311805228L414.92093125,168.50092650767994L415.88161875000003,342.80677317319737L416.84230625000004,192.93636075143928L417.80299375,219.32878838231517L418.76368125,91.57829691439497L419.72436875,213.07441988559614L420.68505625,194.1724233537013L421.64574375,-161.44442829528555L422.60643125,184.98514466471977L423.56711875,241.93588531355184L424.52780625,152.04665197352392L425.48849375000003,294.54869162347984L426.4251640625,203.95794010156865L427.3858515625,226.0145057629208L428.29850468750004,89.42523200794335L429.25919218750005,9.908968695240105L430.1958625,248.73714786042655L431.15655,226.77214709108483L432.1172375,331.28854415707326L433.029890625,278.9292858968463L433.990578125,177.54880663589176L434.95126562499996,72.05200967997536L435.91195312499997,27.45381704250525L436.872640625,41.603616825684355L437.833328125,262.24535900074255L438.794015625,197.12351964460794L439.754703125,138.30337493491967L440.715390625,258.40855741261527L441.676078125,130.118446333997L442.636765625,186.52838316105652L443.597453125,217.74219930200115L444.558140625,205.62179895449378L445.4948109375,218.21664501034903L446.4554984375,10.436450142424519L447.39216875,174.56510224718375L448.3288390625,269.9693757341687L449.2895265625,289.23619386351487L450.2502140625,270.8395171144102L451.2109015625,231.033530642673L452.1715890625,248.1193703188115L454.0209125,237.05685110010657L454.9816,259.51537183474613L455.9182703125,305.9012156756793L456.8789578125,323.2656833003465L457.8396453125,123.32094788660913L458.776315625,59.8283715027232L459.7129859375,72.04266287113734L460.6256390625,120.81008206264784L461.5863265625,88.73551364355245L462.5470140625,293.5388133364473L463.50770156249996,240.4523225967193L464.444371875,181.23686285441136L465.405059375,236.1450931592469L466.365746875,9.664006175829229L467.326434375,213.20358347922198L468.2390875,136.49791827208642L469.151740625,317.5670058503366L470.112428125,212.324518222669L471.073115625,267.4346565157068L472.033803125,82.18902565070584L472.994490625,81.8116429572143L473.95517812500003,309.7108227023457L474.8918484375,276.80506498870926L475.780484375,373.352567388366L476.741171875,99.72186271421543L477.701859375,222.5627842402693L478.6145125,161.2961017439167L480.48785312499996,190.44139719047845L481.42452343750006,180.6909838423195L482.3371765625,214.43850416366215L483.2978640625,207.87755187840563L484.25855156250003,281.4178631766553L485.195221875,260.3518477858697L486.13189218749994,-50.81881317570969L487.09257968749995,173.19429334194467L487.981215625,235.30523374791045L488.9178859375,265.9613287660182L489.85455625000003,285.20069857438756L490.79122656249996,80.11255382482278L491.7038796875,357.0197167825989L492.64055,326.3344817134079L493.55320312500004,54.19482566181074L494.46585625000006,211.00412287460153L495.4025265625,287.0398206663387L496.339196875,215.54916727178514L497.2758671875,174.40971683690827L498.18852031250003,248.0753430427917L499.12519062499996,71.40965975856437L500.08587812499997,296.7975084539553L500.9745140625,212.2381131074832L501.9352015625,211.0679010996139L502.84785468750005,390.4784164815215L503.784525,346.19264410145615L504.7211953125,333.58900104904745L505.657865625,109.92625183643446L506.59453593750004,322.65987474923446L507.53120624999997,353.3819049482403L508.46787656250007,-46.53213825903043L509.3805296875,120.15424059363818L510.3172,348.0789654633767L511.22985312500003,169.37470510765033L512.14250625,237.927753758896L513.055159375,315.2326297697285L513.9918296875,271.2035774333137L514.880465625,239.92577160109343L515.841153125,298.4126031865626L516.75380625,91.18492737139769L517.7144937500001,275.98043114833064L518.627146875,407.95310032262256L519.587834375,77.56222839612911L520.5245046875,227.41314362841058L521.4371578125,214.1667277220644L522.3738281249999,262.05330534041025L523.3104984375,233.88367293947854L524.24716875,17.823389652144783L525.1598218749999,347.42320858087226L526.120509375,378.4944541670976L527.0571796875,435.0836720921859L527.99385,61.61213172694141L528.906503125,233.24356456045862L529.7951390625001,218.76188962365094L530.683775,332.3028632356352L531.5724109375,262.6350490307584L532.461046875,185.56303966907578L533.3977171875,253.1349694450982L534.286353125,159.78750142150903L535.19900625,219.3036661902347L536.1356765625,351.59433833128253L537.0002953125,181.7184138292062L537.9609828125,149.4464205066906L538.8736359375,310.92459676045553L539.762271875,181.71570706103594L540.6749249999999,281.6272147773259L541.5635609375,189.9642024207076L542.4762140625,225.70656859029813L543.4369015625,331.1523175902531L544.3975890625001,313.9066940055625L545.286225,378.2529174011523L546.198878125,47.87397217190909L547.11153125,256.59273890288017L548.0482015624999,311.10781113098176L549.8735078125,319.10144735011994L550.8341953125,108.05274533007014L551.6988140625,283.1559043947474L552.6595015624999,223.7829445795309L553.5721546875,271.454841647371L555.3974609375,212.4705145308538L556.3341312499999,145.56681814687062L557.2708015625,68.01490724724687L558.1594375,-51.209349070778785L559.072090625,298.89119363367126L560.0327781249999,68.81171212737473L560.94543125,273.36273256814843L561.90611875,185.120990592266L562.7707375,145.86122147864185L563.6593734375,309.92630682465204L564.59604375,-80.65196608354523L565.508696875,257.51900342940246L566.373315625,91.09293954686063L567.3099859375,102.87444406079766L568.1986218750001,163.68761600886944L569.0872578125,18.10007211105119L569.9758937500001,-29.832055340410307L570.8645296875,257.8198776288308L571.7771828125,251.90876117070613L572.713853125,114.37710915994268L573.6024890625,215.6893694043554L574.5631765625001,303.1885264500211L575.4758296875,221.67644454425871L576.364465625,158.3603579037259L578.1177203125,-27.536377585986713L579.0303734375,328.8202253452887L579.919009375,277.05248051677444L580.8556796875,239.25368952306204L581.8163671875,215.67655454879923L582.7290203125,153.17960362579913L583.5936390625,257.88331750782186L584.4822750000001,95.7150845436447L585.4189453125,300.21209650077066L586.2835640625,111.21805694570327L587.220234375,176.89398020494593L588.1569046875001,211.68910439469445L589.0695578125001,283.7047862277781L589.9822109375,261.6496162437637L590.870846875,166.04736804107395L591.7835,103.05499395640624L592.7441875,256.5662633267146L593.6328234375,191.37112976371893L594.56949375,205.8057746035679L595.4581296875,231.8850206984912L596.3707828125,236.54620236748113L597.2834359374999,217.4576925913525L598.172071875,178.35605794942683L599.084725,237.16135772743118L599.94934375,254.45388452932258L600.8379796875,129.76978075906212L602.7113203125,275.6138332342676L603.6720078125,196.0209768409958L605.4492796875,300.53851582480604L606.3379156249999,287.15570417862904L607.2745859375001,229.39521691435493L608.21125625,211.84956499528923L609.17194375,318.2254695010113L610.084596875,223.41795380906893L610.9732328125,258.83588843749914L611.86186875,359.4614331384599L612.7264875000001,97.81519829776511L613.59110625,8.776947494523426L615.4404296875,132.68784601964072L617.1216328125,129.18198913358353L618.01026875,158.8597989243963L618.8989046875,297.2793554815188L620.652159375,146.52450656011982L621.5648125,201.38972462699945L622.477465625,205.03840582729188L623.39011875,106.71200692747288L624.3267890625,192.2203359838934L625.1914078125,106.25781968714949L626.0320093749999,204.5226396110945L626.8726109375,255.36048269335762L627.7852640625,117.33860959100383L628.6979171875,175.50210925988182L629.53851875,223.16398282684136L630.3791203124999,300.35411724320534L631.2437390624999,75.17566244173764L632.1563921874999,275.5637157298646L633.0690453125,277.436841596955L633.9576812500001,217.5494266563736L634.8223,317.7717051932145L635.6148671875001,179.55731320474905L636.503503125,119.28367628087005L638.328809375,273.27442425659285L639.2654796875,321.2533280454971L640.0820640625,38.23089909900307L640.8506140625,286.90583564190956L641.8113015624999,168.37937569953306L642.7479718750001,258.275206786976L643.6366078125,43.450986101904334L644.5492609375,185.5794494511081L645.48593125,347.2515825615751L647.3112375,116.71461494124765L648.223890625,198.48650429810476L649.13654375,387.7177244140934L650.049196875,306.3610279186065L650.96185,241.99754887593116L651.82646875,192.4147580663747L652.6670703125,315.5165443748399L653.5797234375,136.07320942886753L654.3963078125,148.3376605949373L656.101528125,168.3534076423994L656.9661468749999,368.92019221627055L658.7434187499999,299.6181723536563L659.6080375,186.10883409466226L660.4486390625,85.4247132387664L661.3132578125,181.1269003974935L662.2259109375,-79.1176514635199L663.114546875,183.63856979325527L664.0272,290.94251514211135L664.8197671875,385.1925634707328L665.7324203125,243.89723490569241L666.6450734375001,278.36906947210247L667.533709375,343.5510498335206L668.4223453125,244.3429634954837L669.3349984375001,287.7693369814833L670.1515828124999,-7.653811991153191L671.1122703125,-153.63286452885177L671.952871875,259.91766525405484L672.817490625,333.8113366782849L673.7061265625,-126.12313374918511L675.507415625,303.3509325402382L676.4200687499999,-137.45823298128835L677.2606703125,220.8088830524295L678.14930625,230.05435725707218L679.9025609375001,301.4685021575625L681.60778125,-241.9816084339658L682.520434375,131.44192908950873L683.3370187500001,161.82197604750002L684.2736890625,281.1255745075171L685.1623249999999,183.75732924672656L685.978909375,118.4068948599608L686.8675453125,110.85251636295675L687.7801984375001,332.5000766727921L688.6448171875,229.95040044203213L689.5574703125001,261.8190007206699L690.494140625,286.5750601128501L691.40679375,249.9299867584693L692.319446875,255.3159478983059L693.2080828124999,152.61862592250745L694.0727015625,338.2230727430819L694.9853546875,285.9640494916608L695.8499734375,289.98914064063354L697.6272453125,253.47597994130155L698.5398984375,330.0075238272329L700.1010156250001,170.08104472033688L700.9416171875,157.4082944930806L701.8542703124999,290.1201651373765L702.7188890625,-57.688337032378854L703.5114562499999,295.59451917527394L704.4000921875,317.7468790539026L705.24069375,313.3867830506043L706.153346875,143.37302483810674L707.0900171875,313.40107817000364L708.0026703125001,267.56707668978754L708.7712203125,193.13606949050316L709.6598562500001,121.6092553649247L710.5484921875,340.18459150823315L711.38909375,265.17175603209535L712.1816609375,262.33324437977154L713.0943140625,11.187239963657532L713.934915625,220.22227563802542L714.799534375,214.389782336597L715.664153125,261.77307024828036L716.5527890625,370.5267860050931L718.2820265624999,273.0201995148493L719.1466453125,328.9654180816729L720.03528125,117.61216234921329L720.8758828125,231.50006751277334L721.8125531249999,249.6664575011404L722.7252062499999,167.68145244412597L723.5658078125,87.10438976818665L725.2470109374999,248.33218996620022L726.135646875,220.9438831149225L727.0242828125,172.53473006670086L727.9849703125,181.0908242529739L728.8495890625,178.79814931948928L729.64215625,298.29088320540507L730.458740625,270.0158983120955L731.2513078125,274.18846603309623L732.1639609375001,74.54507004456644L733.0766140625,184.767968812307L733.96525,192.9117037851381L734.781834375,304.63368689343764L737.1595359375,261.7786529576316L737.9761203125,160.08507674722986L738.816721875,123.79192554823885L739.729375,280.7433280899696L740.59399375,70.1370134927509L741.3625437500001,209.14727990978554L742.2031453125,262.36940511079644L743.1157984375,357.14080236496653L743.8843484375001,155.58896564337468L744.72495,3.015760617080957L745.4694828125,262.587849760789L746.26205,93.01812840797629L747.9672703125,253.45627128556163L748.7838546875,114.13392295714357L749.576421875,344.01297673908095L750.3209546874999,226.7921095063407L751.9541234375,246.9124477676327L752.69865625,334.172690229018L753.515240625,148.58545676227644L755.1964437500001,328.40181819671625L756.0850796875,296.63349522013704L756.9016640625,175.49229722526456L757.7662828125,220.04049923808967L758.5828671875,156.2387168840012L759.42346875,145.2756291023016L760.240053125,253.14182095202924L761.0566375,288.8218045739452L761.8972390624999,335.7845706744231L762.7138234375,386.0042132825446L763.5304078125,249.45494894458417L764.41904375,238.68192704034183L765.2596453125001,198.39075237408088L766.0522125,310.1350240265327L766.91683125,347.7529690718679L767.7814500000001,317.5099099592446L768.64606875,241.78828186176594L769.4626531250001,275.33148347950464L770.2071859375001,407.232359857405L770.999753125,342.2707907822282L771.8883890625001,76.12019765340938L772.7530078125,307.8146893058079L774.4101937500001,219.51906572603573L775.2988296875,-193.65801463587684L776.1394312499999,347.6352246564604L777.0520843749999,351.1990655919155L777.8446515625001,119.77651955412534L778.6612359375,258.5097228729797L779.4778203125,206.46690272916018L780.318421875,77.61898594119975L781.183040625,218.39427667152404L782.09569375,42.55978268183776L782.912278125,274.9540161995078L783.680828125,344.88865853542103L785.36203125,359.656870259005L786.9952000000001,154.49602340811649L787.7877671875,312.8835356371945L788.580334375,206.79137656357315L789.4689703125,487.7472091586804L790.2375203124999,256.3063289958618L791.0541046875,244.78353230845033L791.8466718750001,33.694355645604276L792.7833421875,114.63031886362234L793.5999265625001,212.41802860430187L794.39249375,241.59330996700007L795.16104375,287.9509442084085L796.0496796875,332.84996875205417L798.5474671875,165.54763096763497L799.2919999999999,260.9019984164803L800.1806359375,220.7443012556166L800.9491859375,205.6465405073003L801.837821875,255.11141772843868L803.470990625,162.11650625902922L804.2155234375,273.0251478254106L805.056125,129.64611528828215L805.8006578125,181.24240327050993L806.6652765624999,194.83101388413394L807.409809375,209.8467680155411L808.22639375,299.9150286940818L809.0910124999999,83.93979713784876L809.8595624999999,353.0502835541276L810.72418125,346.95146964069465L811.49273125,19.89110677472712L812.2852984374999,23.56503704685798L813.1018828125,273.6373426576745L813.8223984375,313.142624102994L814.663,171.64754450563706L815.5036015625001,269.6202449334545L816.3201859374999,281.73197516416644L817.1848046875,228.56516953763577L817.9533546875,41.61774277207303L818.8660078125,325.888457070848L819.6345578125,180.85948016091976L820.4271249999999,200.41232755801036L821.243709375,241.35612940607876L822.012259375,119.88212580601913L822.8528609374999,248.07906484902585L823.6694453125,183.48694848246666L825.3746656249999,144.7286504656406L826.19125,168.3530692963781L827.8004015624999,308.9424388880059L829.409553125,149.8192778221474L830.2261374999999,251.32536804350423L831.09075625,287.30977849807203L831.8833234374999,109.58384566289334L832.675890625,30.914081802194232L833.6125609375,349.51773962564147L834.405128125,184.53121118391232L835.2217125,330.42487364448886L837.287190625,267.20187445306226L838.8002734375,297.96860862013045L839.6648921875001,312.7940431145644L840.457459375,235.9710141312954L841.3460953125,196.79388603337034L842.186696875,239.71840778329795L843.0993500000001,313.8975163697351L843.9639687499999,100.41809423951605L844.780553125,247.6581623985464L846.3416703124999,70.3209468485723L847.0621859375,449.3505184521035L847.9027875,161.5975680488823L849.487921875,227.94992959118036L850.352540625,284.5259520214385L851.217159375,244.85407745388844L851.8656234375,231.54967749814438L852.658190625,201.54282620163121L853.426740625,288.6994501939978L854.1712734375001,364.09909975897045L854.8197375000001,334.32617244292373L856.3088031249999,326.70408244840985L857.077353125,158.08282957976633L857.8218859374999,307.5658781004049L859.5271062500001,229.50674422162126L860.3436906249999,173.89940645030407L861.112240625,182.3957825638202L861.9048078124999,368.1802294677187L862.7213921875,250.1574821645313L864.3305437500001,-5.916912690883123L865.1231109375,-17.991213392990232L865.915678125,196.3174102488947L866.82833125,409.3556503139835L867.59688125,137.41475140326537L868.36543125,243.92544450521714L870.76715,74.80999497923312L871.5597171874999,171.16552830506288L872.3763015625,235.58597635907225" style="fill: none;" fill="none"></path></g></g></g></g></g></g><g transform="translate(68, 377)" clip-path="url(#clip_1)"><clipPath id="clip_1"><rect width="960" height="22"></rect></clipPath><g><g><line x1="0" y1="0" x2="0" y2="5" style="visibility: inherit;" fill="rgb(0, 0, 0)" stroke="rgb(204, 204, 204)" stroke-width="1px"></line><line x1="120.0859375" y1="0" x2="120.0859375" y2="5" style="visibility: inherit;" fill="rgb(0, 0, 0)" stroke="rgb(204, 204, 204)" stroke-width="1px"></line><line x1="240.171875" y1="0" x2="240.171875" y2="5" style="visibility: inherit;" fill="rgb(0, 0, 0)" stroke="rgb(204, 204, 204)" stroke-width="1px"></line><line x1="360.2578125" y1="0" x2="360.2578125" y2="5" style="visibility: inherit;" fill="rgb(0, 0, 0)" stroke="rgb(204, 204, 204)" stroke-width="1px"></line><line x1="480.34375" y1="0" x2="480.34375" y2="5" style="visibility: inherit;" fill="rgb(0, 0, 0)" stroke="rgb(204, 204, 204)" stroke-width="1px"></line><line x1="600.4296875" y1="0" x2="600.4296875" y2="5" style="visibility: inherit;" fill="rgb(0, 0, 0)" stroke="rgb(204, 204, 204)" stroke-width="1px"></line><line x1="720.515625" y1="0" x2="720.515625" y2="5" style="visibility: inherit;" fill="rgb(0, 0, 0)" stroke="rgb(204, 204, 204)" stroke-width="1px"></line><line x1="840.6015625" y1="0" x2="840.6015625" y2="5" style="visibility: inherit;" fill="rgb(0, 0, 0)" stroke="rgb(204, 204, 204)" stroke-width="1px"></line><line x1="960.6875" y1="0" x2="960.6875" y2="5" style="visibility: inherit;" fill="rgb(0, 0, 0)" stroke="rgb(204, 204, 204)" stroke-width="1px"></line></g><g transform="translate(0, 8)"><text x="0" y="0" dx="0em" dy="0.95em" style="text-anchor: middle; visibility: hidden; font-family: &quot;Helvetica Neue&quot;, sans-serif; font-size: 12px; font-weight: 200;" fill="rgb(50, 49, 63)" stroke="none" stroke-width="1px">-5k</text><text x="120.0859375" y="0" dx="0em" dy="0.95em" style="text-anchor: middle; visibility: inherit; font-family: &quot;Helvetica Neue&quot;, sans-serif; font-size: 12px; font-weight: 200;" fill="rgb(50, 49, 63)" stroke="none" stroke-width="1px">0</text><text x="240.171875" y="0" dx="0em" dy="0.95em" style="text-anchor: middle; visibility: inherit; font-family: &quot;Helvetica Neue&quot;, sans-serif; font-size: 12px; font-weight: 200;" fill="rgb(50, 49, 63)" stroke="none" stroke-width="1px">5k</text><text x="360.2578125" y="0" dx="0em" dy="0.95em" style="text-anchor: middle; visibility: inherit; font-family: &quot;Helvetica Neue&quot;, sans-serif; font-size: 12px; font-weight: 200;" fill="rgb(50, 49, 63)" stroke="none" stroke-width="1px">10k</text><text x="480.34375" y="0" dx="0em" dy="0.95em" style="text-anchor: middle; visibility: inherit; font-family: &quot;Helvetica Neue&quot;, sans-serif; font-size: 12px; font-weight: 200;" fill="rgb(50, 49, 63)" stroke="none" stroke-width="1px">15k</text><text x="600.4296875" y="0" dx="0em" dy="0.95em" style="text-anchor: middle; visibility: inherit; font-family: &quot;Helvetica Neue&quot;, sans-serif; font-size: 12px; font-weight: 200;" fill="rgb(50, 49, 63)" stroke="none" stroke-width="1px">20k</text><text x="720.515625" y="0" dx="0em" dy="0.95em" style="text-anchor: middle; visibility: inherit; font-family: &quot;Helvetica Neue&quot;, sans-serif; font-size: 12px; font-weight: 200;" fill="rgb(50, 49, 63)" stroke="none" stroke-width="1px">25k</text><text x="840.6015625" y="0" dx="0em" dy="0.95em" style="text-anchor: middle; visibility: inherit; font-family: &quot;Helvetica Neue&quot;, sans-serif; font-size: 12px; font-weight: 200;" fill="rgb(50, 49, 63)" stroke="none" stroke-width="1px">30k</text><text x="960.6875" y="0" dx="0em" dy="0.95em" style="text-anchor: middle; visibility: hidden; font-family: &quot;Helvetica Neue&quot;, sans-serif; font-size: 12px; font-weight: 200;" fill="rgb(50, 49, 63)" stroke="none" stroke-width="1px">35k</text></g><line x1="0" y1="0" x2="960.6875" y2="0" fill="rgb(0, 0, 0)" stroke="rgb(204, 204, 204)" stroke-width="1px"></line></g></g></g></g></svg>