<svg viewBox="0 0 1029 400" xmlns="http://www.w3.org/2000/svg"><g><g><g><g><g><line x1="68.3125" y1="377.828125" x2="63.3125" y2="377.828125" style="visibility: inherit;" fill="rgb(0, 0, 0)" stroke="rgb(204, 204, 204)" stroke-width="1px"></line><line x1="68.3125" y1="350.8404017857143" x2="63.3125" y2="350.8404017857143" style="visibility: inherit;" fill="rgb(0, 0, 0)" stroke="rgb(204, 204, 204)" stroke-width="1px"></line><line x1="68.3125" y1="323.85267857142856" x2="63.3125" y2="323.85267857142856" style="visibility: inherit;" fill="rgb(0, 0, 0)" stroke="rgb(204, 204, 204)" stroke-width="1px"></line><line x1="68.3125" y1="296.8649553571429" x2="63.3125" y2="296.8649553571429" style="visibility: inherit;" fill="rgb(0, 0, 0)" stroke="rgb(204, 204, 204)" stroke-width="1px"></line><line x1="68.3125" y1="269.87723214285717" x2="63.3125" y2="269.87723214285717" style="visibility: inherit;" fill="rgb(0, 0, 0)" stroke="rgb(204, 204, 204)" stroke-width="1px"></line><line x1="68.3125" y1="242.88950892857144" x2="63.3125" y2="242.88950892857144" style="visibility: inherit;" fill="rgb(0, 0, 0)" stroke="rgb(204, 204, 204)" stroke-width="1px"></line><line x1="68.3125" y1="215.90178571428575" x2="63.3125" y2="215.90178571428575" style="visibility: inherit;" fill="rgb(0, 0, 0)" stroke="rgb(204, 204, 204)" stroke-width="1px"></line><line x1="68.3125" y1="188.91406250000003" x2="63.3125" y2="188.91406250000003" style="visibility: inherit;" fill="rgb(0, 0, 0)" stroke="rgb(204, 204, 204)" stroke-width="1px"></line><line x1="68.3125" y1="161.9263392857144" x2="63.3125" y2="161.9263392857144" style="visibility: inherit;" fill="rgb(0, 0, 0)" stroke="rgb(204, 204, 204)" stroke-width="1px"></line><line x1="68.3125" y1="134.93861607142864" x2="63.3125" y2="134.93861607142864" style="visibility: inherit;" fill="rgb(0, 0, 0)" stroke="rgb(204, 204, 204)" stroke-width="1px"></line><line x1="68.3125" y1="107.950892857143" x2="63.3125" y2="107.950892857143" style="visibility: inherit;" fill="rgb(0, 0, 0)" stroke="rgb(204, 204, 204)" stroke-width="1px"></line><line x1="68.3125" y1="80.96316964285717" x2="63.3125" y2="80.96316964285717" style="visibility: inherit;" fill="rgb(0, 0, 0)" stroke="rgb(204, 204, 204)" stroke-width="1px"></line><line x1="68.3125" y1="53.97544642857156" x2="63.3125" y2="53.97544642857156" style="visibility: inherit;" fill="rgb(0, 0, 0)" stroke="rgb(204, 204, 204)" stroke-width="1px"></line><line x1="68.3125" y1="26.98772321428578" x2="63.3125" y2="26.98772321428578" style="visibility: inherit;" fill="rgb(0, 0, 0)" stroke="rgb(204, 204, 204)" stroke-width="1px"></line><line x1="68.3125" y1="0" x2="63.3125" y2="0" style="visibility: inherit;" fill="rgb(0, 0, 0)" stroke="rgb(204, 204, 204)" stroke-width="1px"></line></g><g transform="translate(58.3125, 0)"><text x="0" y="377.828125" dx="0em" dy="0.3em" style="text-anchor: end; visibility: hidden; font-family: &quot;Helvetica Neue&quot;, sans-serif; font-size: 12px; font-weight: 200;" fill="rgb(50, 49, 63)" stroke="none" stroke-width="1px">3.6e-4</text><text x="0" y="350.8404017857143" dx="0em" dy="0.3em" style="text-anchor: end; visibility: inherit; font-family: &quot;Helvetica Neue&quot;, sans-serif; font-size: 12px; font-weight: 200;" fill="rgb(50, 49, 63)" stroke="none" stroke-width="1px">3.8e-4</text><text x="0" y="323.85267857142856" dx="0em" dy="0.3em" style="text-anchor: end; visibility: inherit; font-family: &quot;Helvetica Neue&quot;, sans-serif; font-size: 12px; font-weight: 200;" fill="rgb(50, 49, 63)" stroke="none" stroke-width="1px">4e-4</text><text x="0" y="296.8649553571429" dx="0em" dy="0.3em" style="text-anchor: end; visibility: inherit; font-family: &quot;Helvetica Neue&quot;, sans-serif; font-size: 12px; font-weight: 200;" fill="rgb(50, 49, 63)" stroke="none" stroke-width="1px">4.2e-4</text><text x="0" y="269.87723214285717" dx="0em" dy="0.3em" style="text-anchor: end; visibility: inherit; font-family: &quot;Helvetica Neue&quot;, sans-serif; font-size: 12px; font-weight: 200;" fill="rgb(50, 49, 63)" stroke="none" stroke-width="1px">4.4e-4</text><text x="0" y="242.88950892857144" dx="0em" dy="0.3em" style="text-anchor: end; visibility: inherit; font-family: &quot;Helvetica Neue&quot;, sans-serif; font-size: 12px; font-weight: 200;" fill="rgb(50, 49, 63)" stroke="none" stroke-width="1px">4.6e-4</text><text x="0" y="215.90178571428575" dx="0em" dy="0.3em" style="text-anchor: end; visibility: inherit; font-family: &quot;Helvetica Neue&quot;, sans-serif; font-size: 12px; font-weight: 200;" fill="rgb(50, 49, 63)" stroke="none" stroke-width="1px">4.8e-4</text><text x="0" y="188.91406250000003" dx="0em" dy="0.3em" style="text-anchor: end; visibility: inherit; font-family: &quot;Helvetica Neue&quot;, sans-serif; font-size: 12px; font-weight: 200;" fill="rgb(50, 49, 63)" stroke="none" stroke-width="1px">5e-4</text><text x="0" y="161.9263392857144" dx="0em" dy="0.3em" style="text-anchor: end; visibility: inherit; font-family: &quot;Helvetica Neue&quot;, sans-serif; font-size: 12px; font-weight: 200;" fill="rgb(50, 49, 63)" stroke="none" stroke-width="1px">5.2e-4</text><text x="0" y="134.93861607142864" dx="0em" dy="0.3em" style="text-anchor: end; visibility: inherit; font-family: &quot;Helvetica Neue&quot;, sans-serif; font-size: 12px; font-weight: 200;" fill="rgb(50, 49, 63)" stroke="none" stroke-width="1px">5.4e-4</text><text x="0" y="107.950892857143" dx="0em" dy="0.3em" style="text-anchor: end; visibility: inherit; font-family: &quot;Helvetica Neue&quot;, sans-serif; font-size: 12px; font-weight: 200;" fill="rgb(50, 49, 63)" stroke="none" stroke-width="1px">5.6e-4</text><text x="0" y="80.96316964285717" dx="0em" dy="0.3em" style="text-anchor: end; visibility: inherit; font-family: &quot;Helvetica Neue&quot;, sans-serif; font-size: 12px; font-weight: 200;" fill="rgb(50, 49, 63)" stroke="none" stroke-width="1px">5.8e-4</text><text x="0" y="53.97544642857156" dx="0em" dy="0.3em" style="text-anchor: end; visibility: inherit; font-family: &quot;Helvetica Neue&quot;, sans-serif; font-size: 12px; font-weight: 200;" fill="rgb(50, 49, 63)" stroke="none" stroke-width="1px">6e-4</text><text x="0" y="26.98772321428578" dx="0em" dy="0.3em" style="text-anchor: end; visibility: inherit; font-family: &quot;Helvetica Neue&quot;, sans-serif; font-size: 12px; font-weight: 200;" fill="rgb(50, 49, 63)" stroke="none" stroke-width="1px">6.2e-4</text><text x="0" y="0" dx="0em" dy="0.3em" style="text-anchor: end; visibility: hidden; font-family: &quot;Helvetica Neue&quot;, sans-serif; font-size: 12px; font-weight: 200;" fill="rgb(50, 49, 63)" stroke="none" stroke-width="1px">6.4e-4</text></g><line x1="68.3125" y1="0" x2="68.3125" y2="377.828125" fill="rgb(0, 0, 0)" stroke="rgb(204, 204, 204)" stroke-width="1px"></line></g></g><g transform="translate(68, 0)" clip-path="url(#clip_0)"><clipPath id="clip_0"><rect width="960" height="377"></rect></clipPath><g><g><g><line x1="0" y1="0" x2="0" y2="377.828125" fill="rgb(0, 0, 0)" stroke="rgb(60, 60, 60)" stroke-width="1px" opacity="0.25"></line><line x1="120.0859375" y1="0" x2="120.0859375" y2="377.828125" fill="rgb(0, 0, 0)" stroke="rgb(60, 60, 60)" stroke-width="1px" opacity="0.25"></line><line x1="240.171875" y1="0" x2="240.171875" y2="377.828125" fill="rgb(0, 0, 0)" stroke="rgb(60, 60, 60)" stroke-width="1px" opacity="0.25"></line><line x1="360.2578125" y1="0" x2="360.2578125" y2="377.828125" fill="rgb(0, 0, 0)" stroke="rgb(60, 60, 60)" stroke-width="1px" opacity="0.25"></line><line x1="480.34375" y1="0" x2="480.34375" y2="377.828125" fill="rgb(0, 0, 0)" stroke="rgb(60, 60, 60)" stroke-width="1px" opacity="0.25"></line><line x1="600.4296875" y1="0" x2="600.4296875" y2="377.828125" fill="rgb(0, 0, 0)" stroke="rgb(60, 60, 60)" stroke-width="1px" opacity="0.25"></line><line x1="720.515625" y1="0" x2="720.515625" y2="377.828125" fill="rgb(0, 0, 0)" stroke="rgb(60, 60, 60)" stroke-width="1px" opacity="0.25"></line><line x1="840.6015625" y1="0" x2="840.6015625" y2="377.828125" fill="rgb(0, 0, 0)" stroke="rgb(60, 60, 60)" stroke-width="1px" opacity="0.25"></line><line x1="960.6875" y1="0" x2="960.6875" y2="377.828125" fill="rgb(0, 0, 0)" stroke="rgb(60, 60, 60)" stroke-width="1px" opacity="0.25"></line></g><g><line x1="0" y1="377.828125" x2="960.6875" y2="377.828125" fill="rgb(0, 0, 0)" stroke="rgb(60, 60, 60)" stroke-width="1px" opacity="0.25"></line><line x1="0" y1="350.8404017857143" x2="960.6875" y2="350.8404017857143" fill="rgb(0, 0, 0)" stroke="rgb(60, 60, 60)" stroke-width="1px" opacity="0.25"></line><line x1="0" y1="323.85267857142856" x2="960.6875" y2="323.85267857142856" fill="rgb(0, 0, 0)" stroke="rgb(60, 60, 60)" stroke-width="1px" opacity="0.25"></line><line x1="0" y1="296.8649553571429" x2="960.6875" y2="296.8649553571429" fill="rgb(0, 0, 0)" stroke="rgb(60, 60, 60)" stroke-width="1px" opacity="0.25"></line><line x1="0" y1="269.87723214285717" x2="960.6875" y2="269.87723214285717" fill="rgb(0, 0, 0)" stroke="rgb(60, 60, 60)" stroke-width="1px" opacity="0.25"></line><line x1="0" y1="242.88950892857144" x2="960.6875" y2="242.88950892857144" fill="rgb(0, 0, 0)" stroke="rgb(60, 60, 60)" stroke-width="1px" opacity="0.25"></line><line x1="0" y1="215.90178571428575" x2="960.6875" y2="215.90178571428575" fill="rgb(0, 0, 0)" stroke="rgb(60, 60, 60)" stroke-width="1px" opacity="0.25"></line><line x1="0" y1="188.91406250000003" x2="960.6875" y2="188.91406250000003" fill="rgb(0, 0, 0)" stroke="rgb(60, 60, 60)" stroke-width="1px" opacity="0.25"></line><line x1="0" y1="161.9263392857144" x2="960.6875" y2="161.9263392857144" fill="rgb(0, 0, 0)" stroke="rgb(60, 60, 60)" stroke-width="1px" opacity="0.25"></line><line x1="0" y1="134.93861607142864" x2="960.6875" y2="134.93861607142864" fill="rgb(0, 0, 0)" stroke="rgb(60, 60, 60)" stroke-width="1px" opacity="0.25"></line><line x1="0" y1="107.950892857143" x2="960.6875" y2="107.950892857143" fill="rgb(0, 0, 0)" stroke="rgb(60, 60, 60)" stroke-width="1px" opacity="0.25"></line><line x1="0" y1="80.96316964285717" x2="960.6875" y2="80.96316964285717" fill="rgb(0, 0, 0)" stroke="rgb(60, 60, 60)" stroke-width="1px" opacity="0.25"></line><line x1="0" y1="53.97544642857156" x2="960.6875" y2="53.97544642857156" fill="rgb(0, 0, 0)" stroke="rgb(60, 60, 60)" stroke-width="1px" opacity="0.25"></line><line x1="0" y1="26.98772321428578" x2="960.6875" y2="26.98772321428578" fill="rgb(0, 0, 0)" stroke="rgb(60, 60, 60)" stroke-width="1px" opacity="0.25"></line><line x1="0" y1="0" x2="960.6875" y2="0" fill="rgb(0, 0, 0)" stroke="rgb(60, 60, 60)" stroke-width="1px" opacity="0.25"></line></g></g></g><g><g><line x1="0" y1="863.6071428571429" x2="960.6875" y2="863.6071428571429" fill="rgb(0, 0, 0)" stroke="rgb(153, 153, 153)" stroke-width="1.5px"></line></g></g><g><g><line x1="120.0859375" y1="0" x2="120.0859375" y2="377.828125" fill="rgb(0, 0, 0)" stroke="rgb(153, 153, 153)" stroke-width="1.5px"></line></g></g><g><g><g><g><g><path stroke="rgb(255, 112, 67)" stroke-width="2px" d="M126.8347671875,-4.880333355178209L127.7954546875,23.502449587857768L128.75614218750002,11.580302593144268L129.7168296875,1.3739786916124217L130.6775171875,-29.429980145628804L131.6382046875,-19.562915336447645L132.5988921875,1.0152142386625655L133.55957968750002,17.07640709320532L134.5202671875,8.758577199085835L135.4809546875,36.095493751320134L136.4416421875,43.535485095846354L137.4023296875,26.241951901165237L138.3630171875,28.498193348807888L139.3237046875,45.60959678237077L140.28439218749998,60.09723850453463L141.24507968749998,74.21413350389514L142.2057671875,67.28902653627193L143.1664546875,81.87922733374563L144.1271421875,90.63220437982017L145.0878296875,88.83001992073127L146.04851718749998,83.56489711283155L147.0092046875,91.07982282626574L147.9698921875,86.44662737422254L148.9305796875,84.64104527005844L149.8912671875,101.97336373286146L150.8519546875,97.17232196129464L151.8126421875,84.44210086678254L152.7733296875,90.02910627657172L153.7340171875,86.83373413224172L154.6947046875,73.22943293570899L155.6553921875,76.98780674415076L156.6160796875,60.25543842979738L157.5767671875,63.76534457045159L158.5374546875,63.90325455829657L159.4981421875,60.23558439953763L160.4588296875,64.3882116277149L161.41951718750002,71.77616183668681L162.3802046875,63.650999044488515L163.3408921875,70.55548225676398L164.3015796875,84.85769011561626L165.26226718750002,83.95076122321575L166.22295468750002,76.04585826205869L167.1836421875,86.28539929637509L168.14432968749998,90.02867134548165L169.10501718749998,92.31770534222267L170.0657046875,86.2377430167835L171.0263921875,85.84304566188484L171.9870796875,87.02382392925341L172.94776718749998,91.78151381831515L173.90845468749998,91.85724015568758L174.8691421875,94.78947763756344L175.8298296875,104.13481758981118L176.7905171875,109.21345391602301L177.7512046875,114.178544135469L178.71189218749998,116.46924950785427L179.6725796875,109.33399828242119L180.6332671875,112.85174525854944L181.5939546875,111.96656023735062L182.5546421875,109.65774833517503L183.5153296875,105.34779826157313L184.4760171875,102.74175090696832L185.4367046875,106.7849336257965L186.3973921875,101.92717520251443L187.3580796875,99.25484150452257L188.31876718750001,107.79293209596125L189.2794546875,110.35992820436428L190.2401421875,102.73383682323635L191.2008296875,102.34947828381922L192.1615171875,106.69752017193719L193.12220468750002,100.37201275624096L194.08289218750002,101.91945308947089L195.0435796875,103.82119596899884L196.0042671875,106.21233669345082L196.9649546875,98.45955628871718L197.92564218750002,88.76242289256788L198.8863296875,87.44383285565522L199.8470171875,92.23911330605114L200.80770468749998,90.35837074477757L201.76839218749998,82.0758753558448L202.7290796875,86.71895397212262L203.6897671875,86.95917817884055L204.6504546875,94.67073272494724L205.61114218749998,97.46678510445037L206.57182968749999,109.08744911501128L207.5325171875,109.95431686518685L208.4932046875,103.81419173047226L209.4538921875,107.10619711583308L210.4145796875,102.98186249256963L211.3752671875,98.92734488981955L212.3359546875,98.35225112946603L213.2966421875,96.78895388468175L214.2573296875,89.46586426322995L215.2180171875,94.04002934698434L216.17870468750002,91.3609445106062L217.1393921875,102.97775587328476L218.1000796875,115.7431438672707L219.0607671875,102.9880168499302L220.0214546875,108.58429251229245L220.98214218750002,108.55897202242443L221.9428296875,107.2726610608322L222.9035171875,112.84034904616618L223.8642046875,114.37740718929263L224.8248921875,109.66632524389041L225.78557968750002,107.20978770375882L226.74626718750002,108.20522747232519L227.7069546875,107.66764090656983L228.66764218749998,116.21932357569739L229.62832968749998,96.28016216278394L230.5890171875,95.27670084616614L231.5497046875,102.41464449671037L232.5103921875,97.82206667069562L233.47107968749998,111.06580425747597L234.4317671875,104.48579175699138L235.3924546875,101.56194656189052L236.3531421875,109.35526494432031L237.3138296875,115.64710469643916L238.2745171875,125.94002863821157L239.2352046875,124.97508790078251L240.1958921875,118.56349041888564L241.1565796875,129.46814583274391L242.1172671875,121.38097141706533L243.0779546875,120.01298474035866L244.0386421875,122.73049516946506L244.9993296875,126.7929292327731L245.9600171875,136.06434679360382L246.9207046875,134.14566371597982L247.8813921875,116.32026769281634L248.84207968750002,116.10231039563041L249.8027671875,129.8169675032024L250.7634546875,130.62571551299538L251.7241421875,130.7282788581071L252.6848296875,133.5487730486897L253.64551718750002,132.30378503597703L254.6062046875,126.70039957410873L255.5668921875,122.07105871380634L256.5275796875,117.68927858053513L257.4882671875,118.70145314203421L258.4489546875,119.60704708177957L259.4096421875,110.92388715784114L260.37032968750003,109.99314679313164L261.33101718750004,107.92765791652107L262.29170468750004,99.65675844846476L263.2523921875,102.98495281164196L264.2130796875,100.00069160877052L265.1737671875,97.05886328646392L266.1344546875,94.62432386068997L267.0951421875,98.11019605853687L268.0558296875,107.16596859772903L269.0165171875,105.26473686187074L269.97720468750003,110.06848242694701L270.93789218750004,113.49985210755483L271.89857968750005,115.50933830975822L272.85926718750005,125.26997455362073L273.8199546875,122.94161196449832L274.78064218749995,128.18057850631772L275.74132968749996,136.84000600710473L276.70201718749996,138.79153255924956L277.66270468749997,145.98152805763172L278.6233921875,148.70343164673062L279.5840796875,148.74434830783073L280.5447671875,155.4615060997706L281.5054546875,156.95011494309892L282.4661421875,153.73835988920567L283.4268296875,145.04325279533296L284.3875171875,142.42135113884217L285.34820468749996,146.18188228874618L286.30889218749996,147.49382250486195L287.26957968749997,149.8558252130897L288.2302671875,141.5742041803949L289.1909546875,143.89738275626584L290.1516421875,134.60581355232142L291.1123296875,128.5038361515813L292.0730171875,140.62667253045507L293.0337046875,139.50910506187665L293.9943921875,134.62907709871737L294.9550796875,129.4187749891739L295.91576718749997,128.89238425201856L296.8764546875,132.49221466094895L297.8371421875,136.28455649190292L298.7978296875,131.7140533136774L299.7585171875,139.45632583877875L300.7192046875,137.6762985270677L301.6798921875,133.39040713753857L302.6405796875,135.91743808395455L303.6012671875,131.44251632898366L304.5619546875,134.21341070027225L305.5226421875,136.90199858584208L306.4833296875,133.60957877395435L307.4440171875,140.0042409146309L308.4047046875,137.72391885588263L309.3653921875,135.474048954881L310.3260796875,130.1922110799469L311.2867671875,120.33611803243798L312.2474546875,126.30160095119581L313.2081421875,130.8723461946828L314.1688296875,131.61262611438875L315.1295171875,127.80648430617268L316.09020468750003,139.5071799123493L317.05089218750004,130.17976664195592L318.0115796875,129.29390351441293L318.9722671875,129.41699368857778L319.9329546875,137.19621220860873L320.8936421875,136.37911852212068L321.8543296875,140.3542483302345L322.8150171875,134.05346599609933L323.7757046875,122.10860745589625L324.73639218750003,128.4614760829439L325.69707968750004,132.37428971191957L326.65776718750004,123.84318997125462L327.61845468750005,129.08818841543854L328.5791421875,126.62899666808306L329.5398296875,127.41005855726354L330.5005171875,132.38291037913996L331.4612046875,136.94408497402065L332.4218921875,128.52142525307008L333.38257968749997,130.1616093612047L334.3432671875,130.81556504997187L335.3039546875,138.71451772025944L336.2646421875,138.9948555168867L337.2253296875,138.39834091525958L338.1860171875,143.46773687969394L339.1467046875,144.55539542396534L340.10739218749995,146.82461945198872L341.06807968749996,141.03524577411304L342.02876718749997,147.37126491984625L342.9894546875,146.76351208081078L343.9501421875,144.04298929664193L344.9108296875,155.36181455691553L345.8715171875,154.27129335355295L346.8322046875,147.89696673539535L347.7928921875,143.56404141184296L348.7535796875,147.67949595186235L349.7142671875,144.91051620379642L350.67495468749996,150.12926699915505L351.63564218749997,148.35424369939662L352.5963296875,141.54009237601184L353.5570171875,150.26981137877308L354.5177046875,146.59735004902728L355.4783921875,149.75776269964405L356.4390796875,155.39080231322177L357.3997671875,164.04497447075056L358.3364375,158.67158853804756L359.297125,154.7600380650573L360.2578125,148.38986774060567L361.2185,149.49139355361064L362.1791875,155.153348034688L363.139875,158.35701251018355L364.1005625,170.6488868365831L365.06125000000003,155.65182801725337L366.0219375,165.8114935984906L366.982625,171.8163292546991L367.9433125,176.71725348550322L368.904,181.3819063023775L369.8646875,177.01465813486195L370.825375,174.425653159709L371.7860625,174.12482490746854L372.7227328125,174.40155792935056L373.6834203125,173.22318515093602L374.6441078125,171.63113337858942L375.6047953125,181.73472724236734L376.5654828125,184.2341965641215L377.5261703125,178.12370183412526L378.48685781250003,176.40932551718421L379.44754531250004,171.89492388898466L380.40823281250005,166.5010028395442L381.3689203125,173.57712521375913L382.3296078125,175.606277311717L383.2902953125,180.84562126700789L384.22696562500005,187.92346679739674L385.187653125,192.1290995518101L386.148340625,197.27065815861403L387.10902812499995,196.44693895529844L388.06971562499996,202.92488991643407L389.03040312499996,203.9866380368655L389.99109062499997,202.53895253275053L390.951778125,201.1872339961074L391.912465625,197.72919900745765L392.873153125,197.3637667177441L393.833840625,193.6506608514384L394.794528125,195.93835507898274L395.755215625,198.01005933712767L396.715903125,201.2034033495698L397.67659062499996,209.86855059015568L398.63727812499997,206.33632821107324L399.597965625,195.03522066157063L400.558653125,191.09585561065026L401.519340625,185.18128871472467L402.480028125,191.8665091666865L403.4166984375,185.01242544736147L404.3773859375,189.94876733810435L405.3380734375,193.33206552117804L406.2987609375,188.6102016985341L407.23543125,187.95617444081924L408.19611875,183.3664770458066L409.15680625,184.81765785239534L410.11749375,186.69401279988082L411.07818125,188.85559884470936L412.03886875,192.78491525470574L412.99955625,202.16334532771438L413.96024375,207.38773070351706L414.92093125,197.26035653656135L415.88161875000003,203.05402022581526L416.84230625000004,208.7086407949074L417.80299375,212.53327205433436L418.76368125,212.89377018664578L419.72436875,218.8045309614465L420.68505625,217.37197993512723L421.64574375,214.5901257099406L422.60643125,221.4921730362152L423.56711875,220.7946885354865L424.52780625,210.79022144629388L425.48849375000003,207.1887973253022L426.4251640625,200.86570750773285L427.3858515625,198.50241446893384L428.29850468750004,196.27948737264617L429.25919218750005,200.38628206485475L430.1958625,208.46677704252036L431.15655,212.84289688853832L432.1172375,211.1576435825859L433.029890625,209.51994783827618L433.990578125,213.6268285771166L434.95126562499996,214.50713037827694L435.91195312499997,205.16659038223727L436.872640625,201.61445237505063L437.833328125,196.98709303287518L438.794015625,200.68188782776505L439.754703125,204.60285220276305L440.715390625,200.9301437594792L441.676078125,191.18432369327812L442.636765625,193.0315933612414L443.597453125,193.71106266679016L444.558140625,188.05572364628023L445.4948109375,192.96534046846114L446.4554984375,185.7885800807903L447.39216875,176.16793427988316L448.3288390625,176.5511883001314L449.2895265625,172.1704640986172L450.2502140625,169.80124795103407L451.2109015625,175.30037589836314L452.1715890625,168.9488501340131L454.0209125,175.5227978593099L454.9816,170.93886688657935L455.9182703125,179.5106771461521L456.8789578125,184.02625588024196L457.8396453125,184.81836710881524L458.776315625,188.77319160563385L459.7129859375,188.12306651605323L460.6256390625,191.072782196932L461.5863265625,183.75874593546644L462.5470140625,186.55606868273134L463.50770156249996,180.56245262756033L464.444371875,193.97596741538945L465.405059375,195.14987467720883L466.365746875,198.55233135402761L467.326434375,207.00179625783102L468.2390875,209.06207727778087L469.151740625,212.59412787254945L470.112428125,211.95475064536083L471.073115625,217.16231640193456L472.033803125,219.13632839255422L472.994490625,225.5418532713262L473.95517812500003,223.85705586056625L474.8918484375,224.8451269438366L475.780484375,225.34509250250466L476.741171875,224.8319446474994L477.701859375,231.27131572673753L478.6145125,224.34988293923993L480.48785312499996,225.33739592071757L481.42452343750006,214.99463366562497L482.3371765625,210.92751020083134L483.2978640625,212.28876147014586L484.25855156250003,212.96062437399218L485.195221875,209.09652918595427L486.13189218749994,212.52099506112083L487.09257968749995,214.5812869374748L487.981215625,219.65563875008692L488.9178859375,213.7005222523095L489.85455625000003,208.03532051818075L490.79122656249996,202.50855494056023L491.7038796875,204.73674288901728L492.64055,202.13174602727827L493.55320312500004,208.73066581780614L494.46585625000006,195.22936973620668L495.4025265625,188.80319491091024L496.339196875,197.89442913414524L497.2758671875,192.4761253889708L498.18852031250003,199.68746831064504L499.12519062499996,195.00879149420143L500.08587812499997,190.03141623601988L500.9745140625,192.49878501657977L501.9352015625,194.36257816427246L502.84785468750005,199.4750936668562L503.784525,207.1518417903459L504.7211953125,213.041421855221L505.657865625,213.87278059740967L506.59453593750004,212.66277098239132L507.53120624999997,224.9022318438611L508.46787656250007,223.326195107666L509.3805296875,220.18096282526483L510.3172,224.18056038206183L511.22985312500003,227.80281741613518L512.14250625,229.9687430831761L513.055159375,234.02895034626226L513.9918296875,240.91653272001267L514.880465625,231.19561048149257L515.841153125,235.0272316849098L516.75380625,231.57724524428284L517.7144937500001,234.4797348537831L518.627146875,236.59200854758322L519.587834375,231.77277601073186L520.5245046875,229.07436643205233L521.4371578125,229.21465931990772L522.3738281249999,226.8740178173106L523.3104984375,226.53073853844617L524.24716875,223.44073248349017L525.1598218749999,225.2940071916807L526.120509375,231.93492522666546L527.0571796875,236.73875312382955L527.99385,221.95049723927806L528.906503125,227.06466343063346L529.7951390625001,235.05654910530342L530.683775,237.0895800544945L531.5724109375,235.75857399909484L532.461046875,233.96185053599467L533.3977171875,238.24505129884858L534.286353125,243.31564802723776L535.19900625,236.53416187885958L536.1356765625,236.72651619977623L537.0002953125,241.48344768636375L537.9609828125,237.63763919719693L538.8736359375,233.02009125249816L539.762271875,234.65500703034337L540.6749249999999,232.99511617763847L541.5635609375,230.00269965932443L542.4762140625,219.57807000439098L543.4369015625,222.25201475003448L544.3975890625001,219.01506488386244L545.286225,229.3540985764936L546.198878125,230.2400001134517L547.11153125,229.98229254874445L548.0482015624999,224.4066443728493L549.8735078125,235.64379805240776L550.8341953125,235.5228789132228L551.6988140625,232.80479151820097L552.6595015624999,230.06857984588888L553.5721546875,235.71888915749327L555.3974609375,241.07144452171232L556.3341312499999,239.8659328562308L557.2708015625,237.4174620513513L558.1594375,235.73133863758457L559.072090625,236.88149663138196L560.0327781249999,233.25218101359997L560.94543125,229.61123628870916L561.90611875,231.18575475478153L562.7707375,237.74765569573114L563.6593734375,237.32557008144306L564.59604375,239.57361096418794L565.508696875,249.56533227150115L566.373315625,243.2841327423576L567.3099859375,248.81777955309167L568.1986218750001,252.6412611542552L569.0872578125,246.06305426470584L569.9758937500001,247.28997971107884L570.8645296875,250.31818674750951L571.7771828125,240.7262332881048L572.713853125,239.04000270054593L573.6024890625,238.97649685039084L574.5631765625001,242.52365504189532L575.4758296875,239.69052829393289L576.364465625,239.75558342379423L578.1177203125,236.5218657500256L579.0303734375,234.09439470872084L579.919009375,232.49218561556998L580.8556796875,226.02778474011512L581.8163671875,222.92012362333864L582.7290203125,212.90674892182568L583.5936390625,211.512854952399L584.4822750000001,213.68189642499564L585.4189453125,211.74318413113957L586.2835640625,204.27393563546437L587.220234375,208.95053795114043L588.1569046875001,216.30626592651782L589.0695578125001,216.14155307689234L589.9822109375,220.10852015547073L590.870846875,225.50787013513826L591.7835,225.88932449973424L592.7441875,217.14238488843125L593.6328234375,216.1729609289692L594.56949375,215.92755890760534L595.4581296875,211.61045666683864L596.3707828125,202.03338470702153L597.2834359374999,196.79666219994814L598.172071875,200.3394141884071L599.084725,200.149551804409L599.94934375,202.57398629464228L600.8379796875,209.89658824259732L602.7113203125,210.79086215763311L603.6720078125,219.77394499973664L605.4492796875,226.26651863788192L606.3379156249999,228.950306743974L607.2745859375001,227.07955054182432L608.21125625,228.5967050534704L609.17194375,230.05671752748478L610.084596875,235.54172476034225L610.9732328125,230.7627812233842L611.86186875,231.22517762387716L612.7264875000001,227.17089984948922L613.59110625,223.4126685552259L615.4404296875,221.07199848708572L617.1216328125,222.9954890780027L618.01026875,213.49218159291826L618.8989046875,213.86684034887574L620.652159375,217.84903188898414L621.5648125,220.14587734269705L622.477465625,216.98850979744114L623.39011875,215.7358561246249L624.3267890625,220.3315239564458L625.1914078125,217.21861190777372L626.0320093749999,216.0922164072928L626.8726109375,229.49425133073535L627.7852640625,228.7264353042229L628.6979171875,219.0968634590975L629.53851875,216.32111593465154L630.3791203124999,219.61494221391408L631.2437390624999,216.32394524225577L632.1563921874999,216.4300689974771L633.0690453125,215.56771745311352L633.9576812500001,218.25909675486125L634.8223,213.9977245114108L635.6148671875001,219.96423365893256L636.503503125,222.50448969765077L638.328809375,217.67661351741273L639.2654796875,220.92448006023292L640.0820640625,221.0185658254064L640.8506140625,221.5734736137924L641.8113015624999,216.22169191199336L642.7479718750001,223.12558019005178L643.6366078125,222.70157886766302L644.5492609375,218.77507565895584L645.48593125,219.5550435634876L647.3112375,226.97683912870448L648.223890625,218.9762291572241L649.13654375,222.77794932195388L650.049196875,228.0432592509658L650.96185,229.70686685761268L651.82646875,219.1820399801238L652.6670703125,215.2362505103648L653.5797234375,206.78076908186992L654.3963078125,207.75381793741045L656.101528125,210.26935295156184L656.9661468749999,217.92807332070643L658.7434187499999,219.35311644084697L659.6080375,227.90908943364173L660.4486390625,222.28863895952554L661.3132578125,224.9801989891187L662.2259109375,226.5784084183085L663.114546875,227.27418370176053L664.0272,228.5843675223007L664.8197671875,233.97038179951463L665.7324203125,234.59607090936572L666.6450734375001,243.366977238415L667.533709375,243.88822070660268L668.4223453125,248.09903889023008L669.3349984375001,252.18994715666594L670.1515828124999,254.9525063684404L671.1122703125,245.34339272032273L671.952871875,239.6828050721922L672.817490625,239.10875357041147L673.7061265625,240.05074869667808L675.507415625,240.6065844707267L676.4200687499999,237.2053057479713L677.2606703125,237.0855304651694L678.14930625,229.18891042892272L679.9025609375001,232.0602872486413L681.60778125,228.10055668288825L682.520434375,235.45246331539337L683.3370187500001,234.74306799506084L684.2736890625,236.93253697471096L685.1623249999999,235.26122195231L685.978909375,237.38425544188303L686.8675453125,244.30876829982276L687.7801984375001,242.92516440402517L688.6448171875,253.2573768540372L689.5574703125001,258.6774156715147L690.494140625,255.91000575278713L691.40679375,257.584206672293L692.319446875,250.56725943754137L693.2080828124999,252.9815783379441L694.0727015625,250.3353767299174L694.9853546875,251.31956543831296L695.8499734375,244.56250668285418L697.6272453125,245.1076705146991L698.5398984375,249.38768720502534L700.1010156250001,255.4928427168242L700.9416171875,250.90305089770504L701.8542703124999,257.36962399133876L702.7188890625,257.4184101975206L703.5114562499999,258.2311106499434L704.4000921875,254.437228540629L705.24069375,255.89714882688062L706.153346875,264.9392819335338L707.0900171875,263.9820148886597L708.0026703125001,257.6521737351921L708.7712203125,251.6713472362846L709.6598562500001,256.12226051618154L710.5484921875,262.0805911188029L711.38909375,267.5995904191589L712.1816609375,263.41736208000674L713.0943140625,263.1474273186887L713.934915625,253.70862143860347L714.799534375,250.51685656268523L715.664153125,252.73441957974774L716.5527890625,257.26643521692984L718.2820265624999,260.2559962194445L719.1466453125,263.4680989479979L720.03528125,249.8102926814403L720.8758828125,250.63769184948333L721.8125531249999,255.1445419822473L722.7252062499999,254.80053689997087L723.5658078125,252.31148385122253L725.2470109374999,258.5787096403775L726.135646875,253.33150008767885L727.0242828125,258.59128518274633L727.9849703125,248.3011410622337L728.8495890625,249.04610667392336L729.64215625,250.5110543646681L730.458740625,252.5350933808988L731.2513078125,260.71300042345104L732.1639609375001,266.51223906600126L733.0766140625,272.73833685294375L733.96525,272.59912530455813L734.781834375,268.16346716523503L737.1595359375,270.57486855656373L737.9761203125,270.42333115045057L738.816721875,264.9217102061563L739.729375,265.6158896203395L740.59399375,268.80032351048044L741.3625437500001,271.0743565554589L742.2031453125,264.1142825973137L743.1157984375,262.0555295830067L743.8843484375001,268.513049440288L744.72495,272.45518408404837L745.4694828125,269.9849479774497L746.26205,265.1451312412158L747.9672703125,267.539884568238L748.7838546875,266.87476431057536L749.576421875,267.7049391877678L750.3209546874999,274.8072687200995L751.9541234375,282.75876758103857L752.69865625,278.70492877146165L753.515240625,283.4063518986524L755.1964437500001,283.79571400817366L756.0850796875,277.36282831183416L756.9016640625,269.96800313172764L757.7662828125,261.0142521343298L758.5828671875,266.0786807529225L759.42346875,270.5049835426644L760.240053125,269.7233748442229L761.0566375,265.47401023617067L761.8972390624999,264.6599964611028L762.7138234375,268.20130540956876L763.5304078125,268.4491504823668L764.41904375,268.2523411043108L765.2596453125001,268.8235026825956L766.0522125,263.77237827393157L766.91683125,266.2727540064753L767.7814500000001,273.8617730945068L768.64606875,267.04874578794613L769.4626531250001,271.5121846360173L770.2071859375001,278.9663090945209L770.999753125,278.42184385498905L771.8883890625001,282.8305300879682L772.7530078125,281.26883400375806L774.4101937500001,281.4378735045906L775.2988296875,278.0223963867592L776.1394312499999,279.9350068695021L777.0520843749999,277.7097613945771L777.8446515625001,272.9603444447279L778.6612359375,266.826281301679L779.4778203125,267.9568684079538L780.318421875,261.82633845396373L781.183040625,268.3532003893302L782.09569375,268.79219695306267L782.912278125,267.42544722905643L783.680828125,262.65580238902544L785.36203125,261.47241303513897L786.9952000000001,255.31932120381902L787.7877671875,258.43291122750605L788.580334375,266.399715045663L789.4689703125,274.2197102386265L790.2375203124999,268.70973260842607L791.0541046875,269.3034846623655L791.8466718750001,268.6860947682982L792.7833421875,270.79133795026365L793.5999265625001,277.6258740727755L794.39249375,285.4036523672933L795.16104375,277.0362476777517L796.0496796875,280.72287052522273L798.5474671875,275.22698025421505L799.2919999999999,271.29554072872423L800.1806359375,276.2236110835825L800.9491859375,277.2492968816438L801.837821875,272.2616758146276L803.470990625,272.0523865525293L804.2155234375,276.92447593440073L805.056125,272.54229636045716L805.8006578125,273.21613780553906L806.6652765624999,274.7263565221302L807.409809375,275.42750311648234L808.22639375,278.98404670309566L809.0910124999999,274.48305226973264L809.8595624999999,277.23566245823184L810.72418125,284.26592469772453L811.49273125,279.5656253895948L812.2852984374999,272.4982106347112L813.1018828125,281.1665333885637L813.8223984375,275.5363701583848L814.663,275.4472493667895L815.5036015625001,274.7637363074731L816.3201859374999,269.87883063303985L817.1848046875,269.68338068705077L817.9533546875,269.05306483125196L818.8660078125,265.91573278057194L819.6345578125,260.81478588227924L820.4271249999999,258.81791164889137L821.243709375,252.8690468288126L822.012259375,254.92161288581264L822.8528609374999,246.9063420781801L823.6694453125,244.75143182319292L825.3746656249999,243.6806761278839L826.19125,236.2055526730773L827.8004015624999,239.73031830643058L829.409553125,240.05980439667385L830.2261374999999,244.69983221303045L831.09075625,241.6755552701846L831.8833234374999,244.40253783669303L832.675890625,247.4783587337012L833.6125609375,244.20691775570515L834.405128125,230.14562091152524L835.2217125,235.59507878226015L837.287190625,235.32805457725624L838.8002734375,239.77442692789458L839.6648921875001,236.68146748676872L840.457459375,237.42877881840013L841.3460953125,244.41928033495103L842.186696875,237.51673519704204L843.0993500000001,238.56125654338229L843.9639687499999,237.0681474358909L844.780553125,240.5797519777524L846.3416703124999,242.8152701736759L847.0621859375,245.89261510060433L847.9027875,242.56605871000167L849.487921875,236.3679131548826L850.352540625,242.22178833262748L851.217159375,246.5943106087131L851.8656234375,246.17710401521506L852.658190625,253.7442905409639L853.426740625,248.21150086929728L854.1712734375001,248.13975769171333L854.8197375000001,256.0550106361189L856.3088031249999,251.93576438822708L857.077353125,254.86377491514008L857.8218859374999,256.3308676186767L859.5271062500001,266.7019119840271L860.3436906249999,262.2808486093942L861.112240625,267.1656006005194L861.9048078124999,272.7058803436062L862.7213921875,273.92920023457975L864.3305437500001,273.9548014236227L865.1231109375,271.35742025009927L865.915678125,268.3986502942355L866.82833125,273.4539367268616L867.59688125,272.1093725907893L868.36543125,273.5567771488936L870.76715,268.3704615439407L871.5597171874999,265.0010741770507L872.3763015625,266.0501138288657" style="fill: none;" fill="none"></path></g></g></g></g><g opacity="0.20000000298023224"><g><g><g><path stroke="rgb(255, 112, 67)" stroke-width="2px" d="M120.1099546875,-600.8511800619264L121.0706421875,264.0286778728769L122.0313296875,-176.85668196426445L122.9920171875,-40.43183833373865L123.9527046875,42.519440666815115L124.91339218750001,105.07205555220992L125.8740796875,175.04250214744707L126.8347671875,77.8909070943576L127.7954546875,209.9304872153054L128.75614218750002,-74.68050953153772L130.6775171875,-290.7268904225325L131.6382046875,69.88540459690148L132.5988921875,199.02759179498187L133.55957968750002,180.17908414391636L134.5202671875,-79.94488361186808L135.4809546875,340.9302152168707L136.4416421875,129.96127222944574L137.4023296875,-182.33988133386129L138.3630171875,56.67090197063436L139.3237046875,266.22961572039384L140.28439218749998,252.52004640416015L141.24507968749998,266.9585489928411L142.2057671875,-29.722751743732886L143.1664546875,291.2241214501285L144.1271421875,219.0645972437992L145.0878296875,61.82719866473684L146.04851718749998,3.11321606112017L147.0092046875,208.0405467593358L147.9698921875,13.080056066930467L148.9305796875,55.581566745638895L149.8912671875,385.21979398967545L150.8519546875,17.575635484180737L151.8126421875,-129.49648012664062L152.7733296875,185.13179320349658L153.7340171875,31.780192945768988L154.6947046875,-163.853621433728L155.6553921875,143.19635354407887L156.6160796875,-237.53318024541647L157.5767671875,126.83865263142701L158.5374546875,66.40430738933048L159.4981421875,-6.858729344475535L160.4588296875,140.98147402791705L161.41951718750002,209.11056000975861L162.3802046875,-88.50938811352728L163.3408921875,200.76759058648275L164.3015796875,356.38893377191306L165.26226718750002,66.62305413398491L166.22295468750002,-75.89630158198884L167.1836421875,284.23129463627373L168.14432968749998,162.78640087783117L169.10501718749998,137.0401839381448L170.0657046875,-33.13653621874772L171.0263921875,78.05718603813983L171.9870796875,110.42000109979773L172.94776718749998,186.45181395418334L173.90845468749998,93.37016506546007L174.8691421875,153.59778088855094L175.8298296875,292.25018899009024L176.7905171875,211.80004534443916L177.7512046875,214.80528001969813L178.71189218749998,163.04182795632892L179.6725796875,-36.171892752740916L180.6332671875,184.79412991614666L181.5939546875,93.8137064898994L182.5546421875,62.18606899734942L183.5153296875,16.509392375137963L184.4760171875,48.89702753421449L185.4367046875,190.51257039893562L186.3973921875,1.11323460362064L187.3580796875,43.68087984570394L188.31876718750001,285.7012570514292L189.2794546875,163.94901822590123L190.2401421875,-56.75545088474604L191.2008296875,94.29738421111381L192.1615171875,197.93535041933922L193.12220468750002,-32.56724487036149L194.08289218750002,134.489447660711L195.0435796875,143.90529721275072L196.0042671875,156.68010710057055L196.9649546875,-65.3836550668056L197.92564218750002,-116.42508578359093L198.8863296875,59.51005406364135L199.8470171875,193.93962891339268L200.80770468749998,50.42778347912309L201.76839218749998,-93.95292245402169L202.7290796875,185.49569039128258L203.6897671875,92.07449314451935L204.6504546875,259.02699624766217L205.61114218749998,157.10998176250726L206.57182968749999,357.17284827281924L207.5325171875,128.475208168813L208.4932046875,-27.46922827842559L209.4538921875,177.54344114081954L210.4145796875,14.675689861420665L211.3752671875,12.059604466732765L212.3359546875,86.02325914032974L213.2966421875,63.25474698936688L214.2573296875,-67.71038211057538L215.2180171875,192.2689850143621L216.17870468750002,33.79855384249623L217.1393921875,352.69812245007734L218.1000796875,390.28348658613066L219.0607671875,-171.4554831696836L220.0214546875,229.04753889508675L220.98214218750002,108.01370836398672L221.9428296875,79.56170808261237L222.9035171875,232.83001177922472L223.8642046875,147.51457922724308L224.8248921875,8.066003665312508L225.78557968750002,54.21410504925325L226.74626718750002,129.6869158994357L227.7069546875,96.06298854615414L228.66764218749998,300.8737983123429L229.62832968749998,-334.3794723913346L230.5890171875,73.59758005322414L231.5497046875,256.6638245038854L232.5103921875,-1.4461415811424558L234.4317671875,-37.80428542568649L235.3924546875,38.321780963200126L236.3531421875,277.9514565386131L237.3138296875,251.78714662880265L238.2745171875,348.6943893936982L239.2352046875,104.08867700891597L240.1958921875,-20.240453449869847L241.1565796875,365.5793995595772L242.1172671875,-53.751904918646915L243.0779546875,90.38405600324359L244.0386421875,181.5966573028117L244.9993296875,214.804258939741L245.9600171875,336.95216624864304L246.9207046875,92.56767476379594L247.8813921875,-270.0021090780002L248.84207968750002,111.37808827800063L249.8027671875,427.1135657323825L250.7634546875,148.1589592247817L251.7241421875,132.9520154237752L252.6848296875,194.70724540729137L253.64551718750002,105.3055686839362L254.6062046875,5.177761189752914L255.5668921875,21.664746533895425L256.5275796875,22.644983292706L257.4882671875,140.65794877074225L258.4489546875,139.25294274978043L259.4096421875,-77.46075316548166L260.37032968750003,89.79905573244059L261.33101718750004,63.11038199235611L262.29170468750004,-79.81701298339499L263.2523921875,175.20893818045346L264.2130796875,35.23678423436968L265.1737671875,33.21253249173611L266.1344546875,41.785048543828L267.0951421875,173.7711790562525L268.0558296875,303.73070148768085L269.0165171875,63.99479432442405L269.97720468750003,214.34744347585942L270.93789218750004,187.99042436030044L271.89857968750005,159.1343120497529L272.85926718750005,337.1762932992253L273.8199546875,72.39042791010235L274.78064218749995,241.92775565232353L275.74132968749996,324.857317067636L276.70201718749996,181.16521174863328L277.66270468749997,302.1030607637664L278.6233921875,207.80770125681224L279.5840796875,149.63284887054144L280.5447671875,301.3274719917411L281.5054546875,189.276670927791L282.4661421875,83.99044603497902L283.4268296875,-43.787735429647455L284.3875171875,85.48051587082801L285.34820468749996,227.85240407761378L286.30889218749996,175.98684401853518L287.26957968749997,201.1552867917303L288.2302671875,-38.294403805091804L289.1909546875,194.35536554515423L290.1516421875,-67.20447626414108L292.0730171875,403.9391742984746L293.0337046875,115.23478582055816L293.9943921875,28.63016127813279L294.9550796875,16.24453994319009L295.91576718749997,117.45838378866137L296.8764546875,210.68687182967608L297.8371421875,218.6618204730315L298.7978296875,32.432505949128085L299.7585171875,307.6375104927481L300.7192046875,99.00935403465604L301.6798921875,40.28853804978809L302.6405796875,190.81229663864886L303.6012671875,34.232669913485495L304.5619546875,194.40673372145733L305.5226421875,195.30779751128705L306.4833296875,62.08584607233007L307.4440171875,278.9213254086286L308.4047046875,88.1860635786798L309.3653921875,86.59742025466511L310.3260796875,15.447783398208173L311.2867671875,-93.78224501196269L312.2474546875,255.89927124985797L313.2081421875,230.17045194174824L314.1688296875,147.69507474581255L315.1295171875,45.11832479145653L316.09020468750003,393.70516479465994L317.05089218750004,-72.45950353563336L318.0115796875,110.04832799541538L318.9722671875,132.09116647533256L319.9329546875,306.2028538807245L320.8936421875,118.62736325031028L321.8543296875,226.716177719204L322.8150171875,-2.8350459566270274L323.7757046875,-137.4019167883015L324.73639218750003,266.4824900989989L325.69707968750004,217.38346763905537L326.65776718750004,-61.50268723911404L327.61845468750005,243.04085062247452L328.5791421875,73.20053703913857L329.5398296875,144.37947103590295L330.5005171875,240.42374414782955L331.4612046875,236.0409940658382L332.4218921875,-54.471216476113796L333.38257968749997,165.79670168056958L334.3432671875,145.02361539960532L335.3039546875,310.3300197949939L336.2646421875,145.08558709853972L337.2253296875,125.438202197966L338.1860171875,253.60785000922004L339.1467046875,168.1864215032308L340.10739218749995,196.12701781532508L341.06807968749996,15.251971680282281L342.02876718749997,285.0314678718813L342.9894546875,133.55908673057385L343.9501421875,84.93510208451545L344.9108296875,401.2824420670331L345.8715171875,130.5778474343066L346.8322046875,9.403618409106116L347.7928921875,49.42359061362686L348.7535796875,237.09510203231397L349.7142671875,84.74942262154849L350.67495468749996,263.5161742790276L351.63564218749997,109.78858096325303L352.5963296875,-6.51006981143388L353.5570171875,339.9394142077347L354.5177046875,66.80614162475314L355.4783921875,218.4237910261104L356.4390796875,277.7794831104548L357.3997671875,352.0737320563141L358.3364375,41.924229596441194L359.297125,69.77387124774197L360.2578125,9.985241261589522L361.2185,173.42424750467666L362.1791875,278.1707138232461L363.139875,227.96311270834647L364.1005625,437.7148891146088L366.0219375,386.55112516450237L366.982625,302.2837919161721L367.9433125,283.2000038796084L368.904,282.731210362384L369.8646875,82.1270536578939L370.825375,118.17408229397245L371.7860625,167.5886970052702L372.7227328125,180.41416816788433L373.6834203125,147.62053590894467L374.6441078125,137.0404195719811L375.6047953125,401.2568757957997L376.5654828125,238.54051925619314L377.5261703125,45.36008510745165L378.48685781250003,139.16080991980564L379.44754531250004,73.8098075950756L380.40823281250005,49.30640205239723L381.3689203125,327.32122227641077L382.3296078125,219.69401449273576L383.2902953125,294.68177309099235L384.22696562500005,341.7050970873872L385.187653125,283.505660237534L386.148340625,308.98227279624143L387.10902812499995,178.54983325545413L388.06971562499996,343.6726003477899L389.03040312499996,227.05545117110162L389.99109062499997,171.08479623374927L390.951778125,171.81816727677926L391.912465625,122.59575123125154L392.873153125,189.42394207544885L393.833840625,112.97521442012038L394.794528125,245.6435834331081L395.755215625,243.02243191094078L396.715903125,270.58589626811283L397.67659062499996,398.13814415607914L398.63727812499997,129.59093438346883L399.597965625,-50.5065200919405L400.558653125,105.50436509712125L401.519340625,56.674122299729845L402.480028125,337.11785610783465L403.4166984375,36.09213505996644L404.3773859375,297.2018376974073L405.3380734375,266.841792426978L406.2987609375,86.01713266058715L407.23543125,173.74596623577347L408.19611875,83.64500683103279L409.15680625,216.34781765641938L410.11749375,227.4620373555554L411.07818125,235.82091206277832L412.03886875,278.15814668531266L412.99955625,405.9308300270932L413.96024375,320.8992577031838L414.92093125,-22.7796436693273L415.88161875000003,328.9344107917018L416.84230625000004,331.56801163488444L417.80299375,295.63200580798684L418.76368125,220.7264048739703L419.72436875,347.2291396552678L420.68505625,186.24657688280737L421.64574375,154.14806444081273L422.60643125,371.45473290500433L423.56711875,205.6402626863492L424.52780625,-6.579424703904181L425.48849375000003,128.93972100467892L426.4251640625,63.48229073057473L427.3858515625,147.15453072544918L428.29850468750004,147.98136985685937L429.25919218750005,289.61568488386865L430.1958625,384.03380961951035L431.15655,307.92400196532515L432.1172375,174.54170170079828L433.029890625,173.93730091081054L433.990578125,302.85811011973163L434.95126562499996,233.63368025007006L435.91195312499997,2.2222059816372166L436.872640625,124.43620858160813L437.833328125,96.44722878847L438.794015625,280.9596759091313L439.754703125,289.7946880548085L440.715390625,121.13222947428693L441.676078125,-20.565706688510488L442.636765625,233.16771433888064L443.597453125,208.47407374573444L444.558140625,65.18066087767102L445.4948109375,299.63789884119825L446.4554984375,29.8571852081119L447.39216875,-32.86241552257388L448.3288390625,184.87825119568882L449.2895265625,76.98929349224329L450.2502140625,118.3246523153378L451.2109015625,294.78140693142115L452.1715890625,30.94754151306455L454.0209125,318.3567293377128L454.9816,71.34256424028723L455.9182703125,365.75270824614097L456.8789578125,282.1374523673336L457.8396453125,202.02878142271848L458.776315625,274.700730678285L459.7129859375,173.99762317289117L460.6256390625,255.1620515208358L461.5863265625,24.8447036987356L462.5470140625,247.33425620822013L463.50770156249996,50.3375357198384L464.444371875,485.41503203333303L465.405059375,220.65567545078846L466.365746875,272.4784286962812L467.326434375,390.5856084365125L468.2390875,253.82636112003826L469.151740625,289.3359482479308L470.112428125,198.06282832475185L471.073115625,330.3085095078085L472.033803125,262.0262222600967L472.994490625,364.7164299066083L473.95517812500003,187.25100538213994L474.8918484375,246.31321552343178L475.780484375,236.20797991112917L476.741171875,213.68264187917887L477.701859375,371.1812798380332L478.6145125,73.966032828511L480.48785312499996,246.79335873710238L481.42452343750006,-9.725372051711986L482.3371765625,122.56001343275324L483.2978640625,241.86503777957432L484.25855156250003,227.55837232227668L485.195221875,125.14028248433073L486.13189218749994,286.9252962861491L487.09257968749995,259.3458088281119L487.981215625,329.9074607185066L488.9178859375,84.31208622146374L489.85455625000003,84.94594124098313L490.79122656249996,82.42701553144337L491.7038796875,253.14918874695445L492.64055,145.5322703074625L493.55320312500004,352.10719206106194L494.46585625000006,-98.11696506366457L495.4025265625,49.1799452269417L496.339196875,395.4221500148202L497.2758671875,74.7511647709045L498.18852031250003,356.37027942654305L499.12519062499996,93.3539063307586L500.08587812499997,81.88662860030416L500.9745140625,246.10797845205582L501.9352015625,234.85771948478998L502.84785468750005,310.55611046087824L503.784525,373.9466392679871L504.7211953125,341.0059322229198L505.657865625,231.93593845987047L506.59453593750004,186.3725624405904L507.53120624999997,490.8323324733912L508.46787656250007,189.08321554822763L509.3805296875,151.84364406687493L510.3172,311.0809062865187L511.22985312500003,306.50458300804587L512.14250625,277.02840025739977L513.055159375,322.2461799835094L513.9918296875,390.56491193122827L514.880465625,19.986483807492675L515.841153125,318.2779098194863L516.75380625,156.61844958008444L517.7144937500001,297.5429176753829L518.627146875,282.48595481115115L519.587834375,127.0639971234965L520.5245046875,170.44528600215983L521.4371578125,232.26284113536485L522.3738281249999,176.01826186336888L523.3104984375,219.07221607117134L524.24716875,156.3033285964027L525.1598218749999,265.5606119869668L526.120509375,376.2239617507559L527.0571796875,341.1128314399664L527.99385,-99.35796993459468L528.906503125,338.18154651698467L529.7951390625001,408.69842797849145L530.683775,281.2617977595131L531.5724109375,206.83944255134446L532.461046875,194.92394999203165L533.3977171875,331.307322067377L534.286353125,353.48588563697564L535.19900625,89.19096334568485L536.1356765625,240.90585097680227L537.0002953125,344.8385951141796L537.9609828125,154.07870954834243L538.8736359375,132.69336801618195L539.762271875,270.17726792374486L540.6749249999999,196.93021501849793L541.5635609375,164.9856500161883L542.4762140625,-6.920701043409963L543.4369015625,280.3495413624613L544.3975890625001,148.68497249190952L545.286225,453.99310287983155L546.198878125,249.4882243777107L547.11153125,224.38301001724338L548.0482015624999,103.26301604668703L549.8735078125,479.7965002971152L550.8341953125,232.89563580262106L551.6988140625,173.74816548491182L552.6595015624999,170.61816269335714L553.5721546875,358.48470038384926L555.3974609375,357.36787454462427L556.3341312499999,213.67345215956504L557.2708015625,184.21886917724214L558.1594375,199.0964754197797L559.072090625,261.8712930127607L560.0327781249999,154.39705086111962L560.94543125,150.50343735088248L561.90611875,265.3957468462021L562.7707375,380.3198669094158L563.6593734375,228.1548008341379L564.59604375,288.41740828191234L565.508696875,466.65818594456977L566.373315625,106.81079762991749L567.3099859375,369.0488328922537L568.1986218750001,335.71508860831716L569.0872578125,103.1365592212315L569.9758937500001,273.947723482234L570.8645296875,316.11286685969185L571.7771828125,32.319244618502694L572.713853125,202.40281086546338L573.6024890625,237.59668792508356L574.5631765625001,319.5937284334266L575.4758296875,178.1344108021409L576.364465625,241.16905397189635L578.1177203125,166.26199996255627L579.0303734375,181.35206938078156L579.919009375,197.68055169773814L580.8556796875,85.57398395920819L581.8163671875,155.3991230220896L582.7290203125,-4.65657405547131L583.5936390625,181.22734053679187L584.4822750000001,260.8092520404644L585.4189453125,169.6202533968276L586.2835640625,41.98753655378101L587.220234375,310.56035186993074L588.1569046875001,376.12617370871106L589.0695578125001,212.56279207238867L589.9822109375,306.2998957489545L590.870846875,342.8210196635732L591.7835,234.17728751030472L592.7441875,27.095242468783738L593.6328234375,195.11002217805907L594.56949375,210.5956422627403L595.4581296875,117.81159890920395L596.3707828125,-6.050269652293082L597.2834359374999,83.01696411280767L598.172071875,277.3137528331016L599.084725,196.02436000733104L599.94934375,255.25033566481844L600.8379796875,368.9967578144419L602.7113203125,230.2209953996244L603.6720078125,414.95183581418576L605.4492796875,367.3324367566841L606.3379156249999,287.2617028597057L607.2745859375001,186.4331203365073L608.21125625,261.5603348935194L609.17194375,261.7788067320315L610.084596875,354.715972806826L610.9732328125,126.92937165838424L611.86186875,241.2717903245025L612.7264875000001,139.08250094155775L613.59110625,141.75655225996374L615.4404296875,170.2156215564257L617.1216328125,264.7876937317524L618.01026875,7.011228069634001L618.8989046875,222.00715331861497L620.652159375,304.37119352692133L621.5648125,270.05006492447455L622.477465625,148.38752404594672L623.39011875,188.51910814423903L624.3267890625,320.182852296364L625.1914078125,149.58352285415253L626.0320093749999,191.61871417091714L626.8726109375,520.6839191974937L627.7852640625,212.0438870926545L628.6979171875,9.87252974324872L629.53851875,156.01169245173418L630.3791203124999,291.1808040965641L631.2437390624999,144.81955649741062L632.1563921874999,218.73584876992084L633.0690453125,196.83117026265975L633.9576812500001,276.7354288543258L634.8223,121.40972758878036L635.6148671875001,349.60020513255904L636.503503125,277.69732544621473L638.328809375,112.78003105909119L639.2654796875,291.49176221580535L640.0820640625,223.06279290502638L640.8506140625,233.63010647022023L641.8113015624999,99.94207130315573L642.7479718750001,373.12824368237597L643.6366078125,213.48918649961556L644.5492609375,133.46286958077073L645.48593125,236.5016189434059L647.3112375,388.2322154969401L648.223890625,45.144794325728924L649.13654375,305.37896017226745L650.049196875,342.4440840701812L650.96185,265.8525230377777L651.82646875,-9.493743990675739L652.6670703125,129.50500657784872L653.5797234375,23.066218047313498L654.3963078125,228.8955157983978L656.101528125,264.92506825828764L656.9661468749999,384.3311795208611L658.7434187499999,250.31541695987528L659.6080375,413.8070480930588L660.4486390625,100.17157865966567L661.3132578125,283.46045781327956L662.2259109375,261.30314056124973L663.114546875,242.39148304206856L664.0272,257.0510887137665L664.8197671875,350.9937829124626L665.7324203125,248.19058884146793L666.6450734375001,433.93485111344546L667.533709375,255.21341969713887L668.4223453125,339.58863397016677L669.3349984375001,341.074226763127L670.1515828124999,314.97538378748874L671.1122703125,36.56355982169572L671.952871875,116.69367344540979L672.817490625,226.63618003179627L673.7061265625,260.51773371271395L675.507415625,252.68337992498923L676.4200687499999,163.30479531758678L677.2606703125,234.4831402297605L678.14930625,57.6168932785763L679.9025609375001,294.44747451314527L681.60778125,142.06641075463585L682.520434375,395.18934378460267L683.3370187500001,219.32984239880747L684.2736890625,284.5037266232877L685.1623249999999,198.94810464755267L685.978909375,283.5119830788068L686.8675453125,394.759547667278L687.7801984375001,212.86322521361066L688.6448171875,477.7481746308778L689.5574703125001,376.4400772509055L690.494140625,195.781735700603L691.40679375,293.96002665055084L692.319446875,98.1081331556021L693.2080828124999,305.43814353747285L694.0727015625,192.84063270111076L694.9853546875,272.7033019206782L695.8499734375,97.75004826911032L697.6272453125,256.9525937702129L698.5398984375,342.3807771128414L700.1010156250001,388.1412215638406L700.9416171875,151.179392282479L701.8542703124999,397.8706212073204L702.7188890625,258.47840140456026L703.5114562499999,275.88887502528246L704.4000921875,172.00651725655712L705.24069375,287.6172350463047L706.153346875,461.4001739778183L707.0900171875,243.18321273187712L708.0026703125001,120.12198867366016L708.7712203125,121.72429876017753L709.6598562500001,352.828467233831L710.5484921875,391.53886512107215L711.38909375,387.51239339949467L712.1816609375,172.54894634761052L713.0943140625,257.28248114096647L713.934915625,48.62911186239535L714.799534375,181.16851062234082L715.664153125,300.91601604133814L716.5527890625,355.73477497016995L718.2820265624999,325.2110034558511L719.1466453125,333.2583309592421L720.03528125,-46.93658892810231L720.8758828125,268.61481922786027L721.8125531249999,353.0661039576917L722.7252062499999,247.32624465778753L723.5658078125,198.23114942844825L725.2470109374999,394.7484336046681L726.135646875,139.32394707910453L727.0242828125,372.8720704300634L727.9849703125,24.724373353022656L728.8495890625,265.2321776915368L729.64215625,282.34037237265306L730.458740625,296.5119410971659L731.2513078125,438.3966170751935L733.0766140625,408.0144614964624L733.96525,269.5744380259988L734.781834375,171.7887130472477L737.1595359375,322.9680442408691L737.9761203125,267.1308365994478L738.816721875,145.38649150743424L739.729375,280.6985150739514L740.59399375,337.9893871235207L741.3625437500001,320.4828927145256L742.2031453125,112.89085750674195L743.1157984375,217.32444136307413L743.8843484375001,408.8173445211869L744.72495,358.10701861664245L745.4694828125,216.31345438863255L746.26205,159.9891130630651L747.9672703125,319.5713432189826L748.7838546875,252.4235150759087L749.576421875,285.74237515585526L750.3209546874999,429.1215194680086L751.9541234375,455.5231519232314L752.69865625,190.62606736339725L753.515240625,385.5554543894172L755.1964437500001,292.25549075140594L756.0850796875,137.59376636411412L756.9016640625,109.29861967307187L757.7662828125,66.47366228180084L758.5828671875,376.114902556877L759.42346875,366.67647142886307L760.240053125,252.74114948717715L761.0566375,173.14690647940736L761.8972390624999,246.97369716644766L762.7138234375,345.14429074441125L763.5304078125,273.83414797316027L764.41904375,263.9762100720047L765.2596453125001,281.2332860653265L766.0522125,154.0252206675131L766.91683125,320.5990994681041L767.7814500000001,438.7504605526327L768.64606875,119.02024339995535L769.4626531250001,368.49053778955937L770.2071859375001,440.9241041474504L770.999753125,266.59209910516233L771.8883890625001,378.6192582408751L772.7530078125,247.33743726500953L774.4101937500001,285.1106408408622L775.2988296875,203.8133935538832L776.1394312499999,321.49081644909586L777.0520843749999,229.36124607575096L777.8446515625001,169.76846707983043L778.6612359375,133.54981846634792L779.4778203125,292.521442807923L780.318421875,128.62664218091135L781.183040625,410.16410971228834L782.09569375,278.33039501961326L782.912278125,237.7297032256481L783.680828125,159.02442813744713L785.36203125,235.76058980069766L786.9952000000001,121.62941686877986L787.7877671875,326.0827308330674L788.580334375,439.4966343674325L789.4689703125,444.1268785221011L790.2375203124999,148.9929459158916L791.0541046875,282.20409747068703L791.8466718750001,255.27189616083555L792.7833421875,316.53253072205763L793.5999265625001,426.1217043709834L794.39249375,454.39356258454274L795.16104375,95.23536396862312L796.0496796875,360.8231305748196L798.5474671875,155.8162734568687L799.2919999999999,185.87608194760628L800.1806359375,383.2971397027728L800.9491859375,299.5346519486136L801.837821875,163.89427263127857L803.470990625,267.50510167602886L804.2155234375,382.7816906859704L805.056125,177.3294856175022L805.8006578125,287.8568746577736L806.6652765624999,307.53929045533687L807.409809375,290.6615063937695L808.22639375,356.2580391758748L809.0910124999999,176.68871867211942L809.8595624999999,337.04237473562176L810.72418125,437.01434971943L811.49273125,177.44094042204964L812.2852984374999,118.9425627786041L813.1018828125,469.5055459495395L813.8223984375,153.20827815722552L814.663,273.5108976221278L815.5036015625001,259.9128616550537L816.3201859374999,163.74315279762862L817.1848046875,265.4367864060161L817.9533546875,255.35802032798586L818.8660078125,197.75006367943263L819.6345578125,149.98512145573898L820.4271249999999,215.43128057800905L821.243709375,123.61643846528551L822.012259375,299.51827539699406L822.8528609374999,72.75636725780254L823.6694453125,197.93110901028666L825.3746656249999,220.41607511162567L826.19125,73.79150670045993L827.8004015624999,316.31386252201526L829.409553125,247.2186385392322L830.2261374999999,345.5149820411425L831.09075625,175.9662653301691L831.8833234374999,303.652431781739L832.675890625,314.30755822324295L833.6125609375,173.12742741561053L834.405128125,-75.36801052111065L835.2217125,353.9969361555014L837.287190625,229.5263468503519L838.8002734375,336.38197163721793L839.6648921875001,169.47989417503317L840.457459375,253.6658159329382L841.3460953125,396.30381328546514L842.186696875,87.54325447338289L843.0993500000001,261.25585670477506L843.9639687499999,204.62695864585115L844.780553125,316.8773415691072L846.3416703124999,291.38698370328507L847.0621859375,312.75492760386885L847.9027875,170.2890607687244L849.487921875,101.69911427547885L850.352540625,369.4105308309014L851.217159375,341.59729460730165L851.8656234375,237.11234257466643L852.658190625,418.15861596405273L853.426740625,127.99907073035868L854.1712734375001,246.58097410602676L854.8197375000001,428.0318700645647L856.3088031249999,162.4357777294874L857.077353125,318.48145818170246L857.8218859374999,288.2067909046086L859.5271062500001,492.0364213766417L860.3436906249999,166.22319892418668L861.112240625,373.2979393167838L861.9048078124999,393.08104930703905L862.7213921875,300.5086051384575L864.3305437500001,274.5110454401017L865.1231109375,214.92341111627275L865.915678125,204.11264852592393L866.82833125,383.2915237630088L867.59688125,242.89566090703693L868.36543125,305.0049307295226L870.76715,155.68596794542103L871.5597171874999,191.79347593280448L872.3763015625,288.84288444557234" style="fill: none;" fill="none"></path></g></g></g></g></g></g><g transform="translate(68, 377)" clip-path="url(#clip_1)"><clipPath id="clip_1"><rect width="960" height="22"></rect></clipPath><g><g><line x1="0" y1="0" x2="0" y2="5" style="visibility: inherit;" fill="rgb(0, 0, 0)" stroke="rgb(204, 204, 204)" stroke-width="1px"></line><line x1="120.0859375" y1="0" x2="120.0859375" y2="5" style="visibility: inherit;" fill="rgb(0, 0, 0)" stroke="rgb(204, 204, 204)" stroke-width="1px"></line><line x1="240.171875" y1="0" x2="240.171875" y2="5" style="visibility: inherit;" fill="rgb(0, 0, 0)" stroke="rgb(204, 204, 204)" stroke-width="1px"></line><line x1="360.2578125" y1="0" x2="360.2578125" y2="5" style="visibility: inherit;" fill="rgb(0, 0, 0)" stroke="rgb(204, 204, 204)" stroke-width="1px"></line><line x1="480.34375" y1="0" x2="480.34375" y2="5" style="visibility: inherit;" fill="rgb(0, 0, 0)" stroke="rgb(204, 204, 204)" stroke-width="1px"></line><line x1="600.4296875" y1="0" x2="600.4296875" y2="5" style="visibility: inherit;" fill="rgb(0, 0, 0)" stroke="rgb(204, 204, 204)" stroke-width="1px"></line><line x1="720.515625" y1="0" x2="720.515625" y2="5" style="visibility: inherit;" fill="rgb(0, 0, 0)" stroke="rgb(204, 204, 204)" stroke-width="1px"></line><line x1="840.6015625" y1="0" x2="840.6015625" y2="5" style="visibility: inherit;" fill="rgb(0, 0, 0)" stroke="rgb(204, 204, 204)" stroke-width="1px"></line><line x1="960.6875" y1="0" x2="960.6875" y2="5" style="visibility: inherit;" fill="rgb(0, 0, 0)" stroke="rgb(204, 204, 204)" stroke-width="1px"></line></g><g transform="translate(0, 8)"><text x="0" y="0" dx="0em" dy="0.95em" style="text-anchor: middle; visibility: hidden; font-family: &quot;Helvetica Neue&quot;, sans-serif; font-size: 12px; font-weight: 200;" fill="rgb(50, 49, 63)" stroke="none" stroke-width="1px">-5k</text><text x="120.0859375" y="0" dx="0em" dy="0.95em" style="text-anchor: middle; visibility: inherit; font-family: &quot;Helvetica Neue&quot;, sans-serif; font-size: 12px; font-weight: 200;" fill="rgb(50, 49, 63)" stroke="none" stroke-width="1px">0</text><text x="240.171875" y="0" dx="0em" dy="0.95em" style="text-anchor: middle; visibility: inherit; font-family: &quot;Helvetica Neue&quot;, sans-serif; font-size: 12px; font-weight: 200;" fill="rgb(50, 49, 63)" stroke="none" stroke-width="1px">5k</text><text x="360.2578125" y="0" dx="0em" dy="0.95em" style="text-anchor: middle; visibility: inherit; font-family: &quot;Helvetica Neue&quot;, sans-serif; font-size: 12px; font-weight: 200;" fill="rgb(50, 49, 63)" stroke="none" stroke-width="1px">10k</text><text x="480.34375" y="0" dx="0em" dy="0.95em" style="text-anchor: middle; visibility: inherit; font-family: &quot;Helvetica Neue&quot;, sans-serif; font-size: 12px; font-weight: 200;" fill="rgb(50, 49, 63)" stroke="none" stroke-width="1px">15k</text><text x="600.4296875" y="0" dx="0em" dy="0.95em" style="text-anchor: middle; visibility: inherit; font-family: &quot;Helvetica Neue&quot;, sans-serif; font-size: 12px; font-weight: 200;" fill="rgb(50, 49, 63)" stroke="none" stroke-width="1px">20k</text><text x="720.515625" y="0" dx="0em" dy="0.95em" style="text-anchor: middle; visibility: inherit; font-family: &quot;Helvetica Neue&quot;, sans-serif; font-size: 12px; font-weight: 200;" fill="rgb(50, 49, 63)" stroke="none" stroke-width="1px">25k</text><text x="840.6015625" y="0" dx="0em" dy="0.95em" style="text-anchor: middle; visibility: inherit; font-family: &quot;Helvetica Neue&quot;, sans-serif; font-size: 12px; font-weight: 200;" fill="rgb(50, 49, 63)" stroke="none" stroke-width="1px">30k</text><text x="960.6875" y="0" dx="0em" dy="0.95em" style="text-anchor: middle; visibility: hidden; font-family: &quot;Helvetica Neue&quot;, sans-serif; font-size: 12px; font-weight: 200;" fill="rgb(50, 49, 63)" stroke="none" stroke-width="1px">35k</text></g><line x1="0" y1="0" x2="960.6875" y2="0" fill="rgb(0, 0, 0)" stroke="rgb(204, 204, 204)" stroke-width="1px"></line></g></g></g></g></svg>