<svg viewBox="0 0 1029 400" xmlns="http://www.w3.org/2000/svg"><g><g><g><g><g><line x1="78.03125" y1="377.828125" x2="73.03125" y2="377.828125" style="visibility: inherit;" fill="rgb(0, 0, 0)" stroke="rgb(204, 204, 204)" stroke-width="1px"></line><line x1="78.03125" y1="343.4801136363636" x2="73.03125" y2="343.4801136363636" style="visibility: inherit;" fill="rgb(0, 0, 0)" stroke="rgb(204, 204, 204)" stroke-width="1px"></line><line x1="78.03125" y1="309.13210227272725" x2="73.03125" y2="309.13210227272725" style="visibility: inherit;" fill="rgb(0, 0, 0)" stroke="rgb(204, 204, 204)" stroke-width="1px"></line><line x1="78.03125" y1="274.78409090909093" x2="73.03125" y2="274.78409090909093" style="visibility: inherit;" fill="rgb(0, 0, 0)" stroke="rgb(204, 204, 204)" stroke-width="1px"></line><line x1="78.03125" y1="240.43607954545453" x2="73.03125" y2="240.43607954545453" style="visibility: inherit;" fill="rgb(0, 0, 0)" stroke="rgb(204, 204, 204)" stroke-width="1px"></line><line x1="78.03125" y1="206.0880681818182" x2="73.03125" y2="206.0880681818182" style="visibility: inherit;" fill="rgb(0, 0, 0)" stroke="rgb(204, 204, 204)" stroke-width="1px"></line><line x1="78.03125" y1="171.74005681818184" x2="73.03125" y2="171.74005681818184" style="visibility: inherit;" fill="rgb(0, 0, 0)" stroke="rgb(204, 204, 204)" stroke-width="1px"></line><line x1="78.03125" y1="137.39204545454547" x2="73.03125" y2="137.39204545454547" style="visibility: inherit;" fill="rgb(0, 0, 0)" stroke="rgb(204, 204, 204)" stroke-width="1px"></line><line x1="78.03125" y1="103.04403409090907" x2="73.03125" y2="103.04403409090907" style="visibility: inherit;" fill="rgb(0, 0, 0)" stroke="rgb(204, 204, 204)" stroke-width="1px"></line><line x1="78.03125" y1="68.69602272727269" x2="73.03125" y2="68.69602272727269" style="visibility: inherit;" fill="rgb(0, 0, 0)" stroke="rgb(204, 204, 204)" stroke-width="1px"></line><line x1="78.03125" y1="34.34801136363643" x2="73.03125" y2="34.34801136363643" style="visibility: inherit;" fill="rgb(0, 0, 0)" stroke="rgb(204, 204, 204)" stroke-width="1px"></line><line x1="78.03125" y1="0" x2="73.03125" y2="0" style="visibility: inherit;" fill="rgb(0, 0, 0)" stroke="rgb(204, 204, 204)" stroke-width="1px"></line></g><g transform="translate(68.03125, 0)"><text x="0" y="377.828125" dx="0em" dy="0.3em" style="text-anchor: end; visibility: hidden; font-family: &quot;Helvetica Neue&quot;, sans-serif; font-size: 12px; font-weight: 200;" fill="rgb(50, 49, 63)" stroke="none" stroke-width="1px">8e-5</text><text x="0" y="343.4801136363636" dx="0em" dy="0.3em" style="text-anchor: end; visibility: inherit; font-family: &quot;Helvetica Neue&quot;, sans-serif; font-size: 12px; font-weight: 200;" fill="rgb(50, 49, 63)" stroke="none" stroke-width="1px">8.5e-5</text><text x="0" y="309.13210227272725" dx="0em" dy="0.3em" style="text-anchor: end; visibility: inherit; font-family: &quot;Helvetica Neue&quot;, sans-serif; font-size: 12px; font-weight: 200;" fill="rgb(50, 49, 63)" stroke="none" stroke-width="1px">9e-5</text><text x="0" y="274.78409090909093" dx="0em" dy="0.3em" style="text-anchor: end; visibility: inherit; font-family: &quot;Helvetica Neue&quot;, sans-serif; font-size: 12px; font-weight: 200;" fill="rgb(50, 49, 63)" stroke="none" stroke-width="1px">9.5e-5</text><text x="0" y="240.43607954545453" dx="0em" dy="0.3em" style="text-anchor: end; visibility: inherit; font-family: &quot;Helvetica Neue&quot;, sans-serif; font-size: 12px; font-weight: 200;" fill="rgb(50, 49, 63)" stroke="none" stroke-width="1px">1e-4</text><text x="0" y="206.0880681818182" dx="0em" dy="0.3em" style="text-anchor: end; visibility: inherit; font-family: &quot;Helvetica Neue&quot;, sans-serif; font-size: 12px; font-weight: 200;" fill="rgb(50, 49, 63)" stroke="none" stroke-width="1px">1.05e-4</text><text x="0" y="171.74005681818184" dx="0em" dy="0.3em" style="text-anchor: end; visibility: inherit; font-family: &quot;Helvetica Neue&quot;, sans-serif; font-size: 12px; font-weight: 200;" fill="rgb(50, 49, 63)" stroke="none" stroke-width="1px">1.1e-4</text><text x="0" y="137.39204545454547" dx="0em" dy="0.3em" style="text-anchor: end; visibility: inherit; font-family: &quot;Helvetica Neue&quot;, sans-serif; font-size: 12px; font-weight: 200;" fill="rgb(50, 49, 63)" stroke="none" stroke-width="1px">1.15e-4</text><text x="0" y="103.04403409090907" dx="0em" dy="0.3em" style="text-anchor: end; visibility: inherit; font-family: &quot;Helvetica Neue&quot;, sans-serif; font-size: 12px; font-weight: 200;" fill="rgb(50, 49, 63)" stroke="none" stroke-width="1px">1.2e-4</text><text x="0" y="68.69602272727269" dx="0em" dy="0.3em" style="text-anchor: end; visibility: inherit; font-family: &quot;Helvetica Neue&quot;, sans-serif; font-size: 12px; font-weight: 200;" fill="rgb(50, 49, 63)" stroke="none" stroke-width="1px">1.25e-4</text><text x="0" y="34.34801136363643" dx="0em" dy="0.3em" style="text-anchor: end; visibility: inherit; font-family: &quot;Helvetica Neue&quot;, sans-serif; font-size: 12px; font-weight: 200;" fill="rgb(50, 49, 63)" stroke="none" stroke-width="1px">1.3e-4</text><text x="0" y="0" dx="0em" dy="0.3em" style="text-anchor: end; visibility: hidden; font-family: &quot;Helvetica Neue&quot;, sans-serif; font-size: 12px; font-weight: 200;" fill="rgb(50, 49, 63)" stroke="none" stroke-width="1px">1.35e-4</text></g><line x1="78.03125" y1="0" x2="78.03125" y2="377.828125" fill="rgb(0, 0, 0)" stroke="rgb(204, 204, 204)" stroke-width="1px"></line></g></g><g transform="translate(78, 0)" clip-path="url(#clip_0)"><clipPath id="clip_0"><rect width="950" height="377"></rect></clipPath><g><g><g><line x1="0" y1="0" x2="0" y2="377.828125" fill="rgb(0, 0, 0)" stroke="rgb(60, 60, 60)" stroke-width="1px" opacity="0.25"></line><line x1="118.87109375" y1="0" x2="118.87109375" y2="377.828125" fill="rgb(0, 0, 0)" stroke="rgb(60, 60, 60)" stroke-width="1px" opacity="0.25"></line><line x1="237.7421875" y1="0" x2="237.7421875" y2="377.828125" fill="rgb(0, 0, 0)" stroke="rgb(60, 60, 60)" stroke-width="1px" opacity="0.25"></line><line x1="356.61328125" y1="0" x2="356.61328125" y2="377.828125" fill="rgb(0, 0, 0)" stroke="rgb(60, 60, 60)" stroke-width="1px" opacity="0.25"></line><line x1="475.484375" y1="0" x2="475.484375" y2="377.828125" fill="rgb(0, 0, 0)" stroke="rgb(60, 60, 60)" stroke-width="1px" opacity="0.25"></line><line x1="594.35546875" y1="0" x2="594.35546875" y2="377.828125" fill="rgb(0, 0, 0)" stroke="rgb(60, 60, 60)" stroke-width="1px" opacity="0.25"></line><line x1="713.2265625" y1="0" x2="713.2265625" y2="377.828125" fill="rgb(0, 0, 0)" stroke="rgb(60, 60, 60)" stroke-width="1px" opacity="0.25"></line><line x1="832.09765625" y1="0" x2="832.09765625" y2="377.828125" fill="rgb(0, 0, 0)" stroke="rgb(60, 60, 60)" stroke-width="1px" opacity="0.25"></line><line x1="950.96875" y1="0" x2="950.96875" y2="377.828125" fill="rgb(0, 0, 0)" stroke="rgb(60, 60, 60)" stroke-width="1px" opacity="0.25"></line></g><g><line x1="0" y1="377.828125" x2="950.96875" y2="377.828125" fill="rgb(0, 0, 0)" stroke="rgb(60, 60, 60)" stroke-width="1px" opacity="0.25"></line><line x1="0" y1="343.4801136363636" x2="950.96875" y2="343.4801136363636" fill="rgb(0, 0, 0)" stroke="rgb(60, 60, 60)" stroke-width="1px" opacity="0.25"></line><line x1="0" y1="309.13210227272725" x2="950.96875" y2="309.13210227272725" fill="rgb(0, 0, 0)" stroke="rgb(60, 60, 60)" stroke-width="1px" opacity="0.25"></line><line x1="0" y1="274.78409090909093" x2="950.96875" y2="274.78409090909093" fill="rgb(0, 0, 0)" stroke="rgb(60, 60, 60)" stroke-width="1px" opacity="0.25"></line><line x1="0" y1="240.43607954545453" x2="950.96875" y2="240.43607954545453" fill="rgb(0, 0, 0)" stroke="rgb(60, 60, 60)" stroke-width="1px" opacity="0.25"></line><line x1="0" y1="206.0880681818182" x2="950.96875" y2="206.0880681818182" fill="rgb(0, 0, 0)" stroke="rgb(60, 60, 60)" stroke-width="1px" opacity="0.25"></line><line x1="0" y1="171.74005681818184" x2="950.96875" y2="171.74005681818184" fill="rgb(0, 0, 0)" stroke="rgb(60, 60, 60)" stroke-width="1px" opacity="0.25"></line><line x1="0" y1="137.39204545454547" x2="950.96875" y2="137.39204545454547" fill="rgb(0, 0, 0)" stroke="rgb(60, 60, 60)" stroke-width="1px" opacity="0.25"></line><line x1="0" y1="103.04403409090907" x2="950.96875" y2="103.04403409090907" fill="rgb(0, 0, 0)" stroke="rgb(60, 60, 60)" stroke-width="1px" opacity="0.25"></line><line x1="0" y1="68.69602272727269" x2="950.96875" y2="68.69602272727269" fill="rgb(0, 0, 0)" stroke="rgb(60, 60, 60)" stroke-width="1px" opacity="0.25"></line><line x1="0" y1="34.34801136363643" x2="950.96875" y2="34.34801136363643" fill="rgb(0, 0, 0)" stroke="rgb(60, 60, 60)" stroke-width="1px" opacity="0.25"></line><line x1="0" y1="0" x2="950.96875" y2="0" fill="rgb(0, 0, 0)" stroke="rgb(60, 60, 60)" stroke-width="1px" opacity="0.25"></line></g></g></g><g><g><line x1="0" y1="927.3963068181819" x2="950.96875" y2="927.3963068181819" fill="rgb(0, 0, 0)" stroke="rgb(153, 153, 153)" stroke-width="1.5px"></line></g></g><g><g><line x1="118.87109375" y1="0" x2="118.87109375" y2="377.828125" fill="rgb(0, 0, 0)" stroke="rgb(153, 153, 153)" stroke-width="1.5px"></line></g></g><g><g><g><g><g><path stroke="rgb(255, 112, 67)" stroke-width="2px" d="M118.89486796874999,131.25212419371715L119.84583671875,-57.46309752169992L139.81618046875,-4.56903257787053L140.76714921874998,9.050656302467246L141.71811796875,18.604194504079715L142.66908671874998,28.238111529408513L143.62005546875,24.296311262201243L144.57102421874998,32.509547423658944L145.52199296875,28.348882350809788L146.47296171874999,33.39758397383764L147.42393046875,25.4329048459997L148.37489921875,36.42238782924409L149.32586796875,15.766821983552347L150.27683671875,24.03227827404362L151.22780546875,37.75923238653337L152.17877421875,44.86993515404657L153.12974296875,54.29065698635037L154.08071171875,22.89592777691439L155.03168046875,39.94065002906706L155.98264921875,45.17669364898188L156.93361796875,49.910539815831044L157.88458671875,49.712366846931786L158.83555546875002,55.03745510945822L159.78652421875,67.2653485430576L160.73749296875002,64.04187899978865L161.68846171875,70.45209868047033L162.63943046875002,68.85603169468277L163.59039921875,68.24869127790566L164.54136796875002,76.97993516656578L165.49233671875,85.79600837765645L166.44330546875,89.81120564666935L167.39427421874998,99.70292792825353L168.34524296875,98.01415928481833L169.29621171875,102.6634288687377L170.24718046875,106.87866652485263L171.19814921875,104.04129881275361L172.14911796875,113.54944113232858L173.10008671875,114.29678966084941L174.05105546875,123.27790702022222L175.00202421875,119.61768956049946L175.95299296874998,128.4516832825261L176.90396171875,132.2023244410187L177.85493046874998,134.96852114199095L178.80589921875,126.35672727795443L179.75686796875,135.58168569052998L180.70783671875,141.7369299822219L181.65880546875,135.67990233736884L182.60977421875,147.56831053479638L183.56074296875,147.65369060081636L184.51171171875,154.38400270051568L185.46268046875,158.08655218992604L186.41364921875,167.84483890328653L187.36461796875,171.79300430337165L188.31558671875,172.54823174697333L189.26655546875,174.45029848048466L190.21752421875001,176.5212450177908L191.16849296875,172.78962417049127L192.11946171875002,175.0356047814209L193.07043046875,177.38857010671597L194.02139921875002,187.78819107659922L194.97236796875,178.5336971076236L195.92333671875002,174.81446210608806L196.87430546874998,163.59690359810168L197.82527421875,165.55742500992946L198.77624296874998,150.3810654535417L199.72721171875,121.56728552922499L200.67818046874999,130.00651879779952L201.62914921875,136.53101835929755L202.58011796875,142.09699437385473L203.53108671875,142.3731222829225L204.48205546875,149.74358195934045L205.43302421875,155.6258773169457L206.38399296875,139.30305381406407L207.33496171875,146.96152535982063L208.28593046875,149.028093159722L209.23689921875,152.8879413144925L210.18786796875,154.75331825320032L211.13883671875,150.3501825831972L212.08980546875,156.27251598864433L213.04077421875,157.84645881597254L213.99174296875,156.58234733326873L214.94271171875,158.0420530556937L215.89368046875,161.5738644647517L216.84464921875,169.74375120024067L217.79561796875,166.60332271103212L218.74658671875,154.78402628246488L219.69755546875,160.6995272084982L220.64852421875,152.66141963037202L221.59949296875,137.20728883083828L222.55046171875,137.0122033893767L223.50143046875002,136.7635634772258L224.45239921875,145.19009073469925L225.40336796875002,149.61170094999054L226.35433671874998,140.06389673464608L227.30530546875,139.6742313553432L228.25627421874998,137.0730890608252L229.20724296875,143.51315286512832L230.15821171874998,133.99899396176193L231.10918046875,136.8553675013992L232.06014921874998,144.26335659346634L233.01111796875,142.24457281505974L233.96208671875,151.59569447107486L234.91305546875,163.19267913987662L235.86402421875,160.37791031499356L236.81499296875,162.27296399927224L237.76596171875,162.5453466165319L238.71693046875,151.5702164910885L239.66789921875,143.50674446642003L240.61886796875,134.34654263604995L241.56983671875,145.40621249731808L242.52080546875,149.38970393650968L243.47177421875,156.1135791490977L244.42274296875001,145.86328229797266L245.37371171875,148.17470887092372L246.32468046875002,152.88641387929957L247.27564921875,160.95193793457696L248.22661796875002,158.50272760505237L249.17758671875,153.55151133356563L250.12855546875002,155.39765122911652L251.07952421875,150.0446554073412L252.03049296875,154.56023699625302L252.98146171875,162.30401116949972L253.93243046875,169.23140148786604L254.88339921875001,158.96369544992743L255.83436796875,155.22373336310244L256.78533671875,164.75504536614812L257.73630546875,167.7184704012961L258.68727421875,164.9062513981736L259.63824296875003,159.31208957375824L260.58921171875,163.4591451740043L261.54018046875,159.51603645724356L262.49114921875,163.12936017493686L263.44211796875004,161.7427255355065L264.39308671875,159.21496625818742L265.34405546875,157.31034872003116L266.29502421875003,159.45014686627383L267.24599296875004,144.70392439483373L268.19696171875,152.23168685171115L269.14793046875,163.93608074224213L270.09889921875003,157.7423886461156L271.04986796875,153.0098008550857L272.00083671874995,161.8132508368301L272.95180546874997,158.24929118445903L273.90277421875,168.78552031007132L274.85374296875,177.42927518226327L275.80471171874996,181.28042458870632L276.75568046875,185.8392025741652L277.70664921875,182.31637706061196L278.65761796875,183.14423774501722L279.60858671874996,191.39134798869426L280.55955546875,197.32819234754817L281.51052421875,194.47166261630522L282.46149296875,197.2760949075425L283.41246171874997,183.11906411555657L284.36343046875,187.53373004125876L285.31439921875,190.36232551600725L286.26536796875,193.7493641371613L287.21633671875,192.43569757728486L288.16730546875,180.05140009905685L289.11827421875,182.5218703139017L290.06924296875,183.55867741785585L291.02021171875,184.31934219626453L291.97118046875,188.17167026380775L292.92214921875,189.00931593394893L293.87311796874997,179.75244555465784L294.82408671875,179.40071594305212L295.77505546875,181.18636623508831L296.72602421875,187.16474824614244L297.67699296874997,195.2254078791997L298.62796171875,201.3899632059768L299.57893046875,205.05582532739493L300.52989921875,201.7232037896269L301.48086796875,202.73372346422065L302.43183671875,208.45082638534393L303.38280546875,211.5566064207308L304.33377421875,210.83058635538043L305.28474296875,210.83172873542875L306.23571171875,216.82654491817235L307.18668046875,219.21143776555508L308.13764921875,202.46689365278914L309.08861796875,199.2215323855377L310.03958671875,205.02145450422174L310.99055546875,206.73622838543568L311.94152421875003,210.05302163848273L312.89249296875,210.9987061768255L313.84346171875,209.0313117809188L314.79443046875,211.9805928216426L315.74539921875004,216.64618802069054L316.69636796875,224.02790848753165L317.64733671875,212.6835143551593L318.59830546875,216.25817719737577L319.54927421875004,218.3211036476801L320.50024296875,197.51367993370405L321.45121171875,200.74014316385018L322.40218046875003,198.98523684097017L323.35314921875005,203.30026518789947L324.30411796875,212.46363382200752L325.25508671875,209.30425706744376L326.20605546875004,211.76527654228934L327.15702421875,211.56641524907863L328.10799296875,222.7869637552324L329.05896171875,230.21368761034057L330.00993046875,234.0429132431794L330.96089921875,244.34533491087808L331.91186796874996,223.93653498047715L332.86283671875,225.95936289050042L333.81380546875,224.7240335479131L334.76477421875,224.87122027279403L335.71574296874996,225.89352667665756L336.66671171875,230.77694572882817L337.61768046875,237.4451433865356L338.56864921874995,240.0298282623818L339.51961796874997,245.26922655925276L340.47058671875,245.76717276095638L341.42155546875,246.278159544599L342.37252421874996,251.26927038873959L343.32349296875,236.70885750714805L344.27446171875,243.40902237698492L345.22543046875,246.44468260798564L346.17639921874996,245.85190085537374L347.12736796875,237.97739269861262L348.07833671875,234.75495947630674L349.02930546875,224.42428303012335L349.98027421874997,217.57245524405766L350.93124296875,216.0958771957865L351.88221171875,220.7882563956829L352.83318046875,228.19189033601353L353.78414921875,235.6182616693944L354.71134375,214.937487305083L355.6623125,219.16631644188644L356.61328125,216.46381214677206L357.56425,212.90429691889662L358.51521875,205.50359644620903L359.4661875,209.6098339521041L360.41715625,213.38013335971925L361.368125,213.14882067488708L362.31909375,220.31383097351974L363.2700625,219.8539104050242L364.22103125,216.5463215471726L365.172,218.20737462189018L366.12296875,227.78039111812956L367.0739375,230.44182062747677L368.02490625,223.22679451823842L368.95210078125,222.8582826081383L369.90306953125,223.12650549950615L370.85403828125004,221.81139241924407L371.80500703125,221.30901328036083L372.75597578125,224.59369507284336L373.70694453125003,223.56433568437976L374.65791328125005,227.64972523677275L375.60888203125,215.4685190964048L376.55985078125,208.74662903837358L377.51081953125004,217.60028563560735L378.46178828125,213.26076557709686L379.41275703125,204.9214133383971L380.3399515625,205.0787200579491L381.29092031249996,199.5312421621427L382.2418890625,201.95246475369962L383.1928578125,207.60354206175762L384.14382656249995,211.26070182487632L385.09479531249997,210.52494091853762L386.0457640625,215.69309636476314L386.9967328125,220.6518679016365L387.94770156249996,228.77427575507164L388.8986703125,220.55158007914008L389.8496390625,223.30157692178068L390.8006078125,215.0371134722901L391.75157656249996,213.68877066771546L392.7025453125,215.90299763995918L393.6535140625,221.49861315703203L394.6044828125,218.25243334939515L395.55545156249997,218.62850733824553L396.5064203125,210.5048917453106L397.4573890625,211.24628301860548L398.4083578125,210.37784333688833L399.33555234375,208.69757095258038L400.28652109374997,210.81027908556513L401.23748984375,217.49356676591253L402.18845859375,209.78666154863961L403.115653125,215.71680421698164L404.066621875,222.84312553853164L405.017590625,221.57645224160814L405.968559375,216.03913801733233L406.919528125,205.1974844066602L407.870496875,201.55044328919155L408.82146562500003,206.19900017530807L409.772434375,209.18501326769552L410.723403125,211.01839501995306L411.674371875,209.33950848987783L412.62534062500004,215.5140270405481L413.576309375,222.28415632791643L414.527278125,215.95004490673657L415.478246875,214.40424701279835L416.429215625,213.2948058389965L417.380184375,219.99785611918995L418.331153125,225.05170844814123L419.28212187500003,226.94133490562572L420.233090625,229.87203715365322L421.184059375,233.64309477667047L422.11125390625,225.8994714024375L423.06222265625,226.9301429595186L423.96564296875005,231.6676717662642L424.91661171875,234.8264776638483L425.84380625,243.56840401014446L426.79477499999996,238.20122749768626L427.74574375,250.17626764033628L428.6491640625,248.52223384946222L429.60013281249996,251.13657478753788L430.5511015625,255.38876382598178L431.5020703125,256.6370329204244L432.4530390625,244.25400172747266L433.40400781249997,237.16535944069767L434.3549765625,236.60676116451148L435.3059453125,238.49240863035735L436.2569140625,241.20614656707937L437.2078828125,241.90551402759192L438.1588515625,243.13764504900516L439.1098203125,249.70535584742444L440.0607890625,248.11080203733144L440.98798359375,250.96821119858367L441.93895234375,246.86353566897193L442.866146875,251.19622305197993L443.79334140625,253.75890082436916L444.74431015625,254.24427508855183L445.69527890625,256.0323532600105L446.64624765625,249.02440150948163L447.59721640625,248.30067966133785L449.42783125,251.51280370908813L450.3788,251.38018506941415L451.30599453125,254.82686532640156L452.25696328125,245.59684274480415L453.20793203125004,247.3750125382743L454.1351265625,246.93244725476785L455.06232109375,244.53997319146586L455.96574140625,242.47292607149504L456.91671015624996,252.11460361959863L457.86767890625,255.85950770566168L458.81864765625,262.5446219954852L459.7458421875,262.96275325215686L460.6968109375,267.2117426827067L461.6477796875,264.3831501157469L462.5987484375,267.53589809618603L463.50216875,265.67080036680704L464.4055890625,272.12905786644905L465.3565578125,266.85122983368126L466.3075265625,263.8820650819658L467.25849531250003,261.6905451433742L468.2094640625,257.5070933621L469.1604328125,260.57327461252476L470.08762734375,267.0869339925706L470.9672734375,270.41254256882144L471.9182421875,257.8881246216811L472.86921093750004,258.121283038936L473.77263124999996,259.0055385189237L475.6270203125,263.310050698225L476.55421484375006,261.5024805648062L477.45763515625003,259.93566388774605L478.40860390625005,256.96391629474044L479.35957265625007,265.2149688263875L480.2867671875,274.03394800345245L481.21396171874994,273.41897097759136L482.16493046874996,270.546138573667L483.0445765625,272.4168761752997L483.97177109374996,272.8711421803587L484.898965625,272.5215310898685L485.82616015624995,275.6828203583131L486.72958046875,265.1641981885058L487.65677500000004,263.29678737478724L488.5601953125,252.4230991652791L489.46361562500005,253.74468541176066L490.39081015625,259.0413799289307L491.31800468750004,258.08334145031955L492.24519921875,256.23722264509206L493.14861953125,261.3044919900432L494.07581406249994,262.21007594880746L495.02678281249996,262.1505021125363L495.90642890625,265.74116922845445L496.85739765625004,274.40694060465546L497.76081796875,275.656424583907L498.68801249999996,272.4125341441062L499.61520703125,272.4897407852378L500.5424015625,261.13531037328795L501.46959609375006,265.3559035022515L502.396790625,270.08969212053006L503.32398515625005,245.28161306838922L504.22740546874996,246.11526835126412L505.1546,252.9028677646981L506.0580203125,250.6856539378159L506.961440625,255.85348452154142L507.8648609375,258.05058495395474L508.79205546875,263.00521831703225L509.67170156250006,257.89604904642374L510.6226703125,261.6023528976127L511.52609062500005,264.38022087703473L512.4770593750001,272.34313690953593L513.3804796875,275.0416713238276L514.3314484375001,278.8152600501721L515.25864296875,269.66636085607485L516.16206328125,271.97579486875657L517.0892578124999,281.08542502881744L518.01645234375,279.66247535344985L518.943646875,263.9826856908598L519.8470671875,271.06198610162403L520.7980359375,278.4568098213542L521.72523046875,286.8847858770899L522.652425,287.0961338363066L523.5558453125,286.062954407843L524.4354914062501,289.3163021193703L525.3151375,291.1422180019888L526.19478359375,293.78502125964445L527.0744296875,290.24798035454114L528.00162421875,293.3076971613645L528.8812703125001,296.5460782655739L529.784690625,299.20129605268244L530.71188515625,302.3997339061365L531.56775703125,306.17041067498656L532.51872578125,304.00261050250776L533.42214609375,305.03179900503295L534.3017921874999,297.58647167621484L535.2052125,299.40052290868596L536.08485859375,299.83076168953414L536.98827890625,300.31068653721064L537.93924765625,302.8886361846535L538.89021640625,308.3463099389849L539.7698625,311.5847659352867L540.6732828125,301.53709990418844L541.576703125,309.25546752090025L542.5038976562499,314.89581068354136L544.31073828125,306.62404162734026L545.26170703125,302.7415095174656L546.11757890625,305.3921970015204L547.06854765625,302.87008369245456L547.9719679687499,302.3355230752171L549.77880859375,303.2591039228092L550.7060031249999,308.43543458190595L551.63319765625,308.0487382376876L552.51284375,303.21474791948907L553.4162640625,299.0700018743567L554.3672328125,296.3244032276934L555.270653125,300.6367574671939L556.221621875,298.97215396897656L557.07749375,292.40011830853274L557.95713984375,297.83897742872375L558.884334375,286.1032417315292L559.7877546875,288.2308091441094L560.6436265625,290.44851525453794L561.5708210937499,281.26179224140816L562.4504671875001,281.8514314354891L563.33011328125,267.6949076319107L564.2097593750001,252.5524981382718L565.08940546875,254.17857949557973L565.99282578125,249.99043391957088L566.9200203125,246.4301289095921L567.79966640625,245.8830622343562L568.75063515625,253.6133074981289L569.65405546875,235.57211204573474L570.5337015625,233.1533028699113L572.26921953125,230.44113959012154L573.17263984375,233.30830815995876L574.0522859375001,237.29706091328424L574.97948046875,231.13846430121296L575.9304492187499,240.32336472776785L576.83386953125,244.32757153291988L577.6897414062499,244.74159763439957L578.5693875000001,240.4463509932476L579.49658203125,244.61665704589126L580.35245390625,245.5786817460151L581.2796484375,252.4124771851948L582.20684296875,253.9458214293457L583.11026328125,259.92083882953096L584.01368359375,263.7329361628968L584.8933296875,269.14341483224496L585.79675,272.3322856567016L586.74771875,272.58086332670086L587.62736484375,277.81525480310046L588.554559375,282.44494167804964L589.43420546875,280.62295449334755L590.3376257812499,284.4155671949955L591.24104609375,285.1768862992023L592.1206921875,282.7397019497922L593.0241125,288.997117838743L593.879984375,284.9563274113006L594.7596304687501,288.2353581526053L596.61401953125,289.33668578763803L597.5649882812501,289.7425271131271L599.3242804687501,291.2786294331177L600.2039265625,292.6348627854883L601.13112109375,291.6472575232318L602.058315625,289.98654313968586L603.009284375,289.7590500105365L603.9127046875,290.88341204998943L604.79235078125,287.9642985811109L605.671996875,295.64704869849874L606.52786875,297.2712996733587L607.3837406250001,274.7146323863142L609.21435546875,266.2194304883577L610.87855078125,265.9866295661677L611.758196875,245.2366520986875L612.6378429687501,251.82741935295002L614.3733609375,252.25936676617482L615.27678125,261.5845127133432L616.1802015625,257.39271806925086L617.0836218750001,243.2532324730744L618.01081640625,243.23354051098852L618.86668828125,250.05365186443657L619.6987859374999,254.9434343116775L620.53088359375,256.2984339108981L621.4343039062501,250.24750988234933L622.33772421875,252.9472833713497L623.169821875,244.42074572589658L624.00191953125,245.46859516485367L624.8577914062499,249.0502959867962L625.76121171875,257.13959659471533L626.66463203125,260.99900601324504L627.544278125,265.61802829499015L628.40015,272.363887269004L629.18469921875,273.0377068083783L630.0643453125,271.09057560343433L631.8711859375,270.096765941603L632.79838046875,275.8687966596793L633.60670390625,274.151968342257L634.36747890625,270.8580635027411L635.31844765625,264.8709880532906L636.2456421875,269.8543443689879L637.1252882812499,261.7717061009607L638.02870859375,264.61205204179146L638.9559031250001,267.43804059438384L640.7627437499999,269.95897114970563L641.6661640625,269.05908881480843L642.569584375,275.14983390018017L643.4730046875,280.82440519333954L644.3764249999999,286.0052402742056L645.232296875,281.5972455751028L646.06439453125,282.091981984236L646.9678148437499,278.5844717953198L647.7761382812499,279.4601468507068L649.4641078125,270.549905529703L650.3199796875,275.1915928173444L652.079271875,278.36032762663L652.93514375,276.9910100718404L653.7672414062499,275.37092247706386L654.62311328125,280.08445866550466L655.52653359375,268.45738701881373L656.4061796875001,271.2997248844422L657.3096,276.03276126824466L658.09414921875,281.8849228611145L658.99756953125,275.99425703463163L659.90098984375,282.33189924073747L660.7806359374999,286.17593574346904L661.6602820312501,285.9268903424101L662.56370234375,284.2135356207319L663.3720257812499,277.4636623998162L664.32299453125,253.2054712416974L665.1550921875,255.42240524495577L666.0109640625001,257.533786685957L666.89061015625,251.9800568269742L668.6736765625001,253.5839383797877L669.5770968749999,243.14676027587882L670.40919453125,250.35961177470597L671.2888406249999,258.26421447772503L673.0243585937501,256.68925280299663L674.712328125,237.050720916399L675.6157484375,241.05162053977185L676.4240718750001,246.2287153034286L677.35126640625,250.09955450350952L678.2309124999999,249.04270062915904L679.0392359374999,238.22392589008493L679.9188820312501,242.60681505247948L680.82230234375,240.25409750284211L681.6781742187501,231.57520553395761L682.5815945312501,237.6783183574247L683.5087890625,242.35339948818253L684.412209375,244.93296226459066L685.3156296875001,250.59044267347994L686.19527578125,250.67627881124844L687.05114765625,252.9990365458279L687.95456796875,241.46112551847986L688.81043984375,246.91915259618904L690.56973203125,254.18563585185825L691.47315234375,256.8286282241892L693.0184765625,251.89482047857302L693.85057421875,254.9943790611918L694.75399453125,258.1812097073004L695.60986640625,247.923422555983L696.394415625,248.82883662579658L697.27406171875,256.4890410729833L698.106159375,256.57412452728414L699.0095796875,264.6516790637726L699.9367742187501,271.2376539077917L700.8401945312501,273.78316500589654L701.6009695312499,268.4515823519573L702.480615625,260.04516802838515L703.3602617187499,261.7781778447063L704.192359375,267.6266645003378L704.9769085937501,268.4840681270001L705.88032890625,258.6154523621413L706.7124265625,255.42998239942824L707.5682984375,259.5227408554603L708.4241703125,272.1337627742628L709.30381640625,272.16738542267376L711.01556015625,270.7635377466598L711.87143203125,259.4883900898065L712.751078125,261.0166572022386L713.58317578125,266.42547571627125L714.5103703125,261.4575719546803L715.4137906249999,267.003112716688L716.24588828125,269.6908948662076L717.91008359375,273.1137738495613L718.7897296875,278.93052023025024L719.66937578125,283.55973443292754L720.62034453125,287.2860251426407L721.4762164062499,291.24275260835725L722.260765625,284.5124453644373L723.0690890625,278.94653299982485L723.85363828125,283.1922523318636L724.75705859375,266.9281538386267L725.66047890625,255.06271862461637L726.540125,247.9723849047344L727.3484484375,254.4721091015673L729.70209609375,261.14721931272794L730.51041953125,265.961558498057L731.3425171875,267.3317885148535L732.2459375,273.0230175631188L733.101809375,265.9817059468741L733.8625843750001,264.2555205429677L734.6946820312501,266.5666122320785L735.59810234375,262.9546540003659L736.35887734375,264.27096859351946L737.190975,266.15276450533304L737.92797578125,272.0513421293548L738.712525,267.51883308052436L740.40049453125,268.84427511314425L741.20881796875,268.69197371219406L741.9933671875,274.664887006717L742.73036796875,280.6045805308304L744.34701484375,286.3002752170862L745.084015625,284.2812309195133L745.8923390625,289.2027456751016L747.5565343750001,289.2834537836803L748.43618046875,295.7342766558464L749.24450390625,295.8111311979367L750.10037578125,292.4413915124393L750.90869921875,280.2869376477023L751.740796875,278.94030676415025L752.5491203125,280.7586918779187L753.35744375,279.5758955854161L754.18954140625,279.0236812066179L754.99786484375,283.5223043128915L755.80618828125,285.78512636365167L756.685834375,285.6146048367787L757.51793203125,285.0895480631808L758.30248125,287.1517599370079L759.158353125,284.00598200677246L760.014225,293.15154588607777L760.8700968750001,289.5709287047699L761.6784203125001,292.32078593545157L762.4154210937501,295.85930947433786L763.1999703125,298.755782827562L764.07961640625,297.222835921963L764.93548828125,301.4360814593386L766.575909375,302.57693926641787L767.45555546875,260.5878495006804L768.2876531249999,266.6252531854473L769.1910734375,272.0622875884758L769.97562265625,276.40638574799436L770.78394609375,282.73596905096485L771.5922695312499,280.7090678514738L772.4243671875,281.14336585767956L773.2802390625001,271.0789852576479L774.183659375,271.1898823791975L774.9919828124999,273.72566566344227L775.7527578125,278.4639750092898L777.416953125,284.3186726090983L779.0336000000001,284.8702725322858L779.81814921875,288.6614043403794L780.6026984375,295.4586424605516L781.4823445312501,300.59905606138693L782.2431195312499,306.08015232769526L783.0514429687499,303.30773411168957L783.8359921875,289.46686730498374L784.76318671875,295.30608004117244L785.57151015625,297.59894168373154L786.356059375,286.0253442184757L787.1168343749999,282.1893121659581L787.99648046875,289.5590193170881L790.46899921875,297.1597433700138L791.206,302.1880532504289L792.08564609375,303.32206354017006L792.84642109375,302.49053900918955L793.7260671875,303.8806127570077L795.3427140625,300.7271104330843L796.07971484375,304.7881296222017L796.9118125,297.703888345338L797.64881328125,301.09801840971306L798.5046851562499,305.7137109008996L799.2416859375,309.0724701226086L800.0500093750001,308.5584239247364L800.90588125,299.25566889875654L801.66665625,303.7224954702592L802.522528125,309.31302391910845L803.283303125,290.0138740993511L804.06785234375,279.48805862255506L804.87617578125,281.067460618992L805.5894023437501,284.7098048771198L806.4214999999999,281.1749638862966L807.25359765625,283.14205694540544L808.0619210937499,284.19317308987354L808.91779296875,286.75845577113057L809.67856796875,284.06390827468647L810.58198828125,286.7693033128955L811.34276328125,291.9746851893169L812.1273125,292.5450303476506L812.9356359375,298.8192275574758L813.6964109375,297.5836426061637L814.52850859375,300.67525877290717L815.33683203125,303.38755629088126L817.0248015625,308.26228428184027L817.833125,303.7208746433075L819.4259976562499,307.416423211754L821.0188703125,303.47540418340975L821.82719375,303.2726144996516L822.6830656249999,307.7487541410689L823.46761484375,309.16860526577284L824.2521640625,306.08954541738973L825.17935859375,310.24572102272487L825.9639078125,310.48235766416235L826.77223125,310.959798123953L828.8168140625,305.66140979894186L830.31458984375,309.1946362886842L831.1704617187501,306.3616728626762L831.9550109375,311.62491220174155L832.83465703125,314.43246835626746L833.6667546875001,313.94665707640263L834.5701750000001,317.1630893809759L835.426046875,324.11754671943163L836.2343703125,323.0709957450709L837.7796945312499,319.4488868752L838.4929210937499,322.85221540255077L839.32501875,323.41461369132594L840.8941171875,324.9208421669171L841.7499890625,326.18049554747233L842.6058609375,324.42177478138575L843.24776484375,323.0563488714864L844.0323140625,327.7808326131977L844.7930890625,329.51283118350403L845.53008984375,332.8812386997314L846.1719937500001,334.4997143407829L847.6459953125,339.7348913359916L848.4067703125,341.0606582388294L849.1437710937499,341.3357506002311L850.8317406250001,340.15994832568424L851.6400640625,330.03273817980516L852.4008390624999,329.7694163131065L853.18538828125,336.40659321478836L853.99371171875,332.35699207734797L855.586584375,326.50543324400314L856.3711335937501,317.64028979339014L857.1556828125,321.9444797920704L858.059103125,329.7901950338273L858.8198781250001,314.95359607764084L859.580653125,317.19703953475823L861.958075,310.03112269607766L862.7426242187499,297.74071403730295L863.55094765625,302.2792634934751" style="fill: none;" fill="none"></path></g></g></g></g><g opacity="0.20000000298023224"><g><g><g><path stroke="rgb(255, 112, 67)" stroke-width="2px" d="M118.89486796874999,131.25212419371715L119.84583671875,-237.87484948163785L120.79680546875,-136.09010055302303L121.74777421875,59.07436692675532L122.69874296875,-32.08311033596823L125.55164921875,-641.2417330603349L126.50261796875,197.55133849678535L127.45358671875,165.91468979510353L128.40455546875,-468.66595341236234L129.35552421875002,29.46977444598059L130.30649296875,161.46965740593907L131.25746171875002,283.0247563955551L132.20843046875,198.16752811900503L133.15939921875,84.44560474793252L134.11036796875,-80.66992195925292L135.06133671875,172.43636318316172L136.01230546875001,34.55883695213896L136.96327421874997,-168.4429547297848L137.91424296875,102.133965635999L138.86521171874998,157.65750893927182L139.81618046875,7.451991697318306L140.76714921874998,199.84485545048204L141.71811796875,155.68143360552298L142.66908671874998,169.59653275032315L143.62005546875,-34.76519462606467L144.57102421874998,158.00873902325444L145.52199296875,-36.40683414197832L146.47296171874999,113.34368844301008L147.42393046875,-102.75258255749674L148.37489921875,216.0135851668787L149.32586796875,-326.6827289376366L150.27683671875,162.93795610340223L151.22780546875,271.4211180781032L152.17877421875,167.38128907277795L153.12974296875,218.46619780256154L154.08071171875,-530.1622575119335L155.03168046875,343.288281387207L155.98264921875,139.2688371494435L156.93361796875,135.76073487615415L157.88458671875,46.0871010036671L158.83555546875002,153.25621161819967L159.78652421875,294.569314883881L160.73749296875002,3.675780960889199L161.68846171875,191.3428581792032L162.63943046875002,38.55427284131423L163.59039921875,56.644896389960195L164.54136796875002,244.80540514222562L165.49233671875,256.2241066003156L166.44330546875,167.8543275692646L167.39427421874998,292.96451279103485L168.34524296875,64.8567927067158L169.29621171875,194.37562274099767L170.24718046875,190.40023000874237L171.19814921875,47.582290520140134L172.14911796875,303.5111619828313L173.10008671875,129.2854456517413L174.05105546875,304.061724011445L175.00202421875,45.68263909394926L175.95299296874998,307.48890391302984L176.90396171875,208.4570151104186L177.85493046874998,191.37829608009173L178.80589921875,-49.765373305969206L179.75686796875,324.7617066798167L180.70783671875,268.2954352402131L181.65880546875,10.830038373834839L182.60977421875,393.2000906334169L183.56074296875,149.42177076253907L184.51171171875,294.059388981392L185.46268046875,235.08492388242703L186.41364921875,371.1784092158275L187.36461796875,254.215642324711L188.31558671875,188.3427824568743L189.26655546875,214.29752106080562L190.21752421875001,219.97728189235272L191.16849296875,94.36446827659796L192.11946171875002,222.30823606433646L193.07043046875,226.98333990313407L194.02139921875002,407.28413209839084L194.97236796875,-17.045944284191307L195.92333671875002,96.11691995932387L196.87430546874998,-74.04238471494386L197.82527421875,207.13706576392462L198.77624296874998,-171.8325974472126L199.72721171875,-490.8151912799766L200.67818046874999,309.54255276184074L201.62914921875,275.4631880455987L202.58011796875,260.7245700643537L203.53108671875,148.26326629597452L204.48205546875,307.09288911932066L205.43302421875,281.3028942690263L206.38399296875,-209.69896921383577L207.33496171875,310.8256646852672L208.28593046875,193.27539837659955L209.23689921875,235.58490318085853L210.18786796875,194.7436970740627L211.13883671875,55.898751136837575L212.08980546875,283.3841836808715L213.04077421875,191.64645452616642L213.99174296875,129.4218490812544L214.94271171875,189.42056448347418L215.89368046875,237.5311886853696L216.84464921875,345.5297161226726L217.79561796875,99.00368436809237L218.74658671875,-99.73841164750843L219.69755546875,288.1369610006011L220.64852421875,-20.568441642749974L221.59949296875,-195.9656580034948L222.55046171875,132.80494403420218L223.50143046875002,131.399573851857L224.45239921875,327.03538040833325L225.40336796875002,245.05911852009612L226.35433671874998,-66.09959652002726L227.30530546875,131.25797219710776L228.25627421874998,80.87712308920828L229.20724296875,282.6813236494266L230.15821171874998,-71.64880192545189L231.10918046875,198.60977712755468L232.06014921874998,304.45808868569895L233.01111796875,98.58007899428384L233.96208671875,353.89251092008044L234.91305546875,414.12309715759204L235.86402421875,99.46207786463492L236.81499296875,203.29192856018201L237.76596171875,168.4421268844255L238.71693046875,-86.06697931065122L241.56983671875,384.9785476102136L242.52080546875,235.69076703710945L243.47177421875,301.80269528287255L244.42274296875001,-76.2613271296762L245.37371171875,198.269293374589L246.32468046875002,255.0125702397557L247.27564921875,335.7906412110679L248.22661796875002,105.40509881463038L249.17758671875,46.2012620271218L250.12855546875002,195.42861323185608L251.07952421875,33.96214067455469L252.03049296875,252.49128105143416L252.98146171875,330.2596295939697L253.93243046875,319.4920058467033L254.88339921875001,-63.76749274053941L255.83436796875,74.08924058953897L256.78533671875,371.54068552843694L257.73630546875,232.0153218975651L258.68727421875,103.88631735285497L259.63824296875003,37.92198871403656L260.58921171875,253.45295272011577L261.54018046875,73.94339038531791L262.49114921875,241.54911689527816L263.44211796875004,131.64718931166203L264.39308671875,104.34985909169865L265.34405546875,115.96869222137917L266.29502421875003,205.89863858435476L267.24599296875004,-175.40477784312418L268.19696171875,315.6496177043836L269.14793046875,418.0328123133064L270.09889921875003,23.275489281927833L271.04986796875,50.2603761754396L272.00083671874995,352.9516321523433L272.95180546874997,80.8670265363458L273.90277421875,397.5596522037952L274.85374296875,365.11732857345027L275.80471171874996,264.9054926251755L276.75568046875,284.8325391872846L277.70664921875,105.81670828404793L278.65761796875,201.12201940464797L279.60858671874996,370.48929449149733L280.55955546875,326.2581957525988L281.51052421875,132.43532023015328L282.46149296875,258.1822380604129L283.41246171874997,-124.34660998354565L284.36343046875,283.4142234247841L285.31439921875,251.79661822132306L286.26536796875,267.3137204146115L287.21633671875,163.90322654340116L288.16730546875,-88.93619970924783L289.11827421875,236.18139952670293L290.06924296875,206.07882706489514L291.02021171875,200.84171510537738L291.97118046875,271.84902198431854L292.92214921875,207.20424282851442L293.87311796874997,-21.323083994816216L294.82408671875,171.76044395366162L295.77505546875,219.97468277973468L296.72602421875,317.02989645337755L297.67699296874997,370.3244507719905L298.62796171875,335.30180810713307L299.57893046875,284.6895879932914L300.52989921875,129.32783118058964L301.48086796875,224.68567436583547L302.43183671875,332.6468645507214L303.38280546875,279.02582170093234L304.33377421875,195.0585895643275L305.28474296875,210.8565458691711L306.23571171875,347.0591439495951L307.18668046875,271.0216544618816L308.13764921875,-161.29939366492113L309.08861796875,128.71738959589064L310.03958671875,331.02306894258936L310.99055546875,243.98938374602523L311.94152421875003,282.1101186686733L312.89249296875,231.54373290619236L313.84346171875,166.28941185851863L314.79443046875,276.05438620033704L315.74539921875004,318.00771261005207L316.69636796875,384.3987455646467L317.64733671875,-33.77893135338144L318.59830546875,293.9197366611063L319.54927421875004,263.13949556707473L320.50024296875,-254.54235890602683L321.45121171875,270.8375673124141L322.40218046875003,160.85841609428067L323.35314921875005,297.0481685604193L324.30411796875,411.5466767920067L325.25508671875,140.66356096664163L326.20605546875004,265.2335806102704L327.15702421875,207.2459285962733L328.10799296875,466.56664202553065L329.05896171875,391.5683977215608L330.00993046875,317.2377254969523L330.96089921875,468.17904152449114L331.91186796874996,-219.4724323846948L332.86283671875,269.9081346367834L333.81380546875,197.8847246729863L334.76477421875,228.069069216393L335.71574296874996,248.10467871324101L336.66671171875,336.8767703878065L337.61768046875,382.32225451455787L338.56864921874995,296.1862628299231L339.51961796874997,359.10373171928757L340.47058671875,256.58588308357537L341.42155546875,257.38021188600203L342.37252421874996,359.7097248227749L343.32349296875,-79.64147308946121L344.27446171875,388.98193078604794L345.22543046875,312.3998272389813L346.17639921874996,232.97264505090493L347.12736796875,66.88929877403746L348.07833671875,164.74164029446482L349.02930546875,-0.028954178543301623L349.98027421874997,68.70357934731214L350.93124296875,184.0144102379127L351.88221171875,322.7391971994876L352.83318046875,389.050157492272L354.71134375,-234.39293826626886L355.6623125,311.0459894625826L356.61328125,157.74652854644032L357.56425,135.56670112262907L358.51521875,44.70847169152694L359.4661875,298.8261615229111L360.41715625,295.29756624628703L361.368125,208.12307912193305L362.31909375,375.98841699608937L363.2700625,209.86118570232466L364.22103125,144.68208897176973L365.172,254.29721447457007L366.12296875,435.77420509536825L367.0739375,288.266966614439L368.02490625,66.46514358794428L368.95210078125,214.8515818948667L369.90306953125,228.9542170116468L370.85403828125004,193.23776122657267L371.80500703125,210.3937538743518L372.75597578125,295.96043992976183L373.70694453125003,201.19929302210025L374.65791328125005,316.41360686528793L375.60888203125,-49.19446822282572L376.55985078125,62.699029404377654L377.51081953125004,409.9651667468531L378.46178828125,118.97526572525322L379.41275703125,23.73083381943769L380.3399515625,208.49655161197407L381.29092031249996,79.00016391549042L382.2418890625,254.55882515616466L383.1928578125,330.38558659007555L384.14382656249995,290.72052892588613L385.09479531249997,194.5389169895207L386.0457640625,327.9826569917456L386.9967328125,328.3921171949597L387.94770156249996,405.25152606519924L388.8986703125,41.895332145958434L389.8496390625,283.0513473169552L390.8006078125,35.47332473021578L391.75157656249996,184.39303097025484L392.7025453125,264.01199767978295L393.6535140625,343.07580393068076L394.6044828125,147.72195111032886L395.55545156249997,226.79955265127634L396.5064203125,34.001227329695496L397.4573890625,227.35466312697167L398.4083578125,191.50905143795407L399.33555234375,172.18989733086084L400.28652109374997,256.713589482405L401.23748984375,362.7029528830139L402.18845859375,42.336881393418594L403.115653125,344.5624463652752L404.066621875,377.6784399930469L405.017590625,194.0551321620171L405.968559375,95.72855255466396L406.919528125,-30.3617980217241L407.870496875,122.31027709476689L408.82146562500003,307.19935277079117L409.772434375,274.06286613968473L410.723403125,250.85274047748817L411.674371875,172.86191789143382L412.62534062500004,349.6693527792152L413.576309375,369.38047306228566L414.527278125,78.32719367915314L415.478246875,180.81830144466025L416.429215625,189.18969330688165L417.380184375,365.6367512335823L418.331153125,334.85805961053455L419.28212187500003,267.99773687957554L420.233090625,293.5481635225939L421.184059375,315.57784220977726L422.11125390625,57.65175263184807L423.06222265625,249.3238124799153L423.96564296875005,334.6011973077614L424.91661171875,303.4586799011205L425.84380625,433.5065293190472L426.79477499999996,121.58717397466205L427.74574375,510.3611148360628L428.6491640625,212.5846058796352L429.60013281249996,307.93905022530356L430.5511015625,347.7771987932687L431.5020703125,283.7585058808069L432.4530390625,-24.795398486672354L433.40400781249997,83.14854758565144L434.3549765625,224.46994801853663L435.3059453125,279.4623726548962L436.2569140625,300.1682533095935L437.2078828125,257.1008572624957L438.1588515625,269.90848451732813L439.1098203125,392.4037625135918L440.0607890625,213.46550512541714L440.98798359375,313.0519046085042L441.93895234375,157.6801512088099L442.866146875,345.33368305174906L443.79334140625,309.43888815472815L444.74431015625,264.7901320112817L445.69527890625,294.88240798848716L446.64624765625,96.76075014457791L447.59721640625,232.57618041078112L449.42783125,321.3034873756201L450.3788,248.49874417248665L451.30599453125,329.7138159441774L452.25696328125,45.05365384037913L453.20793203125004,286.00978725446015L454.1351265625,237.31671191144483L455.06232109375,192.55804329401545L455.96574140625,197.56163498138764L456.91671015624996,461.6019370615594L457.86767890625,337.2260511373256L458.81864765625,407.79390805207504L459.7458421875,272.0476041849252L460.6968109375,359.5306859497386L461.6477796875,202.9255536469057L462.5987484375,336.03650726814925L463.50216875,225.14731675315062L464.4055890625,412.44936859743234L465.3565578125,152.17842959159978L466.3075265625,199.37021750007662L467.25849531250003,214.074797102612L468.2094640625,166.61210168663754L469.1604328125,327.1930265852055L470.08762734375,408.6109790899097L470.9672734375,342.6689428400847L471.9182421875,-14.233304567972425L472.86921093750004,263.1871792870291L473.77263124999996,278.2179975060658L475.6270203125,356.8353561818771L476.55421484375006,222.22891314655072L477.45763515625003,225.89301215985856L478.40860390625005,192.39594863593152L479.35957265625007,444.48783011327896L480.2867671875,465.64630624406317L481.21396171874994,260.05719791673226L482.16493046874996,208.12732767140488L483.0445765625,313.06290085419596L483.97177109374996,282.7411032396419L484.898965625,264.92543581622556L485.82616015624995,344.36901240696966L486.72958046875,36.6232321319668L487.65677500000004,222.72304444159158L488.5601953125,16.167516066757628L489.46361562500005,282.45914950351755L490.39081015625,374.12410350491706L491.31800468750004,237.26777861811638L492.24519921875,216.12609675347963L493.14861953125,371.4024327303302L494.07581406249994,281.8859452053658L495.02678281249996,260.85612514917545L495.90642890625,343.75657150487217L496.85739765625004,462.6905154021112L497.76081796875,302.8043033165893L498.68801249999996,201.93164298517317L499.61520703125,274.16723050788676L500.5424015625,14.434507745732219L501.46959609375006,357.05788020833086L502.396790625,372.9420070930501L503.32398515625005,-293.73027947306275L504.22740546874996,264.2283238223014L505.1546,400.37888966742923L506.0580203125,202.5116449624799L506.961440625,368.13634782813L507.8648609375,305.78758477277074L508.79205546875,370.6558876137279L509.67170156250006,146.88773592580205L510.6226703125,342.1302267670571L511.52609062500005,324.7357155536361L512.4770593750001,445.35558384716575L513.3804796875,333.6734640519195L514.3314484375001,360.80505085954667L515.25864296875,70.88573432191203L516.16206328125,322.1534971675951L517.0892578124999,479.0128426776481L518.01645234375,248.7456598712022L518.943646875,-76.69637859559128L521.72523046875,470.0017192308396L522.652425,291.68814856382835L523.5558453125,263.61478329563465L524.4354914062501,360.00267480459104L525.3151375,330.8143901891203L526.19478359375,351.20592816583735L527.0744296875,213.39772826560778L528.00162421875,359.78699844022714L528.8812703125001,366.9072674573982L529.784690625,356.89193686425483L530.71188515625,371.8930652199237L531.56775703125,388.09693293959907L532.51872578125,256.9022250789541L533.42214609375,327.3932582226659L534.3017921874999,135.81981470528L535.2052125,338.8149086739187L536.08485859375,309.17867699531257L536.98827890625,310.7381445661476L537.93924765625,358.90045112279444L538.89021640625,426.92667579469247L539.7698625,381.94758243407773L540.6732828125,83.22872021333154L541.576703125,476.9545454158857L542.5038976562499,437.44508462823507L544.31073828125,126.9010597222825L545.26170703125,218.38467563563742L546.11757890625,362.98440678978864L547.06854765625,248.07144006149085L547.9719679687499,290.7209787723008L549.77880859375,323.3259968559492L550.7060031249999,420.9029823876673L551.63319765625,299.646881314998L552.51284375,198.18532204385176L553.4162640625,209.01597427210604L554.3672328125,236.67003269889793L555.270653125,394.332454024996L556.221621875,262.80485981749973L557.07749375,149.60770728060018L557.95713984375,416.01055274765207L558.884334375,31.117711811699508L559.7877546875,334.4570465233291L560.6436265625,338.63322070532945L561.5708210937499,81.65935602137392L562.4504671875001,294.66268300639126L563.33011328125,-39.887745698648075L564.2097593750001,-76.45076245318472L565.08940546875,289.50889259945626L565.99282578125,158.99345282495383L566.9200203125,169.07441101170318L567.79966640625,233.99679538828988L568.75063515625,421.5704545011587L569.65405546875,-156.41386166993072L570.5337015625,180.59917625778394L572.26921953125,171.51322835733632L573.17263984375,295.60406160347804L574.0522859375001,323.9617797886743L574.97948046875,97.32895614923342L575.9304492187499,439.8862011888765L576.83386953125,331.3280648117315L577.6897414062499,253.73725565418337L578.5693875000001,147.12235582251677L579.49658203125,335.2260339777297L580.35245390625,266.48085476932863L581.2796484375,400.89221440949575L582.20684296875,287.2612099971203L583.11026328125,389.74167139748045L584.01368359375,346.55941456583844L584.8933296875,386.69836043640885L585.79675,341.6177517348849L586.74771875,277.98177815543227L587.62736484375,391.5443059469088L588.554559375,383.03541103060513L589.43420546875,241.03614203375636L590.3376257812499,366.81869769664434L591.24104609375,301.71827410572064L592.1206921875,229.78633291290518L593.0241125,424.95369940291135L593.879984375,197.16097177472696L594.7596304687501,359.47975333901167L596.61401953125,313.2655316725346L597.5649882812501,298.56035227477963L599.3242804687501,324.6539434720372L600.2039265625,322.10211471045346L601.13112109375,270.1892886459484L602.058315625,253.90374881054402L603.009284375,284.81624475048676L603.9127046875,315.3127327227353L604.79235078125,224.53992412748434L605.671996875,462.57225577798954L606.52786875,332.56184357834985L607.3837406250001,-215.3802295334317L609.21435546875,81.641861994137L610.87855078125,260.92850043900137L611.758196875,-205.60376738647494L612.6378429687501,395.0268169574973L614.3733609375,261.6444060164716L615.27678125,464.1945019151377L616.1802015625,166.31645262633342L617.0836218750001,-63.959227279056165L618.01081640625,242.80568788023945L618.86668828125,398.23607126264494L619.6987859374999,361.18507111406774L620.53088359375,285.73887974696254L621.4343039062501,118.77743326867102L622.33772421875,311.6059982659043L623.169821875,59.1623368922896L624.00191953125,268.2355057011929L624.8577914062499,326.8708865693711L625.76121171875,432.8980370688118L626.66463203125,344.8534470126278L627.544278125,365.97678514013325L628.40015,418.9330049719839L629.18469921875,287.677967708839L630.0643453125,228.7847248791884L631.8711859375,248.5039923806577L632.79838046875,401.2792822578466L633.60670390625,236.8499712647635L634.36747890625,199.29049471881117L635.31844765625,134.78816692765065L636.2456421875,378.1290861346703L637.1252882812499,86.15802009975334L638.02870859375,326.3250229366439L638.9559031250001,328.83906459939584L640.7627437499999,324.73191685057895L641.6661640625,249.5070999024234L642.569584375,407.48511347987574L644.3764249999999,398.570657029285L645.232296875,185.8235425688862L646.06439453125,292.8412548734169L646.9678148437499,202.37584132818634L647.7761382812499,298.48617759929505L649.4641078125,76.95466228507843L650.3199796875,376.04279842932874L652.079271875,347.20829302752367L652.93514375,247.23947410903733L653.7672414062499,240.17083746368274L654.62311328125,382.49674494051254L655.52653359375,15.832830334247603L656.4061796875001,333.05597487339077L657.3096,378.8687336062477L658.09414921875,409.03643383231184L658.99756953125,148.00615407852658L659.90098984375,420.03157989952825L660.7806359374999,369.69636521124966L661.6602820312501,280.5158129921693L662.56370234375,246.98701030454092L663.3720257812499,130.80732605548442L664.32299453125,-273.85886391756696L665.1550921875,303.59033495181217L666.0109640625001,303.4083470856131L666.89061015625,131.31265352795694L668.6736765625001,288.4319102998158L669.5770968749999,16.375345110332375L670.40919453125,407.0752034302469L671.2888406249999,430.00967320612443L673.0243585937501,222.4696309613309L674.712328125,-189.64101734505937L675.6157484375,327.9802578108674L676.4240718750001,358.71286516787956L677.35126640625,334.2023334867594L678.2309124999999,226.08014826835878L679.0392359374999,3.1614565601233835L679.9188820312501,337.83504321691066L680.82230234375,189.1359616517968L681.6781742187501,43.006552756048336L682.5815945312501,370.2823151578169L683.5087890625,343.93016223799754L684.412209375,300.97982622458227L685.3156296875001,373.51206246629926L686.19527578125,252.5412639863968L687.05114765625,303.4662273242999L687.95456796875,-9.226214075152768L688.81043984375,365.50719546615903L690.56973203125,412.06649931561833L691.47315234375,314.25364431381144L693.0184765625,144.69663400584383L693.85057421875,322.3393337197863L694.75399453125,327.42234829081417L695.60986640625,25.04968354136247L696.394415625,268.50101505171455L697.27406171875,422.9243922434273L698.106159375,258.42275594345324L699.0095796875,440.15490944723575L699.9367742187501,414.3329255185653L700.8401945312501,329.0901788646483L701.6009695312499,152.6108319619618L702.480615625,77.39671136188821L703.3602617187499,299.4317547629187L704.192359375,394.6983291089227L704.9769085937501,287.11311056082593L705.88032890625,44.19734619859878L706.7124265625,186.21840775509125L707.5682984375,348.4472200364432L708.4241703125,546.1368753734702L709.30381640625,272.89791387451L711.01556015625,240.26175642237982L711.87143203125,14.510181909265668L712.751078125,294.22173355415066L713.58317578125,383.94435070290115L714.5103703125,153.5185720438187L715.4137906249999,387.4925892729655L716.24588828125,328.0890706602811L717.91008359375,347.48359903329805L718.7897296875,405.31255522878865L719.66937578125,384.13993392741L720.62034453125,368.2481596536415L721.4762164062499,377.2116493634306L722.260765625,138.28122433751628L723.0690890625,158.01443707784017L723.85363828125,375.4401541824839L724.75705859375,-86.44634978701782L725.66047890625,-2.740828297877499L726.540125,93.91877044553593L727.3484484375,395.6933893781594L729.70209609375,406.1791593551713L730.51041953125,370.5640189792665L731.3425171875,297.1031497888782L732.2459375,396.6779032481189L733.101809375,112.99320810305193L733.8625843750001,226.7502194944682L734.6946820312501,316.780331659109L735.59810234375,184.4766524204474L736.35887734375,292.87089475384977L737.190975,307.0390574983659L737.92797578125,400.21134686943435L738.712525,169.03977283777405L740.40049453125,297.6425156400603L741.20881796875,265.38287963700384L741.9933671875,404.44000313314547L744.34701484375,410.0521870366231L745.084015625,240.4129048177069L745.8923390625,396.1338390010503L747.5565343750001,291.03702087006974L748.43618046875,435.8930645147094L749.24450390625,297.480970794261L750.10037578125,219.22613834573386L750.90869921875,16.20380367754052L751.740796875,249.68169029424794L752.5491203125,320.2672411679742L753.35744375,253.87695795740402L754.18954140625,267.02556879455176L754.99786484375,381.2651154400976L755.80618828125,334.95007819380083L756.685834375,281.9096371165381L757.51793203125,273.68149634591964L758.30248125,331.957999741066L759.158353125,215.65680697711522L760.014225,491.85970653642624L760.8700968750001,211.77388267454083L761.6784203125001,352.0676839475286L762.4154210937501,372.7417754555897L763.1999703125,361.68824932033687L764.07961640625,263.9160804275896L764.93548828125,392.97841631685753L766.575909375,327.36466798386726L767.45555546875,-651.7205554093871L769.1910734375,390.19421689063233L769.97562265625,370.7917912138914L770.78394609375,420.26055172459223L771.5922695312499,236.67003269889793L772.4243671875,290.5794770834215L773.2802390625001,52.40744312969565L774.183659375,273.59937438377597L774.9919828124999,328.82132065748414L775.7527578125,381.41451443270097L777.416953125,411.5252840958426L779.0336000000001,296.85503449972356L779.81814921875,371.03235907986664L780.6026984375,443.14408888974276L782.2431195312499,425.1694257502102L783.0514429687499,243.07064741847654L783.8359921875,-11.257420586165438L784.76318671875,422.17624767290613L785.57151015625,347.4165719175131L786.356059375,34.56263565519606L787.1168343749999,198.8427975703506L787.99648046875,449.68265650981834L791.206,411.4395133794467L792.08564609375,327.96101438090676L792.84642109375,284.42377874515995L793.7260671875,334.0831241868734L795.3427140625,232.21010539511457L796.07971484375,393.0230010948442L796.9118125,143.7826460571166L797.64881328125,374.84320799022487L798.5046851562499,406.00012048213506L799.2416859375,382.0491477579219L800.0500093750001,297.38960198914924L800.90588125,97.13217333428543L801.66665625,400.7744546147237L803.283303125,-129.30401743901234L804.06785234375,50.790795081263354L804.87617578125,315.3835585415774L805.5894023437501,363.8480119400735L806.4214999999999,204.3725096311398L807.25359765625,325.8816243205901L808.0619210937499,307.0310602287719L808.91779296875,342.4950522093496L809.67856796875,225.51873994285816L810.58198828125,345.55015914307234L811.34276328125,405.0734368679273L812.1273125,304.9370751514461L812.9356359375,435.14042148004165L813.6964109375,270.73775139129367L814.52850859375,367.84764639578566L815.33683203125,362.31838418141115L817.0248015625,414.1768288126769L817.833125,205.04842886063986L819.4259976562499,387.7106148352727L821.0188703125,217.8478089312035L821.82719375,298.8665477343609L822.6830656249999,405.00306089549986L823.46761484375,340.0180978843399L824.2521640625,239.18997234797547L825.17935859375,400.54808190227783L825.9639078125,315.6238265099429L826.77223125,321.33327720485784L828.8168140625,190.54188164642656L830.31458984375,385.9620118385389L831.1704617187501,244.80910387941287L831.9550109375,425.9807487505241L832.83465703125,375.43300662278426L833.6667546875001,303.39130290479085L834.5701750000001,387.0473912712531L835.426046875,475.2189379822422L836.2343703125,300.332297302141L837.7796945312499,240.75033961163984L838.4929210937499,396.79726249680976L839.32501875,335.63399469289493L840.8941171875,357.6470790456707L841.7499890625,353.5493280886268L842.6058609375,286.20956904550593L843.24776484375,293.38936773821746L844.0323140625,430.4309793649247L844.7930890625,367.14443648379597L845.53008984375,406.06754746139967L846.1719937500001,369.6647759963532L847.6459953125,453.48100968643587L848.4067703125,369.865957309578L849.1437710937499,347.31275736159563L850.8317406250001,314.61297163325804L851.6400640625,109.99608137388583L852.4008390624999,324.04815030028976L853.18538828125,480.61434589678674L853.99371171875,244.37020372750575L855.586584375,199.367018592239L856.3711335937501,125.024900275524L857.1556828125,415.46278976339624L858.8198781250001,-7.405235788593075L859.580653125,365.940947375765L861.958075,154.33529320110858L862.7426242187499,30.703653178468812L863.55094765625,400.88956531394274" style="fill: none;" fill="none"></path></g></g></g></g></g></g><g transform="translate(78, 377)" clip-path="url(#clip_1)"><clipPath id="clip_1"><rect width="950" height="22"></rect></clipPath><g><g><line x1="0" y1="0" x2="0" y2="5" style="visibility: inherit;" fill="rgb(0, 0, 0)" stroke="rgb(204, 204, 204)" stroke-width="1px"></line><line x1="118.87109375" y1="0" x2="118.87109375" y2="5" style="visibility: inherit;" fill="rgb(0, 0, 0)" stroke="rgb(204, 204, 204)" stroke-width="1px"></line><line x1="237.7421875" y1="0" x2="237.7421875" y2="5" style="visibility: inherit;" fill="rgb(0, 0, 0)" stroke="rgb(204, 204, 204)" stroke-width="1px"></line><line x1="356.61328125" y1="0" x2="356.61328125" y2="5" style="visibility: inherit;" fill="rgb(0, 0, 0)" stroke="rgb(204, 204, 204)" stroke-width="1px"></line><line x1="475.484375" y1="0" x2="475.484375" y2="5" style="visibility: inherit;" fill="rgb(0, 0, 0)" stroke="rgb(204, 204, 204)" stroke-width="1px"></line><line x1="594.35546875" y1="0" x2="594.35546875" y2="5" style="visibility: inherit;" fill="rgb(0, 0, 0)" stroke="rgb(204, 204, 204)" stroke-width="1px"></line><line x1="713.2265625" y1="0" x2="713.2265625" y2="5" style="visibility: inherit;" fill="rgb(0, 0, 0)" stroke="rgb(204, 204, 204)" stroke-width="1px"></line><line x1="832.09765625" y1="0" x2="832.09765625" y2="5" style="visibility: inherit;" fill="rgb(0, 0, 0)" stroke="rgb(204, 204, 204)" stroke-width="1px"></line><line x1="950.96875" y1="0" x2="950.96875" y2="5" style="visibility: inherit;" fill="rgb(0, 0, 0)" stroke="rgb(204, 204, 204)" stroke-width="1px"></line></g><g transform="translate(0, 8)"><text x="0" y="0" dx="0em" dy="0.95em" style="text-anchor: middle; visibility: hidden; font-family: &quot;Helvetica Neue&quot;, sans-serif; font-size: 12px; font-weight: 200;" fill="rgb(50, 49, 63)" stroke="none" stroke-width="1px">-5k</text><text x="118.87109375" y="0" dx="0em" dy="0.95em" style="text-anchor: middle; visibility: inherit; font-family: &quot;Helvetica Neue&quot;, sans-serif; font-size: 12px; font-weight: 200;" fill="rgb(50, 49, 63)" stroke="none" stroke-width="1px">0</text><text x="237.7421875" y="0" dx="0em" dy="0.95em" style="text-anchor: middle; visibility: inherit; font-family: &quot;Helvetica Neue&quot;, sans-serif; font-size: 12px; font-weight: 200;" fill="rgb(50, 49, 63)" stroke="none" stroke-width="1px">5k</text><text x="356.61328125" y="0" dx="0em" dy="0.95em" style="text-anchor: middle; visibility: inherit; font-family: &quot;Helvetica Neue&quot;, sans-serif; font-size: 12px; font-weight: 200;" fill="rgb(50, 49, 63)" stroke="none" stroke-width="1px">10k</text><text x="475.484375" y="0" dx="0em" dy="0.95em" style="text-anchor: middle; visibility: inherit; font-family: &quot;Helvetica Neue&quot;, sans-serif; font-size: 12px; font-weight: 200;" fill="rgb(50, 49, 63)" stroke="none" stroke-width="1px">15k</text><text x="594.35546875" y="0" dx="0em" dy="0.95em" style="text-anchor: middle; visibility: inherit; font-family: &quot;Helvetica Neue&quot;, sans-serif; font-size: 12px; font-weight: 200;" fill="rgb(50, 49, 63)" stroke="none" stroke-width="1px">20k</text><text x="713.2265625" y="0" dx="0em" dy="0.95em" style="text-anchor: middle; visibility: inherit; font-family: &quot;Helvetica Neue&quot;, sans-serif; font-size: 12px; font-weight: 200;" fill="rgb(50, 49, 63)" stroke="none" stroke-width="1px">25k</text><text x="832.09765625" y="0" dx="0em" dy="0.95em" style="text-anchor: middle; visibility: inherit; font-family: &quot;Helvetica Neue&quot;, sans-serif; font-size: 12px; font-weight: 200;" fill="rgb(50, 49, 63)" stroke="none" stroke-width="1px">30k</text><text x="950.96875" y="0" dx="0em" dy="0.95em" style="text-anchor: middle; visibility: hidden; font-family: &quot;Helvetica Neue&quot;, sans-serif; font-size: 12px; font-weight: 200;" fill="rgb(50, 49, 63)" stroke="none" stroke-width="1px">35k</text></g><line x1="0" y1="0" x2="950.96875" y2="0" fill="rgb(0, 0, 0)" stroke="rgb(204, 204, 204)" stroke-width="1px"></line></g></g></g></g></svg>