<svg viewBox="0 0 1029 400" xmlns="http://www.w3.org/2000/svg"><g><g><g><g><g><line x1="78.03125" y1="377.828125" x2="73.03125" y2="377.828125" style="visibility: inherit;" fill="rgb(0, 0, 0)" stroke="rgb(204, 204, 204)" stroke-width="1px"></line><line x1="78.03125" y1="346.34244791666674" x2="73.03125" y2="346.34244791666674" style="visibility: inherit;" fill="rgb(0, 0, 0)" stroke="rgb(204, 204, 204)" stroke-width="1px"></line><line x1="78.03125" y1="314.85677083333337" x2="73.03125" y2="314.85677083333337" style="visibility: inherit;" fill="rgb(0, 0, 0)" stroke="rgb(204, 204, 204)" stroke-width="1px"></line><line x1="78.03125" y1="283.37109375" x2="73.03125" y2="283.37109375" style="visibility: inherit;" fill="rgb(0, 0, 0)" stroke="rgb(204, 204, 204)" stroke-width="1px"></line><line x1="78.03125" y1="251.88541666666669" x2="73.03125" y2="251.88541666666669" style="visibility: inherit;" fill="rgb(0, 0, 0)" stroke="rgb(204, 204, 204)" stroke-width="1px"></line><line x1="78.03125" y1="220.39973958333331" x2="73.03125" y2="220.39973958333331" style="visibility: inherit;" fill="rgb(0, 0, 0)" stroke="rgb(204, 204, 204)" stroke-width="1px"></line><line x1="78.03125" y1="188.91406250000003" x2="73.03125" y2="188.91406250000003" style="visibility: inherit;" fill="rgb(0, 0, 0)" stroke="rgb(204, 204, 204)" stroke-width="1px"></line><line x1="78.03125" y1="157.42838541666669" x2="73.03125" y2="157.42838541666669" style="visibility: inherit;" fill="rgb(0, 0, 0)" stroke="rgb(204, 204, 204)" stroke-width="1px"></line><line x1="78.03125" y1="125.94270833333334" x2="73.03125" y2="125.94270833333334" style="visibility: inherit;" fill="rgb(0, 0, 0)" stroke="rgb(204, 204, 204)" stroke-width="1px"></line><line x1="78.03125" y1="94.45703125" x2="73.03125" y2="94.45703125" style="visibility: inherit;" fill="rgb(0, 0, 0)" stroke="rgb(204, 204, 204)" stroke-width="1px"></line><line x1="78.03125" y1="62.971354166666686" x2="73.03125" y2="62.971354166666686" style="visibility: inherit;" fill="rgb(0, 0, 0)" stroke="rgb(204, 204, 204)" stroke-width="1px"></line><line x1="78.03125" y1="31.485677083333258" x2="73.03125" y2="31.485677083333258" style="visibility: inherit;" fill="rgb(0, 0, 0)" stroke="rgb(204, 204, 204)" stroke-width="1px"></line><line x1="78.03125" y1="0" x2="73.03125" y2="0" style="visibility: inherit;" fill="rgb(0, 0, 0)" stroke="rgb(204, 204, 204)" stroke-width="1px"></line></g><g transform="translate(68.03125, 0)"><text x="0" y="377.828125" dx="0em" dy="0.3em" style="text-anchor: end; visibility: hidden; font-family: &quot;Helvetica Neue&quot;, sans-serif; font-size: 12px; font-weight: 200;" fill="rgb(50, 49, 63)" stroke="none" stroke-width="1px">5.5e-4</text><text x="0" y="346.34244791666674" dx="0em" dy="0.3em" style="text-anchor: end; visibility: inherit; font-family: &quot;Helvetica Neue&quot;, sans-serif; font-size: 12px; font-weight: 200;" fill="rgb(50, 49, 63)" stroke="none" stroke-width="1px">6e-4</text><text x="0" y="314.85677083333337" dx="0em" dy="0.3em" style="text-anchor: end; visibility: inherit; font-family: &quot;Helvetica Neue&quot;, sans-serif; font-size: 12px; font-weight: 200;" fill="rgb(50, 49, 63)" stroke="none" stroke-width="1px">6.5e-4</text><text x="0" y="283.37109375" dx="0em" dy="0.3em" style="text-anchor: end; visibility: inherit; font-family: &quot;Helvetica Neue&quot;, sans-serif; font-size: 12px; font-weight: 200;" fill="rgb(50, 49, 63)" stroke="none" stroke-width="1px">7e-4</text><text x="0" y="251.88541666666669" dx="0em" dy="0.3em" style="text-anchor: end; visibility: inherit; font-family: &quot;Helvetica Neue&quot;, sans-serif; font-size: 12px; font-weight: 200;" fill="rgb(50, 49, 63)" stroke="none" stroke-width="1px">7.5e-4</text><text x="0" y="220.39973958333331" dx="0em" dy="0.3em" style="text-anchor: end; visibility: inherit; font-family: &quot;Helvetica Neue&quot;, sans-serif; font-size: 12px; font-weight: 200;" fill="rgb(50, 49, 63)" stroke="none" stroke-width="1px">8e-4</text><text x="0" y="188.91406250000003" dx="0em" dy="0.3em" style="text-anchor: end; visibility: inherit; font-family: &quot;Helvetica Neue&quot;, sans-serif; font-size: 12px; font-weight: 200;" fill="rgb(50, 49, 63)" stroke="none" stroke-width="1px">8.5e-4</text><text x="0" y="157.42838541666669" dx="0em" dy="0.3em" style="text-anchor: end; visibility: inherit; font-family: &quot;Helvetica Neue&quot;, sans-serif; font-size: 12px; font-weight: 200;" fill="rgb(50, 49, 63)" stroke="none" stroke-width="1px">9e-4</text><text x="0" y="125.94270833333334" dx="0em" dy="0.3em" style="text-anchor: end; visibility: inherit; font-family: &quot;Helvetica Neue&quot;, sans-serif; font-size: 12px; font-weight: 200;" fill="rgb(50, 49, 63)" stroke="none" stroke-width="1px">9.5e-4</text><text x="0" y="94.45703125" dx="0em" dy="0.3em" style="text-anchor: end; visibility: inherit; font-family: &quot;Helvetica Neue&quot;, sans-serif; font-size: 12px; font-weight: 200;" fill="rgb(50, 49, 63)" stroke="none" stroke-width="1px">1e-3</text><text x="0" y="62.971354166666686" dx="0em" dy="0.3em" style="text-anchor: end; visibility: inherit; font-family: &quot;Helvetica Neue&quot;, sans-serif; font-size: 12px; font-weight: 200;" fill="rgb(50, 49, 63)" stroke="none" stroke-width="1px">1.05e-3</text><text x="0" y="31.485677083333258" dx="0em" dy="0.3em" style="text-anchor: end; visibility: inherit; font-family: &quot;Helvetica Neue&quot;, sans-serif; font-size: 12px; font-weight: 200;" fill="rgb(50, 49, 63)" stroke="none" stroke-width="1px">1.1e-3</text><text x="0" y="0" dx="0em" dy="0.3em" style="text-anchor: end; visibility: hidden; font-family: &quot;Helvetica Neue&quot;, sans-serif; font-size: 12px; font-weight: 200;" fill="rgb(50, 49, 63)" stroke="none" stroke-width="1px">1.15e-3</text></g><line x1="78.03125" y1="0" x2="78.03125" y2="377.828125" fill="rgb(0, 0, 0)" stroke="rgb(204, 204, 204)" stroke-width="1px"></line></g></g><g transform="translate(78, 0)" clip-path="url(#clip_0)"><clipPath id="clip_0"><rect width="950" height="377"></rect></clipPath><g><g><g><line x1="0" y1="0" x2="0" y2="377.828125" fill="rgb(0, 0, 0)" stroke="rgb(60, 60, 60)" stroke-width="1px" opacity="0.25"></line><line x1="118.87109375" y1="0" x2="118.87109375" y2="377.828125" fill="rgb(0, 0, 0)" stroke="rgb(60, 60, 60)" stroke-width="1px" opacity="0.25"></line><line x1="237.7421875" y1="0" x2="237.7421875" y2="377.828125" fill="rgb(0, 0, 0)" stroke="rgb(60, 60, 60)" stroke-width="1px" opacity="0.25"></line><line x1="356.61328125" y1="0" x2="356.61328125" y2="377.828125" fill="rgb(0, 0, 0)" stroke="rgb(60, 60, 60)" stroke-width="1px" opacity="0.25"></line><line x1="475.484375" y1="0" x2="475.484375" y2="377.828125" fill="rgb(0, 0, 0)" stroke="rgb(60, 60, 60)" stroke-width="1px" opacity="0.25"></line><line x1="594.35546875" y1="0" x2="594.35546875" y2="377.828125" fill="rgb(0, 0, 0)" stroke="rgb(60, 60, 60)" stroke-width="1px" opacity="0.25"></line><line x1="713.2265625" y1="0" x2="713.2265625" y2="377.828125" fill="rgb(0, 0, 0)" stroke="rgb(60, 60, 60)" stroke-width="1px" opacity="0.25"></line><line x1="832.09765625" y1="0" x2="832.09765625" y2="377.828125" fill="rgb(0, 0, 0)" stroke="rgb(60, 60, 60)" stroke-width="1px" opacity="0.25"></line><line x1="950.96875" y1="0" x2="950.96875" y2="377.828125" fill="rgb(0, 0, 0)" stroke="rgb(60, 60, 60)" stroke-width="1px" opacity="0.25"></line></g><g><line x1="0" y1="377.828125" x2="950.96875" y2="377.828125" fill="rgb(0, 0, 0)" stroke="rgb(60, 60, 60)" stroke-width="1px" opacity="0.25"></line><line x1="0" y1="346.34244791666674" x2="950.96875" y2="346.34244791666674" fill="rgb(0, 0, 0)" stroke="rgb(60, 60, 60)" stroke-width="1px" opacity="0.25"></line><line x1="0" y1="314.85677083333337" x2="950.96875" y2="314.85677083333337" fill="rgb(0, 0, 0)" stroke="rgb(60, 60, 60)" stroke-width="1px" opacity="0.25"></line><line x1="0" y1="283.37109375" x2="950.96875" y2="283.37109375" fill="rgb(0, 0, 0)" stroke="rgb(60, 60, 60)" stroke-width="1px" opacity="0.25"></line><line x1="0" y1="251.88541666666669" x2="950.96875" y2="251.88541666666669" fill="rgb(0, 0, 0)" stroke="rgb(60, 60, 60)" stroke-width="1px" opacity="0.25"></line><line x1="0" y1="220.39973958333331" x2="950.96875" y2="220.39973958333331" fill="rgb(0, 0, 0)" stroke="rgb(60, 60, 60)" stroke-width="1px" opacity="0.25"></line><line x1="0" y1="188.91406250000003" x2="950.96875" y2="188.91406250000003" fill="rgb(0, 0, 0)" stroke="rgb(60, 60, 60)" stroke-width="1px" opacity="0.25"></line><line x1="0" y1="157.42838541666669" x2="950.96875" y2="157.42838541666669" fill="rgb(0, 0, 0)" stroke="rgb(60, 60, 60)" stroke-width="1px" opacity="0.25"></line><line x1="0" y1="125.94270833333334" x2="950.96875" y2="125.94270833333334" fill="rgb(0, 0, 0)" stroke="rgb(60, 60, 60)" stroke-width="1px" opacity="0.25"></line><line x1="0" y1="94.45703125" x2="950.96875" y2="94.45703125" fill="rgb(0, 0, 0)" stroke="rgb(60, 60, 60)" stroke-width="1px" opacity="0.25"></line><line x1="0" y1="62.971354166666686" x2="950.96875" y2="62.971354166666686" fill="rgb(0, 0, 0)" stroke="rgb(60, 60, 60)" stroke-width="1px" opacity="0.25"></line><line x1="0" y1="31.485677083333258" x2="950.96875" y2="31.485677083333258" fill="rgb(0, 0, 0)" stroke="rgb(60, 60, 60)" stroke-width="1px" opacity="0.25"></line><line x1="0" y1="0" x2="950.96875" y2="0" fill="rgb(0, 0, 0)" stroke="rgb(60, 60, 60)" stroke-width="1px" opacity="0.25"></line></g></g></g><g><g><line x1="0" y1="724.1705729166667" x2="950.96875" y2="724.1705729166667" fill="rgb(0, 0, 0)" stroke="rgb(153, 153, 153)" stroke-width="1.5px"></line></g></g><g><g><line x1="118.87109375" y1="0" x2="118.87109375" y2="377.828125" fill="rgb(0, 0, 0)" stroke="rgb(153, 153, 153)" stroke-width="1.5px"></line></g></g><g><g><g><g><g><path stroke="rgb(255, 112, 67)" stroke-width="2px" d="M138.86521171874998,-0.7590489356426815L139.81618046875,27.99268070160838L140.76714921874998,9.246413116014594L141.71811796875,-0.724184867912868L142.66908671874998,20.617508609639003L143.62005546875,53.951028066427625L144.57102421874998,47.359463623606814L145.52199296875,47.14885855799838L146.47296171874999,32.32339747213291L147.42393046875,55.08872770408516L148.37489921875,63.23732957118756L149.32586796875,44.640942682209754L150.27683671875,69.11265303362734L151.22780546875,71.44859707038847L152.17877421875,74.00556615449136L153.12974296875,70.49264581797377L154.08071171875,41.52699304953495L155.03168046875,69.25152304847921L155.98264921875,64.30685309296416L156.93361796875,84.15800876615413L157.88458671875,109.16094457185272L158.83555546875002,67.33534941733512L159.78652421875,83.35989828226644L160.73749296875002,71.4520315270754L161.68846171875,47.12297431760305L162.63943046875002,24.935297505348785L163.59039921875,4.823812834859211L164.54136796875002,32.41359460273759L165.49233671875,55.46619776213487L166.44330546875,45.11605625947618L167.39427421874998,59.65211582992788L168.34524296875,76.00027331392118L169.29621171875,93.91722981548236L170.24718046875,113.21937978013591L171.19814921875,131.19672146891673L172.14911796875,128.2797878394478L173.10008671875,107.81199034271884L174.05105546875,95.3186039829136L175.00202421875,110.34689819054518L175.95299296874998,129.83789627323625L176.90396171875,147.4149502856106L177.85493046874998,158.7058463305321L178.80589921875,143.22471800033236L179.75686796875,147.6070647854982L180.70783671875,158.09665559713125L181.65880546875,155.90470148321103L182.60977421875,159.56403217619092L183.56074296875,158.63563135543686L184.51171171875,139.35007338965994L185.46268046875,120.77505255944487L186.41364921875,137.97715440239594L187.36461796875,149.6213893945134L188.31558671875,142.97747852189235L189.26655546875,154.31242247457217L190.21752421875001,172.35971770879422L191.16849296875,183.25665385035282L192.11946171875002,193.83577438937732L193.07043046875,196.38175868681387L194.02139921875002,211.6956672482166L194.97236796875,217.63659068362907L195.92333671875002,230.56446244880132L196.87430546874998,244.1080402533428L197.82527421875,256.1280317124014L198.77624296874998,266.30735802285477L199.72721171875,209.62908217900284L200.67818046874999,201.8785859664899L201.62914921875,194.75613959085007L202.58011796875,196.80796677100457L203.53108671875,207.52257891372452L204.48205546875,216.64847485681148L205.43302421875,192.56053938869633L206.38399296875,154.813573927405L207.33496171875,160.80935639695778L208.28593046875,141.1872413299245L209.23689921875,141.86975089804207L210.18786796875,146.1122737767519L211.13883671875,126.92788344340613L212.08980546875,118.93412435585321L213.04077421875,134.7147771810656L213.99174296875,148.5753632021577L214.94271171875,157.4710782454624L215.89368046875,167.71514407618366L216.84464921875,161.5965172158057L217.79561796875,152.50475194813907L218.74658671875,147.2527494052564L219.69755546875,162.89474098884392L220.64852421875,155.7253013722549L221.59949296875,132.99361303681988L222.55046171875,122.3344379293408L223.50143046875002,134.6115635666617L224.45239921875,130.2007079951994L225.40336796875002,133.92296343586708L226.35433671874998,148.0685747858612L227.30530546875,134.71854775758885L228.25627421874998,115.88278308494921L229.20724296875,102.0065560733583L230.15821171874998,100.72738046936757L231.10918046875,120.4400913505138L232.06014921874998,112.17615399793749L233.01111796875,125.18865634050536L233.96208671875,129.42005845249696L234.91305546875,126.91174770698171L235.86402421875,109.60620645771775L236.81499296875,113.90941222156454L237.76596171875,108.81509314835665L238.71693046875,105.8837557770093L239.66789921875,113.29995925169726L240.61886796875,113.54292605672856L241.56983671875,127.17974288942895L242.52080546875,136.41996574829838L243.47177421875,128.41076004188903L244.42274296875001,127.88388803675795L245.37371171875,106.57154754441302L246.32468046875002,119.48658144871337L247.27564921875,136.3756435271555L248.22661796875002,135.10783056298467L249.17758671875,136.43360533131977L250.12855546875002,152.8026107903382L251.07952421875,135.57998173965382L252.03049296875,150.65784933102108L252.98146171875,170.1734667630289L253.93243046875,185.51977369741684L254.88339921875001,166.9480921027409L255.83436796875,128.59680892200018L256.78533671875,131.4201582389121L257.73630546875,143.13103057228454L258.68727421875,159.34386860295203L259.63824296875003,151.44347503728045L260.58921171875,168.62349267446672L261.54018046875,159.98341553497175L262.49114921875,166.95919457474264L263.44211796875004,178.76241471825105L264.39308671875,161.21923193962522L265.34405546875,150.29821985287603L266.29502421875003,157.86543869544724L267.24599296875004,174.576087424641L268.19696171875,190.9003883130261L269.14793046875,189.02488692837377L270.09889921875003,196.454375237303L271.04986796875,212.89242651912897L272.00083671874995,204.8787065200061L272.95180546874997,219.86444305272522L273.90277421875,233.2561658738218L274.85374296875,239.6898028886198L275.80471171874996,246.84299253258152L276.75568046875,257.2016910657384L277.70664921875,235.23458316308407L278.65761796875,206.98649890082547L279.60858671874996,201.05528795352402L280.55955546875,215.44301871769176L281.51052421875,207.7999060577924L282.46149296875,223.59181138543218L283.41246171874997,209.5960943075857L284.36343046875,220.43806782181966L285.31439921875,221.69822647712405L286.26536796875,199.27110354815397L287.21633671875,213.34837564501512L288.16730546875,175.1001652663474L289.11827421875,171.4713506237339L290.06924296875,185.5712416108394L291.02021171875,179.94792643834012L291.97118046875,179.5300052838323L292.92214921875,168.16311477464853L293.87311796874997,151.6542463645886L294.82408671875,149.28330699847763L295.77505546875,165.12392632796497L296.72602421875,180.1902722486728L297.67699296874997,188.18654865955986L298.62796171875,196.01181616805442L299.57893046875,202.03125593155065L300.52989921875,215.45919926543567L301.48086796875,223.30073258068597L302.43183671875,230.6683662505486L303.38280546875,244.57382142015072L304.33377421875,213.15904921674445L305.28474296875,200.78917722146713L306.23571171875,209.81934903913987L307.18668046875,208.18245665943834L308.13764921875,200.94127093706555L309.08861796875,215.5469835625232L310.03958671875,226.1651608485061L310.99055546875,238.02039816592728L311.94152421875003,230.93807090157114L312.89249296875,224.2326917562962L313.84346171875,238.5290534661142L314.79443046875,249.89694324530586L315.74539921875004,264.47057382818724L316.69636796875,272.75262840022924L317.64733671875,243.03428316842766L318.59830546875,255.17951292491438L319.54927421875004,258.3346674591969L320.50024296875,209.34774072446015L321.45121171875,222.06482257654218L322.40218046875003,224.25476353084576L323.35314921875005,233.46297233174576L324.30411796875,246.7910457898366L325.25508671875,259.3717930598739L326.20605546875004,271.0114986724751L327.15702421875,249.91024417326162L328.10799296875,258.47713067739426L329.05896171875,269.0778894093155L330.00993046875,262.88134546447L330.96089921875,274.8501788263361L331.91186796874996,253.34106316156334L332.86283671875,260.807196832435L333.81380546875,251.8490792273675L334.76477421875,229.6375856461085L335.71574296874996,238.82354965380227L336.66671171875,220.4697953462356L337.61768046875,236.30461290206617L338.56864921874995,246.08084332849026L339.51961796874997,219.47451721879392L340.47058671875,225.17025565610928L341.42155546875,231.25407902691526L342.37252421874996,244.66617361400762L343.32349296875,228.21841453376L344.27446171875,237.14052683115457L345.22543046875,246.09299178404422L346.17639921874996,250.57017448116767L347.12736796875,261.68770316941203L348.07833671875,274.47639255885395L349.02930546875,257.41046998560256L349.98027421874997,264.13799834902267L350.93124296875,270.84938117480783L351.88221171875,276.82869731588585L352.83318046875,288.4818272426887L353.78414921875,282.2267655994239L354.71134375,290.1500878735243L355.6623125,268.4994105507403L356.61328125,258.450088528441L357.56425,256.60650800775545L358.51521875,235.91236573757269L359.4661875,201.15434544514306L360.41715625,193.93368247063265L361.368125,198.16939566866924L362.31909375,214.83448995818426L363.2700625,223.80431029665021L364.22103125,204.63481144217906L365.172,208.13030298651617L366.12296875,214.69654759998497L367.0739375,228.78920465856686L368.02490625,215.65769016982884L368.95210078125,226.69165277347489L369.90306953125,202.3347456252481L370.85403828125004,191.1595538342903L371.80500703125,200.73719969516105L372.75597578125,200.17617953376012L373.70694453125003,195.7893948401815L374.65791328125005,195.28261990669998L375.60888203125,162.72640035275876L376.55985078125,168.3310789718802L377.51081953125004,181.93154252135605L378.46178828125,176.4191497527575L379.41275703125,169.8362743569248L380.3399515625,168.37560786998347L381.29092031249996,181.02726323714816L382.2418890625,187.69513757793652L383.1928578125,194.48503568673414L384.14382656249995,196.48737877638163L385.09479531249997,210.01150577230865L386.0457640625,210.47515730105061L386.9967328125,223.794703107094L387.94770156249996,208.32211548044535L388.8986703125,186.56262416123656L389.8496390625,194.08793575425392L390.8006078125,186.38791963065034L391.75157656249996,200.89048069092505L392.7025453125,211.57354542127666L393.6535140625,224.59420832885013L394.6044828125,200.22634646575116L395.55545156249997,179.4134296674322L396.5064203125,190.41999628265657L397.4573890625,207.15253376752509L398.4083578125,217.20921019695245L399.33555234375,222.18613917450764L400.28652109374997,233.1512582938323L401.23748984375,245.41072412351878L402.18845859375,226.7745815186408L403.115653125,237.93913050873505L404.066621875,252.97634343820084L405.017590625,266.66833204491627L405.968559375,267.8848019815725L406.919528125,246.48481868884903L407.870496875,250.09389843558034L408.82146562500003,245.16040736648702L409.772434375,259.5779090545359L410.723403125,255.30085041541867L411.674371875,270.61015929107L412.62534062500004,280.51069458935154L413.576309375,275.1001781844501L414.527278125,246.39218102702907L415.478246875,218.69682721713795L416.429215625,209.06062782387036L417.380184375,196.82951304778297L418.331153125,208.37825074645428L419.28212187500003,203.91068187161648L420.233090625,216.82553342141182L421.184059375,232.38093403014688L422.11125390625,243.8366874496236L423.06222265625,241.910881354775L423.96564296875005,245.5815775352582L424.91661171875,254.73346737724535L425.84380625,265.50822567466946L426.79477499999996,242.69396541361027L427.74574375,247.50967277121455L428.6491640625,226.2218115762599L429.60013281249996,214.36279215092065L430.5511015625,224.0245738444061L431.5020703125,206.84903269153895L432.4530390625,176.41599703647213L433.40400781249997,192.0838441833833L434.3549765625,190.78031167594492L435.3059453125,181.32620848186806L436.2569140625,183.72470239473887L437.2078828125,186.22320688957782L438.1588515625,167.72319562618983L439.1098203125,183.7156163348258L440.0607890625,193.46714154864694L440.98798359375,204.49074609907728L441.93895234375,177.92553706198888L442.866146875,173.4714886412636L443.79334140625,187.67445780596773L444.74431015625,179.39762275441342L445.69527890625,175.96040268046067L446.64624765625,157.56947233713058L447.59721640625,149.8104559324026L449.42783125,148.70670261654124L450.3788,162.10501878630387L451.30599453125,159.26120536804763L452.25696328125,173.7657777933768L453.20793203125004,152.55257138785822L454.1351265625,147.1920268114062L455.06232109375,157.83749222685842L455.96574140625,158.77166445535315L456.91671015624996,153.52592182135942L457.86767890625,165.93140078401294L458.81864765625,182.43013428048786L459.7458421875,149.09488607968584L460.6968109375,143.59315981132482L461.6477796875,131.16631871307024L462.5987484375,132.19934157666748L463.50216875,144.23620917630072L464.4055890625,163.37092784136536L465.3565578125,181.55019134683218L466.3075265625,177.06815537013185L467.25849531250003,160.66002449289013L468.2094640625,158.81997085618377L469.1604328125,134.771277806513L470.08762734375,148.77478512424622L470.9672734375,156.66297692179512L471.9182421875,166.76331486883586L472.86921093750004,179.7912296299129L473.77263124999996,192.111160825045L475.6270203125,206.231910180681L476.55421484375006,216.41622232605212L477.45763515625003,231.01803307049155L478.40860390625005,209.53570959998632L479.35957265625007,222.0969370822675L480.2867671875,235.4131921898764L481.21396171874994,247.81389455521702L482.16493046874996,260.11213045607616L483.0445765625,271.28437714548306L483.97177109374996,279.9448377927095L484.898965625,285.2295602398451L485.82616015624995,287.83324424606684L486.72958046875,300.30448698438846L487.65677500000004,303.5094103686831L488.5601953125,274.41851281129925L489.46361562500005,288.19614979958254L490.39081015625,294.25321432684984L491.31800468750004,302.68347079391015L492.24519921875,312.81787964118547L493.14861953125,314.9046706354192L494.07581406249994,322.51565469279154L495.02678281249996,331.59615369268215L495.90642890625,325.01063520093305L496.85739765625004,314.97217690691116L497.76081796875,316.42300150352514L498.68801249999996,304.1081651665301L499.61520703125,314.8851766355148L500.5424015625,287.6279035350323L501.46959609375006,298.04224149953546L502.396790625,306.84555245815073L503.32398515625005,280.1386726964877L504.22740546874996,268.5827707632128L505.1546,273.023348688028L506.0580203125,258.1096404756629L506.961440625,263.53648880695727L507.8648609375,267.57790600182346L508.79205546875,276.7375462379276L509.67170156250006,250.42844940471736L510.6226703125,260.97103571248385L511.52609062500005,238.91113195265396L512.4770593750001,248.65448023201878L513.3804796875,240.8464353208399L514.3314484375001,225.17387063064274L515.25864296875,241.81009616745328L516.16206328125,253.25167293276354L517.0892578124999,234.8207366776681L518.01645234375,245.87682607391042L518.943646875,228.1538125050245L519.8470671875,219.29677826863085L520.7980359375,231.52189196738541L521.72523046875,225.60420893822422L522.652425,220.05509588012404L523.5558453125,219.2305106111651L524.4354914062501,229.18787104557128L525.3151375,241.73636512218403L526.19478359375,223.86693384065745L527.0744296875,221.1027875248921L528.00162421875,213.66583482473987L528.8812703125001,225.20531847423842L529.784690625,206.69056551403028L530.71188515625,220.31101553681563L531.56775703125,231.09482488163084L532.51872578125,228.50070360022752L533.42214609375,242.7140262000741L534.3017921874999,231.85471530351074L535.2052125,242.34538983349915L536.08485859375,238.99255210914632L536.98827890625,253.32499561282341L537.93924765625,263.32625345914664L538.89021640625,264.3180931087825L539.7698625,272.91245026514997L540.6732828125,281.651651299759L541.576703125,290.8021373722886L542.5038976562499,283.2059073036835L544.31073828125,280.9731581093282L545.26170703125,266.01490657336376L546.11757890625,255.4187413160496L547.06854765625,267.4205695714055L547.9719679687499,254.82448061955455L549.77880859375,251.52825151171663L550.7060031249999,247.17905891386323L551.63319765625,223.21462221810162L552.51284375,180.58348481278873L553.4162640625,181.73140539832698L554.3672328125,141.58344166415287L555.270653125,123.73630865406341L556.221621875,126.1894475996879L557.07749375,144.2363645624438L557.95713984375,158.04092406112647L558.884334375,142.21000542967064L559.7877546875,136.38939636529025L560.6436265625,103.25353837565297L561.5708210937499,110.22744872644603L562.4504671875001,116.52756186250821L563.33011328125,99.26311028445679L564.2097593750001,80.0004942157305L565.08940546875,94.40985125235187L565.99282578125,115.91526326491925L566.9200203125,87.62321119226362L567.79966640625,74.36576599863866L568.75063515625,94.19868284807586L569.65405546875,112.16576589875484L570.5337015625,128.35397276502636L572.26921953125,91.86462142133854L573.17263984375,111.38938234598697L574.0522859375001,115.53476792623167L574.97948046875,118.99304587086954L575.9304492187499,116.5498069785886L576.83386953125,119.13923640942903L577.6897414062499,120.31687954699765L578.5693875000001,90.52637000077311L579.49658203125,110.42492754881624L580.35245390625,124.84175810911572L581.2796484375,143.0735494973383L582.20684296875,155.20026899500965L583.11026328125,155.42819845197116L584.01368359375,172.995277501359L584.8933296875,164.70267416934274L585.79675,180.65879924274125L586.74771875,190.7381108784037L587.62736484375,203.55455398357012L588.554559375,213.30245753721638L589.43420546875,222.9781516780921L590.3376257812499,228.49304278751126L591.24104609375,219.58108222851806L592.1206921875,209.6802188811953L593.0241125,223.72866859029466L593.879984375,233.49546512757664L594.7596304687501,226.8700816277933L596.61401953125,240.625268575046L597.5649882812501,204.15964154770896L599.3242804687501,214.89592684750085L600.2039265625,228.13445620066702L601.13112109375,233.14925484433962L602.058315625,244.2397793964712L603.009284375,251.3208799952261L603.9127046875,263.4731808779132L604.79235078125,276.1362588440665L605.671996875,281.56168158349647L606.52786875,287.5971682600716L607.3837406250001,267.7158354565217L609.21435546875,279.0075945048443L610.87855078125,290.06072669744157L611.758196875,277.41275834605034L612.6378429687501,287.4739556047442L614.3733609375,296.51707253790113L615.27678125,303.2066320220241L616.1802015625,260.8553945479171L617.0836218750001,235.15061000609884L618.01081640625,243.36876364896338L618.86668828125,251.69446008516388L619.6987859374999,260.7012080904754L620.53088359375,247.47370485722251L621.4343039062501,259.62898984013725L622.33772421875,267.3140783114739L623.169821875,252.8689264272254L624.00191953125,253.20774261807753L624.8577914062499,265.46662431093694L625.76121171875,276.4079781986541L626.66463203125,268.3193994640009L627.544278125,256.5418527271589L628.40015,260.93362101040935L629.18469921875,240.36813921658873L630.0643453125,206.98511249463587L631.8711859375,199.73623763025284L632.79838046875,214.40081723054075L633.60670390625,202.5595024279392L634.36747890625,211.43205290363252L635.31844765625,221.4746066457756L636.2456421875,229.49083304350404L637.1252882812499,205.52742994758808L638.02870859375,217.88646566089707L638.9559031250001,211.16670103251465L640.7627437499999,210.14307504783432L641.6661640625,186.1893136209698L642.569584375,202.07360723954153L643.4730046875,215.0106414112053L644.3764249999999,206.83177993234779L645.232296875,215.70416842003996L646.06439453125,198.4143219552359L646.9678148437499,197.8169623394289L647.7761382812499,208.23650956499816L649.4641078125,192.3978981283552L650.3199796875,202.15127839389794L652.079271875,217.10238862090267L652.93514375,206.71819657980006L653.7672414062499,186.43639246586173L654.62311328125,202.14108528891109L655.52653359375,181.97769962736723L656.4061796875001,195.3117723993285L657.3096,206.10153581121605L658.09414921875,221.17040001971276L658.99756953125,231.96035280735887L659.90098984375,246.22854258496346L660.7806359374999,246.87947933575202L661.6602820312501,254.8488234002869L662.56370234375,246.12353691607288L663.3720257812499,199.37959417724062L664.32299453125,161.98357552724414L665.1550921875,169.8196244387735L666.0109640625001,147.27070631464696L666.89061015625,162.9707216862731L668.6736765625001,149.01292933126632L669.5770968749999,129.31070340767792L670.40919453125,145.7764276759228L671.2888406249999,163.94926142566823L673.0243585937501,161.09088063805348L674.712328125,141.5935246715092L675.6157484375,158.71335021236624L676.4240718750001,169.05389811169738L677.35126640625,183.38615459911134L678.2309124999999,168.0527124185883L679.0392359374999,144.07929907386128L679.9188820312501,157.81030609996705L680.82230234375,172.31057924405388L681.6781742187501,156.51653644411508L682.5815945312501,161.71708226271016L683.5087890625,158.62998372572585L684.412209375,162.42423762064573L685.3156296875001,178.1346599131878L686.19527578125,190.4353751634413L687.05114765625,208.38275619435828L687.95456796875,200.5427503937881L688.81043984375,209.55702109608396L690.56973203125,222.08791257678982L691.47315234375,235.72325173793445L693.0184765625,204.12910423558301L693.85057421875,205.72070376147497L694.75399453125,219.38454695948937L695.60986640625,172.44590612167707L696.394415625,191.69079928498005L697.27406171875,202.08121274768126L698.106159375,215.26876369177808L699.0095796875,228.8577309690603L699.9367742187501,234.30977046879613L700.8401945312501,245.82864489248334L701.6009695312499,256.2920758074923L702.480615625,232.61930173345246L703.3602617187499,247.23303831692806L704.192359375,257.5200006200551L704.9769085937501,252.05973762209337L705.88032890625,222.68450068723573L706.7124265625,223.68667644952816L707.5682984375,228.72293558416177L708.4241703125,223.00450742970153L709.30381640625,223.36169520477466L711.01556015625,205.33672151269604L711.87143203125,217.74416959962147L712.751078125,229.2248756872953L713.58317578125,207.88243778809274L714.5103703125,217.4183338070405L715.4137906249999,234.8018938747723L716.24588828125,233.7549224658743L717.91008359375,231.76749797387544L718.7897296875,224.01793472236153L719.66937578125,235.62652221695333L720.62034453125,234.5854301391637L721.4762164062499,210.11617291936093L722.260765625,204.11130555493514L723.0690890625,193.69266968529368L723.85363828125,203.41679567293812L724.75705859375,186.92913857995444L725.66047890625,172.010836624299L726.540125,188.3972657135755L727.3484484375,183.02929924648046L729.70209609375,199.05668158183167L730.51041953125,207.3530655883493L731.3425171875,201.17838704468477L732.2459375,208.62232435117394L733.101809375,171.24189724291034L733.8625843750001,186.32406611321724L734.6946820312501,201.5116491798993L735.59810234375,197.32361531525942L736.35887734375,211.30890979995186L737.190975,200.73217071769733L737.92797578125,197.98481428950623L738.712525,212.07762839084143L740.40049453125,207.12625567871075L741.20881796875,217.3028791213642L741.9933671875,209.03131018716496L742.73036796875,224.01094280940404L744.34701484375,239.02139181225257L745.084015625,252.38650465945648L745.8923390625,238.6120391733272L747.5565343750001,240.89156347749181L748.43618046875,239.71852471310484L749.24450390625,250.2712675584517L750.10037578125,265.3387845629547L750.90869921875,246.64650174837325L751.740796875,230.06247683750502L752.5491203125,240.35148241046568L753.35744375,230.63557482262766L754.18954140625,221.35838891069136L754.99786484375,222.462115201375L755.80618828125,232.90387364922398L756.685834375,237.3040981695492L757.51793203125,241.37535034606378L758.30248125,247.74718856718297L759.158353125,255.0314477369201L760.014225,266.8954195967423L760.8700968750001,274.0028665296438L761.6784203125001,271.26434015889004L762.4154210937501,283.68433353377577L763.1999703125,291.4285057886491L764.07961640625,289.1964045339909L764.93548828125,262.79577114029405L766.575909375,261.46744327090016L767.45555546875,210.15647885116513L768.2876531249999,222.56302489903172L769.1910734375,237.30188476630107L769.97562265625,246.6017419897338L770.78394609375,260.1462343244557L771.5922695312499,243.99812163443673L772.4243671875,256.036912089943L773.2802390625001,237.5896561971624L774.183659375,205.99832571241586L774.9919828124999,222.18572573814038L775.7527578125,227.59849221245042L777.416953125,222.04018613636643L779.0336000000001,195.1806782380699L779.81814921875,194.54753805888913L780.6026984375,184.0804752832182L781.4823445312501,201.243961869522L782.2431195312499,195.89350044734786L783.0514429687499,173.38234322226583L783.8359921875,141.32410955592965L784.76318671875,136.1310907661786L785.57151015625,149.80258502397848L786.356059375,167.30168721819737L787.1168343749999,170.81922671173012L787.99648046875,181.79576661422595L790.46899921875,194.65794884994855L791.206,210.17179977480887L792.08564609375,226.70104259199107L792.84642109375,215.51835724125124L793.7260671875,209.83390689720176L795.3427140625,225.47977203067995L796.07971484375,234.99325738084744L796.9118125,202.36317718848284L797.64881328125,208.40441207713283L798.5046851562499,224.58038119708917L799.2416859375,237.74452311103317L800.0500093750001,226.3896560108056L800.90588125,217.3163247374831L801.66665625,233.019396301151L802.522528125,241.86470122880522L803.283303125,217.46957821853854L804.06785234375,180.45817011069363L804.87617578125,181.67226291202164L805.5894023437501,172.86307262019622L806.4214999999999,139.85461764298978L807.25359765625,157.63489451935956L808.0619210937499,176.0739528887348L808.91779296875,190.27742641017852L809.67856796875,172.96885450359437L810.58198828125,184.3274550020122L811.34276328125,193.85368472854532L812.1273125,209.2739409781978L812.9356359375,220.59514141268198L813.6964109375,232.72386226214923L814.52850859375,247.92794364102437L815.33683203125,254.9974956835327L817.0248015625,224.63772582515162L817.833125,236.80718243008798L819.4259976562499,250.31261647800727L821.0188703125,248.70119348709503L821.82719375,260.78596697710987L822.6830656249999,253.7939035800353L823.46761484375,250.17806165606453L824.2521640625,248.63098858180905L825.17935859375,255.54847376378143L825.9639078125,265.1282590255618L826.77223125,260.7696075745563L828.8168140625,257.428089624347L830.31458984375,269.7395517903179L831.1704617187501,283.172865141064L831.9550109375,287.6002463917508L832.83465703125,280.18122908278025L833.6667546875001,279.86744195157723L834.5701750000001,269.84354780622505L835.426046875,278.3401361731858L836.2343703125,253.42089067605508L837.7796945312499,226.0666333084534L838.4929210937499,233.05775268566867L839.32501875,233.8884776122467L840.8941171875,212.3830219471339L841.7499890625,224.66181038949858L842.6058609375,236.4260439286172L843.24776484375,234.56603952895688L844.0323140625,244.45842817455556L844.7930890625,221.1473464776808L845.53008984375,236.98850758763587L846.1719937500001,235.11798598153632L847.6459953125,248.1092612316036L848.4067703125,258.1723553493372L849.1437710937499,271.9598929551297L850.8317406250001,280.7370479194242L851.6400640625,250.23711521452762L852.4008390624999,260.2956851629201L853.18538828125,257.6162799415338L853.99371171875,221.4712718157523L855.586584375,188.40186208841223L856.3711335937501,182.54083343839014L857.1556828125,197.77299349648945L858.059103125,214.94785292458644L858.8198781250001,172.98653377040395L859.580653125,186.8631616974404L861.958075,153.14149716185287L862.7426242187499,134.46545947459734L863.55094765625,128.17450008408787" style="fill: none;" fill="none"></path></g></g></g></g><g opacity="0.20000000298023224"><g><g><g><path stroke="rgb(255, 112, 67)" stroke-width="2px" d="M119.84583671875,-453.0626393306351L120.79680546875,222.5205982162297L121.74777421875,428.91567637154003L125.55164921875,-396.9801735198271L126.50261796875,92.86012654085062L127.45358671875,0.23222463983012176L128.40455546875,-1363.0586376453575L129.35552421875002,-338.58922919679026L130.30649296875,12.155820384956314L131.25746171875002,62.62089073826792L132.20843046875,271.08031242437335L133.15939921875,231.42150929144555L134.11036796875,-415.5589170825357L135.06133671875,287.3308208867602L136.01230546875001,518.0537181044347L136.96327421874997,161.60106719636678L137.91424296875,475.85467225424753L141.71811796875,-143.78553187718114L142.66908671874998,333.76408110302634L143.62005546875,553.3999402936533L144.57102421874998,-53.36039791313914L145.52199296875,43.87104559259507L146.47296171874999,-202.43752707294095L147.42393046875,421.47950187662235L148.37489921875,196.40257202816673L149.32586796875,-263.66938812460285L150.27683671875,480.37361607543914L151.22780546875,111.21132112604391L152.17877421875,118.05996621364955L153.12974296875,9.272751381179319L154.08071171875,-468.73991350510914L166.44330546875,-156.05895485191536L167.39427421874998,343.65340804932447L168.34524296875,396.98080115620786L171.19814921875,488.9166176804635L172.14911796875,70.00281708777277L173.10008671875,-302.68560731345497L178.80589921875,-173.38397978915123L179.75686796875,237.47765495204416L180.70783671875,373.7740310150451L181.65880546875,110.7232710880902L182.60977421875,235.1711191098875L183.56074296875,139.40998361560196L184.51171171875,-260.88660488153494L187.36461796875,392.7086130883399L188.31558671875,4.029154968899093L189.26655546875,391.7730891590351L192.11946171875002,416.5014831248749L193.07043046875,250.04489761166286L194.02139921875002,534.9132902886134L194.97236796875,343.18896328545577L195.92333671875002,504.1131176662166L199.72721171875,-994.960632662318L200.67818046874999,36.99472661999846L201.62914921875,43.091338464742876L202.58011796875,240.5385332486573L203.53108671875,436.0782826007223L206.38399296875,-652.2629289110387L207.33496171875,289.09784426112554L208.28593046875,-278.94207376592385L209.23689921875,156.49246802702933L210.18786796875,237.06445269309916L211.13883671875,-284.59546360098466L213.99174296875,446.3817098326969L214.94271171875,348.69749591060344L215.89368046875,388.03037032122666L216.84464921875,29.946133131563897L217.79561796875,-43.201039826803026L218.74658671875,34.15358996645955L219.69755546875,499.86962979960424L220.64852421875,1.2161687043310963L221.59949296875,-357.07494452094636L223.50143046875002,399.46998463930504L224.45239921875,35.01400953768945L225.40336796875002,214.27370718060897L226.35433671874998,453.5114372872607L229.20724296875,-197.8552448765647L230.15821171874998,73.07810046624218L231.10918046875,546.6262346204373L233.01111796875,406.63748419782013L233.96208671875,220.95979110273765L234.91305546875,72.63803071365692L235.86402421875,-264.9117439628608L236.81499296875,207.05349895107793L237.76596171875,-1.4712404344366519L238.71693046875,42.41345657199656L239.66789921875,273.9025355353224L240.61886796875,118.80529174663877L241.56983671875,422.5777152609371L242.52080546875,336.60642734359135L243.47177421875,-45.128168538440775L244.42274296875001,116.46653690460516L245.37371171875,-355.3219230327619L247.27564921875,502.48473862294856L248.22661796875002,107.62229314885428L249.17758671875,165.1785124614277L250.12855546875002,507.7416038383635L255.83436796875,-703.3934187453124L256.78533671875,192.67385507653916L257.73630546875,397.2195296501765L261.54018046875,-27.522006253018276L262.49114921875,318.35412566131953L263.44211796875004,434.9396580134902L265.34405546875,-86.75343028843054L266.29502421875003,322.126680979105L267.24599296875004,537.3282491132911L268.19696171875,545.279726008402L269.14793046875,148.30865878752715L270.09889921875003,357.7507782969551L271.04986796875,569.779691297071L272.00083671874995,30.886751988039236L272.95180546874997,545.2413674380139L278.65761796875,-406.4475012106268L279.60858671874996,72.25044970717374L280.55955546875,527.900287982068L281.51052421875,41.81152208282822L282.46149296875,566.5574980761594L284.36343046875,455.9108730784368L285.31439921875,249.06762460288155L286.26536796875,-287.83195194129553L288.16730546875,-655.6529981495114L289.11827421875,92.65215088066668L290.06924296875,491.8303845367967L291.02021171875,57.80409527543816L291.97118046875,170.45223858690346L292.92214921875,-78.74288522687857L293.87311796874997,-206.94745397266524L294.82408671875,97.78175287927536L295.77505546875,509.2175932434196L296.72602421875,507.4683288058465L297.67699296874997,361.88701611392025L298.62796171875,365.9990988445158L299.57893046875,332.79193967556785L300.52989921875,507.15777650043435L306.23571171875,405.9926276963015L307.18668046875,172.6220544409589L308.13764921875,43.630374428554205L309.08861796875,532.850101363616L310.99055546875,495.5733049724428L311.94152421875003,77.0750158502924L312.89249296875,78.55811616089579L313.84346171875,549.1193767519835L318.59830546875,519.0414558736993L319.54927421875004,326.8824106241931L320.50024296875,-854.9279888923143L321.45121171875,498.3533208270116L322.40218046875003,271.83307875028066L323.35314921875005,433.51965782608147L329.05896171875,499.3924110636569L330.00993046875,128.25352262408705L330.96089921875,534.8888786231777L332.86283671875,423.0194161233L333.81380546875,57.221074328859686L334.76477421875,-252.93991135329998L339.51961796874997,-358.5914734184528L340.47058671875,348.91965672772983L341.42155546875,363.4354341239329L342.37252421874996,536.0669614053671L345.22543046875,440.60129503281985L346.17639921874996,347.8450669445762L347.12736796875,503.23635034305823L352.83318046875,541.6686139044481L353.78414921875,146.32335993617986L354.71134375,462.2998201148973L355.6623125,-201.90435577349854L356.61328125,40.10857016669371L357.56425,216.55102966337776L358.51521875,-213.70955860667652L359.4661875,-554.0340526127547L360.41715625,37.050074389980466L361.368125,290.19893499639636L362.31909375,576.9179408420459L364.22103125,-211.86233594706573L365.172,284.07714174901776L366.12296875,357.36195104929357L367.0739375,534.9817785721971L371.80500703125,408.8320049505298L372.75597578125,187.98681531287244L373.70694453125003,100.4770793149413L374.65791328125005,184.2718436683596L375.60888203125,-544.6277174313922L376.55985078125,290.10484378742694L377.51081953125004,477.4310940366219L378.46178828125,56.65044248576061L379.41275703125,26.80897754400212L380.3399515625,136.63944285940428L381.29092031249996,455.91211931961516L382.2418890625,332.5693023544615L383.1928578125,342.0104589805148L384.14382656249995,239.99267961251707L385.09479531249997,503.85290983899665L386.0457640625,220.54900801784487L386.9967328125,513.1912149136795L388.8986703125,-286.2104455515848L389.8496390625,357.5919925091657L390.8006078125,19.088000285667135L391.75157656249996,515.9908040855796L398.4083578125,435.712968991765L399.33555234375,330.32104661447136L400.28652109374997,471.393000546034L405.017590625,564.1575124726987L405.968559375,294.31534291696397L406.919528125,-218.47789728015778L407.870496875,328.50926852014044L408.82146562500003,137.96921885091191L409.772434375,572.8305721736427L410.723403125,162.3721239442748L411.674371875,603.2393700847928L412.62534062500004,495.62212830331435L413.576309375,157.54451550651478L414.527278125,-377.3537809759097L418.331153125,459.3006490836912L419.28212187500003,106.84265932930668L420.233090625,497.42985611381545L422.11125390625,492.7388210475474L423.06222265625,200.0683904544373L423.96564296875005,325.3357520134911L424.91661171875,453.5789725628844L426.79477499999996,-252.99745837242028L427.74574375,352.1418132944891L428.6491640625,-236.30515741228987L433.40400781249997,532.5033164286494L434.3549765625,162.45811458558455L435.3059453125,-24.08560616603063L436.2569140625,235.83741829050513L437.2078828125,240.50888003944178L438.1588515625,-234.23148539973295L441.93895234375,-399.2638738250971L442.866146875,76.69718484832265L443.79334140625,496.26617841348224L444.74431015625,-0.4353940902704494L445.69527890625,101.27899885909085L446.64624765625,-242.01521456681553L447.59721640625,-18.77178039793216L449.42783125,124.72515726896381L450.3788,453.2138422246887L451.30599453125,97.47290499194548L452.25696328125,488.9105330911807L453.20793203125004,-308.3524858765643L454.1351265625,30.72202822757629L455.06232109375,389.13439338868193L455.96574140625,179.0686767860728L456.91671015624996,39.55025411876943L457.86767890625,435.4685957583412L459.7458421875,-575.1890699244395L460.6968109375,24.055664239388193L461.6477796875,-138.83502206673927L462.5987484375,154.6441090886971L463.50216875,405.76449225234927L465.3565578125,576.5359770844037L466.3075265625,79.68574450243614L467.25849531250003,-195.84388492292783L468.2094640625,118.84062634946167L469.1604328125,-387.7412011978935L470.08762734375,453.0327890393734L470.9672734375,328.0518613535145L471.9182421875,386.21609974453895L484.898965625,400.0521625403805L485.82616015624995,344.40419505100726L486.72958046875,571.2705714515014L487.65677500000004,373.1436529036873L488.5601953125,-357.64733576335607L492.24519921875,533.0109397839345L493.14861953125,360.2449467447659L494.07581406249994,487.88157772764805L495.02678281249996,528.8906281961463L495.90642890625,181.92528149188487L496.85739765625004,96.86385959722975L497.76081796875,347.9454626677422L498.68801249999996,36.54036174801388L499.61520703125,549.040240437155L503.32398515625005,-300.1289801901148L504.22740546874996,17.50454090605001L505.1546,369.5049952042755L506.0580203125,-65.92456162396411L506.961440625,381.4471012963162L507.8648609375,355.3868787064397L508.79205546875,475.7515457967347L512.4770593750001,460.35086385556133L513.3804796875,71.19891538582067L514.3314484375001,-115.34821420195902L518.943646875,-156.91893457331753L519.8470671875,26.85758094995981L520.7980359375,497.1402699835223L521.72523046875,97.02909651582502L522.652425,99.48800366911746L523.5558453125,201.31452167038273L524.4354914062501,445.5341558689264L526.19478359375,-164.3870714890461L527.0744296875,161.04542690156086L528.00162421875,52.081135859300616L528.8812703125001,475.9268259530618L531.56775703125,465.3975908158063L532.51872578125,172.13752320162652L533.42214609375,551.5307617968114L535.2052125,470.27913583868457L536.08485859375,166.14453264545105L536.98827890625,564.7299037151085L537.93924765625,480.6263098014364L538.89021640625,285.8680636306866L539.7698625,459.64439172401643L541.576703125,489.6172434747156L542.5038976562499,118.160545207577L544.31073828125,232.46160751727925L545.26170703125,-58.98710352532123L546.11757890625,25.19296927713731L547.06854765625,528.1875649007659L547.9719679687499,-18.85417893231596L549.77880859375,179.91018281471284L550.7060031249999,152.68296532371946L551.63319765625,-297.4672289579612L552.51284375,-745.6748631298833L553.4162640625,206.67258900031447L554.3672328125,-730.7223148548023L555.270653125,-264.03321724039165L556.221621875,179.48946645454512L557.07749375,536.3466509145377L558.884334375,-201.75268089125655L559.7877546875,9.923435892914597L560.6436265625,-616.6982846282286L561.5708210937499,261.7515007751378L562.4504671875001,253.4118380800307L563.33011328125,-275.8463373704677L573.17263984375,535.6091876972181L574.0522859375001,205.60269094865606L574.97948046875,194.13199390942222L575.9304492187499,63.46488924926473L576.83386953125,175.40047583990236L577.6897414062499,145.90385316303824L578.5693875000001,-556.7401553691985L582.20684296875,418.6808107314537L583.11026328125,160.38048392457858L584.01368359375,554.679994927558L589.43420546875,433.2045970599356L590.3376257812499,348.31658595984L591.24104609375,25.94848466446757L592.1206921875,-5.438539263423706L593.879984375,445.7013171305177L594.7596304687501,82.91856742751645L596.61401953125,539.4879667483863L600.2039265625,515.7715939277139L601.13112109375,342.1071526342979L602.058315625,485.2066310006643L610.87855078125,530.215144316798L611.758196875,2.6069005511235446L612.6378429687501,506.0763323907995L623.169821875,-60.98482813430019L624.00191953125,260.56929440081393L624.8577914062499,531.8186901718789L625.76121171875,514.1337581131509L626.66463203125,92.57664332691638L627.544278125,0.647882726979617L628.40015,356.35476825223066L629.18469921875,-206.46369247053133L630.0643453125,-518.3370135318158L631.8711859375,42.237956490755664L632.79838046875,533.022137627464L638.02870859375,486.4146052440592L638.9559031250001,65.16454229169176L640.7627437499999,187.90247410841644L641.6661640625,-334.2605937343711L643.4730046875,496.09711113597103L644.3764249999999,29.127425985658192L645.232296875,408.47697283129435L646.06439453125,-177.24688759237085L646.9678148437499,184.83796705072504L647.7761382812499,434.6248538264105L659.90098984375,556.2373932048856L660.7806359374999,261.02255964822933L661.6602820312501,428.0009353465927L662.56370234375,56.54685785134399L663.3720257812499,-816.2387980503358L664.32299453125,-650.5299205900133L665.1550921875,340.0755962427405L666.0109640625001,-342.65578747022175L671.2888406249999,558.795376531861L673.0243585937501,98.98606170743972L674.712328125,-282.0308458724418L681.6781742187501,-186.64493893531233L682.5815945312501,274.7107595936686L683.5087890625,91.55575187689101L684.412209375,244.86302679186582L685.3156296875001,519.4792897229939L687.05114765625,598.3303985924516L687.95456796875,30.20080618178565L688.81043984375,405.41253908190754L693.0184765625,-482.3255551323964L693.85057421875,240.30182073306545L694.75399453125,516.2625946249282L699.0095796875,524.1089290841495L699.9367742187501,352.76771959926555L700.8401945312501,496.10237100682696L704.192359375,481.0276361150342L704.9769085937501,133.4231143028616L705.88032890625,-415.5592836240588L706.7124265625,245.46122255749896L707.5682984375,338.1471113274674L708.4241703125,98.75865934653359L709.30381640625,231.12241140862898L711.01556015625,-186.2967977967104L715.4137906249999,612.4992444370789L716.24588828125,211.00708912710252L717.91008359375,188.58618401137937L718.7897296875,55.64106043955928L719.66937578125,487.84946869022804L720.62034453125,211.96533863083704L721.4762164062499,-321.5340521288308L722.260765625,73.64191463701229L723.0690890625,-32.67587330045353L726.540125,544.4296795622747L727.3484484375,66.39802782509162L729.70209609375,547.287988686169L730.51041953125,387.61086354808504L731.3425171875,67.0194623232868L732.2459375,370.35878037393803L733.101809375,-640.9328372000504L734.6946820312501,531.4964085377287L735.59810234375,106.32906134719576L736.35887734375,515.1712172400184L737.190975,-29.07152388760005L737.92797578125,138.29225189518425L738.712525,518.2760438652465L740.40049453125,99.54643038789311L741.20881796875,438.41315210261143L741.9933671875,29.312676071412454L742.73036796875,549.4775061470889L745.8923390625,-60.669529116164426L747.5565343750001,290.41940972251666L748.43618046875,214.23159155960943L749.24450390625,479.55358938005037L752.5491203125,463.9035125865873L753.35744375,19.535400868713623L754.18954140625,19.7904404604584L754.99786484375,246.4430773353185L755.80618828125,459.774807197921L756.685834375,332.90897638388077L757.51793203125,329.8325567266899L758.30248125,386.1898553714879L760.8700968750001,428.42830443540396L761.6784203125001,211.76363083069737L762.4154210937501,553.5369168608207L763.1999703125,459.6882484172505L764.07961640625,240.69893181914813L764.93548828125,-310.8179907772719L766.575909375,232.60650138134469L767.45555546875,-904.6908389957484L774.9919828124999,573.8937808425053L775.7527578125,345.20314560882014L777.416953125,101.27335411963577L779.0336000000001,-388.40317518853897L779.81814921875,180.7911287112341L780.6026984375,-43.34025229726103L781.4823445312501,574.1597158810231L782.2431195312499,79.64256591101969L783.0514429687499,-315.72370921359584L783.8359921875,-555.2138764671787L784.76318671875,23.30095524340868L785.57151015625,446.8468693525356L786.356059375,547.5094530744016L787.1168343749999,247.24576661666651L787.99648046875,420.28604267754054L792.84642109375,-27.45089719754469L793.7260671875,86.3263039674008L795.3427140625,565.4217508398833L796.9118125,-506.5994742637946L797.64881328125,339.66397011234466L798.5046851562499,576.0400738943184L800.0500093750001,-20.320638257772487L800.90588125,20.1775816171139L801.66665625,574.2043148208413L804.06785234375,-623.6987878688378L804.87617578125,208.05118832269363L805.5894023437501,-18.536607356737193L819.4259976562499,543.7488653373439L821.0188703125,213.68936668454748L821.82719375,523.3551364419776L822.6830656249999,101.8754352254133L823.46761484375,171.61567803524667L824.2521640625,215.0173099684398L825.17935859375,405.8465608993623L825.9639078125,473.27086607697254L826.77223125,166.06799877543622L828.8168140625,184.8260177970733L830.31458984375,537.2340479418648L831.9550109375,383.79516629303544L832.83465703125,118.98621664242091L833.6667546875001,273.0497033736198L834.5701750000001,52.05166592084663L835.426046875,462.9478288735142L838.4929210937499,384.9557100633465L839.32501875,251.93786465335143L840.8941171875,-254.87187841304205L842.6058609375,492.0307544603772L843.24776484375,194.15321666360737L844.0323140625,459.39305420165454L845.53008984375,581.173735340295L846.1719937500001,194.47665290355508L847.6459953125,530.374241664882L852.4008390624999,478.8409776779942L853.18538828125,199.40011194959516L853.99371171875,-563.8611774625897L855.586584375,-530.1062219874293L856.3711335937501,55.19666549700196L857.1556828125,528.7262893042825" style="fill: none;" fill="none"></path></g></g></g></g></g></g><g transform="translate(78, 377)" clip-path="url(#clip_1)"><clipPath id="clip_1"><rect width="950" height="22"></rect></clipPath><g><g><line x1="0" y1="0" x2="0" y2="5" style="visibility: inherit;" fill="rgb(0, 0, 0)" stroke="rgb(204, 204, 204)" stroke-width="1px"></line><line x1="118.87109375" y1="0" x2="118.87109375" y2="5" style="visibility: inherit;" fill="rgb(0, 0, 0)" stroke="rgb(204, 204, 204)" stroke-width="1px"></line><line x1="237.7421875" y1="0" x2="237.7421875" y2="5" style="visibility: inherit;" fill="rgb(0, 0, 0)" stroke="rgb(204, 204, 204)" stroke-width="1px"></line><line x1="356.61328125" y1="0" x2="356.61328125" y2="5" style="visibility: inherit;" fill="rgb(0, 0, 0)" stroke="rgb(204, 204, 204)" stroke-width="1px"></line><line x1="475.484375" y1="0" x2="475.484375" y2="5" style="visibility: inherit;" fill="rgb(0, 0, 0)" stroke="rgb(204, 204, 204)" stroke-width="1px"></line><line x1="594.35546875" y1="0" x2="594.35546875" y2="5" style="visibility: inherit;" fill="rgb(0, 0, 0)" stroke="rgb(204, 204, 204)" stroke-width="1px"></line><line x1="713.2265625" y1="0" x2="713.2265625" y2="5" style="visibility: inherit;" fill="rgb(0, 0, 0)" stroke="rgb(204, 204, 204)" stroke-width="1px"></line><line x1="832.09765625" y1="0" x2="832.09765625" y2="5" style="visibility: inherit;" fill="rgb(0, 0, 0)" stroke="rgb(204, 204, 204)" stroke-width="1px"></line><line x1="950.96875" y1="0" x2="950.96875" y2="5" style="visibility: inherit;" fill="rgb(0, 0, 0)" stroke="rgb(204, 204, 204)" stroke-width="1px"></line></g><g transform="translate(0, 8)"><text x="0" y="0" dx="0em" dy="0.95em" style="text-anchor: middle; visibility: hidden; font-family: &quot;Helvetica Neue&quot;, sans-serif; font-size: 12px; font-weight: 200;" fill="rgb(50, 49, 63)" stroke="none" stroke-width="1px">-5k</text><text x="118.87109375" y="0" dx="0em" dy="0.95em" style="text-anchor: middle; visibility: inherit; font-family: &quot;Helvetica Neue&quot;, sans-serif; font-size: 12px; font-weight: 200;" fill="rgb(50, 49, 63)" stroke="none" stroke-width="1px">0</text><text x="237.7421875" y="0" dx="0em" dy="0.95em" style="text-anchor: middle; visibility: inherit; font-family: &quot;Helvetica Neue&quot;, sans-serif; font-size: 12px; font-weight: 200;" fill="rgb(50, 49, 63)" stroke="none" stroke-width="1px">5k</text><text x="356.61328125" y="0" dx="0em" dy="0.95em" style="text-anchor: middle; visibility: inherit; font-family: &quot;Helvetica Neue&quot;, sans-serif; font-size: 12px; font-weight: 200;" fill="rgb(50, 49, 63)" stroke="none" stroke-width="1px">10k</text><text x="475.484375" y="0" dx="0em" dy="0.95em" style="text-anchor: middle; visibility: inherit; font-family: &quot;Helvetica Neue&quot;, sans-serif; font-size: 12px; font-weight: 200;" fill="rgb(50, 49, 63)" stroke="none" stroke-width="1px">15k</text><text x="594.35546875" y="0" dx="0em" dy="0.95em" style="text-anchor: middle; visibility: inherit; font-family: &quot;Helvetica Neue&quot;, sans-serif; font-size: 12px; font-weight: 200;" fill="rgb(50, 49, 63)" stroke="none" stroke-width="1px">20k</text><text x="713.2265625" y="0" dx="0em" dy="0.95em" style="text-anchor: middle; visibility: inherit; font-family: &quot;Helvetica Neue&quot;, sans-serif; font-size: 12px; font-weight: 200;" fill="rgb(50, 49, 63)" stroke="none" stroke-width="1px">25k</text><text x="832.09765625" y="0" dx="0em" dy="0.95em" style="text-anchor: middle; visibility: inherit; font-family: &quot;Helvetica Neue&quot;, sans-serif; font-size: 12px; font-weight: 200;" fill="rgb(50, 49, 63)" stroke="none" stroke-width="1px">30k</text><text x="950.96875" y="0" dx="0em" dy="0.95em" style="text-anchor: middle; visibility: hidden; font-family: &quot;Helvetica Neue&quot;, sans-serif; font-size: 12px; font-weight: 200;" fill="rgb(50, 49, 63)" stroke="none" stroke-width="1px">35k</text></g><line x1="0" y1="0" x2="950.96875" y2="0" fill="rgb(0, 0, 0)" stroke="rgb(204, 204, 204)" stroke-width="1px"></line></g></g></g></g></svg>