<svg viewBox="0 0 1029 400" xmlns="http://www.w3.org/2000/svg"><g><g><g><g><g><line x1="68.3125" y1="377.828125" x2="63.3125" y2="377.828125" style="visibility: inherit;" fill="rgb(0, 0, 0)" stroke="rgb(204, 204, 204)" stroke-width="1px"></line><line x1="68.3125" y1="323.85267857142856" x2="63.3125" y2="323.85267857142856" style="visibility: inherit;" fill="rgb(0, 0, 0)" stroke="rgb(204, 204, 204)" stroke-width="1px"></line><line x1="68.3125" y1="269.87723214285717" x2="63.3125" y2="269.87723214285717" style="visibility: inherit;" fill="rgb(0, 0, 0)" stroke="rgb(204, 204, 204)" stroke-width="1px"></line><line x1="68.3125" y1="215.90178571428572" x2="63.3125" y2="215.90178571428572" style="visibility: inherit;" fill="rgb(0, 0, 0)" stroke="rgb(204, 204, 204)" stroke-width="1px"></line><line x1="68.3125" y1="161.92633928571433" x2="63.3125" y2="161.92633928571433" style="visibility: inherit;" fill="rgb(0, 0, 0)" stroke="rgb(204, 204, 204)" stroke-width="1px"></line><line x1="68.3125" y1="107.95089285714283" x2="63.3125" y2="107.95089285714283" style="visibility: inherit;" fill="rgb(0, 0, 0)" stroke="rgb(204, 204, 204)" stroke-width="1px"></line><line x1="68.3125" y1="53.9754464285715" x2="63.3125" y2="53.9754464285715" style="visibility: inherit;" fill="rgb(0, 0, 0)" stroke="rgb(204, 204, 204)" stroke-width="1px"></line><line x1="68.3125" y1="0" x2="63.3125" y2="0" style="visibility: inherit;" fill="rgb(0, 0, 0)" stroke="rgb(204, 204, 204)" stroke-width="1px"></line></g><g transform="translate(58.3125, 0)"><text x="0" y="377.828125" dx="0em" dy="0.3em" style="text-anchor: end; visibility: hidden; font-family: &quot;Helvetica Neue&quot;, sans-serif; font-size: 12px; font-weight: 200;" fill="rgb(50, 49, 63)" stroke="none" stroke-width="1px">2.5e-3</text><text x="0" y="323.85267857142856" dx="0em" dy="0.3em" style="text-anchor: end; visibility: inherit; font-family: &quot;Helvetica Neue&quot;, sans-serif; font-size: 12px; font-weight: 200;" fill="rgb(50, 49, 63)" stroke="none" stroke-width="1px">3e-3</text><text x="0" y="269.87723214285717" dx="0em" dy="0.3em" style="text-anchor: end; visibility: inherit; font-family: &quot;Helvetica Neue&quot;, sans-serif; font-size: 12px; font-weight: 200;" fill="rgb(50, 49, 63)" stroke="none" stroke-width="1px">3.5e-3</text><text x="0" y="215.90178571428572" dx="0em" dy="0.3em" style="text-anchor: end; visibility: inherit; font-family: &quot;Helvetica Neue&quot;, sans-serif; font-size: 12px; font-weight: 200;" fill="rgb(50, 49, 63)" stroke="none" stroke-width="1px">4e-3</text><text x="0" y="161.92633928571433" dx="0em" dy="0.3em" style="text-anchor: end; visibility: inherit; font-family: &quot;Helvetica Neue&quot;, sans-serif; font-size: 12px; font-weight: 200;" fill="rgb(50, 49, 63)" stroke="none" stroke-width="1px">4.5e-3</text><text x="0" y="107.95089285714283" dx="0em" dy="0.3em" style="text-anchor: end; visibility: inherit; font-family: &quot;Helvetica Neue&quot;, sans-serif; font-size: 12px; font-weight: 200;" fill="rgb(50, 49, 63)" stroke="none" stroke-width="1px">5e-3</text><text x="0" y="53.9754464285715" dx="0em" dy="0.3em" style="text-anchor: end; visibility: inherit; font-family: &quot;Helvetica Neue&quot;, sans-serif; font-size: 12px; font-weight: 200;" fill="rgb(50, 49, 63)" stroke="none" stroke-width="1px">5.5e-3</text><text x="0" y="0" dx="0em" dy="0.3em" style="text-anchor: end; visibility: hidden; font-family: &quot;Helvetica Neue&quot;, sans-serif; font-size: 12px; font-weight: 200;" fill="rgb(50, 49, 63)" stroke="none" stroke-width="1px">6e-3</text></g><line x1="68.3125" y1="0" x2="68.3125" y2="377.828125" fill="rgb(0, 0, 0)" stroke="rgb(204, 204, 204)" stroke-width="1px"></line></g></g><g transform="translate(68, 0)" clip-path="url(#clip_0)"><clipPath id="clip_0"><rect width="960" height="377"></rect></clipPath><g><g><g><line x1="0" y1="0" x2="0" y2="377.828125" fill="rgb(0, 0, 0)" stroke="rgb(60, 60, 60)" stroke-width="1px" opacity="0.25"></line><line x1="120.0859375" y1="0" x2="120.0859375" y2="377.828125" fill="rgb(0, 0, 0)" stroke="rgb(60, 60, 60)" stroke-width="1px" opacity="0.25"></line><line x1="240.171875" y1="0" x2="240.171875" y2="377.828125" fill="rgb(0, 0, 0)" stroke="rgb(60, 60, 60)" stroke-width="1px" opacity="0.25"></line><line x1="360.2578125" y1="0" x2="360.2578125" y2="377.828125" fill="rgb(0, 0, 0)" stroke="rgb(60, 60, 60)" stroke-width="1px" opacity="0.25"></line><line x1="480.34375" y1="0" x2="480.34375" y2="377.828125" fill="rgb(0, 0, 0)" stroke="rgb(60, 60, 60)" stroke-width="1px" opacity="0.25"></line><line x1="600.4296875" y1="0" x2="600.4296875" y2="377.828125" fill="rgb(0, 0, 0)" stroke="rgb(60, 60, 60)" stroke-width="1px" opacity="0.25"></line><line x1="720.515625" y1="0" x2="720.515625" y2="377.828125" fill="rgb(0, 0, 0)" stroke="rgb(60, 60, 60)" stroke-width="1px" opacity="0.25"></line><line x1="840.6015625" y1="0" x2="840.6015625" y2="377.828125" fill="rgb(0, 0, 0)" stroke="rgb(60, 60, 60)" stroke-width="1px" opacity="0.25"></line><line x1="960.6875" y1="0" x2="960.6875" y2="377.828125" fill="rgb(0, 0, 0)" stroke="rgb(60, 60, 60)" stroke-width="1px" opacity="0.25"></line></g><g><line x1="0" y1="377.828125" x2="960.6875" y2="377.828125" fill="rgb(0, 0, 0)" stroke="rgb(60, 60, 60)" stroke-width="1px" opacity="0.25"></line><line x1="0" y1="323.85267857142856" x2="960.6875" y2="323.85267857142856" fill="rgb(0, 0, 0)" stroke="rgb(60, 60, 60)" stroke-width="1px" opacity="0.25"></line><line x1="0" y1="269.87723214285717" x2="960.6875" y2="269.87723214285717" fill="rgb(0, 0, 0)" stroke="rgb(60, 60, 60)" stroke-width="1px" opacity="0.25"></line><line x1="0" y1="215.90178571428572" x2="960.6875" y2="215.90178571428572" fill="rgb(0, 0, 0)" stroke="rgb(60, 60, 60)" stroke-width="1px" opacity="0.25"></line><line x1="0" y1="161.92633928571433" x2="960.6875" y2="161.92633928571433" fill="rgb(0, 0, 0)" stroke="rgb(60, 60, 60)" stroke-width="1px" opacity="0.25"></line><line x1="0" y1="107.95089285714283" x2="960.6875" y2="107.95089285714283" fill="rgb(0, 0, 0)" stroke="rgb(60, 60, 60)" stroke-width="1px" opacity="0.25"></line><line x1="0" y1="53.9754464285715" x2="960.6875" y2="53.9754464285715" fill="rgb(0, 0, 0)" stroke="rgb(60, 60, 60)" stroke-width="1px" opacity="0.25"></line><line x1="0" y1="0" x2="960.6875" y2="0" fill="rgb(0, 0, 0)" stroke="rgb(60, 60, 60)" stroke-width="1px" opacity="0.25"></line></g></g></g><g><g><line x1="0" y1="647.7053571428571" x2="960.6875" y2="647.7053571428571" fill="rgb(0, 0, 0)" stroke="rgb(153, 153, 153)" stroke-width="1.5px"></line></g></g><g><g><line x1="120.0859375" y1="0" x2="120.0859375" y2="377.828125" fill="rgb(0, 0, 0)" stroke="rgb(153, 153, 153)" stroke-width="1.5px"></line></g></g><g><g><g><g><g><path stroke="rgb(255, 112, 67)" stroke-width="2px" d="M140.28439218749998,-11.812988117803627L141.24507968749998,6.784156387004316L142.2057671875,5.029105426862429L143.1664546875,14.538627172441522L144.1271421875,15.787418407904568L145.0878296875,21.880137497978694L146.04851718749998,30.88618511750292L147.0092046875,40.712106968850264L147.9698921875,45.05923689520978L148.9305796875,51.98889226636152L149.8912671875,61.00566368133002L150.8519546875,60.5916944625734L151.8126421875,56.8546621870189L152.7733296875,65.03327231390529L153.7340171875,58.92770756323023L154.6947046875,64.86302266508744L155.6553921875,66.76425036009732L156.6160796875,73.7197401627592L157.5767671875,76.58190489541619L158.5374546875,88.54958484087729L159.4981421875,87.35451524252062L160.4588296875,81.35396034764585L161.41951718750002,79.38287571668286L162.3802046875,84.11669636908857L163.3408921875,77.09920465074538L164.3015796875,78.7984667087112L165.26226718750002,81.2429644545623L166.22295468750002,90.15314506326257L167.1836421875,101.66759900763532L168.14432968749998,100.52527587926471L169.10501718749998,106.78363466543323L170.0657046875,115.7134027858014L171.0263921875,121.82159958533538L171.9870796875,130.77228901309869L172.94776718749998,128.02762853014642L173.90845468749998,130.77265474653964L174.8691421875,129.62494932114703L175.8298296875,126.33435905918768L176.7905171875,134.07994293367926L177.7512046875,134.5322828410788L178.71189218749998,140.30760275072961L179.6725796875,144.0995429268486L180.6332671875,146.07691732984836L181.5939546875,149.90723633214915L182.5546421875,156.2246475786692L183.5153296875,156.70596043136786L184.4760171875,162.32029390670547L185.4367046875,163.68924802507533L186.3973921875,161.86884419511915L187.3580796875,160.4405894186572L188.31876718750001,149.41692193632497L189.2794546875,150.55865855288093L190.2401421875,149.90684351260936L191.2008296875,158.10175166993025L192.1615171875,159.75251865251218L193.12220468750002,165.65579840306987L194.08289218750002,172.76066262642254L195.0435796875,176.75113459800136L196.0042671875,182.27915217518006L196.9649546875,182.17210990947032L197.92564218750002,184.29263381836506L198.8863296875,188.68843760838496L199.8470171875,192.27866658165686L200.80770468749998,191.69106266271308L201.76839218749998,181.2465153461933L202.7290796875,181.8257467445528L203.6897671875,184.39673843532006L204.6504546875,182.76874050576055L205.61114218749998,177.87665965270378L206.57182968749999,183.96297490215926L207.5325171875,177.38894461709546L208.4932046875,172.67163129736957L209.4538921875,172.85976347186335L210.4145796875,162.16555000428286L211.3752671875,166.05040335365896L212.3359546875,166.27761716413414L213.2966421875,165.48048288017122L214.2573296875,168.16553617948784L215.2180171875,172.23288836893173L216.17870468750002,177.4322901514593L217.1393921875,183.3098022775815L218.1000796875,189.59460965357368L219.0607671875,186.17611951828604L220.0214546875,184.20215499257588L220.98214218750002,183.4926800339012L221.9428296875,187.29506680059592L222.9035171875,187.7478777730872L223.8642046875,185.01226544232244L224.8248921875,181.2190249961557L225.78557968750002,186.12814296825255L226.74626718750002,189.20944418716618L227.7069546875,194.71787123105108L228.66764218749998,195.16657817370148L229.62832968749998,186.09478757931245L230.5890171875,181.31742091808255L231.5497046875,184.00198834121414L232.5103921875,178.13233740381014L233.47107968749998,186.5431164544516L234.4317671875,179.50284586760756L235.3924546875,183.71630008408792L236.3531421875,185.37302629277235L237.3138296875,191.3655552166664L238.2745171875,187.25961697809333L239.2352046875,193.2604864627636L240.1958921875,186.87103583084271L241.1565796875,193.07886101199867L242.1172671875,195.8002053491336L243.0779546875,198.01045955175874L244.0386421875,203.9924216782852L244.9993296875,199.2513378753443L245.9600171875,200.19500895124457L246.9207046875,199.87300490907515L247.8813921875,183.95913744487117L248.84207968750002,186.4671183222843L249.8027671875,186.40930466153287L250.7634546875,186.62989511737845L251.7241421875,189.30419895879234L252.6848296875,194.0256365115925L253.64551718750002,193.59410624561897L254.6062046875,194.4631901694296L255.5668921875,202.03956493214775L256.5275796875,207.7394121362262L257.4882671875,197.33698254082933L258.4489546875,193.8112208270553L259.4096421875,188.0899115877692L260.37032968750003,191.7387296342954L261.33101718750004,190.5286090267829L262.29170468750004,189.26543929057843L263.2523921875,197.83973379821595L264.2130796875,197.40796549896555L265.1737671875,199.91639980187082L266.1344546875,206.53568939124804L267.0951421875,192.44121771098045L268.0558296875,192.70992440851597L269.0165171875,196.44095815399461L269.97720468750003,203.46552020797395L270.93789218750004,208.80018597423458L271.89857968750005,211.11480391592224L272.85926718750005,206.90213703940154L273.8199546875,209.32587170602352L274.78064218749995,212.34429272931953L275.74132968749996,215.50816060786693L276.70201718749996,219.2326481537871L277.66270468749997,219.98553770338836L278.6233921875,222.7355282500695L279.5840796875,228.34940973012434L280.5447671875,226.0006216973047L281.5054546875,222.85143900245194L282.4661421875,223.313992100184L283.4268296875,222.77717529066203L284.3875171875,225.0205450994827L285.34820468749996,229.07757569189414L286.30889218749996,219.91128257224295L287.26957968749997,221.36133247195525L288.2302671875,223.1631469488836L289.1909546875,220.33100062271834L290.1516421875,219.21789815466983L291.1123296875,207.5861512464999L292.0730171875,207.18942287332348L293.0337046875,204.4210684762296L293.9943921875,206.82182366011403L294.9550796875,206.52762638396183L295.91576718749997,207.50707725961595L296.8764546875,206.68178961858374L297.8371421875,209.24060909465217L298.7978296875,210.2095150883009L299.7585171875,216.89121380250472L300.7192046875,219.97026050623796L301.6798921875,223.02192547337842L302.6405796875,197.09571539383114L303.6012671875,193.4164258920836L304.5619546875,198.68063705130143L305.5226421875,203.33353607530935L306.4833296875,206.78539282979438L307.4440171875,206.60345597273945L308.4047046875,203.1689194490309L309.3653921875,207.39102865684063L310.3260796875,206.0942378112816L311.2867671875,207.1942471524554L312.2474546875,213.30309020015974L313.2081421875,215.61211059837947L314.1688296875,217.8120349254595L315.1295171875,218.86087293654145L316.09020468750003,214.02110323192002L317.05089218750004,213.61857067874024L318.0115796875,219.46148921082343L318.9722671875,222.36192536210578L319.9329546875,223.77437384419306L320.8936421875,218.38250557467265L321.8543296875,219.39375055254908L322.8150171875,222.29628128373753L323.7757046875,210.17039839751897L324.73639218750003,215.0525141837949L325.69707968750004,219.28863490588236L326.65776718750004,219.46141796223753L327.61845468750005,224.94555062172196L328.5791421875,229.68575229008516L329.5398296875,232.26329842861392L330.5005171875,222.45337091773186L331.4612046875,224.351122738989L332.4218921875,225.60334166766165L333.38257968749997,226.4129971656285L334.3432671875,230.33777305418525L335.3039546875,227.9898122486222L336.2646421875,230.13329284533378L337.2253296875,229.5311016785136L338.1860171875,228.9913631549131L339.1467046875,233.83311065268936L340.10739218749995,231.96505256469595L341.06807968749996,238.48825685286513L342.02876718749997,239.4766523775039L342.9894546875,237.94224410581833L343.9501421875,236.45542228239032L344.9108296875,242.1395902633001L345.8715171875,247.60734461568507L346.8322046875,242.58855662896062L347.7928921875,247.36360540026666L348.7535796875,247.23714938927145L349.7142671875,249.10728132644738L350.67495468749996,252.8485212009764L351.63564218749997,255.41462879005917L352.5963296875,255.87542149019924L353.5570171875,259.9393281348228L354.5177046875,259.27493749447814L355.4783921875,260.2372293474431L356.4390796875,260.13800097000166L357.3997671875,261.50994773980926L358.3364375,260.66702068556503L359.297125,258.0888430177689L360.2578125,258.5297342628803L361.2185,256.9385530228991L362.1791875,253.87760976324583L363.139875,250.6525999423161L364.1005625,249.79475759460655L365.06125000000003,248.48411627191786L366.0219375,249.06613316157737L366.982625,247.37239546439028L367.9433125,238.75131089791066L368.904,242.33725219298262L369.8646875,244.17428150454828L370.825375,247.24800729061593L371.7860625,243.82391702629113L372.7227328125,244.47647670658463L373.6834203125,243.05685258378975L374.6441078125,231.72377189595687L375.6047953125,234.94679567874852L376.5654828125,230.28249115118544L377.5261703125,228.59170753409606L378.48685781250003,231.22581889358005L379.44754531250004,227.4290296005391L380.40823281250005,228.93773749023487L381.3689203125,232.97584349461522L382.3296078125,237.28636898241666L383.2902953125,239.73685346860256L384.22696562500005,241.60939229734365L385.187653125,244.69956423979477L386.148340625,243.15365593270616L387.10902812499995,246.00757467819415L388.06971562499996,247.42330669785412L389.03040312499996,247.18073192461006L389.99109062499997,249.28914062203853L390.951778125,254.88040708807847L391.912465625,254.86192489147692L392.873153125,251.6996794889223L393.833840625,253.05130533449096L394.794528125,250.17849729424898L395.755215625,250.382664381863L396.715903125,252.81199766640623L397.67659062499996,257.8330682844712L398.63727812499997,255.71501575453314L399.597965625,253.94445756371675L400.558653125,248.12871879541834L401.519340625,253.40319849882138L402.480028125,256.406332028275L403.4166984375,257.2776396586633L404.3773859375,255.32577594982558L405.3380734375,257.62533647277564L406.2987609375,252.3370964752947L407.23543125,252.92503758157585L408.19611875,253.42844402380058L409.15680625,256.8688357252003L410.11749375,258.0303476420081L411.07818125,253.0467961744367L412.03886875,256.0129693744358L412.99955625,252.30039132581584L413.96024375,258.12484828143613L414.92093125,259.8337074454838L415.88161875000003,263.1717264341904L416.84230625000004,266.88656673420985L417.80299375,268.9832498469792L418.76368125,261.06232885663945L419.72436875,256.29736736229114L420.68505625,255.81366733660275L421.64574375,253.91704111247506L422.60643125,257.6617797145113L423.56711875,258.6475495545884L424.52780625,257.1113726822448L425.48849375000003,263.49858196282617L426.4251640625,266.1061350598621L427.3858515625,266.48351154973807L428.29850468750004,267.8045318176817L429.25919218750005,273.6488374119374L430.1958625,280.1689909385615L431.15655,272.0392823770475L432.1172375,275.49238639546314L433.029890625,272.6035621595616L433.990578125,270.27519656385977L434.95126562499996,271.39391927765985L435.91195312499997,265.6858035311933L436.872640625,260.5449291884071L437.833328125,265.7030394798395L438.794015625,266.25951409745596L439.754703125,262.58721362354413L440.715390625,265.68035822084465L441.676078125,256.91220258958504L442.636765625,252.6571869385151L443.597453125,258.160976298697L444.558140625,260.8744509338187L445.4948109375,262.72961551585075L446.4554984375,257.99309044424155L447.39216875,258.6656039818121L448.3288390625,264.61769655175027L449.2895265625,265.3811582013507L450.2502140625,267.6049725585324L451.2109015625,266.2558344578482L452.1715890625,266.8315919766759L454.0209125,267.6312878902581L454.9816,271.5826256761767L455.9182703125,269.2084487213104L456.8789578125,272.1153374652856L457.8396453125,266.38248098976055L458.776315625,267.1358619559794L459.7129859375,265.7959086911358L460.6256390625,266.5156440989999L461.5863265625,264.43928221679414L462.5470140625,266.65751020507753L463.50770156249996,267.82420843911405L464.444371875,264.41003276424254L465.405059375,265.5190189742272L466.365746875,262.4954202285753L467.326434375,263.822645653372L468.2390875,265.04870104325266L469.151740625,269.25992098696224L470.112428125,271.9704998952L471.073115625,273.19869849495444L472.033803125,266.2718342860269L472.994490625,266.0700414265746L473.95517812500003,259.2154007321351L474.8918484375,263.62559280872813L475.780484375,265.59621192904984L476.741171875,265.1655198718627L477.701859375,268.3399996672913L478.6145125,273.85771220965256L480.48785312499996,277.23754451368643L481.42452343750006,269.36080843596176L482.3371765625,271.0106599158318L483.2978640625,266.65810902258966L484.25855156250003,269.8680125565404L485.195221875,275.320828143202L486.13189218749994,277.82471259002915L487.09257968749995,281.8280964759597L487.981215625,273.25467472080834L488.9178859375,274.81125105848236L489.85455625000003,276.2613987473797L490.79122656249996,278.72040008081353L491.7038796875,280.47381808692353L492.64055,282.4828988063434L493.55320312500004,276.1269510917149L494.46585625000006,278.90139853491496L495.4025265625,277.75752707367656L496.339196875,274.57101384320595L497.2758671875,276.5417922833517L498.18852031250003,276.8240237002467L499.12519062499996,278.67740783981276L500.08587812499997,270.71018342183953L500.9745140625,270.3981840387433L501.9352015625,272.05229062997955L502.84785468750005,274.0151636898367L503.784525,273.08653097946876L504.7211953125,278.5428931327967L505.657865625,275.2893543570865L506.59453593750004,273.5877202269617L507.53120624999997,277.79464119805004L508.46787656250007,276.304215499062L509.3805296875,276.31128734724604L510.3172,280.48827173640154L511.22985312500003,279.8448316636776L512.14250625,282.2403034389326L513.055159375,274.7746189893877L513.9918296875,278.27093941969196L514.880465625,271.47575418383246L515.841153125,276.4544799487562L516.75380625,273.4677727707825L517.7144937500001,277.7114588258216L518.627146875,278.08700155817917L519.587834375,278.2165013393623L520.5245046875,279.14524611525997L521.4371578125,278.73281480592715L522.3738281249999,270.7123560045483L523.3104984375,273.7242504351446L524.24716875,269.54682938113075L525.1598218749999,271.9307836356585L526.120509375,252.44879424681636L527.0571796875,254.3309600031858L527.99385,252.72671890345276L528.906503125,253.69922368089772L529.7951390625001,258.0260469748569L530.683775,263.7121106500105L531.5724109375,261.02525478314624L532.461046875,261.50154511130313L533.3977171875,264.47314593113754L534.286353125,267.0009833911981L535.19900625,265.1280006077723L536.1356765625,270.01032175502445L537.0002953125,275.23865001308775L537.9609828125,278.0681917717808L538.8736359375,280.68547545775243L539.762271875,282.19134573567794L540.6749249999999,280.33189439220513L541.5635609375,282.38316503878883L542.4762140625,287.0598964667409L543.4369015625,289.06308847335106L544.3975890625001,287.16611116604713L545.286225,292.1780867458599L546.198878125,294.0629312237117L547.11153125,297.0343138606703L548.0482015624999,297.135759436647L549.8735078125,299.3573634658837L550.8341953125,295.07356414254616L551.6988140625,292.8661698937192L552.6595015624999,292.7794983417319L553.5721546875,292.8431112356972L555.3974609375,291.8355814044693L556.3341312499999,293.43128069330623L557.2708015625,286.2419498678443L558.1594375,278.7391437613146L559.072090625,279.1929230915097L560.0327781249999,272.77046398151896L560.94543125,271.497588626744L561.90611875,271.25062555577415L562.7707375,271.6886163657472L563.6593734375,269.4356860152469L564.59604375,265.7231446791691L565.508696875,266.31829282965236L566.373315625,248.75261703430448L567.3099859375,251.43020747600013L568.1986218750001,255.15805185578992L569.0872578125,252.7931285154182L569.9758937500001,248.03704108112711L570.8645296875,254.4596347447689L571.7771828125,258.9015919651148L572.713853125,256.57534484954L573.6024890625,255.35699073505702L574.5631765625001,262.6260677656022L575.4758296875,265.1516175562823L576.364465625,268.64713139838045L578.1177203125,259.04730321161725L579.0303734375,265.48118525185515L579.919009375,264.63289178357337L580.8556796875,267.89529366252486L581.8163671875,265.7485219781379L582.7290203125,256.04873403179647L583.5936390625,256.5018991326656L584.4822750000001,251.94382866162283L585.4189453125,255.31209907432586L586.2835640625,256.9551516423844L587.220234375,260.88723831921084L588.1569046875001,267.20297262888795L589.0695578125001,270.2573288301513L589.9822109375,274.9091455032647L590.870846875,275.12504784556836L591.7835,269.5178462283661L592.7441875,263.5966903862478L593.6328234375,264.3079365095063L594.56949375,258.7419287603633L595.4581296875,257.3709202058625L596.3707828125,250.3449989827963L597.2834359374999,252.42176501847555L598.172071875,245.39767584797772L599.084725,247.44478332282375L599.94934375,253.407877403516L600.8379796875,254.29927843401526L602.7113203125,258.60014719352864L603.6720078125,250.95838730905407L605.4492796875,250.708695914474L606.3379156249999,253.27878527813192L607.2745859375001,255.1821399184965L608.21125625,260.6227047455413L609.17194375,259.8271995839513L610.084596875,264.9819250158104L610.9732328125,250.82313322125975L611.86186875,255.4219811631963L612.7264875000001,260.317622586582L613.59110625,253.7571378404529L615.4404296875,257.66500861946935L617.1216328125,261.31329207604267L618.01026875,260.1044516254611L618.8989046875,264.5398956928113L620.652159375,269.97122559150495L621.5648125,276.26791472328574L622.477465625,271.0131345656752L623.39011875,269.14044521248417L624.3267890625,274.05145321427824L625.1914078125,278.31998292220226L626.0320093749999,282.80325783843676L626.8726109375,283.23908818197515L627.7852640625,281.4262853732866L628.6979171875,277.3345992941955L629.53851875,273.25992106031697L630.3791203124999,275.47260529585157L631.2437390624999,271.84349508828575L632.1563921874999,270.4654154327481L633.0690453125,273.2194273881968L633.9576812500001,273.7961617248096L634.8223,276.0701187616111L635.6148671875001,274.5495044183932L636.503503125,270.086400986576L638.328809375,269.6657284387878L639.2654796875,265.57662478937925L640.0820640625,266.74538037957285L640.8506140625,266.24642045031374L641.8113015624999,269.1789505601831L642.7479718750001,270.8850943005816L643.6366078125,267.90861821670876L644.5492609375,271.9668801892933L645.48593125,274.94197895529953L647.3112375,275.126721979901L648.223890625,272.4585059581585L649.13654375,276.8694727496852L650.049196875,280.08624777806745L650.96185,281.4164799953452L651.82646875,278.99329535140987L652.6670703125,275.88226854351825L653.5797234375,272.0818520733834L654.3963078125,275.78635000100064L656.101528125,274.1108787815367L656.9661468749999,279.4164580050031L658.7434187499999,281.83829394861596L659.6080375,280.4691764293948L660.4486390625,274.6029831408347L661.3132578125,277.70024074132084L662.2259109375,271.01462451212774L663.114546875,274.1474818880828L664.0272,274.87335804438203L664.8197671875,274.4216533381529L665.7324203125,277.7861640834003L666.6450734375001,281.36398962817987L667.533709375,285.4186844616247L668.4223453125,287.7001160545692L669.3349984375001,283.6505843742502L670.1515828124999,277.6458313340061L671.1122703125,269.0562911183538L671.952871875,264.7220532645138L672.817490625,260.44140474982817L673.7061265625,264.7069435930145L675.507415625,265.3103273167762L676.4200687499999,258.1328350989915L677.2606703125,263.8167713096221L678.14930625,267.0186461925883L679.9025609375001,271.13475346397587L681.60778125,266.268060278686L682.520434375,272.3488277797831L683.3370187500001,275.51355851209047L684.2736890625,279.88271284457795L685.1623249999999,276.6034391037096L685.978909375,273.74310569354975L686.8675453125,276.6033553993853L687.7801984375001,279.3264506310832L688.6448171875,278.3767586908094L689.5574703125001,283.1448625722826L690.494140625,284.7087754072428L691.40679375,283.7896078337661L692.319446875,284.7542854140331L693.2080828124999,288.9834457199671L694.0727015625,293.0139255728376L694.9853546875,292.38526320333995L695.8499734375,295.6555487110928L697.6272453125,292.89428800428806L698.5398984375,294.11658843951903L700.1010156250001,287.41615985485436L700.9416171875,290.44496176998234L701.8542703124999,289.22632127528846L702.7188890625,281.06615329973044L703.5114562499999,284.24098519363935L704.4000921875,289.2996256168379L705.24069375,292.30554613129937L706.153346875,294.8611735043885L707.0900171875,292.85097400337474L708.0026703125001,290.4149649370863L708.7712203125,289.7329591373103L709.6598562500001,285.4222613693153L710.5484921875,288.8629519758097L711.38909375,293.88870270599375L712.1816609375,294.3102503501548L713.0943140625,288.29730171635407L713.934915625,289.3807875721023L714.799534375,289.60421320281296L715.664153125,287.72621952681044L716.5527890625,291.52133933123537L718.2820265624999,289.5590197532857L719.1466453125,294.5138198787262L720.03528125,295.65128920680905L720.8758828125,293.5838481378904L721.8125531249999,295.5699804675905L722.7252062499999,300.181551026716L723.5658078125,297.7678696006502L725.2470109374999,298.24515753365006L726.135646875,294.97087823974175L727.0242828125,299.41804788441897L727.9849703125,298.52698185560934L728.8495890625,294.9376793767964L729.64215625,296.94433521116497L730.458740625,286.19881581357026L731.2513078125,290.1717753256084L732.1639609375001,289.53124508040617L733.0766140625,288.62466245857416L733.96525,288.1941307945224L734.781834375,285.255117759301L737.1595359375,287.6312379976649L737.9761203125,289.7171170159729L738.816721875,289.49330863325105L739.729375,293.65371548212136L740.59399375,286.505734727078L741.3625437500001,289.6826558438182L742.2031453125,292.41098306655846L743.1157984375,292.5318597308138L743.8843484375001,290.75278042320343L744.72495,288.8612103453898L745.4694828125,289.286884521348L746.26205,293.92488537841814L747.9672703125,293.97168546101915L748.7838546875,298.1858648011067L749.576421875,295.88795977396603L750.3209546874999,299.0921878858294L751.9541234375,304.4620291999496L752.69865625,308.65419098183577L753.515240625,303.18435779769595L755.1964437500001,302.5740204008066L756.0850796875,301.3485515397381L756.9016640625,304.5485630705456L757.7662828125,308.0930576440972L758.5828671875,304.71080237777744L759.42346875,305.0357783929817L760.240053125,308.0692709718437L761.0566375,306.151663173634L761.8972390624999,303.3935657780635L762.7138234375,304.67016576965204L763.5304078125,307.7651173971242L764.41904375,307.6890735230029L765.2596453125001,308.14566984970816L766.0522125,310.8640614480539L766.91683125,312.19733875678685L767.7814500000001,314.88858922347185L768.64606875,317.19888871307586L769.4626531250001,315.79945885266363L770.2071859375001,320.5983213419224L770.999753125,321.70881871325867L771.8883890625001,319.547248436663L772.7530078125,317.39315951500345L774.4101937500001,315.37425375381594L775.2988296875,304.23548184324926L776.1394312499999,304.12625426815737L777.0520843749999,307.46453137586485L777.8446515625001,309.86006745239007L778.6612359375,314.2653830706359L779.4778203125,313.21949252738233L780.318421875,311.308591738358L781.183040625,309.4646234783688L782.09569375,304.6756535707191L782.912278125,306.8746290148207L783.680828125,306.6058886583796L785.36203125,308.4674560365937L786.9952000000001,301.53266780648687L787.7877671875,301.9282729056346L788.580334375,300.2682251745949L789.4689703125,298.19032572163655L790.2375203124999,295.72113821320556L791.0541046875,291.29218621076075L791.8466718750001,279.6433545562123L792.7833421875,279.78528193804175L793.5999265625001,281.34578006528864L794.39249375,280.73128704640294L795.16104375,282.25102466313785L796.0496796875,286.4408749104043L798.5474671875,289.04976459545287L799.2919999999999,292.24959730680854L800.1806359375,296.0326931314386L800.9491859375,293.14982213925373L801.837821875,293.4434309520363L803.470990625,295.0654404628442L804.2155234375,299.6656497879076L805.056125,293.91778560655933L805.8006578125,296.9094758168502L806.6652765624999,301.27094572347835L807.409809375,305.3809213060072L808.22639375,306.48977655854736L809.0910124999999,302.1283000543879L809.8595624999999,308.8784898024373L810.72418125,305.94484125716593L811.49273125,295.79932248727437L812.2852984374999,280.57435295026414L813.1018828125,283.11915441824505L813.8223984375,284.30956981836573L814.663,277.44614922703727L815.5036015625001,272.9977689740164L816.3201859374999,277.49646714446953L817.1848046875,282.22766969049235L817.9533546875,280.615625268171L818.8660078125,280.26842600230253L819.6345578125,280.52483999817684L820.4271249999999,286.4149991381012L821.243709375,289.26386480818564L822.012259375,293.1447464325996L822.8528609374999,297.2879959760277L823.6694453125,298.10186306854916L825.3746656249999,284.2240382944498L826.19125,286.03526933001586L827.8004015624999,289.30235743801546L829.409553125,289.84411258335103L830.2261374999999,294.13503407313124L831.09075625,293.0573234921708L831.8833234374999,289.8730239306792L832.675890625,290.30094716404676L833.6125609375,292.18251754248547L834.405128125,291.9956374445086L835.2217125,293.9403568733258L837.287190625,290.57405509366185L838.8002734375,294.69231477725225L839.6648921875001,298.48512190676564L840.457459375,300.803135521646L841.3460953125,300.0465263339114L842.186696875,293.50402107106527L843.0993500000001,290.4005982894922L843.9639687499999,292.2704264115682L844.780553125,287.96422919162745L846.3416703124999,278.5209423383128L847.0621859375,284.11911373505933L847.9027875,285.3293926965855L849.487921875,283.5593282655568L850.352540625,289.6437754706686L851.217159375,292.75327041837096L851.8656234375,291.69089687238534L852.658190625,293.97915173650995L853.426740625,293.3589531210226L854.1712734375001,297.8403147321128L854.8197375000001,299.8939892025817L856.3088031249999,303.99912202885287L857.077353125,304.9143711296726L857.8218859374999,309.5050479989014L859.5271062500001,313.29258554015104L860.3436906249999,306.09800391643597L861.112240625,309.7204754886726L861.9048078124999,310.99035004577274L862.7213921875,307.4240445006973L864.3305437500001,304.21371433493056L865.1231109375,302.4121653558195L865.915678125,303.91166920342494L866.82833125,310.1580683921592L867.59688125,301.76904721081127L868.36543125,305.5413430126616L870.76715,299.3997311531895L871.5597171874999,296.9892211675553L872.3763015625,298.00143525800405" style="fill: none;" fill="none"></path></g></g></g></g><g opacity="0.20000000298023224"><g><g><g><path stroke="rgb(255, 112, 67)" stroke-width="2px" d="M121.0706421875,-129.72132110376174L122.0313296875,74.68096556783922L122.9920171875,167.74936869318068L123.9527046875,29.679351610430956L124.91339218750001,8.76858919162106L125.8740796875,-361.1663794774296L126.8347671875,37.06983408634551L127.7954546875,85.93026314905313L128.75614218750002,91.73447120645352L129.7168296875,-477.62071824040515L131.6382046875,-38.26608607211216L132.5988921875,178.45657021249644L133.55957968750002,26.295473781913245L134.5202671875,216.147628691247L135.4809546875,63.79189242835025L136.4416421875,-274.5783969674126L137.4023296875,151.7777930935346L138.3630171875,76.16318408426429L139.3237046875,196.43109625597884L140.28439218749998,164.5023218624826L141.24507968749998,260.69946478201643L142.2057671875,-19.556885145039132L143.1664546875,150.98430400441535L144.1271421875,34.11092659418608L145.0878296875,113.1696854255029L146.04851718749998,168.49962682780878L147.0092046875,193.64068894923133L147.9698921875,113.89596546095396L148.9305796875,163.5164550258778L149.8912671875,208.35861713718623L150.8519546875,53.72848025109022L151.8126421875,-5.9482833567474245L152.7733296875,204.25057055239034L153.7340171875,-46.26597420069652L154.6947046875,168.29815047245938L155.6553921875,100.25680039320804L156.6160796875,197.50769782846328L157.5767671875,128.01524546631015L158.5374546875,305.58825097505803L159.4981421875,65.49257807061076L160.4588296875,-29.32346152431063L161.41951718750002,42.742439075306606L162.3802046875,172.767225795808L163.3408921875,-55.24413861457384L164.3015796875,111.05941162371477L165.26226718750002,127.94733265291768L166.22295468750002,261.4180034605005L167.1836421875,324.25949914557197L168.14432968749998,78.32201730702735L169.10501718749998,229.05762328181717L170.0657046875,291.040909117412L171.0263921875,242.31281201714384L171.9870796875,308.12304269623877L172.94776718749998,73.41334349876604L173.90845468749998,185.61511359071093L174.8691421875,106.60682438533485L175.8298296875,60.097003070255084L176.7905171875,290.537896854487L177.7512046875,143.6997876355558L178.71189218749998,257.7262558868887L179.6725796875,221.42683199433876L180.6332671875,186.51673033460975L181.5939546875,228.457165431356L182.5546421875,286.1174814892168L183.5153296875,166.62697247006665L184.4760171875,278.3205777725338L185.4367046875,192.03802698285187L186.3973921875,124.08967372430823L187.3580796875,130.73854425649293L188.31876718750001,-80.28340691873535L189.2794546875,174.39376532426104L190.2401421875,136.27502200735867L191.2008296875,329.7804439139519L192.1615171875,194.39165084358373L193.12220468750002,289.72135963439774L194.08289218750002,322.3014133841581L195.0435796875,260.8605503560476L196.0042671875,298.95431020273827L196.9649546875,179.9099345802263L197.92564218750002,229.16208133232016L198.8863296875,281.8117035561757L199.8470171875,268.42189563930566L200.80770468749998,179.2154745380228L201.76839218749998,-40.73261310003835L202.7290796875,194.14830078464L203.6897671875,239.1432290246677L204.6504546875,148.0712414314372L205.61114218749998,73.52262733023548L206.57182968749999,313.8975420395644L207.5325171875,36.93280201431895L208.4932046875,71.80967616135189L209.4538921875,176.88512501674373L210.4145796875,-66.80836867240055L211.3752671875,249.28309966911496L212.3359546875,171.14867896708063L213.2966421875,148.3811973214283L214.2573296875,225.79511887146094L215.2180171875,259.5781744670406L216.17870468750002,289.14580985132073L217.1393921875,309.6555297643977L218.1000796875,324.75957069822056L219.0607671875,112.62276358263836L220.0214546875,141.71136480317054L220.98214218750002,168.2145036023742L221.9428296875,269.2097546506307L222.9035171875,197.50644111466994L223.8642046875,126.03566989903007L224.8248921875,99.41309302090667L225.78557968750002,292.03414029684586L226.74626718750002,255.70422852766933L227.7069546875,313.6259410545463L228.66764218749998,204.85540176685234L229.62832968749998,-9.843945310467689L230.5890171875,78.1055609232613L231.5497046875,242.01482004246543L232.5103921875,51.260294360956834L233.47107968749998,368.38302204129286L234.4317671875,27.259875946927707L235.3924546875,274.8495594095855L236.3531421875,221.21369333498714L237.3138296875,321.02924201115303L238.2745171875,98.40093573174505L239.2352046875,323.1509770427365L240.1958921875,48.5465465956035L241.1565796875,327.4927723930949L242.1172671875,254.73263795975697L243.0779546875,245.88187919024912L244.0386421875,333.5724772482728L244.9993296875,96.53727944476333L245.9600171875,220.641938827566L246.9207046875,192.8951560584662L247.8813921875,-160.9354777658092L248.84207968750002,240.82757738761472L249.8027671875,185.15606117627718L250.7634546875,191.4121835137651L251.7241421875,247.28736276245243L252.6848296875,296.4034074107268L253.64551718750002,184.23614667954723L254.6062046875,213.31132619676646L255.5668921875,366.3644380778673L256.5275796875,331.37363025832957L257.4882671875,-28.31668297018456L258.4489546875,117.32357692948011L259.4096421875,63.9638108752801L260.37032968750003,270.90641880875256L261.33101718750004,164.27123733016197L262.29170468750004,161.8553810023836L263.2523921875,383.90750914181785L264.2130796875,188.03780644152513L265.1737671875,254.35680513271865L266.1344546875,350.20083661059783L267.0951421875,-113.47980338130475L268.0558296875,198.54247596590514L269.0165171875,277.43032172132683L269.97720468750003,355.9536199395744L270.93789218750004,324.6088404458465L271.89857968750005,261.36404017021414L272.85926718750005,115.44388497449523L273.8199546875,261.9476831901203L274.78064218749995,277.87952149962075L275.74132968749996,284.2034561133977L276.70201718749996,300.1027958042022L277.66270468749997,236.3335688626061L278.6233921875,282.4496868805062L279.5840796875,350.2541966782633L280.5447671875,174.9956809627225L281.5054546875,154.46394342398605L282.4661421875,233.35900271658156L283.4268296875,211.11916492420383L284.3875171875,273.740660292612L285.34820468749996,317.18741767633975L286.30889218749996,20.835605303889963L287.26957968749997,252.85442892704827L288.2302671875,262.29677314763626L289.1909546875,158.8185572550366L290.1516421875,195.04162321750275L291.1123296875,-45.05601016046211L292.0730171875,198.57233548563508L293.0337046875,144.29054365553228L293.9943921875,258.968542605888L294.9550796875,200.13729603821412L295.91576718749997,228.78222702114311L296.8764546875,188.75508840621583L297.8371421875,264.8232956920568L298.7978296875,231.2563194661052L299.7585171875,362.0341290915801L300.7192046875,286.8553735601184L301.6798921875,289.3128522487324L302.6405796875,-366.1010421269373L303.6012671875,113.49029824846156L304.5619546875,313.03734658229433L305.5226421875,304.41123797048516L306.4833296875,281.7726951600302L307.4440171875,202.65107550477012L308.4047046875,128.55683884269092L309.3653921875,299.11298288628626L310.3260796875,177.9223160446688L311.2867671875,231.09136321359048L312.2474546875,346.0152005162007L313.2081421875,265.7749045106549L314.1688296875,265.6049968057944L315.1295171875,241.6468039752217L316.09020468750003,108.8769521816368L317.05089218750004,204.87349844547654L318.0115796875,346.40020735393045L318.9722671875,285.3748139059005L319.9329546875,254.46038348356626L320.8936421875,101.24156132167474L321.8543296875,241.3636160890289L322.8150171875,285.3556113191381L323.7757046875,-53.273008163985025L324.73639218750003,321.12027835834306L325.69707968750004,311.3219322543758L326.65776718750004,223.21528652792665L327.61845468750005,344.0936348576215L328.5791421875,332.67148886127063L329.5398296875,288.26327002280493L330.5005171875,9.321593529245433L331.4612046875,265.582024077652L332.4218921875,252.80933803614295L333.38257968749997,244.00379582891972L334.3432671875,315.6087086748615L335.3039546875,176.97716673496845L336.2646421875,276.7034133289791L337.2253296875,216.44763140799478L338.1860171875,217.26474671642896L339.1467046875,339.02739427395034L340.10739218749995,191.37860412120688L341.06807968749996,380.2151583455852L342.02876718749997,260.95113428627207L342.9894546875,204.60471249935551L343.9501421875,204.15174257968155L344.9108296875,365.6377558940024L345.8715171875,366.40369781677146L346.8322046875,133.5466460934508L347.7928921875,351.10996850298085L348.7535796875,244.48966651570353L349.7142671875,289.7392803730909L350.67495468749996,334.13380103120915L351.63564218749997,311.16806021751836L352.5963296875,265.8870033810215L353.5570171875,348.2353613720791L354.5177046875,244.83978697853L355.4783921875,281.14486608314996L356.4390796875,257.9820725466624L357.3997671875,291.3181653145002L358.3364375,242.35277551577227L359.297125,202.07283635417534L360.2578125,268.1089739047623L361.2185,222.36695444886573L362.1791875,187.37245189077555L363.139875,180.5827288766325L364.1005625,231.15638558525825L365.06125000000003,220.00775077889142L366.0219375,261.7116472054539L366.982625,210.57244415554618L367.9433125,51.440356313267614L368.904,320.24930029672606L369.8646875,284.0875871016511L370.825375,314.03115585007305L371.7860625,169.42833832109216L372.7227328125,258.6547160374134L373.6834203125,212.21250592441564L374.6441078125,-14.5115311446134L375.6047953125,304.9738687357666L376.5654828125,128.94048842952387L377.5261703125,191.85580348281655L378.48685781250003,288.45755797525635L379.44754531250004,144.93558971138143L380.40823281250005,261.71767943166196L381.3689203125,320.7124495981261L382.3296078125,330.94189880176316L383.2902953125,292.97896286095994L384.22696562500005,282.29438218992436L385.187653125,311.8403015598555L386.148340625,209.56541425866143L387.10902812499995,308.0152166527696L388.06971562499996,278.1831938206451L389.03040312499996,241.91026145485895L389.99109062499997,295.09896362750857L390.951778125,376.3630038233906L391.912465625,254.4603583492904L392.873153125,182.99290485806497L393.833840625,282.418369572776L394.794528125,187.76037430450586L395.755215625,254.81864745177364L396.715903125,305.5946602154041L397.67659062499996,366.9269934403211L398.63727812499997,209.69560980765218L399.597965625,215.4751360061512L400.558653125,121.76882495930687L401.519340625,368.00304205873647L402.480028125,321.65611598555034L403.4166984375,276.2087456456419L404.3773859375,212.91717048262115L405.3380734375,307.58843664854896L406.2987609375,137.4382362944806L407.23543125,265.69937601167476L408.19611875,264.3660780797613L409.15680625,331.6190664621702L410.11749375,283.26680218894035L411.07818125,144.7679440913489L412.03886875,320.45974958855993L412.99955625,171.63628391889924L413.96024375,384.67428049569054L414.92093125,296.96251937738685L415.88161875000003,335.6977059442018L416.84230625000004,347.5998412067836L417.80299375,314.5384158056196L418.76368125,88.96246218964058L419.72436875,152.7678322199333L420.68505625,245.3041929937234L421.64574375,212.70855599292554L422.60643125,339.0246797721567L423.56711875,280.06562541169944L424.52780625,223.7344601302341L425.48849375000003,402.27513525985916L426.4251640625,322.7611192897644L427.3858515625,274.6828688920359L428.29850468750004,296.50668415026405L429.25919218750005,400.6295942188507L430.1958625,421.8340757854416L431.15655,95.40296957488835L432.1172375,350.5188857374181L433.029890625,209.83731685498995L433.990578125,219.68618285344982L434.95126562499996,295.70070332603893L435.91195312499997,141.66406209598895L436.872640625,148.84779001862213L437.833328125,377.77467042745724L438.794015625,278.35018594950503L439.754703125,182.79816448864793L440.715390625,332.88593450296736L441.676078125,66.40414798775288L442.636765625,160.20732653378843L443.597453125,377.74327771689946L444.558140625,319.83083973781737L445.4948109375,303.037272780219L446.4554984375,155.08134177638155L447.39216875,273.27748585693604L448.3288390625,393.9404083081754L449.2895265625,281.96909439165444L450.2502140625,315.9223844376809L451.2109015625,236.9427483067931L452.1715890625,279.3412304469384L454.0209125,285.00649622734636L454.9816,357.43440580227514L455.9182703125,217.6240663242227L456.8789578125,335.2740928587404L457.8396453125,141.82316206222666L458.776315625,283.50477351284854L459.7129859375,236.68238234308748L460.6256390625,282.1535297079661L461.5863265625,219.32560653186272L462.5470140625,314.8535493564393L463.50770156249996,293.1733764847907L464.444371875,190.22931422291524L465.405059375,289.61426248492876L466.365746875,196.80087172253323L467.326434375,292.6596318860705L468.2390875,291.6875386326408L469.151740625,360.7582378457467L470.112428125,330.86398254657564L471.073115625,299.88410246988394L472.033803125,115.76997706959293L472.994490625,261.6856332299316L473.95517812500003,110.28276249942638L474.8918484375,359.4470329423202L475.780484375,308.412388480019L476.741171875,255.80775660996528L477.701859375,337.3127842428595L478.6145125,393.7425512885509L480.48785312499996,350.67207914882704L481.42452343750006,98.22082351088255L482.3371765625,306.857431369235L483.2978640625,172.08905276436624L484.25855156250003,339.6104592055116L485.195221875,393.7956348791818L486.13189218749994,332.22729080387427L487.09257968749995,368.8107068794447L487.981215625,86.97760842442847L488.9178859375,308.63140855992344L489.85455625000003,307.7691520920323L490.79122656249996,332.14779108930713L491.7038796875,318.57080822005605L492.64055,326.13474233372835L493.55320312500004,138.02954526852616L494.46585625000006,339.1825732931528L495.4025265625,252.90432046464412L496.339196875,205.33677341825594L497.2758671875,319.3614320017264L498.18852031250003,282.95614253922497L499.12519062499996,318.9463897043357L500.08587812499997,97.60412891821142L500.9745140625,263.6192884752028L501.9352015625,307.99151503062706L502.84785468750005,316.6630412789278L503.784525,252.90987513961073L504.7211953125,397.0947599294762L505.657865625,204.59883107880265L506.59453593750004,236.6158519148677L507.53120624999997,369.1995592613821L508.46787656250007,243.9213302698003L509.3805296875,276.4649393195536L510.3172,371.2427496808814L511.22985312500003,265.86463387549986L512.14250625,334.28737145675615L513.055159375,112.56565850786865L513.9918296875,354.2364462123452L514.880465625,123.83491270412094L515.841153125,384.6286115164403L516.75380625,208.5747719096419L517.7144937500001,369.9151823638656L518.627146875,286.24652086151764L519.587834375,281.0301783823691L520.5245046875,299.32433701205133L521.4371578125,269.7718073275672L522.3738281249999,96.44966135909118L523.3104984375,339.16450174880447L524.24716875,178.78286338180104L525.1598218749999,323.7276075996758L526.120509375,-170.84170018179736L527.0571796875,295.2252884980158L527.99385,217.8709351817878L528.906503125,274.82910010902975L529.7951390625001,352.0361163001258L530.683775,387.2547663303974L531.5724109375,202.6472048262866L532.461046875,271.850034927625L533.3977171875,329.0379271362908L534.286353125,321.92399709774014L535.19900625,224.433192999335L536.1356765625,376.08984451326876L537.0002953125,388.8359636251865L537.9609828125,339.5464170706026L538.8736359375,337.5519117434576L539.762271875,314.9097998658295L540.6749249999999,239.93108803599276L541.5635609375,326.95168170223144L542.4762140625,388.6725154292238L543.4369015625,332.586987425806L544.3975890625001,245.94996794357266L545.286225,401.07464684162653L546.198878125,335.0154611600696L547.11153125,361.59435466673625L548.0482015624999,299.339895128813L549.8735078125,347.6267600162371L550.8341953125,201.99828809195398L551.6988140625,244.90551310992203L552.6595015624999,290.8963618969013L553.5721546875,294.22524592982205L555.3974609375,269.9447060112559L556.3341312499999,328.10147428604046L557.2708015625,130.03739849690882L558.1594375,115.72362946489426L559.072090625,289.05231034509575L560.0327781249999,133.22794347545798L560.94543125,243.84147867537104L561.90611875,265.88479156474517L562.7707375,281.2049621367478L563.6593734375,220.4856539002254L564.59604375,185.0597466311551L565.508696875,279.2492389972654L566.373315625,-132.9016112977572L567.3099859375,309.60694520914694L568.1986218750001,336.15394331973846L569.0872578125,201.40979415680548L569.9758937500001,144.7002323521634L570.8645296875,394.00507879998105L571.7771828125,355.4132078741594L572.713853125,206.0323393685976L573.6024890625,228.8854786264045L574.5631765625001,420.5632867976092L575.4758296875,320.02492661606186L576.364465625,344.59511392971865L578.1177203125,50.46921816232083L579.0303734375,405.27189497147424L579.919009375,246.2017882534835L580.8556796875,338.7783890029366L581.8163671875,219.10502812685445L582.7290203125,45.298796005181146L583.5936390625,266.3479408661452L584.4822750000001,152.9093884616159L585.4189453125,328.49542892597884L586.2835640625,292.6542028824832L587.220234375,346.3207579079151L588.1569046875001,404.4266544083449L589.0695578125001,336.6201590027943L589.9822109375,375.98043501041997L590.870846875,279.8160169180649L591.7835,147.68864748419062L592.7441875,134.9461225737219L593.6328234375,279.76137500233017L594.56949375,137.8077604182763L595.4581296875,227.58264343684175L596.3707828125,97.69089243850402L597.2834359374999,297.5442270580513L598.172071875,92.78337480693261L599.084725,291.92284572330703L599.94934375,382.9696487721189L600.8379796875,273.666991730046L602.7113203125,352.0462956818519L603.6720078125,84.92378620623748L605.4492796875,245.2835828875125L606.3379156249999,309.1198178085698L607.2745859375001,296.5368452813044L608.21125625,378.8313405191792L609.17194375,242.543041984085L610.084596875,376.980050295924L610.9732328125,-56.808797555842546L611.86186875,355.3424046190422L612.7264875000001,366.686558957378L613.59110625,111.21569655105537L615.4404296875,342.5723828107751L617.1216328125,340.58054171687195L618.01026875,233.839645473985L618.8989046875,360.90999860343123L620.652159375,387.9792115637101L621.5648125,413.07779675891754L622.477465625,156.84109296692938L623.39011875,228.45201290480327L624.3267890625,380.7542634286552L625.1914078125,371.0634920253984L626.0320093749999,380.2125946494468L626.8726109375,292.7084929183558L627.7852640625,242.0390243501253L628.6979171875,188.43341994367074L629.53851875,184.7282758010219L630.3791203124999,323.5481991385376L631.2437390624999,192.9928278544851L632.1563921874999,240.5235029181765L633.0690453125,333.05659623610387L633.9576812500001,286.32702594711947L634.8223,325.47700346856647L635.6148671875001,241.51070187140223L636.503503125,173.1153355165651L638.328809375,260.52566126439655L639.2654796875,176.73155459119673L640.0820640625,292.1392518385214L640.8506140625,255.40538198761146L641.8113015624999,332.8948320366243L642.7479718750001,307.9549446592407L643.6366078125,203.2379105777114L644.5492609375,360.14184486438586L645.48593125,339.5827612335062L647.3112375,279.1406840597961L648.223890625,214.48544875961463L649.13654375,372.70775121833765L650.049196875,349.97799612076153L650.96185,310.3187981702504L651.82646875,226.34410172494663L652.6670703125,208.28814062765534L653.5797234375,189.50916695077572L654.3963078125,356.2749867908091L656.101528125,237.7074586500447L656.9661468749999,394.69222476790725L658.7434187499999,334.45818399554787L659.6080375,250.72198669394544L660.4486390625,147.14660169084425L661.3132578125,344.9952013329686L662.2259109375,125.75441735207903L663.114546875,342.21592851043016L664.0272,290.64466725836974L664.8197671875,264.607341993808L665.7324203125,350.887806638593L666.6450734375001,359.1003810095634L667.533709375,373.516144933046L668.4223453125,337.2694024827132L669.3349984375001,195.66530513886497L670.1515828124999,147.17892436960912L671.1122703125,82.42900825223688L671.952871875,170.55088534986135L672.817490625,167.43458702222313L673.7061265625,357.3854693671622L675.507415625,278.4202100420703L676.4200687499999,102.18550418613347L677.2606703125,387.313203521788L678.14930625,336.58665501306365L679.9025609375001,360.5665387237095L681.60778125,160.52809016240232L682.520434375,404.46732166669767L683.3370187500001,344.27452624103586L684.2736890625,374.81252061371094L685.1623249999999,205.35376418874202L685.978909375,211.5958616002962L686.8675453125,338.7487808259653L687.7801984375001,338.4918833923293L688.6448171875,257.7425428976504L689.5574703125001,386.74275599671194L690.494140625,318.68833609400986L691.40679375,263.8186032828276L692.319446875,305.7140982943238L693.2080828124999,380.8715650941262L694.0727015625,380.5852605577259L694.9853546875,278.7261444479227L695.8499734375,366.70993383393426L697.6272453125,232.89962355656152L698.5398984375,320.6738433503945L700.1010156250001,141.83412060650468L700.9416171875,356.25256701673584L701.8542703124999,262.74858689062035L702.7188890625,103.7679581947159L703.5114562499999,353.22142361573475L704.4000921875,399.2100857207136L705.24069375,357.61600094541376L706.153346875,350.3879864287031L707.0900171875,249.17482120868019L708.0026703125001,237.48713158779512L708.7712203125,274.9148331240119L709.6598562500001,191.7625553193502L710.5484921875,363.6197751531976L711.38909375,403.084559479878L712.1816609375,303.4693309823716L713.0943140625,157.65232685481067L713.934915625,312.92198025606507L714.799534375,294.45864281552247L715.664153125,246.92253874824382L716.5527890625,373.9789423545839L718.2820265624999,246.9231671051405L719.1466453125,402.1681135132177L720.03528125,320.36539551695546L720.8758828125,248.66399218596052L721.8125531249999,338.72321926740864L722.7252062499999,400.3784022658365L723.5658078125,245.32515497979642L725.2470109374999,308.6153226233686L726.135646875,223.8297190357698L727.0242828125,396.04291561872066L727.9849703125,279.1665472296632L728.8495890625,216.95192551898904L729.64215625,340.54349379424406L730.458740625,52.72798526593084L731.2513078125,376.49335017803656L732.1639609375001,275.61426975283706L733.0766140625,268.92709458423116L733.96525,278.8398519119447L734.781834375,221.3983799940574L737.1595359375,339.2578504493743L737.9761203125,335.0375793228325L738.816721875,284.63056286320455L739.729375,384.048009743914L740.59399375,131.19960741299607L741.3625437500001,358.7084873802461L742.2031453125,351.6900927242657L743.1157984375,295.1581799814511L743.8843484375001,252.09823910331556L744.72495,247.76255138199278L745.4694828125,298.5356234353468L746.26205,394.6959949092873L747.9672703125,294.9885236193493L748.7838546875,389.7484886448115L749.576421875,245.96075054791956L750.3209546874999,368.7113259526668L751.9541234375,421.1340359339956L752.69865625,399.7384333337125L753.515240625,184.3398004332225L755.1964437500001,289.31305332293937L756.0850796875,274.72245537652634L756.9016640625,374.07608633080963L757.7662828125,385.1052579239809L758.5828671875,231.22361977320233L759.42346875,312.09662090514655L760.240053125,373.9787915489287L761.0566375,264.48727555799167L761.8972390624999,243.4676314561262L762.7138234375,332.4072019505298L763.5304078125,375.0099754849216L764.41904375,306.03684753073117L765.2596453125001,318.0662627663031L766.0522125,369.9272970848334L766.91683125,341.16581846470945L767.7814500000001,373.3621220905334L768.64606875,367.3953958053774L769.4626531250001,285.3936646128007L770.2071859375001,424.86451542671836L770.999753125,345.8368979632006L771.8883890625001,272.5822215179048L772.7530078125,270.59068203531206L774.4101937500001,271.5089376698348L775.2988296875,62.220346695494015L776.1394312499999,301.7530369547977L777.0520843749999,379.9961885342325L777.8446515625001,361.908533115073L778.6612359375,409.9808769579727L779.4778203125,290.4951434512373L780.318421875,269.7899291404673L781.183040625,269.4002221931504L782.09569375,200.62439830451538L782.912278125,354.6523682093913L783.680828125,300.7668936411584L785.36203125,348.9142381632451L786.9952000000001,150.85863262508065L787.7877671875,310.5236927871177L788.580334375,264.199915382005L789.4689703125,253.0432376073607L790.2375203124999,242.07242780275246L791.0541046875,195.06313815764486L791.8466718750001,26.546012243754888L792.7833421875,282.86897687051845L793.5999265625001,315.25114846637837L794.39249375,267.38002963606937L795.16104375,315.27077833583047L796.0496796875,377.47489391919225L798.5474671875,345.73382229787035L799.2919999999999,361.77323530808127L800.1806359375,378.2290478665798L800.9491859375,230.5128978545129L801.837821875,299.82274970249273L803.470990625,330.30728347039883L804.2155234375,399.6156523961025L805.056125,169.0323729390844L805.8006578125,361.91074493134926L806.6652765624999,396.03379187658095L807.409809375,394.67948169004273L808.22639375,330.5821770455555L809.0910124999999,207.36531055492483L809.8595624999999,455.54170341914454L810.72418125,242.20465922808842L811.49273125,75.36486921417861L812.2852984374999,-50.222712444773435L813.1018828125,338.41074994983086L813.8223984375,310.17404987553266L814.663,128.32273819726626L815.5036015625001,176.3465980220187L816.3201859374999,375.24090921158705L817.1848046875,385.02379773589615L817.9533546875,245.59029645591676L818.8660078125,272.72473286207037L819.6345578125,286.09601681762643L820.4271249999999,414.3920931782757L821.243709375,351.1619461854737L822.012259375,377.46571990850083L822.8528609374999,387.3095087832356L823.6694453125,315.7849753515163L825.3746656249999,-17.303245433705968L826.19125,325.3883800118596L827.8004015624999,360.287271784552L829.409553125,301.61497437746067L830.2261374999999,387.36505553290147L831.09075625,269.6416117785765L831.8833234374999,220.6868789128161L832.675890625,299.59855196175965L833.6125609375,333.0639103103812L834.405128125,287.9352425884655L835.2217125,336.1938062812634L837.287190625,217.43349824459958L838.8002734375,384.1708660843516L839.6648921875001,380.8924768116475L840.457459375,351.1672495176816L841.3460953125,283.6074721640408L842.186696875,151.35322490559028L843.0993500000001,222.9716851262243L843.9639687499999,332.8966919730384L844.780553125,194.4023077765513L846.3416703124999,73.34407343447674L847.0621859375,405.75211044618794L847.9027875,311.6254537697449L849.487921875,245.10065562775293L850.352540625,421.84221929082247L851.217159375,360.31411519117785L851.8656234375,268.6084171005142L852.658190625,343.69668923885496L853.426740625,279.88372865725046L854.1712734375001,395.2080806458003L854.8197375000001,344.51473451549623L856.3088031249999,393.19246252692705L857.077353125,324.80023795657326L857.8218859374999,409.2479363394169L859.5271062500001,395.5854466636665L860.3436906249999,149.77936681935432L861.112240625,388.42690328545206L861.9048078124999,338.58126087731216L862.7213921875,229.9379512940567L864.3305437500001,234.46199527872628L865.1231109375,263.269419355135L865.915678125,336.49179825594183L866.82833125,445.8752871292028L867.59688125,119.49849608879805L868.36543125,387.503042707411L870.76715,165.95925529738557L871.5597171874999,244.6154132978658L872.3763015625,319.99408685957314" style="fill: none;" fill="none"></path></g></g></g></g></g></g><g transform="translate(68, 377)" clip-path="url(#clip_1)"><clipPath id="clip_1"><rect width="960" height="22"></rect></clipPath><g><g><line x1="0" y1="0" x2="0" y2="5" style="visibility: inherit;" fill="rgb(0, 0, 0)" stroke="rgb(204, 204, 204)" stroke-width="1px"></line><line x1="120.0859375" y1="0" x2="120.0859375" y2="5" style="visibility: inherit;" fill="rgb(0, 0, 0)" stroke="rgb(204, 204, 204)" stroke-width="1px"></line><line x1="240.171875" y1="0" x2="240.171875" y2="5" style="visibility: inherit;" fill="rgb(0, 0, 0)" stroke="rgb(204, 204, 204)" stroke-width="1px"></line><line x1="360.2578125" y1="0" x2="360.2578125" y2="5" style="visibility: inherit;" fill="rgb(0, 0, 0)" stroke="rgb(204, 204, 204)" stroke-width="1px"></line><line x1="480.34375" y1="0" x2="480.34375" y2="5" style="visibility: inherit;" fill="rgb(0, 0, 0)" stroke="rgb(204, 204, 204)" stroke-width="1px"></line><line x1="600.4296875" y1="0" x2="600.4296875" y2="5" style="visibility: inherit;" fill="rgb(0, 0, 0)" stroke="rgb(204, 204, 204)" stroke-width="1px"></line><line x1="720.515625" y1="0" x2="720.515625" y2="5" style="visibility: inherit;" fill="rgb(0, 0, 0)" stroke="rgb(204, 204, 204)" stroke-width="1px"></line><line x1="840.6015625" y1="0" x2="840.6015625" y2="5" style="visibility: inherit;" fill="rgb(0, 0, 0)" stroke="rgb(204, 204, 204)" stroke-width="1px"></line><line x1="960.6875" y1="0" x2="960.6875" y2="5" style="visibility: inherit;" fill="rgb(0, 0, 0)" stroke="rgb(204, 204, 204)" stroke-width="1px"></line></g><g transform="translate(0, 8)"><text x="0" y="0" dx="0em" dy="0.95em" style="text-anchor: middle; visibility: hidden; font-family: &quot;Helvetica Neue&quot;, sans-serif; font-size: 12px; font-weight: 200;" fill="rgb(50, 49, 63)" stroke="none" stroke-width="1px">-5k</text><text x="120.0859375" y="0" dx="0em" dy="0.95em" style="text-anchor: middle; visibility: inherit; font-family: &quot;Helvetica Neue&quot;, sans-serif; font-size: 12px; font-weight: 200;" fill="rgb(50, 49, 63)" stroke="none" stroke-width="1px">0</text><text x="240.171875" y="0" dx="0em" dy="0.95em" style="text-anchor: middle; visibility: inherit; font-family: &quot;Helvetica Neue&quot;, sans-serif; font-size: 12px; font-weight: 200;" fill="rgb(50, 49, 63)" stroke="none" stroke-width="1px">5k</text><text x="360.2578125" y="0" dx="0em" dy="0.95em" style="text-anchor: middle; visibility: inherit; font-family: &quot;Helvetica Neue&quot;, sans-serif; font-size: 12px; font-weight: 200;" fill="rgb(50, 49, 63)" stroke="none" stroke-width="1px">10k</text><text x="480.34375" y="0" dx="0em" dy="0.95em" style="text-anchor: middle; visibility: inherit; font-family: &quot;Helvetica Neue&quot;, sans-serif; font-size: 12px; font-weight: 200;" fill="rgb(50, 49, 63)" stroke="none" stroke-width="1px">15k</text><text x="600.4296875" y="0" dx="0em" dy="0.95em" style="text-anchor: middle; visibility: inherit; font-family: &quot;Helvetica Neue&quot;, sans-serif; font-size: 12px; font-weight: 200;" fill="rgb(50, 49, 63)" stroke="none" stroke-width="1px">20k</text><text x="720.515625" y="0" dx="0em" dy="0.95em" style="text-anchor: middle; visibility: inherit; font-family: &quot;Helvetica Neue&quot;, sans-serif; font-size: 12px; font-weight: 200;" fill="rgb(50, 49, 63)" stroke="none" stroke-width="1px">25k</text><text x="840.6015625" y="0" dx="0em" dy="0.95em" style="text-anchor: middle; visibility: inherit; font-family: &quot;Helvetica Neue&quot;, sans-serif; font-size: 12px; font-weight: 200;" fill="rgb(50, 49, 63)" stroke="none" stroke-width="1px">30k</text><text x="960.6875" y="0" dx="0em" dy="0.95em" style="text-anchor: middle; visibility: hidden; font-family: &quot;Helvetica Neue&quot;, sans-serif; font-size: 12px; font-weight: 200;" fill="rgb(50, 49, 63)" stroke="none" stroke-width="1px">35k</text></g><line x1="0" y1="0" x2="960.6875" y2="0" fill="rgb(0, 0, 0)" stroke="rgb(204, 204, 204)" stroke-width="1px"></line></g></g></g></g></svg>