<svg viewBox="0 0 1029 400" xmlns="http://www.w3.org/2000/svg"><g><g><g><g><g><line x1="68.3125" y1="377.828125" x2="63.3125" y2="377.828125" style="visibility: inherit;" fill="rgb(0, 0, 0)" stroke="rgb(204, 204, 204)" stroke-width="1px"></line><line x1="68.3125" y1="346.3424479166667" x2="63.3125" y2="346.3424479166667" style="visibility: inherit;" fill="rgb(0, 0, 0)" stroke="rgb(204, 204, 204)" stroke-width="1px"></line><line x1="68.3125" y1="314.8567708333333" x2="63.3125" y2="314.8567708333333" style="visibility: inherit;" fill="rgb(0, 0, 0)" stroke="rgb(204, 204, 204)" stroke-width="1px"></line><line x1="68.3125" y1="283.37109375" x2="63.3125" y2="283.37109375" style="visibility: inherit;" fill="rgb(0, 0, 0)" stroke="rgb(204, 204, 204)" stroke-width="1px"></line><line x1="68.3125" y1="251.88541666666666" x2="63.3125" y2="251.88541666666666" style="visibility: inherit;" fill="rgb(0, 0, 0)" stroke="rgb(204, 204, 204)" stroke-width="1px"></line><line x1="68.3125" y1="220.39973958333331" x2="63.3125" y2="220.39973958333331" style="visibility: inherit;" fill="rgb(0, 0, 0)" stroke="rgb(204, 204, 204)" stroke-width="1px"></line><line x1="68.3125" y1="188.9140625" x2="63.3125" y2="188.9140625" style="visibility: inherit;" fill="rgb(0, 0, 0)" stroke="rgb(204, 204, 204)" stroke-width="1px"></line><line x1="68.3125" y1="157.42838541666666" x2="63.3125" y2="157.42838541666666" style="visibility: inherit;" fill="rgb(0, 0, 0)" stroke="rgb(204, 204, 204)" stroke-width="1px"></line><line x1="68.3125" y1="125.94270833333334" x2="63.3125" y2="125.94270833333334" style="visibility: inherit;" fill="rgb(0, 0, 0)" stroke="rgb(204, 204, 204)" stroke-width="1px"></line><line x1="68.3125" y1="94.45703125" x2="63.3125" y2="94.45703125" style="visibility: inherit;" fill="rgb(0, 0, 0)" stroke="rgb(204, 204, 204)" stroke-width="1px"></line><line x1="68.3125" y1="62.97135416666663" x2="63.3125" y2="62.97135416666663" style="visibility: inherit;" fill="rgb(0, 0, 0)" stroke="rgb(204, 204, 204)" stroke-width="1px"></line><line x1="68.3125" y1="31.48567708333337" x2="63.3125" y2="31.48567708333337" style="visibility: inherit;" fill="rgb(0, 0, 0)" stroke="rgb(204, 204, 204)" stroke-width="1px"></line><line x1="68.3125" y1="0" x2="63.3125" y2="0" style="visibility: inherit;" fill="rgb(0, 0, 0)" stroke="rgb(204, 204, 204)" stroke-width="1px"></line></g><g transform="translate(58.3125, 0)"><text x="0" y="377.828125" dx="0em" dy="0.3em" style="text-anchor: end; visibility: hidden; font-family: &quot;Helvetica Neue&quot;, sans-serif; font-size: 12px; font-weight: 200;" fill="rgb(50, 49, 63)" stroke="none" stroke-width="1px">-2e-5</text><text x="0" y="346.3424479166667" dx="0em" dy="0.3em" style="text-anchor: end; visibility: inherit; font-family: &quot;Helvetica Neue&quot;, sans-serif; font-size: 12px; font-weight: 200;" fill="rgb(50, 49, 63)" stroke="none" stroke-width="1px">0</text><text x="0" y="314.8567708333333" dx="0em" dy="0.3em" style="text-anchor: end; visibility: inherit; font-family: &quot;Helvetica Neue&quot;, sans-serif; font-size: 12px; font-weight: 200;" fill="rgb(50, 49, 63)" stroke="none" stroke-width="1px">2e-5</text><text x="0" y="283.37109375" dx="0em" dy="0.3em" style="text-anchor: end; visibility: inherit; font-family: &quot;Helvetica Neue&quot;, sans-serif; font-size: 12px; font-weight: 200;" fill="rgb(50, 49, 63)" stroke="none" stroke-width="1px">4e-5</text><text x="0" y="251.88541666666666" dx="0em" dy="0.3em" style="text-anchor: end; visibility: inherit; font-family: &quot;Helvetica Neue&quot;, sans-serif; font-size: 12px; font-weight: 200;" fill="rgb(50, 49, 63)" stroke="none" stroke-width="1px">6e-5</text><text x="0" y="220.39973958333331" dx="0em" dy="0.3em" style="text-anchor: end; visibility: inherit; font-family: &quot;Helvetica Neue&quot;, sans-serif; font-size: 12px; font-weight: 200;" fill="rgb(50, 49, 63)" stroke="none" stroke-width="1px">8e-5</text><text x="0" y="188.9140625" dx="0em" dy="0.3em" style="text-anchor: end; visibility: inherit; font-family: &quot;Helvetica Neue&quot;, sans-serif; font-size: 12px; font-weight: 200;" fill="rgb(50, 49, 63)" stroke="none" stroke-width="1px">1e-4</text><text x="0" y="157.42838541666666" dx="0em" dy="0.3em" style="text-anchor: end; visibility: inherit; font-family: &quot;Helvetica Neue&quot;, sans-serif; font-size: 12px; font-weight: 200;" fill="rgb(50, 49, 63)" stroke="none" stroke-width="1px">1.2e-4</text><text x="0" y="125.94270833333334" dx="0em" dy="0.3em" style="text-anchor: end; visibility: inherit; font-family: &quot;Helvetica Neue&quot;, sans-serif; font-size: 12px; font-weight: 200;" fill="rgb(50, 49, 63)" stroke="none" stroke-width="1px">1.4e-4</text><text x="0" y="94.45703125" dx="0em" dy="0.3em" style="text-anchor: end; visibility: inherit; font-family: &quot;Helvetica Neue&quot;, sans-serif; font-size: 12px; font-weight: 200;" fill="rgb(50, 49, 63)" stroke="none" stroke-width="1px">1.6e-4</text><text x="0" y="62.97135416666663" dx="0em" dy="0.3em" style="text-anchor: end; visibility: inherit; font-family: &quot;Helvetica Neue&quot;, sans-serif; font-size: 12px; font-weight: 200;" fill="rgb(50, 49, 63)" stroke="none" stroke-width="1px">1.8e-4</text><text x="0" y="31.48567708333337" dx="0em" dy="0.3em" style="text-anchor: end; visibility: inherit; font-family: &quot;Helvetica Neue&quot;, sans-serif; font-size: 12px; font-weight: 200;" fill="rgb(50, 49, 63)" stroke="none" stroke-width="1px">2e-4</text><text x="0" y="0" dx="0em" dy="0.3em" style="text-anchor: end; visibility: hidden; font-family: &quot;Helvetica Neue&quot;, sans-serif; font-size: 12px; font-weight: 200;" fill="rgb(50, 49, 63)" stroke="none" stroke-width="1px">2.2e-4</text></g><line x1="68.3125" y1="0" x2="68.3125" y2="377.828125" fill="rgb(0, 0, 0)" stroke="rgb(204, 204, 204)" stroke-width="1px"></line></g></g><g transform="translate(68, 0)" clip-path="url(#clip_0)"><clipPath id="clip_0"><rect width="960" height="377"></rect></clipPath><g><g><g><line x1="0" y1="0" x2="0" y2="377.828125" fill="rgb(0, 0, 0)" stroke="rgb(60, 60, 60)" stroke-width="1px" opacity="0.25"></line><line x1="120.0859375" y1="0" x2="120.0859375" y2="377.828125" fill="rgb(0, 0, 0)" stroke="rgb(60, 60, 60)" stroke-width="1px" opacity="0.25"></line><line x1="240.171875" y1="0" x2="240.171875" y2="377.828125" fill="rgb(0, 0, 0)" stroke="rgb(60, 60, 60)" stroke-width="1px" opacity="0.25"></line><line x1="360.2578125" y1="0" x2="360.2578125" y2="377.828125" fill="rgb(0, 0, 0)" stroke="rgb(60, 60, 60)" stroke-width="1px" opacity="0.25"></line><line x1="480.34375" y1="0" x2="480.34375" y2="377.828125" fill="rgb(0, 0, 0)" stroke="rgb(60, 60, 60)" stroke-width="1px" opacity="0.25"></line><line x1="600.4296875" y1="0" x2="600.4296875" y2="377.828125" fill="rgb(0, 0, 0)" stroke="rgb(60, 60, 60)" stroke-width="1px" opacity="0.25"></line><line x1="720.515625" y1="0" x2="720.515625" y2="377.828125" fill="rgb(0, 0, 0)" stroke="rgb(60, 60, 60)" stroke-width="1px" opacity="0.25"></line><line x1="840.6015625" y1="0" x2="840.6015625" y2="377.828125" fill="rgb(0, 0, 0)" stroke="rgb(60, 60, 60)" stroke-width="1px" opacity="0.25"></line><line x1="960.6875" y1="0" x2="960.6875" y2="377.828125" fill="rgb(0, 0, 0)" stroke="rgb(60, 60, 60)" stroke-width="1px" opacity="0.25"></line></g><g><line x1="0" y1="377.828125" x2="960.6875" y2="377.828125" fill="rgb(0, 0, 0)" stroke="rgb(60, 60, 60)" stroke-width="1px" opacity="0.25"></line><line x1="0" y1="346.3424479166667" x2="960.6875" y2="346.3424479166667" fill="rgb(0, 0, 0)" stroke="rgb(60, 60, 60)" stroke-width="1px" opacity="0.25"></line><line x1="0" y1="314.8567708333333" x2="960.6875" y2="314.8567708333333" fill="rgb(0, 0, 0)" stroke="rgb(60, 60, 60)" stroke-width="1px" opacity="0.25"></line><line x1="0" y1="283.37109375" x2="960.6875" y2="283.37109375" fill="rgb(0, 0, 0)" stroke="rgb(60, 60, 60)" stroke-width="1px" opacity="0.25"></line><line x1="0" y1="251.88541666666666" x2="960.6875" y2="251.88541666666666" fill="rgb(0, 0, 0)" stroke="rgb(60, 60, 60)" stroke-width="1px" opacity="0.25"></line><line x1="0" y1="220.39973958333331" x2="960.6875" y2="220.39973958333331" fill="rgb(0, 0, 0)" stroke="rgb(60, 60, 60)" stroke-width="1px" opacity="0.25"></line><line x1="0" y1="188.9140625" x2="960.6875" y2="188.9140625" fill="rgb(0, 0, 0)" stroke="rgb(60, 60, 60)" stroke-width="1px" opacity="0.25"></line><line x1="0" y1="157.42838541666666" x2="960.6875" y2="157.42838541666666" fill="rgb(0, 0, 0)" stroke="rgb(60, 60, 60)" stroke-width="1px" opacity="0.25"></line><line x1="0" y1="125.94270833333334" x2="960.6875" y2="125.94270833333334" fill="rgb(0, 0, 0)" stroke="rgb(60, 60, 60)" stroke-width="1px" opacity="0.25"></line><line x1="0" y1="94.45703125" x2="960.6875" y2="94.45703125" fill="rgb(0, 0, 0)" stroke="rgb(60, 60, 60)" stroke-width="1px" opacity="0.25"></line><line x1="0" y1="62.97135416666663" x2="960.6875" y2="62.97135416666663" fill="rgb(0, 0, 0)" stroke="rgb(60, 60, 60)" stroke-width="1px" opacity="0.25"></line><line x1="0" y1="31.48567708333337" x2="960.6875" y2="31.48567708333337" fill="rgb(0, 0, 0)" stroke="rgb(60, 60, 60)" stroke-width="1px" opacity="0.25"></line><line x1="0" y1="0" x2="960.6875" y2="0" fill="rgb(0, 0, 0)" stroke="rgb(60, 60, 60)" stroke-width="1px" opacity="0.25"></line></g></g></g><g><g><line x1="0" y1="346.3424479166667" x2="960.6875" y2="346.3424479166667" fill="rgb(0, 0, 0)" stroke="rgb(153, 153, 153)" stroke-width="1.5px"></line></g></g><g><g><line x1="120.0859375" y1="0" x2="120.0859375" y2="377.828125" fill="rgb(0, 0, 0)" stroke="rgb(153, 153, 153)" stroke-width="1.5px"></line></g></g><g><g><g><g><g><path stroke="rgb(255, 112, 67)" stroke-width="2px" d="M122.9920171875,-30.241592395028476L123.9527046875,3.4298319213768877L124.91339218750001,-13.20815982732853L128.75614218750002,-12.258839010786403L129.7168296875,7.865650853105478L130.6775171875,-4.943101652246639L131.6382046875,-10.655047551940015L132.5988921875,0.8314928929519851L133.55957968750002,1.2635955755027908L134.5202671875,13.248692264373972L135.4809546875,8.078350220927803L136.4416421875,-2.5353816171625567L137.4023296875,5.591460750549629L138.3630171875,6.207827470149084L139.3237046875,15.506608141641891L140.28439218749998,8.00094338281582L141.24507968749998,12.870888135028395L142.2057671875,1.351867561575773L143.1664546875,8.444336731877115L144.1271421875,21.340239114940232L145.0878296875,14.977191754208548L146.04851718749998,17.554254814925173L147.0092046875,23.620782539734535L147.9698921875,34.93288426221335L148.9305796875,27.6871163294569L149.8912671875,30.364823707142193L150.8519546875,34.44595001231602L151.8126421875,35.209096741912504L152.7733296875,41.415877757949715L153.7340171875,43.03456388211373L154.6947046875,45.95754635463453L155.6553921875,54.076064667619505L156.6160796875,55.453919962200814L157.5767671875,54.67042196636794L158.5374546875,58.51328087933422L159.4981421875,61.86317863731642L160.4588296875,46.41209018957403L161.41951718750002,48.82815010915692L162.3802046875,55.3690820632865L163.3408921875,57.61409820605729L164.3015796875,59.77455483166892L165.26226718750002,68.35239870240349L166.22295468750002,64.9848924828172L167.1836421875,71.8072193468762L168.14432968749998,56.011896482335715L169.10501718749998,58.12454177485819L170.0657046875,66.99463174676293L171.0263921875,73.3858226872917L171.9870796875,75.34327201379068L172.94776718749998,75.4491311495454L173.90845468749998,75.52850854791899L174.8691421875,79.0488735911016L175.8298296875,77.9933110174693L176.7905171875,82.87354293029387L177.7512046875,81.80060075909932L178.71189218749998,86.67152801457468L179.6725796875,86.53217686610878L180.6332671875,89.46853726878095L181.5939546875,95.29597951335904L182.5546421875,101.40305389724114L183.5153296875,104.5244014481354L184.4760171875,110.4570490741591L185.4367046875,111.89960175463841L186.3973921875,113.5180282770038L187.3580796875,113.81336190157992L188.31876718750001,107.09029567917986L189.2794546875,109.05090092433181L190.2401421875,112.80019653690096L191.2008296875,118.00440716061496L192.1615171875,119.03997887419627L193.12220468750002,120.82721381641329L194.08289218750002,123.98186368652122L195.0435796875,127.65980634697323L196.0042671875,128.21573980178258L196.9649546875,130.06484680686495L197.92564218750002,126.6027077202042L198.8863296875,127.14829954332762L199.8470171875,127.24493614872736L200.80770468749998,126.99389928295676L201.76839218749998,126.88329121300669L202.7290796875,131.1383107735067L203.6897671875,134.42547127699348L204.6504546875,129.3475512570013L205.61114218749998,124.75174550386143L206.57182968749999,124.00614980551003L207.5325171875,121.201300961129L208.4932046875,119.55746677015048L209.4538921875,115.04863358092274L210.4145796875,110.51029430632593L211.3752671875,112.7746095532305L212.3359546875,113.95496748282511L213.2966421875,118.71622233817646L214.2573296875,125.15892992145007L215.2180171875,124.10173707415908L216.17870468750002,127.66891988623263L217.1393921875,128.40385281645175L218.1000796875,129.47332390453738L219.0607671875,131.49439049264382L220.0214546875,124.66541639519176L220.98214218750002,130.04815848967974L221.9428296875,128.8434099946608L222.9035171875,132.93506324658412L223.8642046875,135.9561272898295L224.8248921875,135.98848152311032L225.78557968750002,138.57785727947194L226.74626718750002,141.52831346500085L227.7069546875,146.69863680485057L228.66764218749998,146.61121793528014L229.62832968749998,145.69948423336598L230.5890171875,149.19341198888876L231.5497046875,153.36544215804534L232.5103921875,155.69512717212905L233.47107968749998,157.78986354984136L234.4317671875,156.13947768338187L235.3924546875,160.74759714644227L236.3531421875,160.4193806537417L237.3138296875,160.70165586787053L238.2745171875,162.23644277704454L239.2352046875,165.20939408908603L240.1958921875,164.4149605840086L241.1565796875,166.48735959494556L242.1172671875,167.1998796748952L243.0779546875,170.84781421698494L244.0386421875,170.43892348029541L244.9993296875,167.80451128539644L245.9600171875,170.8576361647428L246.9207046875,172.17501721124475L247.8813921875,170.10289222282398L248.84207968750002,173.44539632550655L249.8027671875,170.4914926841585L250.7634546875,170.8274487614335L251.7241421875,173.70389097898914L252.6848296875,171.38123711223716L253.64551718750002,173.2552026968723L254.6062046875,167.79477841565344L255.5668921875,171.24537822572506L256.5275796875,169.7304529632092L257.4882671875,169.37321063921323L258.4489546875,167.6914513682255L259.4096421875,165.82991570382023L260.37032968750003,166.304660694101L261.33101718750004,167.20166888881812L262.29170468750004,167.88414523696107L263.2523921875,170.55787297433994L264.2130796875,170.74599954465003L265.1737671875,169.67530679696705L266.1344546875,172.90724276795683L267.0951421875,175.24735162325499L268.0558296875,174.34346009536702L269.0165171875,171.64057348366114L269.97720468750003,174.27577636154294L270.93789218750004,171.35580096655164L271.89857968750005,174.00331227960334L272.85926718750005,174.45566801369844L273.8199546875,174.73538348268042L274.78064218749995,178.82072564618394L275.74132968749996,175.71286061598104L276.70201718749996,171.29725598307078L277.66270468749997,170.15466742413412L278.6233921875,169.18501755760042L279.5840796875,168.92185483478428L280.5447671875,172.2388671130855L281.5054546875,175.39642605568795L282.4661421875,176.8608064963623L283.4268296875,177.90881626916132L284.3875171875,175.2436945773467L285.34820468749996,176.27819291746542L286.30889218749996,176.08222065130283L287.26957968749997,175.27589990552363L288.2302671875,173.17572335419135L289.1909546875,175.1081957634711L290.1516421875,168.74120919400374L291.1123296875,170.7249861946671L292.0730171875,169.68238234953822L293.0337046875,161.46961942116891L293.9943921875,161.54805946942656L294.9550796875,161.35048575625737L295.91576718749997,160.74790471911692L296.8764546875,162.10984593816173L297.8371421875,162.55298567255764L298.7978296875,163.96949059290876L299.7585171875,164.55072426123195L300.7192046875,164.4592656241749L301.6798921875,168.77871648092696L302.6405796875,171.93227174061488L303.6012671875,172.11701973418744L304.5619546875,172.46920500721794L305.5226421875,172.82252703988638L306.4833296875,163.96184167268092L307.4440171875,167.5385755274691L308.4047046875,157.0234262768071L309.3653921875,159.64499806547806L310.3260796875,155.93224783966897L311.2867671875,158.55649473366105L312.2474546875,162.10086078914352L313.2081421875,165.01062521668823L314.1688296875,164.55249044163813L315.1295171875,168.20960900291027L316.09020468750003,170.46203696688977L317.05089218750004,173.05449373383428L318.0115796875,174.41214503155211L318.9722671875,176.68294533619138L319.9329546875,169.27429339971607L320.8936421875,167.70717560326594L321.8543296875,170.36881721843486L322.8150171875,174.5077475765956L323.7757046875,168.94432343471087L324.73639218750003,170.50857603185275L325.69707968750004,171.91587273757838L326.65776718750004,172.9602965847685L327.61845468750005,174.20880646550395L328.5791421875,177.01017354744312L329.5398296875,180.44018299115712L330.5005171875,182.98870033910475L331.4612046875,184.82203611694663L332.4218921875,182.458445813753L333.38257968749997,185.03458806773466L334.3432671875,186.83382758055893L335.3039546875,189.27440740992026L336.2646421875,183.67750748634657L337.2253296875,186.08703708819303L338.1860171875,186.29528023204386L339.1467046875,188.60052066601514L340.10739218749995,184.28384938230369L341.06807968749996,186.93011953040838L342.02876718749997,188.0418500143942L342.9894546875,186.83341392789742L343.9501421875,183.07694561982314L344.9108296875,184.0166561627519L345.8715171875,185.83799767044576L346.8322046875,188.81411096254953L347.7928921875,189.97413807105838L348.7535796875,191.2392298557734L349.7142671875,188.4138189927853L350.67495468749996,189.69295999199898L351.63564218749997,190.85953854464006L352.5963296875,193.7476710394797L353.5570171875,195.6819521746128L354.5177046875,197.33889341389033L355.4783921875,199.39329375073416L356.4390796875,197.48860580413367L357.3997671875,200.02770855807483L358.3364375,202.43038051927726L359.297125,200.6777032367104L360.2578125,201.9988164244466L361.2185,195.777560813296L362.1791875,194.86627914621377L363.139875,195.92627235054997L364.1005625,195.05639924780638L365.06125000000003,195.39794458140156L366.0219375,188.94382833061525L366.982625,190.30005064436972L367.9433125,184.70507194080494L368.904,187.43898903747035L369.8646875,184.09798386732783L370.825375,186.454387222529L371.7860625,187.9308869886616L372.7227328125,190.31487457867848L373.6834203125,193.819310774349L374.6441078125,189.85396141440026L375.6047953125,191.75038601948685L376.5654828125,191.06896028811687L377.5261703125,191.27787241116636L378.48685781250003,192.82673551442622L379.44754531250004,195.50758508704135L380.40823281250005,198.1925288203658L381.3689203125,199.1177587246445L382.3296078125,200.230837679772L383.2902953125,200.6417629990296L384.22696562500005,200.63824384082602L385.187653125,201.30943353691026L386.148340625,197.8601887329519L387.10902812499995,194.58174773946143L388.06971562499996,195.45235956893274L389.03040312499996,195.90286944845863L389.99109062499997,197.7920273748887L390.951778125,200.71350446378239L391.912465625,203.47181960915734L392.873153125,205.30325190030075L393.833840625,206.16294730462647L394.794528125,204.50060129599547L395.755215625,205.7541674098185L396.715903125,202.2613105355858L397.67659062499996,202.19574317210035L398.63727812499997,204.02420056681052L399.597965625,207.01275083010415L400.558653125,205.48850863631012L401.519340625,206.9624542469307L402.480028125,209.3575806328262L403.4166984375,211.04603012124144L404.3773859375,209.732542405634L405.3380734375,210.9582855646836L406.2987609375,209.4978538177056L407.23543125,208.36961370978818L408.19611875,200.46305842766193L409.15680625,200.4050978964052L410.11749375,202.4609714003735L411.07818125,203.68642155480444L412.03886875,204.42097438178143L412.99955625,203.1389946512619L413.96024375,204.48887641127743L414.92093125,204.1759639045262L415.88161875000003,202.56238686141288L416.84230625000004,204.2094875857128L417.80299375,204.68891896107797L418.76368125,206.208303389129L419.72436875,204.09089219972805L420.68505625,204.7256737606663L421.64574375,204.39655638221433L422.60643125,202.47817051874054L423.56711875,205.01010640281393L424.52780625,199.84798402714645L425.48849375000003,202.8564320300513L426.4251640625,204.84012929947366L427.3858515625,204.15346025007315L428.29850468750004,204.14006581282484L429.25919218750005,205.82023534192578L430.1958625,207.0131516859535L431.15655,205.04009623093378L432.1172375,205.70117861408622L433.029890625,205.64209769519593L433.990578125,206.7778845587158L434.95126562499996,207.4749711309833L435.91195312499997,206.1221292997908L436.872640625,207.8552728942963L437.833328125,208.76410440426793L438.794015625,209.36242559988096L439.754703125,210.58444736390427L440.715390625,207.70800024518135L441.676078125,202.65153155983046L442.636765625,200.92229170365871L443.597453125,201.77017796262217L444.558140625,201.62683230144827L445.4948109375,203.5231040564236L446.4554984375,204.6123838530498L447.39216875,204.0575412680116L448.3288390625,205.47502454754488L449.2895265625,205.38922225672167L450.2502140625,208.01434350183686L451.2109015625,203.2496678029537L452.1715890625,202.95002070345666L454.0209125,203.39391793042475L454.9816,205.1511646106703L455.9182703125,197.13751703236838L456.8789578125,199.10434714289903L457.8396453125,199.90002305924378L458.776315625,201.31538080679698L459.7129859375,197.9026984114076L460.6256390625,197.6026294440555L461.5863265625,198.45634473442823L462.5470140625,197.22702166755445L463.50770156249996,196.78446398612718L464.444371875,194.96102116352463L465.405059375,196.92786004480337L466.365746875,200.4307483270193L467.326434375,198.58910032053765L468.2390875,202.33240486872955L469.151740625,203.76771616241808L470.112428125,205.514962682127L471.073115625,204.85550176936394L472.033803125,205.48268501621888L472.994490625,207.07171847954723L473.95517812500003,207.0256443774748L474.8918484375,207.8680822479264L475.780484375,208.60315870183027L476.741171875,209.71342486295177L477.701859375,210.05294160575596L478.6145125,212.44274667641002L480.48785312499996,212.03154897867816L481.42452343750006,214.28233018995238L482.3371765625,217.29264469917476L483.2978640625,217.74143451717L484.25855156250003,216.37862956248017L485.195221875,215.23794930515297L486.13189218749994,216.72713574996237L487.09257968749995,219.3531870031137L487.981215625,214.3205009177234L488.9178859375,214.37090952893482L489.85455625000003,214.4441365973285L490.79122656249996,215.06847728064665L491.7038796875,208.85706978691346L492.64055,209.11774158426874L493.55320312500004,210.26140371444149L494.46585625000006,211.5435889674165L495.4025265625,213.48022028223752L496.339196875,211.1755823660133L497.2758671875,212.21206868121905L498.18852031250003,207.61306984151707L499.12519062499996,206.64663439211432L500.08587812499997,198.39787520791378L500.9745140625,198.70555260522303L501.9352015625,202.20881407341818L502.84785468750005,204.96228349134756L503.784525,206.5616852382989L504.7211953125,208.07127171453087L505.657865625,210.64071740323658L506.59453593750004,212.58293823463407L507.53120624999997,214.60393907571833L508.46787656250007,217.23688362067867L509.3805296875,218.40364149475994L510.3172,218.0587018846335L511.22985312500003,217.72679058471047L512.14250625,214.12492437072234L513.055159375,215.99581077665744L513.9918296875,217.2856006803656L514.880465625,208.36872183605306L515.841153125,210.1652995321918L516.75380625,206.54909329415258L517.7144937500001,209.76688871477666L518.627146875,212.5256268735829L519.587834375,214.1042363281075L520.5245046875,212.91632237180764L521.4371578125,206.8101554073375L522.3738281249999,208.3480189551024L523.3104984375,206.40351047948764L524.24716875,208.55814730721804L525.1598218749999,209.51930137583997L526.120509375,207.78941198952305L527.0571796875,209.95106986393662L527.99385,212.64781618646327L528.906503125,211.34456113103568L529.7951390625001,212.47452266546128L530.683775,210.77684192418693L531.5724109375,211.6537398685556L532.461046875,210.7402154544936L533.3977171875,213.25252827713547L534.286353125,214.4110273217115L535.19900625,216.647731636252L536.1356765625,216.87280505923135L537.0002953125,219.44950165317994L537.9609828125,221.5296554050421L538.8736359375,221.53537109433606L539.762271875,220.4307902206002L540.6749249999999,221.16879932394934L541.5635609375,222.9254180153285L542.4762140625,225.11536786021685L543.4369015625,225.33830484382653L544.3975890625001,223.33586681537702L545.286225,224.1629189022747L546.198878125,225.9755723693965L547.11153125,224.86637149047766L548.0482015624999,225.77093496191256L549.8735078125,223.9677825957593L550.8341953125,223.90773119531212L551.6988140625,222.00484555204486L552.6595015624999,222.43926342901736L553.5721546875,224.73182557470474L555.3974609375,225.45620906190456L556.3341312499999,227.05433193924395L557.2708015625,227.69024891901205L558.1594375,226.4223857090355L559.072090625,225.96294326458806L560.0327781249999,225.21957318962154L560.94543125,226.58951271984273L561.90611875,227.78988494273906L562.7707375,225.1373084399886L563.6593734375,225.06586446467807L564.59604375,225.79022001102024L565.508696875,225.70965029232948L566.373315625,225.19431817416375L567.3099859375,226.39789756884159L568.1986218750001,228.38543676598735L569.0872578125,230.30403066785104L569.9758937500001,230.37828150554003L570.8645296875,231.2264935143839L571.7771828125,230.34548694089509L572.713853125,230.8000655878602L573.6024890625,231.35150803291575L574.5631765625001,230.67494380095823L575.4758296875,231.83115377729L576.364465625,231.28411651701578L578.1177203125,229.613231152138L579.0303734375,231.12743740633462L579.919009375,230.733217463488L580.8556796875,232.1545422355628L581.8163671875,230.3577326310085L582.7290203125,229.093397354L583.5936390625,230.8453382626775L584.4822750000001,229.74767339216106L585.4189453125,230.491507454856L586.2835640625,231.7483119578262L587.220234375,233.23407202982648L588.1569046875001,229.12721294174335L589.0695578125001,228.8291630518986L589.9822109375,230.0050060454259L590.870846875,228.46882914848058L591.7835,228.19553374275839L592.7441875,229.65121037948052L593.6328234375,229.0677104007434L594.56949375,230.46277174701282L595.4581296875,223.1181836025188L596.3707828125,223.2815757542281L597.2834359374999,225.31298100636806L598.172071875,223.64729847864737L599.084725,222.03394988694015L599.94934375,224.06586613251835L600.8379796875,225.5271478968171L602.7113203125,226.45546390230018L603.6720078125,218.2445594945106L605.4492796875,216.1131557404617L606.3379156249999,216.700605219698L607.2745859375001,217.47794533587953L608.21125625,216.13827896263794L609.17194375,218.25918475270674L610.084596875,217.83371559895107L610.9732328125,218.32213053462357L611.86186875,219.04555670993832L612.7264875000001,222.02017456628025L613.59110625,223.68521506336842L615.4404296875,224.45220662508484L617.1216328125,225.47308632095195L618.01026875,224.97469680381178L618.8989046875,222.49779821777526L620.652159375,222.34639797158707L621.5648125,224.21403490783527L622.477465625,224.82380066518684L623.39011875,226.96311941170788L624.3267890625,228.13119500114394L625.1914078125,228.6981494609101L626.0320093749999,230.039513762679L626.8726109375,230.28476492286384L627.7852640625,221.31517545722758L628.6979171875,208.27749070697732L629.53851875,209.81539805512932L630.3791203124999,212.15477162175168L631.2437390624999,214.84782706585528L632.1563921874999,215.20015166979832L633.0690453125,217.11183286345337L633.9576812500001,217.86042350953335L634.8223,220.05646150477526L635.6148671875001,220.62916231551878L636.503503125,220.45889635726965L638.328809375,221.11991235332022L639.2654796875,218.28894315615335L640.0820640625,218.98020557671856L640.8506140625,220.72097124370922L641.8113015624999,221.13174848109836L642.7479718750001,220.69969259029995L643.6366078125,220.67682818166557L644.5492609375,218.6354150845001L645.48593125,220.4234451529076L647.3112375,221.08465366460956L648.223890625,221.20570033945484L649.13654375,221.0626736638985L650.049196875,223.46101230719216L650.96185,226.38321854736827L651.82646875,227.6318119648398L652.6670703125,230.56390892962398L653.5797234375,229.63046691349425L654.3963078125,229.91781514055143L656.101528125,231.45491083736295L656.9661468749999,233.5464760189232L658.7434187499999,231.44831427192344L659.6080375,232.23553761169296L660.4486390625,231.91754385542112L661.3132578125,232.91012764139558L662.2259109375,232.9741227722826L663.114546875,232.32374087753502L664.0272,233.90259863052702L664.8197671875,235.6581801897421L665.7324203125,235.5338885231304L666.6450734375001,236.62274534841396L667.533709375,238.61504022933528L668.4223453125,238.87775827850012L669.3349984375001,237.54556530035194L670.1515828124999,237.76592555744418L671.1122703125,238.36892984703027L671.952871875,238.6645819559183L672.817490625,237.74677778388312L673.7061265625,238.69617183720362L675.507415625,238.14571124339705L676.4200687499999,235.62678414505743L677.2606703125,236.24604575995843L678.14930625,236.83830934112768L679.9025609375001,239.44818267655114L681.60778125,240.4809417494689L682.520434375,240.39294714086037L683.3370187500001,241.9143547662854L684.2736890625,242.9320806646148L685.1623249999999,243.06566495431963L685.978909375,243.71307740496852L686.8675453125,243.17210525673403L687.7801984375001,241.50550615568122L688.6448171875,241.49092437824902L689.5574703125001,243.3131211768164L690.494140625,242.26255363724135L691.40679375,241.67965084509012L692.319446875,242.4202158755146L693.2080828124999,241.42513505944973L694.0727015625,241.42362266800117L694.9853546875,242.48470906116927L695.8499734375,242.1551241684609L697.6272453125,242.55188902382605L698.5398984375,241.26161837326887L700.1010156250001,238.37844452557562L700.9416171875,239.66004933689243L701.8542703124999,239.5604255465823L702.7188890625,240.05581873597342L703.5114562499999,241.0689126144332L704.4000921875,240.64038531879723L705.24069375,236.8588623822832L706.153346875,237.01979809723275L707.0900171875,236.19534722192458L708.0026703125001,232.76595726652116L708.7712203125,227.87864218917008L709.6598562500001,224.4170819252442L710.5484921875,222.8169974445857L711.38909375,223.814765403929L712.1816609375,225.58050184902638L713.0943140625,226.8541270115524L713.934915625,227.5064930614129L714.799534375,225.4106737579479L715.664153125,224.1925687586642L716.5527890625,226.47961141437727L718.2820265624999,228.37521830439206L719.1466453125,229.3139237882581L720.03528125,229.68112946166855L720.8758828125,231.65980922364903L721.8125531249999,232.59585004952072L722.7252062499999,234.1566192765285L723.5658078125,234.15090849485884L725.2470109374999,233.96508242617537L726.135646875,235.5411852139494L727.0242828125,235.84808005262707L727.9849703125,235.32956747480017L728.8495890625,235.8299815022047L729.64215625,233.06496193293526L730.458740625,233.92863726063592L731.2513078125,234.642830545644L732.1639609375001,236.04241420563076L733.0766140625,235.94453205772007L733.96525,235.04057424039473L734.781834375,235.9662845288174L737.1595359375,234.26822272597377L737.9761203125,235.04750128414537L738.816721875,237.23269091433082L739.729375,238.86609664388718L740.59399375,239.4092784321019L741.3625437500001,237.39292486259347L742.2031453125,238.52250593077582L743.1157984375,237.16161722738138L743.8843484375001,236.67289924238185L744.72495,234.57427198708513L745.4694828125,236.0939703276663L746.26205,237.62155819943408L747.9672703125,239.5198276560234L748.7838546875,239.66502261994754L749.576421875,239.14529807679259L750.3209546874999,239.16333741081604L751.9541234375,239.81324112831803L752.69865625,239.9986454177068L753.515240625,237.8921240778165L755.1964437500001,237.79737559696736L756.0850796875,239.11982654125887L756.9016640625,236.81357169300222L757.7662828125,237.72363841655385L758.5828671875,239.4059739794984L759.42346875,239.10553325076333L760.240053125,238.31527087765792L761.0566375,236.6710485814096L761.8972390624999,236.0302607514367L762.7138234375,235.1915347874593L763.5304078125,234.86750014519964L764.41904375,228.1356434777506L765.2596453125001,230.11386250133992L766.0522125,230.8446495381164L766.91683125,229.0140314417502L767.7814500000001,223.27654128626457L768.64606875,226.02298308360412L769.4626531250001,223.27517024850528L770.2071859375001,223.1597715759538L770.999753125,220.08936419456913L771.8883890625001,221.53823138974667L772.7530078125,223.12163829750006L774.4101937500001,223.66113258293743L775.2988296875,225.9137258066875L776.1394312499999,224.69378489954187L777.0520843749999,224.70515062518305L777.8446515625001,226.01650803395765L778.6612359375,227.76640005418878L779.4778203125,229.8400783667889L780.318421875,231.33861324391236L781.183040625,229.75129033381162L782.09569375,230.7699633492366L782.912278125,231.40463092603298L783.680828125,231.21690679481293L785.36203125,231.45611637871474L786.9952000000001,230.86599096339262L787.7877671875,229.30345557481544L788.580334375,228.6901664272421L789.4689703125,227.2690912198258L790.2375203124999,228.9014803410591L791.0541046875,229.77522041575955L791.8466718750001,230.86345645015962L792.7833421875,231.43840914288793L793.5999265625001,232.26024569374303L794.39249375,231.97613797474565L795.16104375,232.94188610764306L796.0496796875,234.06325479374863L798.5474671875,235.1993538224514L799.2919999999999,237.1241152786109L800.1806359375,237.2326616388613L800.9491859375,235.2167098231779L801.837821875,236.41424753924L803.470990625,233.50474940226593L804.2155234375,232.42446362448558L805.056125,234.007549967707L805.8006578125,235.78255068225243L806.6652765624999,235.96680659382702L807.409809375,234.92938061396654L808.22639375,234.54621063334088L809.0910124999999,231.35599674875428L809.8595624999999,233.7908301030103L810.72418125,233.21909877668278L811.49273125,232.28489987432536L812.2852984374999,232.02367634629368L813.1018828125,232.63922523660804L813.8223984375,233.11045176123338L814.663,231.82592226443978L815.5036015625001,229.0532265936395L816.3201859374999,228.56892559981736L817.1848046875,228.9126467490055L817.9533546875,228.6588884939152L818.8660078125,229.60332937404914L819.6345578125,229.35085563171904L820.4271249999999,231.02990543588484L821.243709375,231.73908780695393L822.012259375,232.19684017181677L822.8528609374999,234.2771308414186L823.6694453125,234.01803780377114L825.3746656249999,234.7108799156998L826.19125,234.26534244986405L827.8004015624999,233.2245493394414L829.409553125,234.2275802392266L830.2261374999999,235.35628489808792L831.09075625,236.16500023145113L831.8833234374999,237.0749562905843L832.675890625,236.94980272814874L833.6125609375,238.26016422834124L834.405128125,239.25511085922088L835.2217125,239.92728380282404L837.287190625,240.8376131452432L838.8002734375,240.82599926364202L839.6648921875001,241.27501019369888L840.457459375,238.7695630881343L841.3460953125,239.85181100439323L842.186696875,239.04890394555594L843.0993500000001,237.9674898834678L843.9639687499999,238.91005948543696L844.780553125,239.7283739048318L846.3416703124999,239.56039589444762L847.0621859375,239.08732168422563L847.9027875,237.8709005915765L849.487921875,239.2334582072257L850.352540625,240.50869839729936L851.217159375,240.65599506337765L851.8656234375,239.4089889857784L852.658190625,239.01855890456045L853.426740625,240.34379447712556L854.1712734375001,239.39139939669448L854.8197375000001,240.66838357718697L856.3088031249999,240.89714143424428L857.077353125,233.93461909054847L857.8218859374999,234.81380723849944L859.5271062500001,228.1545668814106L860.3436906249999,228.08611750265868L861.112240625,229.09976911437406L861.9048078124999,225.65739317167606L862.7213921875,227.18747255301523L864.3305437500001,229.3304583535008L865.1231109375,228.9635361724154L865.915678125,228.68741831050514L866.82833125,228.40423282463647L867.59688125,228.0419392422975L868.36543125,228.517187981171L870.76715,230.58337180304258L871.5597171874999,230.48507848559314L872.3763015625,231.98889263646322" style="fill: none;" fill="none"></path></g></g></g></g><g opacity="0.20000000298023224"><g><g><g><path stroke="rgb(255, 112, 67)" stroke-width="2px" d="M120.1099546875,-209.84188614486015L121.0706421875,65.29946126335778L122.0313296875,-117.20167761220301L122.9920171875,122.49471506579115L123.9527046875,123.93776613323129L124.91339218750001,-86.04037911774986L125.8740796875,-165.4647039480442L126.8347671875,27.034885866998593L127.7954546875,-33.54540180973464L128.75614218750002,110.30267347271428L129.7168296875,166.30549897409946L130.6775171875,-113.59431339532239L131.6382046875,-62.435792298072556L132.5988921875,111.36035194634769L133.55957968750002,5.651632312442757L134.5202671875,141.06082210949234L135.4809546875,-49.57627859150426L136.4416421875,-125.82855308124147L137.4023296875,103.61143506041753L138.3630171875,13.904131433366274L139.3237046875,135.39725158362853L140.28439218749998,-91.68823417581245L141.24507968749998,79.36246824320159L142.2057671875,-160.01468967705296L143.1664546875,110.20936574625046L144.1271421875,210.56175683157366L145.0878296875,-80.36278837862903L146.04851718749998,56.93207428380026L147.0092046875,118.03894467609888L147.9698921875,214.05982294804699L148.9305796875,-88.92803905410312L149.8912671875,74.1241775194676L150.8519546875,102.10712574093611L151.8126421875,48.03421008499481L152.7733296875,147.06846058128303L153.7340171875,70.92314748974366L154.6947046875,96.89655471988351L155.6553921875,197.09411637498187L156.6160796875,79.9758296643513L157.5767671875,40.590897193915566L158.5374546875,128.2050654535354L159.4981421875,123.14434118887857L160.4588296875,-238.57599249130362L161.41951718750002,93.7402198471276L162.3802046875,177.86148793486473L163.3408921875,99.95300702760568L164.3015796875,100.79140203506876L165.26226718750002,232.2399617679665L166.22295468750002,0.25719489988540545L167.1836421875,203.69316959422912L168.14432968749998,-251.0007421338329L169.10501718749998,99.40078931427132L170.0657046875,241.15041437720447L171.0263921875,199.45942027770752L171.9870796875,114.12856516387399L172.94776718749998,77.55555598758929L173.90845468749998,77.11437744689681L174.8691421875,149.65253250116228L175.8298296875,56.74555046625335L176.7905171875,181.45243796416588L177.7512046875,60.055443328325964L178.71189218749998,185.70287637440924L179.6725796875,83.69045309441725L180.6332671875,149.52082955015794L181.5939546875,214.80173735398725L182.5546421875,226.9711335535926L183.5153296875,168.86285918048574L184.4760171875,233.0341656130557L185.4367046875,141.77248538535758L186.3973921875,147.10552709280245L187.3580796875,119.9551321232733L188.31876718750001,-32.99833858656831L189.2794546875,149.98086207044284L190.2401421875,191.211594561203L191.2008296875,227.0296771074788L192.1615171875,140.77006304632536L193.12220468750002,158.38841971004317L194.08289218750002,190.37985457326795L195.0435796875,205.18186653571274L196.0042671875,139.9493536673499L196.9649546875,169.1429083585258L197.92564218750002,53.34521348336574L198.8863296875,138.70643427150026L199.8470171875,129.2944497689135L200.80770468749998,121.66406324800272L201.76839218749998,124.53252557208575L202.7290796875,221.65948870755636L203.6897671875,204.42200304956518L204.6504546875,21.121906743538034L205.61114218749998,26.717621269945425L206.57182968749999,108.08869394689918L207.5325171875,61.27485824900941L208.4932046875,84.41027191917055L209.4538921875,18.575588600533933L210.4145796875,13.339863667461373L211.3752671875,161.2873966159209L212.3359546875,139.2597516094038L213.2966421875,220.84964957562414L214.2573296875,263.4394435801421L215.2180171875,101.39880715646876L216.17870468750002,204.31284240222902L217.1393921875,144.20231205056433L218.1000796875,152.47403169260332L219.0607671875,174.98032265612318L220.0214546875,-22.33241553359494L220.98214218750002,245.96272657903032L221.9428296875,102.88955443959702L222.9035171875,221.1145903702606L223.8642046875,201.08672718702064L224.8248921875,136.68624066715773L225.78557968750002,194.43930194115214L226.74626718750002,205.19944907439702L227.7069546875,258.3082058899867L228.66764218749998,144.72360282289054L229.62832968749998,126.00723666358016L230.5890171875,224.6774197920895L231.5497046875,243.52197239466736L232.5103921875,206.0510853943806L233.47107968749998,203.07778074027996L234.4317671875,120.4505588093786L235.3924546875,260.41711399733225L236.3531421875,153.31893281210068L237.3138296875,166.80940193292554L238.2745171875,195.4515407203488L239.2352046875,229.5597528792423L240.1958921875,147.21636008583755L241.1565796875,211.35963754631607L242.1172671875,182.62995260699458L243.0779546875,249.85764262075116L244.0386421875,161.58161491471174L244.9993296875,110.73081688049297L245.9600171875,237.01101513960293L246.9207046875,200.72275145462254L247.8813921875,125.194591198112L248.84207968750002,245.8941374965278L249.8027671875,106.45886706461505L250.7634546875,178.11080489708078L251.7241421875,236.0697365083861L252.6848296875,121.01773599862281L253.64551718750002,213.89312673601307L254.6062046875,49.372590638756265L255.5668921875,246.08583871308792L256.5275796875,136.8705194178759L257.4882671875,161.6237671898636L258.4489546875,131.2074757954515L259.4096421875,125.44315216843674L260.37032968750003,176.60510959246525L261.33101718750004,186.66508223570827L262.29170468750004,182.69349028913243L263.2523921875,228.57950630235518L264.2130796875,174.82868900980247L265.1737671875,146.43812370584664L266.1344546875,243.0532230587872L267.0951421875,226.03949954620128L268.0558296875,154.72357720057775L269.0165171875,112.96914850874634L269.97720468750003,231.480350279116L270.93789218750004,107.96693343470787L271.89857968750005,231.47950265184394L272.85926718750005,184.27644567415535L273.8199546875,180.80829850950175L274.78064218749995,267.52068871422574L275.74132968749996,108.2335236661981L276.70201718749996,75.42081815729068L277.66270468749997,145.34482197794085L278.6233921875,148.1297357436115L279.5840796875,163.20730675043887L280.5447671875,244.26921310711458L281.5054546875,243.96581981582466L282.4661421875,208.66194920871098L283.4268296875,200.6683658561386L284.3875171875,117.36423336752705L285.34820468749996,198.74523702887126L286.30889218749996,171.82604957943448L287.26957968749997,157.76371841052378L288.2302671875,127.5619683513275L289.1909546875,217.08028545997377L290.1516421875,30.45203794225654L291.1123296875,213.8127281438145L292.0730171875,147.03664019531243L293.0337046875,-16.917131071913616L293.9943921875,163.2518529999132L294.9550796875,157.0589392426385L295.91576718749997,147.65893606608674L296.8764546875,191.69360811844885L297.8371421875,172.17886870422444L298.7978296875,194.7391443614374L299.7585171875,177.17654782691505L300.7192046875,162.4725399041983L301.6798921875,262.60959357193536L302.6405796875,240.43715893659845L303.6012671875,176.1303466847224L304.5619546875,180.11987625708298L305.5226421875,180.4979523836963L306.4833296875,-28.525546924898947L307.4440171875,245.2392308846238L308.4047046875,-71.40831642335615L309.3653921875,216.59655373933856L310.3260796875,75.27520953725525L311.2867671875,215.5668584201062L312.2474546875,239.10075999794603L313.2081421875,228.2244077474687L314.1688296875,154.59959453040287L315.1295171875,247.66024909885454L316.09020468750003,219.39610625708642L317.05089218750004,229.37595521427315L318.0115796875,203.90742456888L318.9722671875,226.01679688061677L319.9329546875,8.31835934577191L320.8936421875,133.66078402697926L321.8543296875,228.19447734122636L322.8150171875,264.428647515499L323.7757046875,48.0749878294352L324.73639218750003,204.4931808315743L325.69707968750004,202.4905812203386L326.65776718750004,195.6513516681066L327.61845468750005,201.33389071778873L328.5791421875,237.87274280589327L329.5398296875,254.9608398843925L330.5005171875,238.35812396338224L331.4612046875,224.6534227767517L332.4218921875,131.106539423539L333.38257968749997,241.0045652142946L334.3432671875,225.92468041410288L335.3039546875,242.29932732681195L336.2646421875,62.07701146338002L337.2253296875,238.4375374752376L338.1860171875,190.81967003767159L339.1467046875,238.68535390809365L340.10739218749995,90.49749571915561L341.06807968749996,244.42451216866584L342.02876718749997,212.19598221213454L342.9894546875,160.57816167764594L343.9501421875,101.46141703037637L344.9108296875,204.4334574721608L345.8715171875,225.40976975516242L346.8322046875,253.47535590844694L347.7928921875,215.17777459337853L348.7535796875,218.7256101760298L349.7142671875,127.02665736574426L350.67495468749996,217.4846380320214L351.63564218749997,216.2056142961504L352.5963296875,256.4977427633698L353.5570171875,237.70785639262948L354.5177046875,233.33909379697343L355.4783921875,244.0290825918202L356.4390796875,156.1055761955833L357.3997671875,255.19466474004798L358.3364375,254.633146035566L359.297125,162.59732438395486L360.2578125,230.7026293481419L361.2185,60.608325398170905L362.1791875,175.06684936441042L363.139875,218.9567718784318L364.1005625,176.15663458457934L365.06125000000003,202.81871606443505L366.0219375,48.71487769331634L366.982625,219.76678282670295L367.9433125,63.14254767091404L368.904,246.83903572528487L369.8646875,111.50765582092725L370.825375,237.6521993532374L371.7860625,220.01095675317356L372.7227328125,242.11204751737372L373.6834203125,269.96062390737313L374.6441078125,103.69830540138264L375.6047953125,232.95425956102872L376.5654828125,176.26352725624156L377.5261703125,195.81693680114876L378.48685781250003,226.47912028542078L379.44754531250004,253.75482663814591L380.40823281250005,256.5287384309135L381.3689203125,219.22038396004717L382.3296078125,224.41489588062072L383.2902953125,209.57001001440057L384.22696562500005,200.56178245388645L385.187653125,215.8924962000768L386.148340625,122.9177956187826L387.10902812499995,123.3504291602188L388.06971562499996,214.36831345739196L389.03040312499996,205.69118743642656L389.99109062499997,238.83814445109647L390.951778125,264.18903817643275L391.912465625,263.40230834208717L392.873153125,245.09516861163883L393.833840625,224.84173348422354L394.794528125,168.38244924240325L395.755215625,232.99067317046018L396.715903125,126.37123530482344L397.67659062499996,200.771146390089L398.63727812499997,243.75150756906078L399.597965625,271.94566388876973L400.558653125,172.37094791673024L401.519340625,238.98721230675574L402.480028125,261.3970513048093L403.4166984375,247.73136960875067L404.3773859375,181.1940834625219L405.3380734375,237.59029965353074L406.2987609375,177.76670258788607L407.23543125,183.85606836489646L408.19611875,28.675411179987066L409.15680625,199.14577527819455L410.11749375,247.12943970135137L411.07818125,230.31207935532197L412.03886875,220.38078569551803L412.99955625,175.28510193254715L413.96024375,233.81809484107666L414.92093125,197.37723533827756L415.88161875000003,167.50379193951662L416.84230625000004,239.99646148165493L417.80299375,215.10564609429397L418.76368125,239.2203556242668L419.72436875,158.0853585970085L420.68505625,218.51773531476465L421.64574375,197.24573856687994L422.60643125,160.7969067859543L423.56711875,260.02213114296785L424.52780625,87.68921493138987L425.48849375000003,268.22176237640133L426.4251640625,247.94043572996574L427.3858515625,189.2340228633387L428.29850468750004,203.84904137691018L429.25919218750005,242.32571831647223L430.1958625,232.93195780023507L431.15655,162.17100222936887L432.1172375,220.06468944956958L433.029890625,204.35843100415954L433.990578125,231.45542545554798L434.95126562499996,222.62075530620254L435.91195312499997,176.72857681362333L436.872640625,245.51174305259596L437.833328125,228.51052776948444L438.794015625,222.3623091691778L439.754703125,237.1356392574432L440.715390625,145.21066778050107L441.676078125,92.78828860289684L442.636765625,163.35063594037774L443.597453125,220.1924291703558L444.558140625,198.51232279981213L445.4948109375,244.72390786646992L446.4554984375,228.2794577024632L447.39216875,192.00232771624573L448.3288390625,236.27306396388076L449.2895265625,203.52497285283516L450.2502140625,265.05105793049927L451.2109015625,99.72627818674817L452.1715890625,196.43950757806533L454.0209125,213.0385924471128L454.9816,243.33133643940863L455.9182703125,23.022836899815047L456.8789578125,241.83819518195787L457.8396453125,217.18788830583694L458.776315625,232.06724052964728L459.7129859375,123.75442664516595L460.6256390625,191.0829499410317L461.5863265625,217.00524753754993L462.5470140625,170.51718707270192L463.50770156249996,187.1688935591536L464.444371875,155.3425856520671L465.405059375,239.66190070648236L466.365746875,276.5389503489336L467.326434375,158.575115343929L468.2390875,283.664196833378L469.151740625,234.95311357607565L470.112428125,243.47786141325167L471.073115625,190.52721571996048L472.033803125,219.109665511238L472.994490625,241.5970795863203L473.95517812500003,206.02457986049438L474.8918484375,226.1719584890969L475.780484375,224.5743643519968L476.741171875,233.8364791893426L477.701859375,217.42971407567546L478.6145125,264.36669054367934L480.48785312499996,203.09734489407327L481.42452343750006,263.1856651203251L482.3371765625,282.6985660997229L483.2978640625,227.49241287149624L484.25855156250003,186.7685958527048L485.195221875,190.4540792316875L486.13189218749994,249.08309456483602L487.09257968749995,276.41011673078947L487.981215625,104.97396153701055L488.9178859375,215.4661511366456L489.85455625000003,216.03516103350512L490.79122656249996,228.63369717565502L491.7038796875,73.90012901349746L492.64055,214.78142866272523L493.55320312500004,235.1100620744807L494.46585625000006,239.40197694894277L495.4025265625,255.55793602545646L496.339196875,161.10208696716913L497.2758671875,234.73208903767076L498.18852031250003,107.68936986637107L499.12519062499996,185.64862822899644L500.08587812499997,19.174838173045828L500.9745140625,205.39054320655958L501.9352015625,278.3251300996478L502.84785468750005,264.7876634829132L503.784525,241.31232264059344L504.7211953125,240.87046828896777L505.657865625,266.4677638259695L506.59453593750004,254.7820993469993L507.53120624999997,258.5147749470759L508.46787656250007,274.4435870963074L509.3805296875,243.75410772299L510.3172,210.56410498820577L511.22985312500003,210.51526333025808L512.14250625,135.86619564469282L513.055159375,256.6450695467945L513.9918296875,245.309217406683L514.880465625,14.62926511020396L515.841153125,249.2000327651146L516.75380625,127.97879478958174L517.7144937500001,279.6808068315287L518.627146875,272.4654827677924L519.587834375,248.40311422187023L520.5245046875,187.10619204986523L521.4371578125,74.13980135188802L522.3738281249999,241.76159945806103L523.3104984375,164.1546447712088L524.24716875,255.37252901411262L525.1598218749999,230.4025578394047L526.120509375,170.20363370856967L527.0571796875,256.9179998011914L527.99385,271.2407587222359L528.906503125,183.02838324256027L529.7951390625001,237.0255049841864L530.683775,173.89086961420952L531.5724109375,230.70634058106288L532.461046875,190.89182144560135L533.3977171875,267.8382339446325L534.286353125,239.58205192656837L535.19900625,265.2452161207061L536.1356765625,221.76303668782066L537.0002953125,275.4340911086289L537.9609828125,266.7257231500339L538.8736359375,221.65955743409194L539.762271875,196.4312603937965L540.6749249999999,237.20372434535147L541.5635609375,261.0919513045526L542.4762140625,272.6970052845062L543.4369015625,230.18211747655218L544.3975890625001,179.82834974760212L545.286225,242.1325051161295L546.198878125,265.3595885303233L547.11153125,200.7664615312474L548.0482015624999,245.42463216875635L549.8735078125,184.79019943641364L550.8341953125,222.60297804233414L551.6988140625,180.66033027841166L552.6595015624999,231.87797910510002L553.5721546875,274.542948485113L555.3974609375,241.19508662532735L556.3341312499999,261.7771835002785L557.2708015625,241.50699055260583L558.1594375,198.87517599879584L559.072090625,215.98051198330148L560.0327781249999,209.0681688516417L560.94543125,256.35456248092464L561.90611875,253.8706995771231L562.7707375,167.5040553912363L563.6593734375,223.51358172983996L564.59604375,241.52849050381778L565.508696875,223.9590900422736L566.373315625,213.99755670681725L567.3099859375,252.5483953054746L568.1986218750001,271.5692429262215L569.0872578125,271.989843596721L569.9758937500001,231.9915497051355L570.8645296875,249.6558271490391L571.7771828125,211.20361685614125L572.713853125,240.67681982056638L573.6024890625,243.33284842319125L574.5631765625001,215.97504822372338L575.4758296875,256.95244324993644L576.364465625,219.3984887769863L578.1177203125,193.30944915074377L579.0303734375,264.0270096416065L579.919009375,222.1678932544625L580.8556796875,263.0360531795925L581.8163671875,191.31796032942583L582.7290203125,201.62283998218558L583.5936390625,268.9102361737218L584.4822750000001,205.89840939560372L585.4189453125,246.65299299348698L586.2835640625,259.0552461500385L587.220234375,265.5155863116529L588.1569046875001,139.8963655084226L589.0695578125001,222.35335181070803L589.9822109375,255.5528674434579L590.870846875,195.09189475969183L591.7835,222.25756992896353L592.7441875,261.27909366091967L593.6328234375,216.3898472291782L594.56949375,260.7736500822545L595.4581296875,63.540313949969175L596.3707828125,226.8316415952233L597.2834359374999,269.44987693104616L598.172071875,187.45655992821975L599.084725,186.98028503669428L599.94934375,268.2138645520217L600.8379796875,257.2768153162102L602.7113203125,246.6252389275378L603.6720078125,39.84400011414618L605.4492796875,169.80356509057282L606.3379156249999,229.4642802669079L607.2745859375001,234.36742603991692L608.21125625,187.03098231110243L609.17194375,264.340683277176L610.084596875,208.58943125925816L610.9732328125,228.93405504495712L611.86186875,234.76363451749907L612.7264875000001,286.65050798433595L613.59110625,259.8620040422925L615.4404296875,241.11684146457674L617.1216328125,247.65401789296251L618.01026875,214.14605184134675L618.8989046875,168.68154712521982L620.652159375,219.05688353191744L621.5648125,264.79269197443267L622.477465625,238.0723475740444L623.39011875,273.44468126501204L624.3267890625,253.51029189736354L625.1914078125,241.0165236314844L626.0320093749999,259.183701772237L626.8726109375,235.6134037665996L627.7852640625,26.430458895473464L628.6979171875,-74.9958415803012L629.53851875,243.2299304361697L630.3791203124999,262.98297911249574L631.2437390624999,273.36057716710377L632.1563921874999,222.85520442788948L633.0690453125,258.64745152400087L633.9576812500001,234.12525663740053L634.8223,267.77037794517616L635.6148671875001,233.07238902125727L636.503503125,216.75948144633853L638.328809375,235.48198717616015L639.2654796875,156.77970332860272L640.0820640625,233.99945271403294L640.8506140625,258.5430616436758L641.8113015624999,230.0568175477788L642.7479718750001,211.31229641772842L643.6366078125,220.18004693952997L644.5492609375,174.28107597435155L645.48593125,259.27246209293037L647.3112375,235.45091132765828L648.223890625,223.8357144564963L649.13654375,217.9550940768683L650.049196875,275.5703701014601L650.96185,289.87479049192905L651.82646875,254.76034167127895L652.6670703125,294.270379345304L653.5797234375,209.34931765425094L654.3963078125,236.16110843743127L656.101528125,264.8518082494486L656.9661468749999,278.99048314495906L658.7434187499999,185.86098176949645L659.6080375,249.33975381193585L660.4486390625,225.00840678741224L661.3132578125,254.47626626369652L662.2259109375,234.364562434268L663.114546875,218.19271607361424L664.0272,268.20687162702706L664.8197671875,273.8021795214323L665.7324203125,232.83336958495465L666.6450734375001,260.28063455210554L667.533709375,281.9021744599179L668.4223453125,244.585904983038L669.3349984375001,208.60064513897927L670.1515828124999,242.55375296150564L671.1122703125,251.4705685024955L671.952871875,245.08829595808146L672.817490625,217.80539622796627L673.7061265625,259.32391535922983L675.507415625,226.18570379621164L676.4200687499999,180.89736809960522L677.2606703125,249.70091175637543L678.14930625,249.70658169556026L679.9025609375001,296.15361241867083L681.60778125,262.9199797882199L682.520434375,238.48106428110094L683.3370187500001,274.9703931731134L684.2736890625,265.04448881914067L685.1623249999999,245.96808724880506L685.978909375,257.7795842871993L686.8675453125,231.4182558542252L687.7801984375001,205.29485296019584L688.6448171875,241.1741021231322L689.5574703125001,282.90448798193546L690.494140625,219.4365861865393L691.40679375,229.01476290656578L692.319446875,258.5106742637867L693.2080828124999,219.8047427831848L694.0727015625,241.39076252652816L694.9853546875,265.539222512679L695.8499734375,234.99414331781313L697.6272453125,251.17250724492382L698.5398984375,213.22755605667257L700.1010156250001,175.73494001672196L700.9416171875,267.50582660090794L701.8542703124999,237.39587228439285L702.7188890625,250.81936166908986L703.5114562499999,263.080679610025L704.4000921875,231.32965589544818L705.24069375,154.69668221632327L706.153346875,240.51649226749564L707.0900171875,218.2822782038893L708.0026703125001,158.25466641739422L708.7712203125,121.69061459957936L709.6598562500001,149.2068180091219L710.5484921875,188.05152554668092L711.38909375,245.49354197509155L712.1816609375,263.9451391561044L713.0943140625,254.52652827004607L713.934915625,241.68062814473268L714.799534375,179.87423616452014L715.664153125,197.7264692287951L716.5527890625,276.170810933922L718.2820265624999,269.56158618740983L719.1466453125,249.70943384678657L720.03528125,237.6595072748534L720.8758828125,274.65112405210596L721.8125531249999,252.93346435708253L722.7252062499999,268.06787793604065L723.5658078125,234.02682878403647L725.2470109374999,229.92758875205513L726.135646875,269.7856003301122L727.0242828125,242.5160679111661L727.9849703125,224.06370328383932L728.8495890625,246.70261355217116L729.64215625,172.9886276551985L730.458740625,252.693946653397L731.2513078125,250.16030282899496L732.1639609375001,266.4515500907854L733.0766140625,233.81781993493436L733.96525,215.40003620942375L734.781834375,256.079444431812L737.1595359375,197.3739708278378L737.9761203125,251.9790990480502L738.816721875,284.71090197016485L739.729375,274.35554840423754L740.59399375,251.2111372851275L741.3625437500001,193.5830609432851L742.2031453125,263.06522186673226L743.1157984375,207.59321721727278L743.8843484375001,226.05439029557556L744.72495,188.9768252583769L745.4694828125,269.1128706366494L746.26205,270.81187650419974L747.9672703125,280.7640458491842L748.7838546875,242.8197131997531L749.576421875,227.8531011846094L750.3209546874999,239.55528294096243L751.9541234375,253.9338764449492L752.69865625,244.0269749780626L753.515240625,192.12316042020683L755.1964437500001,235.73874951306334L756.0850796875,267.85307887631643L756.9016640625,186.704943626341L757.7662828125,257.49690631917355L758.5828671875,275.95853757438016L759.42346875,232.5777755991562L760.240053125,221.14502477109713L761.0566375,200.94658232656337L761.8972390624999,222.1076888093L762.7138234375,216.9683070246791L763.5304078125,227.82711109973997L764.41904375,81.87075770318825L765.2596453125001,273.0951667411409L766.0522125,246.72265879171346L766.91683125,189.23969280252354L767.7814500000001,98.61652790799508L768.64606875,285.6956730439772L769.4626531250001,163.57269137681624L770.2071859375001,220.6524731450633L770.999753125,153.37778563539695L771.8883890625001,253.01816408496575L772.7530078125,257.52475202050346L774.4101937500001,235.38287205744035L775.2988296875,274.85643312270963L776.1394312499999,198.1877960988333L777.0520843749999,224.95209684593223L777.8446515625001,254.5087280973325L778.6612359375,265.78678122102656L779.4778203125,274.8954526132816L780.318421875,263.8976892105021L781.183040625,195.2630925598058L782.09569375,252.90294977528782L782.912278125,245.19422645824565L783.680828125,227.1381733983044L785.36203125,236.65348824712618L786.9952000000001,218.04417512139435L787.7877671875,195.35382304118565L788.580334375,215.36506585723936L789.4689703125,196.39300262232717L790.2375203124999,264.36884397512733L791.0541046875,248.75920931152254L791.8466718750001,254.50785756121522L792.7833421875,243.93056310307537L793.5999265625001,250.11651257141193L794.39249375,225.80325208016683L795.16104375,253.9249591769585L796.0496796875,258.4275380645878L798.5474671875,259.883687264266L799.2919999999999,278.9439323715305L800.1806359375,239.5910780115737L800.9491859375,191.4155749187856L801.837821875,262.43347609731654L803.470990625,170.28928988073966L804.2155234375,208.9527999072587L805.056125,268.4036986976987L805.8006578125,274.3484752982847L806.6652765624999,239.9701850362206L807.409809375,212.38894341518017L808.22639375,226.22097196338353L809.0910124999999,162.04134962000916L809.8595624999999,286.6931184363916L810.72418125,220.79693632283914L811.49273125,211.9873055412877L812.2852984374999,226.34800150996884L813.1018828125,246.0134238534385L813.8223984375,243.34891897809288L814.663,203.9165995613791L815.5036015625001,168.81011156443296L816.3201859374999,218.0463858249553L817.1848046875,236.3807698995473L817.9533546875,223.14541367877186L818.8660078125,250.12345395150487L819.6345578125,223.86528977563816L820.4271249999999,267.511078453668L821.243709375,247.14768659654618L822.012259375,242.14255064474582L822.8528609374999,279.4761735718581L823.6694453125,228.38865271306713L825.3746656249999,249.76444943851328L826.19125,224.5850284194333L827.8004015624999,210.6109535766218L829.409553125,256.0207061527417L830.2261374999999,259.8799588497111L831.09075625,253.73617883816027L831.8833234374999,256.84581975720516L832.675890625,234.23055714432198L833.6125609375,266.7307459143421L834.405128125,260.8725876574241L835.2217125,254.53176866838356L837.287190625,260.6165870396235L838.8002734375,240.57366129067032L839.6648921875001,251.03079312857093L840.457459375,184.33303052177766L841.3460953125,263.36610663947374L842.186696875,221.60392330354506L843.0993500000001,214.4713116253717L843.9639687499999,259.38952629185746L844.780553125,257.50811447168337L846.3416703124999,235.91069185064606L847.0621859375,228.80870929849334L847.9027875,211.44138776038093L849.487921875,268.8381191290598L850.352540625,268.2161897998086L851.217159375,243.8563498990784L851.8656234375,212.31494784521254L852.658190625,230.5355780490075L853.426740625,269.13754919013167L854.1712734375001,218.6984517400556L854.8197375000001,268.41376713516024L856.3088031249999,245.86742578303483L857.077353125,82.65799725933937L857.8218859374999,253.9161679076164L859.5271062500001,83.46743548648072L860.3436906249999,226.5988991825031L861.112240625,251.12365413255355L861.9048078124999,150.86395223487398L862.7213921875,260.4319245657484L864.3305437500001,275.89169529132346L865.1231109375,220.99131787428664L865.915678125,222.6881302199099L866.82833125,222.2513845407619L867.59688125,220.1702877714785L868.36543125,238.8430469439674L870.76715,275.47591120552545L871.5597171874999,228.34943277009978L872.3763015625,264.6626728235499" style="fill: none;" fill="none"></path></g></g></g></g></g></g><g transform="translate(68, 377)" clip-path="url(#clip_1)"><clipPath id="clip_1"><rect width="960" height="22"></rect></clipPath><g><g><line x1="0" y1="0" x2="0" y2="5" style="visibility: inherit;" fill="rgb(0, 0, 0)" stroke="rgb(204, 204, 204)" stroke-width="1px"></line><line x1="120.0859375" y1="0" x2="120.0859375" y2="5" style="visibility: inherit;" fill="rgb(0, 0, 0)" stroke="rgb(204, 204, 204)" stroke-width="1px"></line><line x1="240.171875" y1="0" x2="240.171875" y2="5" style="visibility: inherit;" fill="rgb(0, 0, 0)" stroke="rgb(204, 204, 204)" stroke-width="1px"></line><line x1="360.2578125" y1="0" x2="360.2578125" y2="5" style="visibility: inherit;" fill="rgb(0, 0, 0)" stroke="rgb(204, 204, 204)" stroke-width="1px"></line><line x1="480.34375" y1="0" x2="480.34375" y2="5" style="visibility: inherit;" fill="rgb(0, 0, 0)" stroke="rgb(204, 204, 204)" stroke-width="1px"></line><line x1="600.4296875" y1="0" x2="600.4296875" y2="5" style="visibility: inherit;" fill="rgb(0, 0, 0)" stroke="rgb(204, 204, 204)" stroke-width="1px"></line><line x1="720.515625" y1="0" x2="720.515625" y2="5" style="visibility: inherit;" fill="rgb(0, 0, 0)" stroke="rgb(204, 204, 204)" stroke-width="1px"></line><line x1="840.6015625" y1="0" x2="840.6015625" y2="5" style="visibility: inherit;" fill="rgb(0, 0, 0)" stroke="rgb(204, 204, 204)" stroke-width="1px"></line><line x1="960.6875" y1="0" x2="960.6875" y2="5" style="visibility: inherit;" fill="rgb(0, 0, 0)" stroke="rgb(204, 204, 204)" stroke-width="1px"></line></g><g transform="translate(0, 8)"><text x="0" y="0" dx="0em" dy="0.95em" style="text-anchor: middle; visibility: hidden; font-family: &quot;Helvetica Neue&quot;, sans-serif; font-size: 12px; font-weight: 200;" fill="rgb(50, 49, 63)" stroke="none" stroke-width="1px">-5k</text><text x="120.0859375" y="0" dx="0em" dy="0.95em" style="text-anchor: middle; visibility: inherit; font-family: &quot;Helvetica Neue&quot;, sans-serif; font-size: 12px; font-weight: 200;" fill="rgb(50, 49, 63)" stroke="none" stroke-width="1px">0</text><text x="240.171875" y="0" dx="0em" dy="0.95em" style="text-anchor: middle; visibility: inherit; font-family: &quot;Helvetica Neue&quot;, sans-serif; font-size: 12px; font-weight: 200;" fill="rgb(50, 49, 63)" stroke="none" stroke-width="1px">5k</text><text x="360.2578125" y="0" dx="0em" dy="0.95em" style="text-anchor: middle; visibility: inherit; font-family: &quot;Helvetica Neue&quot;, sans-serif; font-size: 12px; font-weight: 200;" fill="rgb(50, 49, 63)" stroke="none" stroke-width="1px">10k</text><text x="480.34375" y="0" dx="0em" dy="0.95em" style="text-anchor: middle; visibility: inherit; font-family: &quot;Helvetica Neue&quot;, sans-serif; font-size: 12px; font-weight: 200;" fill="rgb(50, 49, 63)" stroke="none" stroke-width="1px">15k</text><text x="600.4296875" y="0" dx="0em" dy="0.95em" style="text-anchor: middle; visibility: inherit; font-family: &quot;Helvetica Neue&quot;, sans-serif; font-size: 12px; font-weight: 200;" fill="rgb(50, 49, 63)" stroke="none" stroke-width="1px">20k</text><text x="720.515625" y="0" dx="0em" dy="0.95em" style="text-anchor: middle; visibility: inherit; font-family: &quot;Helvetica Neue&quot;, sans-serif; font-size: 12px; font-weight: 200;" fill="rgb(50, 49, 63)" stroke="none" stroke-width="1px">25k</text><text x="840.6015625" y="0" dx="0em" dy="0.95em" style="text-anchor: middle; visibility: inherit; font-family: &quot;Helvetica Neue&quot;, sans-serif; font-size: 12px; font-weight: 200;" fill="rgb(50, 49, 63)" stroke="none" stroke-width="1px">30k</text><text x="960.6875" y="0" dx="0em" dy="0.95em" style="text-anchor: middle; visibility: hidden; font-family: &quot;Helvetica Neue&quot;, sans-serif; font-size: 12px; font-weight: 200;" fill="rgb(50, 49, 63)" stroke="none" stroke-width="1px">35k</text></g><line x1="0" y1="0" x2="960.6875" y2="0" fill="rgb(0, 0, 0)" stroke="rgb(204, 204, 204)" stroke-width="1px"></line></g></g></g></g></svg>