<svg viewBox="0 0 1029 400" xmlns="http://www.w3.org/2000/svg"><g><g><g><g><g><line x1="68.3125" y1="377.828125" x2="63.3125" y2="377.828125" style="visibility: inherit;" fill="rgb(0, 0, 0)" stroke="rgb(204, 204, 204)" stroke-width="1px"></line><line x1="68.3125" y1="340.0453125" x2="63.3125" y2="340.0453125" style="visibility: inherit;" fill="rgb(0, 0, 0)" stroke="rgb(204, 204, 204)" stroke-width="1px"></line><line x1="68.3125" y1="302.2625" x2="63.3125" y2="302.2625" style="visibility: inherit;" fill="rgb(0, 0, 0)" stroke="rgb(204, 204, 204)" stroke-width="1px"></line><line x1="68.3125" y1="264.47968749999995" x2="63.3125" y2="264.47968749999995" style="visibility: inherit;" fill="rgb(0, 0, 0)" stroke="rgb(204, 204, 204)" stroke-width="1px"></line><line x1="68.3125" y1="226.696875" x2="63.3125" y2="226.696875" style="visibility: inherit;" fill="rgb(0, 0, 0)" stroke="rgb(204, 204, 204)" stroke-width="1px"></line><line x1="68.3125" y1="188.9140625" x2="63.3125" y2="188.9140625" style="visibility: inherit;" fill="rgb(0, 0, 0)" stroke="rgb(204, 204, 204)" stroke-width="1px"></line><line x1="68.3125" y1="151.13124999999997" x2="63.3125" y2="151.13124999999997" style="visibility: inherit;" fill="rgb(0, 0, 0)" stroke="rgb(204, 204, 204)" stroke-width="1px"></line><line x1="68.3125" y1="113.34843750000005" x2="63.3125" y2="113.34843750000005" style="visibility: inherit;" fill="rgb(0, 0, 0)" stroke="rgb(204, 204, 204)" stroke-width="1px"></line><line x1="68.3125" y1="75.56562500000001" x2="63.3125" y2="75.56562500000001" style="visibility: inherit;" fill="rgb(0, 0, 0)" stroke="rgb(204, 204, 204)" stroke-width="1px"></line><line x1="68.3125" y1="37.782812500000034" x2="63.3125" y2="37.782812500000034" style="visibility: inherit;" fill="rgb(0, 0, 0)" stroke="rgb(204, 204, 204)" stroke-width="1px"></line><line x1="68.3125" y1="0" x2="63.3125" y2="0" style="visibility: inherit;" fill="rgb(0, 0, 0)" stroke="rgb(204, 204, 204)" stroke-width="1px"></line></g><g transform="translate(58.3125, 0)"><text x="0" y="377.828125" dx="0em" dy="0.3em" style="text-anchor: end; visibility: hidden; font-family: &quot;Helvetica Neue&quot;, sans-serif; font-size: 12px; font-weight: 200;" fill="rgb(50, 49, 63)" stroke="none" stroke-width="1px">5e-4</text><text x="0" y="340.0453125" dx="0em" dy="0.3em" style="text-anchor: end; visibility: inherit; font-family: &quot;Helvetica Neue&quot;, sans-serif; font-size: 12px; font-weight: 200;" fill="rgb(50, 49, 63)" stroke="none" stroke-width="1px">6e-4</text><text x="0" y="302.2625" dx="0em" dy="0.3em" style="text-anchor: end; visibility: inherit; font-family: &quot;Helvetica Neue&quot;, sans-serif; font-size: 12px; font-weight: 200;" fill="rgb(50, 49, 63)" stroke="none" stroke-width="1px">7e-4</text><text x="0" y="264.47968749999995" dx="0em" dy="0.3em" style="text-anchor: end; visibility: inherit; font-family: &quot;Helvetica Neue&quot;, sans-serif; font-size: 12px; font-weight: 200;" fill="rgb(50, 49, 63)" stroke="none" stroke-width="1px">8e-4</text><text x="0" y="226.696875" dx="0em" dy="0.3em" style="text-anchor: end; visibility: inherit; font-family: &quot;Helvetica Neue&quot;, sans-serif; font-size: 12px; font-weight: 200;" fill="rgb(50, 49, 63)" stroke="none" stroke-width="1px">9e-4</text><text x="0" y="188.9140625" dx="0em" dy="0.3em" style="text-anchor: end; visibility: inherit; font-family: &quot;Helvetica Neue&quot;, sans-serif; font-size: 12px; font-weight: 200;" fill="rgb(50, 49, 63)" stroke="none" stroke-width="1px">1e-3</text><text x="0" y="151.13124999999997" dx="0em" dy="0.3em" style="text-anchor: end; visibility: inherit; font-family: &quot;Helvetica Neue&quot;, sans-serif; font-size: 12px; font-weight: 200;" fill="rgb(50, 49, 63)" stroke="none" stroke-width="1px">1.1e-3</text><text x="0" y="113.34843750000005" dx="0em" dy="0.3em" style="text-anchor: end; visibility: inherit; font-family: &quot;Helvetica Neue&quot;, sans-serif; font-size: 12px; font-weight: 200;" fill="rgb(50, 49, 63)" stroke="none" stroke-width="1px">1.2e-3</text><text x="0" y="75.56562500000001" dx="0em" dy="0.3em" style="text-anchor: end; visibility: inherit; font-family: &quot;Helvetica Neue&quot;, sans-serif; font-size: 12px; font-weight: 200;" fill="rgb(50, 49, 63)" stroke="none" stroke-width="1px">1.3e-3</text><text x="0" y="37.782812500000034" dx="0em" dy="0.3em" style="text-anchor: end; visibility: inherit; font-family: &quot;Helvetica Neue&quot;, sans-serif; font-size: 12px; font-weight: 200;" fill="rgb(50, 49, 63)" stroke="none" stroke-width="1px">1.4e-3</text><text x="0" y="0" dx="0em" dy="0.3em" style="text-anchor: end; visibility: hidden; font-family: &quot;Helvetica Neue&quot;, sans-serif; font-size: 12px; font-weight: 200;" fill="rgb(50, 49, 63)" stroke="none" stroke-width="1px">1.5e-3</text></g><line x1="68.3125" y1="0" x2="68.3125" y2="377.828125" fill="rgb(0, 0, 0)" stroke="rgb(204, 204, 204)" stroke-width="1px"></line></g></g><g transform="translate(68, 0)" clip-path="url(#clip_0)"><clipPath id="clip_0"><rect width="960" height="377"></rect></clipPath><g><g><g><line x1="0" y1="0" x2="0" y2="377.828125" fill="rgb(0, 0, 0)" stroke="rgb(60, 60, 60)" stroke-width="1px" opacity="0.25"></line><line x1="120.0859375" y1="0" x2="120.0859375" y2="377.828125" fill="rgb(0, 0, 0)" stroke="rgb(60, 60, 60)" stroke-width="1px" opacity="0.25"></line><line x1="240.171875" y1="0" x2="240.171875" y2="377.828125" fill="rgb(0, 0, 0)" stroke="rgb(60, 60, 60)" stroke-width="1px" opacity="0.25"></line><line x1="360.2578125" y1="0" x2="360.2578125" y2="377.828125" fill="rgb(0, 0, 0)" stroke="rgb(60, 60, 60)" stroke-width="1px" opacity="0.25"></line><line x1="480.34375" y1="0" x2="480.34375" y2="377.828125" fill="rgb(0, 0, 0)" stroke="rgb(60, 60, 60)" stroke-width="1px" opacity="0.25"></line><line x1="600.4296875" y1="0" x2="600.4296875" y2="377.828125" fill="rgb(0, 0, 0)" stroke="rgb(60, 60, 60)" stroke-width="1px" opacity="0.25"></line><line x1="720.515625" y1="0" x2="720.515625" y2="377.828125" fill="rgb(0, 0, 0)" stroke="rgb(60, 60, 60)" stroke-width="1px" opacity="0.25"></line><line x1="840.6015625" y1="0" x2="840.6015625" y2="377.828125" fill="rgb(0, 0, 0)" stroke="rgb(60, 60, 60)" stroke-width="1px" opacity="0.25"></line><line x1="960.6875" y1="0" x2="960.6875" y2="377.828125" fill="rgb(0, 0, 0)" stroke="rgb(60, 60, 60)" stroke-width="1px" opacity="0.25"></line></g><g><line x1="0" y1="377.828125" x2="960.6875" y2="377.828125" fill="rgb(0, 0, 0)" stroke="rgb(60, 60, 60)" stroke-width="1px" opacity="0.25"></line><line x1="0" y1="340.0453125" x2="960.6875" y2="340.0453125" fill="rgb(0, 0, 0)" stroke="rgb(60, 60, 60)" stroke-width="1px" opacity="0.25"></line><line x1="0" y1="302.2625" x2="960.6875" y2="302.2625" fill="rgb(0, 0, 0)" stroke="rgb(60, 60, 60)" stroke-width="1px" opacity="0.25"></line><line x1="0" y1="264.47968749999995" x2="960.6875" y2="264.47968749999995" fill="rgb(0, 0, 0)" stroke="rgb(60, 60, 60)" stroke-width="1px" opacity="0.25"></line><line x1="0" y1="226.696875" x2="960.6875" y2="226.696875" fill="rgb(0, 0, 0)" stroke="rgb(60, 60, 60)" stroke-width="1px" opacity="0.25"></line><line x1="0" y1="188.9140625" x2="960.6875" y2="188.9140625" fill="rgb(0, 0, 0)" stroke="rgb(60, 60, 60)" stroke-width="1px" opacity="0.25"></line><line x1="0" y1="151.13124999999997" x2="960.6875" y2="151.13124999999997" fill="rgb(0, 0, 0)" stroke="rgb(60, 60, 60)" stroke-width="1px" opacity="0.25"></line><line x1="0" y1="113.34843750000005" x2="960.6875" y2="113.34843750000005" fill="rgb(0, 0, 0)" stroke="rgb(60, 60, 60)" stroke-width="1px" opacity="0.25"></line><line x1="0" y1="75.56562500000001" x2="960.6875" y2="75.56562500000001" fill="rgb(0, 0, 0)" stroke="rgb(60, 60, 60)" stroke-width="1px" opacity="0.25"></line><line x1="0" y1="37.782812500000034" x2="960.6875" y2="37.782812500000034" fill="rgb(0, 0, 0)" stroke="rgb(60, 60, 60)" stroke-width="1px" opacity="0.25"></line><line x1="0" y1="0" x2="960.6875" y2="0" fill="rgb(0, 0, 0)" stroke="rgb(60, 60, 60)" stroke-width="1px" opacity="0.25"></line></g></g></g><g><g><line x1="0" y1="566.7421875" x2="960.6875" y2="566.7421875" fill="rgb(0, 0, 0)" stroke="rgb(153, 153, 153)" stroke-width="1.5px"></line></g></g><g><g><line x1="120.0859375" y1="0" x2="120.0859375" y2="377.828125" fill="rgb(0, 0, 0)" stroke="rgb(153, 153, 153)" stroke-width="1.5px"></line></g></g><g><g><g><g><g><path stroke="rgb(255, 112, 67)" stroke-width="2px" d="M146.04851718749998,-4.630488408307258L147.0092046875,8.546331050258573L147.9698921875,19.2521711106412L148.9305796875,27.784511229953637L149.8912671875,36.71248480808174L150.8519546875,41.44143856446692L151.8126421875,28.49095115661669L152.7733296875,39.682253455280545L153.7340171875,28.2305542097464L154.6947046875,41.258138428909604L155.6553921875,52.59027622492482L156.6160796875,57.67339043626697L157.5767671875,63.22916651808998L158.5374546875,77.6418307384667L159.4981421875,67.44049518452738L160.4588296875,71.90302813582878L161.41951718750002,61.55102264983174L162.3802046875,75.13305954376659L163.3408921875,66.77977553201413L164.3015796875,74.11647924628056L165.26226718750002,81.6968835745144L166.22295468750002,90.54458914139855L167.1836421875,98.85202958897366L168.14432968749998,104.06446893470019L169.10501718749998,108.35324948771046L170.0657046875,118.77060072079286L171.0263921875,122.37282795936969L171.9870796875,131.02986095059018L172.94776718749998,121.58685554341815L173.90845468749998,126.62380767899592L174.8691421875,129.57835198155345L175.8298296875,126.1300955496803L176.7905171875,132.6166090540897L177.7512046875,126.03580348289887L178.71189218749998,128.29202275903438L179.6725796875,132.76525926027915L180.6332671875,141.02327359665716L181.5939546875,144.79983412213593L182.5546421875,151.55207742194116L183.5153296875,152.8072921940585L184.4760171875,159.8809579404826L185.4367046875,161.4175672443247L186.3973921875,164.4666169242585L187.3580796875,167.62979545128798L188.31876718750001,143.2414601961549L189.2794546875,140.55445765500778L190.2401421875,141.06494359949292L191.2008296875,151.33086688713183L192.1615171875,147.89631912136664L193.12220468750002,155.38997254008652L194.08289218750002,163.37043989294006L195.0435796875,167.44093610059014L196.0042671875,171.98298947951483L196.9649546875,170.7726507079373L197.92564218750002,172.74653023527364L198.8863296875,175.99339085865293L199.8470171875,178.72411278191467L200.80770468749998,174.79733500004647L201.76839218749998,178.00335108004L202.7290796875,178.3406242362594L203.6897671875,183.30608885717072L204.6504546875,179.02533031497208L205.61114218749998,168.48954703071345L206.57182968749999,174.69079989034392L207.5325171875,170.90138682649666L208.4932046875,176.5376189860312L209.4538921875,174.62869345054364L210.4145796875,163.81383118487346L211.3752671875,169.73958731475895L212.3359546875,167.91655780612885L213.2966421875,172.96595111485217L214.2573296875,178.64792615176017L215.2180171875,180.5592185882008L216.17870468750002,185.15238620465942L217.1393921875,189.50598543205L218.1000796875,194.64543858516834L219.0607671875,191.41942579549354L220.0214546875,191.22731489589628L220.98214218750002,190.912272376223L221.9428296875,192.37007390383565L222.9035171875,194.00850477599286L223.8642046875,196.69311887836938L224.8248921875,193.52699681324594L225.78557968750002,198.5156495609308L226.74626718750002,203.0801871762388L227.7069546875,209.8867121681552L228.66764218749998,205.4469233595215L229.62832968749998,196.41571871617685L230.5890171875,194.65528002082823L231.5497046875,201.29383661354964L232.5103921875,192.1145268371535L233.47107968749998,198.6497882102048L234.4317671875,189.7932892435043L235.3924546875,193.21821742783757L236.3531421875,192.777142834858L237.3138296875,201.53446686061733L238.2745171875,198.20899243181623L239.2352046875,207.3134865261157L240.1958921875,198.39758742005282L241.1565796875,207.37263064894734L242.1172671875,211.43042268337993L243.0779546875,213.73501760247447L244.0386421875,219.04511689004397L244.9993296875,207.84761999399024L245.9600171875,208.25422358053527L246.9207046875,209.13832091924243L247.8813921875,191.67020456149282L248.84207968750002,191.53460003501934L249.8027671875,183.60355283502528L250.7634546875,183.16009974911842L251.7241421875,186.24493549609875L252.6848296875,189.56609422086314L253.64551718750002,194.73092336013895L254.6062046875,193.33698209253384L255.5668921875,199.61185655877298L256.5275796875,205.67635975265216L257.4882671875,194.01043118233383L258.4489546875,199.63725159365796L259.4096421875,190.4108626681821L260.37032968750003,193.44769044793404L261.33101718750004,186.3092150318878L262.29170468750004,187.51222190584616L263.2523921875,195.93563627644633L264.2130796875,198.16197034223342L265.1737671875,201.40806101662173L266.1344546875,208.8041752921534L267.0951421875,189.11041125476126L268.0558296875,191.42057945206028L269.0165171875,195.9349820682289L269.97720468750003,201.72259118222038L270.93789218750004,207.30934347879858L271.89857968750005,210.1674400283909L272.85926718750005,198.6014070493144L273.8199546875,197.73209479774633L274.78064218749995,203.2079712393178L275.74132968749996,203.5035832671562L276.70201718749996,206.19289639602437L277.66270468749997,203.91147141560873L278.6233921875,206.02281824426862L279.5840796875,213.0176695481537L280.5447671875,215.0224451069198L281.5054546875,217.8346150585034L282.4661421875,220.4270190985698L283.4268296875,216.03172527519055L284.3875171875,222.42846334171966L285.34820468749996,223.37912619063056L286.30889218749996,212.07845085027543L287.26957968749997,210.6982467540568L288.2302671875,215.75697733598463L289.1909546875,216.98633354773548L290.1516421875,213.6605780894393L291.1123296875,206.4729758958696L292.0730171875,205.35793825166928L293.0337046875,198.12339687564753L293.9943921875,204.0703410293339L294.9550796875,204.28877901357885L295.91576718749997,209.3538158779618L296.8764546875,213.59799633078248L297.8371421875,218.10995438131928L298.7978296875,215.59229040250753L299.7585171875,220.96590111251115L300.7192046875,223.38449290002316L301.6798921875,225.7232860361215L302.6405796875,177.11556152322132L303.6012671875,168.64165736195605L304.5619546875,175.23703600260527L305.5226421875,179.93664059911916L306.4833296875,183.82107339081023L307.4440171875,191.2818762906551L308.4047046875,192.56379154241233L309.3653921875,196.79557490594703L310.3260796875,197.2355172167477L311.2867671875,203.73840693393709L312.2474546875,208.18219391102488L313.2081421875,207.3324124873442L314.1688296875,206.7245590632804L315.1295171875,209.5131999980286L316.09020468750003,200.57100948212832L317.05089218750004,195.91292982417568L318.0115796875,202.2931543621646L318.9722671875,201.52452527413797L319.9329546875,201.48028038413415L320.8936421875,202.78043957680902L321.8543296875,198.94219696542163L322.8150171875,203.0575142154806L323.7757046875,202.22183290721645L324.73639218750003,204.73482619916842L325.69707968750004,210.98742565805347L326.65776718750004,209.33288785638464L327.61845468750005,212.42178246915236L328.5791421875,217.86153960353514L329.5398296875,217.0547690095467L330.5005171875,204.63862650498976L331.4612046875,203.5697069303293L332.4218921875,204.5246046331288L333.38257968749997,205.92936917519785L334.3432671875,207.54869390430008L335.3039546875,209.20952375630537L336.2646421875,212.23912436092235L337.2253296875,212.97729087566734L338.1860171875,218.58364407614513L339.1467046875,223.33156799962032L340.10739218749995,226.22113359285663L341.06807968749996,232.32224334230705L342.02876718749997,229.46762192468987L342.9894546875,234.29134529996583L343.9501421875,231.1537951069182L344.9108296875,237.1776806978975L345.8715171875,242.5341003716038L346.8322046875,241.61490075628882L347.7928921875,248.15209115388558L348.7535796875,243.9354370705129L349.7142671875,247.1686234585849L350.67495468749996,248.5863447382241L351.63564218749997,249.44966116741872L352.5963296875,255.66870325335307L353.5570171875,259.598431461932L354.5177046875,256.09753379902486L355.4783921875,254.19048215898104L356.4390796875,250.58352136962645L357.3997671875,252.02340903137878L358.3364375,249.03662040523443L359.297125,252.31661082591472L360.2578125,256.4147990094018L361.2185,256.77413031476726L362.1791875,257.28851791359625L363.139875,261.76669803464006L364.1005625,260.87979943606786L365.06125000000003,259.6832316333019L366.0219375,254.94378515108812L366.982625,247.41710647089215L367.9433125,239.77411257542553L368.904,242.80505551586742L369.8646875,244.49320848972332L370.825375,246.1200823199193L371.7860625,244.4110354933155L372.7227328125,241.5350010434266L373.6834203125,245.29749550231853L374.6441078125,229.15709249969234L375.6047953125,229.0795904194926L376.5654828125,221.39690139315817L377.5261703125,220.9584201919956L378.48685781250003,225.18951817503512L379.44754531250004,230.48092875339597L380.40823281250005,231.16620095173352L381.3689203125,233.14221925230527L382.3296078125,240.8600389166513L383.2902953125,246.79869726954544L384.22696562500005,249.88263905027307L385.187653125,251.14013065727036L386.148340625,245.58543285536484L387.10902812499995,248.19864581537934L388.06971562499996,248.49132753865848L389.03040312499996,244.18934589574752L389.99109062499997,246.8084935534087L390.951778125,251.68279980205506L391.912465625,255.6060441149691L392.873153125,258.46752587303763L393.833840625,258.3993308487942L394.794528125,255.88526823369807L395.755215625,250.6598517307017L396.715903125,252.870569727393L397.67659062499996,256.2018063504864L398.63727812499997,260.64625155371056L399.597965625,265.1503385861083L400.558653125,252.03919451307195L401.519340625,256.29137022495627L402.480028125,255.71104484863912L403.4166984375,256.3271805521437L404.3773859375,249.66264590191162L405.3380734375,248.674760356873L406.2987609375,247.17815398918017L407.23543125,245.0639257218576L408.19611875,243.97009404853597L409.15680625,244.7795757473561L410.11749375,245.58718187652752L411.07818125,243.94491478167922L412.03886875,247.1946614081729L412.99955625,240.22472200504117L413.96024375,244.4103000416286L414.92093125,250.2118088395984L415.88161875000003,250.16745344504778L416.84230625000004,252.3236405386115L417.80299375,256.6112494370809L418.76368125,251.6911793760131L419.72436875,251.23431958961083L420.68505625,253.32217774586118L421.64574375,255.95696207570148L422.60643125,258.33161544874L423.56711875,260.4431227891888L424.52780625,256.57882682912447L425.48849375000003,262.08656940492006L426.4251640625,263.7016104978245L427.3858515625,265.1532449439311L428.29850468750004,267.08659046256133L429.25919218750005,274.4732602474164L430.1958625,280.5541216709099L431.15655,272.885835623721L432.1172375,276.35307016950213L433.029890625,277.4321469419282L433.990578125,276.05867696568134L434.95126562499996,275.37401556991745L435.91195312499997,273.0249943569568L436.872640625,274.3496693883578L437.833328125,278.77414628100394L438.794015625,279.36268253275983L439.754703125,275.0896753661105L440.715390625,280.42809005094284L441.676078125,267.1632175374206L442.636765625,265.3251209355L443.597453125,269.4397455336316L444.558140625,271.97271057562523L445.4948109375,270.46598293446493L446.4554984375,271.976080193428L447.39216875,275.8417129733149L448.3288390625,280.97893103559636L449.2895265625,284.7790174636051L450.2502140625,288.8481478273259L451.2109015625,292.3145624958131L452.1715890625,296.28818019085344L454.0209125,296.6392141444326L454.9816,299.3770486025494L455.9182703125,296.0740985917169L456.8789578125,295.2580476301753L457.8396453125,291.7119544175087L458.776315625,294.57290234892525L459.7129859375,290.72000619623407L460.6256390625,291.81481840886073L461.5863265625,290.874346184372L462.5470140625,290.20418217908986L463.50770156249996,287.75832818059087L464.444371875,290.38478414663643L465.405059375,292.958860989762L466.365746875,291.19951891851076L467.326434375,292.2176350726611L468.2390875,289.8957407417927L469.151740625,289.73951314890184L470.112428125,288.7114961372778L471.073115625,291.2738771976808L472.033803125,284.3443189194453L472.994490625,283.99087977091574L473.95517812500003,278.6527959524795L474.8918484375,281.1501473991114L475.780484375,280.86435241326234L476.741171875,277.810774552889L477.701859375,278.3205787005235L478.6145125,284.8609211924098L480.48785312499996,286.4147425713353L481.42452343750006,270.6202534661009L482.3371765625,268.90765565084087L483.2978640625,267.45186278684207L484.25855156250003,268.8222643122418L485.195221875,274.5991835575195L486.13189218749994,275.8929871198769L487.09257968749995,278.4766359482316L487.981215625,260.31437379217414L488.9178859375,260.83206295644743L489.85455625000003,262.0605777050248L490.79122656249996,266.8061984478302L491.7038796875,266.67375132064143L492.64055,268.87038089081585L493.55320312500004,266.45209919777034L494.46585625000006,268.66133995276687L495.4025265625,264.6404609962334L496.339196875,255.78101671293268L497.2758671875,256.9274569996594L498.18852031250003,256.4983059211064L499.12519062499996,259.0902557709102L500.08587812499997,244.54831690065353L500.9745140625,245.41465996597464L501.9352015625,249.9442522298183L502.84785468750005,250.47186105998648L503.784525,250.41059220335978L504.7211953125,254.88152687837976L505.657865625,257.5967752899843L506.59453593750004,250.48883522369593L507.53120624999997,252.13858837835608L508.46787656250007,259.3909310934839L509.3805296875,263.5621672570804L510.3172,268.10246741281657L511.22985312500003,271.36686250790297L512.14250625,274.2282094058752L513.055159375,258.3143689175589L513.9918296875,259.9927926456637L514.880465625,259.5445726651535L515.841153125,263.6036345277062L516.75380625,267.05184738354063L517.7144937500001,269.8487165271267L518.627146875,270.76603951543314L519.587834375,276.7722686272655L520.5245046875,274.3108372886503L521.4371578125,271.60482207375026L522.3738281249999,262.5954627312868L523.3104984375,265.06280852285835L524.24716875,264.6130412898413L525.1598218749999,270.01640420773356L526.120509375,230.65149591386867L527.0571796875,233.1267961690148L527.99385,234.41850964691028L528.906503125,235.98357402544252L529.7951390625001,239.16262949459357L530.683775,244.8424395191242L531.5724109375,245.249590653361L532.461046875,247.77317635393234L533.3977171875,253.81120158738565L534.286353125,254.12811637837757L535.19900625,256.81698088494056L536.1356765625,260.41868797439054L537.0002953125,265.25966550067176L537.9609828125,271.5737612724837L538.8736359375,272.0471523702623L539.762271875,278.48083230239047L540.6749249999999,271.7999428991323L541.5635609375,276.6328690293385L542.4762140625,281.4743832632397L543.4369015625,280.91239987490667L544.3975890625001,277.63402407959813L545.286225,281.29838361674376L546.198878125,282.82374558120296L547.11153125,285.2562946168936L548.0482015624999,287.70193509856693L549.8735078125,290.9001715035836L550.8341953125,288.8095244171588L551.6988140625,288.6342534136032L552.6595015624999,285.32554100561447L553.5721546875,287.7075991690855L555.3974609375,286.1485263619764L556.3341312499999,290.4279536741329L557.2708015625,286.19594736122446L558.1594375,288.1276052148569L559.072090625,288.1665887583482L560.0327781249999,290.59662047371734L560.94543125,293.4405131658226L561.90611875,291.9844952688994L562.7707375,287.6273131052023L563.6593734375,278.906023541784L564.59604375,278.687471407708L565.508696875,279.7231948124015L566.373315625,260.51789462347386L567.3099859375,262.8563159939121L568.1986218750001,266.6449401161353L569.0872578125,269.54358205346773L569.9758937500001,268.46398279868527L570.8645296875,274.2465845516082L571.7771828125,276.8301162347855L572.713853125,281.8685446063621L573.6024890625,283.4051409644014L574.5631765625001,288.93754697099956L575.4758296875,288.38730767252144L576.364465625,290.01233879922296L578.1177203125,286.3190090423557L579.0303734375,290.75717446403206L579.919009375,287.7109972560801L580.8556796875,292.828107462032L581.8163671875,290.27760793124435L582.7290203125,274.3446588409339L583.5936390625,274.1622816295381L584.4822750000001,275.75984917988893L585.4189453125,275.02779034071324L586.2835640625,274.7695032859965L587.220234375,275.0591817290454L588.1569046875001,282.2622468892263L589.0695578125001,286.93771609547855L589.9822109375,288.48385120393743L590.870846875,290.9950888385707L591.7835,276.85410915529224L592.7441875,263.9690516718566L593.6328234375,261.5220929128065L594.56949375,248.36740180487598L595.4581296875,245.27415298008486L596.3707828125,232.2956385860862L597.2834359374999,238.7213994741385L598.172071875,229.49183084622706L599.084725,228.8812520653043L599.94934375,235.36125797209266L600.8379796875,237.86017401421134L602.7113203125,240.44665847348628L603.6720078125,238.75431241950167L605.4492796875,234.0964538677397L606.3379156249999,233.60939762487618L607.2745859375001,235.42978489263803L608.21125625,241.77499325053125L609.17194375,236.9396364614933L610.084596875,241.57549025575804L610.9732328125,213.3875516000467L611.86186875,218.55016391566338L612.7264875000001,225.83997744370623L613.59110625,222.27188291470253L615.4404296875,226.54022807496898L617.1216328125,229.54145251235204L618.01026875,233.49249706408452L618.8989046875,238.04552477410925L620.652159375,244.6395458014257L621.5648125,252.63225385794368L622.477465625,256.5381660810442L623.39011875,261.57167557318155L624.3267890625,266.8125692439311L625.1914078125,272.42239346732015L626.0320093749999,277.20762714947773L626.8726109375,279.6182384011009L627.7852640625,275.68270327626044L628.6979171875,270.7237288617507L629.53851875,268.0074341594959L630.3791203124999,270.11953226879984L631.2437390624999,260.51451642121333L632.1563921874999,254.02892360815827L633.0690453125,260.37108232032836L633.9576812500001,264.13321042188556L634.8223,266.01318897722746L635.6148671875001,268.6844080032787L636.503503125,271.11959063506083L638.328809375,272.6921239482035L639.2654796875,260.5359033577356L640.0820640625,266.98307281419L640.8506140625,262.5589572270645L641.8113015624999,265.70842484249823L642.7479718750001,264.98074946191L643.6366078125,268.18176672602976L644.5492609375,272.61720484311667L645.48593125,278.37490093061643L647.3112375,278.2456145574588L648.223890625,281.89547833983806L649.13654375,283.1181397589897L650.049196875,282.84401610468984L650.96185,286.3878130251958L651.82646875,280.9101966951712L652.6670703125,279.9077500302406L653.5797234375,275.41221664577364L654.3963078125,278.92078303793966L656.101528125,280.5138283138713L656.9661468749999,284.26209458871256L658.7434187499999,283.75963409514327L659.6080375,283.3276237345422L660.4486390625,280.81906939958077L661.3132578125,280.96713504384485L662.2259109375,277.0613940630276L663.114546875,278.6124294491619L664.0272,275.4238493406465L664.8197671875,267.73115222421114L665.7324203125,270.2952474173953L666.6450734375001,270.2326348027124L667.533709375,275.7402933369232L668.4223453125,276.56018807309465L669.3349984375001,271.50670979507595L670.1515828124999,276.09552511894105L671.1122703125,276.2548349513753L671.952871875,266.626098997811L672.817490625,265.3815364029904L673.7061265625,269.8328323541504L675.507415625,274.4495410597175L676.4200687499999,271.0800520221908L677.2606703125,275.53627547061717L678.14930625,276.1698035265366L679.9025609375001,282.58466738303275L681.60778125,283.24054296149484L682.520434375,287.85962442677635L683.3370187500001,289.9354297284816L684.2736890625,291.98790645019716L685.1623249999999,291.0285180098914L685.978909375,293.384269363262L686.8675453125,293.6636105664228L687.7801984375001,293.80729642735696L688.6448171875,295.37667761090466L689.5574703125001,300.3252212381508L690.494140625,303.9068419220934L691.40679375,300.6379021112099L692.319446875,297.8902129312288L693.2080828124999,301.7314671008901L694.0727015625,302.8676675424432L694.9853546875,303.5403502611116L695.8499734375,306.9292110367778L697.6272453125,297.6925788229862L698.5398984375,294.6792856591826L700.1010156250001,292.65076048456194L700.9416171875,298.03115196275536L701.8542703124999,290.36539911672355L702.7188890625,291.8680520215443L703.5114562499999,290.72495226681326L704.4000921875,296.2372309442028L705.24069375,297.64899976523844L706.153346875,296.9234164869708L707.0900171875,291.3357426706053L708.0026703125001,284.9592186652871L708.7712203125,282.92531041461984L709.6598562500001,283.46688189582085L710.5484921875,283.87658972469563L711.38909375,288.1442043063232L712.1816609375,290.41779269969754L713.0943140625,289.91798653390396L713.934915625,292.7238938639902L714.799534375,292.43451174548176L715.664153125,290.22110846544615L716.5527890625,294.68372717505775L718.2820265624999,295.5316774046332L719.1466453125,299.51760085563666L720.03528125,300.48331691578727L720.8758828125,302.4864994729756L721.8125531249999,302.2383455902641L722.7252062499999,304.94576880917714L723.5658078125,302.08934261686045L725.2470109374999,302.4149478707719L726.135646875,299.19181126791653L727.0242828125,302.81758886909984L727.9849703125,303.2357561696539L728.8495890625,304.16886392955684L729.64215625,309.63978244357344L730.458740625,293.32044934113594L731.2513078125,295.6095938024505L732.1639609375001,299.5769487730605L733.0766140625,302.11902810764894L733.96525,297.0017822374044L734.781834375,293.1653085568128L737.1595359375,292.1461795329279L737.9761203125,293.34677804249696L738.816721875,295.5457984313472L739.729375,299.5567094498553L740.59399375,298.71028099379464L741.3625437500001,299.9575317109209L742.2031453125,300.5104450546164L743.1157984375,301.85875088839157L743.8843484375001,294.0825741946826L744.72495,295.05819436540753L745.4694828125,296.12093430430946L746.26205,301.1041486633541L747.9672703125,301.55642074091656L748.7838546875,306.46254819771633L749.576421875,303.95091328100216L750.3209546874999,303.79280880736246L751.9541234375,307.0411946230416L752.69865625,310.23717211751574L753.515240625,304.89275948381305L755.1964437500001,302.444834380811L756.0850796875,300.60684915994227L756.9016640625,304.88934362218686L757.7662828125,307.6950375121428L758.5828671875,306.9657016270214L759.42346875,312.4063805715564L760.240053125,314.6497634308033L761.0566375,314.80908806881234L761.8972390624999,312.376753962377L762.7138234375,312.93202761113196L763.5304078125,315.08900995480684L764.41904375,315.24260737461145L765.2596453125001,314.4711086843398L766.0522125,317.3353412887085L766.91683125,317.0075542016089L767.7814500000001,317.7711944223426L768.64606875,320.0781624349202L769.4626531250001,318.2207245749357L770.2071859375001,320.8444174684504L770.999753125,320.6756059978151L771.8883890625001,317.66266726600725L772.7530078125,321.1886205411738L774.4101937500001,318.042514208488L775.2988296875,317.5639552936183L776.1394312499999,312.8311298881496L777.0520843749999,313.74151748033773L777.8446515625001,316.05843572044165L778.6612359375,319.8294300497084L779.4778203125,322.40746931471756L780.318421875,316.83236598754013L781.183040625,318.9329258019917L782.09569375,320.77359898302734L782.912278125,319.4122141707493L783.680828125,317.19209635970265L785.36203125,321.30279776472037L786.9952000000001,318.6579088347087L787.7877671875,318.8946890104841L788.580334375,318.12229678641694L789.4689703125,306.97591987292253L790.2375203124999,304.41131080873447L791.0541046875,303.1891700719762L791.8466718750001,293.82661878784137L792.7833421875,295.72341332068294L793.5999265625001,293.23009266890233L794.39249375,286.1259196060157L795.16104375,288.4369050775923L796.0496796875,290.9078834396275L798.5474671875,292.3046580015383L799.2919999999999,293.0394009768936L800.1806359375,294.0296766524821L800.9491859375,292.8613776087607L801.837821875,295.3220531429687L803.470990625,294.6877050590404L804.2155234375,299.10382972557795L805.056125,299.8477154599742L805.8006578125,302.9214878555881L806.6652765624999,305.49368938343736L807.409809375,308.8767727304646L808.22639375,313.39455223146047L809.0910124999999,310.95284821458466L809.8595624999999,316.2041872968143L810.72418125,306.72617786191944L811.49273125,298.9143965211781L812.2852984374999,285.8527657640909L813.1018828125,288.19381510780227L813.8223984375,292.9405064525731L814.663,291.5295116480793L815.5036015625001,278.82459022507953L816.3201859374999,281.58721412345574L817.1848046875,285.45000223810644L817.9533546875,289.0853074581083L818.8660078125,284.5770432888175L819.6345578125,283.02556918454275L820.4271249999999,288.67247871514996L821.243709375,290.6172445802962L822.012259375,293.9731924424942L822.8528609374999,297.00856377886174L823.6694453125,296.7872202367001L825.3746656249999,281.85801695685524L826.19125,282.9019462858175L827.8004015624999,283.6541643172988L829.409553125,285.27412227390624L830.2261374999999,288.01306280885115L831.09075625,287.9053585246184L831.8833234374999,283.3881495599265L832.675890625,285.31816986938486L833.6125609375,285.7299657518104L834.405128125,284.397808684923L835.2217125,287.47590681182135L837.287190625,282.2487952828681L838.8002734375,284.57964613383683L839.6648921875001,287.0601190889116L840.457459375,290.07302296629206L841.3460953125,289.81875009871476L842.186696875,279.54306498032906L843.0993500000001,276.6310283434115L843.9639687499999,277.87643085064684L844.780553125,277.01336782922954L846.3416703124999,269.3977867163089L847.0621859375,275.356675493869L847.9027875,278.3423988226829L849.487921875,282.17446435657087L850.352540625,287.63442668821483L851.217159375,288.84574667962727L851.8656234375,287.91853055170213L852.658190625,288.01090588424444L853.426740625,293.97386881445243L854.1712734375001,296.4402593601629L854.8197375000001,298.5707592617231L856.3088031249999,301.73819750981585L857.077353125,302.03497258658575L857.8218859374999,305.1212485099444L859.5271062500001,309.3712485979968L860.3436906249999,307.2356512624007L861.112240625,309.96276480579644L861.9048078124999,312.1051387937856L862.7213921875,316.23691390288485L864.3305437500001,321.605766486553L865.1231109375,322.336390778957L865.915678125,320.89380083167293L866.82833125,324.7330290652165L867.59688125,323.8430497913448L868.36543125,325.79031888951124L870.76715,326.44569635289963L871.5597171874999,328.93387437681383L872.3763015625,331.8500298224857" style="fill: none;" fill="none"></path></g></g></g></g><g opacity="0.20000000298023224"><g><g><g><path stroke="rgb(255, 112, 67)" stroke-width="2px" d="M121.0706421875,-124.35755910932494L122.0313296875,106.1423562382115L122.9920171875,105.09129109000787L123.9527046875,32.43606084056955L124.91339218750001,-138.86371845596295L125.8740796875,-293.4473129467224L126.8347671875,182.0216417394986L127.7954546875,72.40200377732981L128.75614218750002,107.34169476332318L129.7168296875,-394.07430915211444L130.6775171875,153.9475227286457L131.6382046875,-110.90369649040804L132.5988921875,175.9159103416605L133.55957968750002,-112.83265790966107L134.5202671875,257.5512466277869L135.4809546875,172.55312645416416L136.4416421875,-574.9380951315688L137.4023296875,80.57423763553379L138.3630171875,45.100612943730084L139.3237046875,94.65616182338272L140.28439218749998,101.29547504716902L141.24507968749998,224.61832649556163L142.2057671875,54.8972562005074L143.1664546875,192.96585319667065L144.1271421875,-157.19058934568602L145.0878296875,9.324899390281644L146.04851718749998,253.51461280429794L147.0092046875,213.62757892662194L147.9698921875,188.77896667204914L148.9305796875,165.10607300684205L149.8912671875,182.61429539730307L150.8519546875,119.84297461045207L151.8126421875,-189.14933007958462L152.7733296875,230.18196497328609L153.7340171875,-169.07247266548802L154.6947046875,268.2907079901779L155.6553921875,252.2203326938834L156.6160796875,148.13838206960645L157.5767671875,163.06692920575733L158.5374546875,339.021265356183L159.4981421875,-119.17705182399368L160.4588296875,154.21235630988667L161.41951718750002,-130.88211551307177L162.3802046875,329.48463932503364L163.3408921875,-90.75536347931484L164.3015796875,213.40576265852724L165.26226718750002,226.52745068758668L166.22295468750002,260.6085987949482L167.1836421875,259.44748321986117L168.14432968749998,205.3783053711013L169.10501718749998,192.14619304280495L170.0657046875,323.30538702850026L171.0263921875,193.43090641946765L171.9870796875,302.56204716302454L172.94776718749998,-66.3136123153381L173.90845468749998,227.2563038445296L174.8691421875,188.8340358704736L175.8298296875,56.7190262167569L176.7905171875,263.64180320657033L177.7512046875,-7.336392156998045L178.71189218749998,174.163460658252L179.6725796875,223.98591041333566L180.6332671875,309.9101343991206L181.5939546875,222.24731599949882L182.5546421875,290.38553043615684L183.5153296875,178.68027853860985L184.4760171875,306.03316606307635L185.4367046875,193.2382082099648L186.3973921875,227.74409730341722L187.3580796875,233.41138639303244L188.31876718750001,-364.93865656715934L189.2794546875,84.46009093809698L190.2401421875,151.74106005311478L191.2008296875,366.3961550959866L192.1615171875,75.82693844547612L193.12220468750002,312.87942863078206L194.08289218750002,331.3405856728932L195.0435796875,253.23706756303727L196.0042671875,267.84824105603184L196.9649546875,145.19398333819117L197.92564218750002,214.51304061470728L198.8863296875,244.77677605269128L199.8470171875,236.6385205936749L200.80770468749998,91.42678438861913L201.76839218749998,246.14116822563665L202.7290796875,185.5157647855376L203.6897671875,289.04029372320656L204.6504546875,87.78957819363859L205.61114218749998,-56.251519687561085L206.57182968749999,307.079128953279L207.5325171875,89.9394321963482L208.4932046875,297.04718803118885L209.4538921875,133.78445474832552L210.4145796875,-67.7433001952013L211.3752671875,296.69847508781095L212.3359546875,128.83403290784918L213.2966421875,281.2802211460221L214.2573296875,300.60075678143767L215.2180171875,221.6037057391586L216.17870468750002,283.84045503794914L217.1393921875,283.0929742408043L218.1000796875,305.1777021332382L219.0607671875,122.00747561242315L220.0214546875,187.09201062798093L220.98214218750002,184.1279945942515L221.9428296875,223.77544227079488L222.9035171875,229.31845179160155L223.8642046875,254.57025239070936L224.8248921875,125.24565004374017L225.78557968750002,306.13747644970863L226.74626718750002,301.58335930396424L227.7069546875,356.8162698342858L228.66764218749998,109.57960670153261L229.62832968749998,1.353588933357969L230.5890171875,156.6221615607501L231.5497046875,344.7513869936811L232.5103921875,-6.295531524796388L233.47107968749998,339.94125525574054L234.4317671875,-1.7248760255315574L235.3924546875,267.2963614772525L236.3531421875,183.23518741404405L237.3138296875,391.02156555550755L238.2745171875,126.24072230888123L239.2352046875,404.38279580071685L240.1958921875,5.378302826517029L241.1565796875,401.7032746355253L242.1172671875,299.3044753543072L243.0779546875,263.6497424959598L244.0386421875,334.07141532048263L244.9993296875,-34.742555219549104L245.9600171875,217.06427957765845L246.9207046875,228.29676861188636L247.8813921875,-186.908998967323L248.84207968750002,188.59537335397908L249.8027671875,11.67994333759998L250.7634546875,173.54626338006346L251.7241421875,253.12908443034394L252.6848296875,261.58077687655896L253.64551718750002,306.7329451464102L254.6062046875,163.1060758404201L255.5668921875,335.7083384466532L256.5275796875,337.2202562517996L257.4882671875,-59.0515597055346L258.4489546875,321.7051253854661L259.4096421875,-9.759348917708849L260.37032968750003,259.3371468905898L261.33101718750004,31.417544579613605L262.29170468750004,213.6167806133526L263.2523921875,378.7292143765226L264.2130796875,246.47747740387422L265.1737671875,271.85778013013623L266.1344546875,369.3295355892187L267.0951421875,-238.34345435583964L268.0558296875,241.56512456598284L269.0165171875,293.9288946704037L269.97720468750003,327.35910901779425L270.93789218750004,328.5904686103604L271.89857968750005,272.21533405505033L272.85926718750005,-52.50061231212749L273.8199546875,178.85841771881678L274.78064218749995,322.09887895119755L275.74132968749996,209.92204206091264L276.70201718749996,264.58620477156364L277.66270468749997,154.37325337684888L278.6233921875,251.86926655392745L279.5840796875,364.91005647572456L280.5447671875,258.5570072437404L281.5054546875,278.9035585796737L282.4661421875,276.72482843577745L283.4268296875,120.5794591619051L284.3875171875,361.34885633096565L285.34820468749996,244.02544656955433L286.30889218749996,-33.3522338992625L287.26957968749997,180.72210542364337L288.2302671875,325.6275961861829L289.1909546875,243.68718005958362L290.1516421875,141.42609775940946L291.1123296875,50.35787402399001L292.0730171875,181.1389071203448L293.0337046875,40.98427833146707L293.9943921875,333.24370591477054L294.9550796875,209.033523416525L295.91576718749997,319.37405325375585L296.8764546875,305.7890714012101L297.8371421875,316.11872467915964L298.7978296875,160.90300000856223L299.7585171875,337.69393053121894L300.7192046875,275.9227622750186L301.6798921875,276.52858943516185L302.6405796875,-878.7932177442999L303.6012671875,-15.439085757447174L304.5619546875,318.51126582428697L305.5226421875,282.02895551517577L306.4833296875,268.2055530635407L307.4440171875,353.3597099635299L308.4047046875,220.4121965409795L309.3653921875,288.7276924506805L310.3260796875,206.79297237934952L311.2867671875,345.01021662477433L312.2474546875,304.7216438394171L313.2081421875,188.87115919592907L314.1688296875,193.519052324933L315.1295171875,270.09622555529495L316.09020468750003,6.301635584764881L317.05089218750004,94.71554155011836L318.0115796875,340.90496622816863L318.9722671875,184.82581634585222L319.9329546875,200.51904240740987L320.8936421875,231.0270264546998L321.8543296875,115.55421886574186L322.8150171875,292.46540433128393L323.7757046875,184.06606373851537L324.73639218750003,259.33156079777837L325.69707968750004,346.8304251741356L326.65776718750004,173.38655390763597L327.61845468750005,279.531004358847L328.5791421875,336.0458352194255L329.5398296875,199.5268071736573L330.5005171875,-65.11612115950265L331.4612046875,180.3461657759326L332.4218921875,225.27093168487772L333.38257968749997,236.4496710701642L334.3432671875,242.73066063183796L335.3039546875,245.2933136978172L336.2646421875,278.0614440921054L337.2253296875,229.01502138798242L338.1860171875,340.38994606494816L339.1467046875,326.48739263682364L340.10739218749995,289.0014109984404L341.06807968749996,364.87847525809775L342.02876718749997,167.4463819849334L342.9894546875,339.0946323074386L343.9501421875,162.98529307774152L344.9108296875,368.0567861278687L345.8715171875,358.91151648089L346.8322046875,221.64368808849395L347.7928921875,390.18409148362116L348.7535796875,152.32109002086509L349.7142671875,317.41544595611776L350.67495468749996,279.3889328645091L351.63564218749997,268.2068066355496L352.5963296875,390.789005955372L353.5570171875,344.9791852194321L354.5177046875,180.0338723982859L355.4783921875,212.75612645554793L356.4390796875,172.2153217865125L357.3997671875,283.30777490414766L358.3364375,184.14277354846126L359.297125,323.58088696806226L360.2578125,345.45609239508485L361.2185,264.5813224384765L362.1791875,268.4646246120392L363.139875,359.0642323410575L364.1005625,241.61012120335363L365.06125000000003,233.6853468581976L366.0219375,151.96956203859008L366.982625,83.88445946862339L367.9433125,73.71420776822197L368.904,308.6586076919557L369.8646875,281.17186414097523L370.825375,281.4673332627135L371.7860625,207.2783906491677L372.7227328125,179.04706930990505L373.6834203125,327.0456720305956L374.6441078125,-121.52752133310423L375.6047953125,227.39569225491869L376.5654828125,54.474032696321956L377.5261703125,211.43147471453267L378.48685781250003,317.11922908967244L379.44754531250004,345.4482410756609L380.40823281250005,246.05522156930965L381.3689203125,276.0755001276775L382.3296078125,408.5464362619459L383.2902953125,375.8289765678055L384.22696562500005,316.8880000352656L385.187653125,278.46188337521744L386.148340625,124.89746492015547L387.10902812499995,304.97642685209576L388.06971562499996,254.85048071591882L389.03040312499996,150.71933288841683L389.99109062499997,303.7152454412135L390.951778125,357.587854401987L391.912465625,340.847191953304L392.873153125,320.6395451929493L393.833840625,256.9176429510262L394.794528125,201.2616848564503L395.755215625,137.12608185911085L396.715903125,300.90332947789284L397.67659062499996,328.5803300718326L398.63727812499997,357.21171682185377L399.597965625,363.0116646194947L400.558653125,-32.82964831900608L401.519340625,348.6793779097352L402.480028125,243.10217978878063L403.4166984375,269.7141060175054L404.3773859375,104.86072181034251L405.3380734375,227.21073540238285L406.2987609375,214.66102808922733L407.23543125,199.12757747757132L408.19611875,220.2041475724909L409.15680625,262.36738231587515L410.11749375,263.1342384979289L411.07818125,208.2629724959188L412.03886875,317.80271173689107L412.99955625,88.78711361781461L413.96024375,335.35140031149786L414.92093125,376.26264650539815L415.88161875000003,249.20373261325585L416.84230625000004,299.1716626988418L417.80299375,349.76921582024806L418.76368125,144.7915647308546L419.72436875,241.3080103492175L420.68505625,298.6856066467735L421.64574375,313.2035979537759L422.60643125,309.9263208727789L423.56711875,306.3203880005458L424.52780625,172.6182682136423L425.48849375000003,381.75472141616046L426.4251640625,298.7920283125786L427.3858515625,296.6932848598444L428.29850468750004,309.0928934193071L429.25919218750005,434.96536738253417L430.1958625,412.6745918383276L431.15655,106.27497096125444L432.1172375,351.68658719654195L433.029890625,300.8775322854999L433.990578125,246.21693235845305L434.95126562499996,260.49819648820267L435.91195312499997,221.98718881141394L436.872640625,303.13123483252275L437.833328125,374.90592971194565L438.794015625,292.1499660273694L439.754703125,182.24891214545642L440.715390625,396.41724737653567L441.676078125,-21.046203390636947L442.636765625,225.38830561139184L443.597453125,358.83929313918634L444.558140625,327.0071191932002L445.4948109375,237.72890831647237L446.4554984375,304.78636774155893L447.39216875,359.83135243300785L448.3288390625,392.59664579590753L449.2895265625,367.34451530942897L450.2502140625,377.2592362524447L451.2109015625,367.6302857424671L452.1715890625,382.62404061557027L454.0209125,304.2662233278461L454.9816,358.86271514250984L455.9182703125,224.31001375885535L456.8789578125,277.52748839380365L457.8396453125,214.66503072265914L458.776315625,356.733490096718L459.7129859375,207.00709127545997L460.6256390625,315.60209906406817L461.5863265625,270.4404520304306L462.5470140625,275.64334767199034L463.50770156249996,234.61659691334353L464.444371875,347.4505034686954L465.405059375,348.88652518607705L466.365746875,252.97381744117592L467.326434375,314.3385204716251L468.2390875,239.4473136232191L469.151740625,286.3451139041499L470.112428125,266.3754918780396L471.073115625,346.9474252282962L472.033803125,133.7839269285323L472.994490625,276.31161151517153L473.95517812500003,162.67080045095645L474.8918484375,335.4107800382335L475.780484375,274.6548071767902L476.741171875,211.46485931645293L477.701859375,289.3972318583619L478.6145125,426.9647189421048L480.48785312499996,320.1750417824369L481.42452343750006,-72.55090279663273L482.3371765625,231.6975775169849L483.2978640625,235.82145555379248L484.25855156250003,298.59735077885125L485.195221875,400.1158785999505L486.13189218749994,304.0038089206573L487.09257968749995,334.6122766610788L487.981215625,-134.30203589318262L488.9178859375,272.0800362480586L489.85455625000003,288.7528518608233L490.79122656249996,369.9155914996081L491.7038796875,263.7960365486433L492.64055,316.59714933671785L493.55320312500004,213.90943469619378L494.46585625000006,316.6621151562649L495.4025265625,177.277729393114L496.339196875,63.28945895752986L497.2758671875,281.83647723058675L498.18852031250003,247.17402359097468L499.12519062499996,315.40625592829747L500.08587812499997,-71.40834888427344L500.9745140625,264.2379316780134L501.9352015625,348.3599369723888L502.84785468750005,261.9353618151363L503.784525,249.07938706697314L504.7211953125,352.02274242733984L505.657865625,316.5917171913461L506.59453593750004,96.05268502623949L507.53120624999997,287.9832246248552L508.46787656250007,416.9645571700639L509.3805296875,354.19175189004454L510.3172,366.7508060120381L511.22985312500003,342.29326423924795L512.14250625,336.3974731641574L513.055159375,-87.44997999432962L513.9918296875,296.460362383601L514.880465625,249.80597499730357L515.841153125,351.79597784868383L516.75380625,341.97210788757366L517.7144937500001,330.6170546988651L518.627146875,290.6969661066396L519.587834375,407.2712456340523L520.5245046875,220.8306476745347L521.4371578125,212.81049189424812L522.3738281249999,66.84665646885696L523.3104984375,318.67150311650767L524.24716875,254.84082601220143L525.1598218749999,387.4167433040893L526.120509375,-624.6405978386465L527.0571796875,286.9083196159918L527.99385,262.4839205277167L528.906503125,269.9881544526361L529.7951390625001,308.23483437548566L530.683775,368.24922042747494L531.5724109375,254.09587435156573L532.461046875,302.60381090416195L533.3977171875,385.0010220730437L534.286353125,261.0138104486905L535.19900625,315.23867314395466L536.1356765625,338.67395993225364L537.0002953125,370.4409041487961L537.9609828125,408.7618417188023L538.8736359375,282.3326498286915L539.762271875,418.26715044222146L540.6749249999999,126.64243715649354L541.5635609375,381.6391728664312L542.4762140625,386.66728318272L543.4369015625,268.70203355652484L544.3975890625001,206.4038592293L545.286225,360.9149224834764L546.198878125,315.96570092411275L547.11153125,338.1089508361183L548.0482015624999,340.8390327390007L549.8735078125,360.389125999478L550.8341953125,243.3854650702924L551.6988140625,284.82609252428665L552.6595015624999,213.43624425158487L553.5721546875,339.46322646302724L555.3974609375,252.2741263278076L556.3341312499999,383.40823787707996L557.2708015625,194.24599213512556L558.1594375,330.0972621650144L559.072090625,289.0135948386669L560.0327781249999,343.39458223026304L560.94543125,355.23054522805614L561.90611875,260.34919735907897L562.7707375,192.9576280048932L563.6593734375,89.41618684135028L564.59604375,273.9389295897636L565.508696875,302.2266396769337L566.373315625,-156.7609000490338L567.3099859375,313.6638348209599L568.1986218750001,348.9614096192381L569.0872578125,332.5231659195706L569.9758937500001,245.00723536989972L570.8645296875,399.8867498284708L571.7771828125,332.9632136796645L572.713853125,391.3398518870563L573.6024890625,316.7911890881951L574.5631765625001,409.1416410487509L575.4758296875,276.4321083754621L576.364465625,325.31983326176123L578.1177203125,206.07302618141694L579.0303734375,387.1864049455835L579.919009375,221.52587431215215L580.8556796875,404.0089564359332L581.8163671875,234.86220905711525L582.7290203125,-71.83487126216642L583.5936390625,270.19972221974604L584.4822750000001,310.4706350345223L585.4189453125,259.122148294824L586.2835640625,269.1576300080269L587.220234375,281.35310426246724L588.1569046875001,438.7652080512962L589.0695578125001,388.5229106394545L589.9822109375,322.0771503697106L590.870846875,345.55743379538035L591.7835,-30.39081297951634L592.7441875,-15.988106312346645L593.6328234375,208.35635261433345L594.56949375,-37.448159479521564L595.4581296875,178.06629216416331L596.3707828125,-49.69208319247991L597.2834359374999,378.33565874321357L598.172071875,28.958476148050977L599.084725,215.61504037295526L599.94934375,376.1541135604202L600.8379796875,292.15480437547376L602.7113203125,296.6439117166883L603.6720078125,201.98424816085753L605.4492796875,132.89389080223918L606.3379156249999,223.0269938040292L607.2745859375001,274.9818355236639L608.21125625,379.6390657375523L609.17194375,131.880520784267L610.084596875,342.29994995662855L610.9732328125,-399.0594791289768L611.86186875,330.71964967116946L612.7264875000001,384.22774408350597L613.59110625,144.74691997334594L615.4404296875,319.2797274582117L617.1216328125,294.7498743737524L618.01026875,319.33791959041264L618.8989046875,336.97039955719083L620.652159375,387.9096390209779L621.5648125,426.29200161941844L622.477465625,341.4029861955496L623.39011875,370.93610907728L624.3267890625,380.68289535609074L626.0320093749999,381.1777044197297L626.8726109375,331.9942465017957L627.7852640625,190.17425829538843L628.6979171875,162.9787393153092L629.53851875,208.98975835867168L630.3791203124999,316.0096639143885L631.2437390624999,51.82371755968779L632.1563921874999,113.11467976652784L633.0690453125,398.16889433400866L633.9576812500001,345.87399371635547L634.8223,306.8599957691331L635.6148671875001,326.72271229462785L636.503503125,324.02946781481296L638.328809375,306.85898411452945L639.2654796875,-3.5856167365127476L640.0820640625,407.06248190959377L640.8506140625,166.43499129118572L641.8113015624999,334.13776666698686L642.7479718750001,249.1703480113356L643.6366078125,337.73114182663994L644.5492609375,368.98717847585067L645.48593125,403.4739341017994L647.3112375,275.436574268002L648.223890625,361.19706415543624L649.13654375,309.6832378655163L650.049196875,276.8880567068263L650.96185,363.3848552057825L651.82646875,161.89653279930644L652.6670703125,258.12731794708816L653.5797234375,177.73653674835805L654.3963078125,355.15236192118755L656.101528125,315.12635749045876L656.9661468749999,365.7016981955676L658.7434187499999,272.8425379168184L659.6080375,273.94121680886747L660.4486390625,226.31502521331277L661.3132578125,284.18419767827436L662.2259109375,192.20029457160854L663.114546875,312.312198293017L664.0272,206.144699710836L664.8197671875,100.58982396863576L665.7324203125,326.0060429779114L666.6450734375001,268.8722334473423L667.533709375,395.4066923974606L668.4223453125,294.3742646134124L669.3349984375001,161.70840902801137L670.1515828124999,375.7979671549547L671.1122703125,279.71620312878804L671.952871875,57.419926917151315L672.817490625,238.34058547932364L673.7061265625,366.54735347424867L675.507415625,374.75803020739113L676.4200687499999,197.87024475268117L677.2606703125,372.3578576677537L678.14930625,289.93464037781087L679.9025609375001,421.9621639008037L681.60778125,297.49093052983517L682.520434375,388.2196671720121L683.3370187500001,335.0370176471697L684.2736890625,336.5826279491157L685.1623249999999,270.18362371605326L685.978909375,344.56832149540423L686.8675453125,299.73293307144195L687.7801984375001,296.929198314916L688.6448171875,329.4750505987904L689.5574703125001,407.8435782298184L690.494140625,381.72569132753415L691.40679375,229.6127553112965L692.319446875,238.1904207481566L693.2080828124999,385.19144405968837L694.0727015625,327.5542044088579L694.9853546875,318.1559111485112L695.8499734375,380.5599133442738L697.6272453125,97.00575163283793L698.5398984375,229.20864328212338L700.1010156250001,248.57644078152225L700.9416171875,414.9323849887478L701.8542703124999,123.8094963714102L702.7188890625,324.51660149895906L703.5114562499999,265.8885121413332L704.4000921875,416.0040131163951L705.24069375,328.3228859676965L706.153346875,281.15847071372264L707.0900171875,169.93082975155266L708.0026703125001,146.41474254991044L708.7712203125,238.73403115017572L709.6598562500001,295.2337531691737L710.5484921875,292.7784234611463L711.38909375,380.8678302161352L712.1816609375,339.8166677920526L713.0943140625,279.0585616589451L713.934915625,353.6886076721712L714.799534375,286.1470275342581L715.664153125,242.12989174471295L716.5527890625,391.644260956542L718.2820265624999,313.95532330175774L719.1466453125,386.1208467455581L720.03528125,321.46569313177315L720.8758828125,346.0101932154939L721.8125531249999,296.84663850226207L722.7252062499999,363.7706914746159L723.5658078125,240.02699171110726L725.2470109374999,309.48946202393563L726.135646875,229.16184326045914L727.0242828125,381.59584765840555L727.9849703125,312.3213911544153L728.8495890625,324.44275071289303L729.64215625,428.5079210662443L730.458740625,-61.25415170258202L731.2513078125,345.34645982553775L732.1639609375001,385.7767522253707L733.0766140625,357.35147910459636L733.96525,185.81798560213065L734.781834375,209.80919858762354L737.1595359375,270.003285286708L737.9761203125,319.4325092958534L738.816721875,343.324514152715L739.729375,386.7028670337786L740.59399375,280.3196990848446L741.3625437500001,327.0568882012012L742.2031453125,312.52374406763556L743.1157984375,331.1537594585898L743.8843484375001,125.12746239504486L744.72495,316.2557598929707L745.4694828125,319.21137479499157L746.26205,409.3758061007575L747.9672703125,311.3830595170439L748.7838546875,413.0593174863461L749.576421875,249.37993645422102L750.3209546874999,300.3576297891923L751.9541234375,377.61975916369556L752.69865625,379.6770467701717L753.515240625,188.7732486242894L755.1964437500001,249.25809805195604L756.0850796875,260.6724429974347L756.9016640625,397.93626875639893L757.7662828125,368.6551138484501L758.5828671875,291.11922194120416L759.42346875,430.6174958209849L760.240053125,363.3923546453443L761.0566375,318.2707779310076L761.8972390624999,259.52876746801485L762.7138234375,324.9966096158969L763.5304078125,361.9543536037381L764.41904375,318.5798604049123L765.2596453125001,297.7085462320756L766.0522125,379.5673042381677L766.91683125,309.8856347637193L767.7814500000001,334.3630137637374L768.64606875,370.20228561728436L769.4626531250001,277.8636656170929L770.2071859375001,377.8501085184471L770.999753125,317.0077931358319L771.8883890625001,252.199725729457L772.7530078125,397.79796897433334L774.4101937500001,249.68620388922864L775.2988296875,307.16617523417517L776.1394312499999,209.9997415329708L777.0520843749999,333.52175698333303L777.8446515625001,366.3987502099699L778.6612359375,401.7628522946834L779.4778203125,378.42123152718705L780.318421875,195.70057551523496L781.183040625,364.5723617705298L782.09569375,360.76640718916315L782.912278125,289.83303506761877L783.680828125,268.9549911924187L785.36203125,410.6171282919204L786.9952000000001,261.1916857190008L787.7877671875,324.03927646597003L788.580334375,301.3403202816844L789.4689703125,64.79554875245958L790.2375203124999,248.6893502322855L791.0541046875,276.63538497332047L791.8466718750001,90.40391361436923L792.7833421875,336.93558544333064L793.5999265625001,239.05703487112623L794.39249375,131.77161396693555L795.16104375,338.6483166873004L796.0496796875,344.5955042147543L798.5474671875,322.6527598466928L799.2919999999999,309.00336198688456L800.1806359375,315.5456663311779L800.9491859375,267.47742565881344L801.837821875,348.7858215680317L803.470990625,280.90505123550975L804.2155234375,395.0541747530733L805.056125,316.01032368913L805.8006578125,369.70617899665376L806.6652765624999,361.3806134885235L807.409809375,382.3819472704199L808.22639375,411.55357957127853L809.0910124999999,257.9012791206478L809.8595624999999,430.301463719803L810.72418125,100.79488195829617L811.49273125,129.18569284507248L812.2852984374999,2.0591520419256995L813.1018828125,339.05843266662123L813.8223984375,396.073163852594L814.663,260.8724427140769L815.5036015625001,2.7812974889966426L816.3201859374999,341.61149700635724L817.1848046875,369.3778530927884L817.9533546875,368.0705754199662L818.8660078125,186.62475815604557L819.6345578125,249.31626819166559L820.4271249999999,411.36442215288844L821.243709375,332.87170292301744L822.012259375,366.8887869029786L822.8528609374999,362.9589046326655L823.6694453125,291.9780287297326L825.3746656249999,-42.51285430522694L826.19125,305.5836835241789L827.8004015624999,299.9978106376657L829.409553125,320.4713906038305L830.2261374999999,347.5227707953818L831.09075625,285.5652381671971L831.8833234374999,185.24151841798448L832.675890625,327.2522475021615L833.6125609375,294.6771671972383L834.405128125,255.45366877709603L835.2217125,354.3545842962485L837.287190625,168.67791751743061L838.8002734375,335.2226782594298L839.6648921875001,340.9540314764454L840.457459375,355.53520721119276L841.3460953125,284.29409415771806L842.186696875,56.280451953585725L843.0993500000001,213.3604141412943L843.9639687499999,304.93563078057923L844.780553125,258.261362182071L846.3416703124999,103.9319788992143L847.0621859375,404.82707711540206L847.9027875,343.2140238760039L849.487921875,365.43479732013657L850.352540625,406.26451734847797L851.217159375,315.1644264930437L851.8656234375,267.7726528631465L852.658190625,290.0179699276632L853.426740625,423.5327906616985L854.1712734375001,350.028199398781L854.8197375000001,344.8607116683488L856.3088031249999,370.55799217292224L857.077353125,308.4830856182234L857.8218859374999,372.17760720837396L859.5271062500001,401.71215960204427L860.3436906249999,260.8349455162679L861.112240625,369.2155045213949L861.9048078124999,358.65308271464164L862.7213921875,406.00911854604055L864.3305437500001,438.2562908044347L865.1231109375,338.2108640411898L865.915678125,289.5502556134088L866.82833125,408.14898795766203L867.59688125,304.506227386315L868.36543125,368.09916565876483L870.76715,340.68526123924676L871.5597171874999,382.9951968964051" style="fill: none;" fill="none"></path></g></g></g></g></g></g><g transform="translate(68, 377)" clip-path="url(#clip_1)"><clipPath id="clip_1"><rect width="960" height="22"></rect></clipPath><g><g><line x1="0" y1="0" x2="0" y2="5" style="visibility: inherit;" fill="rgb(0, 0, 0)" stroke="rgb(204, 204, 204)" stroke-width="1px"></line><line x1="120.0859375" y1="0" x2="120.0859375" y2="5" style="visibility: inherit;" fill="rgb(0, 0, 0)" stroke="rgb(204, 204, 204)" stroke-width="1px"></line><line x1="240.171875" y1="0" x2="240.171875" y2="5" style="visibility: inherit;" fill="rgb(0, 0, 0)" stroke="rgb(204, 204, 204)" stroke-width="1px"></line><line x1="360.2578125" y1="0" x2="360.2578125" y2="5" style="visibility: inherit;" fill="rgb(0, 0, 0)" stroke="rgb(204, 204, 204)" stroke-width="1px"></line><line x1="480.34375" y1="0" x2="480.34375" y2="5" style="visibility: inherit;" fill="rgb(0, 0, 0)" stroke="rgb(204, 204, 204)" stroke-width="1px"></line><line x1="600.4296875" y1="0" x2="600.4296875" y2="5" style="visibility: inherit;" fill="rgb(0, 0, 0)" stroke="rgb(204, 204, 204)" stroke-width="1px"></line><line x1="720.515625" y1="0" x2="720.515625" y2="5" style="visibility: inherit;" fill="rgb(0, 0, 0)" stroke="rgb(204, 204, 204)" stroke-width="1px"></line><line x1="840.6015625" y1="0" x2="840.6015625" y2="5" style="visibility: inherit;" fill="rgb(0, 0, 0)" stroke="rgb(204, 204, 204)" stroke-width="1px"></line><line x1="960.6875" y1="0" x2="960.6875" y2="5" style="visibility: inherit;" fill="rgb(0, 0, 0)" stroke="rgb(204, 204, 204)" stroke-width="1px"></line></g><g transform="translate(0, 8)"><text x="0" y="0" dx="0em" dy="0.95em" style="text-anchor: middle; visibility: hidden; font-family: &quot;Helvetica Neue&quot;, sans-serif; font-size: 12px; font-weight: 200;" fill="rgb(50, 49, 63)" stroke="none" stroke-width="1px">-5k</text><text x="120.0859375" y="0" dx="0em" dy="0.95em" style="text-anchor: middle; visibility: inherit; font-family: &quot;Helvetica Neue&quot;, sans-serif; font-size: 12px; font-weight: 200;" fill="rgb(50, 49, 63)" stroke="none" stroke-width="1px">0</text><text x="240.171875" y="0" dx="0em" dy="0.95em" style="text-anchor: middle; visibility: inherit; font-family: &quot;Helvetica Neue&quot;, sans-serif; font-size: 12px; font-weight: 200;" fill="rgb(50, 49, 63)" stroke="none" stroke-width="1px">5k</text><text x="360.2578125" y="0" dx="0em" dy="0.95em" style="text-anchor: middle; visibility: inherit; font-family: &quot;Helvetica Neue&quot;, sans-serif; font-size: 12px; font-weight: 200;" fill="rgb(50, 49, 63)" stroke="none" stroke-width="1px">10k</text><text x="480.34375" y="0" dx="0em" dy="0.95em" style="text-anchor: middle; visibility: inherit; font-family: &quot;Helvetica Neue&quot;, sans-serif; font-size: 12px; font-weight: 200;" fill="rgb(50, 49, 63)" stroke="none" stroke-width="1px">15k</text><text x="600.4296875" y="0" dx="0em" dy="0.95em" style="text-anchor: middle; visibility: inherit; font-family: &quot;Helvetica Neue&quot;, sans-serif; font-size: 12px; font-weight: 200;" fill="rgb(50, 49, 63)" stroke="none" stroke-width="1px">20k</text><text x="720.515625" y="0" dx="0em" dy="0.95em" style="text-anchor: middle; visibility: inherit; font-family: &quot;Helvetica Neue&quot;, sans-serif; font-size: 12px; font-weight: 200;" fill="rgb(50, 49, 63)" stroke="none" stroke-width="1px">25k</text><text x="840.6015625" y="0" dx="0em" dy="0.95em" style="text-anchor: middle; visibility: inherit; font-family: &quot;Helvetica Neue&quot;, sans-serif; font-size: 12px; font-weight: 200;" fill="rgb(50, 49, 63)" stroke="none" stroke-width="1px">30k</text><text x="960.6875" y="0" dx="0em" dy="0.95em" style="text-anchor: middle; visibility: hidden; font-family: &quot;Helvetica Neue&quot;, sans-serif; font-size: 12px; font-weight: 200;" fill="rgb(50, 49, 63)" stroke="none" stroke-width="1px">35k</text></g><line x1="0" y1="0" x2="960.6875" y2="0" fill="rgb(0, 0, 0)" stroke="rgb(204, 204, 204)" stroke-width="1px"></line></g></g></g></g></svg>