<svg viewBox="0 0 1029 400" xmlns="http://www.w3.org/2000/svg"><g><g><g><g><g><line x1="68.3125" y1="377.828125" x2="63.3125" y2="377.828125" style="visibility: inherit;" fill="rgb(0, 0, 0)" stroke="rgb(204, 204, 204)" stroke-width="1px"></line><line x1="68.3125" y1="330.599609375" x2="63.3125" y2="330.599609375" style="visibility: inherit;" fill="rgb(0, 0, 0)" stroke="rgb(204, 204, 204)" stroke-width="1px"></line><line x1="68.3125" y1="283.37109375" x2="63.3125" y2="283.37109375" style="visibility: inherit;" fill="rgb(0, 0, 0)" stroke="rgb(204, 204, 204)" stroke-width="1px"></line><line x1="68.3125" y1="236.142578125" x2="63.3125" y2="236.142578125" style="visibility: inherit;" fill="rgb(0, 0, 0)" stroke="rgb(204, 204, 204)" stroke-width="1px"></line><line x1="68.3125" y1="188.9140625" x2="63.3125" y2="188.9140625" style="visibility: inherit;" fill="rgb(0, 0, 0)" stroke="rgb(204, 204, 204)" stroke-width="1px"></line><line x1="68.3125" y1="141.685546875" x2="63.3125" y2="141.685546875" style="visibility: inherit;" fill="rgb(0, 0, 0)" stroke="rgb(204, 204, 204)" stroke-width="1px"></line><line x1="68.3125" y1="94.45703125" x2="63.3125" y2="94.45703125" style="visibility: inherit;" fill="rgb(0, 0, 0)" stroke="rgb(204, 204, 204)" stroke-width="1px"></line><line x1="68.3125" y1="47.228515625" x2="63.3125" y2="47.228515625" style="visibility: inherit;" fill="rgb(0, 0, 0)" stroke="rgb(204, 204, 204)" stroke-width="1px"></line><line x1="68.3125" y1="0" x2="63.3125" y2="0" style="visibility: inherit;" fill="rgb(0, 0, 0)" stroke="rgb(204, 204, 204)" stroke-width="1px"></line></g><g transform="translate(58.3125, 0)"><text x="0" y="377.828125" dx="0em" dy="0.3em" style="text-anchor: end; visibility: hidden; font-family: &quot;Helvetica Neue&quot;, sans-serif; font-size: 12px; font-weight: 200;" fill="rgb(50, 49, 63)" stroke="none" stroke-width="1px">-5e-4</text><text x="0" y="330.599609375" dx="0em" dy="0.3em" style="text-anchor: end; visibility: inherit; font-family: &quot;Helvetica Neue&quot;, sans-serif; font-size: 12px; font-weight: 200;" fill="rgb(50, 49, 63)" stroke="none" stroke-width="1px">0</text><text x="0" y="283.37109375" dx="0em" dy="0.3em" style="text-anchor: end; visibility: inherit; font-family: &quot;Helvetica Neue&quot;, sans-serif; font-size: 12px; font-weight: 200;" fill="rgb(50, 49, 63)" stroke="none" stroke-width="1px">5e-4</text><text x="0" y="236.142578125" dx="0em" dy="0.3em" style="text-anchor: end; visibility: inherit; font-family: &quot;Helvetica Neue&quot;, sans-serif; font-size: 12px; font-weight: 200;" fill="rgb(50, 49, 63)" stroke="none" stroke-width="1px">1e-3</text><text x="0" y="188.9140625" dx="0em" dy="0.3em" style="text-anchor: end; visibility: inherit; font-family: &quot;Helvetica Neue&quot;, sans-serif; font-size: 12px; font-weight: 200;" fill="rgb(50, 49, 63)" stroke="none" stroke-width="1px">1.5e-3</text><text x="0" y="141.685546875" dx="0em" dy="0.3em" style="text-anchor: end; visibility: inherit; font-family: &quot;Helvetica Neue&quot;, sans-serif; font-size: 12px; font-weight: 200;" fill="rgb(50, 49, 63)" stroke="none" stroke-width="1px">2e-3</text><text x="0" y="94.45703125" dx="0em" dy="0.3em" style="text-anchor: end; visibility: inherit; font-family: &quot;Helvetica Neue&quot;, sans-serif; font-size: 12px; font-weight: 200;" fill="rgb(50, 49, 63)" stroke="none" stroke-width="1px">2.5e-3</text><text x="0" y="47.228515625" dx="0em" dy="0.3em" style="text-anchor: end; visibility: inherit; font-family: &quot;Helvetica Neue&quot;, sans-serif; font-size: 12px; font-weight: 200;" fill="rgb(50, 49, 63)" stroke="none" stroke-width="1px">3e-3</text><text x="0" y="0" dx="0em" dy="0.3em" style="text-anchor: end; visibility: hidden; font-family: &quot;Helvetica Neue&quot;, sans-serif; font-size: 12px; font-weight: 200;" fill="rgb(50, 49, 63)" stroke="none" stroke-width="1px">3.5e-3</text></g><line x1="68.3125" y1="0" x2="68.3125" y2="377.828125" fill="rgb(0, 0, 0)" stroke="rgb(204, 204, 204)" stroke-width="1px"></line></g></g><g transform="translate(68, 0)" clip-path="url(#clip_0)"><clipPath id="clip_0"><rect width="960" height="377"></rect></clipPath><g><g><g><line x1="0" y1="0" x2="0" y2="377.828125" fill="rgb(0, 0, 0)" stroke="rgb(60, 60, 60)" stroke-width="1px" opacity="0.25"></line><line x1="120.0859375" y1="0" x2="120.0859375" y2="377.828125" fill="rgb(0, 0, 0)" stroke="rgb(60, 60, 60)" stroke-width="1px" opacity="0.25"></line><line x1="240.171875" y1="0" x2="240.171875" y2="377.828125" fill="rgb(0, 0, 0)" stroke="rgb(60, 60, 60)" stroke-width="1px" opacity="0.25"></line><line x1="360.2578125" y1="0" x2="360.2578125" y2="377.828125" fill="rgb(0, 0, 0)" stroke="rgb(60, 60, 60)" stroke-width="1px" opacity="0.25"></line><line x1="480.34375" y1="0" x2="480.34375" y2="377.828125" fill="rgb(0, 0, 0)" stroke="rgb(60, 60, 60)" stroke-width="1px" opacity="0.25"></line><line x1="600.4296875" y1="0" x2="600.4296875" y2="377.828125" fill="rgb(0, 0, 0)" stroke="rgb(60, 60, 60)" stroke-width="1px" opacity="0.25"></line><line x1="720.515625" y1="0" x2="720.515625" y2="377.828125" fill="rgb(0, 0, 0)" stroke="rgb(60, 60, 60)" stroke-width="1px" opacity="0.25"></line><line x1="840.6015625" y1="0" x2="840.6015625" y2="377.828125" fill="rgb(0, 0, 0)" stroke="rgb(60, 60, 60)" stroke-width="1px" opacity="0.25"></line><line x1="960.6875" y1="0" x2="960.6875" y2="377.828125" fill="rgb(0, 0, 0)" stroke="rgb(60, 60, 60)" stroke-width="1px" opacity="0.25"></line></g><g><line x1="0" y1="377.828125" x2="960.6875" y2="377.828125" fill="rgb(0, 0, 0)" stroke="rgb(60, 60, 60)" stroke-width="1px" opacity="0.25"></line><line x1="0" y1="330.599609375" x2="960.6875" y2="330.599609375" fill="rgb(0, 0, 0)" stroke="rgb(60, 60, 60)" stroke-width="1px" opacity="0.25"></line><line x1="0" y1="283.37109375" x2="960.6875" y2="283.37109375" fill="rgb(0, 0, 0)" stroke="rgb(60, 60, 60)" stroke-width="1px" opacity="0.25"></line><line x1="0" y1="236.142578125" x2="960.6875" y2="236.142578125" fill="rgb(0, 0, 0)" stroke="rgb(60, 60, 60)" stroke-width="1px" opacity="0.25"></line><line x1="0" y1="188.9140625" x2="960.6875" y2="188.9140625" fill="rgb(0, 0, 0)" stroke="rgb(60, 60, 60)" stroke-width="1px" opacity="0.25"></line><line x1="0" y1="141.685546875" x2="960.6875" y2="141.685546875" fill="rgb(0, 0, 0)" stroke="rgb(60, 60, 60)" stroke-width="1px" opacity="0.25"></line><line x1="0" y1="94.45703125" x2="960.6875" y2="94.45703125" fill="rgb(0, 0, 0)" stroke="rgb(60, 60, 60)" stroke-width="1px" opacity="0.25"></line><line x1="0" y1="47.228515625" x2="960.6875" y2="47.228515625" fill="rgb(0, 0, 0)" stroke="rgb(60, 60, 60)" stroke-width="1px" opacity="0.25"></line><line x1="0" y1="0" x2="960.6875" y2="0" fill="rgb(0, 0, 0)" stroke="rgb(60, 60, 60)" stroke-width="1px" opacity="0.25"></line></g></g></g><g><g><line x1="0" y1="330.599609375" x2="960.6875" y2="330.599609375" fill="rgb(0, 0, 0)" stroke="rgb(153, 153, 153)" stroke-width="1.5px"></line></g></g><g><g><line x1="120.0859375" y1="0" x2="120.0859375" y2="377.828125" fill="rgb(0, 0, 0)" stroke="rgb(153, 153, 153)" stroke-width="1.5px"></line></g></g><g><g><g><g><g><path stroke="rgb(255, 112, 67)" stroke-width="2px" d="M145.0878296875,-3.29765101174695L146.04851718749998,5.458689454507123L147.0092046875,12.77508243796558L147.9698921875,19.48545452590264L148.9305796875,22.882132697694033L149.8912671875,27.667444141586657L150.8519546875,30.521655492976492L151.8126421875,24.13798860586303L152.7733296875,30.478453044833486L153.7340171875,24.946845805720955L154.6947046875,31.811395857590583L155.6553921875,38.45168729116938L156.6160796875,41.1585869102222L157.5767671875,43.84245536703821L158.5374546875,51.50993056784142L159.4981421875,46.81125039913769L160.4588296875,47.188386852528936L161.41951718750002,42.30231101477153L162.3802046875,49.87824109725153L163.3408921875,45.97100132536724L164.3015796875,49.898607569932665L165.26226718750002,54.71815122889785L166.22295468750002,58.737903551618274L167.1836421875,63.71030313391208L168.14432968749998,64.42108351798561L169.10501718749998,66.81899165074213L170.0657046875,73.09207819622515L171.0263921875,75.66013438948767L171.9870796875,80.22354494537063L172.94776718749998,75.51474520875979L173.90845468749998,78.04274617961886L174.8691421875,79.94246255438816L175.8298296875,78.0916665761385L176.7905171875,81.92055130622714L177.7512046875,78.50139508392874L178.71189218749998,80.21401602188843L179.6725796875,82.4339125479961L180.6332671875,86.91528297294707L181.5939546875,89.50285605742408L182.5546421875,93.61182671663408L183.5153296875,94.61399582439321L184.4760171875,98.86274661793152L185.4367046875,99.80415772349943L186.3973921875,101.52289412455019L187.3580796875,103.1399234049291L188.31876718750001,90.13898781345182L189.2794546875,89.03075903022716L190.2401421875,89.7359176542592L191.2008296875,95.49338468016981L192.1615171875,93.90037912996638L193.12220468750002,97.86167383467722L194.08289218750002,102.23046549408076L195.0435796875,104.70706690256833L196.0042671875,107.04480547249585L196.9649546875,106.66152886153185L197.92564218750002,107.23301230626237L198.8863296875,108.92191337143788L199.8470171875,110.29887059644295L200.80770468749998,108.30535715829018L201.76839218749998,109.89509211222969L202.7290796875,110.57433111045935L203.6897671875,113.4515225042403L204.6504546875,110.70179272333911L205.61114218749998,104.88240478074334L206.57182968749999,107.89355985290001L207.5325171875,105.66227145714379L208.4932046875,108.28312767725834L209.4538921875,106.78760454531783L210.4145796875,100.83557258064332L211.3752671875,104.07016830040732L212.3359546875,103.3002961469553L213.2966421875,106.39634329398467L214.2573296875,110.01045585067817L215.2180171875,110.83923883564125L216.17870468750002,113.5638845549841L217.1393921875,115.82887615625333L218.1000796875,118.52693941986149L219.0607671875,117.15646067669098L220.0214546875,116.24092874372684L220.98214218750002,116.72933625450298L221.9428296875,117.31366747950426L222.9035171875,118.62388108625208L223.8642046875,120.32871579566932L224.8248921875,118.74953706261164L225.78557968750002,121.55458857159658L226.74626718750002,124.19091240740863L227.7069546875,128.21461394687566L228.66764218749998,125.98422893215272L229.62832968749998,121.35921835724372L230.5890171875,120.89827038375694L231.5497046875,124.71819228121203L232.5103921875,120.40809951557338L233.47107968749998,123.92709855257598L234.4317671875,119.30080305483057L235.3924546875,121.56624166817738L236.3531421875,121.30631841811493L237.3138296875,125.71885348110797L238.2745171875,124.24029102268585L239.2352046875,129.14929223617725L240.1958921875,124.59601079241625L241.1565796875,129.3322205336612L242.1172671875,131.4466190737443L243.0779546875,133.03666860461382L244.0386421875,135.64265128953062L244.9993296875,129.72777349270777L245.9600171875,130.2974506235805L246.9207046875,130.89758493059773L247.8813921875,121.9148725784618L248.84207968750002,122.24817068712767L249.8027671875,117.92817823200863L250.7634546875,117.74676680653437L251.7241421875,119.63435757177552L252.6848296875,121.01621842468535L253.64551718750002,123.82350882102503L254.6062046875,122.47128686842623L255.5668921875,126.02279599449321L256.5275796875,128.87325629765962L257.4882671875,122.99742334922112L258.4489546875,125.60902253678253L259.4096421875,120.77244340005325L260.37032968750003,122.34782679637974L261.33101718750004,118.88622987180702L262.29170468750004,119.56963040057326L263.2523921875,124.10218502910638L264.2130796875,125.23792723903011L265.1737671875,126.73248943559818L266.1344546875,130.81837900054205L267.0951421875,121.25230996864656L268.0558296875,122.29892676931351L269.0165171875,124.23178156482695L269.97720468750003,127.44181041378587L270.93789218750004,129.88478952417503L271.89857968750005,131.63153922614433L272.85926718750005,125.90280561228624L273.8199546875,125.50171515896739L274.78064218749995,128.72989459652362L275.74132968749996,128.5047566847099L276.70201718749996,129.31954057646578L277.66270468749997,128.04171746862994L278.6233921875,128.9810327869763L279.5840796875,132.4468789261396L280.5447671875,133.8473083737953L281.5054546875,135.63230054848313L282.4661421875,137.10422816011652L283.4268296875,135.03234260460854L284.3875171875,137.9108970287053L285.34820468749996,138.51036830860028L286.30889218749996,132.83651359517904L287.26957968749997,132.04965348915286L288.2302671875,134.3269975830206L289.1909546875,135.17357242805525L290.1516421875,132.74665617691485L291.1123296875,129.39090849493093L292.0730171875,128.70827695496004L293.0337046875,124.10547507534946L293.9943921875,127.08835987847473L294.9550796875,127.17387000950382L295.91576718749997,129.63407846042955L296.8764546875,131.91960175058563L297.8371421875,134.22875753528447L298.7978296875,133.1399065514558L299.7585171875,135.89646004105677L300.7192046875,137.09478104910255L301.6798921875,138.78251177332697L302.6405796875,114.85707653175348L303.6012671875,110.64229379080342L304.5619546875,113.98224542672858L305.5226421875,116.37444650858572L306.4833296875,117.25338024950042L307.4440171875,121.41298961116797L308.4047046875,120.79212930375189L309.3653921875,123.2226095779663L310.3260796875,122.99705104797587L311.2867671875,126.56340543710925L312.2474546875,129.21062269934183L313.2081421875,129.13490387500073L314.1688296875,128.7760011392826L315.1295171875,130.60917561384423L316.09020468750003,126.40837168255158L317.05089218750004,124.39042651689567L318.0115796875,127.74345698090227L318.9722671875,127.6316382690645L319.9329546875,126.72047781968905L320.8936421875,127.18250313551746L321.8543296875,125.58277928992624L322.8150171875,128.1371096105537L323.7757046875,127.05165789800628L324.73639218750003,128.49586476183555L325.69707968750004,131.79104000628928L326.65776718750004,131.08910200235405L327.61845468750005,132.78337028618054L328.5791421875,135.83941282508832L329.5398296875,135.84762846569583L330.5005171875,129.94537880572435L331.4612046875,129.63091926720202L332.4218921875,129.82473717916298L333.38257968749997,130.83625648263654L334.3432671875,131.8618275523617L335.3039546875,132.98511226505013L336.2646421875,133.82828471409462L337.2253296875,134.48651171568176L338.1860171875,137.31467767672763L339.1467046875,139.9652684845659L340.10739218749995,140.89205060046322L341.06807968749996,144.2601577113784L342.02876718749997,142.96625448705566L342.9894546875,145.23310404124626L343.9501421875,143.2135525126535L344.9108296875,146.33826040902048L345.8715171875,149.23503125119367L346.8322046875,149.13256527359462L347.7928921875,152.54036367791608L348.7535796875,150.58384814931338L349.7142671875,151.86139191194948L350.67495468749996,152.72374971234183L351.63564218749997,153.29539746237248L352.5963296875,156.75149447879525L353.5570171875,158.9484724203564L354.5177046875,157.39685687614653L355.4783921875,156.6898589968184L356.4390796875,154.65781595320976L357.3997671875,155.68245205365463L358.3364375,154.47737868058346L359.297125,155.9070523941859L360.2578125,158.11468003687315L361.2185,157.5477948650628L362.1791875,157.69563484088346L363.139875,160.0619242448578L364.1005625,159.51409032518134L365.06125000000003,158.95679182764337L366.0219375,155.81257496472747L366.982625,152.21198267660046L367.9433125,147.71908833989002L368.904,149.56262997520147L369.8646875,150.00578564781017L370.825375,151.10199071968216L371.7860625,150.4246473456825L372.7227328125,149.27270815162433L373.6834203125,151.57448756815032L374.6441078125,143.02844351028682L375.6047953125,143.21726360354515L376.5654828125,139.29414793348948L377.5261703125,139.099976842551L378.48685781250003,141.40138957988353L379.44754531250004,144.3687966206908L380.40823281250005,145.03362617256107L381.3689203125,146.1326627139384L382.3296078125,150.1251419529506L383.2902953125,153.14378234483314L384.22696562500005,154.68533068218633L385.187653125,155.39461936924366L386.148340625,152.20336108560397L387.10902812499995,153.11655451949463L388.06971562499996,153.36736898175434L389.03040312499996,151.2704389746419L389.99109062499997,152.8067115812156L390.951778125,155.59444197184698L391.912465625,157.88706217238007L392.873153125,159.537574870853L393.833840625,159.60664075419376L394.794528125,158.15012823776487L395.755215625,155.68784743211208L396.715903125,156.37406374399515L397.67659062499996,158.03181386235937L398.63727812499997,160.47345136755231L399.597965625,163.08412111228697L400.558653125,156.3456404427065L401.519340625,158.64860169935184L402.480028125,158.64585438028018L403.4166984375,159.15653639473913L404.3773859375,155.6666503346306L405.3380734375,155.3197967831967L406.2987609375,154.3962422532205L407.23543125,153.20373920540732L408.19611875,151.70803706149854L409.15680625,152.10582265699705L410.11749375,152.75633061194475L411.07818125,152.0822505450689L412.03886875,153.79527034851446L412.99955625,150.15646267929077L413.96024375,152.41123724734942L414.92093125,155.27444207702874L415.88161875000003,155.05863525053644L416.84230625000004,156.33438093460947L417.80299375,158.53571713656717L418.76368125,156.25800804418247L419.72436875,155.77548874449667L420.68505625,156.89559136754497L421.64574375,158.17348939676484L422.60643125,159.13060991303192L423.56711875,160.49019574468443L424.52780625,157.93859260863996L425.48849375000003,161.05347750907205L426.4251640625,162.09904176798275L427.3858515625,162.74245886442893L428.29850468750004,163.70752444358504L429.25919218750005,167.60247964367562L430.1958625,170.7860604638913L431.15655,166.71515032161008L432.1172375,168.52809746016996L433.029890625,169.0605463586182L433.990578125,168.51010576491163L434.95126562499996,168.2514254882607L435.91195312499997,166.9145743165192L436.872640625,167.7848890142101L437.833328125,170.10618725503025L438.794015625,170.47225411853518L439.754703125,168.48239303010712L440.715390625,170.80642672758768L441.676078125,163.56721411652714L442.636765625,162.44065747001372L443.597453125,164.59971605427157L444.558140625,165.84899703294272L445.4948109375,165.32318600466365L446.4554984375,166.20894802057316L447.39216875,168.07518342186503L448.3288390625,170.81389038131638L449.2895265625,172.70363719757944L450.2502140625,175.05321690213526L451.2109015625,176.21466303625115L452.1715890625,178.16551430212346L454.0209125,178.3942991343069L454.9816,179.97408608439412L455.9182703125,177.36097348372746L456.8789578125,177.188967422947L457.8396453125,175.51140234659928L458.776315625,177.11171934116027L459.7129859375,174.7757493511931L460.6256390625,175.28714727735985L461.5863265625,174.91935697071585L462.5470140625,174.43675599065435L463.50770156249996,173.1607218694514L464.444371875,174.25513682478447L465.405059375,175.77819595775895L466.365746875,175.3188713479708L467.326434375,175.60693177579003L468.2390875,174.89518123251412L469.151740625,174.98930489456575L470.112428125,174.68496606983004L471.073115625,175.8870212034299L472.033803125,172.49750397069562L472.994490625,172.51146833245377L473.95517812500003,169.83689703155625L474.8918484375,171.1866654871436L475.780484375,171.13197698536462L476.741171875,169.73841994021458L477.701859375,170.0340639712595L478.6145125,173.5910117458166L480.48785312499996,174.3185789073582L481.42452343750006,166.6914284082436L482.3371765625,166.19636720367507L483.2978640625,165.52232530178614L484.25855156250003,166.0439894747058L485.195221875,168.79556747103751L486.13189218749994,169.6211718114024L487.09257968749995,171.22812219071525L487.981215625,161.54306866582704L488.9178859375,161.8079622303067L489.85455625000003,162.43100704596185L490.79122656249996,164.87873824210547L491.7038796875,164.06714566404585L492.64055,165.19674113610608L493.55320312500004,164.12483999479568L494.46585625000006,165.38332241790513L495.4025265625,163.60527900463467L496.339196875,158.8990002438615L497.2758671875,159.5965988603554L498.18852031250003,158.83014344958838L499.12519062499996,160.01014611030763L500.08587812499997,151.7493254423134L500.9745140625,152.21941831908072L501.9352015625,154.9046060323312L502.84785468750005,155.4988269132063L503.784525,155.66012085443813L504.7211953125,158.07673866149145L505.657865625,159.74269616611144L506.59453593750004,156.4217922150791L507.53120624999997,157.48918897789497L508.46787656250007,161.43131367097035L509.3805296875,163.6569425067714L510.3172,165.88569983037448L511.22985312500003,167.47806802092327L512.14250625,168.4765172813539L513.055159375,160.7441038692302L513.9918296875,161.73809051106846L514.880465625,160.44395541218188L515.841153125,162.68907576224538L516.75380625,163.97923753265732L517.7144937500001,165.7638076117384L518.627146875,166.55351749734425L519.587834375,169.74606509917288L520.5245046875,168.37279967037867L521.4371578125,166.28705212762767L522.3738281249999,161.966915815268L523.3104984375,162.96724762030013L524.24716875,163.00092038292098L525.1598218749999,165.81794038239113L526.120509375,145.9278987123785L527.0571796875,147.42494805136366L527.99385,148.3944143013752L528.906503125,149.02055601988476L529.7951390625001,150.74567896610998L530.683775,153.38186242692694L531.5724109375,153.6906655159478L532.461046875,154.84283545722425L533.3977171875,158.16332587435372L534.286353125,158.4608029215356L535.19900625,160.07363977157667L536.1356765625,161.90150220259727L537.0002953125,164.63119447802777L537.9609828125,168.03786088984688L538.8736359375,168.27524251476953L539.762271875,171.35953283983866L540.6749249999999,168.10764959405205L541.5635609375,170.73490685645402L542.4762140625,173.41845775993562L543.4369015625,173.16421861991702L544.3975890625001,171.2847384512926L545.286225,173.21616438699328L546.198878125,174.19636376612212L547.11153125,175.27953409970536L548.0482015624999,176.6109021841859L549.8735078125,177.9936420174397L550.8341953125,176.94111228509078L551.6988140625,176.62513066740365L552.6595015624999,175.02290439995627L553.5721546875,176.48904076990655L555.3974609375,175.79643025323568L556.3341312499999,178.1279184683246L557.2708015625,176.08822535280638L558.1594375,176.90191075812058L559.072090625,176.86626931598715L560.0327781249999,177.99208070991364L560.94543125,179.57841989843863L561.90611875,178.99445568098147L562.7707375,176.4975556011912L563.6593734375,172.1283378982461L564.59604375,172.1059846554771L565.508696875,172.6141779618678L566.373315625,162.94968768242146L567.3099859375,164.2633279718704L568.1986218750001,166.39614481012578L569.0872578125,168.0756971475082L569.9758937500001,167.5448077167105L570.8645296875,170.53789388415962L571.7771828125,171.72393897489727L572.713853125,174.2977025741391L573.6024890625,175.1321737024885L574.5631765625001,177.8171891626118L575.4758296875,177.6808145050707L576.364465625,178.427685582205L578.1177203125,176.38051486901722L579.0303734375,178.7813023887564L579.919009375,177.21090735674767L580.8556796875,179.94002130829762L581.8163671875,178.44915418102264L582.7290203125,170.33095956537852L583.5936390625,170.45000405455272L584.4822750000001,171.11706795076327L585.4189453125,170.84029840739532L586.2835640625,170.8619714603047L587.220234375,171.18510168670693L588.1569046875001,174.2938111628688L589.0695578125001,176.595779826922L589.9822109375,177.50994849526506L590.870846875,178.58122625350111L591.7835,171.47794064047702L592.7441875,165.21009342169944L593.6328234375,163.91659390329698L594.56949375,157.5066559385541L595.4581296875,155.0786806826369L596.3707828125,148.6090302288931L597.2834359374999,152.0656795161587L598.172071875,147.25101347224825L599.084725,146.75212217460796L599.94934375,150.2359549744095L600.8379796875,151.66076670865738L602.7113203125,153.06540661356232L603.6720078125,151.2339250649594L605.4492796875,148.6492274665531L606.3379156249999,148.47619322352193L607.2745859375001,149.47966755435826L608.21125625,152.49151159619754L609.17194375,150.3283419736679L610.084596875,152.59521270661398L610.9732328125,138.55985323891653L611.86186875,141.22797054217418L612.7264875000001,145.22983127173595L613.59110625,143.64558845554438L615.4404296875,145.87179987175955L617.1216328125,147.49491750928942L618.01026875,149.41063302575714L618.8989046875,151.3899189129077L620.652159375,154.66876162841376L621.5648125,158.88923209855395L622.477465625,160.91535995890015L623.39011875,163.68883293967554L624.3267890625,166.44944898275975L625.1914078125,169.3223956093779L626.0320093749999,171.87597635898945L626.8726109375,173.11071197524507L627.7852640625,170.06659395807205L628.6979171875,166.02258509145872L629.53851875,164.8489865659974L630.3791203124999,166.1857606973975L631.2437390624999,161.70641927158928L632.1563921874999,158.505901578342L633.0690453125,161.9063826001956L633.9576812500001,163.8772777870788L634.8223,165.0807918713766L635.6148671875001,166.48512559705375L636.503503125,167.68228498728266L638.328809375,168.54787343221858L639.2654796875,162.13004646601686L640.0820640625,165.4365826359625L640.8506140625,163.43341697823095L641.8113015624999,165.05744387561649L642.7479718750001,164.64175954939398L643.6366078125,166.23952445978315L644.5492609375,168.21227395370818L645.48593125,171.30568570311752L647.3112375,171.32038747990734L648.223890625,173.15984515851372L649.13654375,173.75401290573433L650.049196875,173.90475152063246L650.96185,176.02731478506323L651.82646875,173.4383381249859L652.6670703125,173.28896634728406L653.5797234375,170.9291869590244L654.3963078125,172.71795172872942L656.101528125,173.69892597872368L656.9661468749999,175.8240466978165L658.7434187499999,175.3210368420814L659.6080375,175.19949821153313L660.4486390625,173.90706227907683L661.3132578125,174.10020498489544L662.2259109375,172.15501389826903L663.114546875,172.8524859340049L664.0272,171.4476588517044L664.8197671875,167.81198033203802L665.7324203125,169.0791127154234L666.6450734375001,169.17846905352388L667.533709375,172.171373600865L668.4223453125,172.6128473061737L669.3349984375001,169.92624541548895L670.1515828124999,172.24709621228928L671.1122703125,172.39911176317435L671.952871875,167.62022194242235L672.817490625,166.88780417255964L673.7061265625,169.2273794917292L675.507415625,171.46967871864965L676.4200687499999,169.4826632080407L677.2606703125,171.785086393121L678.14930625,172.1729221754279L679.9025609375001,175.69353884161293L681.60778125,176.14540766002207L682.520434375,178.4443889221995L683.3370187500001,179.6648604665589L684.2736890625,180.8132257029421L685.1623249999999,180.34956149645848L685.978909375,181.60512672177288L686.8675453125,181.67988086891455L687.7801984375001,181.55173204117793L688.6448171875,182.33467264529327L689.5574703125001,185.02760790804987L690.494140625,186.69235022782956L691.40679375,184.98793212673388L692.319446875,183.702955261987L693.2080828124999,185.50417242273411L694.0727015625,186.07209130320814L694.9853546875,186.53576283730374L695.8499734375,188.19064276334052L697.6272453125,183.61993841842016L698.5398984375,181.9584594596512L700.1010156250001,180.59821610736458L700.9416171875,183.44220439535064L701.8542703124999,179.59737302980216L702.7188890625,180.40814655086302L703.5114562499999,179.95816807177303L704.4000921875,182.66288405032822L705.24069375,182.91498562752628L706.153346875,182.5715063177683L707.0900171875,179.67873480189877L708.0026703125001,176.07894564501663L708.7712203125,174.4755137295237L709.6598562500001,174.3309121357758L710.5484921875,174.3437557538953L711.38909375,176.597295471527L712.1816609375,177.94597787801243L713.0943140625,177.84890993036143L713.934915625,179.33014760179813L714.799534375,178.93395818204172L715.664153125,177.68108383948393L716.5527890625,180.1868383963029L718.2820265624999,180.8382865385123L719.1466453125,182.94389305339124L720.03528125,183.47081570837327L720.8758828125,184.7098486561606L721.8125531249999,184.6980966166447L722.7252062499999,186.2391005057174L723.5658078125,184.810201938151L725.2470109374999,184.9507053880306L726.135646875,183.52826931397092L727.0242828125,185.3779855741923L727.9849703125,185.52484791160182L728.8495890625,186.05145154171L729.64215625,188.4551085748113L730.458740625,180.39908345400525L731.2513078125,181.6293588596284L732.1639609375001,183.78098618430505L733.0766140625,185.04027974233625L733.96525,182.3731820520432L734.781834375,180.566030197863L737.1595359375,179.85269851585278L737.9761203125,180.54651110041885L738.816721875,181.9082438970647L739.729375,184.10970821937065L740.59399375,183.75167601662807L741.3625437500001,184.13333893660342L742.2031453125,184.54534532683735L743.1157984375,185.05619146899403L743.8843484375001,181.10945665791232L744.72495,181.34543148247383L745.4694828125,182.0591653226758L746.26205,184.73408314385642L747.9672703125,185.18801151948546L748.7838546875,187.65849864552285L749.576421875,186.34031442530528L750.3209546874999,186.2634267209443L751.9541234375,187.96560792575528L752.69865625,189.58584513587087L753.515240625,186.66085657154193L755.1964437500001,185.42552407850724L756.0850796875,184.66522558396332L756.9016640625,186.52972205431897L757.7662828125,188.0417770164603L758.5828671875,187.87898916989712L759.42346875,190.56327571166784L760.240053125,191.5901358572816L761.0566375,191.47249163218638L761.8972390624999,190.17943004407942L762.7138234375,190.35641981775936L763.5304078125,191.39602683416692L764.41904375,190.6650026245857L765.2596453125001,190.51663959934245L766.0522125,192.03645053256952L766.91683125,191.65288299587365L767.7814500000001,191.34620439767036L768.64606875,192.82926143416503L769.4626531250001,191.5708047661693L770.2071859375001,192.86880360648706L770.999753125,192.41594884648612L771.8883890625001,191.08334338095898L772.7530078125,193.0363286613624L774.4101937500001,191.52801499422677L775.2988296875,191.55904656782212L776.1394312499999,189.04624113990315L777.0520843749999,189.50279905914468L777.8446515625001,190.81862126369333L778.6612359375,192.9141055064003L779.4778203125,194.45196644953566L780.318421875,191.8442391603003L781.183040625,192.7040403478939L782.09569375,193.74661766806176L782.912278125,193.1420852798748L783.680828125,192.00949957279522L785.36203125,194.09355533398005L786.9952000000001,192.7002959736819L787.7877671875,192.6311817812487L788.580334375,192.17139093929703L789.4689703125,186.42767372926457L790.2375203124999,185.3412557582568L791.0541046875,184.83503410149203L791.8466718750001,180.284346720726L792.7833421875,181.30173828045156L793.5999265625001,180.1536982516742L794.39249375,176.56751876935633L795.16104375,177.83890125757964L796.0496796875,179.20895474917083L798.5474671875,180.04367413000722L799.2919999999999,180.64201674574232L800.1806359375,181.1501801226167L800.9491859375,180.32411654122467L801.837821875,181.69815886468072L803.470990625,181.03184483344822L804.2155234375,183.1102727908751L805.056125,183.67218609158033L805.8006578125,185.42207232331253L806.6652765624999,186.73028371684615L807.409809375,188.297334196507L808.22639375,190.5102435368955L809.0910124999999,188.90656578994063L809.8595624999999,191.82441538534243L810.72418125,187.01680338158926L811.49273125,182.99880923450436L812.2852984374999,176.43664662070498L813.1018828125,177.68103718898513L813.8223984375,180.11092995165185L814.663,179.25128898167296L815.5036015625001,172.56610458135935L816.3201859374999,173.88930051453383L817.1848046875,175.8619413294228L817.9533546875,177.64914267497394L818.8660078125,175.50834353655134L819.6345578125,174.7023094322371L820.4271249999999,177.72725025203658L821.243709375,178.7847351134625L822.012259375,180.51763943119866L822.8528609374999,182.28496010830233L823.6694453125,182.14319714441612L825.3746656249999,174.76173647040284L826.19125,175.23023673675036L827.8004015624999,175.48145043078785L829.409553125,176.41179285418653L830.2261374999999,177.9167077620462L831.09075625,177.95990150743935L831.8833234374999,175.81049182784474L832.675890625,176.7604837181272L833.6125609375,177.12362492307753L834.405128125,176.57693987417042L835.2217125,178.19664967529343L837.287190625,175.6923336589506L838.8002734375,176.85636551473766L839.6648921875001,178.15048351670725L840.457459375,179.35628170379405L841.3460953125,179.35901522777073L842.186696875,174.12482402018782L843.0993500000001,172.53903565989322L843.9639687499999,173.27484532007068L844.780553125,172.9415113497053L846.3416703124999,169.11356309917562L847.0621859375,172.0362388088642L847.9027875,173.38313009785912L849.487921875,175.4626699577755L850.352540625,178.34567987570324L851.217159375,178.96901537350703L851.8656234375,178.35576672862274L852.658190625,178.3551027455707L853.426740625,181.4956123508278L854.1712734375001,182.61452036329013L854.8197375000001,183.83300852818104L856.3088031249999,185.44417873281785L857.077353125,184.75706341924536L857.8218859374999,186.40570388619534L859.5271062500001,187.73159529023374L860.3436906249999,186.65558276996367L861.112240625,188.1407777443552L861.9048078124999,188.79887945266714L862.7213921875,191.0483765796888L864.3305437500001,193.98996115175797L865.1231109375,194.3112424699043L865.915678125,193.55681319382592L866.82833125,195.442444960762L867.59688125,194.9539798250034L868.36543125,195.98464426803957L870.76715,196.56027525285216L871.5597171874999,197.7925687990563L872.3763015625,199.431104115313" style="fill: none;" fill="none"></path></g></g></g></g><g opacity="0.20000000298023224"><g><g><g><path stroke="rgb(255, 112, 67)" stroke-width="2px" d="M121.0706421875,-48.67541957899812L122.0313296875,44.67439318251854L122.9920171875,72.91244422414456L123.9527046875,36.75797598408826L124.91339218750001,-74.08928284711146L125.8740796875,-160.9119880758808L126.8347671875,99.92243454691197L127.7954546875,37.842975546496746L128.75614218750002,72.57459557151014L129.7168296875,-171.4130508316739L130.6775171875,69.00987662812986L131.6382046875,-57.27672694409557L132.5988921875,106.98862202845339L133.55957968750002,-50.07071120233741L134.5202671875,151.37034934015537L135.4809546875,85.99483167110157L136.4416421875,-296.9010630567791L137.4023296875,58.38792114720127L138.3630171875,29.886224118868995L139.3237046875,69.24317297672678L140.28439218749998,45.31257129748701L141.24507968749998,127.50007306478074L142.2057671875,13.914287214007345L143.1664546875,115.37548061006964L144.1271421875,-47.66046610164631L145.0878296875,0.6863314665824305L146.04851718749998,139.256577191205L147.0092046875,126.64588469944283L147.9698921875,125.7440825902595L148.9305796875,77.54909919005149L149.8912671875,105.86946812692622L150.8519546875,77.84175327289267L151.8126421875,-83.14315169990005L152.7733296875,138.40661138421274L153.7340171875,-70.35803675897478L154.6947046875,151.44036243647497L155.6553921875,155.42888768506236L156.6160796875,89.33370972046396L157.5767671875,92.07179689020995L158.5374546875,190.56266240751575L159.4981421875,-39.143785843392834L160.4588296875,54.14449192723259L161.41951718750002,-48.52481499800342L162.3802046875,191.75311596610845L163.3408921875,-27.715893523221894L164.3015796875,124.4652632012876L165.26226718750002,146.79994675454145L166.22295468750002,136.0025901585832L167.1836421875,159.8343465852995L168.14432968749998,78.23647450824501L169.10501718749998,113.6686213612993L170.0657046875,196.2581678635761L171.0263921875,126.31799864540517L171.9870796875,170.64387602523857L172.94776718749998,-18.18272031321976L173.90845468749998,128.54929084370815L174.8691421875,118.04275195756054L175.8298296875,40.836395541206L176.7905171875,159.2626187830465L177.7512046875,9.205870748715824L178.71189218749998,115.03349736905511L179.6725796875,127.70323970018217L180.6332671875,178.56498862057924L181.5939546875,142.56728285910503L182.5546421875,178.09672449404025L183.5153296875,115.27110424596322L184.4760171875,186.648108903697L185.4367046875,119.29922697528673L186.3973921875,137.19214202502917L187.3580796875,136.767730926309L188.31876718750001,-180.76170703896787L189.2794546875,65.89516804344021L190.2401421875,104.48334737249388L191.2008296875,216.10906342495218L192.1615171875,60.473293165174255L193.12220468750002,181.11374243200407L194.08289218750002,194.18329726023876L195.0435796875,156.9077837643963L196.0042671875,156.38546209403648L196.9649546875,98.56156117258797L197.92564218750002,119.3253760475418L198.8863296875,144.70057651580282L199.8470171875,139.50201339504565L200.80770468749998,65.98049891000846L201.76839218749998,143.6819063074072L202.7290796875,125.02444428720628L203.6897671875,174.71820497895897L204.6504546875,52.09683703198243L205.61114218749998,-19.252215169202827L206.57182968749999,172.17763237432882L207.5325171875,57.99012096305523L208.4932046875,164.32025401901774L209.4538921875,74.78871163404256L210.4145796875,-26.603447331566713L211.3752671875,173.37114288922385L212.3359546875,86.79560027486878L213.2966421875,172.80948764802451L214.2573296875,187.58053555713195L215.2180171875,128.63712885429413L216.17870468750002,172.10518910771134L217.1393921875,164.51818644146988L218.1000796875,176.55315949379292L219.0607671875,87.66879015276209L220.0214546875,96.53354557214334L220.98214218750002,127.24693948895583L221.9428296875,129.90189504127193L222.9035171875,146.8603931171092L223.8642046875,157.08295395826644L224.8248921875,84.69259027880616L225.78557968750002,182.06887633279257L226.74626718750002,181.0830409140326L227.7069546875,215.07254630979878L228.66764218749998,77.8240493173289L229.62832968749998,21.465079243185755L230.5890171875,110.93979303042579L231.5497046875,207.2657506846699L232.5103921875,27.245783610866056L233.47107968749998,200.00738181717315L234.4317671875,19.259056417482498L235.3924546875,170.5656597296329L236.3531421875,115.6832875194741L237.3138296875,221.19533288470484L238.2745171875,92.24197478853603L239.2352046875,235.4059901208675L240.1958921875,26.022539247620443L241.1565796875,231.88222119644342L242.1172671875,177.23525661405438L243.0779546875,167.47520886293933L244.0386421875,192.092921950476L244.9993296875,1.5838450399459703L245.9600171875,142.64089172776585L246.9207046875,143.90253498096718L247.8813921875,-72.7637074214581L248.84207968750002,129.47240367704217L249.8027671875,24.282449344369525L250.7634546875,113.8138597743964L251.7241421875,160.56032972211688L252.6848296875,150.97993863311422L253.64551718750002,184.70106965652667L254.6062046875,93.14516242467653L255.5668921875,203.05189036936645L256.5275796875,190.70200683292205L257.4882671875,-4.46349629326869L258.4489546875,182.26488441224865L259.4096421875,15.840917429173714L260.37032968750003,156.52861122045215L261.33101718750004,43.77599990949966L262.29170468750004,134.39902964184148L263.2523921875,222.46157256860533L264.2130796875,149.8856032581134L265.1737671875,159.1688867847697L266.1344546875,219.49857918572525L267.0951421875,-86.37956673190638L268.0558296875,145.0168065494072L269.0165171875,166.18816428218997L269.97720468750003,197.12461704286034L270.93789218750004,182.91868819234514L271.89857968750005,169.55263059527715L272.85926718750005,1.5302933234269744L273.8199546875,116.79362243195646L274.78064218749995,198.81934743263264L275.74132968749996,123.61646299633867L276.70201718749996,147.01101969059528L277.66270468749997,100.29542720077734L278.6233921875,149.37762069213568L279.5840796875,207.70732692291494L280.5447671875,164.25823519331607L281.5054546875,174.39510229179723L282.4661421875,169.06926862340333L283.4268296875,90.03735948228132L284.3875171875,200.42555804458607L285.34820468749996,151.52957497777243L286.30889218749996,9.610422627716616L287.26957968749997,114.96013041779952L288.2302671875,183.78865617025076L289.1909546875,153.56064753451938L290.1516421875,80.03471255871409L291.1123296875,56.503890387844876L292.0730171875,113.88126676048705L293.0337046875,24.12951355928817L293.9943921875,191.87949581784414L294.9550796875,129.0312562923791L295.91576718749997,183.07351533168548L296.8764546875,181.56519329888033L297.8371421875,184.38824845908675L298.7978296875,109.48762882436858L299.7585171875,195.7755756289007L300.7192046875,163.12551192460523L301.6798921875,175.44486988300923L302.6405796875,-404.87671830304316L303.6012671875,19.083512351258832L304.5619546875,186.53744268705486L305.5226421875,168.34165804222357L306.4833296875,136.34712452859821L307.4440171875,211.77598181385838L308.4047046875,107.30452217468701L309.3653921875,176.02285454906087L310.3260796875,118.09694145632966L311.2867671875,204.0405518232692L312.2474546875,186.72033224540064L313.2081421875,127.48993452625291L314.1688296875,120.97890350470698L315.1295171875,170.43476042091788L316.09020468750003,35.14577241823281L317.05089218750004,80.55030452671053L318.0115796875,200.58879731188063L318.9722671875,125.20234155000799L319.9329546875,106.9251516983204L320.8936421875,137.220226436526L321.8543296875,90.82787958506378L322.8150171875,183.6315638042979L323.7757046875,103.46944953472848L324.73639218750003,159.8723825991474L325.69707968750004,203.38150283397772L326.65776718750004,115.83886240352149L327.61845468750005,169.592986816966L328.5791421875,202.23506724688923L329.5398296875,136.0261221243636L330.5005171875,1.712325174608793L331.4612046875,122.7989141216458L332.4218921875,134.03566969920212L333.38257968749997,152.81280386126673L334.3432671875,154.14371246608061L335.3039546875,157.39000212671817L336.2646421875,152.1473880457197L337.2253296875,148.78744118961185L338.1860171875,198.7607594355868L339.1467046875,197.55336066238306L340.10739218749995,161.02782411145745L341.06807968749996,217.43759684069664L342.02876718749997,114.8541266093307L342.9894546875,194.48412155362894L343.9501421875,99.33543295939307L344.9108296875,214.2278257120015L345.8715171875,212.17235248606448L346.8322046875,146.9063134391181L347.7928921875,226.5807991934853L348.7535796875,108.07505110280181L349.7142671875,179.61834098788677L350.67495468749996,171.46005036921997L351.63564218749997,165.71550165737426L352.5963296875,231.84165604608643L353.5570171875,206.681960000893L354.5177046875,123.68505757696403L355.4783921875,141.32897363926168L356.4390796875,110.50775053719553L357.3997671875,177.94466840861423L358.3364375,128.29479373341746L359.297125,186.96954016151358L360.2578125,206.07978359431945L361.2185,145.23107939295733L362.1791875,160.90775610474884L363.139875,211.4743547945327L364.1005625,147.61128275041847L365.06125000000003,146.848341231831L366.0219375,87.49799646467727L366.982625,73.98167517023103L367.9433125,50.10163422868209L368.904,189.61741413160416L369.8646875,159.63426989493746L370.825375,174.9193483051531L371.7860625,135.7079347590261L372.7227328125,124.2443926103224L373.6834203125,201.58553001012115L374.6441078125,-42.652555888693314L375.6047953125,147.31978327337492L376.5654828125,54.056060119379254L377.5261703125,134.8811930229349L378.48685781250003,191.40453497767885L379.44754531250004,208.84211748581583L380.40823281250005,159.47848608222193L381.3689203125,170.01161389045228L382.3296078125,236.87042613711674L383.2902953125,218.73031548422296L384.22696562500005,188.17883028897631L385.187653125,170.80546585567936L386.148340625,82.86628980933165L387.10902812499995,172.9576840512127L388.06971562499996,158.81686397143858L389.03040312499996,105.71002256439533L389.99109062499997,186.18561780614618L390.951778125,216.16403365716542L391.912465625,207.69929966355994L392.873153125,195.3986133303406L393.833840625,161.10724999408922L394.794528125,126.5041650849671L395.755215625,102.18933258876496L396.715903125,171.28363759958665L397.67659062499996,194.05012172866554L398.63727812499997,213.52346119421418L399.597965625,219.80673797499185L400.558653125,9.937121087219566L401.519340625,208.68557493214757L402.480028125,158.58616273682492L403.4166984375,170.25224473492563L404.3773859375,79.84106867208175L405.3380734375,147.78362690914582L406.2987609375,134.32995122640568L407.23543125,127.29393744304252L408.19611875,119.21055325002817L409.15680625,160.74860744085163L410.11749375,166.89007663718803L411.07818125,137.43634664935234L412.03886875,191.01447615049983L412.99955625,71.0951826686287L413.96024375,201.40128791355528L414.92093125,217.48401199376167L415.88161875000003,150.36974596343134L416.84230625000004,184.05282997675022L417.80299375,206.3647073164393L418.76368125,106.76964279174717L419.72436875,145.29166870671907L420.68505625,181.23234793803567L421.64574375,185.93870810538283L422.60643125,179.92621387476538L423.56711875,190.03026817610225L424.52780625,102.49925077734224L425.48849375000003,228.73138994465626L426.4251640625,184.8162883188852L427.3858515625,176.72214979758428L428.29850468750004,184.67575629894418L429.25919218750005,252.22919038971304L430.1958625,239.95655547925344L431.15655,78.26541662690579L432.1172375,207.9184768326886L433.029890625,180.62920386184123L433.990578125,156.55053773436157L434.95126562499996,162.63101075584564L435.91195312499997,137.86845512005675L436.872640625,186.69444708304218L437.833328125,220.54165006331095L438.794015625,178.42588611257816L439.754703125,125.24815190955997L440.715390625,221.30132569692796L441.676078125,6.278912062967663L442.636765625,137.96366061525623L443.597453125,211.51015857050515L444.558140625,192.99245883304684L445.4948109375,153.8987491008047L446.4554984375,185.4541365464829L447.39216875,208.62338016651483L448.3288390625,230.31851107408875L449.2895265625,213.76267352299328L450.2502140625,226.1031662656169L451.2109015625,201.4497153795819L452.1715890625,220.55218446668368L454.0209125,183.3651687561687L454.9816,214.29854256804538L455.9182703125,120.5851719314669L456.8789578125,173.45174537014464L457.8396453125,139.06249345474498L458.776315625,211.8822385359781L459.7129859375,124.0214987101499L460.6256390625,186.3984281490193L461.5863265625,166.9282775947213L462.5470140625,163.95115403612726L463.50770156249996,145.43598343517806L464.444371875,198.03378663665717L465.405059375,208.87011392734712L466.365746875,165.33900120113321L467.326434375,181.86569870114545L468.2390875,159.43078436841097L469.151740625,177.03435520526546L470.112428125,168.07251393267143L471.073115625,202.00439900101264L472.033803125,98.852543826084L472.994490625,172.8148758084135L473.95517812500003,111.72576068749186L474.8918484375,200.5134510364005L475.780484375,169.94374506204258L476.741171875,139.46022766141687L477.701859375,176.4576021187313L478.6145125,250.87378214949786L480.48785312499996,190.12662827709937L481.42452343750006,0.9742571637761444L482.3371765625,155.44003787819383L483.2978640625,150.87723369835294L484.25855156250003,177.3783287667502L485.195221875,228.57985068277776L486.13189218749994,187.55930180670111L487.09257968749995,206.142770089642L487.981215625,-48.88672343621147L488.9178859375,167.56337676089606L489.85455625000003,175.9680712530244L490.79122656249996,218.06125991135195L491.7038796875,146.43345288187993L492.64055,189.73976935741666L493.55320312500004,140.83535217015742L494.46585625000006,192.72671256341346L495.4025265625,124.97324576726533L496.339196875,56.64440041529451L497.2758671875,174.7535139238753L498.18852031250003,142.17715805445187L499.12519062499996,185.6483852266283L500.08587812499997,-27.735774735432642L500.9745140625,162.43325427332456L501.9352015625,213.24641078400964L502.84785468750005,168.4096258368445L503.784525,159.16459824894991L504.7211953125,210.58325203240747L505.657865625,195.9394086934626L506.59453593750004,84.26760737531004L507.53120624999997,180.68080924287278L508.46787656250007,247.08293091158885L509.3805296875,212.01378662318893L510.3172,214.31051747960373L511.22985312500003,202.07588559425494L512.14250625,190.170096436319L513.055159375,-7.260149467569136L513.9918296875,183.33470915560247L514.880465625,132.32592943406053L515.841153125,211.4694174802171L516.75380625,192.01093394259806L517.7144937500001,204.53764810601206L518.627146875,183.7117594241281L519.587834375,239.11141702411987L520.5245046875,138.53548738372047L521.4371578125,120.96944673341204L522.3738281249999,68.10213654627296L523.3104984375,184.70172943126818L524.24716875,163.73253767552887L525.1598218749999,227.02410184230393L526.120509375,-286.22845886819414L527.0571796875,179.9517471572617L527.99385,169.45827181099594L528.906503125,162.6249078394867L529.7951390625001,188.22789553725306L530.683775,210.65893919150403L531.5724109375,160.40011442238756L532.461046875,179.87634590055313L533.3977171875,230.3085264830006L534.286353125,164.9241678324106L535.19900625,195.11618575599277L536.1356765625,201.615967618196L537.0002953125,223.93996282063745L537.9609828125,242.05543088693594L538.8736359375,173.43289780502892L539.762271875,238.37274971789702L540.6749249999999,97.45309562187322L541.5635609375,227.81804177749655L542.4762140625,231.7246999769086L543.4369015625,167.6402954995101L544.3975890625001,130.4487603320158L545.286225,215.18078235614303L546.198878125,195.49342296069517L547.11153125,198.81387130227813L548.0482015624999,205.53789960287395L549.8735078125,208.03680743257792L550.8341953125,154.0725117752263L551.6988140625,169.75971189414486L552.6595015624999,140.2108973698123L553.5721546875,208.3441854884004L555.3974609375,160.74789268488166L556.3341312499999,228.78479870998126L557.2708015625,131.77125680887548L558.1594375,194.5810754518934L559.072090625,176.0918779832682L560.0327781249999,202.4528918777978L560.94543125,214.0452440485351L561.90611875,166.30650587832497L562.7707375,122.24672664798709L563.6593734375,77.1971533504402L564.59604375,171.62030965393205L565.508696875,183.65583251853968L566.373315625,-47.03332821735239L567.3099859375,192.80514878393296L568.1986218750001,212.7364378975617L569.0872578125,204.56778881545324L569.9758937500001,156.01002827362754L570.8645296875,235.56949329805866L571.7771828125,197.4934641120999L572.713853125,230.2185661969961L573.6024890625,193.26295548081907L574.5631765625001,236.1552523098144L575.4758296875,174.7177651291313L576.364465625,194.65515715911897L578.1177203125,131.9010784855127L579.0303734375,230.9438675665806L579.919009375,143.09050622161158L580.8556796875,239.23622441272164L581.8163671875,146.0566775194966L582.7290203125,-6.055268834628805L583.5936390625,173.03651613657712L584.4822750000001,185.61054714520287L585.4189453125,164.8268510580383L586.2835640625,171.33286779154878L587.220234375,178.20584024003983L588.1569046875001,241.83758976165882L589.0695578125001,226.61128078654292L589.9822109375,197.37234046580488L590.870846875,201.85717026744533L591.7835,17.142916904063895L592.7441875,29.02686751805595L593.6328234375,135.81237710060668L594.56949375,18.236185643232602L595.4581296875,102.32540013295511L596.3707828125,8.041170397533222L597.2834359374999,227.1692412891898L598.172071875,42.64145126400399L599.084725,135.91257489135023L599.94934375,225.93014033965665L600.8379796875,182.61803983888603L602.7113203125,183.58440090652584L603.6720078125,111.44082596912631L605.4492796875,92.49079783604975L606.3379156249999,144.71663103451283L607.2745859375001,171.28242801256056L608.21125625,217.9306684975163L609.17194375,103.32856563492533L610.084596875,201.84813135348668L610.9732328125,-166.39022970956285L611.86186875,199.19888285268462L612.7264875000001,232.17935075128116L613.59110625,109.22431272503309L615.4404296875,194.24130245626293L617.1216328125,182.76083708543956L618.01026875,191.03390651663722L618.8989046875,194.39440318502966L620.652159375,225.90907153291118L621.5648125,250.58854503437578L622.477465625,204.937592558068L623.39011875,223.94883679091072L624.3267890625,226.43010664252506L625.1914078125,231.7436904932183L626.0320093749999,227.35832173386007L626.8726109375,199.93814945429767L627.7852640625,103.92621158827387L628.6979171875,78.15730153926415L629.53851875,139.3498913321455L630.3791203124999,195.2302168238166L631.2437390624999,64.38254647856957L632.1563921874999,88.96738079148781L633.0690453125,235.78956116308836L633.9576812500001,206.69945502778864L634.8223,191.22987061111053L635.6148671875001,196.99746745392622L636.503503125,193.6932935559671L638.328809375,187.35474964434252L639.2654796875,22.688169658991683L640.0820640625,237.27859578095013L640.8506140625,119.9100904159568L641.8113015624999,200.34311919063475L642.7479718750001,155.61007282532591L643.6366078125,200.95459842106357L644.5492609375,211.07474022984752L645.48593125,238.5170864388474L647.3112375,171.63981699378928L648.223890625,213.1262438110898L649.13654375,186.66365759510518L650.049196875,177.17989051699624L650.96185,222.14482571145345L651.82646875,117.18693614786025L652.6670703125,170.04352499544984L653.5797234375,119.6576166148734L654.3963078125,211.5829317244934L656.101528125,195.01282104649L656.9661468749999,221.9971241393214L658.7434187499999,164.39200452215664L659.6080375,172.5587952387432L660.4486390625,145.82595429239154L661.3132578125,178.29666922945398L662.2259109375,129.89131665291643L663.114546875,188.00665107393434L664.0272,140.92459770019195L664.8197671875,88.81860158727795L665.7324203125,196.61044359055813L666.6450734375001,171.33721130859703L667.533709375,237.19902694712437L668.4223453125,182.20486690326288L669.3349984375001,111.55371342739818L670.1515828124999,222.6728544333273L671.1122703125,175.70199509602026L671.952871875,63.78797947401472L672.817490625,150.97436353654848L673.7061265625,220.05997051702798L675.507415625,220.1887255578331L676.4200687499999,126.31023529594677L677.2606703125,221.81046286870333L678.14930625,180.5995359909648L679.9025609375001,252.18693731564235L681.60778125,185.96328471450397L682.520434375,228.39498180020746L683.3370187500001,206.1823785666238L684.2736890625,205.7640703842626L685.1623249999999,170.27540282835253L685.978909375,208.8851347989621L686.8675453125,183.30408461135085L687.7801984375001,178.76740751127363L688.6448171875,199.34583668010964L689.5574703125001,243.53774679868002L690.494140625,222.8626606302132L691.40679375,147.95557520302827L692.319446875,155.78391247346735L693.2080828124999,224.63970891523422L694.0727015625,198.41141970620447L694.9853546875,196.6100807144503L695.8499734375,224.14667024715163L697.6272453125,84.31099856080982L698.5398984375,145.85905299192382L700.1010156250001,151.04383781682918L700.9416171875,245.23431356148285L701.8542703124999,96.05967336030153L702.7188890625,198.02404396297425L703.5114562499999,170.18136293519638L704.4000921875,241.4289857661206L705.24069375,188.39246535027632L706.153346875,175.1086376784915L707.0900171875,116.82669913899736L708.0026703125001,97.86534487285826L708.7712203125,139.63731120203738L709.6598562500001,171.18911387162007L710.5484921875,174.62281254758273L711.38909375,225.56056751820142L712.1816609375,207.2491683461667L713.0943140625,175.73988815867415L713.934915625,211.51340246298423L714.799534375,170.32584260734075L715.664153125,150.45954130575046L716.5527890625,234.63005103987234L718.2820265624999,194.9924779919602L719.1466453125,228.69298005845485L720.03528125,194.91940793933827L720.8758828125,211.63065543079574L721.8125531249999,184.44275684898093L722.7252062499999,219.72091227736746L723.5658078125,153.76413306104587L725.2470109374999,188.00346216268372L726.135646875,152.6226127957816L727.0242828125,225.5672752280734L727.9849703125,188.7157659698605L728.8495890625,197.49311223223776L729.64215625,240.6800204758074L730.458740625,5.363628556566198L731.2513078125,208.35988812724827L732.1639609375001,230.52997987498748L733.0766140625,212.40129432136746L733.96525,124.4244231447883L734.781834375,141.30154900250636L737.1595359375,164.35394651581737L737.9761203125,195.62116634689664L738.816721875,211.4949837514505L739.729375,231.94152394945922L740.59399375,175.9726127024951L741.3625437500001,192.42583328879482L742.2031453125,193.49712053282565L743.1157984375,196.1554849213062L743.8843484375001,95.35767303533794L744.72495,186.47252085249056L745.4694828125,197.56665512342443L746.26205,242.85275216767877L747.9672703125,195.05063713542404L748.7838546875,241.33544620214343L749.576421875,157.69976636785577L750.3209546874999,184.5928665989195L751.9541234375,224.9493631939149L752.69865625,224.78918088292266L753.515240625,123.10883231022308L755.1964437500001,158.5851180934842L756.0850796875,168.14601283887532L756.9016640625,227.04014536476825L757.7662828125,220.8946075575259L758.5828671875,184.34205323093556L759.42346875,248.8855014828605L760.240053125,213.90100629379594L761.0566375,188.91640346875283L761.8972390624999,162.08472826612342L762.7138234375,194.20192490044064L763.5304078125,213.98385200883786L764.41904375,174.78184025277733L765.2596453125001,187.29311568724006L766.0522125,225.0577971726816L766.91683125,183.3190065167546L767.7814500000001,184.68291485488953L768.64606875,225.0520461361848L769.4626531250001,164.22797352517227L770.2071859375001,221.07077840975398L770.999753125,182.57664997010215L771.8883890625001,162.1294609935976L772.7530078125,235.46937248103495L774.4101937500001,158.7564725900993L775.2988296875,192.23327803048596L776.1394312499999,134.44983229693753L777.0520843749999,199.42255748630123L777.8446515625001,219.40784916252233L778.6612359375,238.4432631433956L779.4778203125,227.8654905776566L780.318421875,135.18543714873522L781.183040625,211.38517524197232L782.09569375,216.3989794426161L782.912278125,180.00724520926815L783.680828125,167.4015010280673L785.36203125,239.37440323608462L786.9952000000001,162.42856987265986L787.7877671875,191.1295188729273L788.580334375,182.18138991871092L789.4689703125,61.63236343856261L790.2375203124999,161.73635620636196L791.0541046875,173.83621810451223L791.8466718750001,81.41032090226508L792.7833421875,203.40688216903436L793.5999265625001,155.20991944460184L794.39249375,98.64961910808779L795.16104375,205.46257531988522L796.0496796875,208.97648061192376L798.5474671875,198.17984976818116L799.2919999999999,193.64236994216844L800.1806359375,192.1911844019778L800.9491859375,162.37600781825313L801.837821875,211.55235116522454L803.470990625,166.5546581548515L804.2155234375,228.268843865877L805.056125,195.88102962508492L805.8006578125,223.4423277218557L806.6652765624999,215.15414944907752L807.409809375,222.34506734550087L808.22639375,238.5907282962453L809.0910124999999,154.0630220151943L809.8595624999999,255.2213293217992L810.72418125,82.56050620913447L811.49273125,95.69875458420574L812.2852984374999,33.85874982997484L813.1018828125,204.71825044525394L813.8223984375,232.90587270413744L814.663,160.57363517940394L815.5036015625001,27.31527988363814L816.3201859374999,202.63873942623468L817.1848046875,218.72204630746273L817.9533546875,216.48015372831287L818.8660078125,128.99461680173408L819.6345578125,157.18938662031724L820.4271249999999,243.45096442768045L821.243709375,201.76099710262497L822.012259375,218.16892415292023L822.8528609374999,220.6840184562825L823.6694453125,179.06307456543436L825.3746656249999,14.382727280477411L826.19125,185.40946979648288L827.8004015624999,180.93963887396603L829.409553125,196.62559641712141L830.2261374999999,210.6144043964523L831.09075625,178.8983837937085L831.8833234374999,129.10968151665293L832.675890625,197.4012166069915L833.6125609375,185.01369292154413L834.405128125,164.69896472064283L835.2217125,213.38852626333028L837.287190625,121.28037657659297L838.8002734375,202.14760310865677L839.6648921875001,206.26813828677405L840.457459375,205.55498776867898L841.3460953125,179.41840724871872L842.186696875,60.40012414634111L843.0993500000001,138.0841794680382L843.9639687499999,189.26198248210858L844.780553125,165.69907326631073L846.3416703124999,85.94268747403112L847.0621859375,235.53801104664308L847.9027875,202.6474044678398L849.487921875,220.64539964141295L850.352540625,240.98562263795066L851.217159375,192.51239573488056L851.8656234375,165.0315461715909L852.658190625,178.3406762047125L853.426740625,249.730321046869L854.1712734375001,206.9253399067893L854.8197375000001,210.30743320172041L856.3088031249999,220.45051317901743L857.077353125,169.827921606171L857.8218859374999,222.2261649408356L859.5271062500001,216.53959943252266L860.3436906249999,163.27676528409575L861.112240625,220.4100140061346L861.9048078124999,203.09763475144428L862.7213921875,239.92381415770615L864.3305437500001,257.9025713994415L865.1231109375,201.29180929144786L865.915678125,177.16512255903217L866.82833125,236.41208062419173L867.59688125,184.34096460261208L868.36543125,218.37817171218921L870.76715,209.06716665014392L871.5597171874999,224.56694675749168L872.3763015625,235.03200780488987" style="fill: none;" fill="none"></path></g></g></g></g></g></g><g transform="translate(68, 377)" clip-path="url(#clip_1)"><clipPath id="clip_1"><rect width="960" height="22"></rect></clipPath><g><g><line x1="0" y1="0" x2="0" y2="5" style="visibility: inherit;" fill="rgb(0, 0, 0)" stroke="rgb(204, 204, 204)" stroke-width="1px"></line><line x1="120.0859375" y1="0" x2="120.0859375" y2="5" style="visibility: inherit;" fill="rgb(0, 0, 0)" stroke="rgb(204, 204, 204)" stroke-width="1px"></line><line x1="240.171875" y1="0" x2="240.171875" y2="5" style="visibility: inherit;" fill="rgb(0, 0, 0)" stroke="rgb(204, 204, 204)" stroke-width="1px"></line><line x1="360.2578125" y1="0" x2="360.2578125" y2="5" style="visibility: inherit;" fill="rgb(0, 0, 0)" stroke="rgb(204, 204, 204)" stroke-width="1px"></line><line x1="480.34375" y1="0" x2="480.34375" y2="5" style="visibility: inherit;" fill="rgb(0, 0, 0)" stroke="rgb(204, 204, 204)" stroke-width="1px"></line><line x1="600.4296875" y1="0" x2="600.4296875" y2="5" style="visibility: inherit;" fill="rgb(0, 0, 0)" stroke="rgb(204, 204, 204)" stroke-width="1px"></line><line x1="720.515625" y1="0" x2="720.515625" y2="5" style="visibility: inherit;" fill="rgb(0, 0, 0)" stroke="rgb(204, 204, 204)" stroke-width="1px"></line><line x1="840.6015625" y1="0" x2="840.6015625" y2="5" style="visibility: inherit;" fill="rgb(0, 0, 0)" stroke="rgb(204, 204, 204)" stroke-width="1px"></line><line x1="960.6875" y1="0" x2="960.6875" y2="5" style="visibility: inherit;" fill="rgb(0, 0, 0)" stroke="rgb(204, 204, 204)" stroke-width="1px"></line></g><g transform="translate(0, 8)"><text x="0" y="0" dx="0em" dy="0.95em" style="text-anchor: middle; visibility: hidden; font-family: &quot;Helvetica Neue&quot;, sans-serif; font-size: 12px; font-weight: 200;" fill="rgb(50, 49, 63)" stroke="none" stroke-width="1px">-5k</text><text x="120.0859375" y="0" dx="0em" dy="0.95em" style="text-anchor: middle; visibility: inherit; font-family: &quot;Helvetica Neue&quot;, sans-serif; font-size: 12px; font-weight: 200;" fill="rgb(50, 49, 63)" stroke="none" stroke-width="1px">0</text><text x="240.171875" y="0" dx="0em" dy="0.95em" style="text-anchor: middle; visibility: inherit; font-family: &quot;Helvetica Neue&quot;, sans-serif; font-size: 12px; font-weight: 200;" fill="rgb(50, 49, 63)" stroke="none" stroke-width="1px">5k</text><text x="360.2578125" y="0" dx="0em" dy="0.95em" style="text-anchor: middle; visibility: inherit; font-family: &quot;Helvetica Neue&quot;, sans-serif; font-size: 12px; font-weight: 200;" fill="rgb(50, 49, 63)" stroke="none" stroke-width="1px">10k</text><text x="480.34375" y="0" dx="0em" dy="0.95em" style="text-anchor: middle; visibility: inherit; font-family: &quot;Helvetica Neue&quot;, sans-serif; font-size: 12px; font-weight: 200;" fill="rgb(50, 49, 63)" stroke="none" stroke-width="1px">15k</text><text x="600.4296875" y="0" dx="0em" dy="0.95em" style="text-anchor: middle; visibility: inherit; font-family: &quot;Helvetica Neue&quot;, sans-serif; font-size: 12px; font-weight: 200;" fill="rgb(50, 49, 63)" stroke="none" stroke-width="1px">20k</text><text x="720.515625" y="0" dx="0em" dy="0.95em" style="text-anchor: middle; visibility: inherit; font-family: &quot;Helvetica Neue&quot;, sans-serif; font-size: 12px; font-weight: 200;" fill="rgb(50, 49, 63)" stroke="none" stroke-width="1px">25k</text><text x="840.6015625" y="0" dx="0em" dy="0.95em" style="text-anchor: middle; visibility: inherit; font-family: &quot;Helvetica Neue&quot;, sans-serif; font-size: 12px; font-weight: 200;" fill="rgb(50, 49, 63)" stroke="none" stroke-width="1px">30k</text><text x="960.6875" y="0" dx="0em" dy="0.95em" style="text-anchor: middle; visibility: hidden; font-family: &quot;Helvetica Neue&quot;, sans-serif; font-size: 12px; font-weight: 200;" fill="rgb(50, 49, 63)" stroke="none" stroke-width="1px">35k</text></g><line x1="0" y1="0" x2="960.6875" y2="0" fill="rgb(0, 0, 0)" stroke="rgb(204, 204, 204)" stroke-width="1px"></line></g></g></g></g></svg>