<svg viewBox="0 0 1029 400" xmlns="http://www.w3.org/2000/svg"><g><g><g><g><g><line x1="68.3125" y1="355.9508539982903" x2="63.3125" y2="355.9508539982903" style="visibility: inherit;" fill="rgb(0, 0, 0)" stroke="rgb(204, 204, 204)" stroke-width="1px"></line><line x1="68.3125" y1="305.6305542298665" x2="63.3125" y2="305.6305542298665" style="visibility: inherit;" fill="rgb(0, 0, 0)" stroke="rgb(204, 204, 204)" stroke-width="1px"></line><line x1="68.3125" y1="255.3102544614427" x2="63.3125" y2="255.3102544614427" style="visibility: inherit;" fill="rgb(0, 0, 0)" stroke="rgb(204, 204, 204)" stroke-width="1px"></line><line x1="68.3125" y1="204.98995469301883" x2="63.3125" y2="204.98995469301883" style="visibility: inherit;" fill="rgb(0, 0, 0)" stroke="rgb(204, 204, 204)" stroke-width="1px"></line><line x1="68.3125" y1="154.66965492459508" x2="63.3125" y2="154.66965492459508" style="visibility: inherit;" fill="rgb(0, 0, 0)" stroke="rgb(204, 204, 204)" stroke-width="1px"></line><line x1="68.3125" y1="104.34935515617127" x2="63.3125" y2="104.34935515617127" style="visibility: inherit;" fill="rgb(0, 0, 0)" stroke="rgb(204, 204, 204)" stroke-width="1px"></line><line x1="68.3125" y1="54.029055387747405" x2="63.3125" y2="54.029055387747405" style="visibility: inherit;" fill="rgb(0, 0, 0)" stroke="rgb(204, 204, 204)" stroke-width="1px"></line><line x1="68.3125" y1="3.70875561932354" x2="63.3125" y2="3.70875561932354" style="visibility: inherit;" fill="rgb(0, 0, 0)" stroke="rgb(204, 204, 204)" stroke-width="1px"></line></g><g transform="translate(58.3125, 0)"><text x="0" y="355.9508539982903" dx="0em" dy="0.3em" style="text-anchor: end; visibility: inherit; font-family: &quot;Helvetica Neue&quot;, sans-serif; font-size: 12px; font-weight: 200;" fill="rgb(50, 49, 63)" stroke="none" stroke-width="1px">1.6e-3</text><text x="0" y="305.6305542298665" dx="0em" dy="0.3em" style="text-anchor: end; visibility: inherit; font-family: &quot;Helvetica Neue&quot;, sans-serif; font-size: 12px; font-weight: 200;" fill="rgb(50, 49, 63)" stroke="none" stroke-width="1px">1.8e-3</text><text x="0" y="255.3102544614427" dx="0em" dy="0.3em" style="text-anchor: end; visibility: inherit; font-family: &quot;Helvetica Neue&quot;, sans-serif; font-size: 12px; font-weight: 200;" fill="rgb(50, 49, 63)" stroke="none" stroke-width="1px">2e-3</text><text x="0" y="204.98995469301883" dx="0em" dy="0.3em" style="text-anchor: end; visibility: inherit; font-family: &quot;Helvetica Neue&quot;, sans-serif; font-size: 12px; font-weight: 200;" fill="rgb(50, 49, 63)" stroke="none" stroke-width="1px">2.2e-3</text><text x="0" y="154.66965492459508" dx="0em" dy="0.3em" style="text-anchor: end; visibility: inherit; font-family: &quot;Helvetica Neue&quot;, sans-serif; font-size: 12px; font-weight: 200;" fill="rgb(50, 49, 63)" stroke="none" stroke-width="1px">2.4e-3</text><text x="0" y="104.34935515617127" dx="0em" dy="0.3em" style="text-anchor: end; visibility: inherit; font-family: &quot;Helvetica Neue&quot;, sans-serif; font-size: 12px; font-weight: 200;" fill="rgb(50, 49, 63)" stroke="none" stroke-width="1px">2.6e-3</text><text x="0" y="54.029055387747405" dx="0em" dy="0.3em" style="text-anchor: end; visibility: inherit; font-family: &quot;Helvetica Neue&quot;, sans-serif; font-size: 12px; font-weight: 200;" fill="rgb(50, 49, 63)" stroke="none" stroke-width="1px">2.8e-3</text><text x="0" y="3.70875561932354" dx="0em" dy="0.3em" style="text-anchor: end; visibility: hidden; font-family: &quot;Helvetica Neue&quot;, sans-serif; font-size: 12px; font-weight: 200;" fill="rgb(50, 49, 63)" stroke="none" stroke-width="1px">3e-3</text></g><line x1="68.3125" y1="0" x2="68.3125" y2="377.828125" fill="rgb(0, 0, 0)" stroke="rgb(204, 204, 204)" stroke-width="1px"></line></g></g><g transform="translate(68, 0)" clip-path="url(#clip_0)"><clipPath id="clip_0"><rect width="960" height="377"></rect></clipPath><g><g><g><line x1="70.31164827547313" y1="0" x2="70.31164827547313" y2="377.828125" fill="rgb(0, 0, 0)" stroke="rgb(60, 60, 60)" stroke-width="1px" opacity="0.25"></line><line x1="151.0477790262461" y1="0" x2="151.0477790262461" y2="377.828125" fill="rgb(0, 0, 0)" stroke="rgb(60, 60, 60)" stroke-width="1px" opacity="0.25"></line><line x1="231.78390977701903" y1="0" x2="231.78390977701903" y2="377.828125" fill="rgb(0, 0, 0)" stroke="rgb(60, 60, 60)" stroke-width="1px" opacity="0.25"></line><line x1="312.520040527792" y1="0" x2="312.520040527792" y2="377.828125" fill="rgb(0, 0, 0)" stroke="rgb(60, 60, 60)" stroke-width="1px" opacity="0.25"></line><line x1="393.2561712785649" y1="0" x2="393.2561712785649" y2="377.828125" fill="rgb(0, 0, 0)" stroke="rgb(60, 60, 60)" stroke-width="1px" opacity="0.25"></line><line x1="473.9923020293379" y1="0" x2="473.9923020293379" y2="377.828125" fill="rgb(0, 0, 0)" stroke="rgb(60, 60, 60)" stroke-width="1px" opacity="0.25"></line><line x1="554.7284327801109" y1="0" x2="554.7284327801109" y2="377.828125" fill="rgb(0, 0, 0)" stroke="rgb(60, 60, 60)" stroke-width="1px" opacity="0.25"></line><line x1="635.4645635308838" y1="0" x2="635.4645635308838" y2="377.828125" fill="rgb(0, 0, 0)" stroke="rgb(60, 60, 60)" stroke-width="1px" opacity="0.25"></line><line x1="716.2006942816566" y1="0" x2="716.2006942816566" y2="377.828125" fill="rgb(0, 0, 0)" stroke="rgb(60, 60, 60)" stroke-width="1px" opacity="0.25"></line><line x1="796.9368250324296" y1="0" x2="796.9368250324296" y2="377.828125" fill="rgb(0, 0, 0)" stroke="rgb(60, 60, 60)" stroke-width="1px" opacity="0.25"></line><line x1="877.6729557832026" y1="0" x2="877.6729557832026" y2="377.828125" fill="rgb(0, 0, 0)" stroke="rgb(60, 60, 60)" stroke-width="1px" opacity="0.25"></line><line x1="958.4090865339756" y1="0" x2="958.4090865339756" y2="377.828125" fill="rgb(0, 0, 0)" stroke="rgb(60, 60, 60)" stroke-width="1px" opacity="0.25"></line></g><g><line x1="0" y1="355.9508539982903" x2="960.6875" y2="355.9508539982903" fill="rgb(0, 0, 0)" stroke="rgb(60, 60, 60)" stroke-width="1px" opacity="0.25"></line><line x1="0" y1="305.6305542298665" x2="960.6875" y2="305.6305542298665" fill="rgb(0, 0, 0)" stroke="rgb(60, 60, 60)" stroke-width="1px" opacity="0.25"></line><line x1="0" y1="255.3102544614427" x2="960.6875" y2="255.3102544614427" fill="rgb(0, 0, 0)" stroke="rgb(60, 60, 60)" stroke-width="1px" opacity="0.25"></line><line x1="0" y1="204.98995469301883" x2="960.6875" y2="204.98995469301883" fill="rgb(0, 0, 0)" stroke="rgb(60, 60, 60)" stroke-width="1px" opacity="0.25"></line><line x1="0" y1="154.66965492459508" x2="960.6875" y2="154.66965492459508" fill="rgb(0, 0, 0)" stroke="rgb(60, 60, 60)" stroke-width="1px" opacity="0.25"></line><line x1="0" y1="104.34935515617127" x2="960.6875" y2="104.34935515617127" fill="rgb(0, 0, 0)" stroke="rgb(60, 60, 60)" stroke-width="1px" opacity="0.25"></line><line x1="0" y1="54.029055387747405" x2="960.6875" y2="54.029055387747405" fill="rgb(0, 0, 0)" stroke="rgb(60, 60, 60)" stroke-width="1px" opacity="0.25"></line><line x1="0" y1="3.70875561932354" x2="960.6875" y2="3.70875561932354" fill="rgb(0, 0, 0)" stroke="rgb(60, 60, 60)" stroke-width="1px" opacity="0.25"></line></g></g></g><g><g><line x1="0" y1="758.513252145681" x2="960.6875" y2="758.513252145681" fill="rgb(0, 0, 0)" stroke="rgb(153, 153, 153)" stroke-width="1.5px"></line></g></g><g><g><line x1="70.31164827547313" y1="0" x2="70.31164827547313" y2="377.828125" fill="rgb(0, 0, 0)" stroke="rgb(153, 153, 153)" stroke-width="1.5px"></line></g></g><g><g><g><g><g><path stroke="rgb(255, 112, 67)" stroke-width="2px" d="M70.35201634084852,206.4801880219204L71.96673895586397,95.9996619302105L73.58146157087944,84.4392139486722L75.1961841858949,51.965655512384444L76.81090680091036,86.3112599274632L78.42562941592581,66.7798966302874L80.04035203094128,29.860062421307873L81.65507464595673,-2.598048381835042L83.2697972609722,45.4956052747001L84.88451987598766,98.96060115604189L86.49924249100312,118.78633670549533L88.11396510601857,123.59172377821145L89.72868772103402,118.37487584922172L91.34341033604949,111.31151595045168L92.95813295106494,86.44173069457776L94.5728555660804,123.23417523224802L96.18757818109586,104.15680438640067L97.80230079611133,95.89788830273915L99.41702341112678,90.38829409264008L101.03174602614224,74.58306830503483L102.6464686411577,73.02147262823456L104.26119125617316,102.79902519678626L105.87591387118863,87.7080323699546L107.49063648620408,109.8699516464352L109.10535910121955,137.76669664028262L110.720081716235,161.32727353461527L112.33480433125047,160.50769015974066L113.9495269462659,171.88834183953992L115.56424956128137,140.3261469774353L117.17897217629682,162.57748047015588L118.79369479131229,170.12737453095963L120.40841740632774,139.04792025243347L122.0231400213432,144.0921178565035L123.63786263635868,160.89428278993958L125.25258525137413,184.86071104899912L126.86730786638958,187.76630122440164L128.48203048140505,178.3778687078763L130.0967530964205,177.62350180127237L131.71147571143595,151.28934220257585L133.32619832645142,160.48518854839526L134.94092094146689,132.33225182326996L136.55564355648235,141.79808387059416L138.1703661714978,169.4693980267117L139.78508878651326,188.96212921205748L141.39981140152872,181.52817738280547L143.0145340165442,181.10772784862021L144.62925663155963,195.2641264517276L146.24397924657512,203.88772019755544L147.85870186159056,215.54133186236447L149.47342447660603,183.8178177998527L151.08814709162147,182.77609488981926L152.70286970663693,195.8165713589721L154.3175923216524,216.3887278400451L155.93231493666784,205.01888294942694L157.5470375516833,186.56811908861914L159.16176016669877,186.79154212389656L160.77648278171424,171.03263262241703L162.39120539672967,189.17185103939457L164.00592801174514,201.8266508891168L165.6206506267606,213.197913107013L167.23537324177607,220.37059044151638L168.8500958567915,240.806564053838L170.464818471807,250.4397565003996L172.07954108682245,264.96074982731534L173.6942637018379,244.47178988086475L175.30898631685335,212.50976421793555L176.92370893186882,217.56104958861542L178.53843154688428,226.61084962646012L180.15315416189972,222.72100359544353L181.7678767769152,223.5725915096334L183.38259939193065,223.5528988054609L184.99732200694612,238.62908848038668L186.61204462196156,250.46045980941244L188.22676723697705,246.01327486154972L189.8414898519925,259.1532154067751L191.45621246700796,265.4313411056838L193.0709350820234,260.2994159608355L194.6856576970389,249.17185920178088L196.30038031205433,239.37437523199384L197.9151029270698,246.4892595823507L199.52982554208523,254.30839003323047L201.1445481571007,270.7664904229872L202.75927077211617,275.06370178930086L204.3739933871316,257.15922302092974L205.98871600214707,239.1881169591037L207.60343861716254,229.40716827747556L209.218161232178,235.7961730835163L210.83288384719344,224.26146079264848L212.44760646220894,227.48889002235592L214.06232907722438,214.90103380371502L215.67705169223984,222.94650739321423L217.29177430725528,217.8206119091009L218.90649692227078,217.08096388572073L220.5212195372862,198.74489667216451L222.13594215230168,211.58987665790016L223.75066476731712,206.9200398497177L225.36538738233259,216.51829202882573L226.98010999734805,235.5718791487735L228.5948326123635,243.47373322173058L230.20955522737898,225.77197068243387L231.82427784239442,231.09572432753842L233.4390004574099,247.10386464591474L235.05372307242533,214.37987031233138L236.66844568744082,224.6396165626123L238.28316830245626,229.20350237566365L239.89789091747173,186.9033343826533L241.5126135324872,201.59470774485695L243.12733614750263,198.67296644906244L244.7420587625181,176.49701874220335L246.3567813775336,192.23336514589994L247.971503992549,175.10643989987872L249.58622660756447,175.88663018339324L251.20094922257996,196.37660652748403L252.81567183759537,203.17395875411833L254.43039445261087,210.88832513164712L256.0451170676263,232.0930288678247L257.65983968264175,251.81440162187027L259.27456229765727,242.40968516389185L260.8892849126727,234.93105728407392L262.50400752768815,228.28105495628952L264.1187301427036,226.09770767512094L265.7334527577191,235.6993207397897L267.34817537273454,250.8035247946559L268.96289798775,256.00363161880125L270.5776206027654,267.35012424135243L272.1923432177809,280.04785698410683L273.80706583279635,290.88839596465994L275.4217884478118,305.6993197373081L277.0365110628273,283.9965174451771L278.6512336778427,292.57954169150617L280.2659562928582,259.5087713471492L281.8806789078737,270.7215107396057L283.4954015228891,277.0604194695935L285.11012413790456,275.83356172878956L286.72484675292003,274.3962543234785L288.3395693679355,271.5622480433301L289.95429198295096,263.36547540936857L291.5690145979664,261.93545120414285L293.1837372129819,258.8792064516337L294.79845982799736,276.0010596015969L296.4131824430128,282.1497248853427L298.02790505802824,291.9729135674924L299.6426276730437,274.4334491320485L301.2573502880592,244.35509281461495L302.87207290307464,250.5146611129597L304.48679551809005,269.01522119349966L306.1015181331055,270.4371335888753L307.71624074812104,243.11526717526993L309.33096336313645,258.68804454800755L310.9456859781519,255.34244591734347L312.5604085931674,261.223865153323L314.17513120818285,264.7538727965923L315.7898538231983,285.6977948993738L317.4045764382138,291.339738662095L319.0192990532292,269.1416675277665L320.6340216682447,269.7323708968829L322.2487442832601,278.79092166199257L323.8634668982756,275.12395754367196L325.47818951329106,263.12088131588115L327.09291212830647,272.15273935570946L328.707634743322,250.40714062108194L330.32235735833746,252.23807422583542L331.93707997335287,255.04541959410324L333.5518025883683,252.0773571459863L335.1665252033838,271.2509731001561L336.7812478183992,274.45165101952966L338.3959704334147,270.8657486438333L340.01069304843014,281.57107924472336L341.6254156634456,290.6105631291466L343.2401382784611,277.84376585160305L344.85486089347654,283.0262105696483L346.46958350849195,248.53814802612155L348.0843061235075,259.4642030873097L349.69902873852294,253.8842606696755L351.31375135353835,250.38578050285048L352.9284739685538,265.6207554767899L354.5431965835692,261.24110200065525L356.15791919858475,229.13247991427735L357.7726418136002,220.83962633903627L359.3873644286156,206.84965395620927L361.0020870436311,198.62606396085894L362.6168096586466,213.8710854112995L364.231532273662,193.8196745187513L365.8462548886775,208.95453605674035L367.46097750369296,233.9342940918211L369.0757001187084,220.2211655700813L370.6904227337239,227.74692186572813L372.3051453487393,249.33985004183597L373.91986796375477,231.30412530668517L375.53459057877023,239.05279963299586L377.1493131937857,257.2074250383081L378.76403580880117,266.09086462118904L380.37875842381663,254.0997879444973L381.99348103883204,270.46587799343223L383.60820365384757,284.90573466447245L385.22292626886303,253.7299640457707L386.83764888387844,267.1591656654265L388.4523714988939,255.20794786820656L390.0670941139094,276.57404732565874L391.68181672892484,283.4622751809978L393.2965393439403,290.9730111386338L394.9112619589557,290.5742034489199L396.52598457397124,281.59685921343805L398.1407071889867,297.2281428279523L399.7554298040021,302.8845700571244L401.3701524190176,265.5204603073959L402.98487503403305,253.80364668453967L404.5995976490485,263.9123277347229L406.214320264064,278.90285715864184L407.8290428790794,288.247503235614L409.44376549409486,281.3811719519954L411.0584881091104,264.91647659855624L412.6732107241258,260.97815362431214L414.28793333914126,253.0358131899641L415.9026559541567,259.53455428220326L417.5173785691722,276.0295574169786L419.13210118418766,285.7620139623099L420.7468237992031,291.10484705070473L422.36154641421854,294.55045315071374L423.97626902923406,302.2429809625787L425.59099164424947,302.06357192437173L427.20571425926494,291.5393463547947L428.8204368742804,268.7597935349563L430.4351594892958,280.9119554645072L432.04988210431134,276.0343174595831L433.6646047193268,290.1113236137423L435.2793273343422,302.66338891783505L436.8940499493577,278.2849576319536L438.50877256437315,275.64329932112247L440.1234951793886,295.04679636300995L441.7382177944041,282.6894510370786L443.3529404094195,273.8232459546381L444.967663024435,286.62358786254174L446.5823856394505,295.0041452557325L448.1971082544659,298.77278211067085L449.81183086948135,303.76041090368045L451.4265534844968,290.9151771750437L453.0412760995123,299.41800575646886L454.65599871452775,307.3305348991815L456.27072132954316,305.235839045475L457.88544394455863,313.74233509908845L459.50016655957415,314.00726069996995L461.11488917458956,321.17919076789696L462.72961178960503,316.03671174597866L464.3443344046205,316.49192552815623L465.95905701963596,300.7433341270906L467.57377963465143,302.0437398119958L469.1885022496669,315.12256684955065L470.8032248646823,319.96553673171263L472.41794747969783,329.6788960592114L474.03267009471324,340.4401246192792L475.6473927097287,345.79983680095756L477.2621153247442,349.30283327397626L478.8768379397596,339.30536632160374L480.4915605547751,344.5245657691218L482.1062831697906,342.8805779582059L483.72100578480604,319.2381700456048L485.3357283998214,316.27758656632545L486.9504510148369,281.8630702718801L488.5651736298524,283.22508266336683L490.17989624486785,263.158059842569L491.7946188598833,278.6569700644776L493.40934147489884,252.633457929747L495.0240640899142,263.27905341759504L496.63878670492966,265.6322301102372L498.2535093199451,275.78072701873305L499.8682319349606,269.7880983974862L501.4829545499761,261.8076449973815L503.09767716499147,267.8357503282735L504.71239978000693,267.6232313954629L506.3271223950224,265.38930833066456L507.9418450100379,269.05005531525705L509.5565676250534,279.616108200318L511.17129024006886,288.3003158059262L512.7860128550842,291.53064349412205L514.4007354700997,285.82139636624555L516.0154580851151,265.6817682924094L517.6301807001307,282.7232444385085L519.2449033151462,288.49614823059926L520.8596259301615,291.6867340514842L522.474348545177,266.79656598347947L524.0890711601925,271.29030236689425L525.7037937752079,278.78952510435386L527.3185163902234,282.514524217434L528.9332390052389,268.83708311983764L530.5479616202542,286.2719522748765L532.1626842352698,305.445519746223L533.7774068502853,309.4128747579486L535.3921294653007,298.3771309151401L537.0068520803162,294.3125150317822L538.6215746953316,292.8949025436806L540.236297310347,294.08923805838094L541.8510199253625,303.88746418926894L543.465742540378,296.5795820344157L545.0804651553935,308.41301379396646L546.695187770409,308.5207283507966L548.3099103854244,317.0436789376417L549.9246330004398,300.42929796324836L551.5393556154553,315.8182455010874L553.1540782304708,308.52644094994525L554.7688008454862,322.2483662332002L556.3835234605016,299.8456484499005L557.998246075517,309.4431475074122L559.6129686905326,308.81270177928656L561.2276913055481,298.41127026311955L562.8424139205636,292.4701402099238L564.457136535579,299.49460433027207L566.0718591505944,278.73256583471476L567.6865817656098,268.33697816817863L569.3013043806253,273.53875833316164L570.9160269956408,289.1225544877845L572.5307496106562,273.40778008239386L574.1454722256717,286.0118987719999L575.7601948406872,282.33940725465123L577.3749174557026,281.41540372350505L578.9896400707181,295.66820688569305L580.6043626857336,256.7876587122672L582.219085300749,270.7201516585953L583.8338079157644,247.82880722684126L585.4485305307799,266.8206106260514L587.0632531457954,274.46772657735903L588.6779757608109,260.91086405627334L590.2926983758264,255.33464224954338L591.9074209908417,251.53751253208355L593.5221436058572,265.15341375643504L595.1368662208727,269.75495187503736L596.7515888358881,263.9149336159482L598.3663114509036,268.9368037068333L599.9810340659191,275.46565192795407L601.5957566809345,279.2959995690749L603.21047929595,295.5773871995316L604.8252019109655,299.5541243338438L606.4399245259809,282.0547045485815L608.0546471409964,290.70213851990536L609.6693697560117,269.7924674387211L611.2840923710272,261.70320013497764L612.8988149860427,272.4988389236895L614.5135376010583,287.351304216765L616.1282602160737,299.43924935640746L617.7429828310891,295.9971824386688L619.3577054461045,303.8543045906985L620.97242806112,316.10894760958575L622.5871506761355,308.621998619274L624.201873291151,311.9061031296843L625.8165959061664,307.01313379568353L627.4313185211819,317.2635522969773L629.0460411361973,296.12058236922263L630.6607637512128,264.9076254448942L632.2754863662283,278.6048819236797L633.8902089812437,275.53274145072885L635.5049315962591,261.28111764913655L637.1196542112746,278.90224576123705L638.73437682629,268.8187504375812L640.3490994413055,285.0985898886518L641.9638220563211,289.04881603787817L643.5785446713365,287.1073657021378L645.1932672863519,283.6862927210413L646.8079899013674,296.7490250967704L648.4227125163828,290.18401341995724L650.0374351313983,279.2367805478458L651.6521577464138,284.1948023246621L653.2668803614291,282.60177726575876L654.8816029764446,271.4784477184786L656.4963255914602,259.07430776638637L658.1110482064756,279.6721258602313L659.7257708214911,294.70894408033087L661.3404934365066,299.1498878955805L662.9552160515219,316.4654813099245L664.5699386665374,325.1960577410336L666.1846612815528,319.56645687340676L667.7993838965683,316.5168172106986L669.4141065115838,308.38473516759746L671.0288291265992,322.6810768227783L672.6435517416147,326.44377855678573L674.2582743566302,301.5436001389863L675.8729969716456,297.822989951469L677.4877195866611,311.9839842460283L679.1024422016766,311.59094329142783L680.7171648166919,318.8676852222056L682.3318874317074,299.9080848263625L683.946610046723,315.66595578947783L685.5613326617384,327.06672072400664L687.1760552767539,306.4826565596025L688.7907778917693,285.1219713839802L690.4055005067847,295.3036675923367L692.0202231218002,303.9888256988025L693.6349457368157,298.5442175313008L695.2496683518311,311.32662191594784L696.8643909668466,322.9747303254504L698.4791135818621,321.72907147332563L700.0938361968775,331.5214209236336L701.708558811893,340.2501980440103L703.3232814269085,328.5806717830086L704.9380040419239,329.45792871331986L706.5527266569393,315.3127701510558L708.1674492719548,306.83054234383695L709.7821718869702,293.5949012227603L711.3968945019858,305.5665185216834L713.0116171170013,317.79860631502464L714.6263397320167,332.89579809666253L716.2410623470321,296.62935691881944L717.8557849620476,299.6221382371551L719.470507577063,275.8175847910646L721.0852301920785,257.3589677777938L722.699952807094,244.30058799307244L724.3146754221094,249.8583256551623L725.9293980371249,259.76220004945867L727.5441206521404,269.3368825141209L729.1588432671558,280.25648723154666L730.7735658821713,291.3826480799342L732.3882884971867,290.4131276191159L734.0030111122021,297.15345490453103L735.6177337272176,262.49850171904086L737.232456342233,280.75387035697383L738.8471789572486,293.3917132960786L740.4619015722641,298.0498510456755L742.0766241872794,305.3417472806215L743.6913468022949,314.4230637244454L745.3060694173104,313.6447600420699L746.9207920323258,326.83996994861553L748.5355146473413,317.8902967042922L750.1502372623568,291.3135085509578L751.7649598773721,292.2232352881544L753.3796824923877,281.93886364128025L754.9944051074032,299.51439759570803L756.6091277224186,309.7156259836201L758.2238503374341,308.8120778262793L759.8385729524495,297.96300313170286L761.4532955674649,308.3666218641013L763.0680181824804,298.6036823105358L764.6827407974959,291.7370537550524L766.2974634125114,301.02104198229387L767.9121860275269,317.6218683312912L769.4865405771668,320.75730982535686L771.1012631921823,321.0887654437037L772.7159858071977,313.3260989691558L774.3307084222132,324.1335086859574L775.9454310372288,336.61193554612214L777.5601536522443,343.1554305535013L779.1748762672596,342.83923344767237L780.7895988822751,332.2536641154497L782.4043214972905,311.6273985669037L784.019044112306,313.3912502817833L785.6337667273215,314.3068017679846L787.2484893423368,308.84438994538345L788.8632119573524,320.3400616877425L790.4779345723679,332.245805773852L792.0926571873833,345.3985492592173L793.7073798023988,333.44564603148274L795.3221024174143,306.93443839631374L796.9368250324296,295.1973334910291L798.5515476474451,281.4359129729894L800.1662702624606,298.2791226087981L801.780992877476,310.66206502609145L803.3957154924916,306.2748576910302L805.010438107507,302.5743060342035L806.6251607225224,280.84238152360354L808.2398833375379,284.76012570660686L809.8546059525534,274.67294807047995L811.4693285675688,262.68506722295587L813.0840511825843,275.35142278164244L814.6987737975996,251.90891573336035L816.3134964126152,255.8794439232051L817.8878509622552,263.8385464130498L819.5025735772707,246.03521570149056L821.1172961922862,248.90041532344216L822.7320188073016,268.7327554309498L824.3467414223171,270.98512503441526L825.9614640373326,275.2995028540668L827.576186652348,283.599905374471L829.1101731366127,289.37309297458313L830.7248957516282,265.65288485364135L832.3396183666437,287.488306569757L833.9543409816591,303.13661412953695L835.5286955312991,264.2622508011804L837.1434181463146,275.3199503645212L838.7581407613301,288.21172058604384L840.2921272455948,291.3960832892558L841.8664817952348,275.7674339366789L843.4812044102503,271.44067130230013L845.0959270252657,281.4330121005382L846.7106496402813,297.80778054601717L848.2850041899213,298.7993492233788L849.8997268049367,276.4932467119412L851.4740813545768,289.320532499469L853.0888039695923,308.72984867381444L854.7035265846077,320.9781868772113L856.3182491996232,331.30657150076837L857.9329718146387,312.7046431059612L859.5073263642788,280.0917208907885L861.1220489792942,289.91554489713184L862.7367715943096,292.1477386736726L864.3514942093251,263.43932049235383L865.9662168243406,265.2199255710259L867.580939439356,281.2888762063674L869.1552939889962,294.5168453128078L870.7296485386362,289.4583536077571L872.2636350229009,293.2049062838079L873.837989572541,281.0076260881998L875.4527121875564,301.87025384853246L876.986698671821,313.18594459229274L878.5610532214611,306.4111778034511L880.0950397057258,278.5619237645727L881.6693942553659,287.1540067221315L883.2841168703814,257.5463318187863L884.8988394853968,274.04651143595026L886.4328259696615,266.7286877786961L888.0071805193015,280.4825885415615L889.621903134317,285.97217310339715L891.2366257493326,283.68608132864756L892.8109802989726,285.5876591677209L894.1431264563603,279.0245071443438L895.6367448752496,295.01513946810576L897.2110994248898,303.1045515899529L898.7450859091545,316.4888932385365L900.2387043280437,297.57303076813207L901.7323227469329,292.3979626689867L903.2259411658223,308.3161808531553L904.6791915193362,328.98296142205663L906.1728099382256,318.6728575590918L907.6260602917393,328.25610727711125L909.160046776004,335.8758339131979L910.6536651948934,347.5757382759034L912.1876516791581,356.37498189937355L916.5474027396998,368.53112750024155L918.0006530932137,380.2755743914029L919.5346395774784,367.60518946108414L921.0686260617431,355.1926678780501L922.6429806113832,355.0393380771066L924.1769670956479,362.8906214522835L927.0430997373003,335.9855221210153L928.577086221565,348.4865732238236L931.4432188632175,353.63577831746323L932.8561011513559,349.8243429759905" style="fill: none;" fill="none"></path></g></g></g></g><g opacity="0.20000000298023224"><g><g><g><path stroke="rgb(255, 112, 67)" stroke-width="2px" d="M70.35201634084852,206.4801880219204L71.96673895586397,-3.764253130603663L73.58146157087944,64.57363609316536L75.1961841858949,-27.747945891869165L76.81090680091036,193.45632828713948L78.42562941592581,-5.877018847281192L81.65507464595673,-156.83057346517614L83.2697972609722,295.2854731583007L84.88451987598766,397.9914515360118L86.49924249100312,236.81881480627163L88.11396510601857,153.76479123940965L89.72868772103402,84.0848218689905L91.34341033604949,63.0096528650875L92.95813295106494,-89.58778883597182L96.18757818109586,-38.73103539230499L97.80230079611133,32.58180791996159L99.41702341112678,47.27158102054068L101.03174602614224,-51.37910096991607L102.6464686411577,60.37317713046804L104.26119125617316,347.47926882227057L105.87591387118863,-37.89268929982529L107.49063648620408,296.44167725495856L109.10535910121955,375.02770453787696L110.720081716235,363.54744200362984L112.33480433125047,153.41547548583156L113.9495269462659,271.09411238656486L115.56424956128137,-136.61636264177594L117.17897217629682,358.9760803587625L118.79369479131229,237.1192158098518L120.40841740632774,-138.0413928315363L122.0231400213432,189.2563965492924L123.63786263635868,311.91549228843877L125.25258525137413,401.0221742975608L126.86730786638958,214.05453454315835L128.48203048140505,93.19790340603191L130.0967530964205,170.7619346069574L131.71147571143595,-88.7861141608559L133.32619832645142,244.4911079885833L134.94092094146689,-125.32590105362857L136.55564355648235,228.5745412419481L138.1703661714978,423.5226078133798L139.78508878651326,368.16927078277655L141.39981140152872,113.10040718184058L143.0145340165442,177.23332674141542L144.62925663155963,325.8435426414451L146.24397924657512,283.5035208486172L147.85870186159056,323.21822649948973L149.47342447660603,-109.51454495489315L151.08814709162147,173.1374340406897L152.70286970663693,316.5467525343515L154.3175923216524,406.9501440627304L155.93231493666784,99.64820654647889L157.5470375516833,15.499957093136004L159.16176016669877,188.86384835799154L160.77648278171424,24.812681106815717L162.39120539672967,357.5316893008892L164.00592801174514,319.3167040268995L165.6206506267606,318.7989399336579L167.23537324177607,286.99653193305096L168.8500958567915,430.6737978117314L170.464818471807,339.9573811736352L172.07954108682245,399.92232467934366L173.6942637018379,54.01261937564601L175.30898631685335,-84.64165819336574L176.92370893186882,264.5289328092964L178.53843154688428,310.7674601769601L180.15315416189972,186.5444690805443L181.7678767769152,231.49331659362164L183.38259939193065,223.3697189394727L184.99732200694612,378.87729536271485L186.61204462196156,360.5309543130383L188.22676723697705,204.63730284804592L189.8414898519925,381.41225102338655L191.45621246700796,323.8484066469183L193.0709350820234,212.54538269950933L194.6856576970389,145.6224478128064L196.30038031205433,148.19876133395542L197.9151029270698,312.7027854412499L199.52982554208523,327.07809820890805L201.1445481571007,423.940082023991L202.75927077211617,315.05833820148007L204.3739933871316,90.5164378175221L205.98871600214707,71.92180315363441L207.60343861716254,138.3691812253873L209.218161232178,295.2640033907866L210.83288384719344,116.89660184545312L212.44760646220894,257.5301400829444L214.06232907722438,97.73051402440393L215.67705169223984,297.83636272555856L217.29177430725528,170.10665269860175L218.90649692227078,210.1959516055963L220.5212195372862,28.062260761768698L222.13594215230168,331.15919932355655L223.75066476731712,163.4499117390018L225.36538738233259,305.86611435635814L226.98010999734805,412.93810029975367L228.5948326123635,317.0309499787922L230.20955522737898,60.988097047508006L231.82427784239442,280.65419272583296L233.4390004574099,396.1231131179767L235.05372307242533,-90.24769860690213L236.66844568744082,320.14784471309207L238.28316830245626,271.6889391787554L239.89789091747173,-206.87194438761992L241.5126135324872,338.3580445903193L243.12733614750263,171.474156799143L244.7420587625181,-29.94166991333367L246.3567813775336,338.7252274082679L247.971503992549,15.669254850613925L249.58622660756447,183.14955110853157L251.20094922257996,387.1214224756911L252.81567183759537,266.45178041879626L254.43039445261087,282.7028713329323L256.0451170676263,429.49193543902663L257.65983968264175,435.40482071542436L259.27456229765727,154.85913428696836L260.8892849126727,165.3108397188636L262.50400752768815,166.37466230564516L264.1187301427036,205.77241795069273L265.7334527577191,325.08302079492023L267.34817537273454,391.41221262940263L268.96289798775,304.4127018954912L270.5776206027654,372.97744425622676L272.1923432177809,398.2542438336055L275.4217884478118,443.57800679576883L277.0365110628273,81.95951991698416L278.6512336778427,372.48114993049916L280.2659562928582,-48.355700775731975L281.8806789078737,375.1038592384726L283.4954015228891,336.07100177035574L285.11012413790456,264.41241611738513L286.72484675292003,261.0159750513605L288.3395693679355,245.17972222358424L289.95429198295096,187.05950917872622L291.5690145979664,248.62296914020573L293.1837372129819,230.42779517121141L294.79845982799736,435.39304602710155L296.4131824430128,339.38932568773095L298.02790505802824,383.41965964081703L299.6426276730437,111.15377587353925L301.2573502880592,-35.65256949153638L302.87207290307464,307.85577307049596L304.48679551809005,441.2420199355379L306.1015181331055,283.6741073779513L307.71624074812104,-11.231514426696378L309.33096336313645,403.65932370837794L310.9456859781519,224.19734479333007L312.5604085931674,315.975621570154L314.17513120818285,297.61568983544805L315.7898538231983,480.6705596537878L317.4045764382138,343.8621548661354L319.0192990532292,62.49367547828291L320.6340216682447,275.23139223803736L322.2487442832601,363.1194818765521L323.8634668982756,240.98717163364103L325.47818951329106,151.38091478861185L327.09291212830647,356.2328123016924L328.707634743322,47.971325557936325L330.32235735833746,269.2827435426292L331.93707997335287,281.1797773210204L333.5518025883683,224.446839308589L335.1665252033838,449.7434913559883L336.7812478183992,304.247651227085L338.3959704334147,237.48358676193226L340.01069304843014,381.22997767653794L341.6254156634456,374.7616317301038L343.2401382784611,158.9941002071535L344.85486089347654,331.2710295723542L346.46958350849195,-72.52081746603176L348.0843061235075,361.1778884945979L349.69902873852294,201.93902464486612L351.31375135353835,217.81745546066458L352.9284739685538,407.4473756770807L354.5431965835692,220.46968936025348L356.15791919858475,-69.77561625117733L357.7726418136002,143.63914508714143L359.3873644286156,76.61310845193987L361.0020870436311,122.07037646230117L362.6168096586466,355.79123219931574L364.231532273662,7.155510807259816L365.8462548886775,349.849173814536L367.46097750369296,466.4778131356728L369.0757001187084,92.56183591444193L370.6904227337239,297.8062816188233L372.3051453487393,450.35442779638174L373.91986796375477,63.40454427794515L375.53459057877023,311.1873654799365L377.1493131937857,426.21388564215874L378.76403580880117,348.78927612386207L380.37875842381663,142.47151778539418L381.99348103883204,422.8223653414033L386.83764888387844,392.1753413099094L388.4523714988939,143.95073497365524L390.0670941139094,475.47701410505437L391.68181672892484,347.5867055306492L393.2965393439403,360.8925426895201L394.9112619589557,286.8615916616494L396.52598457397124,198.02426297048007L398.1407071889867,442.74411282424705L399.7554298040021,355.54182555486517L401.3701524190176,-82.31243738538001L402.98487503403305,144.7285673694309L404.5995976490485,358.01685332422204L406.214320264064,418.4538681028148L407.8290428790794,375.2394146055327L409.44376549409486,217.4605828175658L411.0584881091104,111.64204466543492L412.6732107241258,224.31520883763648L414.28793333914126,179.09835535900157L415.9026559541567,320.03314401788737L417.5173785691722,429.5861329456095L419.13210118418766,376.36416095279077L420.7468237992031,340.8427674388674L422.36154641421854,326.6265594149151L423.97626902923406,373.8548635681659L425.59099164424947,300.393403249403L427.20571425926494,193.56640111976958L428.8204368742804,56.698595665652704L430.4351594892958,394.0398134123758L432.04988210431134,230.62702758407727L433.6646047193268,421.15809223069493L435.2793273343422,419.5140586961834L436.8940499493577,51.33935506258496L438.50877256437315,251.0513668005825L440.1234951793886,475.679351286483L441.7382177944041,167.65148373193867L443.3529404094195,191.2852749342369L444.967663024435,405.7855336587375L446.5823856394505,373.02108675772195L448.1971082544659,333.8560715938023L449.81183086948135,350.1916356450605L451.4265534844968,171.3353209219033L453.0412760995123,378.5732037851828L454.65599871452775,380.9904711431648L456.27072132954316,285.73573228415194L457.88544394455863,392.9316746479015L459.50016655957415,316.4735268607019L461.11488917458956,387.94468407939894L462.72961178960503,268.1639431200715L464.3443344046205,320.72963733537296L465.95905701963596,154.13531314807668L467.57377963465143,314.1495783012189L469.1885022496669,436.8770082390151L470.8032248646823,365.0500914074588L472.41794747969783,420.1032617566376L477.2621153247442,381.91320250195827L478.8768379397596,246.2361636624619L480.4915605547751,393.11154619265443L482.1062831697906,327.57623782161164L483.72100578480604,99.1444139117695L485.3357283998214,288.71669087788865L486.9504510148369,-38.511241210278286L488.5651736298524,295.90443513252615L490.17989624486785,76.34855873817855L491.7946188598833,422.94063944948215L493.40934147489884,10.373339810118352L495.0240640899142,362.3818650207448L496.63878670492966,287.53860694994427L498.2535093199451,370.2559095790959L499.8682319349606,214.00105051112467L501.4829545499761,187.51538293259924L503.09767716499147,323.9530607796983L504.71239978000693,265.6448334951776L506.3271223950224,244.5930967068425L507.9418450100379,303.12896796560517L509.5565676250534,377.97843557353116L511.17129024006886,369.1440216601307L512.7860128550842,321.6026631068931L514.4007354700997,232.67242568099712L516.0154580851151,78.19636467732226L517.6301807001307,441.3670893861314L519.2449033151462,342.2377165218925L520.8596259301615,321.38878555929733L522.474348545177,35.08706324740103L524.0890711601925,313.12374519392677L525.7037937752079,348.601876979858L527.3185163902234,317.19157781651L528.9332390052389,141.5099768195664L530.5479616202542,448.5780022439116L532.1626842352698,483.9375963093388L533.7774068502853,346.3460868774081L535.3921294653007,195.64231967746662L537.0068520803162,256.47387438568353L538.6215746953316,279.6979532987774L540.236297310347,305.20763980863137L541.8510199253625,395.10187858298974L543.465742540378,228.54847290212888L545.0804651553935,418.5737238854445L546.695187770409,309.52347314273106L548.3099103854244,396.38619831826503L549.9246330004398,145.7614008511239L551.5393556154553,459.0782416523018L553.1540782304708,240.64500270581112L554.7688008454862,449.9895881999899L556.3835234605016,91.29251279713009L557.998246075517,398.788937702595L559.6129686905326,302.9437070112716L561.2276913055481,201.58144903530035L562.8424139205636,237.16250682811346L564.457136535579,364.887296089801L566.0718591505944,85.45297035545985L567.6865817656098,171.56155896321113L569.3013043806253,321.96357780717733L570.9160269956408,434.1964506488585L572.5307496106562,127.11457092705882L574.1454722256717,403.3471480164749L575.7601948406872,248.15116147974655L577.3749174557026,272.81359765520506L578.9896400707181,428.35151879760764L582.219085300749,400.42160661255616L583.8338079157644,34.726910094122786L585.4485305307799,443.62059484756344L587.0632531457954,345.6568575467485L588.6779757608109,134.70625728781698L590.2926983758264,203.42404130648023L591.9074209908417,216.18897505923613L593.5221436058572,391.90762824704643L595.1368662208727,312.5919510616138L596.7515888358881,209.54857806999482L598.3663114509036,315.68679022301046L599.9810340659191,336.24451732663584L601.5957566809345,314.95377193950844L603.21047929595,447.1453565840917L604.8252019109655,336.5746772439872L606.4399245259809,119.14773479505897L608.0546471409964,371.20350837666075L609.6693697560117,75.13851912625341L611.2840923710272,186.39795915270616L612.8988149860427,372.9984453794295L614.5135376010583,425.61703782137545L616.1282602160737,411.96929534709983L617.7429828310891,263.9540234003386L619.3577054461045,376.99844173794366L620.97242806112,430.190830558608L622.5871506761355,238.92390647235067L624.201873291151,342.4787461492775L625.8165959061664,261.4631203049345L627.4313185211819,412.68755133479414L629.0460411361973,99.29479015517637L630.6607637512128,-25.662478706328272L632.2754863662283,406.1164551230948L633.8902089812437,246.93333065614513L635.5049315962591,128.6087847332833L637.1196542112746,442.9422322068735L638.73437682629,174.94868572354756L640.3490994413055,436.65214684037187L641.9638220563211,325.82257080851184L643.5785446713365,269.0338641230289L645.1932672863519,251.8385720825853L646.8079899013674,418.3536368007232L648.4227125163828,229.06849234611894L650.0374351313983,177.32594257344746L651.6521577464138,330.3504071129619L653.2668803614291,267.771863573082L654.8816029764446,167.9282767783342L656.4963255914602,143.6007162536101L658.1110482064756,471.4229479091173L659.7257708214911,434.6908703973407L661.3404934365066,340.4918700107384L662.9552160515219,477.6611602084055L664.5699386665374,406.47142389867867L666.1846612815528,267.1589353943653L667.7993838965683,288.1268727217758L669.4141065115838,232.6809198591405L671.0288291265992,455.76970068492614L672.6435517416147,361.47181634862744L674.2582743566302,69.7409082701933L675.8729969716456,263.18679408210744L677.4877195866611,443.8126218541422L679.1024422016766,307.9320156418999L680.7171648166919,386.60890134068273L682.3318874317074,123.40788732691547L683.946610046723,462.36036279662466L685.5613326617384,433.1996149083316L687.1760552767539,114.8598736682934L688.7907778917693,86.26940732638354L690.4055005067847,390.08791167631466L692.0202231218002,384.8413800301284L693.6349457368157,247.8588445905373L695.2496683518311,430.32158232147674L696.8643909668466,431.4102137664908L698.4791135818621,310.1328864891126L700.0938361968775,422.681127662068L701.708558811893,421.50881391720714L703.3232814269085,219.94580360069472L704.9380040419239,337.6245576625059L706.5527266569393,183.63155178276278L708.1674492719548,227.86712265395397L709.7821718869702,170.38063387912914L711.3968945019858,417.01363626320483L716.2410623470321,-40.98503878831781L717.8557849620476,327.4827725717653L719.470507577063,54.21437075168541L721.0852301920785,85.52256403569646L722.699952807094,122.73649577035692L724.3146754221094,301.5968525506996L725.9293980371249,351.96012353450703L727.5441206521404,358.4702666954604L729.1588432671558,381.910127023665L730.7735658821713,394.95917639018137L732.3882884971867,281.387591782838L734.0030111122021,359.9010377780349L735.6177337272176,-60.11410370876979L738.8471789572486,411.0409109663006L740.4619015722641,341.4137519517176L742.0766241872794,373.2240390348092L743.6913468022949,398.96356628911457L745.3060694173104,306.39931442160514L746.9207920323258,449.67785186212876L748.5355146473413,234.57529732672538L750.1502372623568,43.90278996888611L751.7649598773721,300.69213470762395L753.3796824923877,186.19878532037924L754.9944051074032,463.1299353364126L756.6091277224186,404.6817005638738L758.2238503374341,300.40069652649845L759.8385729524495,196.96594695435698L761.4532955674649,405.2168044966357L763.0680181824804,207.71776048713778L764.6827407974959,227.81369720245922L766.2974634125114,387.44827259259347L767.9121860275269,472.1635816626789L769.4865405771668,349.94600744537024L771.1012631921823,324.1743780557369L772.7159858071977,241.06127601537443L774.3307084222132,424.74269398772964L777.5601536522443,404.0706469624025L779.1748762672596,339.8956665758833L780.7895988822751,233.70965270310916L782.4043214972905,119.61175124384181L784.019044112306,329.8114368646313L785.6337667273215,322.8299253972606L787.2484893423368,257.9932778236435L788.8632119573524,427.3564697635178L792.0926571873833,467.84109943741186L793.7073798023988,222.1727427877267L795.3221024174143,60.1342271122146L796.9368250324296,185.9333568985341L798.5515476474451,153.32701887206284L800.1662702624606,455.07724942462596L801.780992877476,425.9383227870805L803.3957154924916,265.4331234275218L805.010438107507,268.1248406103426L806.6251607225224,78.53384716203863L808.2398833375379,321.23149681229796L809.8546059525534,180.76860368467973L811.4693285675688,151.08654758054038L813.0840511825843,393.2660523640551L814.6987737975996,33.676092386981395L816.3134964126152,292.8421960410383L817.8878509622552,337.9320469112953L819.5025735772707,80.29905454130557L821.1172961922862,275.57335613398106L822.7320188073016,453.3575298338301L824.3467414223171,291.9530606213153L825.9614640373326,315.4632468864929L827.576186652348,360.8706628582336L829.1101731366127,343.1173033137716L830.7248957516282,44.83486492363727L832.3396183666437,490.7603252259677L838.7581407613301,408.2247980090839L840.2921272455948,321.0402020624557L841.8664817952348,130.2759868709377L843.4812044102503,231.16163358225836L845.0959270252657,374.4544939645478L846.7106496402813,450.24505793021865L848.2850041899213,308.0301380445904L849.8997268049367,68.83952951783607L851.4740813545768,408.73330637717623L856.3182491996232,427.4563788726453L857.9329718146387,139.5341138223442L859.5073263642788,-23.511049833963796L861.1220489792942,381.3682570386579L862.7367715943096,312.92785187177935L864.3514942093251,-3.815335360541667L865.9662168243406,281.796073880725L867.580939439356,430.8792104714533L869.1552939889962,417.6596917366806L870.7296485386362,242.36744629166674L872.2636350229009,328.0826080000334L873.837989572541,167.45974962805454L875.4527121875564,496.08626279265957L876.986698671821,418.52685945430875L878.5610532214611,243.3429880062963L880.0950397057258,19.305466062436835L881.6693942553659,367.140098584766L883.2841168703814,-18.07975516802486L884.8988394853968,427.6512763256311L886.4328259696615,198.6050304333299L888.0071805193015,408.52147914844267L889.621903134317,337.07624381821756L891.2366257493326,262.4042166626793L892.8109802989726,303.2899765768259L894.1431264563603,217.92629810197735L895.6367448752496,443.8763867707563L898.7450859091545,441.08745518359825L900.2387043280437,121.4800017910685L901.7323227469329,244.2218132511695L903.2259411658223,456.5033047738174L904.6791915193362,521.3757743469839L906.1728099382256,222.6932308760281L907.6260602917393,417.4692464046527L918.0006530932137,489.6078995740701L919.5346395774784,249.65304933656952L921.0686260617431,239.6410494298055L922.6429806113832,353.61194828069495L924.1769670956479,435.9804038005798L927.0430997373003,85.51846339797203L928.577086221565,464.86233761388456L931.4432188632175,401.5711618180467L932.8561011513559,314.34263046722873" style="fill: none;" fill="none"></path></g></g></g></g></g></g><g transform="translate(68, 377)" clip-path="url(#clip_1)"><clipPath id="clip_1"><rect width="960" height="22"></rect></clipPath><g><g><line x1="70.31164827547313" y1="0" x2="70.31164827547313" y2="5" style="visibility: inherit;" fill="rgb(0, 0, 0)" stroke="rgb(204, 204, 204)" stroke-width="1px"></line><line x1="151.0477790262461" y1="0" x2="151.0477790262461" y2="5" style="visibility: inherit;" fill="rgb(0, 0, 0)" stroke="rgb(204, 204, 204)" stroke-width="1px"></line><line x1="231.78390977701903" y1="0" x2="231.78390977701903" y2="5" style="visibility: inherit;" fill="rgb(0, 0, 0)" stroke="rgb(204, 204, 204)" stroke-width="1px"></line><line x1="312.520040527792" y1="0" x2="312.520040527792" y2="5" style="visibility: inherit;" fill="rgb(0, 0, 0)" stroke="rgb(204, 204, 204)" stroke-width="1px"></line><line x1="393.2561712785649" y1="0" x2="393.2561712785649" y2="5" style="visibility: inherit;" fill="rgb(0, 0, 0)" stroke="rgb(204, 204, 204)" stroke-width="1px"></line><line x1="473.9923020293379" y1="0" x2="473.9923020293379" y2="5" style="visibility: inherit;" fill="rgb(0, 0, 0)" stroke="rgb(204, 204, 204)" stroke-width="1px"></line><line x1="554.7284327801109" y1="0" x2="554.7284327801109" y2="5" style="visibility: inherit;" fill="rgb(0, 0, 0)" stroke="rgb(204, 204, 204)" stroke-width="1px"></line><line x1="635.4645635308838" y1="0" x2="635.4645635308838" y2="5" style="visibility: inherit;" fill="rgb(0, 0, 0)" stroke="rgb(204, 204, 204)" stroke-width="1px"></line><line x1="716.2006942816566" y1="0" x2="716.2006942816566" y2="5" style="visibility: inherit;" fill="rgb(0, 0, 0)" stroke="rgb(204, 204, 204)" stroke-width="1px"></line><line x1="796.9368250324296" y1="0" x2="796.9368250324296" y2="5" style="visibility: inherit;" fill="rgb(0, 0, 0)" stroke="rgb(204, 204, 204)" stroke-width="1px"></line><line x1="877.6729557832026" y1="0" x2="877.6729557832026" y2="5" style="visibility: inherit;" fill="rgb(0, 0, 0)" stroke="rgb(204, 204, 204)" stroke-width="1px"></line><line x1="958.4090865339756" y1="0" x2="958.4090865339756" y2="5" style="visibility: inherit;" fill="rgb(0, 0, 0)" stroke="rgb(204, 204, 204)" stroke-width="1px"></line></g><g transform="translate(0, 8)"><text x="70.31164827547313" y="0" dx="0em" dy="0.95em" style="text-anchor: middle; visibility: inherit; font-family: &quot;Helvetica Neue&quot;, sans-serif; font-size: 12px; font-weight: 200;" fill="rgb(50, 49, 63)" stroke="none" stroke-width="1px">0</text><text x="151.0477790262461" y="0" dx="0em" dy="0.95em" style="text-anchor: middle; visibility: inherit; font-family: &quot;Helvetica Neue&quot;, sans-serif; font-size: 12px; font-weight: 200;" fill="rgb(50, 49, 63)" stroke="none" stroke-width="1px">2k</text><text x="231.78390977701903" y="0" dx="0em" dy="0.95em" style="text-anchor: middle; visibility: inherit; font-family: &quot;Helvetica Neue&quot;, sans-serif; font-size: 12px; font-weight: 200;" fill="rgb(50, 49, 63)" stroke="none" stroke-width="1px">4k</text><text x="312.520040527792" y="0" dx="0em" dy="0.95em" style="text-anchor: middle; visibility: inherit; font-family: &quot;Helvetica Neue&quot;, sans-serif; font-size: 12px; font-weight: 200;" fill="rgb(50, 49, 63)" stroke="none" stroke-width="1px">6k</text><text x="393.2561712785649" y="0" dx="0em" dy="0.95em" style="text-anchor: middle; visibility: inherit; font-family: &quot;Helvetica Neue&quot;, sans-serif; font-size: 12px; font-weight: 200;" fill="rgb(50, 49, 63)" stroke="none" stroke-width="1px">8k</text><text x="473.9923020293379" y="0" dx="0em" dy="0.95em" style="text-anchor: middle; visibility: inherit; font-family: &quot;Helvetica Neue&quot;, sans-serif; font-size: 12px; font-weight: 200;" fill="rgb(50, 49, 63)" stroke="none" stroke-width="1px">10k</text><text x="554.7284327801109" y="0" dx="0em" dy="0.95em" style="text-anchor: middle; visibility: inherit; font-family: &quot;Helvetica Neue&quot;, sans-serif; font-size: 12px; font-weight: 200;" fill="rgb(50, 49, 63)" stroke="none" stroke-width="1px">12k</text><text x="635.4645635308838" y="0" dx="0em" dy="0.95em" style="text-anchor: middle; visibility: inherit; font-family: &quot;Helvetica Neue&quot;, sans-serif; font-size: 12px; font-weight: 200;" fill="rgb(50, 49, 63)" stroke="none" stroke-width="1px">14k</text><text x="716.2006942816566" y="0" dx="0em" dy="0.95em" style="text-anchor: middle; visibility: inherit; font-family: &quot;Helvetica Neue&quot;, sans-serif; font-size: 12px; font-weight: 200;" fill="rgb(50, 49, 63)" stroke="none" stroke-width="1px">16k</text><text x="796.9368250324296" y="0" dx="0em" dy="0.95em" style="text-anchor: middle; visibility: inherit; font-family: &quot;Helvetica Neue&quot;, sans-serif; font-size: 12px; font-weight: 200;" fill="rgb(50, 49, 63)" stroke="none" stroke-width="1px">18k</text><text x="877.6729557832026" y="0" dx="0em" dy="0.95em" style="text-anchor: middle; visibility: inherit; font-family: &quot;Helvetica Neue&quot;, sans-serif; font-size: 12px; font-weight: 200;" fill="rgb(50, 49, 63)" stroke="none" stroke-width="1px">20k</text><text x="958.4090865339756" y="0" dx="0em" dy="0.95em" style="text-anchor: middle; visibility: hidden; font-family: &quot;Helvetica Neue&quot;, sans-serif; font-size: 12px; font-weight: 200;" fill="rgb(50, 49, 63)" stroke="none" stroke-width="1px">22k</text></g><line x1="0" y1="0" x2="960.6875" y2="0" fill="rgb(0, 0, 0)" stroke="rgb(204, 204, 204)" stroke-width="1px"></line></g></g></g></g></svg>