<svg viewBox="0 0 1029 400" xmlns="http://www.w3.org/2000/svg"><g><g><g><g><g><line x1="68.3125" y1="377.828125" x2="63.3125" y2="377.828125" style="visibility: inherit;" fill="rgb(0, 0, 0)" stroke="rgb(204, 204, 204)" stroke-width="1px"></line><line x1="68.3125" y1="343.4801136363636" x2="63.3125" y2="343.4801136363636" style="visibility: inherit;" fill="rgb(0, 0, 0)" stroke="rgb(204, 204, 204)" stroke-width="1px"></line><line x1="68.3125" y1="309.13210227272725" x2="63.3125" y2="309.13210227272725" style="visibility: inherit;" fill="rgb(0, 0, 0)" stroke="rgb(204, 204, 204)" stroke-width="1px"></line><line x1="68.3125" y1="274.78409090909093" x2="63.3125" y2="274.78409090909093" style="visibility: inherit;" fill="rgb(0, 0, 0)" stroke="rgb(204, 204, 204)" stroke-width="1px"></line><line x1="68.3125" y1="240.43607954545462" x2="63.3125" y2="240.43607954545462" style="visibility: inherit;" fill="rgb(0, 0, 0)" stroke="rgb(204, 204, 204)" stroke-width="1px"></line><line x1="68.3125" y1="206.08806818181824" x2="63.3125" y2="206.08806818181824" style="visibility: inherit;" fill="rgb(0, 0, 0)" stroke="rgb(204, 204, 204)" stroke-width="1px"></line><line x1="68.3125" y1="171.74005681818187" x2="63.3125" y2="171.74005681818187" style="visibility: inherit;" fill="rgb(0, 0, 0)" stroke="rgb(204, 204, 204)" stroke-width="1px"></line><line x1="68.3125" y1="137.39204545454547" x2="63.3125" y2="137.39204545454547" style="visibility: inherit;" fill="rgb(0, 0, 0)" stroke="rgb(204, 204, 204)" stroke-width="1px"></line><line x1="68.3125" y1="103.04403409090907" x2="63.3125" y2="103.04403409090907" style="visibility: inherit;" fill="rgb(0, 0, 0)" stroke="rgb(204, 204, 204)" stroke-width="1px"></line><line x1="68.3125" y1="68.69602272727269" x2="63.3125" y2="68.69602272727269" style="visibility: inherit;" fill="rgb(0, 0, 0)" stroke="rgb(204, 204, 204)" stroke-width="1px"></line><line x1="68.3125" y1="34.348011363636374" x2="63.3125" y2="34.348011363636374" style="visibility: inherit;" fill="rgb(0, 0, 0)" stroke="rgb(204, 204, 204)" stroke-width="1px"></line><line x1="68.3125" y1="0" x2="63.3125" y2="0" style="visibility: inherit;" fill="rgb(0, 0, 0)" stroke="rgb(204, 204, 204)" stroke-width="1px"></line></g><g transform="translate(58.3125, 0)"><text x="0" y="377.828125" dx="0em" dy="0.3em" style="text-anchor: end; visibility: hidden; font-family: &quot;Helvetica Neue&quot;, sans-serif; font-size: 12px; font-weight: 200;" fill="rgb(50, 49, 63)" stroke="none" stroke-width="1px">9e-5</text><text x="0" y="343.4801136363636" dx="0em" dy="0.3em" style="text-anchor: end; visibility: inherit; font-family: &quot;Helvetica Neue&quot;, sans-serif; font-size: 12px; font-weight: 200;" fill="rgb(50, 49, 63)" stroke="none" stroke-width="1px">1e-4</text><text x="0" y="309.13210227272725" dx="0em" dy="0.3em" style="text-anchor: end; visibility: inherit; font-family: &quot;Helvetica Neue&quot;, sans-serif; font-size: 12px; font-weight: 200;" fill="rgb(50, 49, 63)" stroke="none" stroke-width="1px">1.1e-4</text><text x="0" y="274.78409090909093" dx="0em" dy="0.3em" style="text-anchor: end; visibility: inherit; font-family: &quot;Helvetica Neue&quot;, sans-serif; font-size: 12px; font-weight: 200;" fill="rgb(50, 49, 63)" stroke="none" stroke-width="1px">1.2e-4</text><text x="0" y="240.43607954545462" dx="0em" dy="0.3em" style="text-anchor: end; visibility: inherit; font-family: &quot;Helvetica Neue&quot;, sans-serif; font-size: 12px; font-weight: 200;" fill="rgb(50, 49, 63)" stroke="none" stroke-width="1px">1.3e-4</text><text x="0" y="206.08806818181824" dx="0em" dy="0.3em" style="text-anchor: end; visibility: inherit; font-family: &quot;Helvetica Neue&quot;, sans-serif; font-size: 12px; font-weight: 200;" fill="rgb(50, 49, 63)" stroke="none" stroke-width="1px">1.4e-4</text><text x="0" y="171.74005681818187" dx="0em" dy="0.3em" style="text-anchor: end; visibility: inherit; font-family: &quot;Helvetica Neue&quot;, sans-serif; font-size: 12px; font-weight: 200;" fill="rgb(50, 49, 63)" stroke="none" stroke-width="1px">1.5e-4</text><text x="0" y="137.39204545454547" dx="0em" dy="0.3em" style="text-anchor: end; visibility: inherit; font-family: &quot;Helvetica Neue&quot;, sans-serif; font-size: 12px; font-weight: 200;" fill="rgb(50, 49, 63)" stroke="none" stroke-width="1px">1.6e-4</text><text x="0" y="103.04403409090907" dx="0em" dy="0.3em" style="text-anchor: end; visibility: inherit; font-family: &quot;Helvetica Neue&quot;, sans-serif; font-size: 12px; font-weight: 200;" fill="rgb(50, 49, 63)" stroke="none" stroke-width="1px">1.7e-4</text><text x="0" y="68.69602272727269" dx="0em" dy="0.3em" style="text-anchor: end; visibility: inherit; font-family: &quot;Helvetica Neue&quot;, sans-serif; font-size: 12px; font-weight: 200;" fill="rgb(50, 49, 63)" stroke="none" stroke-width="1px">1.8e-4</text><text x="0" y="34.348011363636374" dx="0em" dy="0.3em" style="text-anchor: end; visibility: inherit; font-family: &quot;Helvetica Neue&quot;, sans-serif; font-size: 12px; font-weight: 200;" fill="rgb(50, 49, 63)" stroke="none" stroke-width="1px">1.9e-4</text><text x="0" y="0" dx="0em" dy="0.3em" style="text-anchor: end; visibility: hidden; font-family: &quot;Helvetica Neue&quot;, sans-serif; font-size: 12px; font-weight: 200;" fill="rgb(50, 49, 63)" stroke="none" stroke-width="1px">2e-4</text></g><line x1="68.3125" y1="0" x2="68.3125" y2="377.828125" fill="rgb(0, 0, 0)" stroke="rgb(204, 204, 204)" stroke-width="1px"></line></g></g><g transform="translate(68, 0)" clip-path="url(#clip_0)"><clipPath id="clip_0"><rect width="960" height="377"></rect></clipPath><g><g><g><line x1="0" y1="0" x2="0" y2="377.828125" fill="rgb(0, 0, 0)" stroke="rgb(60, 60, 60)" stroke-width="1px" opacity="0.25"></line><line x1="80.05729166666666" y1="0" x2="80.05729166666666" y2="377.828125" fill="rgb(0, 0, 0)" stroke="rgb(60, 60, 60)" stroke-width="1px" opacity="0.25"></line><line x1="160.11458333333331" y1="0" x2="160.11458333333331" y2="377.828125" fill="rgb(0, 0, 0)" stroke="rgb(60, 60, 60)" stroke-width="1px" opacity="0.25"></line><line x1="240.171875" y1="0" x2="240.171875" y2="377.828125" fill="rgb(0, 0, 0)" stroke="rgb(60, 60, 60)" stroke-width="1px" opacity="0.25"></line><line x1="320.22916666666663" y1="0" x2="320.22916666666663" y2="377.828125" fill="rgb(0, 0, 0)" stroke="rgb(60, 60, 60)" stroke-width="1px" opacity="0.25"></line><line x1="400.28645833333337" y1="0" x2="400.28645833333337" y2="377.828125" fill="rgb(0, 0, 0)" stroke="rgb(60, 60, 60)" stroke-width="1px" opacity="0.25"></line><line x1="480.34375" y1="0" x2="480.34375" y2="377.828125" fill="rgb(0, 0, 0)" stroke="rgb(60, 60, 60)" stroke-width="1px" opacity="0.25"></line><line x1="560.4010416666667" y1="0" x2="560.4010416666667" y2="377.828125" fill="rgb(0, 0, 0)" stroke="rgb(60, 60, 60)" stroke-width="1px" opacity="0.25"></line><line x1="640.4583333333333" y1="0" x2="640.4583333333333" y2="377.828125" fill="rgb(0, 0, 0)" stroke="rgb(60, 60, 60)" stroke-width="1px" opacity="0.25"></line><line x1="720.515625" y1="0" x2="720.515625" y2="377.828125" fill="rgb(0, 0, 0)" stroke="rgb(60, 60, 60)" stroke-width="1px" opacity="0.25"></line><line x1="800.5729166666667" y1="0" x2="800.5729166666667" y2="377.828125" fill="rgb(0, 0, 0)" stroke="rgb(60, 60, 60)" stroke-width="1px" opacity="0.25"></line><line x1="880.6302083333333" y1="0" x2="880.6302083333333" y2="377.828125" fill="rgb(0, 0, 0)" stroke="rgb(60, 60, 60)" stroke-width="1px" opacity="0.25"></line><line x1="960.6875" y1="0" x2="960.6875" y2="377.828125" fill="rgb(0, 0, 0)" stroke="rgb(60, 60, 60)" stroke-width="1px" opacity="0.25"></line></g><g><line x1="0" y1="377.828125" x2="960.6875" y2="377.828125" fill="rgb(0, 0, 0)" stroke="rgb(60, 60, 60)" stroke-width="1px" opacity="0.25"></line><line x1="0" y1="343.4801136363636" x2="960.6875" y2="343.4801136363636" fill="rgb(0, 0, 0)" stroke="rgb(60, 60, 60)" stroke-width="1px" opacity="0.25"></line><line x1="0" y1="309.13210227272725" x2="960.6875" y2="309.13210227272725" fill="rgb(0, 0, 0)" stroke="rgb(60, 60, 60)" stroke-width="1px" opacity="0.25"></line><line x1="0" y1="274.78409090909093" x2="960.6875" y2="274.78409090909093" fill="rgb(0, 0, 0)" stroke="rgb(60, 60, 60)" stroke-width="1px" opacity="0.25"></line><line x1="0" y1="240.43607954545462" x2="960.6875" y2="240.43607954545462" fill="rgb(0, 0, 0)" stroke="rgb(60, 60, 60)" stroke-width="1px" opacity="0.25"></line><line x1="0" y1="206.08806818181824" x2="960.6875" y2="206.08806818181824" fill="rgb(0, 0, 0)" stroke="rgb(60, 60, 60)" stroke-width="1px" opacity="0.25"></line><line x1="0" y1="171.74005681818187" x2="960.6875" y2="171.74005681818187" fill="rgb(0, 0, 0)" stroke="rgb(60, 60, 60)" stroke-width="1px" opacity="0.25"></line><line x1="0" y1="137.39204545454547" x2="960.6875" y2="137.39204545454547" fill="rgb(0, 0, 0)" stroke="rgb(60, 60, 60)" stroke-width="1px" opacity="0.25"></line><line x1="0" y1="103.04403409090907" x2="960.6875" y2="103.04403409090907" fill="rgb(0, 0, 0)" stroke="rgb(60, 60, 60)" stroke-width="1px" opacity="0.25"></line><line x1="0" y1="68.69602272727269" x2="960.6875" y2="68.69602272727269" fill="rgb(0, 0, 0)" stroke="rgb(60, 60, 60)" stroke-width="1px" opacity="0.25"></line><line x1="0" y1="34.348011363636374" x2="960.6875" y2="34.348011363636374" fill="rgb(0, 0, 0)" stroke="rgb(60, 60, 60)" stroke-width="1px" opacity="0.25"></line><line x1="0" y1="0" x2="960.6875" y2="0" fill="rgb(0, 0, 0)" stroke="rgb(60, 60, 60)" stroke-width="1px" opacity="0.25"></line></g></g></g><g><g><line x1="0" y1="686.9602272727273" x2="960.6875" y2="686.9602272727273" fill="rgb(0, 0, 0)" stroke="rgb(153, 153, 153)" stroke-width="1.5px"></line></g></g><g><g><line x1="80.05729166666666" y1="0" x2="80.05729166666666" y2="377.828125" fill="rgb(0, 0, 0)" stroke="rgb(153, 153, 153)" stroke-width="1.5px"></line></g></g><g><g><g><g><g><path stroke="rgb(255, 112, 67)" stroke-width="2px" d="M80.0973203125,238.329847433478L81.69846614583334,176.50350462228565L83.29961197916667,64.60176677283653L84.90075781249999,-1.1665336696271993L102.51336197916667,-15.075496188690636L104.1145078125,11.230992863764811L105.71565364583333,13.244641782257588L107.31679947916668,11.728271292172735L108.91794531250001,27.75333274446831L110.51909114583333,21.369564102287484L112.12023697916666,16.557346289362158L113.7213828125,29.854707117321368L115.32252864583334,16.767307870667878L116.92367447916666,29.905703877950828L118.5248203125,47.21378248211914L120.12596614583333,61.66299480351853L121.72711197916668,61.69989855550563L123.32825781249998,61.500019741840674L124.92940364583333,58.35294888125708L126.53054947916668,74.28174421129512L128.1316953125,88.85546413768219L129.73284114583333,103.09788763930538L131.33398697916667,112.65812180289635L132.9351328125,120.59411864486958L134.53627864583333,130.23766780642165L136.13742447916667,139.8919925454321L137.7385703125,137.74077319268508L139.33971614583334,140.3715613065401L140.94086197916667,134.2068200064917L142.5420078125,132.0468336928222L144.14315364583334,128.09601040697817L145.74429947916667,140.30602247185968L147.3454453125,156.18679456123317L148.94659114583334,155.5766159141093L150.54773697916667,161.00803626127095L152.14888281249998,166.53278278356962L153.75002864583334,170.79767425750913L155.35117447916667,170.33528121860434L156.9523203125,182.41966373406547L158.55346614583334,178.0524137515187L160.15461197916665,177.72412311923995L161.7557578125,173.5785534303911L163.35690364583334,170.3317220625521L164.95804947916665,175.32816182174446L166.5591953125,180.59519494572734L168.16034114583334,187.48928271344636L169.76148697916665,184.19114456465695L171.3626328125,186.63816153036416L172.96377864583332,183.42596753470508L174.56492447916668,189.2061658175343L176.1660703125,183.93812534363965L177.76721614583332,188.6389666153688L179.36836197916668,196.9449770505127L180.96950781249998,199.33602290713503L182.57065364583332,188.7508337364858L184.17179947916668,186.463474878711L185.77294531249998,182.61506719772305L187.37409114583335,194.5464537276806L188.97523697916668,187.5651991114215L190.5763828125,188.67669633700868L192.17752864583335,193.89198966280117L193.77867447916665,203.6043200441977L195.3798203125,203.43917004507756L196.98096614583335,211.5900490825454L198.58211197916665,218.0666371919178L200.18325781250002,227.06721156578968L201.78440364583332,223.1917022672497L203.38554947916666,224.16007238202528L204.98669531250002,210.88136048308166L206.58784114583332,220.56254478631922L208.18898697916666,213.2574102869606L209.79013281250002,209.71807129218706L211.39127864583332,207.68074680526422L212.9924244791667,214.2391183197404L214.5935703125,201.17780339754458L216.19471614583333,201.1119069595286L217.7958619791667,201.51963667556134L219.3970078125,201.81240968743515L220.99815364583333,197.0055535657923L222.59929947916666,199.74452949442525L224.2004453125,205.82882536307483L225.80159114583336,212.4887539958936L227.40273697916666,212.48364985736296L229.0038828125,213.71432838631546L230.60502864583333,227.40810101595395L232.20617447916666,231.8139937337133L233.8073203125,237.94692536140062L235.40846614583333,247.6810331956097L237.00961197916666,249.89053116192866L238.61075781250003,220.8403716626353L240.21190364583333,220.02127431130737L241.81304947916664,233.80086792007296L243.41419531250003,232.5622833457588L245.01534114583333,238.72571961963885L246.61648697916664,238.53478199802058L248.21763281250003,211.20011844290926L249.81877864583333,213.19144648037076L251.41992447916667,213.95125597998356L253.02107031250003,214.98529371855227L254.62221614583333,229.43804823283284L256.22336197916667,218.3734671360914L257.8245078125,219.6529925665839L259.42565364583334,229.44603791361092L261.02679947916664,231.19278524274753L262.6279453125,237.9534075468288L264.22909114583337,231.17664949976958L265.83023697916667,217.38648914874133L267.4313828125,219.0324012216694L269.03252864583334,226.93777214291939L270.63367447916664,233.46638960633697L272.2348203125,245.40100492305146L273.83596614583337,253.3150014703161L275.4371119791667,256.5197982245871L277.0382578125,253.53507387178644L278.6394036458333,264.40892499425763L280.2405494791667,247.30795591345955L281.8416953125,249.94580357117155L283.4428411458333,255.66747366423976L285.0439869791667,257.679936145967L286.6451328125,251.48002265912118L288.24627864583334,245.62195107516388L289.8474244791667,247.86606699762174L291.4485703125,252.20240775071773L293.0497161458333,257.7139132893366L294.6508619791667,256.6752771257444L296.2520078125,247.74265003706014L297.85315364583334,256.7039970138962L299.45429947916665,247.80299922234659L301.0554453125,247.9858366248171L302.6565911458333,222.4534158726261L304.2577369791666,230.70824392023994L305.85888281250004,236.1700190619543L307.46002864583335,238.06140436196273L309.06117447916665,217.8728241598409L310.6623203125,223.48700653291357L312.2634661458333,236.4118841663835L313.8646119791667,239.9411498254014L315.4657578125,235.90660327882688L317.06690364583335,230.1507703164408L318.66804947916665,243.52946726699093L320.26919531249996,249.50821249086067L321.8703411458333,244.7040953059614L323.4714869791667,246.57682459227104L325.0726328125,241.2340165144004L326.67377864583335,245.21010714230928L328.27492447916666,251.72202308456653L329.87607031249996,257.7655462106237L331.4772161458334,251.35649598925545L333.0783619791667,248.10402767559637L334.6795078125,249.5801967763477L336.2806536458333,252.06192493429606L337.88179947916666,257.76074569701007L339.4829453125,258.14578842596757L341.0840911458333,257.9778120367152L342.6852369791667,263.8952560255366L344.2863828125,262.1305130662406L345.8875286458333,255.11972475702083L347.48867447916666,257.9595375842257L349.0898203125,253.0918340638654L350.69096614583333,241.7024973634026L352.2921119791667,243.43498537107695L353.8932578125,226.99398816929607L355.4944036458333,234.56476385278293L357.09554947916666,225.8486393157624L358.6966953125,218.11305377565876L360.29784114583333,224.74893681500626L361.89898697916664,229.43187761580006L363.5001328125,224.61274488911383L365.10127864583336,228.09856763242044L366.70242447916667,224.8046238317832L368.3035703125,220.90237455048083L369.90471614583333,226.9105110192373L371.50586197916664,220.7283027955827L373.1070078125,234.05416775733352L374.70815364583336,229.89041798531184L376.30929947916667,237.17601209844747L377.9104453125,235.2216811203013L379.51159114583334,242.58279223620607L381.11273697916664,243.09903459166702L382.7138828125,235.05839277725588L384.31502864583337,242.42906667120172L385.91617447916667,248.5958175082514L387.5173203125,252.04651048647872L389.11846614583334,252.20733530112335L390.71961197916664,249.4422248407464L392.3207578125,242.07221520172635L393.92190364583337,242.5670522454424L395.5230494791667,238.71273927568754L397.1241953125,251.7909166158287L398.7253411458333,254.45609387462088L400.3264869791667,254.1438699575104L401.9276328125,255.86438781458833L403.5287786458333,259.01893643371295L405.1299244791667,261.5522956750029L406.7310703125,268.12020988277357L408.33221614583334,251.66530776914797L409.9333619791667,244.53352718808915L411.5345078125,245.74157490405665L413.1356536458333,233.59265987448467L414.7367994791667,241.25895025124183L416.3379453125,225.77371519322804L417.93909114583334,228.5606667856465L419.54023697916665,237.51716336471532L421.1413828125,238.066767989099L422.7425286458333,233.12521088921045L424.3436744791666,243.06244008440368L425.94482031250004,254.01925949599658L427.54596614583335,255.3839527776537L429.14711197916665,257.59237107863646L430.7482578125,260.58367610123304L432.3494036458333,260.2263068917994L433.9505494791667,255.7678820514846L435.5516953125,248.80945646562637L437.15284114583335,257.34584853562626L438.75398697916665,244.72516673417675L440.35513281249996,250.62306142263017L441.9562786458333,255.2251745799488L443.5574244791667,251.9450952916253L445.1585703125,254.49882788351343L446.75971614583335,265.7252159969564L448.36086197916666,273.974172994931L449.96200781249996,262.0515944890052L451.5631536458334,272.0425690794198L453.1642994791667,270.20669179966717L454.7654453125,267.97114646923944L456.3665911458333,272.0961720379415L457.96773697916666,272.07370694085375L459.5688828125,280.39515799531165L461.1700286458333,281.8018715226638L462.7711744791667,276.3980358650293L464.3723203125,277.1442629650671L465.9734661458333,278.04129231175307L467.57461197916666,282.2441741543748L469.1757578125,279.2322883905873L470.77690364583333,283.18904860093846L472.3780494791667,271.22514554720266L473.9791953125,273.5789049818434L475.5803411458333,277.36512113529943L477.18148697916666,272.1412623520746L478.7826328125,279.3506361265951L480.3837786458334,284.02208470520185L481.98492447916664,289.9758047254869L483.5860703125,289.8373127180017L485.18721614583336,288.6162788452335L486.78836197916667,281.60943169724385L488.3895078125,281.4344054200824L489.9906536458333,276.1600585343482L491.59179947916664,278.4106696439775L493.1929453125,280.38699491233666L494.7940911458333,274.65537330493834L496.39523697916667,271.3001948515632L497.99638281250003,271.62561777733055L499.5975286458333,270.09185963363876L501.19867447916664,274.8839071597761L502.79982031250006,272.3441900414369L504.4009661458333,272.93480999145686L506.00211197916667,273.5073580665333L507.60325781250003,281.19022970471076L509.2044036458333,288.59451597052873L510.80554947916664,297.9739558807246L512.4066953125,300.9398971004847L514.0078411458333,291.3140152883094L515.6089869791667,297.0302444601427L517.2101328125001,292.2819804289508L518.8112786458333,290.50405333496815L520.4124244791667,293.54768955956297L522.0135703125001,278.4974730516677L523.6147161458333,282.11161928439947L525.2158619791667,291.82053913017467L526.8170078124999,287.2676909299397L528.4181536458333,289.89019192081696L530.0192994791666,290.5527305299772L531.6204453124999,287.28630734286276L533.2215911458334,289.37078531550907L534.8227369791667,275.91525534428746L536.4238828125,278.5243857159398L538.0250286458333,288.5418453271677L539.6261744791667,292.52431045449015L541.2273203125,292.85505813468217L542.8284661458333,289.8033134776757L544.4296119791667,289.8113942162365L546.0307578124999,283.39691070491267L547.6319036458333,274.0872501391412L549.2330494791667,272.51828595325867L550.8341953125,275.63354512877504L552.4353411458334,273.2459308707866L554.0364869791667,275.27848744490933L555.6376328125,277.5895207664281L557.2387786458333,274.22220213260823L558.8399244791667,268.33245152520595L560.4410703125,266.319113606145L562.0422161458333,264.76087286386525L563.6433619791667,269.3799151474628L565.2445078124999,275.53351483412854L566.8456536458334,260.81791896333186L568.4467994791667,254.964958528568L570.0479453125,254.48294670662247L571.6490911458334,252.99732524408682L573.2502369791666,252.89612229905487L574.8513828125,250.63770535139858L576.4525286458334,259.0741853431877L578.0536744791666,258.6863351845876L579.6548203125,269.8924924166067L581.2559661458333,271.364610246668L582.8571119791666,272.74761351963633L584.4582578125,275.23945257286175L586.0594036458334,261.819447143053L587.6605494791667,268.7114714738318L589.2616953125,258.3025799545836L590.8628411458334,249.63748726587107L592.4639869791666,256.5345751117222L594.0651328125,239.2789388545806L595.6662786458334,236.7911353343148L597.2674244791666,249.0416405821025L598.8685703125,252.3453923162324L600.4697161458333,254.59034026413588L602.0708619791667,251.40028999135382L603.6720078125,255.53815533947727L605.2731536458334,258.57198684940056L606.8742994791667,256.8934365435684L608.4754453125,263.2745124861374L610.0765911458333,271.02290361213056L611.6777369791666,282.9231590485598L613.2788828125,290.53829294074905L614.8800286458332,289.57945565324275L616.4811744791666,287.49093123159537L618.0823203125,278.8820680267886L619.6834661458333,283.8450818084375L621.2846119791667,290.7510107459856L622.8857578125001,299.52302520582975L624.4869036458333,300.79708096370655L626.0880494791667,285.54649046921537L627.6891953125,285.06000866702215L629.2903411458333,278.10157557165064L630.8914869791666,284.4693980934188L632.4926328125,294.1692458334067L634.0937786458333,291.94328468529204L635.6949244791667,288.10211652133256L637.2960703125001,291.35181533460474L638.8972161458333,298.03854610409206L640.4983619791667,298.3205322067537L642.0995078125001,288.98183813517625L643.7006536458333,276.7494320757685L645.3017994791667,283.38482311870143L646.9029453124999,290.0982985487115L648.5040911458333,275.23170521187666L650.1052369791666,279.89425341151247L651.7063828124999,273.904361426034L653.3075286458334,269.4078310737917L654.9086744791667,253.27061571037976L656.5098203125,258.5298096823309L658.1109661458333,248.8679305548594L659.7121119791667,232.3368030098579L661.3132578125,222.85511740469082L662.9144036458333,229.40936559293377L664.5155494791667,238.08085091043733L666.1166953124999,243.92308265547945L667.7178411458333,253.9870249513835L669.3189869791667,265.2173016954964L670.9201328125,275.63058038926215L672.5212786458334,284.7369020559349L674.1224244791667,290.2438532797962L675.7235703125,299.5016384841129L677.3247161458333,304.5095202695712L678.9258619791667,299.76772593127026L680.5270078125,284.88142613942733L682.1281536458333,289.134738604843L683.7292994791667,279.4524985654724L685.3304453124999,283.4817768870638L686.9315911458334,274.80272159153947L688.5327369791667,277.87160241477176L690.1338828125,276.9603094646399L691.7350286458334,281.24518184979536L693.3361744791666,288.66498079135954L694.9373203125,294.6225449427967L696.5384661458334,297.1436364931633L698.1396119791666,296.03080620464027L699.7407578125,297.2191758388322L701.3419036458333,302.58143447490556L702.9430494791666,303.95831116704517L704.5441953125,310.2883952857963L706.1453411458334,308.94691253905995L707.7464869791667,302.38785124171795L709.3476328125,299.97860701554293L710.9487786458334,283.8562941708819L712.5499244791666,294.16666615228854L714.1510703125,290.38258331333316L715.7522161458334,294.58083939564244L717.3533619791666,298.5821858306797L718.9545078125,299.45486755219986L720.5556536458333,289.83811871848974L722.1567994791667,290.1238843146231L723.7579453125,283.4053808125494L725.3590911458334,282.1779110412908L726.9602369791667,274.0889633906089L728.5613828125,276.2398272990325L730.1625286458333,278.09955797507064L731.7636744791666,281.3026907252756L733.3648203125,280.2651047236712L734.9659661458332,277.9791175021911L736.5671119791666,289.9277701953822L738.1682578125,280.33000263816064L739.7694036458333,266.7543907425864L741.3705494791667,268.4189222176909L742.9716953125001,263.20075086325915L744.5728411458333,273.0718963144777L746.1739869791667,278.2095382993549L747.7751328125,286.50052465973L749.3762786458333,269.18815981795177L750.9774244791666,269.28043128918074L752.5785703125,282.33667194889824L754.1797161458333,275.598646204345L755.7808619791667,286.5627076300923L757.3820078125001,283.208314638164L758.9831536458333,282.81646274277875L760.5842994791667,289.9614364309556L762.1854453125001,281.5740893754761L763.7865911458333,269.0517598565738L765.3877369791667,268.2417516201559L766.9888828124999,269.0149688675716L768.5900286458333,270.45936610754217L770.1911744791666,275.0747271586291L771.7923203124999,278.86764538484056L773.3534375,282.657672718234L774.9545833333333,286.0011096828168L776.5557291666667,294.14412877540303L778.156875,294.68986210935736L779.7580208333333,303.0298409465652L781.3591666666667,301.4349286809445L782.9603125,297.32919753649094L784.5614583333333,284.1039368494047L786.1626041666667,283.33155990660646L787.76375,289.6261680656541L789.3648958333333,285.93571144532797L790.9660416666667,296.0522463903751L792.5671874999999,288.0254281158295L794.1683333333333,291.077570418367L795.7694791666667,298.63338768088846L797.370625,300.48131448674536L798.9717708333334,298.5058092545025L800.5729166666667,296.0927680358763L802.1740625,295.7161009259958L803.7752083333334,297.69615799869445L805.3763541666667,294.3853514780683L806.9775,296.41005005189845L808.5786458333333,298.6456526049005L810.1797916666667,298.22223230907775L811.7809374999999,293.63116181232647L813.3820833333333,290.6321507918201L814.9832291666667,294.9076407446939L816.584375,302.9966592741792L818.1855208333334,304.0331951078398L819.7866666666667,307.38552438630325L821.3477838541667,312.85030180279097L822.9489296875,304.2595298375842L824.5500755208334,297.30095359786895L826.1512213541668,293.74650217687224L827.7523671875,299.19854820937246L829.3535130208334,304.3548008576901L830.9546588541667,301.5244903876487L832.4757473958333,298.14885767337233L834.0768932291667,284.7685333493382L835.6780390624999,292.918119249067L837.2791848958333,296.88235042520625L838.8403020833333,283.9580410064017L840.4414479166667,287.76551670127964L842.0425937499999,286.92341280655444L843.5636822916666,277.79697544251206L845.1247994791667,272.32947262389365L846.7259453125,260.8562980386471L848.3270911458333,264.11739973932185L849.9282369791666,272.7805619937943L851.4893541666667,277.97952911857294L853.0905,276.77196463113273L854.6516171875,285.7932488598295L856.2527630208334,290.72266696495603L857.8539088541667,297.69368412682013L859.4550546875,300.1196790106044L861.0562005208334,297.7430371509745L862.6173177083334,292.50557164471434L864.2184635416667,297.2413236404768L865.819609375,300.5797032935541L867.4207552083334,292.75203051974347L869.0219010416666,300.8540543641785L870.623046875,307.32364151921L872.1841640625,318.37245911044283L873.74528125,309.65009893297326L875.2663697916666,312.43987026472405L876.8274869791667,307.62050652725463L878.4286328125,313.77298407635107L879.9497213541666,312.6015784988639L881.5108385416667,306.48371523748057L883.0319270833334,304.00743417157616L884.5930442708334,305.97668534574865L886.1941901041668,299.14820068837287L887.7953359375,299.7555074772993L889.3164244791667,296.2466943096821L890.8775416666667,295.07668006600755L892.4786875000001,289.28538983533144L894.0798333333333,291.8882368215075L895.6409505208333,301.1006153420728L896.9618958333333,297.1653885999555L898.4429557291667,295.4263185207802L900.0040729166666,297.86533263778415L901.5251614583333,302.38807106697664L903.0062213541667,302.7351282615575L904.48728125,299.77709790358426L905.9683411458333,305.5894627634161L907.4093723958333,313.5437391054171L908.8904322916667,308.2571117149333L910.3314635416667,311.9188299913062L911.8525520833334,320.04654343511567L913.3336119791667,325.10919509556L914.8547005208333,326.7806715634847L919.1777942708334,325.94594681932256L920.6188255208333,324.63012177527264L922.1399140625,321.3187543499366L923.6610026041666,314.7426301983253L925.2221197916666,311.546531425004L926.7432083333333,318.32666207237656L929.5852421875,311.4953757290107L931.1063307291666,315.94574082024445L933.9483645833333,317.2880227160598L935.3493671875,312.35105678366165" style="fill: none;" fill="none"></path></g></g></g></g><g opacity="0.20000000298023224"><g><g><g><path stroke="rgb(255, 112, 67)" stroke-width="2px" d="M80.0973203125,238.329847433478L81.69846614583334,120.67431706377897L83.29961197916667,-127.69118666329706L92.90648697916666,-57.81984194725237L94.5076328125,11.334347617948083L96.10877864583334,68.97021973567797L97.70992447916666,-48.73094505364196L99.3110703125,76.03195873600771L100.91221614583334,80.16564742328973L102.51336197916667,-47.84674693415241L104.1145078125,203.12306763621814L105.71565364583333,28.32669613665945L107.31679947916668,0.10318213183796843L108.91794531250001,153.16147538678544L110.51909114583333,-29.50685848884774L112.12023697916666,-22.419678174621993L113.7213828125,139.118269979676L115.32252864583334,-92.15771840312124L116.92367447916666,140.51224405284964L118.5248203125,194.41848952953563L120.12596614583333,185.68042285642812L121.72711197916668,62.01924291922546L123.32825781249998,59.75766506096994L124.92940364583333,30.738972543827458L126.53054947916668,214.87525523637902L128.1316953125,218.17122993368687L129.73284114583333,230.07641529776848L131.33398697916667,198.2576787640177L132.9351328125,191.92444104076873L134.53627864583333,217.21615601242033L136.13742447916667,227.23918397754792L137.7385703125,118.22305396734015L139.33971614583334,164.30067227256424L140.94086197916667,78.00593478648813L142.5420078125,112.3149211059486L144.14315364583334,91.93772823156576L145.74429947916667,252.23929850662736L147.3454453125,301.98981282171275L148.94659114583334,149.96691606451682L150.54773697916667,211.0029772989517L152.14888281249998,217.44277863954105L153.75002864583334,210.1372728653984L155.35117447916667,166.06631945012023L156.9523203125,294.07678946456645L158.55346614583334,137.6705142684825L160.15461197916665,174.68657634552076L161.7557578125,135.1984082881642L163.35690364583334,140.25608151116603L164.95804947916665,221.6329480433309L166.5591953125,229.42903632413206L168.16034114583334,251.4337235438341L169.76148697916665,153.58917936126093L171.3626328125,209.35024157147632L172.96377864583332,153.60322456598544L174.56492447916668,242.88489226249527L176.1660703125,135.00407463702936L177.76721614583332,232.31370144963216L179.36836197916668,274.1295997796674L180.96950781249998,221.55897329958614L182.57065364583332,90.35411890314373L184.17179947916668,165.197865955144L185.77294531249998,146.83178645191882L187.37409114583335,305.4997394721282L188.97523697916668,122.63779669791722L190.5763828125,199.01487024576704L192.17752864583335,242.40420637695937L193.77867447916665,293.95453120564775L195.3798203125,201.90273427910475L196.98096614583335,287.42466061625566L198.58211197916665,278.3272916151691L200.18325781250002,310.8162743153017L201.78440364583332,187.12897829458106L203.38554947916666,233.17140861359144L204.98669531250002,87.30935843695823L206.58784114583332,310.65892803603924L208.18898697916666,145.27126923944957L209.79013281250002,176.7778623443585L211.39127864583332,188.71913538748313L212.9924244791667,275.28000701076803L214.5935703125,79.60943732302525L216.19471614583333,200.4985636871987L217.7958619791667,205.31471936846094L219.3970078125,204.5375347127265L220.99815364583333,152.26283219909172L222.59929947916666,225.23951669849671L224.2004453125,262.46340781910976L225.80159114583336,274.482129419959L227.40273697916666,212.4361379931361L229.0038828125,225.1701903677035L230.60502864583333,354.8785306998963L232.20617447916666,272.82714446041035L233.8073203125,295.0369116622642L235.40846614583333,338.2939929475453L237.00961197916666,270.45842818106235L238.61075781250003,-49.58455361693427L240.21190364583333,212.3963515769058L241.81304947916664,362.07464882087316L243.41419531250003,221.03230311388458L245.01534114583333,296.1012982622941L246.61648697916664,236.7573343166177L248.21763281250003,-43.26021285610864L249.81877864583333,231.728901110569L251.41992447916667,221.0244058101605L253.02107031250003,224.61128118895104L254.62221614583333,363.9807730371418L256.22336197916667,115.37157751065524L257.8245078125,231.56430730573697L259.42565364583334,320.6112301481947L261.02679947916664,247.45358243275737L262.6279453125,300.8893635341073L264.22909114583337,168.0904283843682L265.83023697916667,89.01097747482714L267.4313828125,234.3545546670926L269.03252864583334,300.53063600988025L270.63367447916664,294.24278279157744L272.2348203125,356.5031260349877L273.83596614583337,326.9882779139384L275.4371119791667,286.3540261493555L277.0382578125,225.74954256685572L278.6394036458333,365.63630780897506L280.2405494791667,88.11073483321462L281.8416953125,274.5021975683465L283.4428411458333,308.9319676501443L285.0439869791667,276.41446968561553L286.6451328125,193.763413183915L288.24627864583334,191.08762674362384L289.8474244791667,268.7571340322707L291.4485703125,292.5705537194666L293.0497161458333,309.0219869160121L294.6508619791667,247.00633513071148L296.2520078125,164.58642471174576L297.85315364583334,340.1275919251831L299.45429947916665,164.94120358411075L301.0554453125,249.68791959145827L302.6565911458333,-15.234831205479225L304.2577369791666,307.55468787724817L305.85888281250004,287.0151754215741L307.46002864583335,255.66882760615545L309.06117447916665,29.931798127115428L310.6623203125,275.75097121545366L312.2634661458333,356.73312251021844L313.8646119791667,272.79605507486355L315.4657578125,198.34789796162528L317.06690364583335,176.56813394925518L318.66804947916665,368.07545004368546L320.26919531249996,305.16600341538253L321.8703411458333,199.98124031033515L323.4714869791667,264.010579587944L325.0726328125,191.49633720281352L326.67377864583335,282.2246359944802L328.27492447916666,312.343252978411L329.87607031249996,314.0263783303437L331.4772161458334,191.69287010308673L333.0783619791667,217.82589783602984L334.6795078125,263.3222645905732L336.2806536458333,275.1650212688864L337.88179947916666,310.8126505525169L339.4829453125,261.7302581290774L341.0840911458333,256.4140731664487L342.6852369791667,318.98238626363144L344.2863828125,245.70203044286083L345.8875286458333,189.85434780635515L347.48867447916666,284.39614460393307L349.0898203125,207.77702869352655L350.69096614583333,135.6759952317324L352.2921119791667,259.5631980008363L353.8932578125,73.94017290782028L355.4944036458333,305.04322033564677L357.09554947916666,144.7078116136155L358.6966953125,146.10033618167526L360.29784114583333,286.5242180429034L361.89898697916664,273.0266763367813L363.5001328125,179.75009757191322L365.10127864583336,260.54906141003977L366.70242447916667,194.14038447940337L368.3035703125,184.57525018146873L369.90471614583333,282.8419252412691L371.50586197916664,163.1764061164491L373.1070078125,358.10835298278107L374.70815364583336,191.128912647903L376.30929947916667,304.99963521635937L377.9104453125,217.0282701598957L379.51159114583334,311.10942422885773L381.11273697916664,247.90487835253523L382.7138828125,160.20582032574816L384.31502864583337,311.04472131954856L385.91617447916667,306.0038173712267L387.5173203125,284.169971823227L389.11846614583334,253.7044982621228L390.71961197916664,223.70104196034598L392.3207578125,173.46274418296L393.92190364583337,247.1736280140315L395.5230494791667,202.83186705712566L397.1241953125,373.53930958766136L398.7253411458333,279.2669707924672L400.3264869791667,251.2372906094309L401.9276328125,271.881167433307L403.5287786458333,288.38550756651046L405.1299244791667,285.13604199018533L406.7310703125,329.26275136941433L408.33221614583334,98.48204388916207L409.9333619791667,178.14179667361964L411.5345078125,256.98762734514526L413.1356536458333,120.4950282760679L414.7367994791667,312.6265812452469L416.3379453125,81.6173517863453L417.93909114583334,254.5051748972897L419.54023697916665,320.89568303106716L421.1413828125,243.18319041835244L422.7425286458333,187.12288037651558L424.3436744791666,335.5708726678445L425.94482031250004,356.0193412074841L427.54596614583335,268.0882623966004L429.14711197916665,278.1511517523607L430.7482578125,288.43056718237926L432.3494036458333,256.8994574478711L433.9505494791667,214.26316421482628L435.5516953125,184.03153581494487L437.15284114583335,336.81349841395127L438.75398697916665,127.2357268851325L440.35513281249996,305.52820475358953L441.9562786458333,298.0675269578553L443.5574244791667,221.4099241875275L445.1585703125,278.27223541230774L446.75971614583335,370.2347878084749L448.36086197916666,350.766009785571L449.96200781249996,151.06099252791455L451.5631536458334,365.0513325296395L453.1642994791667,253.11599918587245L454.7654453125,247.15983272398182L456.3665911458333,310.49718325850006L457.96773697916666,271.8645730988994L459.5688828125,357.8618621390127L461.1700286458333,294.89735930784843L462.7711744791667,226.09222556895972L464.3723203125,284.09109875185595L465.9734661458333,286.39198818845966L467.57461197916666,321.3699711009279L469.1757578125,251.19380545601337L470.77690364583333,320.02363076477366L472.3780494791667,159.8498418629441L473.9791953125,295.4907067287902L475.5803411458333,312.61206120264023L477.18148697916666,223.51090687574802L478.7826328125,346.4647033258916L480.3837786458334,327.50989982320874L481.98492447916664,345.400641614939L483.5860703125,288.548052071009L485.18721614583336,277.24933464829684L486.78836197916667,216.3807412374544L488.3895078125,279.8050370873402L489.9906536458333,227.059695258097L491.59179947916664,299.3622349221931L493.1929453125,298.78515694658165L494.7940911458333,221.29811236201604L496.39523697916667,240.06590471353613L497.99638281250003,274.65507037492983L499.5975286458333,255.81367815167724L501.19867447916664,319.49441144938896L502.79982031250006,248.70125645529535L504.4009661458333,278.4330555055501L506.00211197916667,278.8373674664631L507.60325781250003,352.7122203156796L509.2044036458333,357.5230778058358L510.80554947916664,385.28977277656605L512.4066953125,328.5506694864688L514.0078411458333,201.7040021296932L515.6089869791667,350.24421293602825L517.2101328125001,248.07906888088013L518.8112786458333,273.95283513017193L520.4124244791667,321.8817463720106L522.0135703125001,138.3908183442294L523.6147161458333,315.7567125643486L525.2158619791667,382.2035764572965L526.8170078124999,244.88395974632695L528.4181536458333,314.3037836193865L530.0192994791666,296.7204868606116L531.6204453124999,256.87826468344696L533.2215911458334,308.775770978386L534.8227369791667,150.65398148851355L536.4238828125,302.81350659842997L538.0250286458333,381.7971652131151L539.6261744791667,329.59818684594876L541.2273203125,295.9340803533765L542.8284661458333,261.3937730109088L544.4296119791667,289.8866200607766L546.0307578124999,223.6826982232147L547.6319036458333,187.42102858356785L549.2330494791667,257.91236162488946L550.8341953125,304.6343599276522L552.4353411458334,251.01896514951397L554.0364869791667,294.2001223565868L555.6376328125,299.1035732337613L557.2387786458333,242.87489567550276L558.8399244791667,213.50312370578402L560.4410703125,247.57639050396065L562.0422161458333,250.25477605686984L563.6433619791667,312.3798654782712L565.2445078124999,332.81908717494264L566.8456536458334,123.82634090839437L568.4467994791667,200.47812066679896L570.0479453125,249.99576448789333L571.6490911458334,239.1672615258424L573.2502369791666,251.9539959138605L574.8513828125,229.6134733541443L576.4525286458334,337.61172588530496L578.0536744791666,255.07573009988846L579.6548203125,374.21372932911254L581.2559661458333,285.06896489146544L582.8571119791666,285.622375947372L584.4582578125,298.436675924022L586.0594036458334,136.88888113153635L587.6605494791667,332.8712443675762L589.2616953125,161.40331148158361L590.8628411458334,168.97172749362986L592.4639869791666,320.7414856767074L594.0651328125,78.6414178216034L595.6662786458334,213.63147988276816L597.2674244791666,363.08500386820845L598.8685703125,283.1009368102456L600.4697161458333,275.48918559358674L602.0708619791667,221.7032240498884L603.6720078125,294.0586956421099L605.2731536458334,286.8147688438413L606.8742994791667,241.2673445212336L608.4754453125,322.67772461129096L610.0765911458333,343.15483337266414L611.6777369791666,393.70594934851397L613.2788828125,361.4296940195825L614.8800286458332,280.65337245099397L616.4811744791666,268.0482760486302L618.0823203125,198.73976417173256L619.6834661458333,330.0471585592509L621.2846119791667,355.04022549450053L622.8857578125001,381.18414950726554L624.4869036458333,312.6576206478587L626.0880494791667,143.5744985462721L627.6891953125,280.5312141579452L629.2903411458333,213.32358500339816L630.8914869791666,343.7492304352401L632.4926328125,384.46782840257254L634.0937786458333,271.22119276006L635.6949244791667,252.34361289189445L637.2960703125001,321.6041661426954L638.8972161458333,360.28718409220596L640.4983619791667,300.94561932740777L642.0995078125001,202.04533559255324L643.7006536458333,162.8745591722096L645.3017994791667,345.1555253018821L646.9029453124999,352.5959100260215L648.5040911458333,136.834449715362L650.1052369791666,323.2992124246167L651.7063828124999,218.1427896436931L653.3075286458334,227.54837841322697L654.9086744791667,103.0447860901636L656.5098203125,307.4891102665772L658.1109661458333,158.9228083681916L659.7121119791667,78.44393524556591L661.3132578125,134.58746687411556L662.9144036458333,290.4246863556496L664.5155494791667,318.8061214434856L666.1166953124999,298.3100441582941L667.7178411458333,347.67506508747994L669.3189869791667,369.7630738597648L670.9201328125,372.57069029101996L672.5212786458334,369.5101852003212L674.1224244791667,341.5095950854332L675.7235703125,385.68493786038084L677.3247161458333,351.1292857568796L678.9258619791667,255.62504255512815L680.5270078125,146.30071776794057L682.1281536458333,328.7300082571148L683.7292994791667,189.31783098246592L685.3304453124999,320.99145033445564L686.9315911458334,194.00698002598804L688.5327369791667,306.44066822280035L690.1338828125,268.4768297330001L691.7350286458334,321.134251579644L693.3361744791666,357.7379544432403L694.9373203125,350.08316791957856L696.5384661458334,320.6131794826582L698.1396119791666,285.6711592918956L699.7407578125,308.2820395468248L701.3419036458333,352.500192705568L702.9430494791666,316.77603954850963L704.5441953125,369.2169103294278L706.1453411458334,296.45867624727714L707.7464869791667,241.32772390666852L709.3476328125,277.55028189970704L710.9487786458334,133.76919624584184L712.5499244791666,390.1487888245588L714.1510703125,255.1555028640889L715.7522161458334,333.6635738526043L717.3533619791666,335.8318335712846L718.9545078125,307.5789046092376L720.5556536458333,200.3131269984872L722.1567994791667,292.78415579202954L723.7579453125,220.8609616128326L725.3590911458334,270.75105327380123L726.9602369791667,198.7866981476625L728.5613828125,296.2628181166259L730.1625286458333,295.41230849530126L731.7636744791666,311.12154509058615L733.3648203125,270.6059278221371L734.9659661458332,256.6982261517114L736.5671119791666,401.16110402993485L738.1682578125,190.98171290443796L739.7694036458333,140.37524082811697L741.3705494791667,283.91450904263286L742.9716953125001,214.62334124416722L744.5728411458333,364.96513695829645L746.1739869791667,326.0372776018713L747.7751328125,363.6836244887888L749.3762786458333,108.0225366001601L750.9774244791666,270.1394120986631L752.5785703125,403.88085046152565L754.1797161458333,212.87248901536012L755.7808619791667,388.6302072945232L757.3820078125001,251.98133657928503L758.9831536458333,279.1686043764606L760.5842994791667,356.475985301303L762.1854453125001,203.4939410136411L763.7865911458333,152.47790876823606L765.3877369791667,260.7011594811312L766.9888828124999,276.2130634491835L768.5900286458333,283.90566206314446L770.1911744791666,318.0404078713251L771.7923203124999,314.17697691338617L773.3534375,317.94009212085507L774.9545833333333,317.12609503352064L776.5557291666667,369.9497601218503L778.156875,299.7702456202933L779.7580208333333,380.6690253795403L781.3591666666667,286.58744645563115L782.9603125,259.10780348039145L784.5614583333333,160.98630385519013L786.1626041666667,276.14128795457714L787.76375,348.22442752565456L789.3648958333333,251.5802235262097L790.9660416666667,390.2298861365357L792.5671874999999,213.30154252907963L794.1683333333333,319.4908126780716L795.7694791666667,368.97259374333026L797.370625,317.6841794938463L798.9717708333334,280.1152811646534L800.5729166666667,273.6290956604187L802.1740625,292.20960195463374L803.7752083333334,316.12906043835295L805.3763541666667,263.5641320128575L806.9775,315.25853265157576L808.5786458333333,319.45749905191906L810.1797916666667,294.2804949160068L811.7809374999999,250.89160863122908L813.3820833333333,262.7135224256629L814.9832291666667,334.7093668008281L816.584375,378.29958434763535L818.1855208333334,313.6825957036705L819.7866666666667,338.59329076210173L821.3477838541667,363.72343589648654L822.9489296875,224.28564236766928L824.5500755208334,232.52163045907685L826.1512213541668,260.6571245154291L827.7523671875,349.9531623057407L829.3535130208334,352.3557920064609L830.9546588541667,275.17634240365544L832.4757473958333,266.72415312706687L834.0768932291667,160.207369796732L835.6780390624999,368.784882831078L837.2791848958333,333.7864818896775L838.8403020833333,163.64204713856122L840.4414479166667,323.2103677577206L842.0425937499999,279.0840332505038L843.5636822916666,192.83642967209747L845.1247994791667,221.43096700314678L846.7259453125,154.0493222605272L848.3270911458333,294.4759032002433L849.9282369791666,353.4283508163571L851.4893541666667,326.3781612183167L853.0905,265.5304106913536L854.6516171875,369.77489482388347L856.2527630208334,336.6119922116493L857.8539088541667,362.5888232728341L859.4550546875,322.7039406606789L861.0562005208334,275.61821654019286L862.6173177083334,243.74854739571512L864.2184635416667,341.32775716803906L865.819609375,331.6576087237478L867.4207552083334,219.88204583158884L869.0219010416666,376.27804953453796L870.623046875,367.55082915831736L872.1841640625,421.22897751130125L873.74528125,228.4512201674575L875.2663697916666,338.4106281262807L876.8274869791667,262.7557080227714L878.4286328125,371.04811012618734L879.9497213541666,301.69663791668927L881.5108385416667,249.53082322687064L883.0319270833334,280.9550444549611L884.5930442708334,324.3089926681999L886.1941901041668,235.57993630063723L887.7953359375,305.4090954195735L889.3164244791667,263.582175852379L890.8775416666667,284.1846917975735L892.4786875000001,235.37265706934707L894.0798333333333,316.1188639196206L895.6409505208333,386.86121126032464L896.9618958333333,260.5312674851931L898.4429557291667,279.23683108268466L900.0040729166666,320.57079395380987L901.5251614583333,344.49150201090316L903.0062213541667,305.96598028945994L904.48728125,272.23996993193646L905.9683411458333,359.6983851183458L907.4093723958333,387.5923116500235L908.8904322916667,259.0424258014603L910.3314635416667,346.0067846672312L911.8525520833334,395.70969023676463L913.3336119791667,372.23882859433536L914.8547005208333,342.3409112597322L919.1777942708334,318.1752618298544L920.6188255208333,312.380740179633L922.1399140625,290.4923132666541L923.6610026041666,253.52366000342792L925.2221197916666,281.79315830841506L926.7432083333333,381.4447855216283L929.5852421875,247.9010296665431L931.1063307291666,357.3754282159561L933.9483645833333,329.7836985090627L935.3493671875,266.39146671195545" style="fill: none;" fill="none"></path></g></g></g></g></g></g><g transform="translate(68, 377)" clip-path="url(#clip_1)"><clipPath id="clip_1"><rect width="960" height="22"></rect></clipPath><g><g><line x1="0" y1="0" x2="0" y2="5" style="visibility: inherit;" fill="rgb(0, 0, 0)" stroke="rgb(204, 204, 204)" stroke-width="1px"></line><line x1="80.05729166666666" y1="0" x2="80.05729166666666" y2="5" style="visibility: inherit;" fill="rgb(0, 0, 0)" stroke="rgb(204, 204, 204)" stroke-width="1px"></line><line x1="160.11458333333331" y1="0" x2="160.11458333333331" y2="5" style="visibility: inherit;" fill="rgb(0, 0, 0)" stroke="rgb(204, 204, 204)" stroke-width="1px"></line><line x1="240.171875" y1="0" x2="240.171875" y2="5" style="visibility: inherit;" fill="rgb(0, 0, 0)" stroke="rgb(204, 204, 204)" stroke-width="1px"></line><line x1="320.22916666666663" y1="0" x2="320.22916666666663" y2="5" style="visibility: inherit;" fill="rgb(0, 0, 0)" stroke="rgb(204, 204, 204)" stroke-width="1px"></line><line x1="400.28645833333337" y1="0" x2="400.28645833333337" y2="5" style="visibility: inherit;" fill="rgb(0, 0, 0)" stroke="rgb(204, 204, 204)" stroke-width="1px"></line><line x1="480.34375" y1="0" x2="480.34375" y2="5" style="visibility: inherit;" fill="rgb(0, 0, 0)" stroke="rgb(204, 204, 204)" stroke-width="1px"></line><line x1="560.4010416666667" y1="0" x2="560.4010416666667" y2="5" style="visibility: inherit;" fill="rgb(0, 0, 0)" stroke="rgb(204, 204, 204)" stroke-width="1px"></line><line x1="640.4583333333333" y1="0" x2="640.4583333333333" y2="5" style="visibility: inherit;" fill="rgb(0, 0, 0)" stroke="rgb(204, 204, 204)" stroke-width="1px"></line><line x1="720.515625" y1="0" x2="720.515625" y2="5" style="visibility: inherit;" fill="rgb(0, 0, 0)" stroke="rgb(204, 204, 204)" stroke-width="1px"></line><line x1="800.5729166666667" y1="0" x2="800.5729166666667" y2="5" style="visibility: inherit;" fill="rgb(0, 0, 0)" stroke="rgb(204, 204, 204)" stroke-width="1px"></line><line x1="880.6302083333333" y1="0" x2="880.6302083333333" y2="5" style="visibility: inherit;" fill="rgb(0, 0, 0)" stroke="rgb(204, 204, 204)" stroke-width="1px"></line><line x1="960.6875" y1="0" x2="960.6875" y2="5" style="visibility: inherit;" fill="rgb(0, 0, 0)" stroke="rgb(204, 204, 204)" stroke-width="1px"></line></g><g transform="translate(0, 8)"><text x="0" y="0" dx="0em" dy="0.95em" style="text-anchor: middle; visibility: hidden; font-family: &quot;Helvetica Neue&quot;, sans-serif; font-size: 12px; font-weight: 200;" fill="rgb(50, 49, 63)" stroke="none" stroke-width="1px">-2k</text><text x="80.05729166666666" y="0" dx="0em" dy="0.95em" style="text-anchor: middle; visibility: inherit; font-family: &quot;Helvetica Neue&quot;, sans-serif; font-size: 12px; font-weight: 200;" fill="rgb(50, 49, 63)" stroke="none" stroke-width="1px">0</text><text x="160.11458333333331" y="0" dx="0em" dy="0.95em" style="text-anchor: middle; visibility: inherit; font-family: &quot;Helvetica Neue&quot;, sans-serif; font-size: 12px; font-weight: 200;" fill="rgb(50, 49, 63)" stroke="none" stroke-width="1px">2k</text><text x="240.171875" y="0" dx="0em" dy="0.95em" style="text-anchor: middle; visibility: inherit; font-family: &quot;Helvetica Neue&quot;, sans-serif; font-size: 12px; font-weight: 200;" fill="rgb(50, 49, 63)" stroke="none" stroke-width="1px">4k</text><text x="320.22916666666663" y="0" dx="0em" dy="0.95em" style="text-anchor: middle; visibility: inherit; font-family: &quot;Helvetica Neue&quot;, sans-serif; font-size: 12px; font-weight: 200;" fill="rgb(50, 49, 63)" stroke="none" stroke-width="1px">6k</text><text x="400.28645833333337" y="0" dx="0em" dy="0.95em" style="text-anchor: middle; visibility: inherit; font-family: &quot;Helvetica Neue&quot;, sans-serif; font-size: 12px; font-weight: 200;" fill="rgb(50, 49, 63)" stroke="none" stroke-width="1px">8k</text><text x="480.34375" y="0" dx="0em" dy="0.95em" style="text-anchor: middle; visibility: inherit; font-family: &quot;Helvetica Neue&quot;, sans-serif; font-size: 12px; font-weight: 200;" fill="rgb(50, 49, 63)" stroke="none" stroke-width="1px">10k</text><text x="560.4010416666667" y="0" dx="0em" dy="0.95em" style="text-anchor: middle; visibility: inherit; font-family: &quot;Helvetica Neue&quot;, sans-serif; font-size: 12px; font-weight: 200;" fill="rgb(50, 49, 63)" stroke="none" stroke-width="1px">12k</text><text x="640.4583333333333" y="0" dx="0em" dy="0.95em" style="text-anchor: middle; visibility: inherit; font-family: &quot;Helvetica Neue&quot;, sans-serif; font-size: 12px; font-weight: 200;" fill="rgb(50, 49, 63)" stroke="none" stroke-width="1px">14k</text><text x="720.515625" y="0" dx="0em" dy="0.95em" style="text-anchor: middle; visibility: inherit; font-family: &quot;Helvetica Neue&quot;, sans-serif; font-size: 12px; font-weight: 200;" fill="rgb(50, 49, 63)" stroke="none" stroke-width="1px">16k</text><text x="800.5729166666667" y="0" dx="0em" dy="0.95em" style="text-anchor: middle; visibility: inherit; font-family: &quot;Helvetica Neue&quot;, sans-serif; font-size: 12px; font-weight: 200;" fill="rgb(50, 49, 63)" stroke="none" stroke-width="1px">18k</text><text x="880.6302083333333" y="0" dx="0em" dy="0.95em" style="text-anchor: middle; visibility: inherit; font-family: &quot;Helvetica Neue&quot;, sans-serif; font-size: 12px; font-weight: 200;" fill="rgb(50, 49, 63)" stroke="none" stroke-width="1px">20k</text><text x="960.6875" y="0" dx="0em" dy="0.95em" style="text-anchor: middle; visibility: hidden; font-family: &quot;Helvetica Neue&quot;, sans-serif; font-size: 12px; font-weight: 200;" fill="rgb(50, 49, 63)" stroke="none" stroke-width="1px">22k</text></g><line x1="0" y1="0" x2="960.6875" y2="0" fill="rgb(0, 0, 0)" stroke="rgb(204, 204, 204)" stroke-width="1px"></line></g></g></g></g></svg>