<svg viewBox="0 0 1029 400" xmlns="http://www.w3.org/2000/svg"><g><g><g><g><g><line x1="78.03125" y1="376.3795217768454" x2="73.03125" y2="376.3795217768454" style="visibility: inherit;" fill="rgb(0, 0, 0)" stroke="rgb(204, 204, 204)" stroke-width="1px"></line><line x1="78.03125" y1="349.33721027093605" x2="73.03125" y2="349.33721027093605" style="visibility: inherit;" fill="rgb(0, 0, 0)" stroke="rgb(204, 204, 204)" stroke-width="1px"></line><line x1="78.03125" y1="322.29489876502663" x2="73.03125" y2="322.29489876502663" style="visibility: inherit;" fill="rgb(0, 0, 0)" stroke="rgb(204, 204, 204)" stroke-width="1px"></line><line x1="78.03125" y1="295.2525872591173" x2="73.03125" y2="295.2525872591173" style="visibility: inherit;" fill="rgb(0, 0, 0)" stroke="rgb(204, 204, 204)" stroke-width="1px"></line><line x1="78.03125" y1="268.21027575320795" x2="73.03125" y2="268.21027575320795" style="visibility: inherit;" fill="rgb(0, 0, 0)" stroke="rgb(204, 204, 204)" stroke-width="1px"></line><line x1="78.03125" y1="241.16796424729856" x2="73.03125" y2="241.16796424729856" style="visibility: inherit;" fill="rgb(0, 0, 0)" stroke="rgb(204, 204, 204)" stroke-width="1px"></line><line x1="78.03125" y1="214.1256527413892" x2="73.03125" y2="214.1256527413892" style="visibility: inherit;" fill="rgb(0, 0, 0)" stroke="rgb(204, 204, 204)" stroke-width="1px"></line><line x1="78.03125" y1="187.08334123547988" x2="73.03125" y2="187.08334123547988" style="visibility: inherit;" fill="rgb(0, 0, 0)" stroke="rgb(204, 204, 204)" stroke-width="1px"></line><line x1="78.03125" y1="160.04102972957043" x2="73.03125" y2="160.04102972957043" style="visibility: inherit;" fill="rgb(0, 0, 0)" stroke="rgb(204, 204, 204)" stroke-width="1px"></line><line x1="78.03125" y1="132.99871822366111" x2="73.03125" y2="132.99871822366111" style="visibility: inherit;" fill="rgb(0, 0, 0)" stroke="rgb(204, 204, 204)" stroke-width="1px"></line><line x1="78.03125" y1="105.9564067177518" x2="73.03125" y2="105.9564067177518" style="visibility: inherit;" fill="rgb(0, 0, 0)" stroke="rgb(204, 204, 204)" stroke-width="1px"></line><line x1="78.03125" y1="78.91409521184232" x2="73.03125" y2="78.91409521184232" style="visibility: inherit;" fill="rgb(0, 0, 0)" stroke="rgb(204, 204, 204)" stroke-width="1px"></line><line x1="78.03125" y1="51.87178370593301" x2="73.03125" y2="51.87178370593301" style="visibility: inherit;" fill="rgb(0, 0, 0)" stroke="rgb(204, 204, 204)" stroke-width="1px"></line><line x1="78.03125" y1="24.829472200023588" x2="73.03125" y2="24.829472200023588" style="visibility: inherit;" fill="rgb(0, 0, 0)" stroke="rgb(204, 204, 204)" stroke-width="1px"></line></g><g transform="translate(68.03125, 0)"><text x="0" y="376.3795217768454" dx="0em" dy="0.3em" style="text-anchor: end; visibility: hidden; font-family: &quot;Helvetica Neue&quot;, sans-serif; font-size: 12px; font-weight: 200;" fill="rgb(50, 49, 63)" stroke="none" stroke-width="1px">7e-4</text><text x="0" y="349.33721027093605" dx="0em" dy="0.3em" style="text-anchor: end; visibility: inherit; font-family: &quot;Helvetica Neue&quot;, sans-serif; font-size: 12px; font-weight: 200;" fill="rgb(50, 49, 63)" stroke="none" stroke-width="1px">7.5e-4</text><text x="0" y="322.29489876502663" dx="0em" dy="0.3em" style="text-anchor: end; visibility: inherit; font-family: &quot;Helvetica Neue&quot;, sans-serif; font-size: 12px; font-weight: 200;" fill="rgb(50, 49, 63)" stroke="none" stroke-width="1px">8e-4</text><text x="0" y="295.2525872591173" dx="0em" dy="0.3em" style="text-anchor: end; visibility: inherit; font-family: &quot;Helvetica Neue&quot;, sans-serif; font-size: 12px; font-weight: 200;" fill="rgb(50, 49, 63)" stroke="none" stroke-width="1px">8.5e-4</text><text x="0" y="268.21027575320795" dx="0em" dy="0.3em" style="text-anchor: end; visibility: inherit; font-family: &quot;Helvetica Neue&quot;, sans-serif; font-size: 12px; font-weight: 200;" fill="rgb(50, 49, 63)" stroke="none" stroke-width="1px">9e-4</text><text x="0" y="241.16796424729856" dx="0em" dy="0.3em" style="text-anchor: end; visibility: inherit; font-family: &quot;Helvetica Neue&quot;, sans-serif; font-size: 12px; font-weight: 200;" fill="rgb(50, 49, 63)" stroke="none" stroke-width="1px">9.5e-4</text><text x="0" y="214.1256527413892" dx="0em" dy="0.3em" style="text-anchor: end; visibility: inherit; font-family: &quot;Helvetica Neue&quot;, sans-serif; font-size: 12px; font-weight: 200;" fill="rgb(50, 49, 63)" stroke="none" stroke-width="1px">1e-3</text><text x="0" y="187.08334123547988" dx="0em" dy="0.3em" style="text-anchor: end; visibility: inherit; font-family: &quot;Helvetica Neue&quot;, sans-serif; font-size: 12px; font-weight: 200;" fill="rgb(50, 49, 63)" stroke="none" stroke-width="1px">1.05e-3</text><text x="0" y="160.04102972957043" dx="0em" dy="0.3em" style="text-anchor: end; visibility: inherit; font-family: &quot;Helvetica Neue&quot;, sans-serif; font-size: 12px; font-weight: 200;" fill="rgb(50, 49, 63)" stroke="none" stroke-width="1px">1.1e-3</text><text x="0" y="132.99871822366111" dx="0em" dy="0.3em" style="text-anchor: end; visibility: inherit; font-family: &quot;Helvetica Neue&quot;, sans-serif; font-size: 12px; font-weight: 200;" fill="rgb(50, 49, 63)" stroke="none" stroke-width="1px">1.15e-3</text><text x="0" y="105.9564067177518" dx="0em" dy="0.3em" style="text-anchor: end; visibility: inherit; font-family: &quot;Helvetica Neue&quot;, sans-serif; font-size: 12px; font-weight: 200;" fill="rgb(50, 49, 63)" stroke="none" stroke-width="1px">1.2e-3</text><text x="0" y="78.91409521184232" dx="0em" dy="0.3em" style="text-anchor: end; visibility: inherit; font-family: &quot;Helvetica Neue&quot;, sans-serif; font-size: 12px; font-weight: 200;" fill="rgb(50, 49, 63)" stroke="none" stroke-width="1px">1.25e-3</text><text x="0" y="51.87178370593301" dx="0em" dy="0.3em" style="text-anchor: end; visibility: inherit; font-family: &quot;Helvetica Neue&quot;, sans-serif; font-size: 12px; font-weight: 200;" fill="rgb(50, 49, 63)" stroke="none" stroke-width="1px">1.3e-3</text><text x="0" y="24.829472200023588" dx="0em" dy="0.3em" style="text-anchor: end; visibility: inherit; font-family: &quot;Helvetica Neue&quot;, sans-serif; font-size: 12px; font-weight: 200;" fill="rgb(50, 49, 63)" stroke="none" stroke-width="1px">1.35e-3</text></g><line x1="78.03125" y1="0" x2="78.03125" y2="377.828125" fill="rgb(0, 0, 0)" stroke="rgb(204, 204, 204)" stroke-width="1px"></line></g></g><g transform="translate(78, 0)" clip-path="url(#clip_0)"><clipPath id="clip_0"><rect width="950" height="377"></rect></clipPath><g><g><g><line x1="64.26234283421714" y1="0" x2="64.26234283421714" y2="377.828125" fill="rgb(0, 0, 0)" stroke="rgb(60, 60, 60)" stroke-width="1px" opacity="0.25"></line><line x1="137.99805516119747" y1="0" x2="137.99805516119747" y2="377.828125" fill="rgb(0, 0, 0)" stroke="rgb(60, 60, 60)" stroke-width="1px" opacity="0.25"></line><line x1="211.7337674881778" y1="0" x2="211.7337674881778" y2="377.828125" fill="rgb(0, 0, 0)" stroke="rgb(60, 60, 60)" stroke-width="1px" opacity="0.25"></line><line x1="285.46947981515814" y1="0" x2="285.46947981515814" y2="377.828125" fill="rgb(0, 0, 0)" stroke="rgb(60, 60, 60)" stroke-width="1px" opacity="0.25"></line><line x1="359.20519214213846" y1="0" x2="359.20519214213846" y2="377.828125" fill="rgb(0, 0, 0)" stroke="rgb(60, 60, 60)" stroke-width="1px" opacity="0.25"></line><line x1="432.9409044691188" y1="0" x2="432.9409044691188" y2="377.828125" fill="rgb(0, 0, 0)" stroke="rgb(60, 60, 60)" stroke-width="1px" opacity="0.25"></line><line x1="506.67661679609915" y1="0" x2="506.67661679609915" y2="377.828125" fill="rgb(0, 0, 0)" stroke="rgb(60, 60, 60)" stroke-width="1px" opacity="0.25"></line><line x1="580.4123291230795" y1="0" x2="580.4123291230795" y2="377.828125" fill="rgb(0, 0, 0)" stroke="rgb(60, 60, 60)" stroke-width="1px" opacity="0.25"></line><line x1="654.1480414500598" y1="0" x2="654.1480414500598" y2="377.828125" fill="rgb(0, 0, 0)" stroke="rgb(60, 60, 60)" stroke-width="1px" opacity="0.25"></line><line x1="727.8837537770402" y1="0" x2="727.8837537770402" y2="377.828125" fill="rgb(0, 0, 0)" stroke="rgb(60, 60, 60)" stroke-width="1px" opacity="0.25"></line><line x1="801.6194661040205" y1="0" x2="801.6194661040205" y2="377.828125" fill="rgb(0, 0, 0)" stroke="rgb(60, 60, 60)" stroke-width="1px" opacity="0.25"></line><line x1="875.3551784310008" y1="0" x2="875.3551784310008" y2="377.828125" fill="rgb(0, 0, 0)" stroke="rgb(60, 60, 60)" stroke-width="1px" opacity="0.25"></line><line x1="949.0908907579811" y1="0" x2="949.0908907579811" y2="377.828125" fill="rgb(0, 0, 0)" stroke="rgb(60, 60, 60)" stroke-width="1px" opacity="0.25"></line></g><g><line x1="0" y1="376.3795217768454" x2="950.96875" y2="376.3795217768454" fill="rgb(0, 0, 0)" stroke="rgb(60, 60, 60)" stroke-width="1px" opacity="0.25"></line><line x1="0" y1="349.33721027093605" x2="950.96875" y2="349.33721027093605" fill="rgb(0, 0, 0)" stroke="rgb(60, 60, 60)" stroke-width="1px" opacity="0.25"></line><line x1="0" y1="322.29489876502663" x2="950.96875" y2="322.29489876502663" fill="rgb(0, 0, 0)" stroke="rgb(60, 60, 60)" stroke-width="1px" opacity="0.25"></line><line x1="0" y1="295.2525872591173" x2="950.96875" y2="295.2525872591173" fill="rgb(0, 0, 0)" stroke="rgb(60, 60, 60)" stroke-width="1px" opacity="0.25"></line><line x1="0" y1="268.21027575320795" x2="950.96875" y2="268.21027575320795" fill="rgb(0, 0, 0)" stroke="rgb(60, 60, 60)" stroke-width="1px" opacity="0.25"></line><line x1="0" y1="241.16796424729856" x2="950.96875" y2="241.16796424729856" fill="rgb(0, 0, 0)" stroke="rgb(60, 60, 60)" stroke-width="1px" opacity="0.25"></line><line x1="0" y1="214.1256527413892" x2="950.96875" y2="214.1256527413892" fill="rgb(0, 0, 0)" stroke="rgb(60, 60, 60)" stroke-width="1px" opacity="0.25"></line><line x1="0" y1="187.08334123547988" x2="950.96875" y2="187.08334123547988" fill="rgb(0, 0, 0)" stroke="rgb(60, 60, 60)" stroke-width="1px" opacity="0.25"></line><line x1="0" y1="160.04102972957043" x2="950.96875" y2="160.04102972957043" fill="rgb(0, 0, 0)" stroke="rgb(60, 60, 60)" stroke-width="1px" opacity="0.25"></line><line x1="0" y1="132.99871822366111" x2="950.96875" y2="132.99871822366111" fill="rgb(0, 0, 0)" stroke="rgb(60, 60, 60)" stroke-width="1px" opacity="0.25"></line><line x1="0" y1="105.9564067177518" x2="950.96875" y2="105.9564067177518" fill="rgb(0, 0, 0)" stroke="rgb(60, 60, 60)" stroke-width="1px" opacity="0.25"></line><line x1="0" y1="78.91409521184232" x2="950.96875" y2="78.91409521184232" fill="rgb(0, 0, 0)" stroke="rgb(60, 60, 60)" stroke-width="1px" opacity="0.25"></line><line x1="0" y1="51.87178370593301" x2="950.96875" y2="51.87178370593301" fill="rgb(0, 0, 0)" stroke="rgb(60, 60, 60)" stroke-width="1px" opacity="0.25"></line><line x1="0" y1="24.829472200023588" x2="950.96875" y2="24.829472200023588" fill="rgb(0, 0, 0)" stroke="rgb(60, 60, 60)" stroke-width="1px" opacity="0.25"></line></g></g></g><g><g><line x1="0" y1="754.9718828595766" x2="950.96875" y2="754.9718828595766" fill="rgb(0, 0, 0)" stroke="rgb(153, 153, 153)" stroke-width="1.5px"></line></g></g><g><g><line x1="137.99805516119747" y1="0" x2="137.99805516119747" y2="377.828125" fill="rgb(0, 0, 0)" stroke="rgb(153, 153, 153)" stroke-width="1.5px"></line></g></g><g><g><g><g><g><path stroke="rgb(255, 112, 67)" stroke-width="2px" d="M138.03492301736097,158.07155694656163L139.50963726390054,-38.88319031454262L140.98435151044018,14.134421597896392L142.45906575697978,-11.541003011725195L143.9337800035194,84.07722030289705L145.408494250059,46.244147544352586L146.8832084965986,-27.3395426152872L149.8326369896778,-7.835314849309555L151.30735123621741,74.24572353898861L152.782065482757,99.99692399529823L154.25677972929662,119.33545424870863L155.73149397583623,95.87489950763626L157.20620822237584,82.1129813861939L158.68092246891544,23.28326300183113L160.15563671545505,81.8324996109896L161.63035096199465,41.9873384428771L163.10506520853426,18.20405980296215L164.57977945507386,38.65340428249539L166.05449370161347,14.656863495215816L167.52920794815307,-1.529738171053907L169.00392219469268,56.194596857351144L170.47863644123228,33.77026992624593L171.95335068777192,71.70648562759771L173.4280649343115,104.11192074125404L174.9027791808511,141.80524486724113L176.37749342739073,133.42954655995374L177.8522076739303,147.86738946154168L179.3269219204699,96.05212588359171L180.80163616700955,132.4876844935939L182.27635041354915,134.90497550861966L183.75106466008876,82.04711140527792L185.22577890662836,88.7339271844034L186.70049315316797,116.44864220616336L188.17520739970757,156.50250875240482L189.64992164624718,166.32687052627904L191.12463589278678,137.356412016818L192.5993501393264,129.8226593770717L194.074064385866,80.15003242092342L195.5487786324056,104.17692913739143L197.0234928789452,48.42568603874861L198.49820712548484,60.521872565703575L199.97292137202442,103.82340059341487L201.44763561856402,143.64967549588138L202.92234986510366,134.04662571000878L204.39706411164323,130.32290646467686L205.87177835818284,158.14392794372586L207.34649260472247,172.19547860116086L208.82120685126208,193.78729801547107L210.29592109780168,130.75704315737337L211.7706353443413,131.14300766004L213.2453495908809,161.73760950298748L214.7200638374205,197.66658295588974L216.1947780839601,171.58550654142195L217.6694923304997,129.6454663616151L219.1442065770393,124.17769108601428L220.61892082357892,89.28421342566764L222.09363507011852,128.20509203561252L223.56834931665813,141.97747687403725L225.04306356319776,158.06950889867696L226.51777780973734,171.99158949804072L227.99249205627694,204.58921058986226L229.46720630281658,225.8899672579619L230.94192054935615,255.6516746616963L232.41663479589576,234.39180637523566L233.8913490424354,161.93705504332914L235.366063288975,177.9424775779997L236.8407775355146,186.00458161312767L238.3154917820542,178.3034501897331L239.7902060285938,179.925127572625L241.26492027513342,177.02420671862257L242.73963452167303,207.91819009219824L244.2143487682126,226.2597124120154L245.68906301475224,214.17121855610063L247.16377726129184,241.1023073071112L248.63849150783147,253.49061723157612L250.11320575437105,235.58725712880698L251.58792000091066,217.96581734374075L253.0626342474503,208.55759726593928L254.53734849398987,223.13587547866095L256.0120627405295,242.7532785195002L257.4867769870691,268.6852164659418L258.9614912336087,274.4933452735197L260.43620548014826,237.0697382489859L261.91091972668795,204.9128814043752L263.3856339732275,182.84907264764124L264.8603482197671,201.79942424856773L266.33506246630674,178.80972371933802L267.8097767128463,181.0077623167357L269.28449095938595,170.78870019741578L270.7592052059256,172.55269219722484L272.23391945246516,156.07947725864915L273.7086336990048,150.28874432155246L275.18334794554437,120.96730114934797L276.65806219208395,143.21524994075958L278.1327764386236,123.33524452047354L279.6074906851632,136.59012074825193L281.0822049317028,167.41641376927961L282.5569191782424,185.22070815558092L284.031633424782,162.62852644886976L285.50634767132163,171.25750367954055L286.9810619178612,205.16029217719984L288.45577616440085,141.41565830837843L289.9304904109405,156.54991616323898L291.40520465748006,166.1687680444142L292.87991890401963,90.037743036471L294.35463315055927,126.21373418346249L295.82934739709884,126.71555364289034L297.3040616436385,83.14591271238038L298.7787758901781,117.09137847570577L300.2534901367177,92.12362230634955L301.7282043832573,85.4940161849251L303.2029186297969,122.58861421057759L304.6776328763365,127.64018665685819L306.15234712287617,144.05525296445205L307.62706136941574,182.3213588537687L309.1017756159553,212.71458459079645L310.57648986249495,200.56250213426395L312.05120410903453,192.39798875362857L313.5259183555741,173.08489797995858L315.0006326021138,161.25807527985796L316.4753468486534,180.26604646778384L317.95006109519295,214.81586626295575L319.4247753417326,232.38808699822602L320.89948958827216,253.38570019770165L322.3742038348118,274.1469543597152L323.8489180813514,286.5937809333717L325.323632327891,316.22019340709L326.79834657443064,272.08413282341047L328.2730608209702,290.9279690110609L329.7477750675098,236.7948074504309L331.2224893140494,253.38536816070396L332.69720356058906,264.76569982735543L334.17191780712864,249.5537072287317L335.64663205366827,246.6169176135947L337.12134630020785,236.81489133786582L338.5960605467475,223.18047321244936L340.07077479328706,224.2274507510311L341.5454890398267,216.25730575492435L343.0202032863663,246.88165905467346L344.4949175329059,259.5945639823326L345.9696317794455,280.4737105132298L347.4443460259851,243.6163092509795L348.9190602725247,185.1102468153164L350.3937745190643,194.9600836224516L351.86848876560396,228.90344137310487L353.34320301214353,230.31767759185433L354.8179172586831,189.2097277197685L356.29263150522274,219.18300702006724L357.7673457517623,207.60375055427494L359.242059998302,222.58448933825142L360.7167742448416,225.0619190714727L362.19148849138116,255.11874046109278L363.6662027379208,260.689014800466L365.1409169844604,221.3666298516907L366.61563123099995,223.53923360203655L368.09034547753964,240.8231312665131L369.5650597240792,241.49293578420532L371.0397739706188,214.36882477161916L372.51448821715843,222.00862993332203L373.989202463698,183.0887625428581L375.46391671023764,192.61427562508788L376.9386309567773,196.4985354062981L378.41334520331685,201.14543508819042L379.8880594498565,232.97355106090998L381.36277369639606,235.59974302643667L382.83748794293564,238.75796368492163L384.3122021894753,255.46386934886283L385.7869164360149,270.62558336152665L387.2616306825545,252.3633449360255L388.7363449290941,259.3892405386541L390.2110591756337,196.12435920442206L391.68577342217327,219.05718498169688L393.1604876687129,203.3574659988649L394.63520191525254,204.98614343696764L396.10991616179217,237.16095565267054L397.58463040833175,217.33993130751142L399.0593446548713,153.40625370138244L400.53405890141096,129.10001944550515L402.00877314795054,108.63761961613329L403.48348739449017,95.67952293822765L404.9582016410298,120.28228471838474L406.4329158875694,73.401077337184L407.90763013410896,104.86699236938063L409.3823443806486,147.21342866343798L410.85705862718817,118.13130624809884L412.33177287372786,135.33096626990908L413.80648712026743,170.16835566115955L415.281201366807,139.30134069845283L416.75591561334664,155.69567778793166L418.2306298598862,186.1289794200735L419.7053441064258,214.86133443957436L421.1800583529655,191.83129462747365L422.65477259950507,226.19672373890685L424.12948684604464,259.23199593053596L425.6042010925843,199.8998443707628L427.07891533912385,219.7418674695758L428.55362958566343,195.33529783199552L430.0283438322031,233.45713254622493L431.5030580787427,241.75108390649308L432.97777232528233,261.9827981699362L434.4524865718219,265.46318258520955L435.9272008183615,245.84111770016924L437.4019150649011,269.1153229176811L438.87662931144075,275.0231807196501L440.35134355798033,208.67653334206912L441.82605780451996,187.5185154246612L443.30077205105954,202.99452498628932L444.7754862975991,236.2162605384811L446.25020054413875,250.22381570601507L447.7249147906784,241.02938513144997L449.199629037218,205.24119992460305L450.6743432837576,187.96725836739392L452.14905753029717,168.91322991772097L453.6237717768368,177.43985080514582L455.0984860233764,208.3975811910261L456.573200269916,217.634255560114L458.04791451645565,226.5814455459044L459.5226287629952,238.1632426893683L460.9973430095348,266.0040631740684L462.47205725607444,258.7779336492948L463.946771502614,236.3101838221839L465.42148574915365,194.5370994162486L466.8961999956933,228.7596908365763L468.37091424223286,219.2448894926739L469.8456284887725,249.6510157916474L471.32034273531207,273.400903861611L472.79505698185164,219.44933149543417L474.26977122839133,215.36570313227244L475.7444854749309,249.71174228642275L477.21919972147055,220.97360708713256L478.69391396801007,202.1022816128492L480.1686282145497,224.53264738167803L481.64334246108933,241.05443980084743L483.1180567076289,243.24714505604464L484.59277095416854,261.11244681979554L486.0674852007082,242.28022091188575L487.5421994472477,260.7563018637264L489.01691369378733,273.8745862822102L490.49162794032696,267.6910751927543L491.96634218686654,295.373138571833L493.4410564334062,305.2935820828806L494.9157706799458,312.32914522701253L496.39048492648544,299.64971244538856L497.86519917302496,300.9092763093223L499.3399134195646,269.9406453842266L500.8146276661043,266.7203113356551L502.2893419126438,295.6525029174461L503.76405615918344,314.5395790193864L505.2387704057231,325.3549627695975L506.7134846522626,347.58117817372755L508.1881988988022,356.1237497200842L509.6629131453419,362.8284577726515L511.13762739188144,349.5192606044106L512.6123416384211,358.5653352216335L514.0870558849607,353.8210239408762L515.5617701315002,302.82708803954785L517.0364843780399,303.56826062918515L518.5111986245795,229.2907008693883L519.985912871119,239.2998848630384L521.4606271176586,198.63235649694096L522.9353413641984,235.741065501201L524.4100556107379,194.27122502532876L525.8847698572775,220.5607955362166L527.3594841038172,223.2642172449572L528.8341983503567,234.61505142895334L530.3089125968963,219.84347768332918L531.783626843436,199.62042891704033L533.2583410899756,216.80135378948634L534.7330553365151,210.14399923627613L536.2077695830548,203.56798137335943L537.6824838295944,208.79052221296726L539.1571980761339,226.68331191383714L540.6319123226737,239.90316074749737L542.1066265692133,241.3602740112135L543.5813408157528,225.15531220013915L545.0560550622924,202.98014806144127L546.5307693088321,234.3896839884246L548.0054835553716,247.5901500326909L549.4801978019112,260.8157171859308L550.9549120484509,205.4475718443159L552.4296262949904,212.9972824915812L553.90434054153,225.91578323869615L555.3790547880697,230.83364369433784L556.8537690346092,212.69632873030713L558.3284832811489,247.15347850182238L559.8031975276886,278.5144660194943L561.2779117742281,288.4746816624395L562.7526260207677,275.15298997911316L564.2273402673073,271.4139520450109L565.7020545138469,264.7408222753193L567.1767687603865,267.41797775799415L568.6514830069261,285.34446785961916L570.1261972534658,278.8775236894637L571.6009115000053,300.8775359684216L573.0756257465449,293.37187519819173L574.5503399930845,309.2337735371861L576.0250542396242,279.5695531329437L577.4997684861638,310.2008160871193L578.9744827327034,300.303079588362L580.449196979243,319.6818079156901L581.9239112257826,269.85556588766485L583.3986254723222,291.5451093793258L584.8733397188618,286.041529396647L586.3480539654014,262.98533706225294L587.822768211941,261.2261501772672L589.2974824584805,274.9247416265719L590.7721967050202,227.24376018169897L592.2469109515598,210.319024563784L593.7216251980994,219.80420787382585L595.1963394446391,243.96791198421798L596.6710536911787,213.2388273202689L598.1457679377182,248.3426677281091L599.6204821842579,250.14688780194462L601.0951964307975,246.42803689708904L602.569910677337,271.2542647688508L604.0446249238767,193.41042698270354L605.5193391704163,225.1395556898183L606.9940534169559,177.07583686522375L608.4687676634954,214.35523646728L609.9434819100351,228.40089237004563L611.4181961565748,209.89478826931634L612.8929104031143,191.50992987859945L614.367624649654,169.80143951856274L615.8423388961936,195.01052013630903L617.3170531427331,203.95669720752446L618.7917673892728,196.24899936673114L620.2664816358124,204.8777172214977L621.7411958823519,223.7306267018868L623.2159101288916,225.90436654784276L624.6906243754312,251.6576708328319L626.1653386219707,262.22197020839803L627.6400528685103,228.0931565734069L629.1147671150501,251.97008587762684L630.5894813615896,202.43841829672823L632.0641956081292,185.62593828483472L633.5389098546689,206.44742702977197L635.0136241012084,233.66612232646256L636.488338347748,253.80462905501446L637.9630525942877,244.29998641612852L639.4377668408272,267.95249167571586L640.9124810873668,294.2793149160842L642.3871953339064,285.88331001615467L643.8619095804461,290.51673358604006L645.3366238269856,285.2700369962931L646.8113380735253,312.34304512825366L648.286052320065,275.5040475858387L649.7607665666045,212.11922005308404L651.2354808131441,234.33442554667377L652.7101950596838,229.36613572860296L654.1849093062233,197.35599665979464L655.6596235527629,229.34087475747833L657.1343377993026,214.1740219588399L658.6090520458421,242.13301176815185L660.0837662923817,251.16234325631416L661.5584805389213,257.481777190302L663.0331947854609,255.55218936871768L664.5079090320006,282.280752325486L665.9826232785402,259.94404817360754L667.4573375250798,242.0215606470421L668.9320517716194,240.54912198179153L670.406766018159,236.0493894683058L671.8814802646986,215.13720276033766L673.3561945112382,185.64600534990458L674.8309087577778,224.98785959075383L676.3056230043173,252.1455083920402L677.780337250857,262.5323268195191L679.2550514973966,291.52772673503523L680.7297657439362,300.85477226937456L682.2044799904759,290.61795699100855L683.6791942370155,276.800349175525L685.1539084835551,254.48070870024657L686.6286227300947,277.4815995330097L688.1033369766343,287.8869394755426L689.5780512231739,246.26720850983043L691.0527654697134,249.0602900163964L692.5274797162531,280.63017631858867L694.0021939627927,285.71471223811324L695.4769082093322,298.95128224685266L696.9516224558719,258.28599419203397L698.4263367024115,282.94778798810097L699.9010509489511,309.7018857865436L701.3757651954908,263.3085229421755L702.8504794420304,221.2508076250887L704.3251936885699,245.4305835063487L705.7999079351096,262.4660757411005L707.2746221816492,253.36788277128255L708.7493364281887,285.4888486921031L710.2240506747283,308.0576487218026L711.698764921268,306.333980272236L713.1734791678075,323.3462831630448L714.6481934143471,337.2236494155707L716.1229076608868,315.0631806781765L717.5976219074265,311.3724339005613L719.072336153966,284.1339709323562L720.5470504005057,263.84938933434876L722.0217646470453,237.1976136798008L723.4964788935848,256.18142939726L724.9711931401245,274.60584174484757L726.4459073866641,300.7986038090045L727.9206216332036,225.40092903635536L729.3953358797432,235.6532262615564L730.8700501262829,187.75404486585956L732.3447643728224,158.84202464853905L733.819478619362,145.223735700384L735.2941928659018,148.86783966971663L736.7689071124413,178.18931480975886L738.2436213589809,189.9845288246702L739.7183356055206,207.46397800408627L741.1930498520601,229.3226823097218L742.6677640985997,233.8950768582719L744.1424783451394,245.2589989735163L745.6171925916789,180.38928082439818L747.0919068382185,217.89887143648977L748.5666210847581,239.4159489577482L750.0413353312978,252.14529007285068L751.5160495778373,265.22579117274506L752.990763824377,282.6318838367772L754.4654780709167,282.2677607705913L755.9401923174562,305.00203808537L757.4149065639958,289.10626432802263L758.8896208105355,246.90549577134882L760.364335057075,244.0582065854373L761.8390493036146,226.5908249631564L763.3137635501542,257.2543544713209L764.7884777966938,278.065067038021L766.2631920432334,276.0221597457251L767.737906289773,247.2373121863054L769.2126205363126,267.8750429550433L770.6873347828523,261.04819236344815L772.1620490293919,245.1208704621097L773.6367632759315,254.46677939905717L775.1114775224711,280.32397752389835L776.5493239128473,288.5718007157202L778.0240381593868,290.2933568646763L779.4987524059264,277.854641630722L780.9734666524661,301.40460314309814L782.4481808990056,332.7749653267667L783.9228951455452,336.14678898161344L785.3976093920849,341.24537258638617L786.8723236386244,316.6417180123043L788.347037885164,275.26921536555915L789.8217521317036,278.21929107276753L791.2964663782432,281.7271866662026L792.7711806247829,273.1081697036174L794.2458948713225,298.12310089301957L795.7206091178621,326.9074580595945L797.1953233644017,346.19603029106037L798.6700376109413,321.2365267109511L800.1447518574809,272.28274579677156L801.6194661040205,252.6721994032556L803.0941803505601,224.26776496163353L804.5688945970996,255.6184813153476L806.0436088436393,273.8309608937349L807.5183230901789,259.48945341954715L808.9930373367185,260.4048241872484L810.4677515832582,217.89625334860636L811.9424658297978,227.62735955087217L813.4171800763374,207.68230879774L814.891894322877,178.82189235837743L816.3666085694166,203.04376269781517L817.8413228159562,163.81146576464766L819.3160370624958,169.93834786331055L820.753883452872,185.81023053667425L822.2285976994115,152.17639397400694L823.7033119459511,153.56245596708135L825.1780261924907,185.75665664699162L826.6527404390303,189.75477888768677L828.1274546855699,195.60196082144836L829.6021689321095,212.08385153328663L831.0031474663222,225.0631175977725L832.4778617128618,187.92712051167842L833.9525759594013,224.41452199326702L835.427290205941,259.7741715451391L836.8651365963171,185.58251292260505L838.3398508428567,203.1098474909699L839.8145650893963,232.25611010570736L841.2155436236089,236.6256454513528L842.6533900139851,207.80124083732943L844.1281042605247,198.3540753335623L845.6028185070643,208.9854269553494L847.0775327536039,245.32137959821605L848.51537914398,250.62962819291621L849.9900933905196,201.06292056628325L851.4279397808958,228.46698047469013L852.9026540274353,258.7768243042298L854.377368273975,278.4797388772L855.8520825205146,298.1836794117475L857.3267967670541,261.2623277944262L858.7646431574303,197.75649239131718L860.2393574039698,215.05355405686484L861.7140716505095,216.61533773836405L863.1887858970491,161.52202483155256L864.6635001435886,165.96886038086535L866.1382143901283,195.73206962468558L867.5760607805045,221.85759432149507L869.0139071708805,217.2197997556067L870.4148857050931,215.68020065259694L871.8527320954693,193.03100214737876L873.3274463420089,235.85234083709832L874.7284248762215,261.22546966915877L876.1662712665976,248.0780267530764L877.5672498008103,191.6822583561673L879.0050961911863,204.6533387104928L880.479810437726,146.1740471324199L881.9545246842655,182.12197909906334L883.3555032184782,162.37237413587485L884.7933496088543,187.1612410466755L886.268063855394,199.11927384479168L887.7427781019336,199.07726636165512L889.1806244923097,201.42192432937074L890.3972637457048,187.90880540886272L891.761374423754,218.38013347652347L893.1992208141301,230.30900137024082L894.6001993483427,260.05994747430236L895.9643100263918,219.2897993262057L897.328420704441,206.73780235614913L898.6925313824902,241.35971231054256L900.0197742043758,275.1057969975445L901.3838848824249,249.93313519724848L902.7111277043106,271.3796210717916L904.1121062385232,293.14769094894586L905.4762169165723,315.8072771909209L906.8771954507849,328.5510261938583L910.8589239164419,349.6266785692632L912.1861667383275,372.90481087833155L913.5871452725402,347.29250385337957L914.9881238067528,320.3467997781538L916.4259701971289,316.03453418975107L917.8269487313415,329.91274082301624L920.4445665189494,280.073558828412L921.8455450531619,308.7103461394225L924.4631628407698,322.6786805286805L925.753537806492,318.0063240796894" style="fill: none;" fill="none"></path></g></g></g></g><g opacity="0.20000000298023224"><g><g><g><path stroke="rgb(255, 112, 67)" stroke-width="2px" d="M138.03492301736097,158.07155694656163L139.50963726390054,-216.73332709131967L140.98435151044018,105.24036306673872L142.45906575697978,-74.56706673159357L151.30735123621741,533.3267036216853L152.782065482757,253.30664591438585L154.25677972929662,240.76225485953984L155.73149397583623,-58.33003408975429L163.10506520853426,-164.12785480625485L164.57977945507386,198.68488478978549L166.05449370161347,-176.58724609738442L174.9027791808511,465.3266250566959L176.37749342739073,60.95095284974934L177.8522076739303,273.72286508701006L179.3269219204699,-358.60095494785537L180.80163616700955,454.08156557513433L182.27635041354915,156.3541209799743L183.75106466008876,-389.2079217180177L185.22577890662836,148.60573140794872L186.70049315316797,365.5540283319311L188.17520739970757,517.7621135550248L189.64992164624718,255.21246654248398L191.12463589278678,-125.48859925325411L192.5993501393264,61.29718522062092L194.074064385866,-372.690641707066L195.5487786324056,323.6674984724171L197.0234928789452,-461.814593959013L198.49820712548484,171.4116717153693L199.97292137202442,501.37922761492695L201.44763561856402,509.79399959379236L202.92234986510366,45.652821301642916L204.39706411164323,96.00919983877111L205.87177835818284,414.7665933819819L207.34649260472247,301.92392928587594L208.82120685126208,393.29111974648123L210.29592109780168,-452.0539766472739L211.7706353443413,134.71418854237925L213.2453495908809,444.9858353040215L217.6694923304997,-259.20594606235545L219.1442065770393,73.46266621765545L220.61892082357892,-234.4769333229416L222.09363507011852,489.45069132960043L223.56834931665813,269.8434443895984L225.04306356319776,307.5107119038049L226.51777780973734,301.31174209875394L227.99249205627694,507.4482894477647L230.94192054935615,532.264080649654L232.41663479589576,36.766505263212196L233.8913490424354,-511.675833131796L235.366063288975,326.76416579018235L236.8407775355146,260.9763320014888L238.3154917820542,106.68101461755026L239.7902060285938,195.00855056486816L241.26492027513342,150.04008667996644L242.73963452167303,495.313471328456L244.2143487682126,396.8959282443009L245.68906301475224,101.70160253346614L247.16377726129184,491.67946383773005L248.63849150783147,368.7620768215588L250.11320575437105,68.99136383223174L251.58792000091066,53.986449987553044L253.0626342474503,121.00448220837501L254.53734849398987,358.80627486721164L256.0120627405295,425.32507514247254L257.4867769870691,510.0306924543486L258.9614912336087,328.55026267701624L260.43620548014826,-111.24389811013992L266.33506246630674,-35.1779243742501L267.8097767128463,201.46733631434572L269.28449095938595,75.6674341628837L270.7592052059256,188.97249697360698L272.23391945246516,2.739966517344044L273.7086336990048,96.38571731064087L275.18334794554437,-151.97351822268536L276.65806219208395,350.3134447720001L278.1327764386236,-61.72183947597938L279.6074906851632,259.9765773732138L281.0822049317028,454.3725166181963L282.5569191782424,350.958309646062L284.031633424782,-47.679752584449886L285.50634767132163,251.58407848058152L286.9810619178612,520.76022836897L288.45577616440085,-451.9829546224796L289.9304904109405,297.43509176401153L291.40520465748006,255.7111318229537L292.87991890401963,-618.671394963243L294.35463315055927,462.9793408409698L295.82934739709884,131.3870459393666L297.3040616436385,-322.44935914628877L300.2534901367177,-140.30506547363416L301.7282043832573,23.777911739462922L303.2029186297969,467.908791952825L304.6776328763365,174.6662182238893L306.15234712287617,296.8663174191728L307.62706136941574,538.5483335509673L309.1017756159553,495.6515342775926L310.57648986249495,87.43612367033239L312.05120410903453,116.39270984306143L313.5259183555741,-6.705081301249379L315.0006326021138,51.159420809132655L316.4753468486534,357.2157718811075L317.95006109519295,536.4484930918379L331.2224893140494,407.8312737719949L332.69720356058906,370.70822511533135L334.17191780712864,107.94121481813119L335.64663205366827,219.2775571756062L337.12134630020785,145.56519541563026L338.5960605467475,96.25399915827438L340.07077479328706,233.9740478035702L341.5454890398267,142.0610644157236L343.0202032863663,531.9720907205913L348.9190602725247,-359.5387227114054L350.3937745190643,286.6549180271909L351.86848876560396,544.8914881403965L353.34320301214353,243.48319174028455L354.8179172586831,-193.4755028548674L356.29263150522274,498.2125299362775L357.7673457517623,99.8092559419868L359.242059998302,362.04432512529195L360.7167742448416,248.12499735544458L362.19148849138116,534.9260056574038L363.6662027379208,312.5442405041218L365.1409169844604,-144.69634215558847L366.61563123099995,243.76460392097385L368.09034547753964,401.72372593503L369.5650597240792,247.7283317914346L371.0397739706188,-38.13704948176456L372.51448821715843,293.12969632480474L373.989202463698,-179.22708690726483L375.46391671023764,281.2899218297739L376.9386309567773,232.658188498452L378.41334520331685,244.40471510454648L379.8880594498565,529.2703260087736L381.36277369639606,260.04769384218986L382.83748794293564,268.1587175913449L384.3122021894753,410.9837890826613L385.7869164360149,411.77019430400804L387.2616306825545,82.3550896465162L388.7363449290941,324.7952564485702L390.2110591756337,-392.8260153640924L391.68577342217327,432.5452384050915L393.1604876687129,57.20441511628104L394.63520191525254,220.1479547560624L396.10991616179217,536.6852331744851L397.58463040833175,32.82050141755599L399.0593446548713,-441.7701385677692L403.48348739449017,-24.95100465504146L404.9582016410298,349.31624013663657L406.4329158875694,-363.02912782354156L410.85705862718817,-152.60226462303513L412.33177287372786,295.4473880301999L413.80648712026743,494.4793088324582L415.281201366807,-148.04829209704883L416.75591561334664,308.315124482502L418.2306298598862,469.44105436008647L430.0283438322031,588.3439025359309L431.5030580787427,318.96178562749986L432.97777232528233,450.32545749789944L434.4524865718219,297.86304983362675L435.9272008183615,63.173854077903684L437.4019150649011,485.7813774555382L438.87662931144075,330.02107340325006L440.35134355798033,-408.96287421032207L441.82605780451996,-9.447362567105074L443.30077205105954,347.06500565391L444.7754862975991,545.4866438933814L446.25020054413875,380.62404569933784L447.7249147906784,155.43587168068512L449.199629037218,-127.92097767687846L450.6743432837576,27.159328265678255L452.14905753029717,-8.466024554301953L453.6237717768368,256.81653800938886L455.0984860233764,496.59171036778116L456.573200269916,303.62102827195935L458.04791451645565,309.8733275583939L459.5226287629952,345.98141607349544L460.9973430095348,525.1820105216804L462.47205725607444,191.50788251829812L463.946771502614,27.151646805549774L465.42148574915365,-194.3401708216212L466.8961999956933,547.3473202025278L468.37091424223286,130.66895534293263L469.8456284887725,532.7101090394076L472.79505698185164,-282.80087306542816L474.26977122839133,177.3500700225385L475.7444854749309,569.4485809873453L477.21919972147055,-46.557692740605205L478.69391396801007,26.423859939773365L480.1686282145497,433.3431658166309L481.64334246108933,394.8604042730502L483.1180567076289,263.6596486164405L484.59277095416854,427.4255137480873L486.0674852007082,66.96578798147539L487.5421994472477,432.75528226565297L489.01691369378733,395.9963474116353L490.49162794032696,210.12704927898724L491.96634218686654,553.0731718783151L493.4410564334062,397.64575208585563L494.9157706799458,377.8251608871258L496.39048492648544,181.61334335661473L497.86519917302496,312.6349069187527L499.3399134195646,-18.35496002785885L500.8146276661043,236.74132529623733L502.2893419126438,564.9903276397217L509.6629131453419,425.2444512925178L511.13762739188144,225.6202395441259L512.6123416384211,442.77776181242655L514.0870558849607,309.6549096470367L515.5617701315002,-171.88965545211124L517.0364843780399,310.4680425718632L518.5111986245795,-462.17977812905383L519.985912871119,332.4781647211402L521.4606271176586,-179.95298488940318L525.8847698572775,465.29772513703233L527.3594841038172,248.4311224303996L528.8341983503567,340.28312635812813L530.3089125968963,82.3307860103721L531.783626843436,11.358438855886106L533.2583410899756,376.7433657461674L534.7330553365151,148.16883262244627L536.2077695830548,142.3500006495715L537.6824838295944,257.4086085857647L539.1571980761339,393.2522717063234L540.6319123226737,362.9704132916794L542.1066265692133,254.9249469713647L543.5813408157528,74.29881204147335L545.0560550622924,-3.4546273739453L546.5307693088321,526.7897967930736L548.0054835553716,370.4769627952347L549.4801978019112,383.93620315882123L550.9549120484509,-309.9899048923711L552.4296262949904,283.2796403727996L553.90434054153,346.17770256489246L555.3790547880697,276.61537556488605L556.8537690346092,43.851015199218466L558.3284832811489,567.9246768901826L561.2779117742281,381.19710151375637L562.7526260207677,151.13765399930327L564.2273402673073,236.60620715332217L565.7020545138469,202.61879978015756L567.1767687603865,292.3403633338188L568.6514830069261,452.2271540633877L570.1261972534658,218.6749403322507L571.6009115000053,505.68177398797957L573.0756257465449,223.49958988358298L574.5503399930845,456.89660034245253L576.0250542396242,3.4170683388302905L577.4997684861638,595.3557691553535L578.9744827327034,208.16229548137903L580.449196979243,500.0837839937977L583.3986254723222,493.45910703880025L584.8733397188618,234.80717141356706L586.3480539654014,48.34882491836407L587.822768211941,244.84938979435927L589.2974824584805,402.4487424381372L590.7721967050202,-216.63176811437552L592.2469109515598,52.76194968773302L593.7216251980994,308.10441951266716L595.1963394446391,468.9145595273481L598.1457679377182,575.1340892567612L599.6204821842579,266.94287467486635L601.0951964307975,211.80821867972227L602.569910677337,502.3685304204042L608.4687676634954,561.3995441029153L609.9434819100351,359.15581278445L611.4181961565748,37.616314012012595L612.8929104031143,20.360165684607352L614.367624649654,-32.2889398124986L615.8423388961936,429.6888685674919L617.3170531427331,287.23914973646845L618.7917673892728,124.49589472511818L620.2664816358124,285.20485353958264L621.7411958823519,399.23760877190045L623.2159101288916,246.14031583545398L624.6906243754312,491.4023488673175L626.1653386219707,360.5679736737195L627.6400528685103,-89.62146932759163L630.5894813615896,-258.66566237905863L632.0641956081292,29.11388209164045L633.5389098546689,400.2804614285191L636.488338347748,441.2795937548336L637.9630525942877,155.81862246856082L639.4377668408272,488.1402468242449L640.9124810873668,539.3630405454921L642.3871953339064,207.7225633704194L643.8619095804461,333.65056331394146L645.3366238269856,236.42707802163832L646.8113380735253,564.3732136144436L651.2354808131441,441.14195710040093L652.7101950596838,183.1149428861503L654.1849093062233,-100.63529797045055L655.6596235527629,527.0970079761205L657.1343377993026,72.98156755502049L658.6090520458421,502.4110303022625L660.0837662923817,335.21890339869145L661.5584805389213,316.31114669948806L663.0331947854609,237.58911923582377L664.5079090320006,531.1043847993194L665.9826232785402,52.00545179065682L667.4573375250798,75.17613552860274L668.9320517716194,226.84178059291284L670.406766018159,194.16012699740236L671.8814802646986,20.459835777913327L673.3561945112382,-88.89576023381721L676.3056230043173,504.9636204287577L677.780337250857,359.22611073718286L679.2550514973966,561.4539754330879L680.7297657439362,387.68283533647144L682.2044799904759,195.32059414188936L683.6791942370155,148.16839188293073L685.1539084835551,46.70096283244834L686.6286227300947,491.6032946050219L689.5780512231739,-141.18245192355153L691.0527654697134,275.06186321669554L692.5274797162531,574.5230353998219L694.0021939627927,333.04807239616184L695.4769082093322,422.1741968642926L705.7999079351096,421.0542147924498L707.2746221816492,168.67027192854468L708.7493364281887,584.5118613364426L710.2240506747283,518.1568902353966L711.698764921268,290.28787089121886L713.1734791678075,481.7185461568629L714.6481934143471,466.4119146323848L716.1229076608868,108.76520882387706L717.5976219074265,277.0142448264739L719.072336153966,30.563537321127114L720.5470504005057,75.01457301475358L722.0217646470453,-10.911184423877842L727.9206216332036,-476.49701240387276L729.3953358797432,331.09471486317045L730.8700501262829,-258.1527675085149L732.3447643728224,-110.30801923022807L733.819478619362,18.447293224260136L735.2941928659018,182.791817858452L736.7689071124413,451.1510885361317L738.2436213589809,299.7894592933807L739.7183356055206,370.18503582895977L741.1930498520601,432.8114450724937L742.6677640985997,276.46077043910407L744.1424783451394,351.0489130979049L745.6171925916789,-423.50098194522786L748.5666210847581,439.7244128927627L750.0413353312978,370.64626973200023L751.5160495778373,386.99581687588494L752.990763824377,444.670045441118L754.4654780709167,278.8780377936233L755.9401923174562,516.6417537064544L757.4149065639958,141.12808182405695L758.8896208105355,-145.95320532840867L760.364335057075,217.5519990093748L761.8390493036146,63.98210738666501L763.3137635501542,542.7096858720687L764.7884777966938,471.7977829940032L766.2631920432334,257.00416711744435L767.737906289773,-20.728846021488778L769.2126205363126,459.9974232042217L770.6873347828523,197.49513994890728L772.1620490293919,96.8489975042894L773.6367632759315,341.47044713167077L775.1114775224711,521.0358322324721L776.5493239128473,365.3530825942267L778.0240381593868,306.31980225134987L779.4987524059264,162.05917919504492L780.9734666524661,520.6377500057334L782.4481808990056,624.8103988510215L783.9228951455452,367.53603393343434L785.3976093920849,388.70950655659L786.8723236386244,87.59944914224383L788.347037885164,-109.87892783042997L789.8217521317036,305.6823669862646L791.2964663782432,314.3831631700357L792.7711806247829,192.87134169109754L794.2458948713225,530.9940582541549L797.1953233644017,525.7587181777994L798.6700376109413,88.8815603930272L800.1447518574809,-183.44162704347696L801.6194661040205,70.11216442031775L803.0941803505601,-40.15702164439449L806.0436088436393,443.3760027420203L807.5183230901789,125.98036837633458L808.9930373367185,268.9262654577042L810.4677515832582,-177.82786487091653L811.9424658297978,318.21693584619226L813.4171800763374,22.008279621674887L814.891894322877,-89.84775758744115L817.8413228159562,-201.41290671628315L819.3160370624958,226.97519874055365L820.753883452872,333.5660042897406L822.2285976994115,-160.9303525836067L823.7033119459511,166.4656928716803L825.1780261924907,485.4614320486308L826.6527404390303,226.97441170570443L828.1274546855699,250.03500500894063L829.6021689321095,365.51835991256416L831.0031474663222,345.8907181774706L832.4778617128618,-157.78221318670205L836.8651365963171,-505.08828848098506L838.3398508428567,366.27668373049056L839.8145650893963,503.58678166352144L841.2155436236089,277.3028662463821L842.6533900139851,-60.533165002496105L844.1281042605247,110.40778203560598L845.6028185070643,307.9556384447694L847.0775327536039,583.5828768818101L848.51537914398,300.0455919147128L849.9900933905196,-260.3673576486615L858.7646431574303,-393.4370062582436L860.2393574039698,376.0767157474789L861.7140716505095,231.15441675273254L863.1887858970491,-351.356960270002L864.6635001435886,207.36569028838628L866.1382143901283,472.80606908004387L867.5760607805045,465.0673757773608L869.0139071708805,174.04527920924383L870.4148857050931,201.34764405447538L871.8527320954693,-17.816691153776105L874.7284248762215,497.43098859029897L876.1662712665976,125.68482104975317L877.5672498008103,-333.32164744186275L879.0050961911863,325.404736235811L880.479810437726,-398.22595590881497L884.7933496088543,417.9277031132018L886.268063855394,310.4399296870488L887.7427781019336,198.6862070083322L889.1806244923097,223.24899798758938L890.3972637457048,62.11141999423637L891.761374423754,502.0462081682522L893.1992208141301,341.35815299938315L894.6001993483427,537.0197859481941L895.9643100263918,-160.25085817617878L897.328420704441,89.88776870706585L898.6925313824902,563.6647091024731L900.0197742043758,589.2574925889126L901.3838848824249,15.593819674905717L902.7111277043106,471.03092771831126L912.1861667383275,589.6074240235755L913.5871452725402,108.86040855923943L914.9881238067528,69.50174019125797L916.4259701971289,275.8904535059608L917.8269487313415,459.1088293780514L924.4631628407698,452.7137934513612L925.753537806492,274.5100573432061" style="fill: none;" fill="none"></path></g></g></g></g></g></g><g transform="translate(78, 377)" clip-path="url(#clip_1)"><clipPath id="clip_1"><rect width="950" height="22"></rect></clipPath><g><g><line x1="64.26234283421714" y1="0" x2="64.26234283421714" y2="5" style="visibility: inherit;" fill="rgb(0, 0, 0)" stroke="rgb(204, 204, 204)" stroke-width="1px"></line><line x1="137.99805516119747" y1="0" x2="137.99805516119747" y2="5" style="visibility: inherit;" fill="rgb(0, 0, 0)" stroke="rgb(204, 204, 204)" stroke-width="1px"></line><line x1="211.7337674881778" y1="0" x2="211.7337674881778" y2="5" style="visibility: inherit;" fill="rgb(0, 0, 0)" stroke="rgb(204, 204, 204)" stroke-width="1px"></line><line x1="285.46947981515814" y1="0" x2="285.46947981515814" y2="5" style="visibility: inherit;" fill="rgb(0, 0, 0)" stroke="rgb(204, 204, 204)" stroke-width="1px"></line><line x1="359.20519214213846" y1="0" x2="359.20519214213846" y2="5" style="visibility: inherit;" fill="rgb(0, 0, 0)" stroke="rgb(204, 204, 204)" stroke-width="1px"></line><line x1="432.9409044691188" y1="0" x2="432.9409044691188" y2="5" style="visibility: inherit;" fill="rgb(0, 0, 0)" stroke="rgb(204, 204, 204)" stroke-width="1px"></line><line x1="506.67661679609915" y1="0" x2="506.67661679609915" y2="5" style="visibility: inherit;" fill="rgb(0, 0, 0)" stroke="rgb(204, 204, 204)" stroke-width="1px"></line><line x1="580.4123291230795" y1="0" x2="580.4123291230795" y2="5" style="visibility: inherit;" fill="rgb(0, 0, 0)" stroke="rgb(204, 204, 204)" stroke-width="1px"></line><line x1="654.1480414500598" y1="0" x2="654.1480414500598" y2="5" style="visibility: inherit;" fill="rgb(0, 0, 0)" stroke="rgb(204, 204, 204)" stroke-width="1px"></line><line x1="727.8837537770402" y1="0" x2="727.8837537770402" y2="5" style="visibility: inherit;" fill="rgb(0, 0, 0)" stroke="rgb(204, 204, 204)" stroke-width="1px"></line><line x1="801.6194661040205" y1="0" x2="801.6194661040205" y2="5" style="visibility: inherit;" fill="rgb(0, 0, 0)" stroke="rgb(204, 204, 204)" stroke-width="1px"></line><line x1="875.3551784310008" y1="0" x2="875.3551784310008" y2="5" style="visibility: inherit;" fill="rgb(0, 0, 0)" stroke="rgb(204, 204, 204)" stroke-width="1px"></line><line x1="949.0908907579811" y1="0" x2="949.0908907579811" y2="5" style="visibility: inherit;" fill="rgb(0, 0, 0)" stroke="rgb(204, 204, 204)" stroke-width="1px"></line></g><g transform="translate(0, 8)"><text x="64.26234283421714" y="0" dx="0em" dy="0.95em" style="text-anchor: middle; visibility: inherit; font-family: &quot;Helvetica Neue&quot;, sans-serif; font-size: 12px; font-weight: 200;" fill="rgb(50, 49, 63)" stroke="none" stroke-width="1px">-2k</text><text x="137.99805516119747" y="0" dx="0em" dy="0.95em" style="text-anchor: middle; visibility: inherit; font-family: &quot;Helvetica Neue&quot;, sans-serif; font-size: 12px; font-weight: 200;" fill="rgb(50, 49, 63)" stroke="none" stroke-width="1px">0</text><text x="211.7337674881778" y="0" dx="0em" dy="0.95em" style="text-anchor: middle; visibility: inherit; font-family: &quot;Helvetica Neue&quot;, sans-serif; font-size: 12px; font-weight: 200;" fill="rgb(50, 49, 63)" stroke="none" stroke-width="1px">2k</text><text x="285.46947981515814" y="0" dx="0em" dy="0.95em" style="text-anchor: middle; visibility: inherit; font-family: &quot;Helvetica Neue&quot;, sans-serif; font-size: 12px; font-weight: 200;" fill="rgb(50, 49, 63)" stroke="none" stroke-width="1px">4k</text><text x="359.20519214213846" y="0" dx="0em" dy="0.95em" style="text-anchor: middle; visibility: inherit; font-family: &quot;Helvetica Neue&quot;, sans-serif; font-size: 12px; font-weight: 200;" fill="rgb(50, 49, 63)" stroke="none" stroke-width="1px">6k</text><text x="432.9409044691188" y="0" dx="0em" dy="0.95em" style="text-anchor: middle; visibility: inherit; font-family: &quot;Helvetica Neue&quot;, sans-serif; font-size: 12px; font-weight: 200;" fill="rgb(50, 49, 63)" stroke="none" stroke-width="1px">8k</text><text x="506.67661679609915" y="0" dx="0em" dy="0.95em" style="text-anchor: middle; visibility: inherit; font-family: &quot;Helvetica Neue&quot;, sans-serif; font-size: 12px; font-weight: 200;" fill="rgb(50, 49, 63)" stroke="none" stroke-width="1px">10k</text><text x="580.4123291230795" y="0" dx="0em" dy="0.95em" style="text-anchor: middle; visibility: inherit; font-family: &quot;Helvetica Neue&quot;, sans-serif; font-size: 12px; font-weight: 200;" fill="rgb(50, 49, 63)" stroke="none" stroke-width="1px">12k</text><text x="654.1480414500598" y="0" dx="0em" dy="0.95em" style="text-anchor: middle; visibility: inherit; font-family: &quot;Helvetica Neue&quot;, sans-serif; font-size: 12px; font-weight: 200;" fill="rgb(50, 49, 63)" stroke="none" stroke-width="1px">14k</text><text x="727.8837537770402" y="0" dx="0em" dy="0.95em" style="text-anchor: middle; visibility: inherit; font-family: &quot;Helvetica Neue&quot;, sans-serif; font-size: 12px; font-weight: 200;" fill="rgb(50, 49, 63)" stroke="none" stroke-width="1px">16k</text><text x="801.6194661040205" y="0" dx="0em" dy="0.95em" style="text-anchor: middle; visibility: inherit; font-family: &quot;Helvetica Neue&quot;, sans-serif; font-size: 12px; font-weight: 200;" fill="rgb(50, 49, 63)" stroke="none" stroke-width="1px">18k</text><text x="875.3551784310008" y="0" dx="0em" dy="0.95em" style="text-anchor: middle; visibility: inherit; font-family: &quot;Helvetica Neue&quot;, sans-serif; font-size: 12px; font-weight: 200;" fill="rgb(50, 49, 63)" stroke="none" stroke-width="1px">20k</text><text x="949.0908907579811" y="0" dx="0em" dy="0.95em" style="text-anchor: middle; visibility: hidden; font-family: &quot;Helvetica Neue&quot;, sans-serif; font-size: 12px; font-weight: 200;" fill="rgb(50, 49, 63)" stroke="none" stroke-width="1px">22k</text></g><line x1="0" y1="0" x2="950.96875" y2="0" fill="rgb(0, 0, 0)" stroke="rgb(204, 204, 204)" stroke-width="1px"></line></g></g></g></g></svg>