<svg viewBox="0 0 1029 400" xmlns="http://www.w3.org/2000/svg"><g><g><g><g><g><line x1="68.3125" y1="360.35043482146085" x2="63.3125" y2="360.35043482146085" style="visibility: inherit;" fill="rgb(0, 0, 0)" stroke="rgb(204, 204, 204)" stroke-width="1px"></line><line x1="68.3125" y1="329.9049861449962" x2="63.3125" y2="329.9049861449962" style="visibility: inherit;" fill="rgb(0, 0, 0)" stroke="rgb(204, 204, 204)" stroke-width="1px"></line><line x1="68.3125" y1="299.4595374685316" x2="63.3125" y2="299.4595374685316" style="visibility: inherit;" fill="rgb(0, 0, 0)" stroke="rgb(204, 204, 204)" stroke-width="1px"></line><line x1="68.3125" y1="269.01408879206696" x2="63.3125" y2="269.01408879206696" style="visibility: inherit;" fill="rgb(0, 0, 0)" stroke="rgb(204, 204, 204)" stroke-width="1px"></line><line x1="68.3125" y1="238.5686401156023" x2="63.3125" y2="238.5686401156023" style="visibility: inherit;" fill="rgb(0, 0, 0)" stroke="rgb(204, 204, 204)" stroke-width="1px"></line><line x1="68.3125" y1="208.12319143913766" x2="63.3125" y2="208.12319143913766" style="visibility: inherit;" fill="rgb(0, 0, 0)" stroke="rgb(204, 204, 204)" stroke-width="1px"></line><line x1="68.3125" y1="177.67774276267303" x2="63.3125" y2="177.67774276267303" style="visibility: inherit;" fill="rgb(0, 0, 0)" stroke="rgb(204, 204, 204)" stroke-width="1px"></line><line x1="68.3125" y1="147.23229408620847" x2="63.3125" y2="147.23229408620847" style="visibility: inherit;" fill="rgb(0, 0, 0)" stroke="rgb(204, 204, 204)" stroke-width="1px"></line><line x1="68.3125" y1="116.78684540974376" x2="63.3125" y2="116.78684540974376" style="visibility: inherit;" fill="rgb(0, 0, 0)" stroke="rgb(204, 204, 204)" stroke-width="1px"></line><line x1="68.3125" y1="86.34139673327917" x2="63.3125" y2="86.34139673327917" style="visibility: inherit;" fill="rgb(0, 0, 0)" stroke="rgb(204, 204, 204)" stroke-width="1px"></line><line x1="68.3125" y1="55.89594805681446" x2="63.3125" y2="55.89594805681446" style="visibility: inherit;" fill="rgb(0, 0, 0)" stroke="rgb(204, 204, 204)" stroke-width="1px"></line><line x1="68.3125" y1="25.450499380349868" x2="63.3125" y2="25.450499380349868" style="visibility: inherit;" fill="rgb(0, 0, 0)" stroke="rgb(204, 204, 204)" stroke-width="1px"></line></g><g transform="translate(58.3125, 0)"><text x="0" y="360.35043482146085" dx="0em" dy="0.3em" style="text-anchor: end; visibility: inherit; font-family: &quot;Helvetica Neue&quot;, sans-serif; font-size: 12px; font-weight: 200;" fill="rgb(50, 49, 63)" stroke="none" stroke-width="1px">3.8e-4</text><text x="0" y="329.9049861449962" dx="0em" dy="0.3em" style="text-anchor: end; visibility: inherit; font-family: &quot;Helvetica Neue&quot;, sans-serif; font-size: 12px; font-weight: 200;" fill="rgb(50, 49, 63)" stroke="none" stroke-width="1px">4e-4</text><text x="0" y="299.4595374685316" dx="0em" dy="0.3em" style="text-anchor: end; visibility: inherit; font-family: &quot;Helvetica Neue&quot;, sans-serif; font-size: 12px; font-weight: 200;" fill="rgb(50, 49, 63)" stroke="none" stroke-width="1px">4.2e-4</text><text x="0" y="269.01408879206696" dx="0em" dy="0.3em" style="text-anchor: end; visibility: inherit; font-family: &quot;Helvetica Neue&quot;, sans-serif; font-size: 12px; font-weight: 200;" fill="rgb(50, 49, 63)" stroke="none" stroke-width="1px">4.4e-4</text><text x="0" y="238.5686401156023" dx="0em" dy="0.3em" style="text-anchor: end; visibility: inherit; font-family: &quot;Helvetica Neue&quot;, sans-serif; font-size: 12px; font-weight: 200;" fill="rgb(50, 49, 63)" stroke="none" stroke-width="1px">4.6e-4</text><text x="0" y="208.12319143913766" dx="0em" dy="0.3em" style="text-anchor: end; visibility: inherit; font-family: &quot;Helvetica Neue&quot;, sans-serif; font-size: 12px; font-weight: 200;" fill="rgb(50, 49, 63)" stroke="none" stroke-width="1px">4.8e-4</text><text x="0" y="177.67774276267303" dx="0em" dy="0.3em" style="text-anchor: end; visibility: inherit; font-family: &quot;Helvetica Neue&quot;, sans-serif; font-size: 12px; font-weight: 200;" fill="rgb(50, 49, 63)" stroke="none" stroke-width="1px">5e-4</text><text x="0" y="147.23229408620847" dx="0em" dy="0.3em" style="text-anchor: end; visibility: inherit; font-family: &quot;Helvetica Neue&quot;, sans-serif; font-size: 12px; font-weight: 200;" fill="rgb(50, 49, 63)" stroke="none" stroke-width="1px">5.2e-4</text><text x="0" y="116.78684540974376" dx="0em" dy="0.3em" style="text-anchor: end; visibility: inherit; font-family: &quot;Helvetica Neue&quot;, sans-serif; font-size: 12px; font-weight: 200;" fill="rgb(50, 49, 63)" stroke="none" stroke-width="1px">5.4e-4</text><text x="0" y="86.34139673327917" dx="0em" dy="0.3em" style="text-anchor: end; visibility: inherit; font-family: &quot;Helvetica Neue&quot;, sans-serif; font-size: 12px; font-weight: 200;" fill="rgb(50, 49, 63)" stroke="none" stroke-width="1px">5.6e-4</text><text x="0" y="55.89594805681446" dx="0em" dy="0.3em" style="text-anchor: end; visibility: inherit; font-family: &quot;Helvetica Neue&quot;, sans-serif; font-size: 12px; font-weight: 200;" fill="rgb(50, 49, 63)" stroke="none" stroke-width="1px">5.8e-4</text><text x="0" y="25.450499380349868" dx="0em" dy="0.3em" style="text-anchor: end; visibility: inherit; font-family: &quot;Helvetica Neue&quot;, sans-serif; font-size: 12px; font-weight: 200;" fill="rgb(50, 49, 63)" stroke="none" stroke-width="1px">6e-4</text></g><line x1="68.3125" y1="0" x2="68.3125" y2="377.828125" fill="rgb(0, 0, 0)" stroke="rgb(204, 204, 204)" stroke-width="1px"></line></g></g><g transform="translate(68, 0)" clip-path="url(#clip_0)"><clipPath id="clip_0"><rect width="960" height="377"></rect></clipPath><g><g><g><line x1="18.19354219258914" y1="0" x2="18.19354219258914" y2="377.828125" fill="rgb(0, 0, 0)" stroke="rgb(60, 60, 60)" stroke-width="1px" opacity="0.25"></line><line x1="89.15486041302819" y1="0" x2="89.15486041302819" y2="377.828125" fill="rgb(0, 0, 0)" stroke="rgb(60, 60, 60)" stroke-width="1px" opacity="0.25"></line><line x1="160.11617863346726" y1="0" x2="160.11617863346726" y2="377.828125" fill="rgb(0, 0, 0)" stroke="rgb(60, 60, 60)" stroke-width="1px" opacity="0.25"></line><line x1="231.0774968539063" y1="0" x2="231.0774968539063" y2="377.828125" fill="rgb(0, 0, 0)" stroke="rgb(60, 60, 60)" stroke-width="1px" opacity="0.25"></line><line x1="302.03881507434534" y1="0" x2="302.03881507434534" y2="377.828125" fill="rgb(0, 0, 0)" stroke="rgb(60, 60, 60)" stroke-width="1px" opacity="0.25"></line><line x1="373.0001332947844" y1="0" x2="373.0001332947844" y2="377.828125" fill="rgb(0, 0, 0)" stroke="rgb(60, 60, 60)" stroke-width="1px" opacity="0.25"></line><line x1="443.9614515152235" y1="0" x2="443.9614515152235" y2="377.828125" fill="rgb(0, 0, 0)" stroke="rgb(60, 60, 60)" stroke-width="1px" opacity="0.25"></line><line x1="514.9227697356625" y1="0" x2="514.9227697356625" y2="377.828125" fill="rgb(0, 0, 0)" stroke="rgb(60, 60, 60)" stroke-width="1px" opacity="0.25"></line><line x1="585.8840879561014" y1="0" x2="585.8840879561014" y2="377.828125" fill="rgb(0, 0, 0)" stroke="rgb(60, 60, 60)" stroke-width="1px" opacity="0.25"></line><line x1="656.8454061765406" y1="0" x2="656.8454061765406" y2="377.828125" fill="rgb(0, 0, 0)" stroke="rgb(60, 60, 60)" stroke-width="1px" opacity="0.25"></line><line x1="727.8067243969796" y1="0" x2="727.8067243969796" y2="377.828125" fill="rgb(0, 0, 0)" stroke="rgb(60, 60, 60)" stroke-width="1px" opacity="0.25"></line><line x1="798.7680426174186" y1="0" x2="798.7680426174186" y2="377.828125" fill="rgb(0, 0, 0)" stroke="rgb(60, 60, 60)" stroke-width="1px" opacity="0.25"></line><line x1="869.7293608378576" y1="0" x2="869.7293608378576" y2="377.828125" fill="rgb(0, 0, 0)" stroke="rgb(60, 60, 60)" stroke-width="1px" opacity="0.25"></line><line x1="940.6906790582967" y1="0" x2="940.6906790582967" y2="377.828125" fill="rgb(0, 0, 0)" stroke="rgb(60, 60, 60)" stroke-width="1px" opacity="0.25"></line></g><g><line x1="0" y1="360.35043482146085" x2="960.6875" y2="360.35043482146085" fill="rgb(0, 0, 0)" stroke="rgb(60, 60, 60)" stroke-width="1px" opacity="0.25"></line><line x1="0" y1="329.9049861449962" x2="960.6875" y2="329.9049861449962" fill="rgb(0, 0, 0)" stroke="rgb(60, 60, 60)" stroke-width="1px" opacity="0.25"></line><line x1="0" y1="299.4595374685316" x2="960.6875" y2="299.4595374685316" fill="rgb(0, 0, 0)" stroke="rgb(60, 60, 60)" stroke-width="1px" opacity="0.25"></line><line x1="0" y1="269.01408879206696" x2="960.6875" y2="269.01408879206696" fill="rgb(0, 0, 0)" stroke="rgb(60, 60, 60)" stroke-width="1px" opacity="0.25"></line><line x1="0" y1="238.5686401156023" x2="960.6875" y2="238.5686401156023" fill="rgb(0, 0, 0)" stroke="rgb(60, 60, 60)" stroke-width="1px" opacity="0.25"></line><line x1="0" y1="208.12319143913766" x2="960.6875" y2="208.12319143913766" fill="rgb(0, 0, 0)" stroke="rgb(60, 60, 60)" stroke-width="1px" opacity="0.25"></line><line x1="0" y1="177.67774276267303" x2="960.6875" y2="177.67774276267303" fill="rgb(0, 0, 0)" stroke="rgb(60, 60, 60)" stroke-width="1px" opacity="0.25"></line><line x1="0" y1="147.23229408620847" x2="960.6875" y2="147.23229408620847" fill="rgb(0, 0, 0)" stroke="rgb(60, 60, 60)" stroke-width="1px" opacity="0.25"></line><line x1="0" y1="116.78684540974376" x2="960.6875" y2="116.78684540974376" fill="rgb(0, 0, 0)" stroke="rgb(60, 60, 60)" stroke-width="1px" opacity="0.25"></line><line x1="0" y1="86.34139673327917" x2="960.6875" y2="86.34139673327917" fill="rgb(0, 0, 0)" stroke="rgb(60, 60, 60)" stroke-width="1px" opacity="0.25"></line><line x1="0" y1="55.89594805681446" x2="960.6875" y2="55.89594805681446" fill="rgb(0, 0, 0)" stroke="rgb(60, 60, 60)" stroke-width="1px" opacity="0.25"></line><line x1="0" y1="25.450499380349868" x2="960.6875" y2="25.450499380349868" fill="rgb(0, 0, 0)" stroke="rgb(60, 60, 60)" stroke-width="1px" opacity="0.25"></line></g></g></g><g><g><line x1="0" y1="938.8139596742892" x2="960.6875" y2="938.8139596742892" fill="rgb(0, 0, 0)" stroke="rgb(153, 153, 153)" stroke-width="1.5px"></line></g></g><g><g><line x1="160.11617863346726" y1="0" x2="160.11617863346726" y2="377.828125" fill="rgb(0, 0, 0)" stroke="rgb(153, 153, 153)" stroke-width="1.5px"></line></g></g><g><g><g><g><g><path stroke="rgb(255, 112, 67)" stroke-width="2px" d="M160.15165929257748,4.976887762486626L161.57088565698623,-28.062969958357826L182.85928112311797,-7.2219794343035915L184.27850748752672,17.473417758442167L185.6977338519355,3.1180709657666057L187.1169602163443,-21.333690741615953L188.53618658075305,15.200822028663879L189.95541294516187,7.514125713711962L191.37463930957063,-7.941194281841263L192.7938656739794,-3.1862803508852267L194.2130920383882,40.261561491348345L195.63231840279698,57.686007519404995L197.05154476720577,59.886979342599034L198.47077113161453,76.31769669661315L199.8899974960233,76.64562116181338L201.3092238604321,84.68972594043515L202.72845022484088,98.61965697100294L204.14767658924967,90.17814454658776L205.56690295365846,86.7273685475945L206.9861293180672,99.30341617365389L208.40535568247603,110.47425541834554L209.82458204688479,91.22506322596973L211.24380841129357,107.97136681424018L212.66303477570236,115.90836028798384L214.08226114011111,120.97089686374835L215.50148750451993,113.74295666765772L216.9207138689287,111.32460371956125L218.33994023333747,111.83168742696483L219.75916659774626,134.29138219690424L221.17839296215502,134.35185526732317L222.59761932656383,121.47907476717097L224.0168456909726,125.6308436420216L225.43607205538137,115.48738049473889L226.85529841979016,130.9108825022317L228.27452478419895,129.6824872811232L229.69375114860773,136.93012951029345L231.11297751301652,125.75859463754452L232.53220387742527,121.58065420618072L233.95143024183406,136.52203980356418L235.37065660624285,144.32824809265526L236.7898829706516,152.56388879809995L238.20910933506042,165.72640787950974L239.62833569946918,173.23306412023342L241.047562063878,162.7656369153219L242.46678842828675,184.22159458957324L243.8860147926955,193.2322804711993L245.3052411571043,200.13376984967155L246.7244675215131,217.01295714786147L248.1436938859219,208.6039377537171L249.56292025033065,203.93188203810868L250.98214661473943,175.6221795471624L252.4013729791482,187.49029699753768L253.820599343557,176.3093173899456L255.2398257079658,186.04122341013644L256.65905207237455,177.49377719252098L258.0782784367833,173.28439509549358L259.4975048011921,173.8610520971688L260.91673116560094,174.9594712797806L262.3359575300097,186.22891582437168L263.75518389441845,186.1821504841791L265.17441025882727,189.1316133338115L266.593636623236,181.63440242798987L268.01286298764484,187.7394904566768L269.4320893520536,174.03954684466004L270.85131571646235,150.66029897557692L272.27054208087117,148.8127620033955L273.6897684452799,148.9565785025477L275.1089948096887,155.67881123786998L276.5282211740975,153.05337698147358L277.94744753850625,159.0584497928376L279.36667390291507,151.68101842774547L280.7859002673238,148.3111336278268L282.2051266317326,134.6841147352675L283.6243529961414,147.01194106596333L285.0435793605502,155.4151474869149L286.46280572495897,131.0635039873745L287.8820320893677,157.80972047604163L289.3012584537765,168.5963861996702L290.7204848181853,174.40360594888398L292.1397111825941,155.26496088913578L293.55893754700287,157.75721640062608L294.9781639114116,170.88407678320982L296.3973902758204,180.34069933623212L297.81661664022926,195.2363984099999L299.235843004638,190.45543473792455L300.65506936904677,167.3737533624826L302.07429573345553,173.7766561906355L303.4935220978643,173.10945147154504L304.91274846227316,165.66134609700686L306.3319748266819,167.1152011326309L307.7512011910907,169.083784695013L309.17042755549943,150.8410988373262L310.58965391990824,142.74303253039002L312.00888028431706,122.82259854164897L313.4281066487258,121.39816627670365L314.8473330131346,116.34954785539355L316.26655937754333,114.97135868325864L317.68578574195215,125.17650610580702L319.1050121063609,139.30922111928535L320.5242384707697,166.00306250001898L321.9434648351785,167.62954618699533L323.36269119958723,172.9120453694195L324.78191756399605,196.06541780657315L326.2011439284048,182.81788360126146L327.6203702928136,164.07271402880252L329.0395966572224,172.1209433012155L330.4588230216312,173.12272396493626L331.87804938603995,173.30455161803093L333.2972757504487,165.80371361816856L334.7165021148575,161.6401688983399L336.1357284792663,162.5697294884295L337.5549548436751,182.3987737655202L338.97418120808385,200.8603752002491L340.3934075724926,192.25151640565855L341.8126339369014,184.49805602966075L343.23186030131023,179.9481966612541L344.651086665719,163.18342735892278L346.07031303012775,173.45246642172785L347.4895393945365,170.9675177234348L348.9087657589453,189.48278049057302L350.32799212335414,188.10042279191262L351.7472184877629,201.2638575838251L353.16644485217165,200.14685810276302L354.5856712165804,202.06257479886042L356.0048975809893,207.27978714365577L357.42412394539804,214.99616166911755L358.8433503098068,204.9938231269837L360.26257667421555,210.19142413815754L361.6818030386243,215.6629386869151L363.1010294030331,217.01514332234012L364.52025576744194,224.9875038308571L365.9394821318507,227.63205253327055L367.35870849625945,226.98552232047L368.77793486066827,213.88749315124406L370.197161225077,222.86185975803195L371.61638758948584,226.52945732798716L373.0356139538946,226.253912111833L374.45484031830335,232.31146034339713L375.87406668271217,256.9680194439784L377.2932930471209,268.39405940535937L378.71251941152974,257.79857582895386L380.1317457759385,248.82118268438717L381.55097214034726,249.21895767522014L382.97019850475607,232.52842906893602L384.3894248691648,232.13224546515204L385.80865123357364,252.37678208816124L387.2278775979824,238.79673719444634L388.6471039623912,229.6578927149843L390.06633032679997,234.1460744697335L391.4855566912087,209.62838072538108L392.90478305561754,223.7747372779318L394.3240094200263,225.66575475465612L395.7432357844351,199.7734518848253L397.1624621488439,209.26510007447686L398.58168851325263,218.98840291542112L400.00091487766144,215.11018978038777L401.42014124207026,227.95163726402336L402.839367606479,229.06578450629289L404.2585939708878,215.71411979731738L405.67782033529653,235.3046692021932L407.09704669970534,209.54111404421147L408.51627306411416,204.36916929167867L409.9354994285229,217.0442622740055L411.3547257929317,212.06150929796405L412.77395215734043,224.83210321229L414.19317852174925,209.3782894607546L415.61240488615806,205.66847417169467L417.0316312505668,222.4374661527165L418.4508576149756,229.87838771301566L419.87008397938433,222.68882733338805L421.28931034379315,244.98259905579474L422.70853670820196,245.611045760549L424.1277630726107,241.60384849396613L425.5469894370195,254.37694615963883L426.96621580142823,248.44668851013796L428.38544216583705,249.6708818310906L429.80466853024586,261.1315287051588L431.2238948946546,235.05923840799463L432.6431212590634,223.73802202137136L434.0623476234722,223.39447112353628L435.48157398788095,214.93336573737506L436.90080035228976,211.38416657433052L438.3200267166985,229.4273544033306L439.7392530811073,237.1002275091757L441.1584794455161,246.40259448792014L442.57770580992485,252.45592626025353L443.99693217433366,242.86677357512528L445.4161585387424,224.76706442305084L446.83538490315124,214.80985325373288L448.25461126756,232.28110885652345L449.67383763196875,248.4084476876168L451.09306399637757,237.12595326090366L452.5122903607863,238.44400464483877L453.93151672519514,239.89108715097288L455.3507430896039,236.5542551509419L456.76996945401265,244.58787733982584L458.1891958184214,246.02673670191572L459.6084221828302,246.26780135129061L461.02764854723904,250.512599125693L462.4468749116478,253.83840658586638L463.86610127605655,262.91520189459936L465.2853276404653,260.44768099580557L466.7045540048742,278.03656208744377L468.12378036928294,280.8202939333868L469.5430067336917,267.56191517436275L470.96223309810046,253.53433602426264L472.38145946250927,273.1523107335414L473.8006858269181,272.02211816996316L475.21991219132684,263.8040636089192L476.6391385557356,244.33206114528056L478.05836492014436,240.31568621255485L479.47759128455317,240.84775111806744L480.896817648962,242.76314852985848L482.31604401337074,260.5250837455626L483.7352703777795,257.66422782193604L485.15449674218826,266.16721044554964L486.5737231065971,266.5860722840887L487.99294947100583,274.4445567550264L489.4121758354146,275.7754141016579L490.83140219982334,282.3927129206039L492.2506285642322,292.0124259760454L493.66985492864103,276.0383747275356L495.0890812930498,272.3692228115701L496.50830765745854,272.6651045418022L497.9275340218673,268.65877310404875L499.3467603862761,270.98985234846316L500.7659867506849,244.43128618413965L502.18521311509363,218.26766136085163L503.6044394795024,233.81182892291415L505.0236658439112,245.04518688353218L506.4428922083201,243.36102124725048L507.86211857272883,244.17783610269083L509.2813449371376,252.50894952849654L510.70057130154635,243.62819924750264L512.1197976659552,233.9638650311124L513.5390240303639,254.7063360737792L514.9582503947727,253.03881826882338L516.3774767591815,249.8782218222998L517.7967031235902,251.62377028016905L519.215929487999,237.8174143877229L520.6351558524078,248.3989237130975L522.0543822168166,248.20114023419063L523.4736085812254,259.740469904052L524.8928349456341,238.83573260630075L526.312061310043,249.82550801236837L527.7312876744518,241.34124742161686L529.1505140388605,240.8562083199696L530.5697404032693,222.31201542295076L531.988966767678,199.5471835547532L533.4081931320868,188.0078135477349L534.8274194964956,192.50420478861545L536.2466458609044,211.85591697307714L537.6658722253133,224.02916259094914L539.085098589722,224.83584861023368L540.5043249541308,211.99466232341828L541.9235513185396,212.58105017562357L543.3427776829483,216.89029872890876L544.7620040473571,225.91626141740235L546.1812304117658,233.23402522414102L547.6004567761746,250.87798222330676L549.0196831405834,252.81612698954956L550.4389095049922,256.0181809823196L551.858135869401,225.62028893499772L553.2773622338098,226.05394533282015L554.6965885982186,227.8572992333242L556.1158149626274,208.92394715383918L557.5350413270361,214.60217100799827L558.9542676914449,216.21598852262292L560.3734940558537,216.65980297768667L561.7927204202624,219.3344306803525L563.2119467846712,212.27434196799962L564.63117314908,211.96866347876318L566.0503995134889,228.65137148426132L567.4696258778977,229.5701553200294L568.8888522423064,209.58726538790057L570.3080786067152,199.25793724504157L571.7273049711239,204.87114814934156L573.1465313355327,199.34124634391017L574.5657576999415,212.31874016000341L575.9849840643502,207.83246438676434L577.404210428759,211.2485710274057L578.8234367931677,225.21175575953785L580.2426631575767,222.323530696086L581.6618895219854,223.10116318055157L583.0811158863941,226.99126473445L584.5003422508029,214.79798155913835L585.9195686152117,228.5220286058304L587.3387949796204,236.16948819253176L588.7580213440293,226.169534015327L590.177247708438,228.7305730569817L591.5964740728468,237.77222185030686L593.0157004372556,221.12651009856273L594.4349268016643,227.4348599591608L595.8541531660732,236.74288395435724L597.2733795304819,240.50944571568283L598.6926058948907,239.56977958181076L600.1118322592995,257.67260685569744L601.5310586237082,250.64247051739585L602.9502849881171,223.93613881679715L604.3695113525258,207.02877484807337L605.7887377169346,209.20385988038333L607.2079640813434,219.1286382268877L608.6271904457521,215.19389051506843L610.046416810161,206.6432004211762L611.4656431745698,219.12193282196145L612.8848695389785,229.07075877310967L614.3040959033873,230.92144713463793L615.723322267796,225.9012599311821L617.1425486322048,244.99327730913117L618.5617749966137,259.747618302769L619.9810013610224,267.5733779200271L621.4002277254313,262.44848069337866L622.81945408984,258.8552790947616L624.2386804542488,265.02941804426376L625.6579068186576,248.51619077851032L627.0771331830663,258.26153955354295L628.4963595474751,274.4218215944318L629.9155859118838,261.52871237037516L631.3348122762926,250.67491760076905L632.7540386407015,235.40351022840647L634.1732650051102,238.37873959482027L635.592491369519,242.5962257627313L637.0117177339278,244.18980854782032L638.4309440983366,251.54024371187404L639.8501704627454,263.6535493802062L641.2693968271541,262.5780415811908L642.6886231915629,250.6168248358683L644.1078495559717,256.0816726649541L645.5270759203804,244.6462693878131L646.9463022847893,248.72958988499417L648.365528649198,238.24214456861955L649.7847550136069,220.92176741449077L651.2039813780157,211.47288643137816L652.6232077424244,218.80045460196936L654.0424341068332,233.7328114515427L655.4616604712419,228.03091316657674L656.8808868356507,220.34114283706356L658.3001132000595,227.76531635523247L659.7193395644682,233.0928265352007L661.138565928877,242.08599569425024L662.5577922932858,237.94110760235097L663.9770186576947,213.96267633726L665.3962450221035,197.109858081566L666.8154713865122,194.52262736271808L668.234697750921,205.51820199576903L669.6539241153298,209.8976370260382L671.0731504797385,232.40764677233136L672.4923768441473,237.90010449701907L673.911603208556,247.6560867967946L675.3308295729648,262.554770844119L676.7500559373738,261.3694275660546L678.1692823017825,262.0559084274162L679.5885086661913,256.71347133554264L681.0077350306,265.2668843058332L682.4269613950088,279.16068160704646L683.8461877594176,272.7160139564837L685.2654141238263,281.252224389488L686.6846404882351,283.3681064737092L688.1038668526438,297.8038510804216L689.5230932170526,290.4497565877322L690.9423195814616,276.7431591156823L692.3615459458703,260.3726130161991L693.7807723102791,253.1737713184793L695.1999986746878,250.92127590771358L696.6192250390966,251.94646662372753L698.0384514035054,264.1227906059208L699.4576777679141,277.8121425624498L700.8769041323229,273.92952890821704L702.2961304967317,270.9044902959249L703.7153568611404,256.4866118424297L705.1345832255492,251.37747021160357L706.5538095899581,247.35619456465048L707.9730359543669,242.9888365377059L709.3922623187757,232.48805411812538L710.8114886831844,233.032084058069L712.2307150475932,229.08293336494606L713.6499414120019,237.78296120262158L715.0691677764107,244.01006056537406L716.4883941408195,246.79400707645846L717.9076205052282,266.5795376727393L719.326846869637,275.5265640766408L720.7460732340459,272.4617684344316L722.1652995984547,266.24985032375105L723.5845259628635,277.73934771457596L725.0037523272722,286.5793197615457L726.422978691681,290.93754427609787L727.8422050560897,301.70994848238354L729.2614314204985,295.09677084155385L730.6806577849073,299.9978993534053L732.099884149316,281.85058085337636L733.5191105137249,257.53520995518153L734.9383368781338,266.9189795748289L736.3575632425425,258.1631409123761L737.7767896069513,272.7637069568586L739.19601597136,277.9908740645506L740.6152423357688,281.53313435654354L742.0344687001776,261.4111245614888L743.4536950645863,263.700561983432L744.8729214289951,260.1014076798205L746.2921477934038,268.61918039178124L747.7113741578127,281.04907485072965L749.1306005222215,270.04672954135094L750.5498268866303,272.90131949684934L751.9690532510391,268.71269871671905L753.3882796154478,266.5485874571713L754.8075059798566,283.0509241766577L756.2267323442654,273.13592640313743L757.6459587086741,255.69854751450637L759.065185073083,257.1888787663802L760.4844114374918,251.09495101303608L761.9036378019005,262.5257210566397L763.3228641663093,261.8817520060869L764.7420905307181,265.0486123454516L766.1613168951269,274.98384539341845L767.5805432595357,272.9823327771319L768.9997696239444,243.7830960604013L770.4189959883532,252.1153303310482L771.8382223527619,269.83815270497314L773.2574487171707,286.84727917921043L774.6411944224693,285.0648708924313L776.0604207868781,290.254100533723L777.4796471512869,277.8229456926633L778.8988735156956,268.7599521134941L780.3180998801045,251.41085055718264L781.7373262445132,276.301115843045L783.156552608922,263.0046610945812L784.5757789733308,273.53726475350345L785.9950053377396,274.73484767527566L787.4142317021484,269.10055241785926L788.8334580665571,266.4227956409435L790.2526844309659,251.20967586160992L791.6719107953747,255.45947263429352L793.0911371597834,255.64113939388244L794.5103635241923,267.99581008479436L795.9295898886011,258.8348754767953L797.3488162530098,255.87554389462707L798.7680426174186,248.3655166733425L800.1872689818273,256.70508072045465L801.6064953462362,261.9959658282604L803.025721710645,268.38525604505395L804.4449480750537,272.1856607494128L805.8641744394625,251.00909592857477L807.2834008038712,244.34331924974182L808.7026271682801,240.81270564936563L810.1218535326889,234.03589168186855L811.5410798970976,242.61847814432272L812.9603062615064,242.97598305574058L814.3795326259151,224.23639142636335L815.798758990324,224.9710583443372L817.1825046956225,227.7218622874815L818.6017310600313,228.46412384787152L820.0209574244401,240.48569153014907L821.4401837888488,258.3777858061893L822.8594101532577,254.15649860127087L824.2786365176664,258.15864530856715L825.6978628820752,264.3915092157622L827.0461279282636,260.614251664032L828.4653542926724,247.9679617442949L829.8845806570811,262.4997376196634L831.3038070214899,255.6468602899003L832.6875527267885,251.48817309797164L834.1067790911973,260.78455236355467L835.5260054556061,256.8081703422283L836.8742705017944,262.4444791714239L838.258016207093,257.6584048239588L839.6772425715018,259.5217550310032L841.0964689359105,275.0189363210252L842.5156953003193,267.19059385311385L843.8994410056177,253.70226825075906L845.3186673700267,256.84412566032097L846.7024130753251,254.0913049604489L848.1216394397339,276.59863055773627L849.5408658041428,288.02955365785L850.9600921685515,287.77143919678485L852.3793185329604,288.29775734466045L853.7630642382588,292.56022338716673L855.1822906026676,299.37326080966017L856.6015169670763,301.2550753153904L858.0207433314852,298.4557518542499L859.439969695894,291.70048907495266L860.8591960603028,305.17675121472735L862.2429417656014,307.32667031072873L863.6266874708999,305.1395618071208L864.9749525170882,315.94584885222275L866.3586982223868,302.34370976740365L867.7779245867956,298.36124192228095L869.1261896329839,293.4057964570284L870.5099353382825,293.2622441596932L871.8582003844708,294.14746298569145L873.2419460897694,309.39723877716267L874.6611724541782,303.0648566274991L876.0803988185869,303.2699291566152L877.4286638647752,310.0548331928664L878.8124095700739,312.4358972881871L880.2316359344826,306.5445589870116L881.6508622988914,295.49848504503507L883.03460800419,298.3932848861857L884.2054697548272,305.68023573119194L885.5182541419053,306.3186466602933L886.9019998472038,317.32156709465517L888.2502648933922,311.4297425527862L889.5630492804703,311.6722258081081L890.8758336675485,319.6800857193115L892.1886180546265,312.57102057467074L893.4659217825945,329.24017583134207L894.7787061696727,338.87094927050225L896.0560098976405,335.71597926963636L897.4042749438289,322.0941127505333L898.717059330907,324.25074612023536L900.0653243770954,331.1847802142047L903.8972355609991,341.1202309197719L905.1745392889669,343.4943509165067L906.5228043351552,345.87030557464885L907.8710693813435,348.41089471547895L909.2548150866422,354.0358288783001L910.6030801328305,360.3163685616681L913.1222069296562,353.9215984827831L914.4704719758445,340.9652302932732L916.98959877267,330.6611990716818L918.2314218415278,322.1484445217542" style="fill: none;" fill="none"></path></g></g></g></g><g opacity="0.20000000298023224"><g><g><g><path stroke="rgb(255, 112, 67)" stroke-width="2px" d="M160.15165929257748,4.976887762486626L161.57088565698623,-57.897961480280344L165.82856475021256,-359.2378944004855L167.24779111462135,1.4457736363797835L168.66701747903014,-196.04824943244057L170.08624384343892,-133.40821117143525L171.5054702078477,46.24221526560643L172.9246965722565,217.87052387857648L174.34392293666525,64.41109156306328L175.76314930107404,-126.20518493808225L177.18237566548282,83.52816118724888L178.6016020298916,-53.946314177026125L180.0208283943004,7.206528794210442L181.44005475870915,168.6498003133723L182.85928112311797,61.32806767649174L184.27850748752672,206.797989881627L185.6977338519355,-109.22330030540996L187.1169602163443,-216.20575322562433L188.53618658075305,311.11564828655855L189.95541294516187,-55.646965940403845L191.37463930957063,-136.5741720689233L192.7938656739794,36.84330761715273L194.2130920383882,409.7841975098933L195.63231840279698,207.23983326296826L197.05154476720577,78.93295457813241L198.47077113161453,219.54516921812518L199.8899974960233,79.52299470173648L201.3092238604321,155.6900062784828L202.72845022484088,222.22294479334315L204.14767658924967,14.91772143526265L205.56690295365846,55.830123602398885L206.9861293180672,212.33944044328402L208.40535568247603,211.227898420375L209.82458204688479,-82.93138176568283L211.24380841129357,259.90829090377446L212.66303477570236,188.1016306504241L214.08226114011111,167.12352893192167L215.50148750451993,47.7142586014578L216.9207138689287,89.19162485150429L218.33994023333747,116.4802938568302L219.75916659774626,340.49617301166893L221.17839296215502,134.9078166658954L222.59761932656383,2.9881716588420204L224.0168456909726,163.8889855061757L225.43607205538137,21.923506443935878L226.85529841979016,273.30563083599947L228.27452478419895,118.33237655146485L229.69375114860773,203.9456567086466L231.11297751301652,22.39268536787091L232.53220387742527,82.90081713031589L233.95143024183406,274.92520635473124L235.37065660624285,216.6727220478392L236.7898829706516,228.9214818475792L238.20910933506042,287.81216468131583L239.62833569946918,242.88400738250857L241.047562063878,65.61181745508287L242.46678842828675,383.42360783399056L243.8860147926955,276.9114414366818L245.3052411571043,264.24068642915313L246.7244675215131,373.8346805061452L248.1436938859219,130.46209161384758L249.56292025033065,160.5086820559022L250.98214661473943,-87.53624663782261L252.4013729791482,297.82835938804976L253.820599343557,72.34628501992432L255.2398257079658,276.54092742904544L256.65905207237455,98.00040376843629L258.0782784367833,134.13240877857612L259.4975048011921,179.225066676493L260.91673116560094,185.17765797602704L262.3359575300097,291.0716512358792L263.75518389441845,185.7470524548196L265.17441025882727,216.57454447508752L266.593636623236,111.87392265009038L268.01286298764484,244.54908306695154L269.4320893520536,46.55234297736712L270.85131571646235,-66.90752593859798L272.27054208087117,131.6189565866325L273.6897684452799,150.29502460469445L275.1089948096887,218.24183535747161L276.5282211740975,128.6181608476364L277.94744753850625,214.94960817733815L279.36667390291507,83.01547577574968L280.7859002673238,116.94530820863588L282.2051266317326,7.846012135860917L283.6243529961414,261.7590887836032L285.0435793605502,233.63307495652353L286.46280572495897,-95.60692160076428L287.8820320893677,406.7721042613973L289.3012584537765,269.00314048282627L290.7204848181853,228.46010042039697L292.1397111825941,-22.88853017879643L293.55893754700287,180.95673121104684L294.9781639114116,293.0781332270118L296.3973902758204,268.37012551916393L297.81661664022926,333.89762999249626L299.235843004638,145.95013536292765L300.65506936904677,-47.49122737652215L302.07429573345553,233.38085251894447L303.4935220978643,166.89846482110107L304.91274846227316,96.32695463577579L306.3319748266819,180.64917312889793L307.7512011910907,187.40942559777434L309.17042755549943,-18.981364050200455L310.58965391990824,67.35739343270711L312.00888028431706,-62.618902724536326L313.4281066487258,108.13794701838623L314.8473330131346,69.3512487955752L316.26655937754333,102.14158340753517L317.68578574195215,220.1779183580346L319.1050121063609,270.8731662807842L320.5242384707697,414.50101848597876L321.9434648351785,182.77080110901142L323.36269119958723,222.0879063268508L324.78191756399605,411.6050459135578L326.2011439284048,59.49370656538633L327.6203702928136,-10.43025695778266L329.0395966572224,247.04375038035425L330.4588230216312,182.44853411253325L331.87804938603995,174.9972284939365L333.2972757504487,95.9765989294039L334.7165021148575,122.8807095721466L336.1357284792663,171.22324006556224L337.5549548436751,366.9923328015699L338.97418120808385,372.7241131703303L340.3934075724926,112.1094424951932L341.8126339369014,112.31908882834341L343.23186030131023,137.5923707468133L344.651086665719,7.115794286541075L346.07031303012775,269.04965963959035L347.4895393945365,147.8344713395854L348.9087657589453,361.84629507240766L350.32799212335414,175.23168504402753L351.7472184877629,323.8058084280516L353.16644485217165,189.7484087998732L354.5856712165804,219.8964996115912L356.0048975809893,255.84823181328042L357.42412394539804,286.8299902181699L358.8433503098068,111.87932773306676L360.26257667421555,258.57731137281536L361.6818030386243,266.5987646375047L363.1010294030331,229.60318686198792L364.52025576744194,299.2043960451318L365.9394821318507,252.2508832687333L367.35870849625945,220.96679464883604L368.77793486066827,91.95433111578586L370.197161225077,306.4067134151436L371.61638758948584,260.6721354578409L373.0356139538946,223.6887855749593L374.45484031830335,288.70285146949243L375.87406668271217,486.50274907002654L377.2932930471209,374.7622281880625L378.71251941152974,159.16228474727274L380.1317457759385,165.24814235494614L381.55097214034726,252.92195533302453L382.97019850475607,77.15166960969685L384.3894248691648,228.44406238730306L385.80865123357364,440.8387916230877L387.2278775979824,112.37632954314267L388.6471039623912,144.58185189863963L390.06633032679997,275.9278049428946L391.4855566912087,-18.613641191969975L392.90478305561754,355.4671009533675L394.3240094200263,243.26976195198L395.7432357844351,-41.26519204313291L397.1624621488439,297.62549156059947L398.58168851325263,309.50533229522074L400.00091487766144,179.00682537533115L401.42014124207026,347.49624280965395L402.839367606479,239.4376910335889L404.2585939708878,91.41975954862812L405.67782033529653,417.67854271671956L407.09704669970534,-30.29898754735848L408.51627306411416,156.22209682394643L409.9354994285229,335.04022909054015L411.3547257929317,165.67567555758765L412.77395215734043,343.71711512205627L414.19317852174925,65.51443735359004L415.61240488615806,171.13277138164577L417.0316312505668,378.54467867257193L418.4508576149756,299.1479971055502L419.87008397938433,155.75920906216422L421.28931034379315,452.5215240449057L422.70853670820196,251.46143102646712L424.1277630726107,204.29973394755962L425.5469894370195,373.2852671127818L426.96621580142823,193.2402696184629L428.38544216583705,261.067238162624L429.80466853024586,367.8218801265708L431.2238948946546,-7.654968369195444L432.6431212590634,118.34566773911172L434.0623476234722,220.19626019698725L435.48157398788095,136.16658074397307L436.90080035228976,178.34368371966923L438.3200267166985,397.39641188736687L439.7392530811073,308.52913886651584L441.1584794455161,333.00091786591975L442.57770580992485,308.80807659126515L443.99693217433366,153.59868220620422L445.4161585387424,56.27183407186368L446.83538490315124,122.11540298743896L448.25461126756,394.92589023152266L449.67383763196875,398.5423337823225L451.09306399637757,132.09407224104982L452.5122903607863,250.71411184904161L453.93151672519514,253.36238098768348L455.3507430896039,205.490757272597L456.76996945401265,319.3751024180448L458.1891958184214,259.4214790042279L459.6084221828302,248.511939271788L461.02764854723904,290.0286031333104L462.4468749116478,284.7992739615611L463.86610127605655,347.41361592644915L465.2853276404653,237.4768421200439L466.7045540048742,441.77635199969893L468.12378036928294,306.73482853418636L469.5430067336917,144.13597685704542L470.96223309810046,122.94769715788692L472.38145946250927,455.781497943016L473.8006858269181,261.5008410076242L475.21991219132684,187.29990621156404L476.6391385557356,63.06177019315146L478.05836492014436,202.92613400821284L479.47759128455317,245.800891423494L480.896817648962,260.59411618635374L482.31604401337074,425.87588269793605L483.7352703777795,231.03172371027517L485.15449674218826,345.32384249272934L486.5737231065971,270.4853737292069L487.99294947100583,347.6013761039408L489.4121758354146,288.16473558562893L490.83140219982334,343.99498955179376L492.2506285642322,381.56501245740895L493.66985492864103,127.33148527550026L495.0890812930498,238.21206631671078L496.50830765745854,275.4195499272777L497.9275340218673,231.36271858664142L499.3467603862761,292.6905178912698L500.7659867506849,-2.809798824399877L503.6044394795024,378.5168114824723L505.0236658439112,349.6196429481203L506.4428922083201,227.68265455097185L507.86211857272883,251.7817929527159L509.2813449371376,330.065603378064L510.70057130154635,160.9548229212493L512.1197976659552,143.99588773924728L513.5390240303639,447.8037726856849L514.9582503947727,237.51543086817873L516.3774767591815,220.4553497481839L517.7967031235902,267.8735667486763L519.215929487999,109.29020437945354L520.6351558524078,346.9051393910381L522.0543822168166,246.359918775922L523.4736085812254,367.16330177866763L524.8928349456341,44.22771425792689L526.312061310043,352.1323862767228L527.7312876744518,162.35890398426628L529.1505140388605,236.34084431186466L530.5697404032693,49.678961959420405L531.988966767678,-12.37697290846313L533.4081931320868,80.584606163052L534.8274194964956,234.36236242270815L536.2466458609044,392.0063922569667L537.6658722253133,337.35329447672757L539.085098589722,232.34551330521094L540.5043249541308,92.45248482879111L541.9235513185396,218.0398979131566L543.3427776829483,257.00629299295355L544.7620040473571,309.9414604658739L546.1812304117658,301.35712540433894L547.6004567761746,415.1304891329352L549.0196831405834,270.85885610208436L550.4389095049922,285.8269928943771L551.858135869401,-57.36214940227558L553.2773622338098,230.0909734486286L554.6965885982186,244.64522265759734L556.1158149626274,32.668102537677896L557.5350413270361,267.46233740288164L558.9542676914449,231.23946497319596L560.3734940558537,220.791395275856L561.7927204202624,244.23328444846155L563.2119467846712,146.5500109653904L564.63117314908,209.12301733669662L566.0503995134889,383.9553439477836L567.4696258778977,238.12336979114724L568.8888522423064,23.560980762032102L570.3080786067152,103.09934638936971L571.7273049711239,257.12609089761077L573.1465313355327,147.86185118613798L574.5657576999415,333.12984238609454L575.9849840643502,166.06847445651192L577.404210428759,243.050058620177L578.8234367931677,355.1989290906122L580.2426631575767,195.43623964148128L581.6618895219854,230.34036043284303L583.0811158863941,263.2053029114608L584.5003422508029,101.287314473511L585.9195686152117,356.2830026590509L587.3387949796204,307.3618181594487L588.7580213440293,133.07717708733108L590.177247708438,252.57199836228205L591.5964740728468,321.94344721497004L593.0157004372556,66.16694605913449L594.4349268016643,286.16104474390215L595.8541531660732,323.3938702189158L597.2733795304819,275.57341757626983L598.6926058948907,230.8221659850426L600.1118322592995,426.1968648796083L601.5310586237082,185.19697450207386L602.9502849881171,-24.680536705267173L604.3695113525258,49.6334174897504L605.7887377169346,229.4523318821958L607.2079640813434,311.521162421665L608.6271904457521,178.56422882668988L610.046416810161,127.0424462481393L611.4656431745698,335.2899262024663L612.8848695389785,321.6871488131793L614.3040959033873,248.1500202321633L615.723322267796,179.1669398825173L617.1425486322048,422.726181353336L618.5617749966137,397.0998854909649L619.9810013610224,340.4255525013051L621.4002277254313,214.73938589272325L622.81945408984,225.40516524371924L624.2386804542488,322.5061960999392L625.6579068186576,94.78996169628999L627.0771331830663,348.9837039231757L628.4963595474751,424.8623853359022L629.9155859118838,141.5031698000328L631.3348122762926,149.63392093113836L632.7540386407015,93.23772819496907L634.1732650051102,266.0759779233939L635.592491369519,281.85797843926423L637.0117177339278,259.0249142688036L638.4309440983366,319.96749065146645L639.8501704627454,376.4196835915879L641.2693968271541,252.56584011200567L642.6886231915629,139.26652874281496L644.1078495559717,306.95546224912465L645.5270759203804,138.19091723051136L646.9463022847893,286.74235698761805L648.365528649198,140.61159693267973L649.7847550136069,59.681555350795634L651.2039813780157,123.51062325869131L652.6232077424244,287.0148263343792L654.0424341068332,372.7422777934477L655.4616604712419,174.95035490550183L656.8808868356507,148.754930388091L658.3001132000595,296.87901415839156L659.7193395644682,282.6881017157299L661.138565928877,325.80591064911374L662.5577922932858,199.3551906231242L663.9770186576947,-9.259214718174462L665.3962450221035,40.22228194866159L666.8154713865122,170.43737644396072L668.234697750921,307.8790668787067L669.6539241153298,250.6670167408128L671.0731504797385,441.95959317339066L672.4923768441473,289.0309222845764L673.911603208556,338.477241608107L675.3308295729648,401.25076769704594L676.7500559373738,250.33473704964067L678.1692823017825,268.4465498481335L679.5885086661913,206.97923737717167L681.0077350306,344.8929864931762L682.4269613950088,408.50190802968064L683.8461877594176,212.72080892083198L685.2654141238263,360.7181833688989L686.6846404882351,303.0654417525931L688.1038668526438,432.19021582125947L689.5230932170526,221.98844393929326L690.9423195814616,149.14462800989767L692.3615459458703,107.97464262616484L693.7807723102791,186.15775015310834L695.1999986746878,229.95216914563633L696.6192250390966,261.49025236146554L698.0384514035054,377.4755798422153L699.4576777679141,405.2501303639525L700.8769041323229,237.78519767345165L702.2961304967317,242.74356383303984L703.7153568611404,122.26656809494284L705.1345832255492,203.81504863803653L706.5538095899581,209.9210202430156L707.9730359543669,202.33188500852063L709.3922623187757,134.73334767605064L710.8114886831844,238.09661020001818L712.2307150475932,192.31919031453376L713.6499414120019,318.7739420007762L715.0691677764107,301.97986184955437L716.4883941408195,272.7105400610896L717.9076205052282,450.768549306158L719.326846869637,358.81692327997075L720.7460732340459,243.93073271365964L722.1652995984547,208.42137554081756L723.5845259628635,384.69827703328565L725.0037523272722,368.873080157563L726.422978691681,331.50946939610395L727.8422050560897,401.99325774295977L729.2614314204985,233.53285940166603L730.6806577849073,345.6238689018784L732.099884149316,112.91214162114738L733.5191105137249,31.176654067862046L734.9383368781338,354.27510294123596L736.3575632425425,176.6526016113972L737.7767896069513,408.6844403400312L739.19601597136,326.6520276547144L740.6152423357688,314.5090214046848L742.0344687001776,74.0897344075251L743.4536950645863,285.0135722103877L744.8729214289951,226.59587844104487L746.2921477934038,347.91349749384847L747.7113741578127,396.76242223661046L749.1306005222215,167.6228345478563L750.5498268866303,299.4754919691694L751.9690532510391,229.71966196973347L753.3882796154478,246.40227336055673L754.8075059798566,436.67577013228913L756.2267323442654,180.83445228469554L757.6459587086741,93.36913373683797L759.065185073083,271.0627872245464L760.4844114374918,194.36488130922467L761.9036378019005,368.9379411532798L763.3228641663093,255.88686486537404L764.7420905307181,294.5297967418046L766.1613168951269,367.4736953141812L767.5805432595357,254.34969471005294L768.9997696239444,-28.04072615823503L770.4189959883532,329.68241843820425L771.8382223527619,434.8248393405839L773.2574487171707,445.18997202700734L774.6411944224693,268.4719360165391L776.0604207868781,338.562083689253L777.4796471512869,162.0978650588814L778.8988735156956,184.39002219607258L780.3180998801045,89.90323503811851L781.7373262445132,508.01152360731027L783.156552608922,139.22426276609784L784.5757789733308,371.58820397006866L785.9950053377396,285.8834804418764L787.4142317021484,216.64932955758064L788.8334580665571,241.49481244965614L790.2526844309659,109.58650925606145L791.6719107953747,295.02201372432756L793.0911371597834,257.3323258259316L794.5103635241923,383.0088784754489L795.9295898886011,173.55318526006124L797.3488162530098,228.32630246475168L798.7680426174186,178.45258285045605L800.1872689818273,334.3404037569728L801.6064953462362,311.2502880174215L803.025721710645,327.86493713541034L804.4449480750537,307.564685986899L805.8641744394625,53.87055950365976L807.2834008038712,182.2897487241118L808.7026271682801,207.9452408953473L810.1218535326889,170.9486441287776L811.5410798970976,322.5161644906743L812.9603062615064,246.3040957878051L814.3795326259151,49.78431677350136L815.798758990324,231.81027717867087L817.1825046956225,253.32986188190745L818.6017310600313,235.3740433224302L820.0209574244401,352.3978112940311L821.4401837888488,424.940271695513L822.8594101532577,214.8593610132158L824.2786365176664,295.4157430063871L825.6978628820752,322.41497424872273L827.0461279282636,225.45070971338924L828.4653542926724,130.2401287801446L829.8845806570811,397.78008417077365L831.3038070214899,191.85151772519868L832.6875527267885,212.77379645558423L834.1067790911973,347.3271345988267L835.5260054556061,219.79092327771608L836.8742705017944,314.9144469318736L838.258016207093,213.1035065171446L839.6772425715018,276.8682007728706L841.0964689359105,419.2865105982398L842.5156953003193,194.3143747961665L843.8994410056177,128.1356907360544L845.3186673700267,286.09255082356185L846.7024130753251,228.46453081627928L848.1216394397339,486.1255894685668L849.5408658041428,394.4431986001466L850.9600921685515,285.368579832436L852.3793185329604,293.19739948416316L853.7630642382588,332.24070623647674L855.1822906026676,362.79772258813057L856.6015169670763,318.77341035327026L858.0207433314852,272.3960705613643L859.439969695894,228.81386753159825L860.8591960603028,430.63102659840337L862.2429417656014,327.34086560649365L863.6266874708999,284.7791599642555L864.9749525170882,416.54458289064615L866.3586982223868,175.71761086439767L867.7779245867956,261.28734023005643L869.1261896329839,247.27417527019242L870.5099353382825,291.9258758659445L871.8582003844708,302.38821143802545L873.2419460897694,451.3616464029208L874.6611724541782,244.11494857444544L876.0803988185869,305.1790064122008L877.4286638647752,373.21739344786505L878.8124095700739,334.6018857219459L880.2316359344826,251.70045088431698L881.6508622988914,192.66750803879978L883.03460800419,325.3417823764845L884.2054697548272,373.5164894738788L885.5182541419053,312.2617917013083L886.9019998472038,419.7508160867043L888.2502648933922,256.58110790012967L889.5630492804703,313.9295699272394L890.8758336675485,394.2274826246377L892.1886180546265,246.3907543312628L893.4659217825945,484.41798198365376L894.7787061696727,428.5264999463956L896.0560098976405,306.34548534405025L897.4042749438289,195.2843656706362L898.717059330907,344.3274464588012L900.0653243770954,395.73563368692976L903.8972355609991,433.61210707572326L905.1745392889669,365.5956948036352L906.5228043351552,367.988728835498L907.8710693813435,372.0619462017625L909.2548150866422,406.3999067033257L910.6030801328305,418.78366066559926L913.1222069296562,294.3909038308947L914.4704719758445,220.35079240536172L916.98959877267,234.73810429748556L918.2314218415278,242.9008428868613" style="fill: none;" fill="none"></path></g></g></g></g></g></g><g transform="translate(68, 377)" clip-path="url(#clip_1)"><clipPath id="clip_1"><rect width="960" height="22"></rect></clipPath><g><g><line x1="18.19354219258914" y1="0" x2="18.19354219258914" y2="5" style="visibility: inherit;" fill="rgb(0, 0, 0)" stroke="rgb(204, 204, 204)" stroke-width="1px"></line><line x1="89.15486041302819" y1="0" x2="89.15486041302819" y2="5" style="visibility: inherit;" fill="rgb(0, 0, 0)" stroke="rgb(204, 204, 204)" stroke-width="1px"></line><line x1="160.11617863346726" y1="0" x2="160.11617863346726" y2="5" style="visibility: inherit;" fill="rgb(0, 0, 0)" stroke="rgb(204, 204, 204)" stroke-width="1px"></line><line x1="231.0774968539063" y1="0" x2="231.0774968539063" y2="5" style="visibility: inherit;" fill="rgb(0, 0, 0)" stroke="rgb(204, 204, 204)" stroke-width="1px"></line><line x1="302.03881507434534" y1="0" x2="302.03881507434534" y2="5" style="visibility: inherit;" fill="rgb(0, 0, 0)" stroke="rgb(204, 204, 204)" stroke-width="1px"></line><line x1="373.0001332947844" y1="0" x2="373.0001332947844" y2="5" style="visibility: inherit;" fill="rgb(0, 0, 0)" stroke="rgb(204, 204, 204)" stroke-width="1px"></line><line x1="443.9614515152235" y1="0" x2="443.9614515152235" y2="5" style="visibility: inherit;" fill="rgb(0, 0, 0)" stroke="rgb(204, 204, 204)" stroke-width="1px"></line><line x1="514.9227697356625" y1="0" x2="514.9227697356625" y2="5" style="visibility: inherit;" fill="rgb(0, 0, 0)" stroke="rgb(204, 204, 204)" stroke-width="1px"></line><line x1="585.8840879561014" y1="0" x2="585.8840879561014" y2="5" style="visibility: inherit;" fill="rgb(0, 0, 0)" stroke="rgb(204, 204, 204)" stroke-width="1px"></line><line x1="656.8454061765406" y1="0" x2="656.8454061765406" y2="5" style="visibility: inherit;" fill="rgb(0, 0, 0)" stroke="rgb(204, 204, 204)" stroke-width="1px"></line><line x1="727.8067243969796" y1="0" x2="727.8067243969796" y2="5" style="visibility: inherit;" fill="rgb(0, 0, 0)" stroke="rgb(204, 204, 204)" stroke-width="1px"></line><line x1="798.7680426174186" y1="0" x2="798.7680426174186" y2="5" style="visibility: inherit;" fill="rgb(0, 0, 0)" stroke="rgb(204, 204, 204)" stroke-width="1px"></line><line x1="869.7293608378576" y1="0" x2="869.7293608378576" y2="5" style="visibility: inherit;" fill="rgb(0, 0, 0)" stroke="rgb(204, 204, 204)" stroke-width="1px"></line><line x1="940.6906790582967" y1="0" x2="940.6906790582967" y2="5" style="visibility: inherit;" fill="rgb(0, 0, 0)" stroke="rgb(204, 204, 204)" stroke-width="1px"></line></g><g transform="translate(0, 8)"><text x="18.19354219258914" y="0" dx="0em" dy="0.95em" style="text-anchor: middle; visibility: inherit; font-family: &quot;Helvetica Neue&quot;, sans-serif; font-size: 12px; font-weight: 200;" fill="rgb(50, 49, 63)" stroke="none" stroke-width="1px">-4k</text><text x="89.15486041302819" y="0" dx="0em" dy="0.95em" style="text-anchor: middle; visibility: inherit; font-family: &quot;Helvetica Neue&quot;, sans-serif; font-size: 12px; font-weight: 200;" fill="rgb(50, 49, 63)" stroke="none" stroke-width="1px">-2k</text><text x="160.11617863346726" y="0" dx="0em" dy="0.95em" style="text-anchor: middle; visibility: inherit; font-family: &quot;Helvetica Neue&quot;, sans-serif; font-size: 12px; font-weight: 200;" fill="rgb(50, 49, 63)" stroke="none" stroke-width="1px">0</text><text x="231.0774968539063" y="0" dx="0em" dy="0.95em" style="text-anchor: middle; visibility: inherit; font-family: &quot;Helvetica Neue&quot;, sans-serif; font-size: 12px; font-weight: 200;" fill="rgb(50, 49, 63)" stroke="none" stroke-width="1px">2k</text><text x="302.03881507434534" y="0" dx="0em" dy="0.95em" style="text-anchor: middle; visibility: inherit; font-family: &quot;Helvetica Neue&quot;, sans-serif; font-size: 12px; font-weight: 200;" fill="rgb(50, 49, 63)" stroke="none" stroke-width="1px">4k</text><text x="373.0001332947844" y="0" dx="0em" dy="0.95em" style="text-anchor: middle; visibility: inherit; font-family: &quot;Helvetica Neue&quot;, sans-serif; font-size: 12px; font-weight: 200;" fill="rgb(50, 49, 63)" stroke="none" stroke-width="1px">6k</text><text x="443.9614515152235" y="0" dx="0em" dy="0.95em" style="text-anchor: middle; visibility: inherit; font-family: &quot;Helvetica Neue&quot;, sans-serif; font-size: 12px; font-weight: 200;" fill="rgb(50, 49, 63)" stroke="none" stroke-width="1px">8k</text><text x="514.9227697356625" y="0" dx="0em" dy="0.95em" style="text-anchor: middle; visibility: inherit; font-family: &quot;Helvetica Neue&quot;, sans-serif; font-size: 12px; font-weight: 200;" fill="rgb(50, 49, 63)" stroke="none" stroke-width="1px">10k</text><text x="585.8840879561014" y="0" dx="0em" dy="0.95em" style="text-anchor: middle; visibility: inherit; font-family: &quot;Helvetica Neue&quot;, sans-serif; font-size: 12px; font-weight: 200;" fill="rgb(50, 49, 63)" stroke="none" stroke-width="1px">12k</text><text x="656.8454061765406" y="0" dx="0em" dy="0.95em" style="text-anchor: middle; visibility: inherit; font-family: &quot;Helvetica Neue&quot;, sans-serif; font-size: 12px; font-weight: 200;" fill="rgb(50, 49, 63)" stroke="none" stroke-width="1px">14k</text><text x="727.8067243969796" y="0" dx="0em" dy="0.95em" style="text-anchor: middle; visibility: inherit; font-family: &quot;Helvetica Neue&quot;, sans-serif; font-size: 12px; font-weight: 200;" fill="rgb(50, 49, 63)" stroke="none" stroke-width="1px">16k</text><text x="798.7680426174186" y="0" dx="0em" dy="0.95em" style="text-anchor: middle; visibility: inherit; font-family: &quot;Helvetica Neue&quot;, sans-serif; font-size: 12px; font-weight: 200;" fill="rgb(50, 49, 63)" stroke="none" stroke-width="1px">18k</text><text x="869.7293608378576" y="0" dx="0em" dy="0.95em" style="text-anchor: middle; visibility: inherit; font-family: &quot;Helvetica Neue&quot;, sans-serif; font-size: 12px; font-weight: 200;" fill="rgb(50, 49, 63)" stroke="none" stroke-width="1px">20k</text><text x="940.6906790582967" y="0" dx="0em" dy="0.95em" style="text-anchor: middle; visibility: inherit; font-family: &quot;Helvetica Neue&quot;, sans-serif; font-size: 12px; font-weight: 200;" fill="rgb(50, 49, 63)" stroke="none" stroke-width="1px">22k</text></g><line x1="0" y1="0" x2="960.6875" y2="0" fill="rgb(0, 0, 0)" stroke="rgb(204, 204, 204)" stroke-width="1px"></line></g></g></g></g></svg>