<svg viewBox="0 0 1029 400" xmlns="http://www.w3.org/2000/svg"><g><g><g><g><g><line x1="68.3125" y1="358.47587941457687" x2="63.3125" y2="358.47587941457687" style="visibility: inherit;" fill="rgb(0, 0, 0)" stroke="rgb(204, 204, 204)" stroke-width="1px"></line><line x1="68.3125" y1="333.21866224847076" x2="63.3125" y2="333.21866224847076" style="visibility: inherit;" fill="rgb(0, 0, 0)" stroke="rgb(204, 204, 204)" stroke-width="1px"></line><line x1="68.3125" y1="307.9614450823648" x2="63.3125" y2="307.9614450823648" style="visibility: inherit;" fill="rgb(0, 0, 0)" stroke="rgb(204, 204, 204)" stroke-width="1px"></line><line x1="68.3125" y1="282.7042279162586" x2="63.3125" y2="282.7042279162586" style="visibility: inherit;" fill="rgb(0, 0, 0)" stroke="rgb(204, 204, 204)" stroke-width="1px"></line><line x1="68.3125" y1="257.4470107501526" x2="63.3125" y2="257.4470107501526" style="visibility: inherit;" fill="rgb(0, 0, 0)" stroke="rgb(204, 204, 204)" stroke-width="1px"></line><line x1="68.3125" y1="232.18979358404653" x2="63.3125" y2="232.18979358404653" style="visibility: inherit;" fill="rgb(0, 0, 0)" stroke="rgb(204, 204, 204)" stroke-width="1px"></line><line x1="68.3125" y1="206.93257641794048" x2="63.3125" y2="206.93257641794048" style="visibility: inherit;" fill="rgb(0, 0, 0)" stroke="rgb(204, 204, 204)" stroke-width="1px"></line><line x1="68.3125" y1="181.67535925183446" x2="63.3125" y2="181.67535925183446" style="visibility: inherit;" fill="rgb(0, 0, 0)" stroke="rgb(204, 204, 204)" stroke-width="1px"></line><line x1="68.3125" y1="156.41814208572842" x2="63.3125" y2="156.41814208572842" style="visibility: inherit;" fill="rgb(0, 0, 0)" stroke="rgb(204, 204, 204)" stroke-width="1px"></line><line x1="68.3125" y1="131.16092491962235" x2="63.3125" y2="131.16092491962235" style="visibility: inherit;" fill="rgb(0, 0, 0)" stroke="rgb(204, 204, 204)" stroke-width="1px"></line><line x1="68.3125" y1="105.9037077535163" x2="63.3125" y2="105.9037077535163" style="visibility: inherit;" fill="rgb(0, 0, 0)" stroke="rgb(204, 204, 204)" stroke-width="1px"></line><line x1="68.3125" y1="80.64649058741026" x2="63.3125" y2="80.64649058741026" style="visibility: inherit;" fill="rgb(0, 0, 0)" stroke="rgb(204, 204, 204)" stroke-width="1px"></line><line x1="68.3125" y1="55.38927342130421" x2="63.3125" y2="55.38927342130421" style="visibility: inherit;" fill="rgb(0, 0, 0)" stroke="rgb(204, 204, 204)" stroke-width="1px"></line><line x1="68.3125" y1="30.13205625519828" x2="63.3125" y2="30.13205625519828" style="visibility: inherit;" fill="rgb(0, 0, 0)" stroke="rgb(204, 204, 204)" stroke-width="1px"></line><line x1="68.3125" y1="4.87483908909212" x2="63.3125" y2="4.87483908909212" style="visibility: inherit;" fill="rgb(0, 0, 0)" stroke="rgb(204, 204, 204)" stroke-width="1px"></line></g><g transform="translate(58.3125, 0)"><text x="0" y="358.47587941457687" dx="0em" dy="0.3em" style="text-anchor: end; visibility: inherit; font-family: &quot;Helvetica Neue&quot;, sans-serif; font-size: 12px; font-weight: 200;" fill="rgb(50, 49, 63)" stroke="none" stroke-width="1px">2.6e-4</text><text x="0" y="333.21866224847076" dx="0em" dy="0.3em" style="text-anchor: end; visibility: inherit; font-family: &quot;Helvetica Neue&quot;, sans-serif; font-size: 12px; font-weight: 200;" fill="rgb(50, 49, 63)" stroke="none" stroke-width="1px">2.8e-4</text><text x="0" y="307.9614450823648" dx="0em" dy="0.3em" style="text-anchor: end; visibility: inherit; font-family: &quot;Helvetica Neue&quot;, sans-serif; font-size: 12px; font-weight: 200;" fill="rgb(50, 49, 63)" stroke="none" stroke-width="1px">3e-4</text><text x="0" y="282.7042279162586" dx="0em" dy="0.3em" style="text-anchor: end; visibility: inherit; font-family: &quot;Helvetica Neue&quot;, sans-serif; font-size: 12px; font-weight: 200;" fill="rgb(50, 49, 63)" stroke="none" stroke-width="1px">3.2e-4</text><text x="0" y="257.4470107501526" dx="0em" dy="0.3em" style="text-anchor: end; visibility: inherit; font-family: &quot;Helvetica Neue&quot;, sans-serif; font-size: 12px; font-weight: 200;" fill="rgb(50, 49, 63)" stroke="none" stroke-width="1px">3.4e-4</text><text x="0" y="232.18979358404653" dx="0em" dy="0.3em" style="text-anchor: end; visibility: inherit; font-family: &quot;Helvetica Neue&quot;, sans-serif; font-size: 12px; font-weight: 200;" fill="rgb(50, 49, 63)" stroke="none" stroke-width="1px">3.6e-4</text><text x="0" y="206.93257641794048" dx="0em" dy="0.3em" style="text-anchor: end; visibility: inherit; font-family: &quot;Helvetica Neue&quot;, sans-serif; font-size: 12px; font-weight: 200;" fill="rgb(50, 49, 63)" stroke="none" stroke-width="1px">3.8e-4</text><text x="0" y="181.67535925183446" dx="0em" dy="0.3em" style="text-anchor: end; visibility: inherit; font-family: &quot;Helvetica Neue&quot;, sans-serif; font-size: 12px; font-weight: 200;" fill="rgb(50, 49, 63)" stroke="none" stroke-width="1px">4e-4</text><text x="0" y="156.41814208572842" dx="0em" dy="0.3em" style="text-anchor: end; visibility: inherit; font-family: &quot;Helvetica Neue&quot;, sans-serif; font-size: 12px; font-weight: 200;" fill="rgb(50, 49, 63)" stroke="none" stroke-width="1px">4.2e-4</text><text x="0" y="131.16092491962235" dx="0em" dy="0.3em" style="text-anchor: end; visibility: inherit; font-family: &quot;Helvetica Neue&quot;, sans-serif; font-size: 12px; font-weight: 200;" fill="rgb(50, 49, 63)" stroke="none" stroke-width="1px">4.4e-4</text><text x="0" y="105.9037077535163" dx="0em" dy="0.3em" style="text-anchor: end; visibility: inherit; font-family: &quot;Helvetica Neue&quot;, sans-serif; font-size: 12px; font-weight: 200;" fill="rgb(50, 49, 63)" stroke="none" stroke-width="1px">4.6e-4</text><text x="0" y="80.64649058741026" dx="0em" dy="0.3em" style="text-anchor: end; visibility: inherit; font-family: &quot;Helvetica Neue&quot;, sans-serif; font-size: 12px; font-weight: 200;" fill="rgb(50, 49, 63)" stroke="none" stroke-width="1px">4.8e-4</text><text x="0" y="55.38927342130421" dx="0em" dy="0.3em" style="text-anchor: end; visibility: inherit; font-family: &quot;Helvetica Neue&quot;, sans-serif; font-size: 12px; font-weight: 200;" fill="rgb(50, 49, 63)" stroke="none" stroke-width="1px">5e-4</text><text x="0" y="30.13205625519828" dx="0em" dy="0.3em" style="text-anchor: end; visibility: inherit; font-family: &quot;Helvetica Neue&quot;, sans-serif; font-size: 12px; font-weight: 200;" fill="rgb(50, 49, 63)" stroke="none" stroke-width="1px">5.2e-4</text><text x="0" y="4.87483908909212" dx="0em" dy="0.3em" style="text-anchor: end; visibility: hidden; font-family: &quot;Helvetica Neue&quot;, sans-serif; font-size: 12px; font-weight: 200;" fill="rgb(50, 49, 63)" stroke="none" stroke-width="1px">5.4e-4</text></g><line x1="68.3125" y1="0" x2="68.3125" y2="377.828125" fill="rgb(0, 0, 0)" stroke="rgb(204, 204, 204)" stroke-width="1px"></line></g></g><g transform="translate(68, 0)" clip-path="url(#clip_0)"><clipPath id="clip_0"><rect width="960" height="377"></rect></clipPath><g><g><g><line x1="62.51960237835528" y1="0" x2="62.51960237835528" y2="377.828125" fill="rgb(0, 0, 0)" stroke="rgb(60, 60, 60)" stroke-width="1px" opacity="0.25"></line><line x1="126.74005398254316" y1="0" x2="126.74005398254316" y2="377.828125" fill="rgb(0, 0, 0)" stroke="rgb(60, 60, 60)" stroke-width="1px" opacity="0.25"></line><line x1="190.96050558673105" y1="0" x2="190.96050558673105" y2="377.828125" fill="rgb(0, 0, 0)" stroke="rgb(60, 60, 60)" stroke-width="1px" opacity="0.25"></line><line x1="255.1809571909189" y1="0" x2="255.1809571909189" y2="377.828125" fill="rgb(0, 0, 0)" stroke="rgb(60, 60, 60)" stroke-width="1px" opacity="0.25"></line><line x1="319.4014087951068" y1="0" x2="319.4014087951068" y2="377.828125" fill="rgb(0, 0, 0)" stroke="rgb(60, 60, 60)" stroke-width="1px" opacity="0.25"></line><line x1="383.6218603992947" y1="0" x2="383.6218603992947" y2="377.828125" fill="rgb(0, 0, 0)" stroke="rgb(60, 60, 60)" stroke-width="1px" opacity="0.25"></line><line x1="447.8423120034826" y1="0" x2="447.8423120034826" y2="377.828125" fill="rgb(0, 0, 0)" stroke="rgb(60, 60, 60)" stroke-width="1px" opacity="0.25"></line><line x1="512.0627636076704" y1="0" x2="512.0627636076704" y2="377.828125" fill="rgb(0, 0, 0)" stroke="rgb(60, 60, 60)" stroke-width="1px" opacity="0.25"></line><line x1="576.2832152118583" y1="0" x2="576.2832152118583" y2="377.828125" fill="rgb(0, 0, 0)" stroke="rgb(60, 60, 60)" stroke-width="1px" opacity="0.25"></line><line x1="640.5036668160462" y1="0" x2="640.5036668160462" y2="377.828125" fill="rgb(0, 0, 0)" stroke="rgb(60, 60, 60)" stroke-width="1px" opacity="0.25"></line><line x1="704.7241184202342" y1="0" x2="704.7241184202342" y2="377.828125" fill="rgb(0, 0, 0)" stroke="rgb(60, 60, 60)" stroke-width="1px" opacity="0.25"></line><line x1="768.944570024422" y1="0" x2="768.944570024422" y2="377.828125" fill="rgb(0, 0, 0)" stroke="rgb(60, 60, 60)" stroke-width="1px" opacity="0.25"></line><line x1="833.1650216286099" y1="0" x2="833.1650216286099" y2="377.828125" fill="rgb(0, 0, 0)" stroke="rgb(60, 60, 60)" stroke-width="1px" opacity="0.25"></line><line x1="897.3854732327977" y1="0" x2="897.3854732327977" y2="377.828125" fill="rgb(0, 0, 0)" stroke="rgb(60, 60, 60)" stroke-width="1px" opacity="0.25"></line></g><g><line x1="0" y1="358.47587941457687" x2="960.6875" y2="358.47587941457687" fill="rgb(0, 0, 0)" stroke="rgb(60, 60, 60)" stroke-width="1px" opacity="0.25"></line><line x1="0" y1="333.21866224847076" x2="960.6875" y2="333.21866224847076" fill="rgb(0, 0, 0)" stroke="rgb(60, 60, 60)" stroke-width="1px" opacity="0.25"></line><line x1="0" y1="307.9614450823648" x2="960.6875" y2="307.9614450823648" fill="rgb(0, 0, 0)" stroke="rgb(60, 60, 60)" stroke-width="1px" opacity="0.25"></line><line x1="0" y1="282.7042279162586" x2="960.6875" y2="282.7042279162586" fill="rgb(0, 0, 0)" stroke="rgb(60, 60, 60)" stroke-width="1px" opacity="0.25"></line><line x1="0" y1="257.4470107501526" x2="960.6875" y2="257.4470107501526" fill="rgb(0, 0, 0)" stroke="rgb(60, 60, 60)" stroke-width="1px" opacity="0.25"></line><line x1="0" y1="232.18979358404653" x2="960.6875" y2="232.18979358404653" fill="rgb(0, 0, 0)" stroke="rgb(60, 60, 60)" stroke-width="1px" opacity="0.25"></line><line x1="0" y1="206.93257641794048" x2="960.6875" y2="206.93257641794048" fill="rgb(0, 0, 0)" stroke="rgb(60, 60, 60)" stroke-width="1px" opacity="0.25"></line><line x1="0" y1="181.67535925183446" x2="960.6875" y2="181.67535925183446" fill="rgb(0, 0, 0)" stroke="rgb(60, 60, 60)" stroke-width="1px" opacity="0.25"></line><line x1="0" y1="156.41814208572842" x2="960.6875" y2="156.41814208572842" fill="rgb(0, 0, 0)" stroke="rgb(60, 60, 60)" stroke-width="1px" opacity="0.25"></line><line x1="0" y1="131.16092491962235" x2="960.6875" y2="131.16092491962235" fill="rgb(0, 0, 0)" stroke="rgb(60, 60, 60)" stroke-width="1px" opacity="0.25"></line><line x1="0" y1="105.9037077535163" x2="960.6875" y2="105.9037077535163" fill="rgb(0, 0, 0)" stroke="rgb(60, 60, 60)" stroke-width="1px" opacity="0.25"></line><line x1="0" y1="80.64649058741026" x2="960.6875" y2="80.64649058741026" fill="rgb(0, 0, 0)" stroke="rgb(60, 60, 60)" stroke-width="1px" opacity="0.25"></line><line x1="0" y1="55.38927342130421" x2="960.6875" y2="55.38927342130421" fill="rgb(0, 0, 0)" stroke="rgb(60, 60, 60)" stroke-width="1px" opacity="0.25"></line><line x1="0" y1="30.13205625519828" x2="960.6875" y2="30.13205625519828" fill="rgb(0, 0, 0)" stroke="rgb(60, 60, 60)" stroke-width="1px" opacity="0.25"></line><line x1="0" y1="4.87483908909212" x2="960.6875" y2="4.87483908909212" fill="rgb(0, 0, 0)" stroke="rgb(60, 60, 60)" stroke-width="1px" opacity="0.25"></line></g></g></g><g><g><line x1="0" y1="686.8197025739555" x2="960.6875" y2="686.8197025739555" fill="rgb(0, 0, 0)" stroke="rgb(153, 153, 153)" stroke-width="1.5px"></line></g></g><g><g><line x1="190.96050558673105" y1="0" x2="190.96050558673105" y2="377.828125" fill="rgb(0, 0, 0)" stroke="rgb(153, 153, 153)" stroke-width="1.5px"></line></g></g><g><g><g><g><g><path stroke="rgb(255, 112, 67)" stroke-width="2px" d="M190.99261581253313,249.39889618295655L192.2770248446169,204.88981112143466L193.56143387670065,163.89319566542656L194.8458429087844,101.23967985546784L196.13025194086813,106.27901881520148L197.4146609729519,71.74179367063323L198.69907000503565,57.234460134821916L199.98347903711942,29.396811330611854L201.26788806920317,54.966888985651565L202.55229710128694,83.22654127358481L203.83670613337068,98.90803151887212L205.12111516545446,86.15717558718336L206.40552419753823,92.58817584208441L207.68993322962197,85.0390632890053L208.97434226170574,93.54169689834788L210.2587512937895,110.78831014053247L211.54316032587326,99.73777918455477L212.827569357957,93.88767683450448L214.11197839004078,24.501947472437053L215.39638742212452,23.834239392409813L216.6807964542083,25.252057047916026L217.96520548629204,41.417325840620265L219.2496145183758,35.66480139481473L220.53402355045955,49.5467149995971L221.81843258254332,71.49531683976846L223.10284161462707,81.97220502646502L224.38725064671084,95.5760232209334L225.67165967879458,105.42959867459763L226.95606871087836,68.88202856490773L228.2404777429621,82.96213154199273L229.52488677504587,98.29853572949122L230.80929580712962,67.48989487605513L232.0937048392134,76.54242170636911L233.3781138712971,82.81351004395299L234.66252290338088,96.77048454766651L235.94693193546462,100.83422160064049L237.2313409675484,108.25454143245219L238.51574999963213,114.50756833819253L239.8001590317159,96.37972728754158L241.08456806379965,93.224598760648L242.36897709588345,85.55326675745215L243.6533861279672,99.91089336740725L244.93779516005094,113.22222585001293L246.22220419213468,118.24282826941288L247.50661322421848,112.03469974402736L248.79102225630223,113.14357745916197L250.07543128838597,126.0841891049171L251.35984032046971,123.9333668459752L252.64424935255352,128.58596839782015L253.92865838463726,112.1234673470621L255.213067416721,115.38203278269629L256.4974764488047,114.38857865210588L257.78188548088855,122.55158883961482L259.06629451297226,118.06864006906278L260.35070354505604,114.6190000403978L261.63511257713975,115.05333203532575L262.9195216092236,112.4152481879994L264.2039306413073,120.36604401658366L265.4883396733911,135.10741702250016L266.77274870547484,145.00828431812735L268.0571577375586,144.7138290864656L269.3415667696423,155.4422332401893L270.62597580172616,157.97955273346614L271.91038483380987,164.36865872655267L273.19479386589364,138.54708025784066L274.4792028979774,138.29555022628915L275.7636119300612,136.96773256021038L277.0480209621449,151.106269018881L278.3324299942287,159.22155724130602L279.61683902631245,162.79274841877455L280.9012480583962,167.07159072186457L282.18565709047994,166.12463894072778L283.4700661225637,173.39449218241913L284.7544751546475,176.34107028745234L286.03888418673125,174.58283884599217L287.32329321881497,180.07861802649333L288.60770225089874,192.4840326336022L289.8921112829825,188.7864688779861L291.1765203150662,185.8553005418587L292.46092934715,185.50035709550684L293.7453383792337,181.50730021225132L295.02974741131754,199.28951851305212L296.31415644340126,210.22373273952073L297.59856547548503,200.34600944726088L298.88297450756875,196.1516379033614L300.1673835396526,201.3964541611681L301.4517925717363,200.37110182600148L302.73620160382006,185.82068277627272L304.0206106359038,191.68384851184095L305.3050196679876,171.55782463535485L306.5894287000713,183.3961396724763L307.8738377321551,184.73515194649772L309.15824676423887,189.7281144985651L310.44265579632264,181.58355861817046L311.72706482840636,187.00559713121302L313.0114738604901,197.47577175438332L314.2958828925739,204.60242685490894L315.5802919246577,212.32315943263262L316.8647009567414,213.5661965189619L318.14910998882516,207.297121014983L319.43351902090893,208.85953852592783L320.7179280529927,205.53417263415474L322.0023370850764,196.75914193841245L323.2867461171602,209.445525590787L324.57115514924396,208.3303215715747L325.8555641813277,198.96129516220742L327.13997321341145,194.21756080652682L328.42438224549517,194.6271704616096L329.708791277579,185.8550807098902L330.9932003096627,184.45314682182027L332.2776093417465,161.99854085295974L333.5620183738302,172.45794064198088L334.846427405914,173.36330268599278L336.13083643799774,172.89876922708905L337.4152454700815,169.45572114002468L338.69965450216523,184.64727189554714L339.98406353424906,198.5296190365203L341.2684725663328,190.08426833515793L342.55288159841655,184.2550263476964L343.83729063050026,186.89520525417237L345.1216996625841,198.3326284867437L346.4061086946678,199.08226673465893L347.6905177267516,199.26610305529428L348.97492675883535,188.8877210282683L350.2593357909191,192.0411145278564L351.54374482300284,197.13526006009434L352.8281538550866,206.19867391496155L354.1125628871704,216.4003072470492L355.39697191925416,216.21640560993558L356.68138095133787,221.35126830132427L357.96578998342164,197.8206111858717L359.2501990155054,206.0179273221539L360.5346080475892,211.72915047492478L361.8190170796729,223.70432075249732L363.1034261117567,224.87603715675112L364.38783514384045,225.90277700237925L365.67224417592416,214.22864853506334L366.95665320800794,206.28962465132395L368.24106224009165,205.16413177125054L369.5254712721755,222.58265615072756L370.8098803042592,229.02312358341075L372.09428933634297,223.25633962826475L373.3786983684267,216.0471855392091L374.6631074005105,207.98610270274617L375.9475164325942,207.22572577114L377.231925464678,213.88266814513526L378.5163344967617,216.956212152178L379.80074352884554,188.15512104330162L381.08515256092926,191.00381615056352L382.36956159301303,193.28701146761765L383.6539706250968,185.85836456434117L384.9383796571806,194.5328088861628L386.2227886892643,208.331239252652L387.50719772134806,216.12881120107522L388.79160675343184,203.85495016120137L390.0760157855156,206.80022219007736L391.3604248175993,209.35831016203312L392.6448338496831,205.5914420996291L393.92924288176687,210.20303792917716L395.21365191385064,220.36043127100953L396.49806094593436,212.44318998384006L397.7824699780181,204.87759762580257L399.0668790101019,206.03393569325218L400.3512880421857,200.68736948139494L401.6356970742694,208.6962230735095L402.92010610635316,217.70934727223667L404.20451513843693,216.39393196641083L405.48892417052065,222.2009939416633L406.7733332026044,225.89394275564365L408.05774223468813,211.8603112607935L409.34215126677196,210.1771252070342L410.6265602988557,189.91378481322857L411.91096933093945,199.50020187669344L413.19537836302317,195.1037755894944L414.479787395107,197.9582705175468L415.7641964271907,201.15053566209855L417.0486054592745,213.21243389785826L418.3330144913582,207.2387744574754L419.617423523442,210.49293898527236L420.90183255552574,202.08374477345274L422.1862415876095,195.57631798140048L423.4706506196933,198.5283771629732L424.75505965177706,203.4508956960809L426.0394686838608,207.01003021311817L427.32387771594455,216.54912619160427L428.6082867480283,212.42488569953048L429.8926957801121,214.0809947258796L431.1771048121958,227.81496410222047L432.4615138442796,214.09191827909015L433.74592287636335,216.6451380250531L435.0303319084471,224.48996351680097L436.31474094053084,221.35126085040775L437.5991499726146,223.06231397330683L438.8835590046984,225.1920219383787L440.16796803678216,228.56930377970517L441.45237706886587,216.28209236681778L442.73678610094964,222.20620117149744L444.0211951330334,214.26001344220612L445.30560416511713,219.96369791482735L446.5900131972009,229.16989633868596L447.8744222292846,227.69781433004746L449.15883126136845,231.9522354438182L450.44324029345216,239.80988001979892L451.72764932553594,248.49781274005352L453.01205835761965,247.30051013763224L454.2964673897035,230.08654071785642L455.5808764217872,222.20850734735828L456.86528545387097,235.16621518088243L458.14969448595474,240.07113939988625L459.4341035180385,244.784125113153L460.7185125501222,236.288502178487L462.002921582206,235.98719642889358L463.2873306142898,249.73933082416013L464.57173964637354,251.40393163519573L465.85614867845726,258.4003937343323L467.14055771054103,267.3015933406398L468.4249667426248,275.9642362583443L469.7093757747086,279.07891233456434L470.9937848067923,279.5172768659651L472.27819383887606,263.65809095721244L473.56260287095984,263.48692420438266L474.8470119030436,265.70116878558997L476.1314209351273,258.2789546381877L477.4158299672111,252.38060016255423L478.70023899929487,258.0872740235184L479.9846480313786,255.13653716254612L481.2690570634624,259.40262035538666L482.55346609554607,249.48649352205553L483.8378751276299,247.19681615878565L485.12228415971356,253.2099987070806L486.4066931917974,254.90729391727433L487.69110222388116,252.33345881053447L488.9755112559649,259.43039941939753L490.25992028804865,258.1022692680062L491.5443293201325,264.7397766643107L492.82873835221613,259.79443176582697L494.11314738429996,242.3453700331764L495.39755641638374,238.57742129840798L496.68196544846745,250.4682872525113L497.9663744805512,254.44569724293612L499.25078351263494,254.26375838583954L500.5351925447187,253.8048011038931L501.81960157680254,258.93442227926823L503.1040106088862,254.51724049415714L504.38841964097,253.80344758702262L505.6728286730538,250.78869402602845L506.9572377051375,257.05839135993233L508.2416467372213,261.12426114323125L509.526055769305,251.2698072200676L510.8104648013888,254.9119770628393L512.0948738334725,256.6939188893963L513.3792828655563,264.0822218968992L514.6636918976401,264.61230273814755L515.9481009297239,257.41125499849005L517.2325099618075,256.2834739406513L518.5169189938913,259.3380857747647L519.8013280259751,252.10570804030374L521.0857370580588,252.02992531874014L522.3701460901426,242.88590668625534L523.6545551222263,235.49685696529113L524.9389641543102,231.36816305751114L526.2233731863939,237.77829522447084L527.5077822184776,223.4390534692672L528.7921912505614,223.29802947351257L530.0766002826451,226.00049850133325L531.3610093147289,234.16374390726972L532.6454183468127,228.2669196606975L533.9298273788963,231.93700562958733L535.2142364109802,230.0074329082727L536.498645443064,240.5505238078047L537.7830544751477,240.02724676574275L539.0674635072314,242.2583743209167L540.3518725393153,245.3408759861127L541.636281571399,245.1699986379262L542.9206906034827,257.02743455001405L544.2050996355664,262.433757617532L545.4895086676503,243.8767538543643L546.773917699734,254.38391695748552L548.0583267318177,247.47139461685924L549.3427357639015,249.98537977938656L550.6271447959854,248.66266419135044L551.911553828069,252.00726471292225L553.1959628601528,260.31647652061133L554.4803718922365,264.54501853330373L555.7647809243203,249.0482407289143L557.0491899564041,255.3967135606012L558.3335989884878,260.8844910448405L559.6180080205716,255.31453981961795L560.9024170526553,247.48470079581043L562.1868260847391,245.50487920292667L563.4712351168229,249.3114035159864L564.7556441489065,256.00097140445416L566.0400531809903,255.98012127823L567.3244622130742,238.69849742641617L568.6088712451578,242.74517381249703L569.8932802772416,250.10547783223615L571.1776893093254,257.4962777468262L572.4620983414092,241.87422473994272L573.7465073734929,245.60352202290127L575.0309164055767,244.39566462540554L576.3153254376604,257.3761073365886L577.5997344697442,255.50191397617237L578.8841435018279,259.62765118001073L580.1685525339117,264.92689035112295L581.4529615659955,264.4642396636209L582.7373705980792,254.71269134360494L584.021779630163,252.92855302570774L585.3061886622468,252.87599420661428L586.5905976943304,237.12882243985956L587.8750067264143,242.70031733671468L589.159415758498,246.37861088523147L590.4438247905817,245.22786532686538L591.7282338226655,244.56025531587707L593.0126428547493,235.39905880032512L594.2970518868331,237.13172566995382L595.5814609189168,241.5524804171876L596.8658699510005,236.3612568214244L598.1502789830843,236.76542762943973L599.434688015168,227.5693517217255L600.7190970472518,230.78078988857337L602.0035060793356,232.29652187776665L603.2879151114192,217.97095355940843L604.5723241435031,217.98656885406447L605.8567331755869,232.87225411328626L607.1411422076706,234.64506789176434L608.4255512397543,240.27861288112254L609.7099602718382,233.1168871675199L610.9943693039219,231.5319462952014L612.2787783360056,232.8648741231455L613.5631873680893,239.5473966734269L614.8475964001732,245.38264744751822L616.132005432257,248.52286249589733L617.4164144643406,245.00691138647983L618.7008234964244,242.52809527141855L619.9852325285083,251.11575890175567L621.2696415605919,247.03914515648833L622.5540505926757,254.45115178468208L623.8384596247594,257.5225075444243L625.1228686568433,258.5844040577392L626.407277688927,261.16778772843634L627.6916867210107,254.83150148995605L628.9760957530945,255.9422672835509L630.2605047851783,247.63308318269083L631.544913817262,252.46894776848893L632.8293228493458,246.5196467766059L634.1137318814294,245.55722550635988L635.3981409135133,234.10965977346933L636.6825499455971,220.77798444933228L637.9669589776807,224.07408255976608L639.2513680097645,222.52669102263772L640.5357770418483,232.01210261666338L641.8201860739321,243.04835393782506L643.1045951060158,227.9283557555932L644.3890041380996,234.45788035705252L645.6734131701833,234.1722017066401L646.9578222022672,235.02999641523823L648.2422312343508,234.63084609372348L649.5266402664346,242.1346525137732L650.8110492985184,253.86994031908415L652.0954583306021,243.0710845173918L653.3798673626859,250.78725315329487L654.6642763947697,252.29401878797458L655.9486854268533,243.2766469336972L657.2330944589372,241.00412370656457L658.5175034910209,251.10198699203175L659.8019125231046,259.4060816282522L661.0863215551884,259.72756488265736L662.3707305872722,268.14010594845996L663.655139619356,274.52786402248853L664.9395486514397,271.6917493650818L666.2239576835234,278.2188169378938L667.5083667156073,285.73722868443735L668.7927757476909,288.40876350899464L670.0771847797747,287.25831597412696L671.3615938118585,272.5722483569052L672.6460028439423,266.4296638738434L673.930411876026,268.2012860901303L675.2148209081098,259.7847317618584L676.4992299401935,263.06987408674183L677.7836389722772,255.94809088912143L679.0680480043611,264.97195615774234L680.3524570364448,263.2816538669363L681.6368660685285,269.22560849345234L682.9212751006122,269.4466106288917L684.2056841326961,266.1404956357918L685.4900931647799,272.36551230076884L686.7745021968635,270.31374043243125L688.0589112289473,267.74518387292244L689.3433202610312,271.09006433821185L690.6277292931148,271.6324008020138L691.9121383251986,271.51498260346943L693.1965473572823,278.2512652582612L694.4809563893662,271.52462462123725L695.7653654214499,269.0175541318612L697.0497744535336,260.12523133437907L698.3341834856174,263.66614702861006L699.6185925177012,266.00841149824464L700.9030015497849,270.69562617253325L702.1874105818687,280.26682757459184L703.4718196139523,290.9482516803852L704.7562286460362,279.567024143908L706.04063767812,276.0309829750777L707.3250467102037,266.7965081664539L708.6094557422874,257.1622423687493L709.8938647743712,246.56258027113566L711.178273806455,257.3741228155206L712.4626828385387,245.19970049480096L713.7470918706224,252.4261638770962L715.0315009027062,262.4658787587362L716.31590993479,265.17369812744283L717.6003189668737,261.9308601890477L718.8847279989575,270.8575740193895L720.1691370310413,256.360398745235L721.453546063125,252.72729488752245L722.7379550952088,257.5253561332693L724.0223641272926,256.68138766813985L725.3067731593762,258.48185445351317L726.5911821914601,263.8474006238799L727.8755912235438,268.95158227726756L729.1600002556276,268.37416864939627L730.4444092877113,263.9944056631195L731.7288183197951,246.07862242412045L733.0132273518789,252.02565958092228L734.2976363839626,247.48000999078099L735.5820454160463,254.7594573834873L736.8664544481302,255.27720441862397L738.1508634802138,255.96872815010192L739.4352725122976,265.08774897862776L740.7196815443814,271.0762466227663L742.0040905764652,261.95281458212565L743.2884996085489,257.23367205644433L744.5729086406327,265.6106988463466L745.8573176727164,273.0541066162687L747.1096164789981,269.61855813206836L748.3940255110818,261.72823392621103L749.6784345431656,259.1280696265295L750.9628435752493,265.70300574107944L752.2472526073332,266.4132368038449L753.5316616394169,271.321531816628L754.8160706715006,270.3695273494663L756.1004797035844,270.81109590020276L757.3848887356681,263.17599555384317L758.6692977677519,267.500773754708L759.9537067998357,267.4836314362799L761.2381158319193,269.0925004360504L762.5225248640031,267.80906271848914L763.806933896087,259.08388633546963L765.0913429281707,267.03571817838287L766.3757519602544,272.2407746202438L767.6601609923382,256.6604082627835L768.944570024422,250.65599488173564L770.2289790565058,241.12706057857775L771.5133880885894,247.34769560163983L772.7977971206732,262.89241476461603L774.0822061527571,270.461581960702L775.3666151848407,266.4959640681589L776.6510242169245,262.3589872875931L777.9354332490083,263.9183670194406L779.219842281092,266.5836467251785L780.5042513131758,265.10927948861934L781.7886603452595,268.85734705321306L783.0730693773432,257.96397483869714L784.3574784094271,261.7451035448138L785.6097772157087,260.342496981989L786.8941862477925,252.05924638854543L788.1785952798762,255.78957892447193L789.46300431196,266.6250547783675L790.7474133440437,270.0922458423237L792.0318223761275,272.87844456820966L793.3162314082113,271.9257190130792L794.5364199886909,274.971460847867L795.8208290207746,258.03510125461816L797.1052380528583,267.3846174180397L798.389647084942,267.5917775973272L799.6419458912238,253.90736063609893L800.9263549233075,259.37126626345463L802.2107639553913,259.6314691101218L803.4309525358709,264.09162651689263L804.6832513421525,258.93178021488984L805.9676603742363,261.9458750854865L807.25206940632,273.2211344814004L808.5364784384038,273.8765579185876L809.7887772446854,275.73720885893226L811.0731862767692,277.35083676255334L812.3254850830509,276.7138897512718L813.6098941151347,282.8780194129871L814.8943031472184,286.3042421409066L816.1787121793021,291.4594105755267L817.4631212113859,284.73846940782255L818.7154200176676,267.71867334250646L819.9998290497513,269.2459326196182L821.284238081835,274.014685712671L822.5686471139189,263.7604297089623L823.8530561460026,264.93981028745975L825.1374651780864,262.5398463931058L826.389763984368,262.08664459904804L827.6420627906497,252.54703450199634L828.8622513711292,264.95650540515334L830.1145501774109,269.67616687464755L831.3989592094947,275.44685538102294L832.6191477899742,277.5397170458405L833.8714465962559,276.60254537780344L835.0916351767355,268.67767728937906L836.3439339830171,268.1416491944617L837.6283430151009,263.84354716023336L838.9127520471847,262.3319000370342L840.1329406276642,267.37780410806846L841.3852394339459,276.98617512280794L842.6696484660296,283.6349639940314L843.9540574981135,280.4652062398814L845.2063563043951,278.74649635646006L846.2659937558642,272.75855702139035L847.4540721105417,281.9802530991098L848.7063709168233,284.70512343123033L849.926559497303,285.64232273460277L851.1146378519803,285.5665135022459L852.3027162066579,283.3442386401416L853.4907945613353,286.1617880791305L854.6467626902107,294.34510597940124L855.8348410448881,295.3272928969218L856.9908091737636,294.6225052172378L858.2109977542431,290.35255943036685L859.3990761089206,292.51778903272873L860.6192646894002,300.5604933859055L864.0871690760263,304.42921770834835L865.2431372049017,307.5384527957899L866.4633257853812,302.99253164379695L867.6835143658609,303.9181435147979L868.9358131721425,309.7262559940599L870.156001752622,309.02581088694876L872.4358277845707,298.1710961166014L873.6560163650503,303.163609470744L875.935842396999,304.44789412008146L877.0597003000722,305.1042615056414" style="fill: none;" fill="none"></path></g></g></g></g><g opacity="0.20000000298023224"><g><g><g><path stroke="rgb(255, 112, 67)" stroke-width="2px" d="M190.99261581253313,249.39889618295655L192.2770248446169,164.69810731088037L193.56143387670065,93.44424269628325L194.8458429087844,-52.55736692180136L196.13025194086813,121.9998170519386L197.4146609729519,-56.73711535265511L199.98347903711942,-102.8804765712108L201.26788806920317,187.773316312636L202.55229710128694,241.28337295945443L203.83670613337068,192.26775324760487L205.12111516545446,6.094439663311562L206.40552419753823,134.85878615871366L207.68993322962197,33.415444192615155L208.97434226170574,153.72374083631775L210.2587512937895,236.59333076649676L211.54316032587326,16.97026842711358L212.827569357957,49.03850451078603L214.11197839004078,-518.4935019417554L215.39638742212452,18.512837513507918L216.6807964542083,36.73580853059133L217.96520548629204,174.24630489672822L219.2496145183758,-12.212845232356358L220.53402355045955,166.4126120223915L221.81843258254332,258.16753955573733L223.10284161462707,171.89521937567812L224.38725064671084,213.29583303863882L225.67165967879458,191.32376124343637L226.95606871087836,-251.8046610294864L228.2404777429621,207.23839174417498L229.52488677504587,234.3817637646736L230.80929580712962,-207.18497729593332L232.0937048392134,157.5961148266303L233.3781138712971,139.17930274779695L234.66252290338088,222.65324015206653L235.94693193546462,137.60075140894656L237.2313409675484,175.57808928666145L238.51574999963213,171.38382299092495L239.8001590317159,-68.8827978675871L241.08456806379965,64.40186044095447L242.36897709588345,15.344561592960758L243.6533861279672,231.5320722816024L244.93779516005094,235.43495216521276L246.22220419213468,164.39992139241676L247.50661322421848,54.890343435240595L248.79102225630223,123.36177654837482L250.07543128838597,245.44911808266193L251.35984032046971,104.07628159232132L252.64424935255352,171.57501775831648L253.92865838463726,-40.0975104599907L255.213067416721,145.532283666366L256.4974764488047,105.19106984486899L257.78188548088855,198.1661596019489L259.06629451297226,76.52266043810016L260.35070354505604,82.6353063732065L261.63511257713975,119.08187322687473L262.9195216092236,87.93763492332982L264.2039306413073,194.16165466415987L265.4883396733911,271.96969207673806L266.77274870547484,236.9542559137065L268.0571577375586,141.97867788397096L269.3415667696423,255.11805284860995L270.62597580172616,181.55790594661337L271.91038483380987,223.7505334585784L273.19479386589364,-101.48249806823026L274.4792028979774,135.95707182560992L275.7636119300612,124.62141266295441L277.0480209621449,282.58445655127014L278.3324299942287,234.69575394111072L279.61683902631245,196.0088416344721L280.9012480583962,206.87301935227967L282.18565709047994,157.31549736237918L283.4700661225637,241.02793204569602L284.7544751546475,203.75561108995436L286.03888418673125,158.22358062226823L287.32329321881497,231.2160606303082L288.60770225089874,307.91996847594874L289.8921112829825,154.37814737868732L291.1765203150662,158.57777977131713L292.46092934715,182.19713305051067L293.7453383792337,144.34542064664134L295.02974741131754,364.7865187295527L296.31415644340126,311.98971192048907L297.59856547548503,108.41083824313921L298.88297450756875,157.1124677785516L300.1673835396526,250.21355055036017L301.4517925717363,190.8272870185373L302.73620160382006,50.38568886372144L304.0206106359038,246.2588106481436L305.3050196679876,-15.779608978366582L306.5894287000713,293.5909828531045L307.8738377321551,197.19923304667464L309.15824676423887,236.20509733167228L310.44265579632264,105.7693586703474L311.72706482840636,237.47741360671904L313.0114738604901,294.9395271073073L314.2958828925739,270.94274609525263L315.5802919246577,284.19399158656626L316.8647009567414,225.13744898097747L318.14910998882516,148.93894660369546L319.43351902090893,223.40397915989809L320.7179280529927,174.57845159279077L322.0023370850764,115.07240648716373L323.2867461171602,327.54338051992966L324.57115514924396,197.94883267776854L325.8555641813277,111.74436054473063L327.13997321341145,150.05770429778067L328.42438224549517,198.44027159256908L329.708791277579,104.19459300259297L330.9932003096627,171.40234705143348L332.2776093417465,-47.03484462860945L333.5620183738302,269.8262304005543L334.846427405914,181.791478177827L336.13083643799774,168.57434048046554L337.4152454700815,137.40371274151366L338.69965450216523,326.06851246420337L339.98406353424906,327.76331698438L341.2684725663328,111.46466193268725L342.55288159841655,129.9893105066238L343.83729063050026,211.47323455340631L345.1216996625841,304.80627237654284L346.4061086946678,206.06082750879284L347.6905177267516,200.97747981682386L348.97492675883535,92.27281639364901L350.2593357909191,221.39683839725825L351.54374482300284,244.5579417033957L352.8281538550866,290.5722960719813L354.1125628871704,311.3699277293081L355.39697191925416,214.50441772455503L356.68138095133787,269.1530425190581L357.96578998342164,-21.232445520121644L359.2501990155054,282.3289053752468L360.5346080475892,264.8964412895469L361.8190170796729,335.18437170925404L363.1034261117567,235.78385872554495L364.38783514384045,235.46097405973663L365.67224417592416,105.55103938578259L366.95665320800794,132.38310427829074L368.24106224009165,194.6866133074996L369.5254712721755,384.7364357170404L370.8098803042592,288.97919011416L372.09428933634297,169.5717729290376L373.3786983684267,148.93519768668776L374.6631074005105,132.94327333823205L375.9475164325942,200.14716820779992L377.231925464678,275.85397439166326L378.5163344967617,245.56867913193616L379.80074352884554,-79.96217077245302L381.08515256092926,217.5231045056782L382.36956159301303,214.5419068946318L383.6539706250968,116.70303836915019L384.9383796571806,275.2856091700287L386.2227886892643,336.78464471429595L387.50719772134806,288.7185668739498L388.79160675343184,89.59417843757518L390.0760157855156,234.21857561257468L391.3604248175993,233.17226022654958L392.6448338496831,170.52462266848895L393.92924288176687,253.13366286663438L395.21365191385064,314.91842469342794L396.49806094593436,138.73939306480779L397.7824699780181,134.4473976482535L399.0668790101019,216.79860791690038L400.3512880421857,150.91469937491806L401.6356970742694,283.25286640128604L402.92010610635316,301.61502515080156L404.20451513843693,204.14836527764103L405.48892417052065,276.2605481165547L406.7733332026044,260.27262996372485L408.05774223468813,81.21733364618501L409.34215126677196,194.50787817604535L410.6265602988557,1.2767137675630238L411.91096933093945,288.7428245722348L413.19537836302317,154.17622041750906L414.479787395107,224.53155783517784L415.7641964271907,230.86821993853704L417.0486054592745,325.50000022621555L418.3330144913582,151.62831675355594L419.617423523442,240.78686198046705L420.90183255552574,123.80021606783151L422.1862415876095,134.99687126849642L423.4706506196933,226.0099175292936L424.75505965177706,249.27599051164603L426.0394686838608,240.14300386144262L427.32387771594455,305.3512252439235L428.6082867480283,174.03118321784646L429.8926957801121,229.49817454267247L431.1771048121958,355.6683072228501L432.4615138442796,86.34026549126446L433.74592287636335,240.41377123002653L435.0303319084471,297.51962735262055L436.31474094053084,192.13220416991552L437.5991499726146,238.9909837174363L438.8835590046984,245.01806613495563L440.16796803678216,260.0093604291563L441.45237706886587,101.89702143412313L442.73678610094964,277.35537889914974L444.0211951330334,140.28674018268248L445.30560416511713,273.06088420459037L446.5900131972009,314.8729598861878L447.8744222292846,213.9937931756564L449.15883126136845,271.55782576312987L450.44324029345216,312.9588804751503L451.72764932553594,329.37619664171245L453.01205835761965,236.15448695206862L454.2964673897035,69.83690800396727L455.5808764217872,148.86970190131834L456.86528545387097,355.79312410675277L458.14969448595474,285.7324442150698L459.4341035180385,288.65862095591524L460.7185125501222,157.20038355779047L462.002921582206,233.18225733857005L463.2873306142898,377.76177777174235L464.57173964637354,266.9001639219738L465.85614867845726,323.5324068625979L467.14055771054103,350.16533810463943L468.4249667426248,356.60719040874346L469.7093757747086,308.07429889276483L470.9937848067923,283.5981343068754L472.27819383887606,116.02051494922307L473.56260287095984,261.89348525822066L474.8470119030436,286.3141879248494L476.1314209351273,189.1834971729357L477.4158299672111,197.47117654608448L478.70023899929487,311.212289444544L479.9846480313786,227.66730638757014L481.2690570634624,299.11677626015603L482.55346609554607,157.17450867961986L483.8378751276299,225.88157225291312L485.12228415971356,309.1883888176346L486.4066931917974,270.7078874709481L487.69110222388116,228.3729113749563L488.9755112559649,325.4977949809169L490.25992028804865,245.73833600357773L491.5443293201325,326.53018056747237L492.82873835221613,213.7568395683182L494.11314738429996,79.9071974142667L495.39755641638374,203.50053771707906L496.68196544846745,361.1636682447805L497.9663744805512,291.47251395697197L499.25078351263494,252.57003892239192L500.5351925447187,249.53224001534727L501.81960157680254,306.68749363263066L503.1040106088862,213.39646573243314L504.38841964097,247.1585507299862L505.6728286730538,222.72351396891634L506.9572377051375,315.42474901399424L508.2416467372213,298.97457469248246L509.526055769305,159.53195265794764L510.8104648013888,288.81794992874154L512.0948738334725,273.28251135710303L513.3792828655563,332.86199113117453L514.6636918976401,269.5469728375707L515.9481009297239,190.37469717508102L517.2325099618075,245.78464615484904L518.5169189938913,287.77431759116314L519.8013280259751,184.77749057444206L521.0857370580588,251.3244428695469L522.3701460901426,157.7616919944694L523.6545551222263,166.7101363672655L524.9389641543102,192.93300224602604L526.2233731863939,297.45199983012907L527.5077822184776,89.95106063507075L528.7921912505614,221.98519784293376L530.0766002826451,251.15853491491305L531.3610093147289,310.15766763456077L532.6454183468127,173.37174136537834L533.9298273788963,266.1028574842528L535.2142364109802,212.0445033480174L536.498645443064,338.69909166621653L537.7830544751477,235.15591512675897L539.0674635072314,263.0285617675157L540.3518725393153,274.0367420033241L541.636281571399,243.57925383986202L542.9206906034827,367.411605978958L544.2050996355664,312.7627239058368L545.4895086676503,71.12444047157459L546.773917699734,352.1980229586551L548.0583267318177,183.12080004384345L549.3427357639015,273.3887674264089L550.6271447959854,236.34913660376137L551.911553828069,283.1430819395024L553.1959628601528,337.66924211175456L554.4803718922365,303.90969314629496L555.7647809243203,104.78442261180095L557.0491899564041,314.4964142514461L558.3335989884878,311.9717391713052L559.6180080205716,203.46231346523606L560.9024170526553,174.5945498834708L562.1868260847391,227.07416891041424L563.4712351168229,284.7473978942584L564.7556441489065,318.2760209228628L566.0400531809903,255.78602164956612L567.3244622130742,77.81905064099038L568.6088712451578,280.41681068497803L569.8932802772416,318.62459669640015L571.1776893093254,326.2992913847054L572.4620983414092,96.44418489236801L573.7465073734929,280.320588481781L575.0309164055767,233.15138390438918L576.3153254376604,378.2146616479051L577.5997344697442,238.05452630137148L578.8841435018279,298.03528721161774L580.1685525339117,314.25898284095985L581.4529615659955,260.15729563460627L582.7373705980792,163.93281368407781L584.021779630163,236.31951280858306L585.3061886622468,252.3867095298988L586.5905976943304,90.53401722976463L587.8750067264143,294.56691416001485L589.159415758498,280.6208693832783L590.4438247905817,234.51525461341754L591.7282338226655,238.34528789399636L593.0126428547493,150.1149304132802L594.2970518868331,253.26160384804342L595.5814609189168,282.7065168785495L596.8658699510005,188.03471138870074L598.1502789830843,240.52796618240743L599.434688015168,141.9605213643455L600.7190970472518,260.6769616892293L602.0035060793356,246.40689286994686L603.2879151114192,84.6102505544863L604.5723241435031,218.13193597854266L605.8567331755869,371.4472416295461L607.1411422076706,251.14868481924583L608.4255512397543,292.722851287209L609.7099602718382,166.4463890295489L610.9943693039219,216.77729054568024L612.2787783360056,245.27347029462572L613.5631873680893,301.75685917759205L614.8475964001732,299.70462114859515L616.132005432257,277.75599846173486L617.4164144643406,212.275943842109L618.7008234964244,219.45210607656975L619.9852325285083,331.06071001716214L621.2696415605919,209.08881307425855L622.5540505926757,323.451584622403L623.8384596247594,286.11461322532307L625.1228686568433,268.46989427962967L626.407277688927,285.21722540513235L627.6916867210107,195.8452491874018L628.9760957530945,266.2826952383564L630.2605047851783,170.28057552210677L631.544913817262,297.4873572630838L632.8293228493458,191.13594785216938L634.1137318814294,236.59777801118233L635.3981409135133,127.5410839301689L636.6825499455971,96.6697079782416L637.9669589776807,254.7583773404028L639.2513680097645,208.1215924862778L640.5357770418483,320.3144394146549L641.8201860739321,345.7878894327631L643.1045951060158,87.17208401790907L644.3890041380996,295.24304236857597L645.6734131701833,231.51273963115105L646.9578222022672,243.01544612517802L648.2422312343508,230.91504464704468L649.5266402664346,311.98967516640073L650.8110492985184,363.1170010221337L652.0954583306021,142.5415299923589L653.3798673626859,322.61921478443367L654.6642763947697,266.32091949019934L655.9486854268533,159.33142235212523L657.2330944589372,219.84857242717578L658.5175034910209,345.1058070618957L659.8019125231046,336.71121004585143L661.0863215551884,262.7203419829434L662.3707305872722,346.45479236515826L663.655139619356,333.99328196937364L664.9395486514397,245.28956858530577L666.2239576835234,338.9811057858235L667.5083667156073,355.72821638679636L668.7927757476909,313.2788248138937L670.0771847797747,276.54847964437965L671.3615938118585,135.85555703369613L672.6460028439423,209.24663512946412L673.930411876026,284.69381043350165L675.2148209081098,181.4326847677393L676.4992299401935,293.6521784101416L677.7836389722772,189.6494287504487L679.0680480043611,348.9776297408836L680.3524570364448,247.54615934530938L681.6368660685285,324.5595366145249L682.9212751006122,271.50398102375493L684.2056841326961,235.36295090621238L685.4900931647799,330.31592517163693L686.7745021968635,251.21322499831916L688.0589112289473,243.8337759014127L689.3433202610312,302.2284876387932L690.6277292931148,276.6811619031808L691.9121383251986,270.42190390980363L693.1965473572823,340.96119553946676L694.4809563893662,208.9044545672928L695.7653654214499,245.67853710189644L697.0497744535336,177.344123229984L698.3341834856174,296.6295168419153L699.6185925177012,287.8132034165957L700.9030015497849,314.3302122641057L702.1874105818687,369.3678055751994L703.4718196139523,390.384601861122L704.7562286460362,173.61600903629036L706.04063767812,243.11299147555425L707.3250467102037,180.83021175215256L708.6094557422874,167.47418035506547L709.8938647743712,147.88737538304193L711.178273806455,358.02178175964036L712.4626828385387,131.86461435449365L713.7470918706224,319.6993229926893L715.0315009027062,355.92837915173567L716.31590993479,290.3815423536495L717.6003189668737,231.74237917491544L718.8847279989575,353.95883782143756L720.1691370310413,121.40215882192058L721.453546063125,218.90571979974493L722.7379550952088,302.19184381274755L724.0223641272926,248.82465030719231L725.3067731593762,275.24290091941185L726.5911821914601,313.79676342636617L727.8755912235438,316.46783004024803L729.1600002556276,262.9988644641608L730.4444092877113,223.2219729145842L731.7288183197951,79.29560938477891L733.0132273518789,307.38828383444815L734.2976363839626,205.16329267224893L735.5820454160463,322.52585940012483L736.8664544481302,260.0970556838653L738.1508634802138,262.40631505241794L739.4352725122976,349.97925215552306L740.7196815443814,326.82483809345814L742.0040905764652,177.02024620379132L743.2884996085489,213.30186070912174L744.5729086406327,343.5947729832718L745.8573176727164,342.3468614228633L747.1096164789981,237.63608100595573L748.3940255110818,188.27500961807522L749.6784345431656,234.92241640372197L750.9628435752493,326.91091616828146L752.2472526073332,273.02497546031094L753.5316616394169,317.01421631707285L754.8160706715006,261.5070527737234L756.1004797035844,274.92178044984246L757.3848887356681,192.0987211954646L758.6692977677519,307.76133783080036L759.9537067998357,267.32404882245953L761.2381158319193,284.0699097844298L762.5225248640031,255.86118376016123L763.806933896087,177.8587907285968L765.0913429281707,341.0615342005546L766.3757519602544,320.6960938676718L767.6601609923382,111.61844103817862L768.944570024422,194.7592393860013L770.2289790565058,152.41955876670573L771.5133880885894,305.2573185482901L772.7977971206732,407.60253233335317L774.0822061527571,340.92506627065745L775.3666151848407,229.5789232746908L776.6510242169245,223.84671890768712L777.9354332490083,278.4350669973608L779.219842281092,291.39547738787303L780.5042513131758,251.38398449261L781.7886603452595,303.7491512885544L783.0730693773432,156.55454071799727L784.3574784094271,296.9446831491784L785.6097772157087,247.2852420723927L786.8941862477925,174.9481609671067L788.1785952798762,290.51628284139605L789.46300431196,367.49551556257103L790.7474133440437,302.36929255111096L792.0318223761275,298.8159440473341L793.3162314082113,263.0565316287201L794.5364199886909,303.32511937171546L795.8208290207746,100.3698155566426L797.1052380528583,354.421865825974L798.389647084942,269.5202893694572L799.6419458912238,126.51531407950944L800.9263549233075,310.23628462945703L802.2107639553913,262.053769837343L803.4309525358709,305.612473303635L804.6832513421525,210.8973347436681L805.9676603742363,290.00492321073114L807.25206940632,378.1856626722281L808.5364784384038,279.97807713281486L809.7887772446854,293.05852637574935L811.0731862767692,292.372548071521L812.3254850830509,270.7843727287224L813.6098941151347,340.26161822256347L814.8943031472184,318.1999032059716L816.1787121793021,339.45030847719613L817.4631212113859,222.17135730022673L818.7154200176676,109.27665430147113L819.9998290497513,283.4636143436588L821.284238081835,318.4083356407808L822.5686471139189,168.3007062929934L823.8530561460026,275.91899237388463L825.1374651780864,240.1979144693786L826.389763984368,257.8676629492115L827.6420627906497,163.74014875315385L828.8622513711292,380.4797242252643L830.1145501774109,313.61280921437185L831.3989592094947,329.16780096099154L832.6191477899742,297.02274883275004L833.8714465962559,267.87815345782957L835.0916351767355,194.90287436311897L836.3439339830171,263.1516144551795L837.6283430151009,223.831318944685L838.9127520471847,248.2595561994174L840.1329406276642,314.35152963532585L841.3852394339459,366.4331753940425L842.6696484660296,345.5303902900593L843.9540574981135,250.95704900279452L845.2063563043951,262.7465476479088L846.2659937558642,217.0151630052262L847.4540721105417,367.827588750457L848.7063709168233,310.07169982200236L849.926559497303,294.36697191960536L851.1146378519803,284.8607842566965L852.3027162066579,262.65646337745966L853.4907945613353,312.391140073017L854.6467626902107,370.5258901437769L855.8348410448881,304.47074430435566L856.9908091737636,288.0614405290452L858.2109977542431,250.60244555877424L859.3990761089206,312.67451409389145L860.6192646894002,375.4322669005306L864.0871690760263,340.4442492873787L865.2431372049017,336.4831876819727L866.4633257853812,260.67328628039826L867.6835143658609,312.534922066488L868.9358131721425,363.7955917546116L870.156001752622,302.5051724155951L872.4358277845707,197.12153490398612L873.6560163650503,349.64030595312306L875.935842396999,316.4036574020578L877.0597003000722,311.2145681980193" style="fill: none;" fill="none"></path></g></g></g></g></g></g><g transform="translate(68, 377)" clip-path="url(#clip_1)"><clipPath id="clip_1"><rect width="960" height="22"></rect></clipPath><g><g><line x1="62.51960237835528" y1="0" x2="62.51960237835528" y2="5" style="visibility: inherit;" fill="rgb(0, 0, 0)" stroke="rgb(204, 204, 204)" stroke-width="1px"></line><line x1="126.74005398254316" y1="0" x2="126.74005398254316" y2="5" style="visibility: inherit;" fill="rgb(0, 0, 0)" stroke="rgb(204, 204, 204)" stroke-width="1px"></line><line x1="190.96050558673105" y1="0" x2="190.96050558673105" y2="5" style="visibility: inherit;" fill="rgb(0, 0, 0)" stroke="rgb(204, 204, 204)" stroke-width="1px"></line><line x1="255.1809571909189" y1="0" x2="255.1809571909189" y2="5" style="visibility: inherit;" fill="rgb(0, 0, 0)" stroke="rgb(204, 204, 204)" stroke-width="1px"></line><line x1="319.4014087951068" y1="0" x2="319.4014087951068" y2="5" style="visibility: inherit;" fill="rgb(0, 0, 0)" stroke="rgb(204, 204, 204)" stroke-width="1px"></line><line x1="383.6218603992947" y1="0" x2="383.6218603992947" y2="5" style="visibility: inherit;" fill="rgb(0, 0, 0)" stroke="rgb(204, 204, 204)" stroke-width="1px"></line><line x1="447.8423120034826" y1="0" x2="447.8423120034826" y2="5" style="visibility: inherit;" fill="rgb(0, 0, 0)" stroke="rgb(204, 204, 204)" stroke-width="1px"></line><line x1="512.0627636076704" y1="0" x2="512.0627636076704" y2="5" style="visibility: inherit;" fill="rgb(0, 0, 0)" stroke="rgb(204, 204, 204)" stroke-width="1px"></line><line x1="576.2832152118583" y1="0" x2="576.2832152118583" y2="5" style="visibility: inherit;" fill="rgb(0, 0, 0)" stroke="rgb(204, 204, 204)" stroke-width="1px"></line><line x1="640.5036668160462" y1="0" x2="640.5036668160462" y2="5" style="visibility: inherit;" fill="rgb(0, 0, 0)" stroke="rgb(204, 204, 204)" stroke-width="1px"></line><line x1="704.7241184202342" y1="0" x2="704.7241184202342" y2="5" style="visibility: inherit;" fill="rgb(0, 0, 0)" stroke="rgb(204, 204, 204)" stroke-width="1px"></line><line x1="768.944570024422" y1="0" x2="768.944570024422" y2="5" style="visibility: inherit;" fill="rgb(0, 0, 0)" stroke="rgb(204, 204, 204)" stroke-width="1px"></line><line x1="833.1650216286099" y1="0" x2="833.1650216286099" y2="5" style="visibility: inherit;" fill="rgb(0, 0, 0)" stroke="rgb(204, 204, 204)" stroke-width="1px"></line><line x1="897.3854732327977" y1="0" x2="897.3854732327977" y2="5" style="visibility: inherit;" fill="rgb(0, 0, 0)" stroke="rgb(204, 204, 204)" stroke-width="1px"></line></g><g transform="translate(0, 8)"><text x="62.51960237835528" y="0" dx="0em" dy="0.95em" style="text-anchor: middle; visibility: inherit; font-family: &quot;Helvetica Neue&quot;, sans-serif; font-size: 12px; font-weight: 200;" fill="rgb(50, 49, 63)" stroke="none" stroke-width="1px">-4k</text><text x="126.74005398254316" y="0" dx="0em" dy="0.95em" style="text-anchor: middle; visibility: inherit; font-family: &quot;Helvetica Neue&quot;, sans-serif; font-size: 12px; font-weight: 200;" fill="rgb(50, 49, 63)" stroke="none" stroke-width="1px">-2k</text><text x="190.96050558673105" y="0" dx="0em" dy="0.95em" style="text-anchor: middle; visibility: inherit; font-family: &quot;Helvetica Neue&quot;, sans-serif; font-size: 12px; font-weight: 200;" fill="rgb(50, 49, 63)" stroke="none" stroke-width="1px">0</text><text x="255.1809571909189" y="0" dx="0em" dy="0.95em" style="text-anchor: middle; visibility: inherit; font-family: &quot;Helvetica Neue&quot;, sans-serif; font-size: 12px; font-weight: 200;" fill="rgb(50, 49, 63)" stroke="none" stroke-width="1px">2k</text><text x="319.4014087951068" y="0" dx="0em" dy="0.95em" style="text-anchor: middle; visibility: inherit; font-family: &quot;Helvetica Neue&quot;, sans-serif; font-size: 12px; font-weight: 200;" fill="rgb(50, 49, 63)" stroke="none" stroke-width="1px">4k</text><text x="383.6218603992947" y="0" dx="0em" dy="0.95em" style="text-anchor: middle; visibility: inherit; font-family: &quot;Helvetica Neue&quot;, sans-serif; font-size: 12px; font-weight: 200;" fill="rgb(50, 49, 63)" stroke="none" stroke-width="1px">6k</text><text x="447.8423120034826" y="0" dx="0em" dy="0.95em" style="text-anchor: middle; visibility: inherit; font-family: &quot;Helvetica Neue&quot;, sans-serif; font-size: 12px; font-weight: 200;" fill="rgb(50, 49, 63)" stroke="none" stroke-width="1px">8k</text><text x="512.0627636076704" y="0" dx="0em" dy="0.95em" style="text-anchor: middle; visibility: inherit; font-family: &quot;Helvetica Neue&quot;, sans-serif; font-size: 12px; font-weight: 200;" fill="rgb(50, 49, 63)" stroke="none" stroke-width="1px">10k</text><text x="576.2832152118583" y="0" dx="0em" dy="0.95em" style="text-anchor: middle; visibility: inherit; font-family: &quot;Helvetica Neue&quot;, sans-serif; font-size: 12px; font-weight: 200;" fill="rgb(50, 49, 63)" stroke="none" stroke-width="1px">12k</text><text x="640.5036668160462" y="0" dx="0em" dy="0.95em" style="text-anchor: middle; visibility: inherit; font-family: &quot;Helvetica Neue&quot;, sans-serif; font-size: 12px; font-weight: 200;" fill="rgb(50, 49, 63)" stroke="none" stroke-width="1px">14k</text><text x="704.7241184202342" y="0" dx="0em" dy="0.95em" style="text-anchor: middle; visibility: inherit; font-family: &quot;Helvetica Neue&quot;, sans-serif; font-size: 12px; font-weight: 200;" fill="rgb(50, 49, 63)" stroke="none" stroke-width="1px">16k</text><text x="768.944570024422" y="0" dx="0em" dy="0.95em" style="text-anchor: middle; visibility: inherit; font-family: &quot;Helvetica Neue&quot;, sans-serif; font-size: 12px; font-weight: 200;" fill="rgb(50, 49, 63)" stroke="none" stroke-width="1px">18k</text><text x="833.1650216286099" y="0" dx="0em" dy="0.95em" style="text-anchor: middle; visibility: inherit; font-family: &quot;Helvetica Neue&quot;, sans-serif; font-size: 12px; font-weight: 200;" fill="rgb(50, 49, 63)" stroke="none" stroke-width="1px">20k</text><text x="897.3854732327977" y="0" dx="0em" dy="0.95em" style="text-anchor: middle; visibility: inherit; font-family: &quot;Helvetica Neue&quot;, sans-serif; font-size: 12px; font-weight: 200;" fill="rgb(50, 49, 63)" stroke="none" stroke-width="1px">22k</text></g><line x1="0" y1="0" x2="960.6875" y2="0" fill="rgb(0, 0, 0)" stroke="rgb(204, 204, 204)" stroke-width="1px"></line></g></g></g></g></svg>