<svg viewBox="0 0 1029 400" xmlns="http://www.w3.org/2000/svg"><g><g><g><g><g><line x1="48.875" y1="377.1926248319423" x2="43.875" y2="377.1926248319423" style="visibility: inherit;" fill="rgb(0, 0, 0)" stroke="rgb(204, 204, 204)" stroke-width="1px"></line><line x1="48.875" y1="327.7969846331091" x2="43.875" y2="327.7969846331091" style="visibility: inherit;" fill="rgb(0, 0, 0)" stroke="rgb(204, 204, 204)" stroke-width="1px"></line><line x1="48.875" y1="278.401344434276" x2="43.875" y2="278.401344434276" style="visibility: inherit;" fill="rgb(0, 0, 0)" stroke="rgb(204, 204, 204)" stroke-width="1px"></line><line x1="48.875" y1="229.0057042354429" x2="43.875" y2="229.0057042354429" style="visibility: inherit;" fill="rgb(0, 0, 0)" stroke="rgb(204, 204, 204)" stroke-width="1px"></line><line x1="48.875" y1="179.61006403660974" x2="43.875" y2="179.61006403660974" style="visibility: inherit;" fill="rgb(0, 0, 0)" stroke="rgb(204, 204, 204)" stroke-width="1px"></line><line x1="48.875" y1="130.21442383777665" x2="43.875" y2="130.21442383777665" style="visibility: inherit;" fill="rgb(0, 0, 0)" stroke="rgb(204, 204, 204)" stroke-width="1px"></line><line x1="48.875" y1="80.8187836389435" x2="43.875" y2="80.8187836389435" style="visibility: inherit;" fill="rgb(0, 0, 0)" stroke="rgb(204, 204, 204)" stroke-width="1px"></line><line x1="48.875" y1="31.423143440110323" x2="43.875" y2="31.423143440110323" style="visibility: inherit;" fill="rgb(0, 0, 0)" stroke="rgb(204, 204, 204)" stroke-width="1px"></line></g><g transform="translate(38.875, 0)"><text x="0" y="377.1926248319423" dx="0em" dy="0.3em" style="text-anchor: end; visibility: hidden; font-family: &quot;Helvetica Neue&quot;, sans-serif; font-size: 12px; font-weight: 200;" fill="rgb(50, 49, 63)" stroke="none" stroke-width="1px">1e-3</text><text x="0" y="327.7969846331091" dx="0em" dy="0.3em" style="text-anchor: end; visibility: inherit; font-family: &quot;Helvetica Neue&quot;, sans-serif; font-size: 12px; font-weight: 200;" fill="rgb(50, 49, 63)" stroke="none" stroke-width="1px">2e-3</text><text x="0" y="278.401344434276" dx="0em" dy="0.3em" style="text-anchor: end; visibility: inherit; font-family: &quot;Helvetica Neue&quot;, sans-serif; font-size: 12px; font-weight: 200;" fill="rgb(50, 49, 63)" stroke="none" stroke-width="1px">3e-3</text><text x="0" y="229.0057042354429" dx="0em" dy="0.3em" style="text-anchor: end; visibility: inherit; font-family: &quot;Helvetica Neue&quot;, sans-serif; font-size: 12px; font-weight: 200;" fill="rgb(50, 49, 63)" stroke="none" stroke-width="1px">4e-3</text><text x="0" y="179.61006403660974" dx="0em" dy="0.3em" style="text-anchor: end; visibility: inherit; font-family: &quot;Helvetica Neue&quot;, sans-serif; font-size: 12px; font-weight: 200;" fill="rgb(50, 49, 63)" stroke="none" stroke-width="1px">5e-3</text><text x="0" y="130.21442383777665" dx="0em" dy="0.3em" style="text-anchor: end; visibility: inherit; font-family: &quot;Helvetica Neue&quot;, sans-serif; font-size: 12px; font-weight: 200;" fill="rgb(50, 49, 63)" stroke="none" stroke-width="1px">6e-3</text><text x="0" y="80.8187836389435" dx="0em" dy="0.3em" style="text-anchor: end; visibility: inherit; font-family: &quot;Helvetica Neue&quot;, sans-serif; font-size: 12px; font-weight: 200;" fill="rgb(50, 49, 63)" stroke="none" stroke-width="1px">7e-3</text><text x="0" y="31.423143440110323" dx="0em" dy="0.3em" style="text-anchor: end; visibility: inherit; font-family: &quot;Helvetica Neue&quot;, sans-serif; font-size: 12px; font-weight: 200;" fill="rgb(50, 49, 63)" stroke="none" stroke-width="1px">8e-3</text></g><line x1="48.875" y1="0" x2="48.875" y2="377.828125" fill="rgb(0, 0, 0)" stroke="rgb(204, 204, 204)" stroke-width="1px"></line></g></g><g transform="translate(48, 0)" clip-path="url(#clip_0)"><clipPath id="clip_0"><rect width="980" height="377"></rect></clipPath><g><g><g><line x1="16.520387037120436" y1="0" x2="16.520387037120436" y2="377.828125" fill="rgb(0, 0, 0)" stroke="rgb(60, 60, 60)" stroke-width="1px" opacity="0.25"></line><line x1="101.74863096553979" y1="0" x2="101.74863096553979" y2="377.828125" fill="rgb(0, 0, 0)" stroke="rgb(60, 60, 60)" stroke-width="1px" opacity="0.25"></line><line x1="186.97687489395915" y1="0" x2="186.97687489395915" y2="377.828125" fill="rgb(0, 0, 0)" stroke="rgb(60, 60, 60)" stroke-width="1px" opacity="0.25"></line><line x1="272.2051188223785" y1="0" x2="272.2051188223785" y2="377.828125" fill="rgb(0, 0, 0)" stroke="rgb(60, 60, 60)" stroke-width="1px" opacity="0.25"></line><line x1="357.43336275079787" y1="0" x2="357.43336275079787" y2="377.828125" fill="rgb(0, 0, 0)" stroke="rgb(60, 60, 60)" stroke-width="1px" opacity="0.25"></line><line x1="442.66160667921724" y1="0" x2="442.66160667921724" y2="377.828125" fill="rgb(0, 0, 0)" stroke="rgb(60, 60, 60)" stroke-width="1px" opacity="0.25"></line><line x1="527.8898506076366" y1="0" x2="527.8898506076366" y2="377.828125" fill="rgb(0, 0, 0)" stroke="rgb(60, 60, 60)" stroke-width="1px" opacity="0.25"></line><line x1="613.118094536056" y1="0" x2="613.118094536056" y2="377.828125" fill="rgb(0, 0, 0)" stroke="rgb(60, 60, 60)" stroke-width="1px" opacity="0.25"></line><line x1="698.3463384644754" y1="0" x2="698.3463384644754" y2="377.828125" fill="rgb(0, 0, 0)" stroke="rgb(60, 60, 60)" stroke-width="1px" opacity="0.25"></line><line x1="783.5745823928946" y1="0" x2="783.5745823928946" y2="377.828125" fill="rgb(0, 0, 0)" stroke="rgb(60, 60, 60)" stroke-width="1px" opacity="0.25"></line><line x1="868.802826321314" y1="0" x2="868.802826321314" y2="377.828125" fill="rgb(0, 0, 0)" stroke="rgb(60, 60, 60)" stroke-width="1px" opacity="0.25"></line><line x1="954.0310702497334" y1="0" x2="954.0310702497334" y2="377.828125" fill="rgb(0, 0, 0)" stroke="rgb(60, 60, 60)" stroke-width="1px" opacity="0.25"></line></g><g><line x1="0" y1="377.1926248319423" x2="980.125" y2="377.1926248319423" fill="rgb(0, 0, 0)" stroke="rgb(60, 60, 60)" stroke-width="1px" opacity="0.25"></line><line x1="0" y1="327.7969846331091" x2="980.125" y2="327.7969846331091" fill="rgb(0, 0, 0)" stroke="rgb(60, 60, 60)" stroke-width="1px" opacity="0.25"></line><line x1="0" y1="278.401344434276" x2="980.125" y2="278.401344434276" fill="rgb(0, 0, 0)" stroke="rgb(60, 60, 60)" stroke-width="1px" opacity="0.25"></line><line x1="0" y1="229.0057042354429" x2="980.125" y2="229.0057042354429" fill="rgb(0, 0, 0)" stroke="rgb(60, 60, 60)" stroke-width="1px" opacity="0.25"></line><line x1="0" y1="179.61006403660974" x2="980.125" y2="179.61006403660974" fill="rgb(0, 0, 0)" stroke="rgb(60, 60, 60)" stroke-width="1px" opacity="0.25"></line><line x1="0" y1="130.21442383777665" x2="980.125" y2="130.21442383777665" fill="rgb(0, 0, 0)" stroke="rgb(60, 60, 60)" stroke-width="1px" opacity="0.25"></line><line x1="0" y1="80.8187836389435" x2="980.125" y2="80.8187836389435" fill="rgb(0, 0, 0)" stroke="rgb(60, 60, 60)" stroke-width="1px" opacity="0.25"></line><line x1="0" y1="31.423143440110323" x2="980.125" y2="31.423143440110323" fill="rgb(0, 0, 0)" stroke="rgb(60, 60, 60)" stroke-width="1px" opacity="0.25"></line></g></g></g><g><g><line x1="0" y1="426.5882650307754" x2="980.125" y2="426.5882650307754" fill="rgb(0, 0, 0)" stroke="rgb(153, 153, 153)" stroke-width="1.5px"></line></g></g><g><g><line x1="16.520387037120436" y1="0" x2="16.520387037120436" y2="377.828125" fill="rgb(0, 0, 0)" stroke="rgb(153, 153, 153)" stroke-width="1.5px"></line></g></g><g><g><g><g><g><path stroke="rgb(255, 112, 67)" stroke-width="2px" d="M16.563001159084646,45.10426858133496L18.267566037653033,59.355420746048594L19.97213091622142,89.85007900143034L21.676695794789808,84.90144447278584L23.38126067335819,85.81448919508045L25.085825551926582,-17.86400388276934L26.790390430494966,-0.9048826366945946L28.494955309063354,14.722609247958815L30.19952018763174,47.82917021269748L31.904085066200132,69.07730677274395L33.608649944768516,84.21002056381661L35.31321482333691,91.30612287234578L37.01777970190529,104.44439876128854L38.72234458047368,111.28872152670169L40.426909459042065,105.44980790400359L42.13147433761045,120.45748764072562L43.83603921617884,114.47411306021564L45.54060409474723,121.76322362205929L47.245168973315614,112.52504899679684L48.949733851884,111.91906549353644L50.65429873045239,124.97000332113004L52.35886360902078,137.7143676054984L54.063428487589164,140.12460707078944L55.76799336615755,151.89353374749064L57.47255824472594,163.1536427301475L59.17712312329432,172.2659522672635L60.88168800186271,172.2308848045667L62.586252880431104,173.0784591415383L64.2908177589995,171.6184709071565L65.99538263756789,180.42771926264464L67.69994751613625,188.94997499991527L69.40451239470464,180.8024172800228L71.10907727327303,184.46166662188955L72.81364215184142,190.37691426167308L74.51820703040981,199.6378067004072L76.2227719089782,198.07610509806702L77.92733678754658,198.2675719345141L79.63190166611497,199.0859327894818L81.33646654468336,189.07439675107193L83.04103142325174,180.27278860909564L84.74559630182013,178.9508679082156L86.45016118038852,185.90637454316254L88.15472605895691,186.9178558542208L89.85929093752529,192.3215914412034L91.56385581609368,191.5767189188821L93.26842069466207,178.14329092867533L94.97298557323046,185.5908050251659L96.67755045179885,188.24929532252455L98.38211533036723,190.7993700411407L100.08668020893562,187.43845156476482L101.791245087504,193.55577490062942L103.49580996607239,194.23146174792006L105.20037484464078,200.1979431620085L106.90493972320917,199.0294390040647L108.60950460177756,198.28238023226766L110.31406948034595,199.17333094858466L112.01863435891433,195.04967526340212L113.7231992374827,194.54626213048758L115.4277641160511,200.96329805262047L117.13232899461948,208.45475300017955L118.83689387318788,211.88315408730728L120.54145875175627,218.53307331763176L122.24602363032466,219.46325570779115L123.95058850889302,215.28184778400077L125.65515338746143,216.6058470276071L127.3597182660298,212.5409415475453L129.0642831445982,217.26915926980843L130.76884802316658,217.83776123585676L132.47341290173497,218.92730189676547L134.17797778030337,221.5737998188995L135.88254265887173,217.69106575173387L137.58710753744015,224.63146249745583L139.2916724160085,227.8688706281449L140.9962372945769,223.56646355271792L142.7008021731453,229.98110490493218L144.40536705171368,234.85802139731837L146.10993193028207,230.60857780011926L147.81449680885046,230.66518289963466L149.51906168741885,231.2071172638359L151.22362656598722,232.028725409141L152.9281914445556,236.73414391701394L154.632756323124,242.14537396273718L156.3373212016924,242.22471003666365L158.04188608026078,234.50439661966547L159.74645095882917,233.19163477176625L161.45101583739756,223.55395201459308L163.15558071596595,227.12235291105998L164.86014559453432,226.0640156949281L166.5647104731027,225.76808347327338L168.2692753516711,217.78287057105052L169.9738402302395,219.35456583593916L171.67840510880788,219.71680125501732L173.38296998737627,224.058478926827L175.08753486594466,221.70481150619625L176.79209974451302,226.22845306362467L178.49666462308144,225.23005882566193L180.2012295016498,222.94968057942467L181.9057943802182,223.6873780990947L183.6103592587866,224.13176664739265L185.31492413735498,220.8067255855147L187.01948901592337,224.96188373972788L188.72405389449173,227.35024711181643L190.42861877306015,224.6281230832412L192.1331836516285,229.13233942109787L193.83774853019693,228.07148035947515L195.5423134087653,221.9674117291317L197.24687828733366,226.5645982467519L198.95144316590208,225.7134442451222L200.65600804447044,224.428813553289L202.36057292303886,226.82940333136872L204.06513780160722,224.44297310822768L205.76970268017564,223.5629768221235L207.474267558744,224.11291841141664L209.1788324373124,229.18394851468295L210.88339731588079,233.6984677391803L212.58796219444915,236.95209856182862L214.29252707301757,234.4347989782641L215.99709195158593,233.29774418967983L217.70165683015435,233.42484939698508L219.4062217087227,230.1767205989542L221.1107865872911,232.86172879946403L222.8153514658595,237.17066737415607L224.51991634442788,241.74324383589087L226.22448122299627,236.66074357572262L227.92904610156464,240.64700255762523L229.63361098013306,245.83667194130481L231.33817585870142,250.57348345443336L233.0427407372698,255.66709784678895L234.7473056158382,251.649511777261L236.4518704944066,253.63844116915465L238.15643537297498,240.85553271116103L239.86100025154337,244.5335047028654L241.56556513011174,246.96127833926786L243.27013000868013,242.39352653276478L244.97469488724852,245.37988062111634L246.6792597658169,241.21090858929202L248.3838246443853,241.24922723288947L250.08838952295372,241.95777554585518L251.79295440152205,230.01426506005015L253.49751928009044,234.91832900004727L255.20208415865886,239.44534556812687L256.9066490372273,242.585912847013L258.6112139157956,237.489996773044L260.315778794364,233.00847939657282L262.0203436729324,233.67274087297886L263.7249085515008,240.35560020085674L265.42947343006915,239.62233851407305L267.13403830863757,234.47343085468987L268.838603187206,232.5305757955373L270.5431680657743,234.0045794192619L272.2477329443427,235.8697486246452L273.95229782291113,238.08429492801673L275.6568627014795,242.65371645500798L277.36142758004786,244.05051802562076L279.0659924586163,244.49842727695304L280.7705573371847,241.62225321916875L282.475122215753,243.92189333254544L284.1796870943214,241.5295504386653L285.88425197288984,239.57022534324815L287.5888168514582,237.27046106161566L289.29338173002657,233.46874891297495L290.997946608595,238.11155420470672L292.7025114871634,232.23154282760294L294.4070763657317,235.53045685898002L296.11164124430013,240.53045924804042L297.81620612286855,241.3901291485066L299.5207710014369,240.69778863433538L301.2253358800053,241.24972554981656L302.9299007585737,244.46714757085857L304.6344656371421,244.53332213566472L306.3390305157104,247.24683822803686L308.04359539427884,240.54375927209455L309.74816027284726,242.58465548639026L311.4527251514156,244.91148295813974L313.157290029984,247.74721721381474L314.8618549085524,248.2965557633443L316.5664197871208,246.52015532373792L318.2709846656892,234.27171106694618L319.97554954425755,234.04582201135702L321.68011442282597,231.16248569062196L323.3846793013943,230.97026278948104L325.0892441799627,234.56471342565817L326.7938090585311,229.4980813319355L328.49837393709953,235.89440078521983L330.2029388156679,240.24278293159506L331.90750369423625,240.18165639146645L333.6120685728047,244.79633481830143L335.31663345137304,249.69244177980067L337.0211983299414,245.89355750553835L338.7257632085098,250.33097962021856L340.43032808707824,252.13457302918715L342.1348929656466,252.8951353305268L343.83945784421496,253.1915818501422L345.5440227227834,259.8207776665356L347.24858760135174,262.02661544642444L348.95315247992016,255.0513346674714L350.6577173584885,259.1177923011628L352.36228223705695,254.21177427804105L354.0668471156253,256.4455380263251L355.77141199419367,261.1162387124684L357.4759768727621,258.7000917839457L359.18054175133045,239.29234815050955L360.88510662989887,237.4882689129265L362.58967150846723,235.8336631358684L364.29423638703565,239.1061326776731L365.998801265604,231.9957503073571L367.7033661441724,231.47495063245304L369.4079310227408,237.2017322551245L371.11249590130916,243.02067907586988L372.8170607798776,247.30813242078486L374.52162565844594,245.78572237171807L376.22619053701436,239.33486325888262L377.9307554155827,239.7093235330712L379.63532029415114,241.53213113984847L381.3398851727195,246.04001487337283L383.04445005128787,251.70614114074795L384.7490149298563,253.27302114223596L386.45357980842465,255.68237474076284L388.15814468699307,257.45483725287755L389.86270956556143,260.7240679759873L391.56727444412985,260.61386985696754L393.2718393226982,259.03818165147965L394.9764042012666,255.17564780722984L396.680969079835,259.07759643884515L398.38553395840336,256.6469275938584L400.0900988369717,258.06896520335386L401.79466371554014,263.9689624079359L403.49922859410856,260.3402260951323L405.2037934726769,256.85562244828935L406.9083583512453,262.6438972246363L408.6129232298137,255.67682616998826L410.3174881083821,257.9013453896838L412.0220529869504,261.73688323412523L413.72661786551885,261.9732012358736L415.43118274408727,265.3455893117163L417.13574762265563,266.9965622004754L418.840312501224,265.5789190054668L420.5448773797924,266.5644419751175L422.24944225836083,268.47711792097004L423.95400713692914,269.00349589523023L425.65857201549755,270.71373484341984L427.363136894066,268.4023034848943L429.06770177263434,269.8979405178726L430.7722666512027,266.5084718787673L432.4768315297711,261.7781107223761L434.18139640833954,261.5809159652439L435.88596128690784,263.32573763697275L437.59052616547626,268.3309039317004L439.2950910440447,267.6883268751529L440.9996559226131,269.6214813284686L442.7042208011814,275.0264824389699L444.4087856797498,277.3201608559906L446.11335055831825,277.8511991456701L447.81791543688655,276.6173406510573L449.52248031545497,242.92164554203922L451.2270451940234,249.74240235541325L452.9316100725918,248.3280511464916L454.6361749511601,252.08257908224158L456.34073982972853,249.52587327886815L458.04530470829695,249.11983771452662L459.74986958686526,243.36002378731945L461.4544344654337,245.63537444058272L463.1589993440021,236.8518552889563L464.8635642225705,238.72776426487647L466.5681291011388,241.29819850413693L468.27269397970724,245.9208480489294L469.97725885827566,247.9312245854598L471.681823736844,247.09629027247817L473.3863886154124,251.1062256711197L475.0909534939808,253.71124808838255L476.7955183725492,256.0953907314228L478.50008325111753,257.1092538005829L480.20464812968595,259.6225061043678L481.90921300825437,262.31644532382126L483.61377788682273,264.50734646039956L485.3183427653911,265.36236179724483L487.0229076439595,264.20910452778355L488.72747252252793,269.246632616486L490.43203740109624,270.5269575815529L492.1366022796647,274.1438840663591L493.8411671582331,269.31557769056747L495.5457320368014,272.36998539697686L497.25029691536986,271.7596012036557L498.9548617939382,267.6966873773892L500.6594266725066,267.09839585582796L502.363991551075,265.09673515739485L504.06855642964337,266.9254978829171L505.7731213082117,268.77316686217443L507.47768618678015,268.89154447531337L509.1822510653485,270.28545888718037L510.886815943917,264.8361711976681L512.5913808224853,267.44346123457996L514.2959457010537,271.5737695900444L516.0005105796221,272.1396559324603L517.7050754581904,276.2724479176072L519.4096403367588,277.3352884778275L521.1142052153273,281.9057892321913L522.8187700938956,278.7552850354487L524.523334972464,282.66537374108924L526.2278998510325,283.2321183443084L527.9324647296007,282.4644150729692L529.6370296081692,278.200398963187L531.3415944867376,280.9727902507917L533.0461593653059,282.8380232137876L534.7507242438744,280.7056257352668L536.4552891224428,280.6069615098247L538.1598540010111,283.9037895676346L539.8644188795795,278.91771458213015L541.5689837581479,275.5037541265774L543.2735486367162,278.26960160696876L544.9781135152847,282.4930123207382L546.682678393853,279.07628821350517L548.3872432724215,280.4467655897897L550.0918081509899,279.37326565302385L551.7963730295581,278.9660758377056L553.5009379081266,283.0057788848239L555.205502786695,273.0858512698107L556.9100676652633,277.29005037949594L558.6146325438318,273.6838922601072L560.3191974224002,279.1757379060955L562.0237623009685,277.03853330886506L563.7283271795369,275.5381757928208L565.4328920581053,273.9548599802542L567.1374569366736,271.14549543367025L568.8420218152421,275.2836049229804L570.5465866938105,277.33763023595907L572.251151572379,275.5227389227636L573.9557164509473,278.5363423848579L575.6602813295156,278.97222689640944L577.364846208084,280.9766848921609L579.0694110866524,281.3310734378525L580.7739759652208,283.8674358059217L582.4785408437892,280.58147815740864L584.1831057223576,283.33042819250716L585.887670600926,280.2617709002346L587.5922354794943,279.636207724432L589.2968003580627,279.6820224685584L591.0013652366312,282.1243677400955L592.7059301151995,286.3051976872317L594.4104949937679,282.85560662269626L596.1150598723364,280.99086912766063L597.8196247509047,285.5159312729405L599.524189629473,287.0633851719888L601.2287545080414,289.3763054548648L602.9333193866098,288.57704343832273L604.6378842651782,287.58879345305934L606.3424491437466,285.6712107776335L608.047014022315,280.50637773380333L609.7515789008835,283.52585913105503L611.4561437794517,283.4749526048404L613.1607086580201,280.5547806666522L614.8652735365886,282.66002950527377L616.5698384151569,282.75385063627357L618.2744032937253,286.4216359338364L619.9789681722938,286.21250147664057L621.6835330508621,286.42734332202485L623.3880979294304,285.0070630510471L625.0926628079989,288.08605159519163L626.7972276865672,287.3902997312472L628.5017925651356,284.3020582453071L630.2063574437041,284.9137470214574L631.9109223222724,284.9295852631594L633.6154872008409,283.3073634312793L635.3200520794092,280.3476854059171L637.0246169579775,285.54625412194184L638.729181836546,288.15980860781735L640.4337467151144,289.82931692266095L642.1383115936827,293.54550370809403L643.8428764722512,295.64776873270546L645.5474413508196,293.62541243053147L647.2520062293878,294.6716062935015L648.9565711079563,290.1398942696061L650.6611359865246,292.86967814753274L652.3657008650931,294.8999272293411L654.0702657436615,290.83728000224846L655.7748306222298,289.3270232796382L657.4793955007982,292.8550102548136L659.1839603793666,295.22937138451L660.8885252579349,296.64682253184816L662.5930901365034,294.90037795784474L664.2976550150718,297.9281212326479L666.0022198936401,300.8626218344849L667.7067847722086,296.78346707393575L669.411349650777,291.2788861379181L671.1159145293453,294.3606512506986L672.8204794079137,293.9659925739729L674.5250442864821,292.98784202459115L676.2296091650505,295.0975444702494L677.9341740436189,290.55938722453266L679.6387389221873,291.26114584126617L681.3433038007556,294.35801760021064L683.047868679324,295.67726038776897L684.7524335578923,295.65638931010335L686.4569984364608,294.75922474272875L688.1615633150292,291.3935961384809L689.8661281935975,290.7499428428868L691.570693072166,289.7244856917721L693.2752579507344,291.97546278881896L694.9798228293027,295.3624419834494L696.6843877078711,297.1324055911248L698.3889525864395,290.70430972973907L700.093517465008,293.0176454569443L701.7980823435763,290.46381383653807L703.5026472221447,287.6119133484807L705.207212100713,281.6156091455865L706.9117769792814,283.7312324398712L708.6163418578498,285.6018787931358L710.3209067364182,285.73206249042096L712.0254716149866,285.36727195109336L713.7300364935551,288.63721056073916L715.4346013721234,288.9165337229528L717.1391662506917,292.0610282297403L718.8437311292602,285.0972913118417L720.5482960078285,288.67606347498867L722.2528608863969,292.57842235845476L723.9574257649654,291.42673193003304L725.6619906435337,291.804167169019L727.3665555221021,295.1965649681916L729.0711204006705,296.29241858753096L730.7756852792388,300.13169357162155L732.4802501578073,298.56016326806264L734.1848150363757,294.9309758308342L735.889379914944,294.9468136632134L737.5939447935125,294.04103106392796L739.2985096720809,298.2155760287012L741.0030745506491,299.39151819537943L742.7076394292176,299.0756545111603L744.4122043077859,296.042063617195L746.1167691863543,297.47323320172893L747.8213340649228,296.76073810425356L749.5258989434911,294.1605662666032L751.2304638220595,296.4591499597998L752.9350287006279,300.1610894784138L754.5969794572321,301.72121818621986L756.3015443358005,303.2442307765138L758.0061092143688,300.48430926316246L759.7106740929372,303.63883515000424L761.4152389715056,306.2513405223535L763.1198038500739,308.40721836973813L764.8243687286424,309.94485293394814L766.5289336072108,305.7952615981157L768.2334984857793,302.26682414679124L769.9380633643476,302.56364358665746L771.6426282429159,299.2484650460011L773.3471931214843,298.99896775985997L775.0517580000527,301.00155742850444L776.7563228786211,302.2955200807586L778.4608877571895,303.67848089010624L780.1654526357579,299.64025129569245L781.8700175143263,294.4833447721426L783.5745823928946,293.80652343941813L785.279147271463,292.9850291267259L786.9837121500315,296.517934890689L788.6882770285998,297.70726563899916L790.3928419071682,297.4654120793686L792.0974067857367,295.50263810197947L793.801971664305,291.9649469487062L795.5065365428733,294.1143005071757L797.2111014214418,291.0052065022855L798.9156663000101,289.1707699155387L800.6202311785785,292.1790611883556L802.324796057147,286.72228128925235L804.0293609357153,288.8757708781183L805.6913116923195,291.0076175191891L807.3958765708878,287.8391279646029L809.1004414494563,286.4055063200503L810.8050063280247,290.4139118452503L812.509571206593,290.4568439908107L814.2141360851614,292.9317571480283L815.9187009637297,294.64366137614377L817.5380375983698,295.3430850941773L819.2426024769381,291.23266794966827L820.9471673555065,296.28286812675645L822.651732234075,299.6691017544896L824.313682990679,292.98126936164164L826.0182478692475,292.2621429762506L827.7228127478159,289.4760702467758L829.3421493824559,292.1863579453007L831.00410013906,288.63926988663087L832.7086650176285,289.69575134150716L834.4132298961968,290.6776190378638L836.1177947747651,291.0591781437725L837.7797455313694,290.67415716007145L839.4843104099378,286.0889258025873L841.146261166542,290.1740126656328L842.8508260451104,294.79979336330905L844.5553909236787,296.14691052111596L846.2599558022472,299.22549474386363L847.9645206808154,295.14141999188325L849.6264714374197,286.2463528520632L851.3310363159881,289.8273246232468L853.0356011945565,291.148148473346L854.7401660731248,287.28406479578365L856.4447309516931,287.8075386183169L858.1492958302616,291.9823482379216L859.8112465868658,293.5529469520554L861.4731973434699,294.67660430390026L863.0925339781099,294.7806037988437L864.7544847347142,292.07648822246796L866.4590496132824,297.3786693948416L868.0783862479225,300.2332744519682L869.7403370045266,296.22299775500954L871.3596736391665,292.6989261410549L873.0216243957708,296.3908022498325L874.7261892743392,288.66205085081833L876.4307541529075,290.4868287106817L878.0500907875474,290.863074626679L879.7120415441517,293.9145885153661L881.4166064227202,296.11811351605746L883.1211713012884,297.128920992492L884.7831220578927,297.9081397099577L886.1893880827116,297.19539442693645L887.7661105953873,298.3618743924759L889.4280613519915,300.0993795001795L891.0473979866315,301.8085292060216L892.6241204993072,299.44468381959086L894.200843011983,297.7183007472232L895.7775655246587,301.7506513734952L897.3116739153702,304.88396355119556L898.888396428046,303.28330942868035L900.4225048187576,306.0876270562287L902.0418414533975,306.2697347223987L903.6185639660733,310.0025076305301L905.2379006007133,312.3615958273127L909.8402257728479,315.8909948785846L911.3743341635594,319.66789312345986L912.9936707981994,316.3890610867337L914.6130074328394,314.40288721009205L916.2749581894436,315.7746514096264L917.8942948240835,317.1478297711096L920.9198974835424,311.10594218152323L922.5392341181824,313.62532463741945L925.5648367776413,313.346831535598L927.0563310463887,312.7004248807183" style="fill: none;" fill="none"></path></g></g></g></g><g opacity="0.20000000298023224"><g><g><g><path stroke="rgb(255, 112, 67)" stroke-width="2px" d="M16.563001159084646,45.10426858133496L18.267566037653033,72.22421115078498L19.97213091622142,142.25237419940285L21.676695794789808,72.75391585852435L23.38126067335819,88.6628373564177L25.085825551926582,-403.5492934236305L26.790390430494966,71.37779689765227L28.494955309063354,88.98039796239493L30.19952018763174,219.77874901827246L31.904085066200132,187.9185830096655L33.608649944768516,174.3026027378657L35.31321482333691,135.86261133557173L37.01777970190529,190.8015622384048L38.72234458047368,158.0927278161997L40.426909459042065,64.12170036269794L42.13147433761045,229.93065969563668L43.83603921617884,69.65916055422133L45.54060409474723,177.64439562787024L47.245168973315614,40.22939355682445L48.949733851884,107.08958708928753L50.65429873045239,230.6773388489927L52.35886360902078,242.4339932621899L54.063428487589164,160.1847727412208L55.76799336615755,250.9710969873575L57.47255824472594,258.9205433793504L59.17712312329432,250.47680330039913L60.88168800186271,171.9274306580587L62.586252880431104,180.4668115453291L64.2908177589995,158.8078027197648L65.99538263756789,258.1814432655185L67.69994751613625,264.56979152864943L69.40451239470464,108.16275148393294L71.10907727327303,217.22552126333366L72.81364215184142,243.5443398036962L74.51820703040981,283.1649822522169L76.2227719089782,183.94666026302278L77.92733678754658,200.00472437783307L79.63190166611497,206.52957585812842L81.33646654468336,97.8041940961458L83.04103142325174,99.86831503336043L84.74559630182013,166.8525333946971L86.45016118038852,249.66983685541146L88.15472605895691,196.2043708445747L89.85929093752529,242.00103344136494L91.56385581609368,184.7203433386892L93.26842069466207,54.35557314784643L94.97298557323046,254.28709354101528L96.67755045179885,212.79333575226934L98.38211533036723,214.36151838545132L100.08668020893562,156.36162458529665L101.791245087504,250.15701153559382L103.49580996607239,200.48704571252358L105.20037484464078,255.4659044562498L106.90493972320917,188.200261061295L108.60950460177756,191.35594770307694L110.31406948034595,207.43712846347665L112.01863435891433,156.78809794437416L113.7231992374827,189.87381419541728L115.4277641160511,260.5405256999626L117.13232899461948,278.02533537956765L118.83689387318788,243.72906595367473L120.54145875175627,280.31636746975676L122.24602363032466,228.1070898823761L123.95058850889302,176.41884538543414L125.65515338746143,228.91334327660428L127.3597182660298,174.74945554768172L129.0642831445982,261.23309350132945L130.76884802316658,223.12534925049414L132.47341290173497,229.06030073796808L134.17797778030337,246.18920608204613L135.88254265887173,181.57420237642924L137.58710753744015,289.1954020357294L139.2916724160085,257.98736694993596L140.9962372945769,183.53748413527188L142.7008021731453,289.6653829919535L144.40536705171368,280.2370348223559L146.10993193028207,191.06628808326877L147.81449680885046,231.1919314809587L149.51906168741885,236.25037107275887L151.22362656598722,239.6748893516811L152.9281914445556,280.52570537175575L154.632756323124,292.5070512799182L156.3373212016924,242.96309992735684L158.04188608026078,162.64893815613763L159.74645095882917,220.9730860387536L161.45101583739756,133.8494390252033L163.15558071596595,260.33645517292865L164.86014559453432,216.21303518815577L166.5647104731027,223.0135152894438L168.2692753516711,143.45476179297478L169.9738402302395,233.98441076733835L171.67840510880788,223.08863863719995L173.38296998737627,264.4729776368228L175.08753486594466,199.79552448565846L176.79209974451302,268.3374137318842L178.49666462308144,215.93630248856772L180.2012295016498,201.7221876377565L181.9057943802182,230.55446410198917L183.6103592587866,228.268515373666L185.31492413735498,189.85426280362526L187.01948901592337,263.6419744807497L188.72405389449173,249.5834427053281L190.42861877306015,199.28787834818797L192.1331836516285,271.0621991993887L193.83774853019693,218.1958913404278L195.5423134087653,165.14420178482246L197.24687828733366,269.3602275422558L198.95144316590208,217.78995844355063L200.65600804447044,212.4700247369415L202.36057292303886,249.17683126014757L204.06513780160722,202.22732659675015L205.76970268017564,215.37094524285467L207.474267558744,229.23242199065007L209.1788324373124,276.39111504540347L210.88339731588079,275.72501062786796L212.58796219444915,267.2408106687258L214.29252707301757,211.00072614295237L215.99709195158593,222.71265387222067L217.70165683015435,234.60810016550386L219.4062217087227,199.9391467095989L221.1107865872911,257.8570971765076L222.8153514658595,277.2836015782531L224.51991634442788,284.31046379485537L226.22448122299627,189.34650165796774L227.92904610156464,277.7560782121354L229.63361098013306,294.1486091364137L231.33817585870142,294.6696652284898L233.0427407372698,303.0848602754248L234.7473056158382,214.24876435890485L236.4518704944066,272.15390291378037L238.15643537297498,121.85608626231692L239.86100025154337,278.7727160828644L241.56556513011174,269.5620669104617L243.27013000868013,199.87110786616267L244.97469488724852,273.18065000414776L246.6792597658169,202.40082794767628L248.3838246443853,241.605945816523L250.08838952295372,248.55384341192283L251.79295440152205,118.82888676706466L253.49751928009044,280.57159363837354L255.20208415865886,281.5885765336636L256.9066490372273,271.8223113089877L258.6112139157956,190.05071978867898L260.315778794364,191.28880592349938L262.0203436729324,239.85653328224768L263.7249085515008,302.56817449445515L265.42947343006915,232.796203683225L267.13403830863757,186.5408309325378L268.838603187206,214.44400225717624L270.5431680657743,247.726486015378L272.2477329443427,253.23312401278224L273.95229782291113,258.70011868812344L275.6568627014795,285.1917255286527L277.36142758004786,257.0537304877734L279.0659924586163,248.66813854817528L280.7705573371847,214.8471519559277L282.475122215753,265.329880636611L284.1796870943214,219.2585669884177L285.88425197288984,221.33032446924992L287.5888168514582,215.86131715063598L289.29338173002657,198.0775551897122L290.997946608595,281.3327178200182L292.7025114871634,177.4928838423008L294.4070763657317,266.2409639933005L296.11164124430013,287.0768707252394L297.81620612286855,249.39303515091123L299.5207710014369,234.2525983586314L301.2253358800053,246.38785972347176L302.9299007585737,274.4190236594357L304.6344656371421,245.1493595591781L306.3390305157104,272.50771410030376L308.04359539427884,178.1429331169294L309.74816027284726,261.5839259758093L311.4527251514156,266.5725670989119L313.157290029984,274.14585621364506L314.8618549085524,253.41050113961066L316.5664197871208,229.9831494321889L318.2709846656892,120.24753575549374L319.97554954425755,231.94295794378377L321.68011442282597,204.3207056167406L323.3846793013943,229.18080631631912L325.0892441799627,268.02645459584147L326.7938090585311,182.3313932780781L328.49837393709953,295.4395185315287L330.2029388156679,280.7230824223056L331.90750369423625,239.61261241841416L333.6120685728047,287.75566054580236L335.31663345137304,295.27166408258483L337.0211983299414,210.52868654018076L338.7257632085098,291.640177070316L340.43032808707824,268.92472604049783L342.1348929656466,259.9754214722609L343.83945784421496,255.95128500871482L345.5440227227834,321.53380658838796L347.24858760135174,282.5613732835037L348.95315247992016,190.11650447164976L350.6577173584885,296.97357823562425L352.36228223705695,208.54028699329476L354.0668471156253,277.240266493387L355.77141199419367,304.5970914256254L357.4759768727621,236.20750752145955L359.18054175133045,58.62026073534662L360.88510662989887,220.6935931426773L362.58967150846723,220.43047741243146L364.29423638703565,269.5704625081135L365.998801265604,165.80322169803802L367.7033661441724,226.6266814975216L369.4079310227408,290.51393639736466L371.11249590130916,297.1908747041645L372.8170607798776,287.2212290015768L374.52162565844594,231.61318346834585L376.22619053701436,179.28202020436999L377.9307554155827,243.19527845529643L379.63532029415114,258.5011545245929L381.3398851727195,288.00515930670593L383.04445005128787,304.4536877172403L384.7490149298563,267.8595432140311L386.45357980842465,278.11171802883223L388.15814468699307,273.95518414039805L389.86270956556143,291.15824676346136L391.56727444412985,259.58800489349267L393.2718393226982,244.36966155533096L394.9764042012666,219.2182451180513L396.680969079835,295.40192235519453L398.38553395840336,234.01915474063466L400.0900988369717,271.30710913363055L401.79466371554014,318.89367864734294L403.49922859410856,226.55930970157004L405.2037934726769,224.41647716116447L406.9083583512453,316.52855828308077L408.6129232298137,190.81842243862076L410.3174881083821,278.6100140006987L412.0220529869504,297.4429726500946L413.72661786551885,264.1731512932828L415.43118274408727,296.74008861435266L417.13574762265563,282.3659283704957L418.840312501224,252.38168390187707L420.5448773797924,275.7389496201338L422.24944225836083,286.282750694741L423.95400713692914,273.9036949750728L425.65857201549755,286.6348252576405L427.363136894066,246.88454558072004L429.06770177263434,283.82124196894415L430.7722666512027,234.95496485753173L432.4768315297711,217.74186201974226L434.18139640833954,259.7451750818631L435.88596128690784,279.56876825090467L437.59052616547626,314.9253901594098L439.2950910440447,261.7063981941582L440.9996559226131,287.6177542287563L442.7042208011814,325.343142261052L444.4087856797498,298.6726516864444L446.11335055831825,282.7947823990443L447.81791543688655,265.13100847963005L449.52248031545497,-70.76095944017038L451.2270451940234,313.23872609196815L452.9316100725918,235.16146205731158L454.6361749511601,287.0345247107816L456.34073982972853,225.72478729497436L458.04530470829695,245.3399396258755L459.74986958686526,189.74031269193387L461.4544344654337,266.81724701677973L463.1589993440021,155.0836306095831L464.8635642225705,256.1911230819094L466.5681291011388,265.2270863190598L468.27269397970724,288.95437937820856L469.97725885827566,266.64637935333616L471.681823736844,239.3236543485468L473.3863886154124,288.43583046460935L475.0909534939808,277.9621268799859L476.7955183725492,278.2900382227942L478.50008325111753,266.54758732069297L480.20464812968595,283.01907136535493L481.90921300825437,287.3950753770639L483.61377788682273,284.90305497925283L485.3183427653911,273.32193756189184L487.0229076439595,253.47311159661996L488.72747252252793,316.14238379273223L490.43203740109624,282.44585906046893L492.1366022796647,307.8148594867564L493.8411671582331,224.3675296767722L495.5457320368014,300.80431693189115L497.25029691536986,266.0773648472761L498.9548617939382,229.8738916545276L500.6594266725066,261.52873354686227L502.363991551075,246.4627185523978L504.06855642964337,283.9499591318479L505.7731213082117,285.9736316896905L507.47768618678015,269.9935546264929L509.1822510653485,283.2617961440435L510.886815943917,214.107235283968L512.5913808224853,291.7154499287153L514.2959457010537,310.02395974451827L516.0005105796221,277.40764940876414L517.7050754581904,314.7457588721159L519.4096403367588,287.2295670951351L521.1142052153273,324.4538529558012L522.8187700938956,249.42636452350726L524.523334972464,319.0654778771013L526.2278998510325,288.50810160932764L527.9324647296007,275.3176516294718L529.6370296081692,238.5054861061442L531.3415944867376,306.7817524436473L533.0461593653059,300.20199605487244L534.7507242438744,260.8545440537798L536.4552891224428,279.6884687719466L538.1598540010111,314.594879631575L539.8644188795795,232.50095466552807L541.5689837581479,243.72224596818492L543.2735486367162,304.01764567700343L544.9781135152847,321.8099182437661L546.682678393853,247.2690524523569L548.3872432724215,293.20492095870634L550.0918081509899,269.37975593241043L551.7963730295581,275.1754325054129L553.5009379081266,320.61249900387304L555.205502786695,180.7384838846886L556.9100676652633,316.4281101325446L558.6146325438318,240.113162550746L560.3191974224002,330.30085768266713L562.0237623009685,257.1427008212458L563.7283271795369,261.5709300506769L565.4328920581053,259.21533236429934L567.1374569366736,244.99233888145076L568.8420218152421,313.8064180038776L570.5465866938105,296.45912361348263L572.251151572379,258.62741051229455L573.9557164509473,306.59081585157014L575.6602813295156,283.029997143121L577.364846208084,299.6367423165277L579.0694110866524,284.63017505392975L580.7739759652208,307.47913908805L582.4785408437892,249.99158375939595L584.1831057223576,308.9211692408986L585.887670600926,251.69478600412984L587.5922354794943,273.8126659950529L589.2968003580627,280.10852467418886L591.0013652366312,304.8608397008998L592.7059301151995,325.22570740129413L594.4104949937679,250.74240320748436L596.1150598723364,263.6315087357316L597.8196247509047,327.6409943367309L599.524189629473,301.4690642528199L601.2287545080414,310.9079241707103L602.9333193866098,281.1364908513385L604.6378842651782,278.3888992603496L606.3424491437466,267.81989989196813L608.047014022315,232.42550929484827L609.7515789008835,311.63505193227434L611.4561437794517,283.00104958245015L613.1607086580201,253.3700872626947L614.8652735365886,302.25837694110123L616.5698384151569,283.6272576599112L618.2744032937253,320.5660701987764L619.9789681722938,284.2656106019207L621.6835330508621,288.4273658620453L623.3880979294304,271.7852786727699L625.0926628079989,316.74921299068177L626.7972276865672,280.91335196689806L628.5017925651356,255.5527586390812L630.2063574437041,290.6081281025274L631.9109223222724,285.07702786374574L633.6154872008409,268.2056488520247L635.3200520794092,252.79521883991575L637.0246169579775,333.94117732369847L638.729181836546,312.4901148010704L640.4337467151144,305.3712345340399L642.1383115936827,328.1405208961983L643.8428764722512,315.21833901336646L645.5474413508196,274.7987346896742L647.2520062293878,304.4109161724906L648.9565711079563,247.95292563478571L650.6611359865246,318.28199610390146L652.3657008650931,313.80008105277324L654.0702657436615,253.01696612529338L655.7748306222298,275.2676230681217L657.4793955007982,325.69802302371454L659.1839603793666,317.33296004549806L660.8885252579349,309.84226981067684L662.5930901365034,278.64223929469944L664.2976550150718,326.1142261516919L666.0022198936401,328.1807047567403L667.7067847722086,258.8094799731531L669.411349650777,240.03521000158935L671.1159145293453,323.0496604964795L672.8204794079137,290.2920050988878L674.5250442864821,283.88196629168647L676.2296091650505,314.73735177364534L677.9341740436189,248.31241822574748L679.6387389221873,297.79401213931095L681.3433038007556,323.18765882007506L683.047868679324,307.9584587090594L684.7524335578923,295.46209463863914L686.4569984364608,286.40727005881877L688.1615633150292,260.0620226370809L689.8661281935975,284.75799515297473L691.570693072166,280.1782196355181L693.2752579507344,312.93043514586407L694.9798228293027,326.8927740736689L696.6843877078711,313.6094894852571L698.3889525864395,230.8633760923031L700.093517465008,314.5531316596897L701.7980823435763,266.6894844218282L703.5026472221447,261.0627778771836L705.207212100713,225.79434424647914L706.9117769792814,303.42615857120126L708.6163418578498,303.01624639105347L710.3209067364182,286.94397876514716L712.0254716149866,281.9713352808579L713.7300364935551,319.0779792670295L715.4346013721234,291.51683078974577L717.1391662506917,321.3340028650922L718.8437311292602,220.26992598336287L720.5482960078285,321.9918496948002L722.2528608863969,328.9065674282472L723.9574257649654,280.70532515823095L725.6619906435337,295.3178168680327L727.3665555221021,326.7773403563651L729.0711204006705,306.4940249613809L730.7756852792388,335.872573062692L732.4802501578073,283.93035023596235L734.1848150363757,261.145859791481L735.889379914944,295.09425245330027L737.5939447935125,285.60884872212614L739.2985096720809,337.0775770925185L741.0030745506491,310.338691149095L742.7076394292176,296.13519155394494L744.4122043077859,267.8015215836836L746.1167691863543,310.7963892309462L747.8213340649228,290.1279229184779L749.5258989434911,269.95484287074464L751.2304638220595,317.85730537172265L752.9350287006279,334.62347489396524L754.5969794572321,316.24489058981595L756.3015443358005,317.4223789108998L758.0061092143688,274.7914316697989L759.7106740929372,333.00519469452087L761.4152389715056,330.57188022577003L763.1198038500739,328.476885340752L764.8243687286424,324.25912109355266L766.5289336072108,267.1655608119639L768.2334984857793,269.4196177700287L769.9380633643476,305.32681837221594L771.6426282429159,268.3865452293757L773.3471931214843,296.6763280754733L775.0517580000527,319.6442220757825L776.7563228786211,314.3413785857634L778.4608877571895,316.55284801217766L780.1654526357579,262.04724795800536L781.8700175143263,246.47626651682782L783.5745823928946,287.505805259519L785.279147271463,285.33750990650896L786.9837121500315,329.40673803356185L788.6882770285998,308.7790766258454L790.3928419071682,295.2139299727049L792.0974067857367,277.23062880731544L793.801971664305,259.0315952847291L795.5065365428733,314.1232310566392L797.2111014214418,262.0617849928437L798.9156663000101,272.09348911314305L800.6202311785785,320.18408200643506L802.324796057147,235.92359831100197L804.0293609357153,308.92320488580873L805.6913116923195,310.8535713015285L807.3958765708878,258.3427767502588L809.1004414494563,273.0595233815868L810.8050063280247,327.7292746210812L812.509571206593,290.85651128401696L814.2141360851614,315.97141262192036L815.9187009637297,310.5802543450948L817.5380375983698,301.85421517030403L819.2426024769381,252.96765061470268L820.9471673555065,343.2965873010931L822.651732234075,331.19249315493295L824.313682990679,230.72237605502656L826.0182478692475,285.56759528544495L827.7228127478159,263.5397437033148L829.3421493824559,317.41718054084686L831.00410013906,255.61843981468368L832.7086650176285,299.53083127710846L834.4132298961968,299.8180987266268L836.1177947747651,294.61121806785036L837.7797455313694,287.08988965200916L839.4843104099378,243.4037307942555L841.146261166542,328.2032233597572L842.8508260451104,337.8624734664186L844.5553909236787,308.6875991138961L846.2599558022472,327.884892198927L847.9645206808154,257.1216313213852L849.6264714374197,203.43969690095471L851.3310363159881,323.1635876065335L853.0356011945565,303.444065345919L854.7401660731248,251.3122342716722L856.4447309516931,292.6807021414874L858.1492958302616,330.8468130472313L859.8112465868658,308.17408755888806L861.4731973434699,305.1370433628276L863.0925339781099,295.74876404558495L864.7544847347142,266.90312363002147L866.4590496132824,346.7381497933305L868.0783862479225,326.8075875095492L869.7403370045266,258.89021572043544L871.3596736391665,259.89236255960094L873.0216243957708,330.7595045820612L874.7261892743392,216.71295277545906L876.4307541529075,307.4741937360085L878.0500907875474,294.36565258694253L879.7120415441517,322.32198069561787L881.4166064227202,316.6313410998133L883.1211713012884,306.53880914940333L884.7831220578927,305.1621036467775L886.1893880827116,290.5602501942743L887.7661105953873,309.2209610819825L889.4280613519915,316.27429818323486L891.0473979866315,317.7194795604076L892.6241204993072,277.43898913972487L894.200843011983,281.6469201869347L895.7775655246587,339.2889257603364L897.3116739153702,334.0528387724683L898.888396428046,288.38237465928626L900.4225048187576,332.1938004343333L902.0418414533975,307.96502567653783L903.6185639660733,344.75192965158834L905.2379006007133,334.32300450457797L909.8402257728479,348.7471530569197L911.3743341635594,354.8280901865771L912.9936707981994,285.86550099226184L914.6130074328394,295.9130417399127L916.2749581894436,328.5447861743638L917.8942948240835,329.9311293630613L920.9198974835424,254.8603288475387L922.5392341181824,337.07895719076265L925.5648367776413,310.75426173204374L927.0563310463887,306.68284540281707" style="fill: none;" fill="none"></path></g></g></g></g></g></g><g transform="translate(48, 377)" clip-path="url(#clip_1)"><clipPath id="clip_1"><rect width="980" height="22"></rect></clipPath><g><g><line x1="16.520387037120436" y1="0" x2="16.520387037120436" y2="5" style="visibility: inherit;" fill="rgb(0, 0, 0)" stroke="rgb(204, 204, 204)" stroke-width="1px"></line><line x1="101.74863096553979" y1="0" x2="101.74863096553979" y2="5" style="visibility: inherit;" fill="rgb(0, 0, 0)" stroke="rgb(204, 204, 204)" stroke-width="1px"></line><line x1="186.97687489395915" y1="0" x2="186.97687489395915" y2="5" style="visibility: inherit;" fill="rgb(0, 0, 0)" stroke="rgb(204, 204, 204)" stroke-width="1px"></line><line x1="272.2051188223785" y1="0" x2="272.2051188223785" y2="5" style="visibility: inherit;" fill="rgb(0, 0, 0)" stroke="rgb(204, 204, 204)" stroke-width="1px"></line><line x1="357.43336275079787" y1="0" x2="357.43336275079787" y2="5" style="visibility: inherit;" fill="rgb(0, 0, 0)" stroke="rgb(204, 204, 204)" stroke-width="1px"></line><line x1="442.66160667921724" y1="0" x2="442.66160667921724" y2="5" style="visibility: inherit;" fill="rgb(0, 0, 0)" stroke="rgb(204, 204, 204)" stroke-width="1px"></line><line x1="527.8898506076366" y1="0" x2="527.8898506076366" y2="5" style="visibility: inherit;" fill="rgb(0, 0, 0)" stroke="rgb(204, 204, 204)" stroke-width="1px"></line><line x1="613.118094536056" y1="0" x2="613.118094536056" y2="5" style="visibility: inherit;" fill="rgb(0, 0, 0)" stroke="rgb(204, 204, 204)" stroke-width="1px"></line><line x1="698.3463384644754" y1="0" x2="698.3463384644754" y2="5" style="visibility: inherit;" fill="rgb(0, 0, 0)" stroke="rgb(204, 204, 204)" stroke-width="1px"></line><line x1="783.5745823928946" y1="0" x2="783.5745823928946" y2="5" style="visibility: inherit;" fill="rgb(0, 0, 0)" stroke="rgb(204, 204, 204)" stroke-width="1px"></line><line x1="868.802826321314" y1="0" x2="868.802826321314" y2="5" style="visibility: inherit;" fill="rgb(0, 0, 0)" stroke="rgb(204, 204, 204)" stroke-width="1px"></line><line x1="954.0310702497334" y1="0" x2="954.0310702497334" y2="5" style="visibility: inherit;" fill="rgb(0, 0, 0)" stroke="rgb(204, 204, 204)" stroke-width="1px"></line></g><g transform="translate(0, 8)"><text x="16.520387037120436" y="0" dx="0em" dy="0.95em" style="text-anchor: middle; visibility: inherit; font-family: &quot;Helvetica Neue&quot;, sans-serif; font-size: 12px; font-weight: 200;" fill="rgb(50, 49, 63)" stroke="none" stroke-width="1px">0</text><text x="101.74863096553979" y="0" dx="0em" dy="0.95em" style="text-anchor: middle; visibility: inherit; font-family: &quot;Helvetica Neue&quot;, sans-serif; font-size: 12px; font-weight: 200;" fill="rgb(50, 49, 63)" stroke="none" stroke-width="1px">2k</text><text x="186.97687489395915" y="0" dx="0em" dy="0.95em" style="text-anchor: middle; visibility: inherit; font-family: &quot;Helvetica Neue&quot;, sans-serif; font-size: 12px; font-weight: 200;" fill="rgb(50, 49, 63)" stroke="none" stroke-width="1px">4k</text><text x="272.2051188223785" y="0" dx="0em" dy="0.95em" style="text-anchor: middle; visibility: inherit; font-family: &quot;Helvetica Neue&quot;, sans-serif; font-size: 12px; font-weight: 200;" fill="rgb(50, 49, 63)" stroke="none" stroke-width="1px">6k</text><text x="357.43336275079787" y="0" dx="0em" dy="0.95em" style="text-anchor: middle; visibility: inherit; font-family: &quot;Helvetica Neue&quot;, sans-serif; font-size: 12px; font-weight: 200;" fill="rgb(50, 49, 63)" stroke="none" stroke-width="1px">8k</text><text x="442.66160667921724" y="0" dx="0em" dy="0.95em" style="text-anchor: middle; visibility: inherit; font-family: &quot;Helvetica Neue&quot;, sans-serif; font-size: 12px; font-weight: 200;" fill="rgb(50, 49, 63)" stroke="none" stroke-width="1px">10k</text><text x="527.8898506076366" y="0" dx="0em" dy="0.95em" style="text-anchor: middle; visibility: inherit; font-family: &quot;Helvetica Neue&quot;, sans-serif; font-size: 12px; font-weight: 200;" fill="rgb(50, 49, 63)" stroke="none" stroke-width="1px">12k</text><text x="613.118094536056" y="0" dx="0em" dy="0.95em" style="text-anchor: middle; visibility: inherit; font-family: &quot;Helvetica Neue&quot;, sans-serif; font-size: 12px; font-weight: 200;" fill="rgb(50, 49, 63)" stroke="none" stroke-width="1px">14k</text><text x="698.3463384644754" y="0" dx="0em" dy="0.95em" style="text-anchor: middle; visibility: inherit; font-family: &quot;Helvetica Neue&quot;, sans-serif; font-size: 12px; font-weight: 200;" fill="rgb(50, 49, 63)" stroke="none" stroke-width="1px">16k</text><text x="783.5745823928946" y="0" dx="0em" dy="0.95em" style="text-anchor: middle; visibility: inherit; font-family: &quot;Helvetica Neue&quot;, sans-serif; font-size: 12px; font-weight: 200;" fill="rgb(50, 49, 63)" stroke="none" stroke-width="1px">18k</text><text x="868.802826321314" y="0" dx="0em" dy="0.95em" style="text-anchor: middle; visibility: inherit; font-family: &quot;Helvetica Neue&quot;, sans-serif; font-size: 12px; font-weight: 200;" fill="rgb(50, 49, 63)" stroke="none" stroke-width="1px">20k</text><text x="954.0310702497334" y="0" dx="0em" dy="0.95em" style="text-anchor: middle; visibility: inherit; font-family: &quot;Helvetica Neue&quot;, sans-serif; font-size: 12px; font-weight: 200;" fill="rgb(50, 49, 63)" stroke="none" stroke-width="1px">22k</text></g><line x1="0" y1="0" x2="980.125" y2="0" fill="rgb(0, 0, 0)" stroke="rgb(204, 204, 204)" stroke-width="1px"></line></g></g></g></g></svg>