<svg viewBox="0 0 1029 400" xmlns="http://www.w3.org/2000/svg"><g><g><g><g><g><line x1="68.3125" y1="360.34022520423247" x2="63.3125" y2="360.34022520423247" style="visibility: inherit;" fill="rgb(0, 0, 0)" stroke="rgb(204, 204, 204)" stroke-width="1px"></line><line x1="68.3125" y1="332.47050091422693" x2="63.3125" y2="332.47050091422693" style="visibility: inherit;" fill="rgb(0, 0, 0)" stroke="rgb(204, 204, 204)" stroke-width="1px"></line><line x1="68.3125" y1="304.60077662422145" x2="63.3125" y2="304.60077662422145" style="visibility: inherit;" fill="rgb(0, 0, 0)" stroke="rgb(204, 204, 204)" stroke-width="1px"></line><line x1="68.3125" y1="276.7310523342159" x2="63.3125" y2="276.7310523342159" style="visibility: inherit;" fill="rgb(0, 0, 0)" stroke="rgb(204, 204, 204)" stroke-width="1px"></line><line x1="68.3125" y1="248.8613280442104" x2="63.3125" y2="248.8613280442104" style="visibility: inherit;" fill="rgb(0, 0, 0)" stroke="rgb(204, 204, 204)" stroke-width="1px"></line><line x1="68.3125" y1="220.99160375420493" x2="63.3125" y2="220.99160375420493" style="visibility: inherit;" fill="rgb(0, 0, 0)" stroke="rgb(204, 204, 204)" stroke-width="1px"></line><line x1="68.3125" y1="193.1218794641994" x2="63.3125" y2="193.1218794641994" style="visibility: inherit;" fill="rgb(0, 0, 0)" stroke="rgb(204, 204, 204)" stroke-width="1px"></line><line x1="68.3125" y1="165.2521551741939" x2="63.3125" y2="165.2521551741939" style="visibility: inherit;" fill="rgb(0, 0, 0)" stroke="rgb(204, 204, 204)" stroke-width="1px"></line><line x1="68.3125" y1="137.38243088418835" x2="63.3125" y2="137.38243088418835" style="visibility: inherit;" fill="rgb(0, 0, 0)" stroke="rgb(204, 204, 204)" stroke-width="1px"></line><line x1="68.3125" y1="109.51270659418287" x2="63.3125" y2="109.51270659418287" style="visibility: inherit;" fill="rgb(0, 0, 0)" stroke="rgb(204, 204, 204)" stroke-width="1px"></line><line x1="68.3125" y1="81.64298230417734" x2="63.3125" y2="81.64298230417734" style="visibility: inherit;" fill="rgb(0, 0, 0)" stroke="rgb(204, 204, 204)" stroke-width="1px"></line><line x1="68.3125" y1="53.77325801417186" x2="63.3125" y2="53.77325801417186" style="visibility: inherit;" fill="rgb(0, 0, 0)" stroke="rgb(204, 204, 204)" stroke-width="1px"></line><line x1="68.3125" y1="25.903533724166323" x2="63.3125" y2="25.903533724166323" style="visibility: inherit;" fill="rgb(0, 0, 0)" stroke="rgb(204, 204, 204)" stroke-width="1px"></line></g><g transform="translate(58.3125, 0)"><text x="0" y="360.34022520423247" dx="0em" dy="0.3em" style="text-anchor: end; visibility: inherit; font-family: &quot;Helvetica Neue&quot;, sans-serif; font-size: 12px; font-weight: 200;" fill="rgb(50, 49, 63)" stroke="none" stroke-width="1px">2e-4</text><text x="0" y="332.47050091422693" dx="0em" dy="0.3em" style="text-anchor: end; visibility: inherit; font-family: &quot;Helvetica Neue&quot;, sans-serif; font-size: 12px; font-weight: 200;" fill="rgb(50, 49, 63)" stroke="none" stroke-width="1px">4e-4</text><text x="0" y="304.60077662422145" dx="0em" dy="0.3em" style="text-anchor: end; visibility: inherit; font-family: &quot;Helvetica Neue&quot;, sans-serif; font-size: 12px; font-weight: 200;" fill="rgb(50, 49, 63)" stroke="none" stroke-width="1px">6e-4</text><text x="0" y="276.7310523342159" dx="0em" dy="0.3em" style="text-anchor: end; visibility: inherit; font-family: &quot;Helvetica Neue&quot;, sans-serif; font-size: 12px; font-weight: 200;" fill="rgb(50, 49, 63)" stroke="none" stroke-width="1px">8e-4</text><text x="0" y="248.8613280442104" dx="0em" dy="0.3em" style="text-anchor: end; visibility: inherit; font-family: &quot;Helvetica Neue&quot;, sans-serif; font-size: 12px; font-weight: 200;" fill="rgb(50, 49, 63)" stroke="none" stroke-width="1px">1e-3</text><text x="0" y="220.99160375420493" dx="0em" dy="0.3em" style="text-anchor: end; visibility: inherit; font-family: &quot;Helvetica Neue&quot;, sans-serif; font-size: 12px; font-weight: 200;" fill="rgb(50, 49, 63)" stroke="none" stroke-width="1px">1.2e-3</text><text x="0" y="193.1218794641994" dx="0em" dy="0.3em" style="text-anchor: end; visibility: inherit; font-family: &quot;Helvetica Neue&quot;, sans-serif; font-size: 12px; font-weight: 200;" fill="rgb(50, 49, 63)" stroke="none" stroke-width="1px">1.4e-3</text><text x="0" y="165.2521551741939" dx="0em" dy="0.3em" style="text-anchor: end; visibility: inherit; font-family: &quot;Helvetica Neue&quot;, sans-serif; font-size: 12px; font-weight: 200;" fill="rgb(50, 49, 63)" stroke="none" stroke-width="1px">1.6e-3</text><text x="0" y="137.38243088418835" dx="0em" dy="0.3em" style="text-anchor: end; visibility: inherit; font-family: &quot;Helvetica Neue&quot;, sans-serif; font-size: 12px; font-weight: 200;" fill="rgb(50, 49, 63)" stroke="none" stroke-width="1px">1.8e-3</text><text x="0" y="109.51270659418287" dx="0em" dy="0.3em" style="text-anchor: end; visibility: inherit; font-family: &quot;Helvetica Neue&quot;, sans-serif; font-size: 12px; font-weight: 200;" fill="rgb(50, 49, 63)" stroke="none" stroke-width="1px">2e-3</text><text x="0" y="81.64298230417734" dx="0em" dy="0.3em" style="text-anchor: end; visibility: inherit; font-family: &quot;Helvetica Neue&quot;, sans-serif; font-size: 12px; font-weight: 200;" fill="rgb(50, 49, 63)" stroke="none" stroke-width="1px">2.2e-3</text><text x="0" y="53.77325801417186" dx="0em" dy="0.3em" style="text-anchor: end; visibility: inherit; font-family: &quot;Helvetica Neue&quot;, sans-serif; font-size: 12px; font-weight: 200;" fill="rgb(50, 49, 63)" stroke="none" stroke-width="1px">2.4e-3</text><text x="0" y="25.903533724166323" dx="0em" dy="0.3em" style="text-anchor: end; visibility: inherit; font-family: &quot;Helvetica Neue&quot;, sans-serif; font-size: 12px; font-weight: 200;" fill="rgb(50, 49, 63)" stroke="none" stroke-width="1px">2.6e-3</text></g><line x1="68.3125" y1="0" x2="68.3125" y2="377.828125" fill="rgb(0, 0, 0)" stroke="rgb(204, 204, 204)" stroke-width="1px"></line></g></g><g transform="translate(68, 0)" clip-path="url(#clip_0)"><clipPath id="clip_0"><rect width="960" height="377"></rect></clipPath><g><g><g><line x1="28.793227978364456" y1="0" x2="28.793227978364456" y2="377.828125" fill="rgb(0, 0, 0)" stroke="rgb(60, 60, 60)" stroke-width="1px" opacity="0.25"></line><line x1="107.37205428271456" y1="0" x2="107.37205428271456" y2="377.828125" fill="rgb(0, 0, 0)" stroke="rgb(60, 60, 60)" stroke-width="1px" opacity="0.25"></line><line x1="185.95088058706463" y1="0" x2="185.95088058706463" y2="377.828125" fill="rgb(0, 0, 0)" stroke="rgb(60, 60, 60)" stroke-width="1px" opacity="0.25"></line><line x1="264.5297068914148" y1="0" x2="264.5297068914148" y2="377.828125" fill="rgb(0, 0, 0)" stroke="rgb(60, 60, 60)" stroke-width="1px" opacity="0.25"></line><line x1="343.1085331957649" y1="0" x2="343.1085331957649" y2="377.828125" fill="rgb(0, 0, 0)" stroke="rgb(60, 60, 60)" stroke-width="1px" opacity="0.25"></line><line x1="421.68735950011495" y1="0" x2="421.68735950011495" y2="377.828125" fill="rgb(0, 0, 0)" stroke="rgb(60, 60, 60)" stroke-width="1px" opacity="0.25"></line><line x1="500.26618580446507" y1="0" x2="500.26618580446507" y2="377.828125" fill="rgb(0, 0, 0)" stroke="rgb(60, 60, 60)" stroke-width="1px" opacity="0.25"></line><line x1="578.8450121088152" y1="0" x2="578.8450121088152" y2="377.828125" fill="rgb(0, 0, 0)" stroke="rgb(60, 60, 60)" stroke-width="1px" opacity="0.25"></line><line x1="657.4238384131653" y1="0" x2="657.4238384131653" y2="377.828125" fill="rgb(0, 0, 0)" stroke="rgb(60, 60, 60)" stroke-width="1px" opacity="0.25"></line><line x1="736.0026647175155" y1="0" x2="736.0026647175155" y2="377.828125" fill="rgb(0, 0, 0)" stroke="rgb(60, 60, 60)" stroke-width="1px" opacity="0.25"></line><line x1="814.5814910218655" y1="0" x2="814.5814910218655" y2="377.828125" fill="rgb(0, 0, 0)" stroke="rgb(60, 60, 60)" stroke-width="1px" opacity="0.25"></line><line x1="893.1603173262156" y1="0" x2="893.1603173262156" y2="377.828125" fill="rgb(0, 0, 0)" stroke="rgb(60, 60, 60)" stroke-width="1px" opacity="0.25"></line></g><g><line x1="0" y1="360.34022520423247" x2="960.6875" y2="360.34022520423247" fill="rgb(0, 0, 0)" stroke="rgb(60, 60, 60)" stroke-width="1px" opacity="0.25"></line><line x1="0" y1="332.47050091422693" x2="960.6875" y2="332.47050091422693" fill="rgb(0, 0, 0)" stroke="rgb(60, 60, 60)" stroke-width="1px" opacity="0.25"></line><line x1="0" y1="304.60077662422145" x2="960.6875" y2="304.60077662422145" fill="rgb(0, 0, 0)" stroke="rgb(60, 60, 60)" stroke-width="1px" opacity="0.25"></line><line x1="0" y1="276.7310523342159" x2="960.6875" y2="276.7310523342159" fill="rgb(0, 0, 0)" stroke="rgb(60, 60, 60)" stroke-width="1px" opacity="0.25"></line><line x1="0" y1="248.8613280442104" x2="960.6875" y2="248.8613280442104" fill="rgb(0, 0, 0)" stroke="rgb(60, 60, 60)" stroke-width="1px" opacity="0.25"></line><line x1="0" y1="220.99160375420493" x2="960.6875" y2="220.99160375420493" fill="rgb(0, 0, 0)" stroke="rgb(60, 60, 60)" stroke-width="1px" opacity="0.25"></line><line x1="0" y1="193.1218794641994" x2="960.6875" y2="193.1218794641994" fill="rgb(0, 0, 0)" stroke="rgb(60, 60, 60)" stroke-width="1px" opacity="0.25"></line><line x1="0" y1="165.2521551741939" x2="960.6875" y2="165.2521551741939" fill="rgb(0, 0, 0)" stroke="rgb(60, 60, 60)" stroke-width="1px" opacity="0.25"></line><line x1="0" y1="137.38243088418835" x2="960.6875" y2="137.38243088418835" fill="rgb(0, 0, 0)" stroke="rgb(60, 60, 60)" stroke-width="1px" opacity="0.25"></line><line x1="0" y1="109.51270659418287" x2="960.6875" y2="109.51270659418287" fill="rgb(0, 0, 0)" stroke="rgb(60, 60, 60)" stroke-width="1px" opacity="0.25"></line><line x1="0" y1="81.64298230417734" x2="960.6875" y2="81.64298230417734" fill="rgb(0, 0, 0)" stroke="rgb(60, 60, 60)" stroke-width="1px" opacity="0.25"></line><line x1="0" y1="53.77325801417186" x2="960.6875" y2="53.77325801417186" fill="rgb(0, 0, 0)" stroke="rgb(60, 60, 60)" stroke-width="1px" opacity="0.25"></line><line x1="0" y1="25.903533724166323" x2="960.6875" y2="25.903533724166323" fill="rgb(0, 0, 0)" stroke="rgb(60, 60, 60)" stroke-width="1px" opacity="0.25"></line></g></g></g><g><g><line x1="0" y1="388.209949494238" x2="960.6875" y2="388.209949494238" fill="rgb(0, 0, 0)" stroke="rgb(153, 153, 153)" stroke-width="1.5px"></line></g></g><g><g><line x1="107.37205428271456" y1="0" x2="107.37205428271456" y2="377.828125" fill="rgb(0, 0, 0)" stroke="rgb(153, 153, 153)" stroke-width="1.5px"></line></g></g><g><g><g><g><g><path stroke="rgb(255, 112, 67)" stroke-width="2px" d="M107.41134369586673,2.9839977610858455L108.98292022195373,53.68037617223274L110.55449674804073,99.89553259402595L112.12607327412773,101.90798994776094L113.69764980021475,93.68477007647442L115.26922632630175,-47.148749672372276L116.84080285238875,-13.003346344632234L118.41237937847575,18.028192011261694L119.98395590456275,51.40792759531871L121.55553243064976,66.57348008185636L123.12710895673675,82.4285048508209L124.69868548282376,91.10708898327084L126.27026200891076,111.08376182649943L127.84183853499778,122.69393165674421L129.41341506108475,121.34495820588052L130.98499158717178,132.325140055411L132.55656811325875,129.1683469577229L134.12814463934578,141.73698307173072L135.69972116543278,130.23194328342925L137.27129769151978,133.75401851038993L138.84287421760678,152.59527148752096L140.41445074369378,162.3255540435821L141.98602726978078,169.90433150917642L143.55760379586778,180.36767049410753L145.12918032195478,188.52519730589088L146.70075684804178,194.85396235208873L148.27233337412878,195.03145998734567L149.8439099002158,193.07542632165655L151.41548642630278,199.7563687406356L152.9870629523898,206.02021506115676L154.55863947847678,215.95041801127337L156.1302160045638,213.0646199458102L157.70179253065078,216.82926422829033L159.2733690567378,220.52002229997927L160.8449455828248,226.94598022642856L162.41652210891178,223.9385173072909L163.9880986349988,226.808464536347L165.55967516108578,228.17169350277334L167.1312516871728,221.34260690143472L168.70282821325978,206.38108274838044L170.2744047393468,212.31266818628183L171.84598126543378,219.502349812516L173.4175577915208,213.2662493161911L174.9891343176078,215.49041996806227L176.5607108436948,216.49838657684674L178.1322873697818,197.66648977992776L179.7038638958688,204.2512366109337L181.2754404219558,205.6130564501303L182.8470169480428,205.98287072509396L184.4185934741298,210.02715339544466L185.9901700002168,218.94433357403483L187.5617465263038,216.28620278904708L189.13332305239084,219.00522955745777L190.70489957847784,220.50558603648375L192.27647610456484,224.56127923252143L193.84805263065184,225.75612460699105L195.41962915673884,224.3035705101277L196.99120568282584,218.5703153707769L198.56278220891284,224.11736428785244L200.13435873499984,231.5353617901845L201.70593526108684,234.38496206843195L203.27751178717386,238.105714671309L204.84908831326084,236.7501160387367L206.42066483934786,226.83089039519012L207.99224136543484,234.37230859580725L209.56381789152186,237.48964275689943L211.13539441760884,242.7601441227623L212.70697094369586,241.05607822652118L214.27854746978286,243.67010397371106L215.85012399586986,247.16725834589485L217.42170052195686,241.69597706716138L218.99327704804386,247.31070630562286L220.56485357413086,248.6008046416258L222.13643010021786,243.76363516868147L223.70800662630486,249.17295925285077L225.27958315239187,254.31346471846584L226.85115967847887,249.74062268231606L228.4227362045659,252.9019464940022L229.99431273065287,256.3795155471948L231.5658892567399,255.56814524816593L233.13746578282687,260.0400073819442L234.7090423089139,263.1151099221628L236.28061883500087,262.03701834973526L237.8521953610879,256.1054095245471L239.42377188717487,259.2303294518665L240.99534841326187,248.3446066046242L242.5669249393489,251.6086981304071L244.1385014654359,253.3101075437703L245.71007799152292,251.9989356699408L247.28165451760987,244.22137673037486L248.8532310436969,244.2103298472594L250.4248075697839,246.1407554123076L251.99638409587092,252.4696720926102L253.56796062195792,254.22742395132497L255.1395371480449,257.05110832994933L256.7111136741319,256.93602320632624L258.28269020021895,251.06148735079816L259.8542667263059,246.82565434210582L261.4258432523929,245.26427220600868L262.9974197784799,245.47621346768227L264.56899630456695,249.86294173564784L266.1405728306539,248.7987875801595L267.7121493567409,254.02117022803026L269.2837258828279,257.5333653214142L270.85530240891495,254.77313957388782L272.426878935002,257.8770350026084L273.9984554610889,260.2931470944493L275.5700319871759,259.901662899193L277.14160851326295,264.23068140326484L278.71318503935,263.25903812138006L280.2847615654369,264.63573653820816L281.8563380915239,263.1784159529623L283.42791461761095,258.2799785215185L284.999491143698,263.5505021078691L286.57106766978495,267.78210471254465L288.1426441958719,266.49939012745716L289.71422072195895,257.48734308145816L291.285797248046,258.48787239841596L292.85737377413295,260.7381648245859L294.4289503002199,257.9981052930534L296.00052682630695,262.39002447237215L297.572103352394,265.80902632485777L299.14367987848095,268.0761032461685L300.715256404568,259.46702536899807L302.28683293065495,261.9476782486172L303.858409456742,265.7515945057199L305.42998598282895,269.43103795197277L307.001562508916,272.51427344985257L308.57313903500295,272.8573349624219L310.14471556109,273.2859512512349L311.716292087177,264.4132674724546L313.287868613264,266.49610942262683L314.859445139351,268.16517919467606L316.431021665438,262.06194944467654L318.002598191525,266.67233194413325L319.574174717612,261.57665199045306L321.145751243699,263.9005777843989L322.717327769786,265.2960163932345L324.288904295873,249.29561283737056L325.86048082196,251.47153018737083L327.432057348047,256.1543398868336L329.00363387413404,257.86395240598915L330.575210400221,255.53306712277617L332.146786926308,257.5411248695954L333.718363452395,256.7723622646538L335.28993997848204,261.07553848762353L336.861516504569,259.6474843472805L338.433093030656,259.9508264941705L340.004669556743,252.8978949792869L341.57624608283004,255.90350387043213L343.14782260891707,256.9056897473063L344.719399135004,259.0518458426275L346.290975661091,259.6973182842156L347.86255218717804,260.10517115445043L349.43412871326507,266.88412605106913L351.00570523935204,262.66359972706607L352.577281765439,263.3988005762624L354.14885829152604,261.03978342957356L355.72043481761307,261.6000159820138L357.29201134370004,255.85498571702172L358.863587869787,256.51439688811433L360.43516439587404,262.5562119605129L362.00674092196107,253.48482633682318L363.57831744804804,258.95998779581885L365.14989397413507,260.7030497118026L366.72147050022204,261.0293033177758L368.29304702630907,261.0457528840715L369.8646235523961,258.85972422855065L371.43620007848307,260.8947698268323L373.00777660457004,264.5235345088976L374.57935313065707,266.91590591954844L376.1509296567441,267.01152042239636L377.72250618283107,266.8645990428671L379.2940827089181,271.6918878921006L380.86565923500507,276.6606033546742L382.4372357610921,273.21654640815024L384.00881228717907,271.92369644351305L385.5803888132661,263.53845558848013L387.15196533935307,265.51631497019065L388.7235418654401,265.3234150974566L390.29511839152707,267.3295811323115L391.8666949176141,268.1779804370334L393.4382714437011,266.58401909467693L395.0098479697881,271.41505993146126L396.58142449587507,270.6311312784138L398.1530010219621,274.3423943278517L399.7245775480491,278.7675054156847L401.2961540741361,279.69405342509833L402.86773060022307,279.33010441279305L404.4393071263101,283.44345840575875L406.0108836523971,280.9600526975981L407.58246017848415,279.5728223769724L409.15403670457107,283.31157795283457L410.7256132306581,288.1301443102171L412.2971897567451,287.2428245319264L413.86876628283215,286.0372395011043L415.44034280891907,288.0542649813922L417.0119193350061,284.44372180361086L418.5834958610931,281.6777539182947L420.15507238718016,286.3584333063102L421.7266489132671,280.870473407767L423.2982254393541,253.60559688485557L424.8698019654411,253.54691367427827L426.44137849152816,246.88436717685906L428.0129550176152,249.93390665176887L429.5845315437021,250.25145056986267L431.1561080697891,252.7615024923076L432.72768459587616,258.0400030305397L434.2992611219632,262.0966076416362L435.87083764805016,265.5564634894522L437.4424141741371,265.31049846823817L439.01399070022416,260.77078908122905L440.5855672263112,262.38959187127136L442.15714375239816,267.1601450282657L443.7287202784851,271.7190230418236L445.30029680457216,275.1434450247948L446.8718733306592,274.6584414730363L448.44344985674616,276.5773658401322L450.0150263828332,278.1233189340978L451.58660290892016,280.6044454560589L453.1581794350072,280.4986896853437L454.72975596109416,281.1905275911273L456.3013324871812,282.050472857339L457.87290901326816,284.1890950412004L459.4444855393552,282.1112824558104L461.01606206544216,280.2188674118185L462.5876385915292,285.0650642984555L464.1592151176162,286.6975558739102L465.7307916437032,282.51393667602895L467.30236816979016,285.3052246021951L468.8739446958772,278.89995913693684L470.4455212219642,284.49298131200976L472.0170977480512,286.35843075659795L473.58867427413816,284.37099441331355L475.1602508002252,288.08424557630855L476.7318273263122,289.0318111664747L478.30340385239924,290.58931987610123L479.87498037848616,289.62480393414677L481.4465569045732,290.1315379655592L483.01813343066027,291.4540828209002L484.58970995674724,291.510789005721L486.16128648283416,288.1770677991245L487.73286300892124,288.3006435913253L489.3044395350082,284.9437493643302L490.8760160610952,278.1453486209506L492.44759258718227,282.2283496801303L494.0191691132692,284.3293700491768L495.59074563935627,287.7675029225246L497.16232216544324,285.51999394401395L498.7338986915302,285.5569226509235L500.30547521761724,290.2008341589735L501.8770517437042,291.9519201779071L503.4486282697912,291.7309072853314L505.02020479587827,292.75903790797787L506.59178132196524,243.78474205721216L508.16335784805227,253.8609216761081L509.73493437413924,258.4130624232265L511.3065109002262,264.52881124500664L512.8780874263133,270.452667307493L514.4496639524002,269.5027665246916L516.0212404784872,266.935370755918L517.5928170045743,265.85282464574857L519.1643935306612,260.66987375330416L520.7359700567483,260.36789600194794L522.3075465828352,263.3419363198183L523.8791231089223,267.05199223006247L525.4506996350093,271.5471973944294L527.0222761610962,272.57946603324086L528.5938526871832,276.56629932198604L530.1654292132703,280.29962775376424L531.7370057393573,284.2811712384061L533.3085822654443,284.69751443591065L534.8801587915312,285.3165605238147L536.4517353176183,286.711597903192L538.0233118437053,288.90739006226886L539.5948883697922,291.6944431406637L541.1664648958792,295.64486446779506L542.7380414219663,298.031295259475L544.3096179480533,298.23858874677876L545.8811944741403,302.4568446202377L547.4527710002272,302.5390117447665L549.0243475263143,305.6029430823142L550.5959240524013,302.66526527651865L552.1675005784883,295.9028425247018L553.7390771045754,298.8465332258311L555.3106536306623,291.1949992362784L556.8822301567493,288.4649263035161L558.4538066828363,289.9724763196604L560.0253832089234,293.1955060955306L561.5969597350103,296.2872584408992L563.1685362610973,288.99341237054097L564.7401127871843,292.34034802077696L566.3116893132714,295.4529389607663L567.8832658393583,298.27486467996056L569.4548423654453,300.8273629760456L571.0264188915323,302.2967089324153L572.5979954176194,306.3833594716483L574.1695719437063,306.5403707415597L575.7411484697933,307.79413331440503L577.3127249958803,310.6128167458601L578.8843015219674,305.7300226855501L580.4558780480544,305.9193108417204L582.0274545741413,307.17209669730113L583.5990311002283,309.97765896825L585.1706076263154,309.8502340606875L586.7421841524023,311.35630195512476L588.3137606784894,314.06135831239766L589.8853372045763,312.7778128042804L591.4569137306634,310.8410802207558L593.0284902567504,313.30191238305133L594.6000667828373,314.9436683850029L596.1716433089243,314.4760441400237L597.7432198350114,312.91877680180284L599.3147963610983,312.42156619693105L600.8863728871854,312.10308780719913L602.4579494132723,313.8542997362206L604.0295259393594,310.6288163880198L605.6011024654464,312.7007569221624L607.1726789915333,313.95328830621213L608.7442555176204,316.44045981264225L610.3158320437074,311.3081932660185L611.8874085697944,312.94609607041446L613.4589850958814,312.25695771494884L615.0305616219683,309.34576276688244L616.6021381480555,311.41215396219553L618.1737146741424,313.03515707824795L619.7452912002293,312.0924261637298L621.3168677263164,314.95254941863055L622.8884442524034,313.7593900461969L624.4600207784904,315.5260370830031L626.0315973045774,311.517219603974L627.6031738306643,313.9935984458316L629.1747503567515,314.20463545934865L630.7463268828384,315.687451616564L632.3179034089253,317.1493764154907L633.8894799350124,318.50710309427825L635.4610564610994,315.5821634691812L637.0326329871865,314.91418423791794L638.6042095132734,317.4639600503553L640.1757860393603,313.5513773327124L641.7473625654475,308.7452794142108L643.3189390915344,311.7344448555375L644.8905156176215,315.9904932681476L646.4620921437086,318.3435047683489L648.0336686697955,318.57109507769053L649.6052451958825,314.33855372600027L651.1768217219695,317.48871500854534L652.7483982480564,318.8471289206842L654.3199747741435,319.31312582380974L655.8915513002305,320.0920666718364L657.4631278263175,319.9196664030248L659.0347043524046,318.0094944211265L660.6062808784915,320.9341866054456L662.1778574045785,321.5994620666158L663.7494339306655,320.2105617213238L665.3210104567526,321.05123653310415L666.8925869828395,319.9952552834237L668.4641635089265,320.7209036919668L670.0357400350135,321.5575253833327L671.6073165611006,320.23299346219005L673.1788930871876,319.72280991680975L674.7504696132745,320.18629654716335L676.3220461393615,320.97840413966344L677.8936226654486,320.23866788278116L679.4651991915355,321.867419506327L681.0367757176225,321.3898855103103L682.6083522437095,322.51498584149084L684.1799287697966,322.9617093622972L685.7515052958836,323.50932929794664L687.3230818219705,322.2156911777303L688.8946583480575,324.535901503542L690.4662348741446,320.395722955984L692.0378114002315,320.28719141844283L693.6093879263186,322.1089495265546L695.1809644524055,323.2738801406302L696.7525409784926,322.17393192971343L698.3241175045796,323.2287736227649L699.8956940306665,326.6867367012134L701.4672705567536,326.67100257712076L703.0388470828406,329.4579354127976L704.6104236089276,329.36495446377L706.1820001350146,330.34703463361046L707.7535766611015,330.29344759836124L709.3251531871886,328.4443102175545L710.8967297132756,329.9717012548564L712.4683062393625,327.0098988676159L714.0398827654496,327.1379215191392L715.6114592915366,326.57398764410664L717.1830358176236,316.9471220690381L718.7546123437106,318.2819292498329L720.3261888697975,319.938447501379L721.8977653958847,319.38208509214564L723.4693419219716,322.5842096484704L725.0409184480585,321.0757935024129L726.6124949741456,320.2455774121743L728.1840715002326,321.68660762362265L729.7556480263197,323.90542186403235L731.3272245524066,323.7652855658067L732.8988010784935,325.15539039052055L734.4703776045807,323.47122276006735L736.0419541306676,324.4471855549024L737.6135306567546,326.88145792483624L739.1851071828416,329.8712233039512L740.7566837089286,330.9601376069229L742.3282602350157,326.11830617069353L743.8998367611026,327.5634005618671L745.4714132871895,327.4594003021191L747.0429898132767,324.99157677195404L748.6145663393636,321.45313336923164L750.1861428654506,322.98440560650727L751.7577193915376,323.64688383126355L753.3292959176246,326.21575243783116L754.9008724437117,325.989917334465L756.4724489697986,325.9825669636335L758.0440254958856,327.98726997306693L759.6156020219727,325.07282363081003L761.1871785480596,323.5859136466437L762.7587550741467,325.85618330284353L764.3303316002336,327.6174542752054L765.9019081263207,329.3788277181591L767.4734846524077,329.6405006329825L769.0450611784946,331.8811340279536L770.6166377045816,331.6515489433749L772.1882142306687,333.2218925944223L773.7597907567556,334.24316222172655L775.3313672828427,333.07691341136655L776.9029438089296,332.8815899279307L778.4745203350167,331.6069623502516L780.0460968611037,330.74467434943904L781.6176733871906,332.4432606133119L783.1892499132776,330.677154779135L784.7608264393647,331.34843691689144L786.3324029654517,331.9729996564938L787.8646900783865,333.3053395624613L789.4362666044735,335.361816039664L791.0078431305604,333.6185112713111L792.5794196566476,335.07525904516285L794.1509961827345,335.30472404248553L795.7225727088215,336.53362041239325L797.2941492349086,338.79007120306505L798.8657257609955,335.86831516486296L800.4373022870825,336.603220898464L802.0088788131695,336.5334432670287L803.5804553392564,331.60372828193766L805.1520318653436,332.7644728250712L806.7236083914305,332.4057774304035L808.2951849175175,330.93398102331406L809.8667614436046,329.24239645577717L811.4383379696915,326.85636587164487L813.0099144957786,326.92393659433804L814.5814910218655,329.2195337691328L816.1530675479524,331.87164423718974L817.7246440740396,332.190656038854L819.2962206001265,330.43912522985926L820.8677971262136,331.3129014716519L822.4393736523006,329.5691084302832L824.0109501783875,330.5971441397713L825.5825267044746,332.54396968887465L827.1541032305615,330.95185593870866L828.7256797566486,331.68404086643153L830.2972562827356,332.4197341659668L831.8688328088225,331.21452658763724L833.4404093349096,333.15256912056435L834.9726964478444,333.95555402040685L836.5442729739314,334.41644278841056L838.1158495000184,331.6008279185465L839.6874260261054,331.7627894236258L841.2590025521924,331.19961286873763L842.8305790782794,333.49581435632246L844.4021556043664,333.61194214860024L845.8951533041491,332.9997746806955L847.4667298302361,333.77056292681687L849.038306356323,334.84731336874L850.60988288241,335.29033643029254L852.1421699953448,336.62212527691014L853.713746521432,332.54563840808225L855.2853230475189,325.04575234120983L856.7783207473014,327.98688519634794L858.3106078602364,327.3115274864295L859.8821843863234,329.999913582451L861.4537609124104,328.6177613062883L863.0253374384973,324.62140960574726L864.5576245514321,323.80373619143165L866.1292010775193,323.5131820886628L867.661488190454,325.7231687662031L869.2330647165411,326.8731063508335L870.804641242628,325.3814132025736L872.376217768715,326.8636958804742L873.9477942948021,326.25427060759256L875.4800814077369,322.73873933030853L877.0516579338239,325.06938158523997L878.6232344599109,326.31430380420704L880.1948109859978,328.8139051835467L881.7663875120849,329.0591922461544L883.3379640381719,330.4980431812759L884.8702511511068,329.05029695597307L886.4025382640416,332.03606914717034L887.8955359638242,331.1452573182728L889.4278230767591,330.7087158553952L890.999399602846,332.41028379880686L892.4923973026287,333.30322789313226L894.0246844155635,329.5226803582681L895.5176821153462,332.26395821756205L897.0499692282809,335.092133353821L898.621545754368,332.38950919534363L900.193122280455,330.3941403999737L901.6861199802377,332.951324061078L903.2184070931725,333.44681863472755L904.7899836192595,335.03477491102035L906.3615601453464,337.0936262178171L907.8938472582813,337.66615119794835L909.190397892303,338.47828767049293L910.6441061789335,335.6954709643357L912.1763932918683,335.90613654883816L913.6693909916511,334.6105178677578L915.1230992782814,336.5144717045296L916.576807564912,335.5124441297099L918.0305158515424,336.79209332118126L919.4449347250207,335.48862969305253L920.8986430116512,336.0859569271788L922.3130618851295,337.387722446362L923.8060595849122,335.53451138724955L925.2597678715426,337.5597448685474L926.7527655713253,338.45060796496153L930.9960221917602,340.06263130438117L932.4104410652385,342.13777004586456L933.9034387650212,341.0215851578085L935.3964364648037,341.6573319064466L936.9287235777387,343.6347150735953L938.4217212775213,343.39742944975325L941.2112696113256,342.32577951387515L942.7042673111084,342.4176267010441L945.4938156449128,340.5988671452059L946.8689451052389,340.7425627260231" style="fill: none;" fill="none"></path></g></g></g></g><g opacity="0.20000000298023224"><g><g><g><path stroke="rgb(255, 112, 67)" stroke-width="2px" d="M107.41134369586673,2.9839977610858455L108.98292022195373,99.4592058774985L110.55449674804073,179.31207332564318L112.12607327412773,106.8480159585668L113.69764980021475,68.03148866679231L115.26922632630175,-571.0512026199362L116.84080285238875,132.53021111379587L118.41237937847575,165.4820147823224L119.98395590456275,224.7763267000548L121.55553243064976,151.39473521850985L123.12710895673675,176.8213640293376L124.69868548282376,145.59999466049916L126.27026200891076,242.38933167706338L127.84183853499778,202.0885599321562L129.41341506108475,111.79686014343662L130.98499158717178,212.41982210453725L132.55656811325875,105.52424264157844L134.12814463934578,238.09306254210034L135.69972116543278,40.19636525011384L137.27129769151978,161.8237368364297L138.84287421760678,305.2018256316971L140.41445074369378,242.27866304677863L141.98602726978078,232.98168698713044L143.55760379586778,268.45404901084913L145.12918032195478,257.9047264854503L146.70075684804178,249.17368209336482L148.27233337412878,196.5674249323956L149.8439099002158,176.02457260252797L151.41548642630278,258.3783045159255L152.9870629523898,261.3072677526382L154.55863947847678,304.0632543694794L156.1302160045638,187.33624658081467L157.70179253065078,250.5367945232879L159.2733690567378,253.69329194475193L160.8449455828248,284.90390591900245L162.41652210891178,196.72859362806824L163.9880986349988,252.84710356994805L165.55967516108578,240.57134554541295L167.1312516871728,159.08521546210747L168.70282821325978,69.70452841738233L170.2744047393468,266.59905977956817L171.84598126543378,285.412572815984L173.4175577915208,156.01196284807617L174.9891343176078,235.93841471530197L176.5607108436948,225.77648106284352L178.1322873697818,24.132412873113935L179.7038638958688,264.98931138943783L181.2754404219558,218.18581672105506L182.8470169480428,209.39987601632177L184.4185934741298,247.4227265656922L185.9901700002168,301.451567161953L187.5617465263038,191.67693241318602L189.13332305239084,244.19177683131525L190.70489957847784,234.4102240118847L192.27647610456484,262.1640574100412L193.84805263065184,236.83862339776465L195.41962915673884,210.8259634715696L196.99120568282584,165.35689206971813L198.56278220891284,275.6174338080657L200.13435873499984,300.423769975065L201.70593526108684,260.85447861833853L203.27751178717386,272.67460860351684L204.84908831326084,224.15304915033775L206.42066483934786,134.63924179190457L207.99224136543484,304.47504971475394L209.56381789152186,266.4715442755586L211.13539441760884,291.7663424466899L212.70697094369586,225.20949494483096L214.27854746978286,267.9811928733741L215.85012399586986,279.6947260292353L217.42170052195686,190.80258210021526L218.99327704804386,299.5424521779683L220.56485357413086,260.6029435191184L222.13643010021786,198.75930297122903L223.70800662630486,299.5033807332247L225.27958315239187,302.1451360008849L226.85115967847887,207.18901786939202L228.4227362045659,282.32019409302484L229.99431273065287,288.74185411038303L231.5658892567399,248.01725817391633L233.13746578282687,301.65794744845L234.7090423089139,291.73472515551066L236.28061883500087,252.0030970964595L237.8521953610879,200.89800426276355L239.42377188717487,288.31556412700246L240.99534841326187,147.0237298801282L242.5669249393489,281.9903376588568L244.1385014654359,269.14679051173584L245.71007799152292,239.79441023168872L247.28165451760987,171.826156469306L248.8532310436969,244.10750190690464L250.4248075697839,264.1099564924092L251.99638409587092,311.3823814981308L253.56796062195792,270.5895869510342L255.1395371480449,283.33577587700984L256.7111136741319,255.86472986717393L258.28269020021895,196.37684518033095L259.8542667263059,207.39508993191137L261.4258432523929,230.72959171645635L262.9974197784799,247.44915271619556L264.56899630456695,290.6987032551143L266.1405728306539,238.89261176239404L267.7121493567409,302.63631524271443L269.2837258828279,290.22847513260643L270.85530240891495,229.07806275504217L272.426878935002,286.77141877716406L273.9984554610889,282.7849552955083L275.5700319871759,256.25729365847565L277.14160851326295,304.53005958360404L278.71318503935,254.21387413181617L280.2847615654369,277.451634143171L281.8563380915239,249.61197658955845L283.42791461761095,212.67955758379392L284.999491143698,312.61479073922305L286.57106766978495,307.1749214245125L288.1426441958719,254.5583387602926L289.71422072195895,173.59229608345566L291.285797248046,267.80201740848184L292.85737377413295,281.68663970700095L294.4289503002199,232.49026441058172L296.00052682630695,303.275425771493L297.572103352394,297.6373278833782L299.14367987848095,289.18087049957694L300.715256404568,179.32300716569185L302.28683293065495,285.0406924758129L303.858409456742,301.16320740856304L305.42998598282895,303.6839117645867L307.001562508916,301.21690326992956L308.57313903500295,276.0509832772352L310.14471556109,277.2760519209654L311.716292087177,181.8151278033687L313.287868613264,285.88583451132433L314.859445139351,283.70299230172986L316.431021665438,205.24535746644054L318.002598191525,309.59161641039975L319.574174717612,214.13959834352517L321.145751243699,285.5346295111265L322.717327769786,278.28653178700483L324.288904295873,100.34351669164118L325.86048082196,271.72773643307204L327.432057348047,299.74789157021775L329.00363387413404,273.77920222777914L330.575210400221,233.83421828694773L332.146786926308,276.2346847679043L333.718363452395,249.61574016654848L335.28993997848204,301.13498869229505L336.861516504569,246.35333536413842L338.433093030656,262.77472211014725L340.004669556743,187.2402104783102L341.57624608283004,283.8835466633642L343.14782260891707,266.23531493017515L344.719399135004,279.03100624918994L346.290975661091,265.7061998056248L347.86255218717804,263.90198641908023L349.43412871326507,329.99129464707835L351.00570523935204,223.3735507109048L352.577281765439,270.24298908818633L354.14885829152604,239.07903860191794L355.72043481761307,266.81537623376516L357.29201134370004,202.3729046626796L358.863587869787,262.6530385282408L360.43516439587404,318.8011460831306L362.00674092196107,169.03677813867435L363.57831744804804,309.9297867808066L365.14989397413507,276.92969739283666L366.72147050022204,264.06648880040564L368.29304702630907,261.1988864687138L369.8646235523961,238.50937580199437L371.43620007848307,279.8395750764081L373.00777660457004,298.30471390652593L374.57935313065707,289.18715664648914L376.1509296567441,267.9016224202011L377.72250618283107,265.4968670578684L379.2940827089181,316.6304624983381L380.86565923500507,322.9157577390657L382.4372357610921,241.15486220201538L384.00881228717907,259.8881964484602L385.5803888132661,185.4779155527236L387.15196533935307,283.9287582541885L388.7235418654401,263.5276565094027L390.29511839152707,286.0055389708481L391.8666949176141,276.0759656417381L393.4382714437011,251.74538940652934L395.0098479697881,316.38856345399756L396.58142449587507,263.3333212915053L398.1530010219621,308.89157486793755L399.7245775480491,319.9620960283559L401.2961540741361,288.31954670523976L402.86773060022307,275.94200176767015L404.4393071263101,321.73581551900816L406.0108836523971,257.8413377911029L407.58246017848415,266.6587092303974L409.15403670457107,318.1166941850108L410.7256132306581,332.98751965575207L412.2971897567451,278.98251775081394L413.86876628283215,274.8141128996246L415.44034280891907,306.8313165787105L417.0119193350061,250.83217042774766L418.5834958610931,255.92858900864508L420.15507238718016,329.9321805326313L421.7266489132671,229.78152720588756L423.2982254393541,-0.21072754476199407L424.8698019654411,253.00061533312373L426.44137849152816,184.86086737181765L428.0129550176152,278.32291843868006L429.5845315437021,253.20755528947478L431.1561080697891,276.12827449520523L432.72768459587616,307.1790337812667L434.2992611219632,299.8606691014021L435.87083764805016,297.76522461178115L437.4424141741371,263.0207416223992L439.01399070022416,218.50937078599625L440.5855672263112,277.45947763228605L442.15714375239816,311.5705522364756L443.7287202784851,314.15888742211763L445.30029680457216,307.022342444427L446.8718733306592,270.14340840993907L448.44344985674616,294.4411669026872L450.0150263828332,292.51502659951694L451.58660290892016,303.70194286727815L453.1581794350072,279.5141797787584L454.72975596109416,287.6310392284669L456.3013324871812,290.0559427055479L457.87290901326816,304.0981242347384L459.4444855393552,262.7683467405046L461.01606206544216,262.60184901448184L462.5876385915292,330.1796600531984L464.1592151176162,301.8948743533618L465.7307916437032,243.56746105346303L467.30236816979016,311.29010086145905L468.8739446958772,219.27156001573798L470.4455212219642,336.55998155734596L472.0170977480512,303.7244188841735L473.58867427413816,265.869396290624L475.1602508002252,322.6519342365268L476.7318273263122,297.85296300036146L478.30340385239924,305.0886019868609L479.87498037848616,280.64585655726586L481.4465569045732,294.84886611352215L483.01813343066027,303.76602100999656L484.58970995674724,292.0386826644003L486.16128648283416,257.14252914455125L487.73286300892124,289.45104503828657L489.3044395350082,253.6934866125273L490.8760160610952,214.85714376345396L492.44759258718227,320.23814304495517L494.0191691132692,303.8883534844875L495.59074563935627,319.77403884621344L497.16232216544324,264.59730726799023L498.7338986915302,285.9007022626664L500.30547521761724,333.4322990222119L501.8770517437042,308.2532673437322L503.4486282697912,289.6734367493058L505.02020479587827,302.33019205482407L506.59178132196524,-212.13061003552787L508.16335784805227,347.6628824577304L509.73493437413924,300.7902077286837L511.3065109002262,321.46201934856134L512.8780874263133,325.5994923013638L514.4496639524002,260.65987573225004L516.0212404784872,243.03476890854074L517.5928170045743,255.7751015789413L519.1643935306612,212.42034121860485L520.7359700567483,257.5567010589165L522.3075465828352,291.02810546447324L523.8791231089223,301.58993539443816L525.4506996350093,313.39431351212795L527.0222761610962,282.18914212442985L528.5938526871832,313.6808401439667L530.1654292132703,315.05422129903934L531.7370057393573,321.34646780157834L533.3085822654443,288.57336915082027L534.8801587915312,291.07943286790635L536.4517353176183,299.69838917717846L538.0233118437053,309.3486304709802L539.5948883697922,317.639896025085L541.1664648958792,332.4204362038518L542.7380414219663,320.2472437634526L544.3096179480533,300.1683415203379L545.8811944741403,341.7257626999467L547.4527710002272,303.30392837826673L549.0243475263143,334.1259327504023L550.5959240524013,275.3176048782449L552.1675005784883,232.94956680419818L553.7390771045754,326.2501693404609L555.3106536306623,219.9647395191192L556.8822301567493,263.0499174552294L558.4538066828363,304.0066790472692L560.0253832089234,323.19958741110025L561.5969597350103,325.06924161479066L563.1685362610973,221.0929690557716L564.7401127871843,323.4979036100834L566.3116893132714,324.42891441241613L567.8832658393583,324.54495668441615L569.4548423654453,324.5892801035155L571.0264188915323,315.97525943346415L572.5979954176194,344.4271268626496L574.1695719437063,308.0020323573324L575.7411484697933,319.46575809047965L577.3127249958803,336.85272539125987L578.8843015219674,260.27473364988344L580.4558780480544,307.68144697596523L582.0274545741413,318.8346289404903L583.5990311002283,336.0954190782165L585.1706076263154,308.6640001273997L586.7421841524023,325.37670719921516L588.3137606784894,339.24348089608213L589.8853372045763,300.82893039366314L591.4569137306634,292.81149751021303L593.0284902567504,336.2104839557611L594.6000667828373,330.2272319907988L596.1716433089243,310.1227998800631L597.7432198350114,298.4217416841386L599.3147963610983,307.79289427735137L600.8863728871854,309.13828382856053L602.4579494132723,330.1568190342244L604.0295259393594,280.60189408466664L605.6011024654464,331.9890280802111L607.1726789915333,325.61345160308764L608.7442555176204,339.59423167147077L610.3158320437074,263.5304954144598L611.8874085697944,328.1937891876259L613.4589850958814,305.8415769419029L615.0305616219683,282.24463866271833L616.6021381480555,330.64876478041936L618.1737146741424,328.14414484933377L619.7452912002293,303.316281670844L621.3168677263164,341.5782329152843L622.8884442524034,302.65193733168604L624.4600207784904,331.9722460957447L626.0315973045774,274.19802183528077L627.6031738306643,337.04689838601115L629.1747503567515,316.16923776044007L630.7463268828384,329.49139996672335L632.3179034089253,330.75884129622074L633.8894799350124,331.14655867103204L635.4610564610994,288.3530863407006L637.0326329871865,308.69577964172504L638.6042095132734,341.200532819746L640.1757860393603,277.1280557447579L641.7473625654475,264.0039761110474L643.3189390915344,339.56141798458884L644.8905156176215,355.61123261440423L646.4620921437086,340.24834378568704L648.0336686697955,320.689796617232L649.6052451958825,274.9366481530482L651.1768217219695,346.814443236774L652.7483982480564,331.4929821439979L654.3199747741435,323.65122070548375L655.8915513002305,327.3434438447026L657.4631278263175,318.31474431295436L659.0347043524046,300.2271717442792L660.6062808784915,348.16096023884876L662.1778574045785,327.7926965144168L663.7494339306655,307.2809018058743L665.3210104567526,328.8773123582341L666.8925869828395,310.1648318972234L668.4641635089265,327.47616671170266L670.0357400350135,329.34586958233695L671.6073165611006,307.9025571241301L673.1788930871876,314.9733692830119L674.7504696132745,324.50102260086754L676.3220461393615,328.3523542018033L677.8936226654486,313.3522571614957L679.4651991915355,337.0299217337694L681.0367757176225,316.94438861955695L682.6083522437095,332.98885799670757L684.1799287697966,327.12038296320554L685.7515052958836,328.60727570919875L687.3230818219705,310.17285383179916L688.8946583480575,346.1353852582628L690.4662348741446,281.853648435934L692.0378114002315,319.27684112566277L693.6093879263186,339.06820284227547L695.1809644524055,334.1185434860964L696.7525409784926,311.9342078631382L698.3241175045796,333.0485885591099L699.8956940306665,358.8778775242961L701.4672705567536,326.5245292363405L703.0388470828406,355.40226892430525L704.6104236089276,328.4993689279767L706.1820001350146,339.4894922971768L707.7535766611015,329.79459097124754L709.3251531871886,311.23017563128144L710.8967297132756,344.1906095711817L712.4683062393625,299.4376560255732L714.0398827654496,328.32972001734055L715.6114592915366,321.3241702301438L717.1830358176236,227.32795078772938L718.7546123437106,330.7080208401192L720.3261888697975,335.3594369977308L721.8977653958847,314.20275256082914L723.4693419219716,352.39367845631836L725.0409184480585,307.03352773035215L726.6124949741456,312.5168647370662L728.1840715002326,335.1015589734973L729.7556480263197,344.5609812360939L731.3272245524066,322.4607177586136L732.8988010784935,338.0962631401761L734.4703776045807,307.7928374992502L736.0419541306676,333.53269487176846L737.6135306567546,349.5427769975198L739.1851071828416,357.7037814208669L740.7566837089286,341.09714395314353L742.3282602350157,281.0443496045583L743.8998367611026,341.01618649207114L745.4714132871895,326.4912329355989L747.0429898132767,302.0179206096957L748.6145663393636,288.51277880574355L750.1861428654506,337.2394450937225L751.7577193915376,329.81407802667553L753.3292959176246,350.1300653422696L754.9008724437117,323.88755549591224L756.4724489697986,325.91414031558287L758.0440254958856,346.649608297999L759.6156020219727,297.9414313930993L761.1871785480596,309.74385472187834L762.7587550741467,346.9907554631372L764.3303316002336,344.0136160076048L765.9019081263207,345.7759433778206L767.4734846524077,332.07648663386436L769.0450611784946,352.73981398319984L770.6166377045816,329.51427748590527L772.1882142306687,347.84065874798733L773.7597907567556,343.750445453229L775.3313672828427,322.2199786097679L776.9029438089296,331.06326925223414L778.4745203350167,319.7410994363933L780.0460968611037,322.71739533156585L781.6176733871906,348.25587294606635L783.1892499132776,314.23598397231234L784.7608264393647,337.5975891889957L786.3324029654517,337.78722804681286L787.8646900783865,345.70846260461235L789.4362666044735,354.5061279872316L791.0078431305604,317.3896019329327L792.5794196566476,348.6365295584427L794.1509961827345,337.44087757426274L795.7225727088215,347.9737587838021L797.2941492349086,359.79599969766934L798.8657257609955,308.66887493294064L800.4373022870825,343.4446629339455L802.0088788131695,335.88386387335817L803.5804553392564,285.711639297018L805.1520318653436,343.5701668709431L806.7236083914305,329.0665821583939L808.2951849175175,317.23261859443L809.8667614436046,313.4949648631396L811.4383379696915,304.64414301111464L813.0099144957786,327.55297126023436L814.5814910218655,350.58988684995364L816.1530675479524,356.56087880064774L817.7246440740396,335.1604256976465L819.2962206001265,314.13363738942365L820.8677971262136,339.44712772256696L822.4393736523006,313.33565362249004L824.0109501783875,340.1674147136652L825.5825267044746,350.6675106253732L827.1541032305615,316.13042587273026L828.7256797566486,338.5001541626558L830.2972562827356,339.2685078719502L831.8688328088225,319.9949137708165L833.4404093349096,351.1943465147205L834.9726964478444,341.43076396430166L836.5442729739314,338.7069846183833L838.1158495000184,305.38948536713156L839.6874260261054,333.27053415647725L841.2590025521924,325.9568455587996L842.8305790782794,354.87179315311687L844.4021556043664,334.6930080911452L845.8951533041491,327.3009373248398L847.4667298302361,340.94604525926644L849.038306356323,344.8710829466429L850.60988288241,339.41456142598287L852.1421699953448,349.0201183541852L853.713746521432,294.59648745394213L855.2853230475189,255.22722534754195L856.7783207473014,355.36670961067523L858.3106078602364,321.02443457863205L859.8821843863234,355.02684806397L861.4537609124104,315.7509210446914L863.0253374384973,287.4182592388554L864.5576245514321,316.1917867777511L866.1292010775193,320.8083330701037L867.661488190454,346.2965498983568L869.2330647165411,337.5781954118768L870.804641242628,311.4948264718656L872.376217768715,340.66267792319843L873.9477942948021,320.58096110849846L875.4800814077369,290.0116801201284L877.0516579338239,346.76597907186994L878.6232344599109,337.90363126531304L880.1948109859978,352.0833901891513L881.7663875120849,331.3426377877502L883.3379640381719,343.8927070412211L884.8702511511068,315.5728243637209L886.4025382640416,359.83145356625437L887.8955359638242,322.8524420451341L889.4278230767591,326.6448298659263L890.999399602846,348.2506534163399L892.4923973026287,341.6158930186566L894.0246844155635,294.3285110388625L895.5176821153462,357.78327684583485L897.0499692282809,361.4204029212625L898.621545754368,307.2300286272503L900.193122280455,311.8186968719417L901.6861199802377,356.75685855568895L903.2184070931725,338.0595155420007L904.7899836192595,349.81750189547813L906.3615601453464,356.2600461151103L907.8938472582813,342.9959456006135L909.190397892303,346.0386921520165L910.6441061789335,309.78945564825335L912.1763932918683,337.8672811138456L913.6693909916511,322.54924292945265L915.1230992782814,354.23890793757073L916.576807564912,326.1842905208206L918.0305158515424,348.70470383560064L919.4449347250207,323.3543239590291L920.8986430116512,341.6466424160041L922.3130618851295,349.5062200115411L923.8060595849122,318.2824537957187L925.2597678715426,356.4132070707325L926.7527655713253,346.7439005016827L930.9960221917602,355.0694052785659L932.4104410652385,361.4558142062717L933.9034387650212,330.63070934425593L935.3964364648037,347.5756753499536L936.9287235777387,362.04272538220675L938.4217212775213,341.1884715288318L941.2112696113256,332.3494919664738L942.7042673111084,343.2726577321119L945.4938156449128,323.66752818724774L946.8689451052389,342.0802648855894" style="fill: none;" fill="none"></path></g></g></g></g></g></g><g transform="translate(68, 377)" clip-path="url(#clip_1)"><clipPath id="clip_1"><rect width="960" height="22"></rect></clipPath><g><g><line x1="28.793227978364456" y1="0" x2="28.793227978364456" y2="5" style="visibility: inherit;" fill="rgb(0, 0, 0)" stroke="rgb(204, 204, 204)" stroke-width="1px"></line><line x1="107.37205428271456" y1="0" x2="107.37205428271456" y2="5" style="visibility: inherit;" fill="rgb(0, 0, 0)" stroke="rgb(204, 204, 204)" stroke-width="1px"></line><line x1="185.95088058706463" y1="0" x2="185.95088058706463" y2="5" style="visibility: inherit;" fill="rgb(0, 0, 0)" stroke="rgb(204, 204, 204)" stroke-width="1px"></line><line x1="264.5297068914148" y1="0" x2="264.5297068914148" y2="5" style="visibility: inherit;" fill="rgb(0, 0, 0)" stroke="rgb(204, 204, 204)" stroke-width="1px"></line><line x1="343.1085331957649" y1="0" x2="343.1085331957649" y2="5" style="visibility: inherit;" fill="rgb(0, 0, 0)" stroke="rgb(204, 204, 204)" stroke-width="1px"></line><line x1="421.68735950011495" y1="0" x2="421.68735950011495" y2="5" style="visibility: inherit;" fill="rgb(0, 0, 0)" stroke="rgb(204, 204, 204)" stroke-width="1px"></line><line x1="500.26618580446507" y1="0" x2="500.26618580446507" y2="5" style="visibility: inherit;" fill="rgb(0, 0, 0)" stroke="rgb(204, 204, 204)" stroke-width="1px"></line><line x1="578.8450121088152" y1="0" x2="578.8450121088152" y2="5" style="visibility: inherit;" fill="rgb(0, 0, 0)" stroke="rgb(204, 204, 204)" stroke-width="1px"></line><line x1="657.4238384131653" y1="0" x2="657.4238384131653" y2="5" style="visibility: inherit;" fill="rgb(0, 0, 0)" stroke="rgb(204, 204, 204)" stroke-width="1px"></line><line x1="736.0026647175155" y1="0" x2="736.0026647175155" y2="5" style="visibility: inherit;" fill="rgb(0, 0, 0)" stroke="rgb(204, 204, 204)" stroke-width="1px"></line><line x1="814.5814910218655" y1="0" x2="814.5814910218655" y2="5" style="visibility: inherit;" fill="rgb(0, 0, 0)" stroke="rgb(204, 204, 204)" stroke-width="1px"></line><line x1="893.1603173262156" y1="0" x2="893.1603173262156" y2="5" style="visibility: inherit;" fill="rgb(0, 0, 0)" stroke="rgb(204, 204, 204)" stroke-width="1px"></line></g><g transform="translate(0, 8)"><text x="28.793227978364456" y="0" dx="0em" dy="0.95em" style="text-anchor: middle; visibility: inherit; font-family: &quot;Helvetica Neue&quot;, sans-serif; font-size: 12px; font-weight: 200;" fill="rgb(50, 49, 63)" stroke="none" stroke-width="1px">-2k</text><text x="107.37205428271456" y="0" dx="0em" dy="0.95em" style="text-anchor: middle; visibility: inherit; font-family: &quot;Helvetica Neue&quot;, sans-serif; font-size: 12px; font-weight: 200;" fill="rgb(50, 49, 63)" stroke="none" stroke-width="1px">0</text><text x="185.95088058706463" y="0" dx="0em" dy="0.95em" style="text-anchor: middle; visibility: inherit; font-family: &quot;Helvetica Neue&quot;, sans-serif; font-size: 12px; font-weight: 200;" fill="rgb(50, 49, 63)" stroke="none" stroke-width="1px">2k</text><text x="264.5297068914148" y="0" dx="0em" dy="0.95em" style="text-anchor: middle; visibility: inherit; font-family: &quot;Helvetica Neue&quot;, sans-serif; font-size: 12px; font-weight: 200;" fill="rgb(50, 49, 63)" stroke="none" stroke-width="1px">4k</text><text x="343.1085331957649" y="0" dx="0em" dy="0.95em" style="text-anchor: middle; visibility: inherit; font-family: &quot;Helvetica Neue&quot;, sans-serif; font-size: 12px; font-weight: 200;" fill="rgb(50, 49, 63)" stroke="none" stroke-width="1px">6k</text><text x="421.68735950011495" y="0" dx="0em" dy="0.95em" style="text-anchor: middle; visibility: inherit; font-family: &quot;Helvetica Neue&quot;, sans-serif; font-size: 12px; font-weight: 200;" fill="rgb(50, 49, 63)" stroke="none" stroke-width="1px">8k</text><text x="500.26618580446507" y="0" dx="0em" dy="0.95em" style="text-anchor: middle; visibility: inherit; font-family: &quot;Helvetica Neue&quot;, sans-serif; font-size: 12px; font-weight: 200;" fill="rgb(50, 49, 63)" stroke="none" stroke-width="1px">10k</text><text x="578.8450121088152" y="0" dx="0em" dy="0.95em" style="text-anchor: middle; visibility: inherit; font-family: &quot;Helvetica Neue&quot;, sans-serif; font-size: 12px; font-weight: 200;" fill="rgb(50, 49, 63)" stroke="none" stroke-width="1px">12k</text><text x="657.4238384131653" y="0" dx="0em" dy="0.95em" style="text-anchor: middle; visibility: inherit; font-family: &quot;Helvetica Neue&quot;, sans-serif; font-size: 12px; font-weight: 200;" fill="rgb(50, 49, 63)" stroke="none" stroke-width="1px">14k</text><text x="736.0026647175155" y="0" dx="0em" dy="0.95em" style="text-anchor: middle; visibility: inherit; font-family: &quot;Helvetica Neue&quot;, sans-serif; font-size: 12px; font-weight: 200;" fill="rgb(50, 49, 63)" stroke="none" stroke-width="1px">16k</text><text x="814.5814910218655" y="0" dx="0em" dy="0.95em" style="text-anchor: middle; visibility: inherit; font-family: &quot;Helvetica Neue&quot;, sans-serif; font-size: 12px; font-weight: 200;" fill="rgb(50, 49, 63)" stroke="none" stroke-width="1px">18k</text><text x="893.1603173262156" y="0" dx="0em" dy="0.95em" style="text-anchor: middle; visibility: inherit; font-family: &quot;Helvetica Neue&quot;, sans-serif; font-size: 12px; font-weight: 200;" fill="rgb(50, 49, 63)" stroke="none" stroke-width="1px">20k</text></g><line x1="0" y1="0" x2="960.6875" y2="0" fill="rgb(0, 0, 0)" stroke="rgb(204, 204, 204)" stroke-width="1px"></line></g></g></g></g></svg>