<svg viewBox="0 0 330 200" xmlns="http://www.w3.org/2000/svg"><g><g><g><g><g><line x1="58.59375" y1="169.95459081622135" x2="53.59375" y2="169.95459081622135" style="visibility: inherit;" fill="rgb(0, 0, 0)" stroke="rgb(204, 204, 204)" stroke-width="1px"></line><line x1="58.59375" y1="153.22489039406767" x2="53.59375" y2="153.22489039406767" style="visibility: inherit;" fill="rgb(0, 0, 0)" stroke="rgb(204, 204, 204)" stroke-width="1px"></line><line x1="58.59375" y1="136.49518997191402" x2="53.59375" y2="136.49518997191402" style="visibility: inherit;" fill="rgb(0, 0, 0)" stroke="rgb(204, 204, 204)" stroke-width="1px"></line><line x1="58.59375" y1="119.76548954976035" x2="53.59375" y2="119.76548954976035" style="visibility: inherit;" fill="rgb(0, 0, 0)" stroke="rgb(204, 204, 204)" stroke-width="1px"></line><line x1="58.59375" y1="103.03578912760668" x2="53.59375" y2="103.03578912760668" style="visibility: inherit;" fill="rgb(0, 0, 0)" stroke="rgb(204, 204, 204)" stroke-width="1px"></line><line x1="58.59375" y1="86.306088705453" x2="53.59375" y2="86.306088705453" style="visibility: inherit;" fill="rgb(0, 0, 0)" stroke="rgb(204, 204, 204)" stroke-width="1px"></line><line x1="58.59375" y1="69.57638828329935" x2="53.59375" y2="69.57638828329935" style="visibility: inherit;" fill="rgb(0, 0, 0)" stroke="rgb(204, 204, 204)" stroke-width="1px"></line><line x1="58.59375" y1="52.84668786114568" x2="53.59375" y2="52.84668786114568" style="visibility: inherit;" fill="rgb(0, 0, 0)" stroke="rgb(204, 204, 204)" stroke-width="1px"></line><line x1="58.59375" y1="36.11698743899203" x2="53.59375" y2="36.11698743899203" style="visibility: inherit;" fill="rgb(0, 0, 0)" stroke="rgb(204, 204, 204)" stroke-width="1px"></line><line x1="58.59375" y1="19.387287016838314" x2="53.59375" y2="19.387287016838314" style="visibility: inherit;" fill="rgb(0, 0, 0)" stroke="rgb(204, 204, 204)" stroke-width="1px"></line><line x1="58.59375" y1="2.657586594684659" x2="53.59375" y2="2.657586594684659" style="visibility: inherit;" fill="rgb(0, 0, 0)" stroke="rgb(204, 204, 204)" stroke-width="1px"></line></g><g transform="translate(48.59375, 0)"><text x="0" y="169.95459081622135" dx="0em" dy="0.3em" style="text-anchor: end; visibility: inherit; font-family: &quot;Helvetica Neue&quot;, sans-serif; font-size: 12px; font-weight: 200;" fill="rgb(50, 49, 63)" stroke="none" stroke-width="1px">-2e-3</text><text x="0" y="153.22489039406767" dx="0em" dy="0.3em" style="text-anchor: end; visibility: hidden; font-family: &quot;Helvetica Neue&quot;, sans-serif; font-size: 12px; font-weight: 200;" fill="rgb(50, 49, 63)" stroke="none" stroke-width="1px">0</text><text x="0" y="136.49518997191402" dx="0em" dy="0.3em" style="text-anchor: end; visibility: inherit; font-family: &quot;Helvetica Neue&quot;, sans-serif; font-size: 12px; font-weight: 200;" fill="rgb(50, 49, 63)" stroke="none" stroke-width="1px">2e-3</text><text x="0" y="119.76548954976035" dx="0em" dy="0.3em" style="text-anchor: end; visibility: hidden; font-family: &quot;Helvetica Neue&quot;, sans-serif; font-size: 12px; font-weight: 200;" fill="rgb(50, 49, 63)" stroke="none" stroke-width="1px">4e-3</text><text x="0" y="103.03578912760668" dx="0em" dy="0.3em" style="text-anchor: end; visibility: inherit; font-family: &quot;Helvetica Neue&quot;, sans-serif; font-size: 12px; font-weight: 200;" fill="rgb(50, 49, 63)" stroke="none" stroke-width="1px">6e-3</text><text x="0" y="86.306088705453" dx="0em" dy="0.3em" style="text-anchor: end; visibility: hidden; font-family: &quot;Helvetica Neue&quot;, sans-serif; font-size: 12px; font-weight: 200;" fill="rgb(50, 49, 63)" stroke="none" stroke-width="1px">8e-3</text><text x="0" y="69.57638828329935" dx="0em" dy="0.3em" style="text-anchor: end; visibility: inherit; font-family: &quot;Helvetica Neue&quot;, sans-serif; font-size: 12px; font-weight: 200;" fill="rgb(50, 49, 63)" stroke="none" stroke-width="1px">0.01</text><text x="0" y="52.84668786114568" dx="0em" dy="0.3em" style="text-anchor: end; visibility: hidden; font-family: &quot;Helvetica Neue&quot;, sans-serif; font-size: 12px; font-weight: 200;" fill="rgb(50, 49, 63)" stroke="none" stroke-width="1px">0.012</text><text x="0" y="36.11698743899203" dx="0em" dy="0.3em" style="text-anchor: end; visibility: inherit; font-family: &quot;Helvetica Neue&quot;, sans-serif; font-size: 12px; font-weight: 200;" fill="rgb(50, 49, 63)" stroke="none" stroke-width="1px">0.014</text><text x="0" y="19.387287016838314" dx="0em" dy="0.3em" style="text-anchor: end; visibility: hidden; font-family: &quot;Helvetica Neue&quot;, sans-serif; font-size: 12px; font-weight: 200;" fill="rgb(50, 49, 63)" stroke="none" stroke-width="1px">0.016</text><text x="0" y="2.657586594684659" dx="0em" dy="0.3em" style="text-anchor: end; visibility: hidden; font-family: &quot;Helvetica Neue&quot;, sans-serif; font-size: 12px; font-weight: 200;" fill="rgb(50, 49, 63)" stroke="none" stroke-width="1px">0.018</text></g><line x1="58.59375" y1="0" x2="58.59375" y2="177.828125" fill="rgb(0, 0, 0)" stroke="rgb(204, 204, 204)" stroke-width="1px"></line></g></g><g transform="translate(58, 0)" clip-path="url(#clip_0)"><clipPath id="clip_0"><rect width="271" height="177"></rect></clipPath><g><g><g><line x1="6.890134935910292" y1="0" x2="6.890134935910292" y2="177.828125" fill="rgb(0, 0, 0)" stroke="rgb(60, 60, 60)" stroke-width="1px" opacity="0.25"></line><line x1="38.31577916972066" y1="0" x2="38.31577916972066" y2="177.828125" fill="rgb(0, 0, 0)" stroke="rgb(60, 60, 60)" stroke-width="1px" opacity="0.25"></line><line x1="69.74142340353103" y1="0" x2="69.74142340353103" y2="177.828125" fill="rgb(0, 0, 0)" stroke="rgb(60, 60, 60)" stroke-width="1px" opacity="0.25"></line><line x1="101.1670676373414" y1="0" x2="101.1670676373414" y2="177.828125" fill="rgb(0, 0, 0)" stroke="rgb(60, 60, 60)" stroke-width="1px" opacity="0.25"></line><line x1="132.59271187115175" y1="0" x2="132.59271187115175" y2="177.828125" fill="rgb(0, 0, 0)" stroke="rgb(60, 60, 60)" stroke-width="1px" opacity="0.25"></line><line x1="164.01835610496212" y1="0" x2="164.01835610496212" y2="177.828125" fill="rgb(0, 0, 0)" stroke="rgb(60, 60, 60)" stroke-width="1px" opacity="0.25"></line><line x1="195.4440003387725" y1="0" x2="195.4440003387725" y2="177.828125" fill="rgb(0, 0, 0)" stroke="rgb(60, 60, 60)" stroke-width="1px" opacity="0.25"></line><line x1="226.86964457258284" y1="0" x2="226.86964457258284" y2="177.828125" fill="rgb(0, 0, 0)" stroke="rgb(60, 60, 60)" stroke-width="1px" opacity="0.25"></line><line x1="258.2952888063932" y1="0" x2="258.2952888063932" y2="177.828125" fill="rgb(0, 0, 0)" stroke="rgb(60, 60, 60)" stroke-width="1px" opacity="0.25"></line></g><g><line x1="0" y1="169.95459081622135" x2="271.40625" y2="169.95459081622135" fill="rgb(0, 0, 0)" stroke="rgb(60, 60, 60)" stroke-width="1px" opacity="0.25"></line><line x1="0" y1="153.22489039406767" x2="271.40625" y2="153.22489039406767" fill="rgb(0, 0, 0)" stroke="rgb(60, 60, 60)" stroke-width="1px" opacity="0.25"></line><line x1="0" y1="136.49518997191402" x2="271.40625" y2="136.49518997191402" fill="rgb(0, 0, 0)" stroke="rgb(60, 60, 60)" stroke-width="1px" opacity="0.25"></line><line x1="0" y1="119.76548954976035" x2="271.40625" y2="119.76548954976035" fill="rgb(0, 0, 0)" stroke="rgb(60, 60, 60)" stroke-width="1px" opacity="0.25"></line><line x1="0" y1="103.03578912760668" x2="271.40625" y2="103.03578912760668" fill="rgb(0, 0, 0)" stroke="rgb(60, 60, 60)" stroke-width="1px" opacity="0.25"></line><line x1="0" y1="86.306088705453" x2="271.40625" y2="86.306088705453" fill="rgb(0, 0, 0)" stroke="rgb(60, 60, 60)" stroke-width="1px" opacity="0.25"></line><line x1="0" y1="69.57638828329935" x2="271.40625" y2="69.57638828329935" fill="rgb(0, 0, 0)" stroke="rgb(60, 60, 60)" stroke-width="1px" opacity="0.25"></line><line x1="0" y1="52.84668786114568" x2="271.40625" y2="52.84668786114568" fill="rgb(0, 0, 0)" stroke="rgb(60, 60, 60)" stroke-width="1px" opacity="0.25"></line><line x1="0" y1="36.11698743899203" x2="271.40625" y2="36.11698743899203" fill="rgb(0, 0, 0)" stroke="rgb(60, 60, 60)" stroke-width="1px" opacity="0.25"></line><line x1="0" y1="19.387287016838314" x2="271.40625" y2="19.387287016838314" fill="rgb(0, 0, 0)" stroke="rgb(60, 60, 60)" stroke-width="1px" opacity="0.25"></line><line x1="0" y1="2.657586594684659" x2="271.40625" y2="2.657586594684659" fill="rgb(0, 0, 0)" stroke="rgb(60, 60, 60)" stroke-width="1px" opacity="0.25"></line></g></g></g><g><g><line x1="0" y1="153.22489039406767" x2="271.40625" y2="153.22489039406767" fill="rgb(0, 0, 0)" stroke="rgb(153, 153, 153)" stroke-width="1.5px"></line></g></g><g><g><line x1="69.74142340353103" y1="0" x2="69.74142340353103" y2="177.828125" fill="rgb(0, 0, 0)" stroke="rgb(153, 153, 153)" stroke-width="1.5px"></line></g></g><g><g><g><g><g><path stroke="rgb(255, 112, 67)" stroke-width="2px" d="M76.53250512245745,-0.924654137051192L76.65820769939269,2.0054084139944734L76.78391027632793,4.623916553312597L76.90961285326317,8.2618258378794L77.2867205840689,10.937057271128964L77.41242316100414,14.588338498478265L77.53812573793938,18.10713596691093L77.66382831487462,19.87915777391777L77.78953089180986,23.13208509040757L77.9152334687451,24.886763047661447L78.04093604568034,27.112359483939798L78.16663862261558,29.716811160162507L78.29234119955083,32.15356754310275L78.41804377648607,34.62414842083146L78.66944893035655,36.125173404046876L78.79515150729179,36.905205778101475L78.92085408422703,38.62127478807389L79.04655666116227,38.855860715235224L79.29796181503276,40.356417274505986L79.54936696890324,41.81576062232773L79.67506954583848,43.827487810014645L79.92647469970896,45.078789323904346L80.0521772766442,45.85298660312179L80.3035824305147,47.003240164679085L80.42928500744993,48.81586805400596L80.55498758438517,49.766442839814715L80.68069016132041,50.97051193664353L80.80639273825565,52.27041510295723L80.93209531519089,53.749584484238L81.18350046906137,53.01096977927767L81.30920304599663,53.98166296910087L81.43490562293186,56.35867916779415L81.5606081998671,57.73012776036725L81.81201335373758,58.57782522686571L82.1891210845433,59.91838345314858L82.31482366147856,61.099706230571456L82.4405262384138,62.27016029415469L82.56622881534904,64.46137481262731L82.81763396921951,63.31172126441446L82.94333654615475,64.95053828525742L83.06903912309,64.38326704950767L83.44614685389573,65.90777116346648L83.57184943083097,66.46386385578872L83.94895716163668,68.1980170960635L84.32606489244242,68.48039814742302L84.45176746937766,69.1266924155737L84.5774700463129,69.47978526824068L84.70317262324814,71.33060523453274L84.82887520018338,72.55312047847355L85.20598293098911,74.10467396825223L85.33168550792435,75.07340472238636L85.45738808485959,76.11648146967882L85.58309066179483,76.95558801042785L85.70879323873007,76.60677286626533L85.96019839260055,77.67153977836689L86.08590096953579,78.12129878980186L86.46300870034152,78.62805919954808L86.84011643114724,78.81105701163413L86.96581900808248,79.92314836054945L87.21722416195297,80.8345067728512L87.46862931582345,81.42707360152595L87.5943318927587,81.99004501440355L87.72003446969394,82.66507666151082L87.84573704662918,83.38499567655309L87.97143962356442,83.50336917761841L88.09714220049968,83.49229134355285L88.34854735437015,84.71713282249726L88.4742499313054,85.48809915637382L88.59995250824063,86.06778388640289L88.72565508517587,86.18272746260212L88.97706023904635,86.76015651309453L89.1027628159816,86.07512779368834L89.22846539291685,86.51614273194502L89.47987054678732,87.38801923702141L89.60557312372256,87.38001933965467L89.7312757006578,87.62139285531062L89.98268085452828,88.1056573205783L90.10838343146354,88.53911430655918L90.35978858533402,88.308727639118L90.48549116226926,89.38615295826763L90.73689631613973,89.95060411554338L90.86259889307497,89.93887797506444L90.98830147001021,90.61052907522874L91.2397066238807,91.37552950606337L91.36540920081595,91.74341631700003L91.74251693162167,92.14679049184413L91.8682195085569,92.02830021417971L91.99392208549214,92.36777498800552L92.1196246624274,92.56426939651307L92.37102981629788,92.83489665066725L92.49673239323312,93.1208855472779L92.7481375471036,93.70708336635656L92.99954270097408,93.41083404854962L93.12524527790933,93.73833337880204L93.25094785484457,94.38271843057454L93.37665043177981,95.17689546922105L93.62805558565029,95.00580066806585L93.75375816258553,95.70919575711706L94.13086589339126,95.52531480555655L94.63367620113222,96.05544184664873L94.75937877806746,96.16629378879175L95.13648650887319,96.45262482688395L95.26218908580843,97.15119623769812L95.51359423967891,97.38966652367344L95.63929681661415,97.39016313302187L95.76499939354939,97.73983041489151L95.89070197048463,98.17800500344465L96.01640454741988,98.53223640019999L96.3935122782256,98.93353526892284L96.51921485516084,99.7090393867828L96.64491743209608,100.18421346211285L96.77062000903132,100.38949872640588L97.14772773983705,100.00746662445817L97.27343031677229,99.86399095957121L97.39913289370753,100.1880177607638L97.52483547064277,100.17864502113443L97.65053804757801,100.43841787578427L97.77624062451325,101.19718238558048L98.02764577838374,101.11223369100388L98.15334835531898,101.16506154865345L98.27905093225422,101.121017906045L98.5304560861247,101.25206826178683L98.65615866305994,101.73648981161803L98.78186123999518,102.10508789694852L98.90756381693042,102.50195894603515L99.03326639386567,102.57483582407745L99.15896897080091,102.80505839295031L99.28467154773615,102.46675975903007L99.53607670160663,102.75317289902002L99.66177927854187,102.80718056147494L99.91318443241235,102.84033026263695L100.41599474015332,102.86129888282333L100.54169731708856,103.37897980559676L100.79310247095904,103.62913994408291L100.91880504789428,103.81995368967625L101.04450762482954,103.90375969574913L101.17021020176477,104.19105105936067L101.29591277870001,104.28927544112189L101.42161535563525,103.92239852513893L101.5473179325705,103.96753875250629L101.79872308644097,103.7375511777166L102.1758308172467,103.91741315563759L102.30153339418194,104.20876802924045L102.42723597111718,104.43852556652104L102.55293854805242,103.58448207867872L102.8043437019229,103.8317651560563L103.0557488557934,104.15518782583192L103.30715400966388,104.71981283389519L103.55855916353435,105.63155035605358L103.80996431740483,105.90769709180121L103.93566689434009,105.40422783982508L104.06136947127533,105.17374449249803L104.18707204821057,104.691049120471L104.3127746251458,105.07663472969912L104.56417977901629,105.06132273899537L104.68988235595153,105.42272837314457L104.94128750982202,105.54121904131642L105.06699008675726,105.95859968012154L105.1926926636925,105.61153694425836L105.44409781756298,105.19405204312775L106.07261070223919,105.46805636940545L106.32401585610967,105.8811244576965L106.44971843304491,105.86077131729189L106.70112358691539,105.94444596011807L106.82682616385063,105.6507724066859L106.95252874078588,105.67706868166323L107.07823131772113,105.41946123531055L107.20393389465637,105.82805205407278L107.32963647159161,106.22079163336805L107.45533904852685,106.46259726251307L107.58104162546209,106.53531415752951L107.70674420239733,106.34136439072657L107.83244677933259,106.83246620878622L108.33525708707354,106.9916156153876L108.46095966400878,106.69381163430693L108.71236481787926,107.00160126074773L109.089472548685,107.10503909586187L109.59228285642595,107.4269792813836L109.71798543336119,107.38114352058149L109.84368801029645,107.82838203207864L109.96939058723169,107.97267211380358L110.22079574110217,108.34411598637179L110.3464983180374,108.82783407002607L110.47220089497264,109.16431798899484L110.59790347190788,109.19376087324068L110.72360604884312,108.60576481933177L110.84930862577838,108.4675879025084L111.2264163565841,108.17018495529175L111.35211893351934,108.84255525625156L111.60352408738981,109.19416558818932L111.85492924126031,109.10818013961664L112.10633439513079,109.11130151723826L112.35773954900127,108.80695170635204L112.60914470287175,109.15857400672185L112.73484727980698,109.51969296103442L112.86054985674224,109.10363288399554L112.98625243367748,108.75279297443203L113.11195501061272,108.92148675149194L113.23765758754796,108.87443309467268L113.3633601644832,109.10549284791318L113.48906274141844,109.00456612555382L113.61476531835368,109.32913346116223L113.86617047222417,109.74816525854226L114.11757562609465,109.66091021174677L114.24327820302989,110.22411525526381L114.49468335690037,110.26491520298048L114.74608851077086,110.74781957878777L114.8717910877061,110.84657130441245L114.99749366464134,111.02706513651701L115.12319624157658,111.21830899435024L115.24889881851182,111.19395331574212L115.37460139544706,110.85070875458308L115.5003039723823,110.8226621966385L115.62600654931754,110.87680818156934L115.75170912625279,110.96502482972144L115.87741170318803,111.01205149243742L116.00311428012327,111.19179054905125L116.25451943399375,111.42830898576774L116.38022201092899,111.58090448360352L116.63162716479947,111.82310471705587L116.88303231866996,111.99798399807192L117.0087348956052,112.4528272237152L117.13443747254044,112.2079346186526L117.26014004947568,112.29334021616141L117.38584262641092,112.43451496317401L117.6372477802814,113.12812532036739L117.76295035721665,113.08763880895832L118.01435551108713,112.74415502739512L118.14005808802237,112.79758299526362L118.26576066495761,112.42441560844064L118.39146324189285,112.94796221634948L118.51716581882809,112.74104933495809L118.76857097269858,112.66540329864314L118.89427354963382,112.42503128835936L119.01997612656906,112.52148528555522L119.1456787035043,112.47885952416142L119.52278643431002,112.9611232903155L119.77419158818051,112.86957934545757L119.89989416511575,112.90411677090452L120.15129931898623,112.56016876938229L120.27700189592147,112.44671994952365L120.40270447285671,112.55157741044427L120.6541096267272,112.90289714224036L120.77981220366244,112.95828131469412L121.03121735753292,113.67444122474322L121.2826225114034,113.07459996225678L121.91113539607962,112.78103043487248L122.03683797301485,112.61454989370588L122.41394570382057,112.65697186135323L122.53964828075581,112.07534395522498L122.66535085769107,113.03600743651315L122.7910534346263,113.50428282669901L122.91675601156155,113.68684006982072L123.04245858849679,114.17623905602392L123.29386374236726,114.26600907252353L123.54526889623774,114.39349484083085L123.79667405010824,114.4774060726719L124.04807920397872,114.54915876549663L124.42518693478443,114.6064260563807L124.55088951171967,114.87068202563965L124.92799724252541,115.21692060185009L125.05369981946065,115.46678880995L125.17940239639589,115.5243400278006L125.30510497333113,115.41804018218433L125.5565101272016,116.00746126853313L125.68221270413686,116.08932353676275L125.93361785800734,115.62038336043919L126.05932043494258,115.43086385842123L126.18502301187782,115.67982544499239L126.31072558881306,115.25232367618649L126.4364281657483,115.41187974598827L126.81353589655404,115.01733137425093L126.93923847348928,115.13169563110522L127.19064362735976,115.17146566628017L127.316346204295,115.62012523744029L127.44204878123024,115.74463252171472L127.5677513581655,115.87504239060844L127.69345393510073,115.67670654595183L127.81915651203597,116.12144464703798L127.94485908897121,116.29448417909188L128.07056166590647,116.38132687459886L128.1962642428417,115.8457311806763L128.32196681977695,116.11981581508783L128.44766939671217,115.93848413014621L128.57337197364743,116.26574803302157L128.69907455058265,116.17183070421352L128.8247771275179,116.06295065972057L128.95047970445313,116.51417470854008L129.20188485832364,116.7591460935395L129.32758743525886,116.82001686110496L129.7046951660646,117.37739724768528L129.83039774299982,117.12924687497534L130.3332080507408,116.84174663842512L130.7103157815465,117.21949495867054L130.83601835848177,116.92368234660383L131.08742351235225,116.63444483595914L131.2131260892875,116.68988662011363L131.46453124315798,116.5558629687069L131.5902338200932,116.57091039211281L131.71593639702846,116.01119825011108L132.0930441278342,116.0475249965109L132.21874670476942,116.19787769707838L132.4701518586399,116.46455947844349L132.97296216638088,116.64253619880427L133.0986647433161,116.93326968093056L133.3500698971866,117.14307639923322L133.47577247412184,117.31518575830367L133.60147505105707,117.16428579760324L133.72717762799232,117.02772760507887L133.85288020492754,116.87715404160613L133.9785827818628,117.27902359085141L134.10428535879805,117.80671197245437L134.35569051266853,118.40258029042265L134.48139308960376,118.80111696273255L134.607095666539,119.02499790012813L134.73279824347424,119.3379093739636L134.8585008204095,119.17663868131325L134.98420339734474,119.31764505459779L135.10990597427997,118.82292396908294L135.4870137050857,118.97099522044931L135.61271628202093,119.26950402704696L135.73841885895618,119.53407979139186L136.49263432056762,119.18631328946073L136.7440394744381,119.29445093716262L136.86974205137335,119.42461271818146L136.9954446283086,119.4075818036706L137.12114720524383,119.36607912484456L137.24684978217908,119.21989729107955L137.3725523591143,119.07212974722123L137.49825493604956,119.04583884505598L137.6239575129848,119.12338351330695L137.74966008992004,119.193698427469L137.87536266685527,119.06051445066902L138.00106524379052,119.19904928262324L138.12676782072577,119.2618516926824L138.252470397661,119.35937545522975L138.37817297459625,119.72118619584435L138.50387555153148,119.6287200601784L138.62957812846673,119.69280122896562L138.75528070540196,119.11443093151243L139.00668585927247,119.4083231744784L139.1323884362077,119.57927732827079L139.25809101314294,119.6012639930851L139.50949616701342,120.04026886036455L139.7609013208839,119.65551856822049L140.01230647475438,119.75100884769805L140.13800905168964,119.54627914019689L140.51511678249534,119.5228548248837L140.6408193594306,119.43586787250301L140.76652193636582,119.59794838278094L141.01792709023633,120.34039142764095L141.14362966717155,120.16859221074205L141.2693322441068,120.21325266756222L141.52073739797729,120.22122188602916L141.6464399749125,120.42577520399456L141.77214255184776,120.56811728621908L141.89784512878302,120.18890814979018L142.1492502826535,120.6301254148056L142.27495285958872,120.65348197279752L142.40065543652398,120.83315346320711L142.5263580134592,120.99141518327372L142.65206059039446,121.33434768970261L142.77776316732968,121.16124005281236L142.90346574426493,121.50174829902885L143.0291683212002,121.37623986514808L143.1548708981354,121.18582217033043L143.4062760520059,121.61388828667467L143.53197862894115,121.62032452607718L143.65768120587637,121.2098347952026L144.0347889366821,121.35627400147544L144.16049151361736,120.68557247063418L144.28619409055258,120.68948128982392L144.53759924442306,120.96710415368446L144.66330182135832,120.78518054959312L144.78900439829354,120.88949607252695L144.9147069752288,120.7827180387543L145.16611212909928,121.28053050549256L145.29181470603453,121.81429409550447L145.41751728296975,122.02459902800517L145.543219859905,122.22768084309138L145.66892243684023,122.29967796767909L145.92032759071074,121.97701801891489L146.17173274458122,121.98005119842873L146.4231378984517,121.9525326291289L146.54884047538692,122.11783200345307L146.67454305232218,122.2825518848772L147.0516507831279,122.44501433274452L147.55446109086887,122.68819294173251L147.6801636678041,122.45444959001121L147.80586624473935,122.87151922384132L147.9315688216746,122.25209219374716L148.05727139860983,122.25507828279811L148.3086765524803,122.07382222706511L148.43437912941556,122.25750501634396L148.8114868602213,122.41217351597088L148.93718943715652,122.4488277095061L149.188594591027,122.73523250569002L149.43999974489748,122.82786318963235L149.56570232183273,122.98020305805157L149.94281005263846,122.68011082665363L150.19421520650894,123.19003917111768L150.31991778344417,123.22592706267523L150.44562036037942,123.37393916885705L150.57132293731465,123.02703342574878L150.6970255142499,122.51955125823253L150.82272809118516,122.20310317620121L150.94843066812038,122.10248654437683L151.07413324505563,121.89375090223821L151.19983582199086,121.87808623845262L151.3255383989261,121.86908066311813L151.45124097586134,121.90286634166605L151.5769435527966,121.77301994066649L151.70264612973182,121.99032064485621L151.82834870666707,121.87699868890115L152.2054564374728,122.49521790406578L152.33115901440803,122.79098243581447L152.5825641682785,122.1865530909002L152.83396932214902,122.10337883229099L152.95967189908424,122.17874224007971L153.0853744760195,122.25072474010491L153.21107705295472,122.35397994733245L153.33677962988997,122.83479662007117L153.4624822068252,122.91802186566048L153.58818478376045,122.73105980917816L153.7138873606957,122.74193456312241L153.83958993763093,122.24169636388973L154.0909950915014,122.66191590406268L154.21669766843667,122.8093621196904L154.3424002453719,122.93607490917553L154.46810282230715,122.72696200360338L154.59380539924237,122.85619876776968L154.84521055311288,122.71453533488548L154.9709131300481,122.66131366961906L155.09661570698336,122.90010249979599L155.22231828391858,122.69920686174197L155.34802086085384,122.89840333600716L155.47372343778906,123.19243952443694L155.59942601472432,122.94763946228761L155.7251285916596,122.8340365677551L155.85083116859482,123.1915451115839L155.97653374553008,123.3738590973316L156.1022363224653,123.4058621193042L156.22793889940056,123.51595640043126L156.35364147633578,123.1944164639292L156.7307492071415,123.07477267347895L156.982154361012,122.94489403619875L157.23355951488247,123.16002351098868L157.6106672456882,122.924912739404L157.73636982262346,123.31259019047407L157.86207239955868,123.75870592848435L157.98777497649394,123.9730755202484L158.11347755342916,123.79688226655014L158.23918013036442,123.64299279990628L158.36488270729964,123.11720172045634L158.4905852842349,122.67655225773532L158.61628786117015,123.09128311939597L158.74199043810538,123.45738726817265L158.86769301504063,123.5584810798815L158.99339559197585,123.60723760769093L159.1190981689111,123.43566917249768L159.4962058997168,123.68543623766283L159.62190847665207,123.9604385252769L159.74761105358732,124.44414398187709L159.9990162074578,124.25672242445089L160.12471878439302,124.33715890277718L160.3761239382635,124.41149892126077L160.50182651519876,123.7072515105965L160.627529092134,123.53313283927287L160.75323166906924,123.91854388781411L160.8789342460045,123.64780308259425L161.00463682293972,123.67141193517583L161.38174455374545,123.90384974159954L161.5074471306807,123.57593595173802L161.63314970761593,123.25080317545681L162.1359600153569,123.69820709946251L162.26166259229214,123.5568434356313L162.51306774616262,122.97961512087389L162.63877032309787,122.78344819527459L162.7644729000331,122.81684697899173L162.89017547696835,123.36537445149979L163.14158063083883,123.55482901351485L163.3929857847093,123.96298163697796L163.51868836164456,124.29523634807265L163.6443909385798,124.50978143104115L163.89579609245027,124.99902114190053L164.02149866938552,125.05685043151504L164.14720124632075,125.43853580607424L164.272903823256,125.47316206708915L164.39860640019123,125.4230129154719L164.52430897712648,125.35328459266302L164.65001155406173,125.35299694201571L164.77571413099696,125.34331407762629L165.1528218618027,125.55319106455899L165.27852443873792,125.74970991530498L165.52992959260843,125.60586313972556L165.65563216954365,125.36953667818135L165.7813347464789,125.43109575624919L165.90703732341413,125.39467053150148L166.03273990034938,125.59476540212535L166.1584424772846,125.63918108266319L166.4098476311551,125.4104129810891L166.53555020809034,125.34349480609583L166.6612527850256,125.18549676957639L166.78695536196082,125.13207177361102L166.91265793889607,125.36588592089568L167.0383605158313,125.61082842560488L167.16406309276655,125.35419380555412L167.28976566970178,125.34498467438647L167.6668734005075,125.32653843545143L167.79257597744277,125.49196049708996L168.04398113131325,125.55697967813049L168.16968370824847,125.2397864184603L168.29538628518372,125.70251544297902L168.42108886211898,125.98986793436733L168.67249401598946,125.75954521870901L168.92389916985994,125.81100265893517L169.04960174679516,125.79547057144637L169.17530432373042,125.66542122956783L169.30100690066564,125.78461428704719L169.4267094776009,125.8642297612337L169.55241205453615,125.64883766066711L169.67811463147137,125.87179135466147L169.80381720840663,125.87529536432692L170.0552223622771,126.17443479520189L170.18092493921233,126.20959086382481L170.30662751614759,126.16542227983457L170.55803267001806,126.28929414033661L170.80943782388854,126.72155987049761L170.9351404008238,126.5647462536945L171.06084297775902,126.56799420173067L171.18654555469428,126.68700042771749L171.3122481316295,126.71715904291923L171.43795070856476,126.8641740500834L171.68935586243524,127.27497996780414L171.8150584393705,127.07601678810346L171.94076101630571,127.20579217962782L172.1921661701762,126.69672129144593L172.31786874711145,126.1657482323869L172.56927390098193,126.42072839537344L172.94638163178766,125.6256870697732L173.19778678565814,125.64058378315855L173.32348936259336,125.53780668783213L173.44919193952862,125.74769521349705L173.82629967033435,125.85956443959684L173.95200224726958,125.82708695406174L174.20340740114005,126.08099204114997L174.3291099780753,126.29334355274213L174.5805151319458,126.53342805483152L174.70621770888104,126.41462761237835L174.83192028581627,125.98953623108844L175.08332543968675,125.92919354116117L175.209028016622,126.0130240007508L175.58613574742773,125.86592421831148L175.71183832436296,126.34667610627939L175.96324347823344,126.50658011349219L176.0889460551687,126.64269110430803L176.21464863210392,126.57312367744701L176.34035120903917,126.57438682712288L176.59175636290965,126.33478262480648L176.7174589398449,126.67658029451104L176.84316151678013,126.55408137787927L176.96886409371538,126.7716562876887L177.22026924758586,126.37521345794278L177.47167440145634,126.37811374042408L177.72307955532682,126.37471844915831L177.84878213226207,126.23174862623728L177.9744847091973,125.20690114148988L178.10018728613255,125.3088600619179L178.22588986306778,125.32503043090126L178.72870017080876,125.82506001509346L178.854402747744,126.00340692803695L178.98010532467924,126.48006355358623L179.10580790161447,126.55922278472329L179.23151047854972,126.88780716326349L179.4829156324202,127.09936970379866L179.60861820935546,127.00273917310982L179.73432078629068,127.15230549990093L179.86002336322593,127.41517629838957L179.98572594016116,127.08435364737888L180.1114285170964,127.30188989358405L180.23713109403164,127.09252011228133L180.3628336709669,127.26193782084289L180.48853624790215,127.02652671205058L180.61423882483737,126.49619016982984L180.86564397870785,126.92576543749396L180.9913465556431,126.90191879434514L181.11704913257833,126.99152574213574L181.24275170951358,127.14869643098007L181.36845428644884,127.15969985707503L181.49415686338406,127.21410739598308L181.61985944031932,127.0644943328129L181.8712645941898,127.47303914452493L181.99696717112502,127.65674601363757L182.12266974806028,127.81050685974552L182.24837232499553,127.62069874702539L182.37407490193075,127.70373616120148L182.499777478866,127.88209475348833L182.7511826327365,127.87883977813436L182.8768852096717,128.044056941998L183.3796955174127,128.28268762743036L183.50539809434792,127.4900795191854L183.7568032482184,127.76413311579844L183.88250582515366,127.81684382747005L184.00820840208888,127.8266055114508L184.13391097902414,127.53414602313677L184.2596135559594,127.73907115288449L184.38531613289462,127.74325973775228L184.51101870982987,127.50677145695349L184.76242386370035,127.31627475800127L184.88812644063557,127.21644908551875L185.01382901757083,127.44869971490364L185.13953159450605,126.56140537200957L185.39093674837656,126.95011395229187L185.5166393253118,127.43087013185252L185.64234190224704,127.76684838948798L185.76804447918227,127.83186898412146L185.89374705611752,128.0954630809639L186.01944963305274,128.31991173680868L186.64796251772896,128.41851076772505L186.7736650946642,128.32439294352415L186.89936767159944,128.25529282364968L187.0250702485347,127.9606665660107L187.15077282546991,127.92705920746403L187.27647540240517,128.02289810948025L187.52788055627565,127.76323948407918L187.77928571014613,126.6075918140931L188.15639344095186,126.9405885944281L188.2820960178871,126.62768780185195L188.40779859482234,127.08781597174473L188.5335011717576,127.22002783281235L188.9106089025633,127.51246056315293L189.03631147949855,127.74720447879355L189.28771663336903,128.17421174140452L189.41341921030428,128.13768073017317L189.5391217872395,128.08126136202057L189.66482436417476,127.85824066073364L189.91622951804524,128.02571884198662L190.04193209498047,128.04700569377806L190.16763467191572,128.2311430028377L190.29333724885097,128.16887644034557L190.4190398257862,128.27477526757446L190.54474240272145,128.5002354174967L190.67044497965668,128.54683837359661L190.79614755659193,128.71454801248726L190.92185013352716,128.8572160930578L191.17325528739767,129.23398868038424L191.2989578643329,129.316481723263L191.55036301820337,129.16537158213453L191.80176817207385,128.9523488480135L191.9274707490091,128.4265254036969L192.17887590287958,128.7296742974391L192.43028105675006,128.8153845885204L192.55598363368532,128.87038728268996L192.68168621062054,129.17824868758962L192.8073887875558,128.57986749531017L193.18449651836153,128.53912279536937L193.31019909529675,128.86026257024872L193.435901672232,128.94581212379035L193.56160424916723,129.20702396856032L193.8130094030377,129.55354818856085L193.93871197997296,129.48209253237246L194.0644145569082,129.56276552024735L194.19011713384344,129.74819465845832L194.3158197107787,129.37405725227984L194.69292744158443,129.42765782430166L194.9443325954549,128.96392436905862L195.07003517239016,129.4099743062837L195.32144032626064,129.48470242006698L195.4471429031959,129.6010275425461L195.69854805706638,129.74220997878012L195.8242506340016,129.60070693008674L195.94995321093685,129.63187761846447L196.0756557878721,129.78298948244384L196.3270609417426,130.2268313129843L196.4527635186778,129.9369868477051L196.57846609561307,129.7716876507039L196.82987124948355,129.940120850908L196.9555738264188,129.89714580971818L197.08127640335402,130.0738146284557L197.20697898028928,129.3841432534025L197.45838413415976,129.13974558357614L197.58408671109498,129.08342125381517L197.83549186496546,129.28738358757585L198.2125995957712,128.9763777950772L198.46400474964167,129.51951073502002L198.58970732657693,129.66291810074847L198.71540990351215,129.79235255716952L198.8411124804474,129.3339358749032L199.0925176343179,129.4852369355029L199.34392278818837,129.72123119984388L199.46962536512362,129.7192911326409L199.59532794205884,129.98067858356436L199.7210305189941,129.82211856447427L199.84673309592932,129.9013190988684L199.97243567286458,129.40014817221487L200.09813824979983,129.79214149826342L200.22384082673506,129.81005937686228L200.3495434036703,129.5821129856551L200.72665113447601,129.28858089805055L200.85235371141127,129.1617002803082L200.97805628834652,129.52021123632198L201.6065691730227,129.0501562646617L201.73227174995796,129.09485831843062L201.85797432689318,129.0086808772701L201.98367690382844,129.4887019851635L202.23508205769892,129.40394451732192L202.36078463463417,129.52123040644L202.4864872115694,129.8557167003293L202.61218978850465,129.73505578984896L202.73789236543988,129.70285566140808L203.3664052501161,129.05550271042645L203.49210782705134,129.14512429327527L203.61781040398657,129.05897704090947L203.74351298092182,128.8890934051035L203.86921555785707,128.92830389010226L203.9949181347923,128.89334991605705L204.24632328866278,129.36832619362988L204.37202586559803,129.40885754415552L204.49772844253326,129.44981333894043L204.6234310194685,129.80135047965797L204.74913359640374,129.37355232387057L204.874836173339,129.3892436788476L205.00053875027425,129.39409247768447L205.12624132720947,129.62712361727372L205.25194390414472,129.78045081236849L205.5033490580152,130.01201139519694L205.62905163495043,130.3131443509068L205.75475421188568,130.57792257277615L205.88045678882094,130.85136594996882L206.00615936575613,131.09567883236195L206.1318619426914,130.92587524737334L206.2575645196266,130.93392348611346L206.5089696734971,131.00219030313104L206.76037482736757,131.03450709462624L207.01177998123808,130.96356709878614L207.1374825581733,130.65740040721687L207.26318513510856,130.64082966866138L207.51459028897904,130.4468769217554L207.76599544284952,130.72910112357144L207.89169801978474,130.87363214810154L208.14310317365525,131.119660170001L208.39450832752573,130.87111340894245L208.52021090446095,130.95475847364065L208.6459134813962,131.1283562879348L208.89731863526669,130.69573800417447L209.27442636607242,130.74124309354096L209.40012894300764,130.53128764890087L209.77723667381338,130.48174163207608L209.9029392507486,130.69758587041974L210.02864182768386,130.9548229984066L210.4057495584896,130.74732344460995L210.53145213542481,130.7119668738905L210.7828572892953,130.59863205059943L210.90855986623055,130.82476988486175L211.0342624431658,130.82551858174224L211.15996502010103,130.82066620846115L211.28566759703628,130.63147502727531L211.4113701739715,130.59564127787283L211.53707275090676,130.7958748195652L211.66277532784198,131.0537571385417L211.78847790477724,130.81411535239002L211.9141804817125,130.61711292700673L212.16558563558297,130.2236031011248L212.2912882125182,130.45269459357635L212.41699078945345,130.38774952153472L212.79409852025915,130.56639433543606L212.9198010971944,130.61469537766868L213.1712062510649,130.80821873975606L213.29690882800014,130.74713613513015L213.42261140493537,131.05520891977343L213.54831398187062,131.1702113229377L213.7997191357411,131.2070086011143L213.92542171267635,131.22425860850885L214.17682686654683,130.7436617983237L214.30252944348206,131.0572252875147L214.4282320204173,131.27399019215576L214.55393459735254,131.40885540694757L214.6796371742878,131.3742843214365L214.80533975122302,131.00800297841909L214.93104232815827,131.1098862495839L215.05674490509352,130.91863115176614L215.18244748202875,131.01423852182882L215.308150058964,131.16543257302203L215.43385263589923,131.10309260018423L215.55955521283448,131.20157711282835L215.6852577897697,131.42497753900642L215.81096036670496,131.21534805131765L216.06236552057544,131.41175658853422L216.1880680975107,131.52904209814048L216.31377067444592,131.62605434528L216.43947325138117,131.79977419519622L216.69087840525165,131.96611138387172L216.81658098218688,131.52719104082323L217.31939128992786,131.41220929763386L217.69649902073357,131.5811737814417L217.94790417460408,131.5526228904269L218.0736067515393,131.54298835689104L218.19930932847456,131.7587398428156L218.32501190540978,131.56038655379962L218.45071448234503,131.56122298721766L218.7021196362155,131.5757881185657L218.82782221315077,131.61680109942216L218.953524790086,131.42651268817613L219.07922736702125,131.55496411855336L219.20492994395647,131.13172648350115L219.45633509782695,131.50183393966412L219.5820376747622,131.35058734671145L219.70774025169743,131.63437595737088L219.83344282863268,131.56908646458092L219.95914540556794,131.88471493638866L220.08484798250316,131.72845404570282L220.21055055943842,131.85096083649069L220.33625313637364,131.9480931670378L220.4619557133089,131.4569091520461L220.58765829024412,131.60353351674982L220.71336086717938,131.85606096805364L220.96476602104985,131.42427865626485L221.0904685979851,131.48380779568632L221.3418737518556,131.69012955507182L221.4675763287908,131.55091043983657L221.59327890572607,131.65697158687874L221.84468405959655,131.6562307166866L221.9703866365318,131.93761229754065L222.09608921346702,132.139064232325L222.22179179040228,132.08176771042744L222.3474943673375,132.163853014142L222.47319694427276,131.69658944324812L222.97600725201372,131.7923505583158L223.2274124058842,131.43310900454196L223.60452013668993,131.4840722688359L223.73022271362515,131.63571034434744L223.8559252905604,131.58770859978102L223.98162786749566,131.64668602605636L224.1073304444309,131.39671089022823L224.23303302136614,131.36702221297574L224.48443817523665,131.61797641765472L224.6101407521719,131.86081995149237L224.73584332910713,131.9864212218341L224.86154590604238,132.23177350747972L224.9872484829776,132.5302024043006L225.11295105991286,132.3799556850471L225.23865363684808,132.0574279428824L225.36435621378334,132.3183815147074L225.49005879071856,132.1280638761445L225.61576136765382,132.17426340149572L225.8671665215243,131.8095936045675L225.99286909845955,131.66140781851013L226.11857167539478,131.91336319819644L226.36997682926525,131.81115215792667L226.4956794062005,131.87474042166784L226.62138198313576,132.02605504620047L226.747084560071,131.8415335066386L226.87278713700624,132.0894789658824L226.99848971394147,132.2846756728L227.24989486781195,132.37620947413532L227.3755974447472,132.24919596428072L227.50130002168243,132.39818834162244L227.62700259861768,132.29496776885614L227.75270517555293,132.541236311362L227.87840775248816,132.78047213331516L228.0041103294234,132.29662237400873L228.2555154832939,131.95506166817574L228.38121806022912,132.06712986207128L228.50692063716437,132.3700308998918L228.63262321409962,132.31951653245847L228.75832579103485,132.68307918726384L228.8840283679701,132.57518861876179L229.00973094490533,132.24870930895L229.13543352184058,131.96880694003877L229.2611360987758,132.03470875098165L229.5125412526463,132.1980928969964L229.63824382958154,132.2090770733818L229.88964898345202,132.32219661102332L230.39245929119298,132.4549244250594L230.51816186812823,132.39944101646353L230.7695670219987,132.36408009024336L230.89526959893396,132.20212688785455L231.0209721758692,132.42726405689183L231.27237732973967,132.6352985422979L231.52378248361015,131.9575600873191L231.6494850605454,132.1875885048277L231.77518763748066,132.21109033350132L232.02659279135113,132.38260590982617L232.15229536828636,132.53620352432992L232.2779979452216,132.71217275481484L232.40370052215684,132.25154014592505L232.65510567602735,132.61076035142648L232.78080825296257,132.53823578559778L232.90651082989783,132.48244755493423L233.03221340683305,132.81245147630193L233.1579159837683,132.95737383531622L233.40932113763878,132.8325277690226L233.53502371457404,132.67802321840531L233.66072629150926,132.59473044104337L233.91213144537974,132.57721811948986L234.037834022315,132.1961658302468L234.4149417531207,132.156262649666L234.6663469069912,132.27804009201452L234.79204948392643,132.5479055633996L235.0434546377969,132.64692173053874L235.16915721473217,132.59880700699458L235.2948597916674,132.52420800207997L235.42056236860265,132.50215700327095L235.5462649455379,132.7218015227093L235.67196752247312,132.72816127899767L235.79767009940838,132.56430112045152L235.9233726763436,132.69373098368357L236.17477783021408,132.25989995693135L236.30048040714934,132.3058976232678L236.42618298408456,132.67054594748268L236.55188556101982,132.62254622869528L236.67758813795507,132.65438608834512L236.8032907148903,132.74470484083088L236.92899329182555,132.74168647353628L237.18039844569603,132.8881215122988L237.30610102263125,132.90765484506687L237.4318035995665,133.16272097165896L237.55750617650176,133.38212101410107L237.683208753437,133.2494014532487L237.80891133037224,132.84740815487172L238.18601906117794,132.74270889973008L238.43742421504842,132.64591732794773L238.56312679198368,132.66741226622383L238.68882936891893,133.0564402032546L238.81453194585416,132.9942982070846L238.9402345227894,133.02345003850098L239.06593709972464,133.04981030998334L239.1916396766599,132.515466757012L239.31734225359511,132.95018650138874L239.44304483053037,132.84099459651708L239.56874740746562,133.0538058614147L239.94585513827133,133.26335225271026L240.07155771520658,133.1558939308339L240.4486654460123,133.28802421721355L240.57436802294754,133.60985363138283L240.7000705998828,133.4137436144103L240.82577317681802,133.34595884693698L240.95147575375327,133.3428826949476L241.0771783306885,133.35478334213263L241.32858348455898,133.2762474985762L241.45428606149423,133.00182296874533L241.57998863842948,133.17578585572147L241.7056912153647,133.202043668147L241.83139379229996,133.2367073673368L241.9570963692352,133.46837742253803L242.08279894617044,133.5300643160047L242.33420410004092,133.50281379585914L242.45990667697617,133.22861008389188L242.5856092539114,132.9113237490616L242.83701440778188,133.1548236059768L242.96271698471713,132.5768714251173L243.08841956165236,132.90404987956623L243.33982471552284,132.67800704766563L243.4655272924581,132.51405678988914L243.71693244632857,132.7638727618473L243.84263502326382,132.80379348956168L243.96833760019905,133.07729873702723L244.0940401771343,133.21448147891553L244.21974275406953,133.05211201457024L244.34544533100478,133.10525888723242L244.59685048487526,132.99293613622174L244.72255306181052,133.26741360983664L245.09966079261622,133.03561761255293" style="fill: none;" fill="none"></path></g></g></g></g><g opacity="0.20000000298023224"><g><g><g><path stroke="rgb(255, 112, 67)" stroke-width="2px" d="M73.51564327601166,-7.371235614788475L73.6413458529469,5.727545693376186L73.76704842988214,11.759491926973766L73.89275100681738,0.607135521447077L74.01845358375262,32.57167817650301L74.2698587376231,40.703285966070155L74.64696646842883,11.170960345245959L74.77266904536407,33.58685737167036L75.02407419923455,17.628572605179897L75.14977677616979,11.408208390012561L75.27547935310503,27.72389992729842L75.40118193004028,31.176032703989108L75.52688450697552,3.7280060219321456L75.65258708391076,39.82665077918182L75.90399223778124,52.837112619180786L76.02969481471648,41.66157985149539L76.40680254552221,59.08277217818987L76.53250512245745,40.23555971139942L76.65820769939269,35.05795261477482L76.78391027632793,34.272270042408365L76.90961285326317,49.593746280516456L77.2867205840689,41.42735447177671L77.41242316100414,56.32346850812799L77.53812573793938,58.435049336064864L77.66382831487462,40.23751509523197L77.78953089180986,60.58840214850423L77.9152334687451,45.13312623978254L78.04093604568034,52.84137395366844L78.16663862261558,59.87840305794339L78.29234119955083,60.41868106413811L78.41804377648607,63.32420226070636L78.66944893035655,53.58602462704668L78.79515150729179,45.9904568803081L78.92085408422703,58.63198998660994L79.04655666116227,41.59423986006692L79.29796181503276,57.89001920183087L79.54936696890324,58.88325291390545L79.67506954583848,67.37493178211949L79.92647469970896,59.73664941564441L80.0521772766442,54.928430684773204L80.3035824305147,60.495766813233985L80.42928500744993,70.09086644104275L80.55498758438517,60.92962052247077L80.68069016132041,65.11785014206906L80.80639273825565,67.55095527891798L80.93209531519089,71.14496634388902L81.18350046906137,44.321213478714185L81.30920304599663,65.40601607022026L81.43490562293186,84.34393185956992L81.5606081998671,73.88161560683916L81.81201335373758,68.56399991165459L82.1891210845433,75.71483079690908L82.31482366147856,75.0232169885985L82.4405262384138,76.06868515723578L82.56622881534904,90.29906111196894L82.81763396921951,49.752989312074675L82.94333654615475,84.28176467636779L83.06903912309,57.69073364876151L83.44614685389573,83.89621907528092L83.57184943083097,73.02641173837053L83.94895716163668,88.66568069632375L84.32606489244242,71.8136452916298L84.45176746937766,76.75642714975042L84.5774700463129,73.64858994469104L84.70317262324814,93.18440134511799L84.82887520018338,86.98935584491393L85.20598293098911,92.42783919014624L85.33168550792435,86.51451697893198L85.45738808485959,88.4364723173547L85.58309066179483,86.86705476608057L85.70879323873007,72.486359653017L85.96019839260055,90.24986100601492L86.08590096953579,83.43465500631356L86.46300870034152,84.61508361126582L86.84011643114724,80.97313837608893L86.96581900808248,93.06277413362135L87.21722416195297,91.60279964916616L87.46862931582345,88.42886112211805L87.5943318927587,88.64232905075377L87.72003446969394,90.64172460028185L87.84573704662918,91.89227825530853L87.97143962356442,84.90222121007083L88.09714220049968,83.36137875002294L88.34854735437015,99.19201434604241L88.4742499313054,94.59935915436849L88.59995250824063,92.91859768505972L88.72565508517587,87.54117139475807L88.97706023904635,93.58451494527603L89.1027628159816,77.97899388677538L89.22846539291685,91.72841942725316L89.47987054678732,97.69268678816044L89.60557312372256,87.28546795437668L89.7312757006578,90.47423156283251L89.98268085452828,93.82931965266245L90.10838343146354,93.66230961839088L90.35978858533402,85.5856784969763L90.48549116226926,102.1208404459376L90.73689631613973,96.62220762432639L90.86259889307497,89.80027853200556L90.98830147001021,98.54928513354554L91.2397066238807,100.41769723260131L91.36540920081595,96.0917922314066L91.74251693162167,96.91464267733909L91.8682195085569,90.62774866962212L91.99392208549214,96.38037104937105L92.1196246624274,94.88684342480914L92.37102981629788,96.03373447040236L92.49673239323312,96.50130881278331L92.7481375471036,100.6360302496969L92.99954270097408,89.90911394966537L93.12524527790933,97.60944274854813L93.25094785484457,101.99949758308594L93.37665043177981,104.56426782811772L93.62805558565029,92.9834135953657L93.75375816258553,104.02353018986673L94.13086589339126,93.35178531733364L94.63367620113222,102.3217152352693L94.75937877806746,97.47660129391622L95.13648650887319,99.83715857442807L95.26218908580843,105.40856517321757L95.51359423967891,100.20847505770558L95.63929681661415,97.39603324771618L95.76499939354939,101.87303644462477L95.89070197048463,103.3574064847438L96.01640454741988,102.71939823879087L96.3935122782256,103.67705720874858L96.51921485516084,108.87583075108247L96.64491743209608,105.80097798883986L96.77062000903132,102.81606119733372L97.14772773983705,95.49167636378637L97.27343031677229,98.16804371400242L97.39913289370753,104.01816262229454L97.52483547064277,100.06785491479958L97.65053804757801,103.50905390181306L97.77624062451325,110.16613478860148L98.02764577838374,100.10809998603042L98.15334835531898,101.7895119515544L98.27905093225422,100.6004009749632L98.5304560861247,102.8011465266269L98.65615866305994,107.46258682407564L98.78186123999518,106.46209637877391L98.90756381693042,107.193168430558L99.03326639386567,103.43627622944787L99.15896897080091,105.52640236784356L99.28467154773615,98.46790299327975L99.53607670160663,106.13871796088917L99.66177927854187,103.44557793580667L99.91318443241235,103.23217622534855L100.41599474015332,103.10915843212238L100.54169731708856,109.49822708787038L100.79310247095904,106.58615808209395L100.91880504789428,106.07546791572399L101.04450762482954,104.89438881455654L101.17021020176477,107.58697961828366L101.29591277870001,105.45033715772006L101.42161535563525,99.58572815409512L101.5473179325705,104.5011190578124L101.79872308644097,101.01898165629676L102.1758308172467,106.04347285038425L102.30153339418194,107.65273037344981L102.42723597111718,107.15437626404736L102.55293854805242,93.48925425402345L102.8043437019229,106.75477682856241L103.0557488557934,107.97820829708306L103.30715400966388,111.39396781833882L103.55855916353435,116.40875220662807L103.80996431740483,109.17189222311531L103.93566689434009,99.45296460320155L104.06136947127533,102.44931376831035L104.18707204821057,98.9853435185776L104.3127746251458,109.63445345993352L104.56417977901629,104.88032718978462L104.68988235595153,109.6947275822938L104.94128750982202,106.9418392850849L105.06699008675726,110.89225216262662L105.1926926636925,101.50907796943427L105.44409781756298,100.25916702024897L106.07261070223919,108.70692765596903L106.32401585610967,110.76380058365065L106.44971843304491,105.62018678325444L106.70112358691539,106.9335230610162L106.82682616385063,102.1794006860542L106.95252874078588,105.98790411382025L107.07823131772113,102.37440932388823L107.20393389465637,110.65780475725364L107.32963647159161,110.86317459228803L107.45533904852685,109.32086364677228L107.58104162546209,107.39486510432926L107.70674420239733,104.04877879146551L107.83244677933259,112.63754129840947L108.33525708707354,108.8728431427168L108.46095966400878,103.17361598523196L108.71236481787926,110.63983236481664L109.089472548685,108.32772731437065L109.59228285642595,111.23247726392924L109.71798543336119,106.83934133653975L109.84368801029645,113.11497046369152L109.96939058723169,109.67825483681999L110.22079574110217,112.73477295424227L110.3464983180374,114.54562977140617L110.47220089497264,113.14173039781423L110.59790347190788,109.54179085835487L110.72360604884312,101.65535002855748L110.84930862577838,106.83426590798634L111.2264163565841,104.65472964908804L111.35211893351934,116.79031692668534L111.60352408738981,113.3503799802331L111.85492924126031,108.09178805240829L112.10633439513079,109.1481978010966L112.35773954900127,105.20938089500805L112.60914470287175,113.31492988409761L112.73484727980698,113.7883041597986L112.86054985674224,104.18558944156628L112.98625243367748,104.60568535061071L113.11195501061272,110.91553369483208L113.23765758754796,108.31823474385288L113.3633601644832,111.8367376104296L113.48906274141844,107.8115605151948L113.61476531835368,113.1656857973564L113.86617047222417,114.70133597324337L114.11757562609465,108.62951081598517L114.24327820302989,116.88148767167462L114.49468335690037,110.74719150663475L114.74608851077086,116.45599692874956L114.8717910877061,112.01386734031264L114.99749366464134,113.16059478805533L115.12319624157658,113.47890946294741L115.24889881851182,110.90605670506199L115.37460139544706,106.79338202610103L115.5003039723823,110.4911374994308L115.62600654931754,111.51684148964904L115.75170912625279,112.00779084872147L115.87741170318803,111.567930761258L116.00311428012327,113.31639836956548L116.25451943399375,114.2240781961857L116.38022201092899,113.38466152029336L116.63162716479947,114.6860356790317L116.88303231866996,114.06514677958086L117.0087348956052,117.82930739947892L117.13443747254044,109.3131784429842L117.26014004947568,113.30287817577509L117.38584262641092,114.10327286912863L117.6372477802814,121.32695543529974L117.76295035721665,112.60906748204309L118.01435551108713,108.68400058577305L118.14005808802237,113.42912897414271L118.26576066495761,108.01338573013433L118.39146324189285,119.13655160490183L118.51716581882809,110.29523296860576L118.76857097269858,111.77122835685232L118.89427354963382,109.5837108599602L119.01997612656906,113.66162099568315L119.1456787035043,111.97500116525057L119.52278643431002,118.66172831966753L119.77419158818051,111.78748297185874L119.89989416511575,113.31236685110593L120.15129931898623,108.49452700854867L120.27700189592147,111.10569672014084L120.40270447285671,113.79104637138848L120.6541096267272,117.05567653543503L120.77981220366244,113.6129506351499L121.03121735753292,122.13981862197596L121.2826225114034,105.98416862956643L121.91113539607962,109.31088807307675L122.03683797301485,110.6466645226698L122.41394570382057,113.15842127375541L122.53964828075581,105.2002038346306L122.66535085769107,124.39154243242147L122.7910534346263,119.0395380795364L122.91675601156155,115.84476030248007L123.04245858849679,119.9611860464425L123.29386374236726,115.32713670339709L123.54526889623774,115.90044199946468L123.79667405010824,115.46927986438783L124.04807920397872,115.39731239090145L124.42518693478443,115.28335480244522L124.55088951171967,117.99432309804877L124.92799724252541,119.30963813076458L125.05369981946065,118.4203591671423L125.17940239639589,116.20462493622034L125.30510497333113,114.16152149429182L125.5565101272016,122.97472077623098L125.68221270413686,117.05697752786543L125.93361785800734,110.07726999426733L126.05932043494258,113.19064615512328L126.18502301187782,118.62267907082034L126.31072558881306,110.19903353730608L126.4364281657483,117.29791431464285L126.81353589655404,110.35356728788113L126.93923847348928,116.48353979544267L127.19064362735976,115.64156787693251L127.316346204295,120.9235114503273L127.44204878123024,117.21637247171344L127.5677513581655,117.41655391777383L127.69345393510073,113.3322751514409L127.81915651203597,121.37847707265655L127.94485908897121,118.33990018617592L128.07056166590647,117.40785207020029L128.1962642428417,109.51471541409184L128.32196681977695,119.35963675003667L128.44766939671217,113.79505062353958L128.57337197364743,120.13417519263234L128.69907455058265,115.06167971497449L128.8247771275179,114.775932697899L128.95047970445313,121.84787436251486L129.20188485832364,119.65483349057384L129.32758743525886,117.53954054950464L129.7046951660646,123.96591925314121L129.83039774299982,114.1959822129503L130.3332080507408,113.44334640639131L130.7103157815465,121.6846738210485L130.83601835848177,113.4270255732073L131.08742351235225,113.21550913321721L131.2131260892875,117.34523694050266L131.46453124315798,114.97163467900434L131.5902338200932,116.74877865339789L131.71593639702846,109.39511369979226L132.0930441278342,116.47692576805687L132.21874670476942,117.97512372173277L132.4701518586399,119.6168748940635L132.97296216638088,118.74631230357946L133.0986647433161,120.36988853375348L133.3500698971866,119.62309940275756L133.47577247412184,119.3496066437243L133.60147505105707,115.38057087753035L133.72717762799232,115.41353973959946L133.85288020492754,115.09729730414743L133.9785827818628,122.02932774987624L134.10428535879805,124.0442592524245L134.35569051266853,125.44604938230061L134.48139308960376,123.51202480721425L134.607095666539,121.67138539087972L134.73279824347424,123.03668346211995L134.8585008204095,117.27033639126748L134.98420339734474,120.98441269778127L135.10990597427997,112.97506703517831L135.4870137050857,120.72127334557453L135.61271628202093,122.7980312024696L135.73841885895618,122.66150100582689L136.49263432056762,115.07553489483978L136.7440394744381,120.57269338820274L136.86974205137335,120.96319171945512L136.9954446283086,119.20626766034992L137.12114720524383,118.87549617769591L137.24684978217908,117.49195305093446L137.3725523591143,117.3254416005883L137.49825493604956,118.73506689894884L137.6239575129848,120.04000125852971L137.74966008992004,120.02485677179476L137.87536266685527,117.48621154541817L138.00106524379052,120.83660203982568L138.12676782072577,120.00420838594547L138.252470397661,120.51215634072557L138.37817297459625,123.99797469387818L138.50387555153148,118.53572291807572L138.62957812846673,120.4502735061684L138.75528070540196,112.27779741546364L139.00668585927247,122.88228020030662L139.1323884362077,121.6000430948936L139.25809101314294,119.861157646403L139.50949616701342,125.22953152230855L139.7609013208839,115.10757280723561L140.01230647475438,120.87975292049693L140.13800905168964,117.12626900793953L140.51511678249534,119.24596740541233L140.6408193594306,118.40763748666998L140.76652193636582,121.51382313247636L141.01792709023633,129.1164489579093L141.14362966717155,118.13783736483444L141.2693322441068,120.7411621699749L141.52073739797729,120.31542213508712L141.6464399749125,122.84370032148297L141.77214255184776,122.25067369405247L141.89784512878302,115.70646169097684L142.1492502826535,125.84553975255189L142.27495285958872,120.92956846598389L142.40065543652398,122.95696261907443L142.5263580134592,122.86214987431737L142.65206059039446,125.387985778516L142.77776316732968,119.1150190116223L142.90346574426493,125.52673038892128L143.0291683212002,119.89266581337806L143.1548708981354,118.93498736748575L143.4062760520059,126.67384930294915L143.53197862894115,121.69640417645036L143.65768120587637,116.35763566871069L144.0347889366821,123.08726051664928L144.16049151361736,112.75753642658772L144.28619409055258,120.73568553716899L144.53759924442306,124.24874877521553L144.66330182135832,118.63475025507745L144.78900439829354,122.12255904874485L144.9147069752288,119.52054692159555L145.16611212909928,127.16492915078332L145.29181470603453,128.12365345436297L145.41751728296975,124.51051117884697L145.543219859905,124.62821204193085L145.66892243684023,123.15072090190799L145.92032759071074,118.16301195788176L146.17173274458122,122.0159049357588L146.4231378984517,121.62724902791837L146.54884047538692,124.07175537687459L146.67454305232218,124.22962535504442L147.0516507831279,124.3654037806121L147.55446109086887,125.5626888069495L147.6801636678041,119.6914833042799L147.80586624473935,127.80149617757682L147.9315688216746,114.93014704314683L148.05727139860983,122.29037538670833L148.3086765524803,119.93128269647742L148.43437912941556,124.42872978192214L148.8114868602213,124.24043449874029L148.93718943715652,122.88209907411496L149.188594591027,126.12068407083814L149.43999974489748,123.92280537674566L149.56570232183273,124.78093842577621L149.94281005263846,119.13286675807794L150.19421520650894,129.2176537043979L150.31991778344417,123.65014034493237L150.44562036037942,125.12351816757042L150.57132293731465,118.92642964182818L150.6970255142499,116.5208517909247L150.82272809118516,118.46252456552344L150.94843066812038,120.91314635794002L151.07413324505563,119.42638856824061L151.19983582199086,121.69292187934617L151.3255383989261,121.76263014442043L151.45124097586134,122.30223038809152L151.5769435527966,120.23816889295378L151.70264612973182,124.55892640463712L151.82834870666707,120.53747505568884L152.2054564374728,129.80288606280664L152.33115901440803,126.28707087520291L152.5825641682785,115.04188827024704L152.83396932214902,121.12021644206388L152.95967189908424,123.06957636804415L153.0853744760195,123.1015948045054L153.21107705295472,123.57450944815015L153.33677962988997,128.51829626449546L153.4624822068252,123.90178694813923L153.58818478376045,120.52107242357955L153.7138873606957,122.87047973154029L153.83958993763093,116.3286243165497L154.0909950915014,127.62912636610686L154.21669766843667,124.5522520018541L154.3424002453719,124.43388506180736L154.46810282230715,120.255140222353L154.59380539924237,124.38384359547918L154.84521055311288,121.04000091027984L154.9709131300481,122.03220629300823L155.09661570698336,125.72270892829775L155.22231828391858,120.3245173965393L155.34802086085384,125.25300781385988L155.47372343778906,126.66809805946558L155.59942601472432,120.05397718918944L155.7251285916596,121.49119209648612L155.85083116859482,127.41747943735504L155.97653374553008,125.52890390322119L156.1022363224653,123.78415425082642L156.22793889940056,124.81732726195881L156.35364147633578,119.39364952219964L156.7307492071415,121.66052171456701L156.982154361012,121.40966193911746L157.23355951488247,125.70296422581332L157.6106672456882,120.14578284964627L157.73636982262346,127.89513647107177L157.86207239955868,129.03202272906753L157.98777497649394,126.50703402802344L158.11347755342916,121.71418765232187L158.23918013036442,121.82394038650074L158.36488270729964,116.90208152490706L158.4905852842349,117.46784963428941L158.61628786117015,127.99361458671812L158.74199043810538,127.7849260524301L158.86769301504063,124.7534617772607L158.99339559197585,124.18356476974586L159.1190981689111,121.40764228470078L159.4962058997168,126.63781103358913L159.62190847665207,127.2111065916894L159.74761105358732,130.16179053297176L159.9990162074578,122.04130350205386L160.12471878439302,125.28795932606995L160.3761239382635,125.29023606282318L160.50182651519876,115.3826859640265L160.627529092134,121.4749608526012L160.75323166906924,128.47430012826314L160.8789342460045,120.44750792345704L161.00463682293972,123.950480679794L161.38174455374545,126.65138381240291L161.5074471306807,119.69982679465703L161.63314970761593,119.4075670250556L162.1359600153569,128.98675091911974L162.26166259229214,121.88585243495976L162.51306774616262,116.15648042592096L162.63877032309787,120.46465453626755L162.7644729000331,123.21163773010962L162.89017547696835,129.84925047268473L163.14158063083883,125.79427909271854L163.3929857847093,128.7875549553495L163.51868836164456,128.2226574202432L163.6443909385798,127.04581433484842L163.89579609245027,130.78208541641771L164.02149866938552,125.74042229080476L164.14720124632075,129.95025266945362L164.272903823256,125.88246222934217L164.39860640019123,124.83022422584241L164.52430897712648,124.52906005894776L164.65001155406173,125.34959676385131L164.77571413099696,125.22885765497185L165.1528218618027,128.03404467932756L165.27852443873792,128.0726635100204L165.52992959260843,123.90552048479958L165.65563216954365,122.57603670967164L165.7813347464789,126.15875562776907L165.90703732341413,124.96410569538128L166.03273990034938,127.95998938565344L166.1584424772846,126.16419720389271L166.4098476311551,122.70625670350813L166.53555020809034,124.55248766066262L166.6612527850256,123.31787895328242L166.78695536196082,124.5005609238664L166.91265793889607,128.1296890464915L167.0383605158313,128.50617444280846L167.16406309276655,122.32064098905673L167.28976566970178,125.23612802135321L167.6668734005075,125.10849443162991L167.79257597744277,127.44733409748366L168.04398113131325,126.32553974119944L168.16968370824847,121.49039942594843L168.29538628518372,131.172209809726L168.42108886211898,129.38652174282907L168.67249401598946,123.03701260541447L168.92389916985994,126.41925599083925L169.04960174679516,125.61187333215585L169.17530432373042,124.12817131659315L169.30100690066564,127.19353735109836L169.4267094776009,126.8053254945665L169.55241205453615,123.1027925744825L169.67811463147137,128.50721835290233L169.80381720840663,125.91671455550056L170.0552223622771,129.71041627298038L170.18092493921233,126.62515362370095L170.30662751614759,125.64332696651407L170.55803267001806,127.7535230555018L170.80943782388854,131.83116247573395L170.9351404008238,124.7111288858421L171.06084297775902,126.6063866131328L171.18654555469428,128.09371504771562L171.3122481316295,127.07364934056035L171.43795070856476,128.60196682707524L171.68935586243524,132.13091658496452L171.8150584393705,124.72416997164166L171.94076101630571,128.73980385892875L172.1921661701762,120.67924233114204L172.31786874711145,119.88937438043283L172.56927390098193,129.43472468093222L172.94638163178766,116.22789088767813L173.19778678565814,125.81667057471337L173.32348936259336,124.32292871487101L173.44919193952862,128.2286852219979L173.82629967033435,127.1819160609302L173.95200224726958,125.44318641991632L174.20340740114005,129.08228037826964L174.3291099780753,128.8034473179726L174.5805151319458,129.3713499897857L174.70621770888104,125.01034545927806L174.83192028581627,120.96473810866135L175.08332543968675,125.21591200125177L175.209028016622,127.00394302307954L175.58613574742773,124.12712935409274L175.71183832436296,132.02940996148985L175.96324347823344,128.39672748080258L176.0889460551687,128.2515928162593L176.21464863210392,125.75080101634623L176.34035120903917,126.58931790406064L176.59175636290965,123.50253807947686L176.7174589398449,130.7168040312751L176.84316151678013,125.10608136333455L176.96886409371538,129.343503298513L177.22026924758586,121.68905590633062L177.47167440145634,126.41239656667766L177.72307955532682,126.33458436522169L177.84878213226207,124.54177200145278L177.9744847091973,113.09267830896309L178.10018728613255,126.51406678800286L178.22588986306778,125.51617248478159L178.72870017080876,131.73566612567288L178.854402747744,128.11155889898433L178.98010532467924,132.11438930687387L179.10580790161447,127.49492549124076L179.23151047854972,130.77184302241835L179.4829156324202,129.60014742653496L179.60861820935546,125.86051674624937L179.73432078629068,128.92025618325238L179.86002336322593,130.5224439420628L179.98572594016116,123.17386025979096L180.1114285170964,129.87327988077834L180.23713109403164,124.617661928165L180.3628336709669,129.2645420169164L180.48853624790215,124.24384668247995L180.61423882483737,120.22734027332334L180.86564397870785,132.00356539629271L180.9913465556431,126.62003924327837L181.11704913257833,128.05072581730144L181.24275170951358,129.00653457347337L181.36845428644884,127.28976599629992L181.49415686338406,127.85723240717827L181.61985944031932,125.29599120149368L181.8712645941898,132.30224832912097L181.99696717112502,129.8282554151998L182.12266974806028,129.62803891245719L182.24837232499553,125.3770695171799L182.37407490193075,128.68528098005208L182.499777478866,129.99038478026387L182.7511826327365,127.84036430023235L182.8768852096717,129.99700854561695L183.3796955174127,131.1034247039512L183.50539809434792,118.12104521403342L183.7568032482184,131.00358716807062L183.88250582515366,128.43991147056263L184.00820840208888,127.94199362209493L184.13391097902414,124.07712489204027L184.2596135559594,130.1613912763127L184.38531613289462,127.79277095888179L184.51101870982987,124.71135870187024L184.76242386370035,125.06450608577141L184.88812644063557,126.03645844412262L185.01382901757083,130.19402125712L185.13953159450605,116.07313121626186L185.39093674837656,131.54484870896198L185.5166393253118,133.11365471589008L185.64234190224704,131.7382836912814L185.76804447918227,128.600445756584L185.89374705611752,131.21128048210124L186.01944963305274,130.9730099507688L186.64796251772896,129.58400187676222L186.7736650946642,127.21187199591868L186.89936767159944,127.43849397077456L187.0250702485347,124.47803311032948L187.15077282546991,127.52980299489941L187.27647540240517,129.1557630794669L187.52788055627565,124.69394137356895L187.77928571014613,112.94724371502714L188.15639344095186,130.87678130556725L188.2820960178871,122.92903997165686L188.40779859482234,132.52676690304145L188.5335011717576,128.78283983158593L188.9106089025633,130.96916540128132L189.03631147949855,130.52199794316078L189.28771663336903,133.22165656354957L189.41341921030428,127.70586544356709L189.5391217872395,127.41435549744726L189.66482436417476,125.22202160193176L189.91622951804524,130.00539683064363L190.04193209498047,128.2986271982872L190.16763467191572,130.40774042531189L190.29333724885097,127.43285374011812L190.4190398257862,129.52655371251055L190.54474240272145,131.1652900101672L190.67044497965668,129.09770921364958L190.79614755659193,130.69696194911774L190.92185013352716,130.5436259685198L191.17325528739767,133.68763387929437L191.2989578643329,130.2915917942146L191.55036301820337,127.3791722216156L191.80176817207385,126.43431088827509L191.9274707490091,122.21102263882653L192.17887590287958,132.313049682443L192.43028105675006,129.82852418309713L192.55598363368532,129.5205473342839L192.68168621062054,132.81732837114686L192.8073887875558,121.50669494041747L193.18449651836153,128.05749954735083L193.31019909529675,132.656299396387L193.435901672232,129.957051718218L193.56160424916723,132.2946819285339L193.8130094030377,133.64964217369527L193.93871197997296,128.63745003229954L194.0644145569082,130.51636160769124L194.19011713384344,131.94006216397793L194.3158197107787,124.95156124591372L194.69292744158443,130.06124407307223L194.9443325954549,123.48235711605767L195.07003517239016,134.68251330784156L195.32144032626064,130.36802704709527L195.4471429031959,130.97605014415788L195.69854805706638,131.41105877631568L195.8242506340016,127.92806832886512L195.94995321093685,130.0003311400575L196.0756557878721,131.56920920794357L196.3270609417426,135.47326936116792L196.4527635186778,126.51087662991749L196.57846609561307,127.8177663733309L196.82987124948355,131.93108765332016L196.9555738264188,129.38915878437217L197.08127640335402,132.1621306653273L197.20697898028928,121.23187392264538L197.45838413415976,126.25083979409047L197.58408671109498,128.4176387917688L197.83549186496546,131.6983229686955L198.2125995957712,125.30012983759346L198.46400474964167,135.9396206148568L198.58970732657693,131.35806670589756L198.71540990351215,131.32233420871054L198.8411124804474,123.91521560503706L199.0925176343179,131.2736930620792L199.34392278818837,132.5108044270538L199.46962536512362,129.69635854339538L199.59532794205884,133.0704122983263L199.7210305189941,127.94785782599912L199.84673309592932,130.83751003106576L199.97243567286458,123.47605080843836L200.09813824979983,134.42570363437562L200.22384082673506,130.02185789055667L200.3495434036703,126.88766974600091L200.72665113447601,125.81888109328901L200.85235371141127,127.66190631161047L200.97805628834652,133.7579945881773L201.6065691730227,123.4938654458052L201.73227174995796,129.6232595181095L201.85797432689318,127.99001932919333L201.98367690382844,135.16279764513408L202.23508205769892,128.40206778206638L202.36078463463417,130.90760976242524L202.4864872115694,133.8095162255341L202.61218978850465,128.30878195058094L202.73789236543988,129.3222336303504L203.3664052501161,121.40345885395146L203.49210782705134,130.20449736233442L203.61781040398657,128.04067233986757L203.74351298092182,126.88098171006368L203.86921555785707,129.39179193072835L203.9949181347923,128.48017601772807L204.24632328866278,134.98278937211904L204.37202586559803,129.88795889267666L204.49772844253326,129.9339318362696L204.6234310194685,133.95669975839598L204.74913359640374,124.31675873879381L204.874836173339,129.57472354152492L205.00053875027425,129.45140776649959L205.12624132720947,132.3816711903673L205.25194390414472,131.59285688771928L205.5033490580152,132.74917623324612L205.62905163495043,133.8726903145544L205.75475421188568,133.70773693897522L205.88045678882094,134.0836068957592L206.00615936575613,133.9835823909066L206.1318619426914,128.91870979404615L206.2575645196266,131.02905779532367L206.5089696734971,131.80913908890284L206.76037482736757,131.41650814281317L207.01177998123808,130.12501996847126L207.1374825581733,127.03835310430809L207.26318513510856,130.44495504112098L207.51459028897904,128.1542559903797L207.76599544284952,134.06513591939677L207.89169801978474,132.58206297652123L208.14310317365525,134.02783755706895L208.39450832752573,127.93316323335313L208.52021090446095,131.94348603327833L208.6459134813962,133.18037147741177L208.89731863526669,125.5819680345973L209.27442636607242,131.2791365857963L209.40012894300764,128.04950662379628L209.77723667381338,129.89608230499297L209.9029392507486,133.24897545699494L210.02864182768386,133.995497767687L210.4057495584896,128.29457230870617L210.53145213542481,130.29403407641183L210.7828572892953,129.2589563188768L210.90855986623055,133.4978350539624L211.0342624431658,130.83436856281688L211.15996502010103,130.76330866788226L211.28566759703628,128.39513824454028L211.4113701739715,130.1720679836534L211.53707275090676,133.16273796623656L211.66277532784198,134.10205839618703L211.78847790477724,127.9814265468535L211.9141804817125,128.2884432320916L212.16558563558297,125.57211515928967L212.2912882125182,133.16067351717032L212.41699078945345,129.6200654648372L212.79409852025915,132.67806764847504L212.9198010971944,131.18563846662383L213.1712062510649,133.09576412237834L213.29690882800014,130.02510842403927L213.42261140493537,134.69678722030045L213.54831398187062,132.5295987039304L213.7997191357411,131.6419712995611L213.92542171267635,131.4281625420701L214.17682686654683,125.0627610420324L214.30252944348206,134.76370653154186L214.4282320204173,133.83626252650262L214.55393459735254,133.00303140743517L214.6796371742878,130.96563636193414L214.80533975122302,126.67836966736682L214.93104232815827,132.31419876258363L215.05674490509352,128.65789781602257L215.18244748202875,132.1443666653904L215.308150058964,132.95262379353676L215.43385263589923,130.36620215202447L215.55955521283448,132.36571455716006L215.6852577897697,134.06568514075212L215.81096036670496,128.7374200045353L216.06236552057544,133.73340622076105L216.1880680975107,132.9154169681015L216.31377067444592,132.77278885633956L216.43947325138117,133.85323190830837L216.69087840525165,133.93230225513867L216.81658098218688,126.33892749863462L217.31939128992786,130.05306612813908L217.69649902073357,133.57842062850358L217.94790417460408,131.2151367171495L218.0736067515393,131.42910322971068L218.19930932847456,134.3090330482314L218.32501190540978,129.21574895799526L218.45071448234503,131.57111005915928L218.7021196362155,131.74795544039736L218.82782221315077,132.10159556544357L218.953524790086,129.17720608344732L219.07922736702125,133.0733258981405L219.20492994395647,126.12884059224322L219.45633509782695,135.87669387020577L219.5820376747622,129.56277505565572L219.70774025169743,134.98890286798596L219.83344282863268,130.7973311780125L219.95914540556794,135.61560533391105L220.08484798250316,129.88137018400585L220.21055055943842,133.29905392759883L220.33625313637364,133.0962471255561L220.4619557133089,125.65086220560582L220.58765829024412,133.3367086995296L220.71336086717938,134.84106494372196L220.96476602104985,126.32039030409459L221.0904685979851,132.1874727514121L221.3418737518556,134.1289585570388L221.4675763287908,129.90526910333773L221.59327890572607,132.91066873524915L221.84468405959655,131.64747325108198L221.9703866365318,135.26368688148233L222.09608921346702,134.52032941016068L222.22179179040228,131.40449343876637L222.3474943673375,133.13414339907575L222.47319694427276,126.17329441293835L222.97600725201372,132.92429604667979L223.2274124058842,127.18668961249753L223.60452013668993,132.08648418779742L223.73022271362515,133.42815016000964L223.8559252905604,131.02030336272676L223.98162786749566,132.3438294494645L224.1073304444309,128.4418765923625L224.23303302136614,131.01608682288864L224.48443817523665,134.5843838114243L224.6101407521719,134.73135505659917L224.73584332910713,133.4710926481808L224.86154590604238,135.13196334549573L224.9872484829776,136.05778500518386L225.11295105991286,130.6039624138707L225.23865363684808,128.24498463165386L225.36435621378334,135.40298655602334L225.49005879071856,129.87841178954207L225.61576136765382,132.72036548321137L225.8671665215243,127.4990095947237L225.99286909845955,129.9097758346012L226.11857167539478,134.89160499397553L226.36997682926525,130.60296524601986L226.4956794062005,132.6263863084546L226.62138198313576,133.8146715054193L226.747084560071,129.6603942825868L226.87278713700624,135.02032144566192L226.99848971394147,134.59200084944132L227.24989486781195,133.4581859463299L227.3755974447472,130.74783114266586L227.50130002168243,134.15935464814893L227.62700259861768,131.07484766513147L227.75270517555293,135.45225677534188L227.87840775248816,135.6083622338381L228.0041103294234,126.57727009092503L228.2555154832939,127.91763896589373L228.38121806022912,133.391833384785L228.50692063716437,135.95047650079567L228.63262321409962,131.72241080459287L228.75832579103485,136.98057620945025L228.8840283679701,131.29986677057082L229.00973094490533,128.3895564416876L229.13543352184058,128.6602173998319L229.2611360987758,132.81370195212673L229.5125412526463,134.12937728963243L229.63824382958154,132.33891567116817L229.88964898345202,133.65932755596543L230.39245929119298,134.02383525251128L230.51816186812823,131.7435986738302L230.7695670219987,131.946095808513L230.89526959893396,130.28775698269442L231.0209721758692,135.08850084987108L231.27237732973967,135.09437284414912L231.52378248361015,123.94634399128768L231.6494850605454,134.90664236307026L231.77518763748066,132.4888940006433L232.02659279135113,134.41000797869185L232.15229536828636,134.35180609577168L232.2779979452216,134.7922192997774L232.40370052215684,126.80662648699692L232.65510567602735,136.85692739594344L232.78080825296257,131.6809582254176L232.90651082989783,131.82300205914197L233.03221340683305,136.7132670596484L233.1579159837683,134.6704304380237L233.40932113763878,131.35678324180827L233.53502371457404,130.85170019700595L233.66072629150926,131.61016709838032L233.91213144537974,132.37021349804968L234.037834022315,127.69193235996345L234.4149417531207,131.68458659203122L234.6663469069912,133.7175119105445L234.79204948392643,135.73785382772104L235.0434546377969,133.81734360364467L235.16915721473217,132.03006630048543L235.2948597916674,131.64240950808932L235.42056236860265,132.2415028891437L235.5462649455379,135.31811238068607L235.67196752247312,132.80333685973946L235.79767009940838,130.62739001558558L235.9233726763436,134.22365834137526L236.17477783021408,127.13179474327023L236.30048040714934,132.84961362791196L236.42618298408456,136.98087613884286L236.55188556101982,132.05516493738787L236.67758813795507,133.0307495575396L236.8032907148903,133.8123188125212L236.92899329182555,132.70600782423372L237.18039844569603,134.6190587653632L237.30610102263125,133.13854885547937L237.4318035995665,136.1777333911191L237.55750617650176,135.9755420286093L237.683208753437,131.68058818266047L237.80891133037224,128.0956412176463L238.18601906117794,131.5051100120304L238.43742421504842,131.50179131277676L238.56312679198368,132.92149345969267L238.68882936891893,137.65494992046428L238.81453194585416,132.25974794466492L238.9402345227894,133.3680396354999L239.06593709972464,133.3614022369926L239.1916396766599,126.19925193855607L239.31734225359511,138.08879681312396L239.44304483053037,131.55029028508562L239.56874740746562,135.56934414648626L239.94585513827133,135.74029805751172L240.07155771520658,131.88568145942372L240.4486654460123,134.84987196134225L240.57436802294754,137.41404234758875L240.7000705998828,131.0956226445556L240.82577317681802,132.5447081339831L240.95147575375327,133.30652100091953L241.0771783306885,133.49545509475584L241.32858348455898,132.34791355294743L241.45428606149423,129.75798429561598L241.57998863842948,135.2321163915166L241.7056912153647,133.51242447656162L241.83139379229996,133.6464500680164L241.9570963692352,136.20683628017264L242.08279894617044,134.25923503108558L242.33420410004092,133.18069867311283L242.45990667697617,129.98738159115052L242.5856092539114,129.16083656042684L242.83701440778188,136.03311678643578L242.96271698471713,125.74518026162438L243.08841956165236,136.7714669949751L243.33982471552284,130.00606485519995L243.4655272924581,130.57608066591578L243.71693244632857,135.7168256611473L243.84263502326382,133.27567696331388L243.96833760019905,136.31027102117145L244.0940401771343,134.83605183815922L244.21974275406953,131.132821679617L244.34544533100478,133.73348217690594L244.59685048487526,131.66522361786468L244.72255306181052,136.5118781056436L245.09966079261622,130.29567005491717" style="fill: none;" fill="none"></path></g></g></g></g></g></g><g transform="translate(58, 177)" clip-path="url(#clip_1)"><clipPath id="clip_1"><rect width="271" height="22"></rect></clipPath><g><g><line x1="6.890134935910292" y1="0" x2="6.890134935910292" y2="5" style="visibility: inherit;" fill="rgb(0, 0, 0)" stroke="rgb(204, 204, 204)" stroke-width="1px"></line><line x1="38.31577916972066" y1="0" x2="38.31577916972066" y2="5" style="visibility: inherit;" fill="rgb(0, 0, 0)" stroke="rgb(204, 204, 204)" stroke-width="1px"></line><line x1="69.74142340353103" y1="0" x2="69.74142340353103" y2="5" style="visibility: inherit;" fill="rgb(0, 0, 0)" stroke="rgb(204, 204, 204)" stroke-width="1px"></line><line x1="101.1670676373414" y1="0" x2="101.1670676373414" y2="5" style="visibility: inherit;" fill="rgb(0, 0, 0)" stroke="rgb(204, 204, 204)" stroke-width="1px"></line><line x1="132.59271187115175" y1="0" x2="132.59271187115175" y2="5" style="visibility: inherit;" fill="rgb(0, 0, 0)" stroke="rgb(204, 204, 204)" stroke-width="1px"></line><line x1="164.01835610496212" y1="0" x2="164.01835610496212" y2="5" style="visibility: inherit;" fill="rgb(0, 0, 0)" stroke="rgb(204, 204, 204)" stroke-width="1px"></line><line x1="195.4440003387725" y1="0" x2="195.4440003387725" y2="5" style="visibility: inherit;" fill="rgb(0, 0, 0)" stroke="rgb(204, 204, 204)" stroke-width="1px"></line><line x1="226.86964457258284" y1="0" x2="226.86964457258284" y2="5" style="visibility: inherit;" fill="rgb(0, 0, 0)" stroke="rgb(204, 204, 204)" stroke-width="1px"></line><line x1="258.2952888063932" y1="0" x2="258.2952888063932" y2="5" style="visibility: inherit;" fill="rgb(0, 0, 0)" stroke="rgb(204, 204, 204)" stroke-width="1px"></line></g><g transform="translate(0, 8)"><text x="6.890134935910292" y="0" dx="0em" dy="0.95em" style="text-anchor: middle; visibility: hidden; font-family: &quot;Helvetica Neue&quot;, sans-serif; font-size: 12px; font-weight: 200;" fill="rgb(50, 49, 63)" stroke="none" stroke-width="1px">-20k</text><text x="38.31577916972066" y="0" dx="0em" dy="0.95em" style="text-anchor: middle; visibility: inherit; font-family: &quot;Helvetica Neue&quot;, sans-serif; font-size: 12px; font-weight: 200;" fill="rgb(50, 49, 63)" stroke="none" stroke-width="1px">-10k</text><text x="69.74142340353103" y="0" dx="0em" dy="0.95em" style="text-anchor: middle; visibility: inherit; font-family: &quot;Helvetica Neue&quot;, sans-serif; font-size: 12px; font-weight: 200;" fill="rgb(50, 49, 63)" stroke="none" stroke-width="1px">0</text><text x="101.1670676373414" y="0" dx="0em" dy="0.95em" style="text-anchor: middle; visibility: inherit; font-family: &quot;Helvetica Neue&quot;, sans-serif; font-size: 12px; font-weight: 200;" fill="rgb(50, 49, 63)" stroke="none" stroke-width="1px">10k</text><text x="132.59271187115175" y="0" dx="0em" dy="0.95em" style="text-anchor: middle; visibility: inherit; font-family: &quot;Helvetica Neue&quot;, sans-serif; font-size: 12px; font-weight: 200;" fill="rgb(50, 49, 63)" stroke="none" stroke-width="1px">20k</text><text x="164.01835610496212" y="0" dx="0em" dy="0.95em" style="text-anchor: middle; visibility: inherit; font-family: &quot;Helvetica Neue&quot;, sans-serif; font-size: 12px; font-weight: 200;" fill="rgb(50, 49, 63)" stroke="none" stroke-width="1px">30k</text><text x="195.4440003387725" y="0" dx="0em" dy="0.95em" style="text-anchor: middle; visibility: inherit; font-family: &quot;Helvetica Neue&quot;, sans-serif; font-size: 12px; font-weight: 200;" fill="rgb(50, 49, 63)" stroke="none" stroke-width="1px">40k</text><text x="226.86964457258284" y="0" dx="0em" dy="0.95em" style="text-anchor: middle; visibility: inherit; font-family: &quot;Helvetica Neue&quot;, sans-serif; font-size: 12px; font-weight: 200;" fill="rgb(50, 49, 63)" stroke="none" stroke-width="1px">50k</text><text x="258.2952888063932" y="0" dx="0em" dy="0.95em" style="text-anchor: middle; visibility: inherit; font-family: &quot;Helvetica Neue&quot;, sans-serif; font-size: 12px; font-weight: 200;" fill="rgb(50, 49, 63)" stroke="none" stroke-width="1px">60k</text></g><line x1="0" y1="0" x2="271.40625" y2="0" fill="rgb(0, 0, 0)" stroke="rgb(204, 204, 204)" stroke-width="1px"></line></g></g></g></g></svg>