<svg viewBox="0 0 330 200" xmlns="http://www.w3.org/2000/svg"><g><g><g><g><g><line x1="58.59375" y1="177.828125" x2="53.59375" y2="177.828125" style="visibility: inherit;" fill="rgb(0, 0, 0)" stroke="rgb(204, 204, 204)" stroke-width="1px"></line><line x1="58.59375" y1="163.00911458333334" x2="53.59375" y2="163.00911458333334" style="visibility: inherit;" fill="rgb(0, 0, 0)" stroke="rgb(204, 204, 204)" stroke-width="1px"></line><line x1="58.59375" y1="148.19010416666666" x2="53.59375" y2="148.19010416666666" style="visibility: inherit;" fill="rgb(0, 0, 0)" stroke="rgb(204, 204, 204)" stroke-width="1px"></line><line x1="58.59375" y1="133.37109375" x2="53.59375" y2="133.37109375" style="visibility: inherit;" fill="rgb(0, 0, 0)" stroke="rgb(204, 204, 204)" stroke-width="1px"></line><line x1="58.59375" y1="118.55208333333334" x2="53.59375" y2="118.55208333333334" style="visibility: inherit;" fill="rgb(0, 0, 0)" stroke="rgb(204, 204, 204)" stroke-width="1px"></line><line x1="58.59375" y1="103.73307291666666" x2="53.59375" y2="103.73307291666666" style="visibility: inherit;" fill="rgb(0, 0, 0)" stroke="rgb(204, 204, 204)" stroke-width="1px"></line><line x1="58.59375" y1="88.9140625" x2="53.59375" y2="88.9140625" style="visibility: inherit;" fill="rgb(0, 0, 0)" stroke="rgb(204, 204, 204)" stroke-width="1px"></line><line x1="58.59375" y1="74.09505208333333" x2="53.59375" y2="74.09505208333333" style="visibility: inherit;" fill="rgb(0, 0, 0)" stroke="rgb(204, 204, 204)" stroke-width="1px"></line><line x1="58.59375" y1="59.27604166666667" x2="53.59375" y2="59.27604166666667" style="visibility: inherit;" fill="rgb(0, 0, 0)" stroke="rgb(204, 204, 204)" stroke-width="1px"></line><line x1="58.59375" y1="44.45703124999997" x2="53.59375" y2="44.45703124999997" style="visibility: inherit;" fill="rgb(0, 0, 0)" stroke="rgb(204, 204, 204)" stroke-width="1px"></line><line x1="58.59375" y1="29.63802083333337" x2="53.59375" y2="29.63802083333337" style="visibility: inherit;" fill="rgb(0, 0, 0)" stroke="rgb(204, 204, 204)" stroke-width="1px"></line><line x1="58.59375" y1="14.819010416666686" x2="53.59375" y2="14.819010416666686" style="visibility: inherit;" fill="rgb(0, 0, 0)" stroke="rgb(204, 204, 204)" stroke-width="1px"></line><line x1="58.59375" y1="0" x2="53.59375" y2="0" style="visibility: inherit;" fill="rgb(0, 0, 0)" stroke="rgb(204, 204, 204)" stroke-width="1px"></line></g><g transform="translate(48.59375, 0)"><text x="0" y="177.828125" dx="0em" dy="0.3em" style="text-anchor: end; visibility: hidden; font-family: &quot;Helvetica Neue&quot;, sans-serif; font-size: 12px; font-weight: 200;" fill="rgb(50, 49, 63)" stroke="none" stroke-width="1px">-2e-3</text><text x="0" y="163.00911458333334" dx="0em" dy="0.3em" style="text-anchor: end; visibility: inherit; font-family: &quot;Helvetica Neue&quot;, sans-serif; font-size: 12px; font-weight: 200;" fill="rgb(50, 49, 63)" stroke="none" stroke-width="1px">0</text><text x="0" y="148.19010416666666" dx="0em" dy="0.3em" style="text-anchor: end; visibility: hidden; font-family: &quot;Helvetica Neue&quot;, sans-serif; font-size: 12px; font-weight: 200;" fill="rgb(50, 49, 63)" stroke="none" stroke-width="1px">2e-3</text><text x="0" y="133.37109375" dx="0em" dy="0.3em" style="text-anchor: end; visibility: inherit; font-family: &quot;Helvetica Neue&quot;, sans-serif; font-size: 12px; font-weight: 200;" fill="rgb(50, 49, 63)" stroke="none" stroke-width="1px">4e-3</text><text x="0" y="118.55208333333334" dx="0em" dy="0.3em" style="text-anchor: end; visibility: hidden; font-family: &quot;Helvetica Neue&quot;, sans-serif; font-size: 12px; font-weight: 200;" fill="rgb(50, 49, 63)" stroke="none" stroke-width="1px">6e-3</text><text x="0" y="103.73307291666666" dx="0em" dy="0.3em" style="text-anchor: end; visibility: inherit; font-family: &quot;Helvetica Neue&quot;, sans-serif; font-size: 12px; font-weight: 200;" fill="rgb(50, 49, 63)" stroke="none" stroke-width="1px">8e-3</text><text x="0" y="88.9140625" dx="0em" dy="0.3em" style="text-anchor: end; visibility: hidden; font-family: &quot;Helvetica Neue&quot;, sans-serif; font-size: 12px; font-weight: 200;" fill="rgb(50, 49, 63)" stroke="none" stroke-width="1px">0.01</text><text x="0" y="74.09505208333333" dx="0em" dy="0.3em" style="text-anchor: end; visibility: inherit; font-family: &quot;Helvetica Neue&quot;, sans-serif; font-size: 12px; font-weight: 200;" fill="rgb(50, 49, 63)" stroke="none" stroke-width="1px">0.012</text><text x="0" y="59.27604166666667" dx="0em" dy="0.3em" style="text-anchor: end; visibility: hidden; font-family: &quot;Helvetica Neue&quot;, sans-serif; font-size: 12px; font-weight: 200;" fill="rgb(50, 49, 63)" stroke="none" stroke-width="1px">0.014</text><text x="0" y="44.45703124999997" dx="0em" dy="0.3em" style="text-anchor: end; visibility: inherit; font-family: &quot;Helvetica Neue&quot;, sans-serif; font-size: 12px; font-weight: 200;" fill="rgb(50, 49, 63)" stroke="none" stroke-width="1px">0.016</text><text x="0" y="29.63802083333337" dx="0em" dy="0.3em" style="text-anchor: end; visibility: hidden; font-family: &quot;Helvetica Neue&quot;, sans-serif; font-size: 12px; font-weight: 200;" fill="rgb(50, 49, 63)" stroke="none" stroke-width="1px">0.018</text><text x="0" y="14.819010416666686" dx="0em" dy="0.3em" style="text-anchor: end; visibility: inherit; font-family: &quot;Helvetica Neue&quot;, sans-serif; font-size: 12px; font-weight: 200;" fill="rgb(50, 49, 63)" stroke="none" stroke-width="1px">0.02</text><text x="0" y="0" dx="0em" dy="0.3em" style="text-anchor: end; visibility: hidden; font-family: &quot;Helvetica Neue&quot;, sans-serif; font-size: 12px; font-weight: 200;" fill="rgb(50, 49, 63)" stroke="none" stroke-width="1px">0.022</text></g><line x1="58.59375" y1="0" x2="58.59375" y2="177.828125" fill="rgb(0, 0, 0)" stroke="rgb(204, 204, 204)" stroke-width="1px"></line></g></g><g transform="translate(58, 0)" clip-path="url(#clip_0)"><clipPath id="clip_0"><rect width="271" height="177"></rect></clipPath><g><g><g><line x1="0" y1="0" x2="0" y2="177.828125" fill="rgb(0, 0, 0)" stroke="rgb(60, 60, 60)" stroke-width="1px" opacity="0.25"></line><line x1="22.6171875" y1="0" x2="22.6171875" y2="177.828125" fill="rgb(0, 0, 0)" stroke="rgb(60, 60, 60)" stroke-width="1px" opacity="0.25"></line><line x1="45.234375" y1="0" x2="45.234375" y2="177.828125" fill="rgb(0, 0, 0)" stroke="rgb(60, 60, 60)" stroke-width="1px" opacity="0.25"></line><line x1="67.8515625" y1="0" x2="67.8515625" y2="177.828125" fill="rgb(0, 0, 0)" stroke="rgb(60, 60, 60)" stroke-width="1px" opacity="0.25"></line><line x1="90.46875" y1="0" x2="90.46875" y2="177.828125" fill="rgb(0, 0, 0)" stroke="rgb(60, 60, 60)" stroke-width="1px" opacity="0.25"></line><line x1="113.0859375" y1="0" x2="113.0859375" y2="177.828125" fill="rgb(0, 0, 0)" stroke="rgb(60, 60, 60)" stroke-width="1px" opacity="0.25"></line><line x1="135.703125" y1="0" x2="135.703125" y2="177.828125" fill="rgb(0, 0, 0)" stroke="rgb(60, 60, 60)" stroke-width="1px" opacity="0.25"></line><line x1="158.3203125" y1="0" x2="158.3203125" y2="177.828125" fill="rgb(0, 0, 0)" stroke="rgb(60, 60, 60)" stroke-width="1px" opacity="0.25"></line><line x1="180.9375" y1="0" x2="180.9375" y2="177.828125" fill="rgb(0, 0, 0)" stroke="rgb(60, 60, 60)" stroke-width="1px" opacity="0.25"></line><line x1="203.5546875" y1="0" x2="203.5546875" y2="177.828125" fill="rgb(0, 0, 0)" stroke="rgb(60, 60, 60)" stroke-width="1px" opacity="0.25"></line><line x1="226.171875" y1="0" x2="226.171875" y2="177.828125" fill="rgb(0, 0, 0)" stroke="rgb(60, 60, 60)" stroke-width="1px" opacity="0.25"></line><line x1="248.7890625" y1="0" x2="248.7890625" y2="177.828125" fill="rgb(0, 0, 0)" stroke="rgb(60, 60, 60)" stroke-width="1px" opacity="0.25"></line><line x1="271.40625" y1="0" x2="271.40625" y2="177.828125" fill="rgb(0, 0, 0)" stroke="rgb(60, 60, 60)" stroke-width="1px" opacity="0.25"></line></g><g><line x1="0" y1="177.828125" x2="271.40625" y2="177.828125" fill="rgb(0, 0, 0)" stroke="rgb(60, 60, 60)" stroke-width="1px" opacity="0.25"></line><line x1="0" y1="163.00911458333334" x2="271.40625" y2="163.00911458333334" fill="rgb(0, 0, 0)" stroke="rgb(60, 60, 60)" stroke-width="1px" opacity="0.25"></line><line x1="0" y1="148.19010416666666" x2="271.40625" y2="148.19010416666666" fill="rgb(0, 0, 0)" stroke="rgb(60, 60, 60)" stroke-width="1px" opacity="0.25"></line><line x1="0" y1="133.37109375" x2="271.40625" y2="133.37109375" fill="rgb(0, 0, 0)" stroke="rgb(60, 60, 60)" stroke-width="1px" opacity="0.25"></line><line x1="0" y1="118.55208333333334" x2="271.40625" y2="118.55208333333334" fill="rgb(0, 0, 0)" stroke="rgb(60, 60, 60)" stroke-width="1px" opacity="0.25"></line><line x1="0" y1="103.73307291666666" x2="271.40625" y2="103.73307291666666" fill="rgb(0, 0, 0)" stroke="rgb(60, 60, 60)" stroke-width="1px" opacity="0.25"></line><line x1="0" y1="88.9140625" x2="271.40625" y2="88.9140625" fill="rgb(0, 0, 0)" stroke="rgb(60, 60, 60)" stroke-width="1px" opacity="0.25"></line><line x1="0" y1="74.09505208333333" x2="271.40625" y2="74.09505208333333" fill="rgb(0, 0, 0)" stroke="rgb(60, 60, 60)" stroke-width="1px" opacity="0.25"></line><line x1="0" y1="59.27604166666667" x2="271.40625" y2="59.27604166666667" fill="rgb(0, 0, 0)" stroke="rgb(60, 60, 60)" stroke-width="1px" opacity="0.25"></line><line x1="0" y1="44.45703124999997" x2="271.40625" y2="44.45703124999997" fill="rgb(0, 0, 0)" stroke="rgb(60, 60, 60)" stroke-width="1px" opacity="0.25"></line><line x1="0" y1="29.63802083333337" x2="271.40625" y2="29.63802083333337" fill="rgb(0, 0, 0)" stroke="rgb(60, 60, 60)" stroke-width="1px" opacity="0.25"></line><line x1="0" y1="14.819010416666686" x2="271.40625" y2="14.819010416666686" fill="rgb(0, 0, 0)" stroke="rgb(60, 60, 60)" stroke-width="1px" opacity="0.25"></line><line x1="0" y1="0" x2="271.40625" y2="0" fill="rgb(0, 0, 0)" stroke="rgb(60, 60, 60)" stroke-width="1px" opacity="0.25"></line></g></g></g><g><g><line x1="0" y1="163.00911458333334" x2="271.40625" y2="163.00911458333334" fill="rgb(0, 0, 0)" stroke="rgb(153, 153, 153)" stroke-width="1.5px"></line></g></g><g><g><line x1="22.6171875" y1="0" x2="22.6171875" y2="177.828125" fill="rgb(0, 0, 0)" stroke="rgb(153, 153, 153)" stroke-width="1.5px"></line></g></g><g><g><g><g><g><path stroke="rgb(255, 112, 67)" stroke-width="2px" d="M35.3054296875,-0.49460039915948073L36.210117187499996,10.86989798441897L37.114804687500005,20.956554932689812L38.0194921875,33.64822020376016L38.9241796875,44.257901907655025L39.828867187499995,47.5390021115619L40.7335546875,45.82630999724748L41.638242187500005,52.98589368314198L42.5429296875,60.453721668781654L43.4476171875,61.844755887404375L44.352304687499995,69.10080634277291L45.2569921875,70.58351594839519L46.1616796875,74.37957125501606L47.0663671875,79.68575629946355L47.9710546875,82.7815527147422L48.8757421875,86.46816841188296L49.7804296875,91.08352525584277L50.6851171875,93.01019872626757L51.5898046875,94.2616391139773L52.49449218749999,98.5413203879132L53.3991796875,98.0774651140179L54.3038671875,96.99834253040541L55.2085546875,98.89390804346253L56.1132421875,94.71091123009691L57.0179296875,99.72356026131644L57.9226171875,100.865437571606L58.827304687499996,102.05790451490704L59.7319921875,103.59655794527228L60.636679687500006,104.64888990023036L61.5413671875,106.44646550304152L62.4460546875,101.23165962228582L63.350742187499996,104.97594556519309L64.2554296875,102.44372041768642L65.1601171875,105.05932458059048L66.0648046875,106.52488404997399L66.9694921875,105.30340715294447L67.8741796875,107.4719064817147L68.7788671875,108.56317999725296L69.68355468749999,111.48512742042108L70.5882421875,114.4560720859418L71.49292968750001,112.21611344849158L72.3976171875,114.30438442099356L73.3023046875,116.7250388728973L74.20699218749999,115.68485845370942L75.1116796875,117.72278457442215L76.01636718750001,118.70762047771143L76.92105468749999,118.01448628437521L77.8257421875,119.90534816595732L78.7304296875,122.36473191866213L79.6351171875,123.26268621634517L80.53980468750001,124.63859086004415L81.44449218749999,124.58706379829884L82.3491796875,124.42674030225479L83.2538671875,126.93312175880916L84.1585546875,126.6133535029186L85.06324218750001,127.8894023548472L85.96792968749999,127.09917430633419L86.8726171875,127.88187881071912L87.7773046875,126.97016399822326L88.6819921875,125.43156711932292L89.5866796875,123.63790182716747L90.49136718749999,115.54478444067107L91.3960546875,117.21434616314426L92.3007421875,118.74677119130769L93.2054296875,118.11286773661189L94.1101171875,119.40116814443665L95.0148046875,121.16194950486738L95.9194921875,123.15762750200028L96.8241796875,125.53972142773708L97.7288671875,127.12340289481543L98.6335546875,125.88686845975406L99.5382421875,125.36355891036149L100.4429296875,126.73449685060606L101.3476171875,128.13918677223836L102.25230468749999,129.19153536862723L103.1569921875,128.41354953124068L104.0616796875,129.2310320620047L104.9663671875,126.2231057920678L105.8710546875,126.53580589273699L106.7757421875,126.89959332598143L107.6804296875,126.807183239193L108.5851171875,125.94745342566733L109.4898046875,127.32675923597233L110.3944921875,127.23952271798204L111.2991796875,127.00232135704755L112.2038671875,128.70361622531027L113.1085546875,129.92606671630142L114.0132421875,128.98423824096767L114.91792968749999,130.28276394680108L115.8226171875,131.04778408248958L116.7273046875,131.48642560895678L117.6319921875,130.70053206023715L118.53667968750001,130.34055595181857L119.44136718749999,131.30373931172454L120.3460546875,132.27485628943268L121.2507421875,132.66462457761128L122.1554296875,132.8008475166239L123.06011718750001,132.0933728332219L123.96480468749999,132.835920974643L124.8694921875,130.34299197777102L125.7741796875,130.9811100832543L126.6788671875,131.34940348921586L127.58355468750001,129.94503814913395L128.4882421875,130.98788004996823L129.39292968750001,128.75710357874578L130.29761718749998,125.4746041421778L131.2023046875,124.50487307349519L132.1069921875,124.68748785004196L133.0116796875,126.65471144572558L133.91636718750001,129.2679906954554L134.8210546875,130.08493099450453L135.7257421875,129.1729202689016L136.6304296875,127.40831310247603L137.53511718750002,129.71474884885873L138.4398046875,125.75633490812581L139.34449218749998,127.13824948345126L140.2491796875,128.5840589110151L141.1538671875,127.52231028236469L142.0585546875,128.11522384948472L142.96324218750001,129.10064031558244L143.8679296875,130.75771478179564L144.7726171875,132.53361158469983L145.6773046875,132.01525029665345L146.58199218750002,128.91878211947966L147.4866796875,130.92854263124136L148.39136718749998,132.39606236047698L149.2960546875,132.01782123426392L150.2007421875,129.24851096327995L151.1054296875,131.66280899301654L152.01011718750001,133.21070233754608L152.9148046875,133.2232295188959L153.8194921875,134.4728367970469L154.72417968750003,135.29846924043576L155.6288671875,134.72483118745612L156.5335546875,136.30387459451L157.43824218749998,136.26951422303333L158.3429296875,137.2610163515538L159.2476171875,136.621781100036L160.1523046875,133.18298592250324L161.05699218750001,134.16687691192195L161.9616796875,133.72000469604137L162.8663671875,135.31984406624414L163.77105468750003,135.75336299806236L164.6757421875,135.72173563757121L165.5804296875,135.34456723034808L166.4851171875,135.61552240197182L167.3898046875,136.66860019950235L168.2944921875,138.26573946593584L169.1991796875,138.25838181007626L170.10386718750001,138.3858811916L171.0085546875,137.70160674674588L171.9132421875,138.61483562900978L172.8179296875,139.1852643177883L173.7226171875,139.49163335586422L174.6273046875,134.93661719499164L175.5319921875,135.98906873186797L175.826015625,129.49653873885407L176.730703125,124.3931432471779L177.63539062499999,125.18902755907257L178.540078125,127.2475061446153L179.444765625,129.44317384918384L180.349453125,131.2181192795219L181.254140625,132.9098792142382L182.158828125,133.34316343257086L183.063515625,134.88176663572605L183.96820312499997,135.48213409692772L184.872890625,135.53469642561925L185.777578125,136.82902175252235L186.68226562499999,137.6317347608752L187.5643359375,137.3344627377198L188.4690234375,138.40910982600946L189.35109375,138.0502161735748L190.1879296875,138.9750220682447L191.024765625,140.10979760463573L191.90683593749998,139.50495453257918L192.78890625,140.04400558037278L193.648359375,140.30782059510722L194.462578125,141.1219526205329L195.32203125,140.31582493831917L197.7873046875,141.84640418645157L198.57890625000002,141.92403935719068L200.1847265625,142.9195820657273L201.72269531249998,143.2590277781707L202.51429687499999,143.1284398270989L204.00703125,142.62549125134655L205.36406250000002,143.69485931058742L206.6984765625,143.15559323830243L207.26390625000002,141.5378188915563L207.96503906249998,142.05507477945073L208.71140625,140.44010524058325L209.4577734375,140.0996658691634L210.1362890625,139.8813409834429L210.83742187500002,140.54344179120457L211.4933203125,141.52500380042554L212.05875,142.04278156916894L212.69203124999999,141.5766087276623L214.0716796875,142.68184176867183L214.727578125,142.69595573953052L215.315625,142.13130473793703L215.8584375,141.59646772656055L216.4691015625,142.44926246149058L217.125,142.67343986829155L217.75828125,143.82910069587888L218.4141796875,143.71273846419408L218.934375,144.21981385593438L220.44972656250002,143.84060244830982L220.969921875,142.8202827502765L222.48527343749998,142.02760288935457L223.02808593749998,141.68965773218906L223.63875,141.69317521173463L224.58867187500002,142.04734217431712L225.5612109375,141.0743348511377L226.0135546875,140.90607844758793L226.895625,138.8092214493923L227.4158203125,139.05433114119094L227.82292968750002,137.21249183975482L229.51921875,137.26852305507035L230.514375,136.39680972818545L232.23328125,136.79772091505305L233.25105468750002,138.33417183011687L234.178359375,139.3698602601824L234.60808593750002,138.38696259657502L235.64847656249998,135.97265480026783L236.6888671875,137.83239473786986L237.5935546875,138.18201172912435L238.56609375,136.75406572183252L238.88273437499998,136.68992758608925L239.28984375000002,137.40294747742962L240.2171484375,138.41099868132216L240.42070312500002,136.17338623838603L241.5741796875,137.60125200734703L242.36578125,138.47797169816226L242.7050390625,139.23690090398267L243.134765625,140.5207060006702L243.496640625,140.46197935998185L244.4239453125,140.17622293214896" style="fill: none;" fill="none"></path></g></g></g></g><g opacity="0.20000000298023224"><g><g><g><path stroke="rgb(255, 112, 67)" stroke-width="2px" d="M27.1632421875,-11.329510397888953L28.0679296875,25.559500226498727L28.9726171875,-25.52685843525495L29.8773046875,12.942591845038493L30.7819921875,31.4850655357489L31.686679687500003,36.03210389990514L32.5913671875,65.16465775031247L33.4960546875,68.08320730595248L34.4007421875,72.93119635855449L35.3054296875,71.71546239913248L36.210117187499996,75.00981387951954L37.114804687500005,78.85715500425431L38.0194921875,107.55982316808999L38.9241796875,106.80854364865081L39.828867187499995,67.08718970716775L40.7335546875,35.530372205520194L41.638242187500005,96.35851541726151L42.5429296875,105.99325034719368L43.4476171875,70.37562733953139L44.352304687499995,113.81766806896727L45.2569921875,79.75937221076067L46.1616796875,97.95659310764555L47.0663671875,112.74456687701363L47.9710546875,102.12077019287972L48.8757421875,109.55134426801911L49.7804296875,120.03936396999538L50.6851171875,105.11850458640643L51.5898046875,102.13803559282678L52.49449218749999,125.51143995537618L53.3991796875,95.15107602647913L54.3038671875,90.18385772516194L55.2085546875,110.8739208283126L56.1132421875,68.25555767728656L57.0179296875,131.44543784605534L57.9226171875,108.09547150545646L58.827304687499996,109.61170071111943L59.7319921875,113.34714451657297L60.636679687500006,111.31988155452322L61.5413671875,117.84508828123944L62.4460546875,68.15561571588235L63.350742187499996,128.7301017717667L64.2554296875,86.37596755626146L65.1601171875,121.65885779496602L66.0648046875,115.82714808310993L66.9694921875,97.54944847843822L67.8741796875,121.23903324073763L68.7788671875,115.49196677258684L69.68355468749999,130.03881149705072L70.5882421875,133.32215990780728L71.49292968750001,97.99109630498182L72.3976171875,127.56677126845898L73.3023046875,132.0990319131961L74.20699218749999,109.07824332678379L75.1116796875,130.66691805231918L76.01636718750001,124.9631013420294L76.92105468749999,113.61172883502636L77.8257421875,131.91627192722567L78.7304296875,137.98724233585017L79.6351171875,128.96676610293557L80.53980468750001,133.3788762635886L81.44449218749999,124.25973986305084L82.3491796875,123.40828031014584L83.2538671875,142.85512765719614L84.1585546875,124.58198247457281L85.06324218750001,135.9957281365605L85.96792968749999,122.07908258628353L86.8726171875,132.85419994297504L87.7773046875,121.17824895799035L88.6819921875,115.65717843239204L89.5866796875,112.24308015532975L90.49136718749999,64.13057622422639L91.3960546875,127.82081486012612L92.3007421875,128.48205138547686L93.2054296875,114.08576136258975L94.1101171875,127.58558586196645L95.0148046875,132.34799663421532L95.9194921875,135.83596108129495L96.8241796875,140.67292981266775L97.7288671875,137.18438398671304L98.6335546875,118.03127443470535L99.5382421875,122.03901747353666L100.4429296875,135.44395472991891L101.3476171875,137.0630724700386L102.25230468749999,135.8770267867646L103.1569921875,123.47106232801889L104.0616796875,134.42444045374822L104.9663671875,107.11395905083191L105.8710546875,128.52236837156428L106.7757421875,129.21071060874237L107.6804296875,126.22010802610507L108.5851171875,120.48564557594122L109.4898046875,136.0894008670087L110.3944921875,126.68531463578984L111.2991796875,125.49539596861482L112.2038671875,139.5118368417073L113.1085546875,137.69221929670675L114.0132421875,123.00085965535982L114.91792968749999,138.53221861261653L115.8226171875,135.90791059870025L116.7273046875,134.27308872831298L117.6319921875,125.70779765141683L118.53667968750001,128.05364933639066L119.44136718749999,137.42278555386775L120.3460546875,138.44430446580373L121.2507421875,135.14079928716336L122.1554296875,133.66626374516153L123.06011718750001,127.5988281891041L123.96480468749999,137.55328527199282L124.8694921875,114.50556176458L125.7741796875,135.0350366363685L126.6788671875,133.68914971595467L127.58355468750001,121.02318813884145L128.4882421875,137.61299305498324L129.39292968750001,114.58511233635849L130.29761718749998,104.62107889104905L131.2023046875,118.34422878550444L132.1069921875,125.84762875926148L133.0116796875,139.15236700541936L133.91636718750001,145.86999978883978L134.8210546875,135.27490458941003L135.7257421875,123.37896984400868L136.6304296875,116.19786768688937L137.53511718750002,144.3673993461246L138.4398046875,100.60876417857071L139.34449218749998,135.9174714346821L140.2491796875,137.76920110544353L141.1538671875,120.77708373288138L142.0585546875,131.88196884843396L142.96324218750001,135.36093313648843L143.8679296875,141.2850113579334L144.7726171875,143.8157794787112L145.6773046875,128.72213153318202L146.58199218750002,109.24710197454746L147.4866796875,143.69643291912507L148.39136718749998,141.71912886165836L149.2960546875,129.61487761201957L150.2007421875,111.65524573199218L151.1054296875,147.00070234358645L152.01011718750001,143.04437769458553L152.9148046875,133.30281396506084L153.8194921875,142.41151832388397L154.72417968750003,140.5436635838475L155.6288671875,131.08054238198625L156.5335546875,146.33544447058617L157.43824218749998,136.051224804316L158.3429296875,143.5599710485003L159.2476171875,132.56075715026964L160.1523046875,111.33652244659848L161.05699218750001,140.41747849054929L161.9616796875,130.88105179562749L162.8663671875,145.48352947547636L163.77105468750003,138.50748327044613L164.6757421875,135.52080887682558L165.5804296875,132.9484385258596L166.4851171875,137.33688466861958L167.3898046875,143.3587415009958L168.2944921875,148.41227127560947L169.1991796875,138.21163905520615L170.10386718750001,139.19587726242025L171.0085546875,133.35445145019426L171.9132421875,144.41652499849198L172.8179296875,142.80916422286464L173.7226171875,141.43797783300397L174.6273046875,105.99886746772003L175.5319921875,142.67523143660463L175.826015625,88.24987760743049L176.730703125,91.97157188874553L177.63539062499999,130.24523377575437L178.540078125,140.32489951145664L179.444765625,143.39212161925872L180.349453125,142.49424318981738L181.254140625,143.65753056412842L182.158828125,136.09579258431523L183.063515625,144.65642227925127L183.96820312499997,139.29623326219252L184.872890625,135.86862180789348L185.777578125,145.05179441752745L186.68226562499999,142.7313232845142L187.5643359375,135.44591106120788L188.4690234375,145.2362795633647L189.35109375,135.77018591105298L190.1879296875,144.8502595167265L191.024765625,147.31895983581612L191.90683593749998,135.66242207481264L192.78890625,143.4685651781171L193.648359375,141.9838218651833L194.462578125,146.2940854879392L195.32203125,135.19454319249417L197.7873046875,151.5700841157577L198.57890625000002,142.4172510301214L200.1847265625,149.2442063317218L201.72269531249998,145.4155064219279L202.51429687499999,142.2988222555844L204.00703125,139.43028853480308L205.36406250000002,150.4884916869396L206.6984765625,139.72966760261016L207.26390625000002,131.26019362987668L207.96503906249998,145.34117100842678L208.71140625,130.1802987583675L209.4577734375,137.9368745683787L210.1362890625,138.49433582710117L210.83742187500002,144.74972927580774L211.4933203125,147.7608095060641L212.05875,145.33219327647993L212.69203124999999,138.61504008750245L214.0716796875,149.70332226449682L214.727578125,142.78562096616224L215.315625,138.54411013957844L215.8584375,138.19867965428665L216.4691015625,147.8670172481046L217.125,144.0976257467919L217.75828125,151.17094595349226L218.4141796875,142.97349605113777L218.934375,147.4412339916962L220.44972656250002,141.43149468222447L220.969921875,136.33825172747675L222.48527343749998,136.99175436114456L223.02808593749998,139.54271202784366L223.63875,141.71552155237686L224.58867187500002,144.29734405425307L225.5612109375,134.89287656270363L226.0135546875,139.83715541327183L226.895625,125.48801228438484L227.4158203125,140.61149859497044L227.82292968750002,125.51139510121962L229.51921875,137.62448607001596L230.514375,130.85886623974025L232.23328125,139.34468610221182L233.25105468750002,148.09515411405178L234.178359375,145.94952793354L234.60808593750002,132.142671557187L235.64847656249998,120.63469938843386L236.6888671875,149.64721316498859L237.5935546875,140.40310790885877L238.56609375,127.68240873433146L238.88273437499998,136.28246178254386L239.28984375000002,141.93272090476847L240.2171484375,144.81508868252178L240.42070312500002,121.95796601267406L241.5741796875,146.67239924545234L242.36578125,144.0477203221647L242.7050390625,144.05833350566536L243.134765625,148.67664426197916L243.496640625,140.08889246619702L244.4239453125,138.36082915532825" style="fill: none;" fill="none"></path></g></g></g></g></g></g><g transform="translate(58, 177)" clip-path="url(#clip_1)"><clipPath id="clip_1"><rect width="271" height="22"></rect></clipPath><g><g><line x1="0" y1="0" x2="0" y2="5" style="visibility: inherit;" fill="rgb(0, 0, 0)" stroke="rgb(204, 204, 204)" stroke-width="1px"></line><line x1="22.6171875" y1="0" x2="22.6171875" y2="5" style="visibility: inherit;" fill="rgb(0, 0, 0)" stroke="rgb(204, 204, 204)" stroke-width="1px"></line><line x1="45.234375" y1="0" x2="45.234375" y2="5" style="visibility: inherit;" fill="rgb(0, 0, 0)" stroke="rgb(204, 204, 204)" stroke-width="1px"></line><line x1="67.8515625" y1="0" x2="67.8515625" y2="5" style="visibility: inherit;" fill="rgb(0, 0, 0)" stroke="rgb(204, 204, 204)" stroke-width="1px"></line><line x1="90.46875" y1="0" x2="90.46875" y2="5" style="visibility: inherit;" fill="rgb(0, 0, 0)" stroke="rgb(204, 204, 204)" stroke-width="1px"></line><line x1="113.0859375" y1="0" x2="113.0859375" y2="5" style="visibility: inherit;" fill="rgb(0, 0, 0)" stroke="rgb(204, 204, 204)" stroke-width="1px"></line><line x1="135.703125" y1="0" x2="135.703125" y2="5" style="visibility: inherit;" fill="rgb(0, 0, 0)" stroke="rgb(204, 204, 204)" stroke-width="1px"></line><line x1="158.3203125" y1="0" x2="158.3203125" y2="5" style="visibility: inherit;" fill="rgb(0, 0, 0)" stroke="rgb(204, 204, 204)" stroke-width="1px"></line><line x1="180.9375" y1="0" x2="180.9375" y2="5" style="visibility: inherit;" fill="rgb(0, 0, 0)" stroke="rgb(204, 204, 204)" stroke-width="1px"></line><line x1="203.5546875" y1="0" x2="203.5546875" y2="5" style="visibility: inherit;" fill="rgb(0, 0, 0)" stroke="rgb(204, 204, 204)" stroke-width="1px"></line><line x1="226.171875" y1="0" x2="226.171875" y2="5" style="visibility: inherit;" fill="rgb(0, 0, 0)" stroke="rgb(204, 204, 204)" stroke-width="1px"></line><line x1="248.7890625" y1="0" x2="248.7890625" y2="5" style="visibility: inherit;" fill="rgb(0, 0, 0)" stroke="rgb(204, 204, 204)" stroke-width="1px"></line><line x1="271.40625" y1="0" x2="271.40625" y2="5" style="visibility: inherit;" fill="rgb(0, 0, 0)" stroke="rgb(204, 204, 204)" stroke-width="1px"></line></g><g transform="translate(0, 8)"><text x="0" y="0" dx="0em" dy="0.95em" style="text-anchor: middle; visibility: hidden; font-family: &quot;Helvetica Neue&quot;, sans-serif; font-size: 12px; font-weight: 200;" fill="rgb(50, 49, 63)" stroke="none" stroke-width="1px">-1k</text><text x="22.6171875" y="0" dx="0em" dy="0.95em" style="text-anchor: middle; visibility: inherit; font-family: &quot;Helvetica Neue&quot;, sans-serif; font-size: 12px; font-weight: 200;" fill="rgb(50, 49, 63)" stroke="none" stroke-width="1px">0</text><text x="45.234375" y="0" dx="0em" dy="0.95em" style="text-anchor: middle; visibility: inherit; font-family: &quot;Helvetica Neue&quot;, sans-serif; font-size: 12px; font-weight: 200;" fill="rgb(50, 49, 63)" stroke="none" stroke-width="1px">1k</text><text x="67.8515625" y="0" dx="0em" dy="0.95em" style="text-anchor: middle; visibility: inherit; font-family: &quot;Helvetica Neue&quot;, sans-serif; font-size: 12px; font-weight: 200;" fill="rgb(50, 49, 63)" stroke="none" stroke-width="1px">2k</text><text x="90.46875" y="0" dx="0em" dy="0.95em" style="text-anchor: middle; visibility: inherit; font-family: &quot;Helvetica Neue&quot;, sans-serif; font-size: 12px; font-weight: 200;" fill="rgb(50, 49, 63)" stroke="none" stroke-width="1px">3k</text><text x="113.0859375" y="0" dx="0em" dy="0.95em" style="text-anchor: middle; visibility: inherit; font-family: &quot;Helvetica Neue&quot;, sans-serif; font-size: 12px; font-weight: 200;" fill="rgb(50, 49, 63)" stroke="none" stroke-width="1px">4k</text><text x="135.703125" y="0" dx="0em" dy="0.95em" style="text-anchor: middle; visibility: inherit; font-family: &quot;Helvetica Neue&quot;, sans-serif; font-size: 12px; font-weight: 200;" fill="rgb(50, 49, 63)" stroke="none" stroke-width="1px">5k</text><text x="158.3203125" y="0" dx="0em" dy="0.95em" style="text-anchor: middle; visibility: inherit; font-family: &quot;Helvetica Neue&quot;, sans-serif; font-size: 12px; font-weight: 200;" fill="rgb(50, 49, 63)" stroke="none" stroke-width="1px">6k</text><text x="180.9375" y="0" dx="0em" dy="0.95em" style="text-anchor: middle; visibility: inherit; font-family: &quot;Helvetica Neue&quot;, sans-serif; font-size: 12px; font-weight: 200;" fill="rgb(50, 49, 63)" stroke="none" stroke-width="1px">7k</text><text x="203.5546875" y="0" dx="0em" dy="0.95em" style="text-anchor: middle; visibility: inherit; font-family: &quot;Helvetica Neue&quot;, sans-serif; font-size: 12px; font-weight: 200;" fill="rgb(50, 49, 63)" stroke="none" stroke-width="1px">8k</text><text x="226.171875" y="0" dx="0em" dy="0.95em" style="text-anchor: middle; visibility: inherit; font-family: &quot;Helvetica Neue&quot;, sans-serif; font-size: 12px; font-weight: 200;" fill="rgb(50, 49, 63)" stroke="none" stroke-width="1px">9k</text><text x="248.7890625" y="0" dx="0em" dy="0.95em" style="text-anchor: middle; visibility: inherit; font-family: &quot;Helvetica Neue&quot;, sans-serif; font-size: 12px; font-weight: 200;" fill="rgb(50, 49, 63)" stroke="none" stroke-width="1px">10k</text><text x="271.40625" y="0" dx="0em" dy="0.95em" style="text-anchor: middle; visibility: hidden; font-family: &quot;Helvetica Neue&quot;, sans-serif; font-size: 12px; font-weight: 200;" fill="rgb(50, 49, 63)" stroke="none" stroke-width="1px">11k</text></g><line x1="0" y1="0" x2="271.40625" y2="0" fill="rgb(0, 0, 0)" stroke="rgb(204, 204, 204)" stroke-width="1px"></line></g></g></g></g></svg>