<svg viewBox="0 0 330 200" xmlns="http://www.w3.org/2000/svg"><g><g><g><g><g><line x1="68.3125" y1="172.77474133834286" x2="63.3125" y2="172.77474133834286" style="visibility: inherit;" fill="rgb(0, 0, 0)" stroke="rgb(204, 204, 204)" stroke-width="1px"></line><line x1="68.3125" y1="155.4531240602566" x2="63.3125" y2="155.4531240602566" style="visibility: inherit;" fill="rgb(0, 0, 0)" stroke="rgb(204, 204, 204)" stroke-width="1px"></line><line x1="68.3125" y1="138.13150678217036" x2="63.3125" y2="138.13150678217036" style="visibility: inherit;" fill="rgb(0, 0, 0)" stroke="rgb(204, 204, 204)" stroke-width="1px"></line><line x1="68.3125" y1="120.8098895040841" x2="63.3125" y2="120.8098895040841" style="visibility: inherit;" fill="rgb(0, 0, 0)" stroke="rgb(204, 204, 204)" stroke-width="1px"></line><line x1="68.3125" y1="103.48827222599783" x2="63.3125" y2="103.48827222599783" style="visibility: inherit;" fill="rgb(0, 0, 0)" stroke="rgb(204, 204, 204)" stroke-width="1px"></line><line x1="68.3125" y1="86.16665494791157" x2="63.3125" y2="86.16665494791157" style="visibility: inherit;" fill="rgb(0, 0, 0)" stroke="rgb(204, 204, 204)" stroke-width="1px"></line><line x1="68.3125" y1="68.84503766982532" x2="63.3125" y2="68.84503766982532" style="visibility: inherit;" fill="rgb(0, 0, 0)" stroke="rgb(204, 204, 204)" stroke-width="1px"></line><line x1="68.3125" y1="51.52342039173905" x2="63.3125" y2="51.52342039173905" style="visibility: inherit;" fill="rgb(0, 0, 0)" stroke="rgb(204, 204, 204)" stroke-width="1px"></line><line x1="68.3125" y1="34.20180311365277" x2="63.3125" y2="34.20180311365277" style="visibility: inherit;" fill="rgb(0, 0, 0)" stroke="rgb(204, 204, 204)" stroke-width="1px"></line><line x1="68.3125" y1="16.88018583556655" x2="63.3125" y2="16.88018583556655" style="visibility: inherit;" fill="rgb(0, 0, 0)" stroke="rgb(204, 204, 204)" stroke-width="1px"></line></g><g transform="translate(58.3125, 0)"><text x="0" y="172.77474133834286" dx="0em" dy="0.3em" style="text-anchor: end; visibility: inherit; font-family: &quot;Helvetica Neue&quot;, sans-serif; font-size: 12px; font-weight: 200;" fill="rgb(50, 49, 63)" stroke="none" stroke-width="1px">-0.015</text><text x="0" y="155.4531240602566" dx="0em" dy="0.3em" style="text-anchor: end; visibility: hidden; font-family: &quot;Helvetica Neue&quot;, sans-serif; font-size: 12px; font-weight: 200;" fill="rgb(50, 49, 63)" stroke="none" stroke-width="1px">-0.01</text><text x="0" y="138.13150678217036" dx="0em" dy="0.3em" style="text-anchor: end; visibility: inherit; font-family: &quot;Helvetica Neue&quot;, sans-serif; font-size: 12px; font-weight: 200;" fill="rgb(50, 49, 63)" stroke="none" stroke-width="1px">-5e-3</text><text x="0" y="120.8098895040841" dx="0em" dy="0.3em" style="text-anchor: end; visibility: hidden; font-family: &quot;Helvetica Neue&quot;, sans-serif; font-size: 12px; font-weight: 200;" fill="rgb(50, 49, 63)" stroke="none" stroke-width="1px">0</text><text x="0" y="103.48827222599783" dx="0em" dy="0.3em" style="text-anchor: end; visibility: inherit; font-family: &quot;Helvetica Neue&quot;, sans-serif; font-size: 12px; font-weight: 200;" fill="rgb(50, 49, 63)" stroke="none" stroke-width="1px">5e-3</text><text x="0" y="86.16665494791157" dx="0em" dy="0.3em" style="text-anchor: end; visibility: hidden; font-family: &quot;Helvetica Neue&quot;, sans-serif; font-size: 12px; font-weight: 200;" fill="rgb(50, 49, 63)" stroke="none" stroke-width="1px">0.01</text><text x="0" y="68.84503766982532" dx="0em" dy="0.3em" style="text-anchor: end; visibility: inherit; font-family: &quot;Helvetica Neue&quot;, sans-serif; font-size: 12px; font-weight: 200;" fill="rgb(50, 49, 63)" stroke="none" stroke-width="1px">0.015</text><text x="0" y="51.52342039173905" dx="0em" dy="0.3em" style="text-anchor: end; visibility: hidden; font-family: &quot;Helvetica Neue&quot;, sans-serif; font-size: 12px; font-weight: 200;" fill="rgb(50, 49, 63)" stroke="none" stroke-width="1px">0.02</text><text x="0" y="34.20180311365277" dx="0em" dy="0.3em" style="text-anchor: end; visibility: inherit; font-family: &quot;Helvetica Neue&quot;, sans-serif; font-size: 12px; font-weight: 200;" fill="rgb(50, 49, 63)" stroke="none" stroke-width="1px">0.025</text><text x="0" y="16.88018583556655" dx="0em" dy="0.3em" style="text-anchor: end; visibility: hidden; font-family: &quot;Helvetica Neue&quot;, sans-serif; font-size: 12px; font-weight: 200;" fill="rgb(50, 49, 63)" stroke="none" stroke-width="1px">0.03</text></g><line x1="68.3125" y1="0" x2="68.3125" y2="177.828125" fill="rgb(0, 0, 0)" stroke="rgb(204, 204, 204)" stroke-width="1px"></line></g></g><g transform="translate(68, 0)" clip-path="url(#clip_0)"><clipPath id="clip_0"><rect width="261" height="177"></rect></clipPath><g><g><g><line x1="30.133236013647746" y1="0" x2="30.133236013647746" y2="177.828125" fill="rgb(0, 0, 0)" stroke="rgb(60, 60, 60)" stroke-width="1px" opacity="0.25"></line><line x1="60.45959885763409" y1="0" x2="60.45959885763409" y2="177.828125" fill="rgb(0, 0, 0)" stroke="rgb(60, 60, 60)" stroke-width="1px" opacity="0.25"></line><line x1="90.78596170162045" y1="0" x2="90.78596170162045" y2="177.828125" fill="rgb(0, 0, 0)" stroke="rgb(60, 60, 60)" stroke-width="1px" opacity="0.25"></line><line x1="121.1123245456068" y1="0" x2="121.1123245456068" y2="177.828125" fill="rgb(0, 0, 0)" stroke="rgb(60, 60, 60)" stroke-width="1px" opacity="0.25"></line><line x1="151.43868738959316" y1="0" x2="151.43868738959316" y2="177.828125" fill="rgb(0, 0, 0)" stroke="rgb(60, 60, 60)" stroke-width="1px" opacity="0.25"></line><line x1="181.7650502335795" y1="0" x2="181.7650502335795" y2="177.828125" fill="rgb(0, 0, 0)" stroke="rgb(60, 60, 60)" stroke-width="1px" opacity="0.25"></line><line x1="212.09141307756582" y1="0" x2="212.09141307756582" y2="177.828125" fill="rgb(0, 0, 0)" stroke="rgb(60, 60, 60)" stroke-width="1px" opacity="0.25"></line><line x1="242.4177759215522" y1="0" x2="242.4177759215522" y2="177.828125" fill="rgb(0, 0, 0)" stroke="rgb(60, 60, 60)" stroke-width="1px" opacity="0.25"></line></g><g><line x1="0" y1="172.77474133834286" x2="261.6875" y2="172.77474133834286" fill="rgb(0, 0, 0)" stroke="rgb(60, 60, 60)" stroke-width="1px" opacity="0.25"></line><line x1="0" y1="155.4531240602566" x2="261.6875" y2="155.4531240602566" fill="rgb(0, 0, 0)" stroke="rgb(60, 60, 60)" stroke-width="1px" opacity="0.25"></line><line x1="0" y1="138.13150678217036" x2="261.6875" y2="138.13150678217036" fill="rgb(0, 0, 0)" stroke="rgb(60, 60, 60)" stroke-width="1px" opacity="0.25"></line><line x1="0" y1="120.8098895040841" x2="261.6875" y2="120.8098895040841" fill="rgb(0, 0, 0)" stroke="rgb(60, 60, 60)" stroke-width="1px" opacity="0.25"></line><line x1="0" y1="103.48827222599783" x2="261.6875" y2="103.48827222599783" fill="rgb(0, 0, 0)" stroke="rgb(60, 60, 60)" stroke-width="1px" opacity="0.25"></line><line x1="0" y1="86.16665494791157" x2="261.6875" y2="86.16665494791157" fill="rgb(0, 0, 0)" stroke="rgb(60, 60, 60)" stroke-width="1px" opacity="0.25"></line><line x1="0" y1="68.84503766982532" x2="261.6875" y2="68.84503766982532" fill="rgb(0, 0, 0)" stroke="rgb(60, 60, 60)" stroke-width="1px" opacity="0.25"></line><line x1="0" y1="51.52342039173905" x2="261.6875" y2="51.52342039173905" fill="rgb(0, 0, 0)" stroke="rgb(60, 60, 60)" stroke-width="1px" opacity="0.25"></line><line x1="0" y1="34.20180311365277" x2="261.6875" y2="34.20180311365277" fill="rgb(0, 0, 0)" stroke="rgb(60, 60, 60)" stroke-width="1px" opacity="0.25"></line><line x1="0" y1="16.88018583556655" x2="261.6875" y2="16.88018583556655" fill="rgb(0, 0, 0)" stroke="rgb(60, 60, 60)" stroke-width="1px" opacity="0.25"></line></g></g></g><g><g><line x1="0" y1="120.8098895040841" x2="261.6875" y2="120.8098895040841" fill="rgb(0, 0, 0)" stroke="rgb(153, 153, 153)" stroke-width="1.5px"></line></g></g><g><g><line x1="30.133236013647746" y1="0" x2="30.133236013647746" y2="177.828125" fill="rgb(0, 0, 0)" stroke="rgb(153, 153, 153)" stroke-width="1.5px"></line></g></g><g><g><g><g><g><path stroke="rgb(255, 112, 67)" stroke-width="2px" d="M31.664717337269057,54.12792901873594L34.69735362166769,43.14121336291615L35.60714450698728,30.28042757699572L37.42672627762646,44.85095588558005L41.06588981890483,61.421906299597964L42.27894433266428,74.51986136851332L42.88547158954401,81.87871166569619L43.49199884642373,86.40071130070577L43.7952624748636,88.13174265954224L44.40178973174333,91.693774636426L46.2213715023825,93.79163022248532L46.52463513082237,95.86841473877712L46.82789875926223,97.22519259029268L47.1311623877021,97.78098822553372L49.86053504366087,94.6443563318214L51.68011681430005,95.77833596773434L51.98338044273991,98.95400113260004L52.28664407117977,98.54400041222723L52.58990769961964,97.45406055130337L54.106225841818954,97.5407417768709L56.53233486933786,96.9714923176429L58.65518026841691,100.98171913743589L61.08128929593582,100.99305034561614L61.991080181255406,100.01280839920145L62.29434380969528,102.6159056110398L64.41718920877432,103.79094771048378L65.93350735097364,102.72519943867674L68.35961637849255,104.4485085795619L69.26940726381214,105.37173352447844L69.57267089225199,104.54858705481499L72.30204354821078,105.53118328401375L72.9085708050905,106.97819622476804L73.21183443353036,107.8828854971893L75.63794346104926,107.99741471924149L77.15426160324859,107.54439647801628L77.76078886012832,107.93878735841275L78.06405248856817,107.74335430015633L79.27710700232763,107.4909075495786L80.79342514452695,107.73991705105267L81.0966887729668,107.52681931456104L82.00647965828641,107.73437845949117L83.82606142892558,108.02232736845346L84.12932505736543,108.2151862324261L85.64564319956476,108.42789463487489L86.25217045644449,108.06005263789592L86.55543408488437,107.31920164753411L87.76848859864381,107.84595827019702L88.07175222708366,105.34454774970403L90.19459762616272,106.86828323577238L92.62070665368162,107.97655618784717L92.92397028212149,108.41510199157995L93.22723391056135,108.41085264743785L94.44028842432081,107.54698936762591L97.7761883371593,108.99930844564473L99.59577010779847,108.26334029708086L100.50556099311808,108.70975833486342L101.1120882499978,109.09146406709404L102.0218791353174,109.90644610492983L105.66104267659576,109.99774022693937L107.48062444723494,106.89858228985541L108.99694258943425,108.73674595791395L109.30020621787412,109.85529543795563L109.90673347475385,109.26045151658465L111.1197879885133,109.41466799830553L112.33284250227275,109.98612541785786L112.93936975915248,110.12826374445805L114.4556879013518,109.14277145866215L118.70137869950987,110.00905897392381L120.2176968417092,110.86850650773803L120.52096047014908,110.80689416206965L121.73401498390852,111.48502857163678L122.03727861234839,111.39794697319516L123.25033312610783,111.40903842811814L123.55359675454771,111.85070594261862L124.16012401142743,112.16877141817903L125.06991489674702,111.50446074979351L126.58623303894635,111.47730298292164L126.8894966673862,110.7973127790933L128.7090784380254,110.8989021746402L129.01234206646524,111.22561846910718L129.31560569490512,111.25100961768325L130.2253965802247,111.22616335211286L132.95476923618347,112.065365031641L135.38087826370236,112.72160135551634L140.2330963187402,112.94162621097861L141.44615083249963,113.2195342120322L143.26573260313884,113.45053120803837L144.47878711689827,113.31510780302538L145.085314373778,113.44119336343209L147.20815977285707,113.44262937294982L148.72447791505635,113.0837148202756L149.02774154349623,113.37225403793462L153.87995959853404,112.98581126626799L156.0028049976131,113.03774094740197L157.82238676825227,113.38017401678164L158.12565039669215,113.47196478964035L158.73217765357185,113.35412343026815L160.55175942421104,113.17873475458784L163.28113208016984,113.61631975665767L163.88765933704954,113.94875318720048L164.19092296548942,114.12555486506608L165.100713850809,113.79450703274716L166.9202956214482,114.04647449965366L169.64966827740693,114.55541963745651L170.55945916272654,112.76000772282735L170.8627227911664,112.97186974885635L173.59209544712516,113.05441388936208L173.89535907556504,113.64154616635851L178.14104987372315,113.93702277823782L178.44431350216297,114.14259268146859L179.05084075904273,114.15236896084255L179.65736801592243,114.56718352156706L183.90305881408054,114.3549633426619L185.41937695627985,113.50081080132199L186.02590421315958,113.39143053932162L186.93569509847916,113.58421852044899L189.36180412599808,113.91309425405754L191.18138589663727,114.3295763199464L191.787913153517,114.39729221929736L192.69770403883658,114.7305661575626L194.51728580947574,114.22754868507073L196.03360395167508,114.4693699464793L196.33686758011495,114.66700563823741L199.06624023607372,115.14976660600018L199.67276749295343,115.36692462877632L200.88582200671289,115.07423418465662L201.18908563515276,114.924798142605L202.70540377735207,115.28628084948039L203.91845829111153,112.9651280962664L204.22172191955138,113.66237005049469L205.7380400617507,113.45148766136967L206.34456731863045,113.79687059115436L206.64783094707028,113.750003718552L207.25435820395003,114.7526255114695L207.86088546082973,114.73496835677825L208.1641490892696,114.32836556525174L209.68046723146892,115.00870500920014L209.9837308599088,114.97141635560753L212.10657625898784,115.45456576961308L212.71310351586757,115.4926363051668L214.53268528650673,115.34021672473193L215.1392125433865,115.19123305515583L216.65553068558577,115.00357888932623L218.1718488277851,115.11944408908272L218.77837608466484,115.36985518331049L222.41753962594322,114.38962181591806L224.54038502502223,115.23107031575557L224.8436486534621,115.42905173990891L225.4501759103418,115.34641805210804L225.7534395387817,115.81261056545571L226.05670316722157,116.05376168930923L226.35996679566145,115.04115189982659L226.96649405254115,115.02569931031043L227.87628493786073,115.38681442402762L229.0893394516202,115.069665173624L230.6056575938195,115.22795148632213L231.51544847913908,115.83601098769219L232.72850299289854,115.8947898114449L233.63829387821815,116.19274338791811L233.941557506658,115.93745984327836L234.54808476353773,115.7667951934597L234.8513483919776,115.61823722891904L235.7611392772972,114.63066191641057L236.06440290573707,114.99924804050593L236.97419379105665,-309.6871369869364" style="fill: none;" fill="none"></path></g></g></g></g><g opacity="0.20000000298023224"><g><g><g><path stroke="rgb(255, 112, 67)" stroke-width="2px" d="M31.664717337269057,54.12792901873594L34.69735362166769,36.54918396942429L35.60714450698728,17.934073222512097L37.42672627762646,61.98589717647525L41.06588981890483,83.05693916013969L42.27894433266428,92.63904849264806L42.88547158954401,92.40198533227243L43.49199884642373,92.99383017974623L43.7952624748636,90.68467767829488L44.40178973174333,96.98297698864371L46.2213715023825,96.91938620581091L46.52463513082237,98.97228974358795L46.82789875926223,99.25592925247443L47.1311623877021,98.61359281688615L49.86053504366087,89.9430954842993L51.68011681430005,97.47850565130732L51.98338044273991,103.7161550448297L52.28664407117977,97.92910343080648L52.58990769961964,95.81931680128515L54.106225841818954,97.67075569221485L56.53233486933786,96.11764934779411L58.65518026841691,106.99692740890367L61.08128929593582,101.01004693417158L61.991080181255406,98.54245709147975L62.29434380969528,106.52053292709651L64.41718920877432,105.5535058486319L65.93350735097364,101.12657975792393L68.35961637849255,107.03346964520416L69.26940726381214,106.75657009143262L69.57267089225199,103.31386780526037L72.30204354821078,107.00507730197229L72.9085708050905,109.14871534799235L73.21183443353036,109.23991929781948L75.63794346104926,108.16920854411627L77.15426160324859,106.86486913564772L77.76078886012832,108.53037366883767L78.06405248856817,107.45020471579534L79.27710700232763,107.11223742605546L80.79342514452695,108.11343130187686L81.0966887729668,107.20717271053574L82.00647965828641,108.04571717647015L83.82606142892558,108.45425073155049L84.12932505736543,108.50447452824584L85.64564319956476,108.74695723845598L86.25217045644449,107.50828964252301L86.55543408488437,106.20792516210692L87.76848859864381,108.63609320414209L88.07175222708366,101.59243196910495L90.19459762616272,109.15388646482359L92.62070665368162,109.63896561593694L92.92397028212149,109.0729206971738L93.22723391056135,108.40447863122475L94.44028842432081,106.25119444791177L97.7761883371593,111.17778706266914L99.59577010779847,107.15938807423622L100.50556099311808,109.37938539153684L101.1120882499978,109.66402266543973L102.0218791353174,111.12891916168326L105.66104267659576,110.13468140995367L107.48062444723494,102.24984538422986L108.99694258943425,111.49399146000165L109.30020621787412,111.5331196580181L109.90673347475385,108.36818563452819L111.1197879885133,109.64599272088682L112.33284250227275,110.84331154718637L112.93936975915248,110.34147123435831L114.4556879013518,107.66453302996831L118.70137869950987,111.3084902468163L120.2176968417092,112.15767780845937L120.52096047014908,110.71447564356711L121.73401498390852,112.50223018598746L122.03727861234839,111.26732457553271L123.25033312610783,111.42567561050258L123.55359675454771,112.51320721436934L124.16012401142743,112.64586963151964L125.06991489674702,110.50799474721525L126.58623303894635,111.43656633261385L126.8894966673862,109.77732747335077L128.7090784380254,111.05128626796056L129.01234206646524,111.71569291080765L129.31560569490512,111.28909634054735L130.2253965802247,111.1888939537573L132.95476923618347,113.3241675509332L135.38087826370236,113.70595584132937L140.2330963187402,113.27166349417203L141.44615083249963,113.63639621361258L143.26573260313884,113.7970267020476L144.47878711689827,113.11197269550591L145.085314373778,113.63032170404215L147.20815977285707,113.44478338722644L148.72447791505635,112.54534299126428L149.02774154349623,113.80506286442315L153.87995959853404,112.40614710876801L156.0028049976131,113.11563546910297L157.82238676825227,113.89382362085115L158.12565039669215,113.60965094892842L158.73217765357185,113.17736139120986L160.55175942421104,112.91565174106736L163.28113208016984,114.27269725976242L163.88765933704954,114.4474033330147L164.19092296548942,114.39075738186447L165.100713850809,113.29793528426879L166.9202956214482,114.42442570001339L169.64966827740693,115.31883734416081L170.55945916272654,110.0668898508836L170.8627227911664,113.28966278789986L173.59209544712516,113.17823010012067L173.89535907556504,114.52224458185314L178.14104987372315,114.38023769605678L178.44431350216297,114.45094753631474L179.05084075904273,114.16703337990353L179.65736801592243,115.18940536265379L183.90305881408054,114.0366330743042L185.41937695627985,112.21958198931212L186.02590421315958,113.22736014632106L186.93569509847916,113.87340049214004L189.36180412599808,114.40640785447039L191.18138589663727,114.95429941877964L191.787913153517,114.4988660683238L192.69770403883658,115.2304770649605L194.51728580947574,113.47302247633291L196.03360395167508,114.83210183859215L196.33686758011495,114.96345917587456L199.06624023607372,115.87390805764437L199.67276749295343,115.6926616629405L200.88582200671289,114.6351985184771L201.18908563515276,114.70064407952756L202.70540377735207,115.8285049097935L203.91845829111153,109.48339896644539L204.22172191955138,114.70823298183714L205.7380400617507,113.13516407768213L206.34456731863045,114.31494498583139L206.64783094707028,113.67970340964845L207.25435820395003,116.25655820084575L207.86088546082973,114.70848262474141L208.1641490892696,113.71846137796196L209.68046723146892,116.02921417512275L209.9837308599088,114.91548337521863L212.10657625898784,116.17928989062136L212.71310351586757,115.54974210849736L214.53268528650673,115.11158735407963L215.1392125433865,114.9677575507917L216.65553068558577,114.72209764058181L218.1718488277851,115.29324188871746L218.77837608466484,115.74547182465213L222.41753962594322,112.91927176482945L224.54038502502223,116.49324306551183L224.8436486534621,115.72602387613895L225.4501759103418,115.22246752040672L225.7534395387817,116.51189933547722L226.05670316722157,116.4154883750895L226.35996679566145,113.52223721560262L226.96649405254115,115.00252042603623L227.87628493786073,115.92848709460337L229.0893394516202,114.59394129801859L230.6056575938195,115.46538095536931L231.51544847913908,116.74810023974732L232.72850299289854,115.98295804707392L233.63829387821815,116.63967375262794L233.941557506658,115.55453452631872L234.54808476353773,115.51079821873174L234.8513483919776,115.39540028210801L235.7611392772972,113.14929894764792L236.06440290573707,115.55212722664896L236.97419379105665,-946.7167145280998" style="fill: none;" fill="none"></path></g></g></g></g></g></g><g transform="translate(68, 177)" clip-path="url(#clip_1)"><clipPath id="clip_1"><rect width="261" height="22"></rect></clipPath><g><g><line x1="30.133236013647746" y1="0" x2="30.133236013647746" y2="5" style="visibility: inherit;" fill="rgb(0, 0, 0)" stroke="rgb(204, 204, 204)" stroke-width="1px"></line><line x1="60.45959885763409" y1="0" x2="60.45959885763409" y2="5" style="visibility: inherit;" fill="rgb(0, 0, 0)" stroke="rgb(204, 204, 204)" stroke-width="1px"></line><line x1="90.78596170162045" y1="0" x2="90.78596170162045" y2="5" style="visibility: inherit;" fill="rgb(0, 0, 0)" stroke="rgb(204, 204, 204)" stroke-width="1px"></line><line x1="121.1123245456068" y1="0" x2="121.1123245456068" y2="5" style="visibility: inherit;" fill="rgb(0, 0, 0)" stroke="rgb(204, 204, 204)" stroke-width="1px"></line><line x1="151.43868738959316" y1="0" x2="151.43868738959316" y2="5" style="visibility: inherit;" fill="rgb(0, 0, 0)" stroke="rgb(204, 204, 204)" stroke-width="1px"></line><line x1="181.7650502335795" y1="0" x2="181.7650502335795" y2="5" style="visibility: inherit;" fill="rgb(0, 0, 0)" stroke="rgb(204, 204, 204)" stroke-width="1px"></line><line x1="212.09141307756582" y1="0" x2="212.09141307756582" y2="5" style="visibility: inherit;" fill="rgb(0, 0, 0)" stroke="rgb(204, 204, 204)" stroke-width="1px"></line><line x1="242.4177759215522" y1="0" x2="242.4177759215522" y2="5" style="visibility: inherit;" fill="rgb(0, 0, 0)" stroke="rgb(204, 204, 204)" stroke-width="1px"></line></g><g transform="translate(0, 8)"><text x="30.133236013647746" y="0" dx="0em" dy="0.95em" style="text-anchor: middle; visibility: inherit; font-family: &quot;Helvetica Neue&quot;, sans-serif; font-size: 12px; font-weight: 200;" fill="rgb(50, 49, 63)" stroke="none" stroke-width="1px">0</text><text x="60.45959885763409" y="0" dx="0em" dy="0.95em" style="text-anchor: middle; visibility: inherit; font-family: &quot;Helvetica Neue&quot;, sans-serif; font-size: 12px; font-weight: 200;" fill="rgb(50, 49, 63)" stroke="none" stroke-width="1px">2k</text><text x="90.78596170162045" y="0" dx="0em" dy="0.95em" style="text-anchor: middle; visibility: inherit; font-family: &quot;Helvetica Neue&quot;, sans-serif; font-size: 12px; font-weight: 200;" fill="rgb(50, 49, 63)" stroke="none" stroke-width="1px">4k</text><text x="121.1123245456068" y="0" dx="0em" dy="0.95em" style="text-anchor: middle; visibility: inherit; font-family: &quot;Helvetica Neue&quot;, sans-serif; font-size: 12px; font-weight: 200;" fill="rgb(50, 49, 63)" stroke="none" stroke-width="1px">6k</text><text x="151.43868738959316" y="0" dx="0em" dy="0.95em" style="text-anchor: middle; visibility: inherit; font-family: &quot;Helvetica Neue&quot;, sans-serif; font-size: 12px; font-weight: 200;" fill="rgb(50, 49, 63)" stroke="none" stroke-width="1px">8k</text><text x="181.7650502335795" y="0" dx="0em" dy="0.95em" style="text-anchor: middle; visibility: inherit; font-family: &quot;Helvetica Neue&quot;, sans-serif; font-size: 12px; font-weight: 200;" fill="rgb(50, 49, 63)" stroke="none" stroke-width="1px">10k</text><text x="212.09141307756582" y="0" dx="0em" dy="0.95em" style="text-anchor: middle; visibility: inherit; font-family: &quot;Helvetica Neue&quot;, sans-serif; font-size: 12px; font-weight: 200;" fill="rgb(50, 49, 63)" stroke="none" stroke-width="1px">12k</text><text x="242.4177759215522" y="0" dx="0em" dy="0.95em" style="text-anchor: middle; visibility: inherit; font-family: &quot;Helvetica Neue&quot;, sans-serif; font-size: 12px; font-weight: 200;" fill="rgb(50, 49, 63)" stroke="none" stroke-width="1px">14k</text></g><line x1="0" y1="0" x2="261.6875" y2="0" fill="rgb(0, 0, 0)" stroke="rgb(204, 204, 204)" stroke-width="1px"></line></g></g></g></g></svg>