<svg viewBox="0 0 330 200" xmlns="http://www.w3.org/2000/svg"><g><g><g><g><g><line x1="58.59375" y1="177.828125" x2="53.59375" y2="177.828125" style="visibility: inherit;" fill="rgb(0, 0, 0)" stroke="rgb(204, 204, 204)" stroke-width="1px"></line><line x1="58.59375" y1="158.06944444444446" x2="53.59375" y2="158.06944444444446" style="visibility: inherit;" fill="rgb(0, 0, 0)" stroke="rgb(204, 204, 204)" stroke-width="1px"></line><line x1="58.59375" y1="138.31076388888889" x2="53.59375" y2="138.31076388888889" style="visibility: inherit;" fill="rgb(0, 0, 0)" stroke="rgb(204, 204, 204)" stroke-width="1px"></line><line x1="58.59375" y1="118.55208333333334" x2="53.59375" y2="118.55208333333334" style="visibility: inherit;" fill="rgb(0, 0, 0)" stroke="rgb(204, 204, 204)" stroke-width="1px"></line><line x1="58.59375" y1="98.79340277777779" x2="53.59375" y2="98.79340277777779" style="visibility: inherit;" fill="rgb(0, 0, 0)" stroke="rgb(204, 204, 204)" stroke-width="1px"></line><line x1="58.59375" y1="79.03472222222224" x2="53.59375" y2="79.03472222222224" style="visibility: inherit;" fill="rgb(0, 0, 0)" stroke="rgb(204, 204, 204)" stroke-width="1px"></line><line x1="58.59375" y1="59.27604166666667" x2="53.59375" y2="59.27604166666667" style="visibility: inherit;" fill="rgb(0, 0, 0)" stroke="rgb(204, 204, 204)" stroke-width="1px"></line><line x1="58.59375" y1="39.51736111111114" x2="53.59375" y2="39.51736111111114" style="visibility: inherit;" fill="rgb(0, 0, 0)" stroke="rgb(204, 204, 204)" stroke-width="1px"></line><line x1="58.59375" y1="19.75868055555557" x2="53.59375" y2="19.75868055555557" style="visibility: inherit;" fill="rgb(0, 0, 0)" stroke="rgb(204, 204, 204)" stroke-width="1px"></line><line x1="58.59375" y1="0" x2="53.59375" y2="0" style="visibility: inherit;" fill="rgb(0, 0, 0)" stroke="rgb(204, 204, 204)" stroke-width="1px"></line></g><g transform="translate(48.59375, 0)"><text x="0" y="177.828125" dx="0em" dy="0.3em" style="text-anchor: end; visibility: hidden; font-family: &quot;Helvetica Neue&quot;, sans-serif; font-size: 12px; font-weight: 200;" fill="rgb(50, 49, 63)" stroke="none" stroke-width="1px">-2e-3</text><text x="0" y="158.06944444444446" dx="0em" dy="0.3em" style="text-anchor: end; visibility: inherit; font-family: &quot;Helvetica Neue&quot;, sans-serif; font-size: 12px; font-weight: 200;" fill="rgb(50, 49, 63)" stroke="none" stroke-width="1px">0</text><text x="0" y="138.31076388888889" dx="0em" dy="0.3em" style="text-anchor: end; visibility: hidden; font-family: &quot;Helvetica Neue&quot;, sans-serif; font-size: 12px; font-weight: 200;" fill="rgb(50, 49, 63)" stroke="none" stroke-width="1px">2e-3</text><text x="0" y="118.55208333333334" dx="0em" dy="0.3em" style="text-anchor: end; visibility: inherit; font-family: &quot;Helvetica Neue&quot;, sans-serif; font-size: 12px; font-weight: 200;" fill="rgb(50, 49, 63)" stroke="none" stroke-width="1px">4e-3</text><text x="0" y="98.79340277777779" dx="0em" dy="0.3em" style="text-anchor: end; visibility: hidden; font-family: &quot;Helvetica Neue&quot;, sans-serif; font-size: 12px; font-weight: 200;" fill="rgb(50, 49, 63)" stroke="none" stroke-width="1px">6e-3</text><text x="0" y="79.03472222222224" dx="0em" dy="0.3em" style="text-anchor: end; visibility: inherit; font-family: &quot;Helvetica Neue&quot;, sans-serif; font-size: 12px; font-weight: 200;" fill="rgb(50, 49, 63)" stroke="none" stroke-width="1px">8e-3</text><text x="0" y="59.27604166666667" dx="0em" dy="0.3em" style="text-anchor: end; visibility: hidden; font-family: &quot;Helvetica Neue&quot;, sans-serif; font-size: 12px; font-weight: 200;" fill="rgb(50, 49, 63)" stroke="none" stroke-width="1px">0.01</text><text x="0" y="39.51736111111114" dx="0em" dy="0.3em" style="text-anchor: end; visibility: inherit; font-family: &quot;Helvetica Neue&quot;, sans-serif; font-size: 12px; font-weight: 200;" fill="rgb(50, 49, 63)" stroke="none" stroke-width="1px">0.012</text><text x="0" y="19.75868055555557" dx="0em" dy="0.3em" style="text-anchor: end; visibility: hidden; font-family: &quot;Helvetica Neue&quot;, sans-serif; font-size: 12px; font-weight: 200;" fill="rgb(50, 49, 63)" stroke="none" stroke-width="1px">0.014</text><text x="0" y="0" dx="0em" dy="0.3em" style="text-anchor: end; visibility: hidden; font-family: &quot;Helvetica Neue&quot;, sans-serif; font-size: 12px; font-weight: 200;" fill="rgb(50, 49, 63)" stroke="none" stroke-width="1px">0.016</text></g><line x1="58.59375" y1="0" x2="58.59375" y2="177.828125" fill="rgb(0, 0, 0)" stroke="rgb(204, 204, 204)" stroke-width="1px"></line></g></g><g transform="translate(58, 0)" clip-path="url(#clip_0)"><clipPath id="clip_0"><rect width="271" height="177"></rect></clipPath><g><g><g><line x1="0" y1="0" x2="0" y2="177.828125" fill="rgb(0, 0, 0)" stroke="rgb(60, 60, 60)" stroke-width="1px" opacity="0.25"></line><line x1="24.673295454545457" y1="0" x2="24.673295454545457" y2="177.828125" fill="rgb(0, 0, 0)" stroke="rgb(60, 60, 60)" stroke-width="1px" opacity="0.25"></line><line x1="49.346590909090914" y1="0" x2="49.346590909090914" y2="177.828125" fill="rgb(0, 0, 0)" stroke="rgb(60, 60, 60)" stroke-width="1px" opacity="0.25"></line><line x1="74.01988636363636" y1="0" x2="74.01988636363636" y2="177.828125" fill="rgb(0, 0, 0)" stroke="rgb(60, 60, 60)" stroke-width="1px" opacity="0.25"></line><line x1="98.69318181818183" y1="0" x2="98.69318181818183" y2="177.828125" fill="rgb(0, 0, 0)" stroke="rgb(60, 60, 60)" stroke-width="1px" opacity="0.25"></line><line x1="123.36647727272727" y1="0" x2="123.36647727272727" y2="177.828125" fill="rgb(0, 0, 0)" stroke="rgb(60, 60, 60)" stroke-width="1px" opacity="0.25"></line><line x1="148.03977272727272" y1="0" x2="148.03977272727272" y2="177.828125" fill="rgb(0, 0, 0)" stroke="rgb(60, 60, 60)" stroke-width="1px" opacity="0.25"></line><line x1="172.7130681818182" y1="0" x2="172.7130681818182" y2="177.828125" fill="rgb(0, 0, 0)" stroke="rgb(60, 60, 60)" stroke-width="1px" opacity="0.25"></line><line x1="197.38636363636365" y1="0" x2="197.38636363636365" y2="177.828125" fill="rgb(0, 0, 0)" stroke="rgb(60, 60, 60)" stroke-width="1px" opacity="0.25"></line><line x1="222.0596590909091" y1="0" x2="222.0596590909091" y2="177.828125" fill="rgb(0, 0, 0)" stroke="rgb(60, 60, 60)" stroke-width="1px" opacity="0.25"></line><line x1="246.73295454545453" y1="0" x2="246.73295454545453" y2="177.828125" fill="rgb(0, 0, 0)" stroke="rgb(60, 60, 60)" stroke-width="1px" opacity="0.25"></line><line x1="271.40625" y1="0" x2="271.40625" y2="177.828125" fill="rgb(0, 0, 0)" stroke="rgb(60, 60, 60)" stroke-width="1px" opacity="0.25"></line></g><g><line x1="0" y1="177.828125" x2="271.40625" y2="177.828125" fill="rgb(0, 0, 0)" stroke="rgb(60, 60, 60)" stroke-width="1px" opacity="0.25"></line><line x1="0" y1="158.06944444444446" x2="271.40625" y2="158.06944444444446" fill="rgb(0, 0, 0)" stroke="rgb(60, 60, 60)" stroke-width="1px" opacity="0.25"></line><line x1="0" y1="138.31076388888889" x2="271.40625" y2="138.31076388888889" fill="rgb(0, 0, 0)" stroke="rgb(60, 60, 60)" stroke-width="1px" opacity="0.25"></line><line x1="0" y1="118.55208333333334" x2="271.40625" y2="118.55208333333334" fill="rgb(0, 0, 0)" stroke="rgb(60, 60, 60)" stroke-width="1px" opacity="0.25"></line><line x1="0" y1="98.79340277777779" x2="271.40625" y2="98.79340277777779" fill="rgb(0, 0, 0)" stroke="rgb(60, 60, 60)" stroke-width="1px" opacity="0.25"></line><line x1="0" y1="79.03472222222224" x2="271.40625" y2="79.03472222222224" fill="rgb(0, 0, 0)" stroke="rgb(60, 60, 60)" stroke-width="1px" opacity="0.25"></line><line x1="0" y1="59.27604166666667" x2="271.40625" y2="59.27604166666667" fill="rgb(0, 0, 0)" stroke="rgb(60, 60, 60)" stroke-width="1px" opacity="0.25"></line><line x1="0" y1="39.51736111111114" x2="271.40625" y2="39.51736111111114" fill="rgb(0, 0, 0)" stroke="rgb(60, 60, 60)" stroke-width="1px" opacity="0.25"></line><line x1="0" y1="19.75868055555557" x2="271.40625" y2="19.75868055555557" fill="rgb(0, 0, 0)" stroke="rgb(60, 60, 60)" stroke-width="1px" opacity="0.25"></line><line x1="0" y1="0" x2="271.40625" y2="0" fill="rgb(0, 0, 0)" stroke="rgb(60, 60, 60)" stroke-width="1px" opacity="0.25"></line></g></g></g><g><g><line x1="0" y1="158.06944444444446" x2="271.40625" y2="158.06944444444446" fill="rgb(0, 0, 0)" stroke="rgb(153, 153, 153)" stroke-width="1.5px"></line></g></g><g><g><line x1="24.673295454545457" y1="0" x2="24.673295454545457" y2="177.828125" fill="rgb(0, 0, 0)" stroke="rgb(153, 153, 153)" stroke-width="1.5px"></line></g></g><g><g><g><g><g><path stroke="rgb(255, 112, 67)" stroke-width="2px" d="M34.554950284090914,-8.62476348711428L35.048416193181815,4.504887880832683L35.54188210227273,10.110999920582657L36.03534801136363,20.917311517422945L36.528813920454546,27.928726037893227L37.022279829545454,30.662381539367715L37.51574573863636,36.67002158838045L38.00921164772728,43.2083979302366L38.50267755681818,45.45227984878167L38.99614346590909,52.324160718629784L39.489609375,57.93183320209276L39.98307528409091,62.84726439884203L40.47654119318182,65.5989241532708L40.970007102272724,7.952231472329515L41.46347301136364,19.400074182342507L41.95693892045454,30.688836860125605L42.450404829545455,39.25715296200471L42.94387073863636,47.22351549619589L43.43733664772727,52.01083589272852L43.930802556818186,58.03919279979306L44.42426846590909,62.686730957737794L44.917734375,62.26205363214602L45.41120028409091,65.82448715734098L45.90466619318182,67.73144623741808L46.398132102272726,71.8939707524284L46.891598011363634,75.38487458654602L47.38506392045455,77.82507259184969L47.87852982954546,79.09967804792551L48.371995738636365,80.24793538367597L48.86546164772727,82.04075939337582L49.35892755681818,85.6966666784921L49.85239346590909,87.23292183764991L50.345859374999996,85.20938786086354L50.83932528409091,86.64958821944761L51.33279119318182,89.94420712691668L51.82625710227273,90.9318203501579L52.319723011363635,87.52193410897877L52.81318892045454,88.61679176917531L53.30665482954546,89.44950083421745L53.800120738636366,90.46618026985035L54.293586647727274,91.50866502240551L54.78705255681818,93.16639781092444L55.28051846590909,91.97805225406334L55.773984375,93.44283291973132L56.267450284090906,96.15231536319597L56.76091619318182,97.55151704133215L57.25438210227273,98.24414409744276L57.74784801136364,100.6233876292311L58.241313920454544,101.04612833680117L58.73477982954545,99.37999895679576L59.22824573863636,100.14715918022088L59.721711647727275,100.46921994981011L60.21517755681818,97.63680503890899L60.70864346590909,98.13738632679514L61.202109375,100.14615279262635L61.69557528409091,101.70542165570275L62.18904119318182,103.41803582744205L62.68250710227273,103.96111981180894L63.17597301136364,102.66318193412464L63.669438920454546,100.48514100981855L64.16290482954545,101.2975581770485L64.65637073863637,102.45826804825653L65.14983664772727,104.5223711518762L65.64330255681818,104.83148273458924L66.1367684659091,104.46248313388404L66.630234375,105.46977551120327L67.12370028409092,105.28044550537754L67.61716619318182,104.89827356144076L68.11063210227272,104.05719806104952L68.60409801136363,103.05849131409121L69.09756392045455,105.63456004757728L69.59102982954546,104.05399632273587L70.08449573863636,106.06826985748766L70.57796164772726,106.25848197385234L71.07142755681818,108.78546635923743L71.5648934659091,108.89641585560607L72.05835937500001,101.97203218024387L72.55182528409091,103.8358974533967L73.04529119318181,103.34883684817063L73.53875710227273,106.04232261826873L74.03222301136364,107.15232396111762L74.52568892045456,108.2203485924265L75.01915482954544,108.8698399961394L75.51262073863636,109.99068728042043L76.00608664772727,111.98092178983512L76.49955255681819,112.49136219558555L76.9930184659091,113.87991061399372L77.48648437499999,113.55201037184611L77.9799502840909,116.72725577776279L78.47341619318182,117.13678332691563L78.96688210227273,116.70081276243927L79.46034801136365,116.82658163369956L79.95381392045454,116.99065147944432L80.44727982954545,117.44589972667885L80.94074573863637,117.75881590247405L81.43421164772728,117.51539955287939L81.92767755681818,113.67887102137566L82.42114346590908,113.47454079470528L82.914609375,113.80463668821682L83.40807528409091,113.78889021435836L83.90154119318183,114.895924421833L84.39500710227271,116.13256531170941L84.88847301136363,115.48996214092446L85.38193892045454,116.00678545955192L85.87540482954546,116.39726375209084L86.36887073863637,118.02968738377719L86.86233664772726,117.40371851989009L87.35580255681818,117.74119113286976L87.84926846590909,119.23175639650233L88.342734375,121.51628824339244L88.83620028409092,122.30421646083609L89.32966619318181,122.87679124222345L89.82313210227272,120.80132325455082L90.31659801136364,118.07510407507465L90.81006392045455,118.9079823765671L91.30352982954547,120.52198317222971L91.79699573863635,116.10245357056823L92.29046164772727,117.34520839187806L92.78392755681818,116.87216049857969L93.2773934659091,117.05691379792088L93.77085937499999,116.91506505476676L94.2643252840909,117.04128387297108L94.75779119318182,117.32155074529298L95.25125710227273,118.03446997756765L95.74472301136365,118.31711318167295L96.23818892045453,116.93468105950836L96.73165482954545,117.31814830956773L97.22512073863636,118.21236282083336L97.71858664772728,119.07187918626363L98.2120525568182,117.82734078032206L98.70551846590908,119.02285466458082L99.198984375,119.61918270762907L99.69245028409091,117.99490907158425L100.18591619318182,118.36305157637659L100.67938210227274,120.19020934826037L101.17284801136363,120.22489295257888L101.66631392045454,120.80262117730682L102.15977982954546,121.15556516481153L102.65324573863637,119.54121655370824L103.14671164772727,121.15342150779206L103.64017755681817,121.9785348626889L104.13364346590909,122.12716641059706L104.627109375,120.59815150715872L105.12057528409092,121.31684812974831L105.6140411931818,120.93468132800979L106.10750710227272,120.89158722183264L106.60097301136364,120.29271754639527L107.09443892045455,120.35963955325843L107.58790482954547,120.96309819610127L108.08137073863635,122.95095232800566L108.57483664772727,123.57406339485655L109.06830255681818,122.76179711426923L109.5617684659091,122.66098171351643L110.05523437500001,123.60125803024002L110.5487002840909,124.18909192160231L111.04216619318181,124.83231203963126L111.53563210227273,125.37851919361475L112.02909801136364,125.60161582060029L112.52256392045454,125.75566766448097L113.01602982954545,126.42847107190977L113.50949573863636,126.77563026862393L114.00296164772728,127.64870623526912L114.49642755681819,127.05362611984273L114.98989346590909,127.11865845474074L115.48335937499999,125.6535871972312L115.9768252840909,126.95378671639025L116.47029119318182,126.51801409189412L116.96375710227274,127.49932686118424L117.45722301136364,128.2306154316699L117.95068892045454,128.17213153585635L118.44415482954545,128.00739186663563L118.93762073863637,127.53802244147091L119.43108664772728,127.88882256515741L119.92455255681817,127.57770255767437L120.41801846590909,128.28275679870592L120.911484375,127.96818719363634L121.40495028409092,129.1867946878796L121.89841619318182,129.3403683971755L122.39188210227272,128.29481120894476L122.88534801136363,127.83137881253614L123.37881392045455,128.1536171676694L123.87227982954546,127.65856110541952L124.36574573863636,128.61161663263658L124.85921164772726,128.35122972055368L125.35267755681818,128.46282128086517L125.8461434659091,127.71076012758546L126.33960937500001,128.10362328412953L126.83307528409091,128.98863237288668L127.32654119318181,119.96589343038701L127.82000710227273,120.86917137949429L128.31347301136364,121.18894133869776L128.80693892045454,122.49675988608303L129.30040482954544,123.69473171427L129.79387073863637,125.26055353732443L130.28733664772727,126.26592102611858L130.78080255681817,127.27001937231981L131.27426846590907,128.54566925094903L131.767734375,127.06124594378775L132.2612002840909,128.24816668683093L132.75466619318183,128.58343573519196L133.24813210227273,128.836342254726L133.74159801136364,129.7383993835682L134.23506392045454,130.65011022441718L134.72852982954547,129.98670962518918L135.22199573863637,130.06342171933886L135.71546164772727,129.74234996169037L136.2089275568182,130.58950788802795L136.7023934659091,130.8197209865028L137.195859375,129.2800199907812L137.6893252840909,127.73432825434213L138.1827911931818,129.41450511122244L138.67625710227273,129.35779115231415L139.16972301136363,130.10864244548748L139.66318892045456,129.33568591123594L140.15665482954546,130.01573013652734L140.65012073863636,130.89146174234753L141.1435866477273,132.24342856797844L141.6370525568182,132.453310651635L142.1305184659091,132.2121611330704L142.623984375,131.03749311480462L143.1174502840909,132.29442524930937L143.61091619318182,131.80174572271653L144.10438210227272,131.9291050667853L144.59784801136365,132.2986568675118L145.09131392045455,131.85389696132057L145.58477982954545,131.76367945072468L146.07824573863638,131.66077024142334L146.57171164772726,131.0584495259688L147.06517755681818,131.05583743425814L147.55864346590909,128.93367700100376L148.052109375,129.66645882119636L148.54557528409092,130.61913800998263L149.03904119318182,129.67503032452728L149.53250710227275,130.96079471136866L150.02597301136365,130.77244403477607L150.51943892045455,130.977216660075L151.01290482954548,131.9804284602362L151.50637073863635,132.6235110785441L151.99983664772725,131.8470563788504L152.49330255681818,130.56393197697525L152.98676846590908,131.34108846993206L153.480234375,131.37235817861398L153.9737002840909,131.79696955175584L154.46716619318184,131.95770748263902L154.96063210227274,130.0669674056922L155.45409801136364,129.21358718171058L155.94756392045454,129.55514009186635L156.44102982954544,130.1614080434861L156.93449573863634,129.96513267721724L157.42796164772727,130.68828611567406L157.92142755681817,131.85163357466075L158.4148934659091,131.82261166242677L158.908359375,132.78771373305963L159.4018252840909,131.90744091970916L159.89529119318183,131.40703894388784L160.3887571022727,131.17828139205182L160.88222301136364,131.69519828636473L161.37568892045454,131.40403691714786L161.86915482954544,130.7028150868794L162.36262073863637,128.05574275065314L162.85608664772727,126.99575067888986L163.3495525568182,127.96160990399835L163.8430184659091,127.7251409212118L164.336484375,128.7041305588149L164.82995028409093,130.20915691836416L165.3234161931818,131.8058368728997L165.81688210227273,131.55873318248342L166.31034801136363,132.62239155236003L166.80381392045453,132.2782570669327L167.29727982954546,132.15553605610492L167.79074573863636,133.43079647978936L168.2842116477273,133.81998885465015L168.7776775568182,134.0751180722065L169.2711434659091,134.52031220064134L169.764609375,133.75123737553162L170.2580752840909,132.08751900261845L170.75154119318182,131.7921346315991L171.24500710227272,133.51201031837476L171.73847301136362,133.52243499181424L172.23193892045455,133.3004526493491L172.72540482954545,133.8850299611547L173.21887073863638,134.46710478645002L173.71233664772728,132.3233616214392L174.20580255681818,131.98722536624948L174.69926846590909,132.4373511224938L175.192734375,133.66893221990733L175.68620028409092,133.01266077774102L176.17966619318182,133.7521425163358L176.67313210227272,133.5534670047378L177.16659801136365,133.90650962398928L177.66006392045455,134.17263220304807L178.15352982954548,134.2009187954114L178.64699573863638,133.8685822176929L179.14046164772725,134.49627930876358L179.63392755681818,133.61083873224425L180.12739346590908,132.98204653324058L180.62085937499998,133.05756881853193L181.1143252840909,133.55946037646635L181.6077911931818,133.99071063008847L182.10125710227274,134.14494575280963L182.59472301136364,134.82854000370511L183.08818892045457,136.09250592260508L183.58165482954547,135.29192826309395L184.07512073863634,135.72008569191195L184.56858664772727,135.88686512254367L185.06205255681817,135.3807113682536L185.55551846590907,132.71508875335138L186.048984375,133.81795884749204L186.5424502840909,135.1611452396585L187.03591619318183,133.86772684567475L187.52938210227273,134.30997542121L188.02284801136364,135.3662952599724L188.51631392045454,136.272617636175L189.00977982954544,136.44223988619092L189.50324573863637,136.61311737640526L189.99671164772727,136.46306191760385L190.49017755681817,136.31318312301306L190.9836434659091,135.74632377759613L191.477109375,136.2509926350366L191.97057528409093,136.24467230126214L192.46404119318183,136.382507614304L192.95750710227273,135.59014938624918L193.45097301136363,135.94289733572148L193.94443892045453,136.13035532620907L194.43790482954546,135.76793419145542L194.93137073863636,135.6590061865046L195.42483664772726,136.46985875569945L195.9183025568182,136.44680008445985L196.4117684659091,135.77680870369386L196.90523437500002,135.8454272762125L197.39870028409092,136.36073992627016L197.8921661931818,135.20361837826874L198.38563210227272,135.60045808396794L198.87909801136362,135.92338934792147L199.37256392045455,136.26633628515788L199.86602982954545,136.46486563358226L200.35949573863635,135.29143938832266L200.85296164772728,135.22668518967228L201.34642755681818,134.51767737640589L201.8398934659091,134.7865135328817L202.33335937500001,134.99463710951645L202.8268252840909,134.87754485745108L203.32029119318182,135.05598176446352L203.81375710227272,135.27526274769846L204.30722301136365,133.80950457028166L204.80068892045455,134.4576365630158L205.29415482954545,133.985969189712L205.78762073863638,134.80372706451215L206.28108664772728,135.80923318298608L206.7745525568182,134.2272019054679L207.26801846590908,134.53685650269196L207.76148437499998,135.22283013370966L208.2549502840909,135.72429069069878L208.7484161931818,136.3192466831302L209.2418821022727,137.30115826944802L209.73534801136364,136.51994264809656L210.22881392045454,137.43324386993368L210.72227982954547,137.7318243044767L211.21574573863637,137.3439692071712L211.7092116477273,135.88178419714848L212.20267755681817,137.1537021691684L212.69614346590907,137.3917366209621L213.189609375,137.69565574521675L213.6830752840909,137.19694596363286L214.16420454545454,136.67794386876682L214.65767045454544,137.15965176933162L215.13879971590907,136.96776573747735L215.632265625,136.83975213572492L216.1257315340909,136.46389324658145L216.61919744318183,136.39944602947125L217.10032670454547,136.26708038310056L217.59379261363637,134.73898523628895L218.074921875,135.13858484698142L218.5683877840909,135.18783111705926L219.06185369318183,136.0323469593847L219.54298295454547,136.78073916078486L220.0241122159091,137.57454845666908L220.50524147727273,137.20308381773577L220.99870738636363,136.88206482991438L221.49217329545453,137.05172926326605L221.98563920454546,134.09998675277967L222.44209517045454,134.5152227577085L222.9108877840909,135.6524019428627L223.37968039772727,135.60809615398966L223.84847301136364,136.39782509750404L224.317265625,136.92543610770204L225.24251420454547,135.9665795228508L225.7236434659091,137.28749645912245L226.19243607954544,137.9916016745119L226.66122869318184,138.44758355374555L227.10534801136362,138.48211081277515L227.574140625,139.01947182626583L227.99358664772728,138.0653889419511L228.36368607954546,138.9520608114145L228.73378551136364,139.4224240840725L229.16556818181817,138.49396963329954L229.51099431818182,137.84304022055147L230.30053977272726,138.52136936764168L230.6953125,139.39655117700121L233.49573153409094,139.68314832982085L233.76713778409092,140.12667980493492L234.21125710227273,140.25898653682003L234.3963068181818,139.81715529973715L234.76640625,139.68119740148015L235.60529829545456,139.1490808189469L235.8890411931818,139.42323135847792L236.0740909090909,139.44561279816713L236.4812002840909,140.15325142945517L236.9870028409091,140.62970176632035L238.2453409090909,140.6696034444637L238.55375710227273,141.26971301474254L240.49061079545453,141.5391353358095L240.53995738636365,141.240371061836L240.62631392045455,141.253957338354L240.67566051136365,141.57916431252562L241.1814630681818,141.29668679893405L241.44053267045456,141.5981199200266L242.64952414772728,141.68837715909743L242.98261363636362,142.40079740761448L243.2170099431818,142.3803487024756L243.37738636363636,142.09299867084536" style="fill: none;" fill="none"></path></g></g></g></g><g opacity="0.20000000298023224"><g><g><g><path stroke="rgb(255, 112, 67)" stroke-width="2px" d="M30.11375710227273,-10.612068504508983L30.607223011363637,17.91173393422895L31.100688920454544,-217.16075772233307L31.594154829545452,-7.648400267818943L32.08762073863636,40.961792733048156L32.58108664772727,37.15320099913518L33.07455255681818,49.53534042506686L33.56801846590909,43.67353242406779L34.061484375,50.5490995679219L34.554950284090914,38.32167247884598L35.048416193181815,67.74239243297943L35.54188210227273,37.2076884483686L36.03534801136363,73.30167639973419L36.528813920454546,61.99951465298527L37.022279829545454,43.97283615989406L37.51574573863636,65.9706394484836L38.00921164772728,75.14166290728221L38.50267755681818,56.423926775382526L38.99614346590909,85.9568189242693L39.489609375,85.39886541993151L39.98307528409091,86.93943778142179L40.47654119318182,79.0930886773147L40.970007102272724,-274.8757924490815L41.46347301136364,75.58698417423552L41.95693892045454,86.1122949318928L42.450404829545455,81.33519844875102L42.94387073863636,86.35387711878867L43.43733664772727,75.53012290502538L43.930802556818186,87.65989214436074L44.42426846590909,85.52551975671345L44.917734375,60.17490277017028L45.41120028409091,83.33418489047715L45.90466619318182,77.10499604509421L46.398132102272726,92.35583250694133L46.891598011363634,92.54606933577453L47.38506392045455,89.82151285705106L47.87852982954546,85.36607358118313L48.371995738636365,85.89331923989167L48.86546164772727,90.85534826032948L49.35892755681818,103.67162991727756L49.85239346590909,94.78633433625996L50.345859374999996,75.26000427371928L50.83932528409091,93.73089533102272L51.33279119318182,106.14363679277854L51.82625710227273,95.78788854811057L52.319723011363635,70.75550605166549L52.81318892045454,94.0002410907085L53.30665482954546,93.54397540956012L53.800120738636366,95.46526525131131L54.293586647727274,96.6346522158581L54.78705255681818,101.31763317751918L55.28051846590909,86.13482781996655L55.773984375,100.64533147678272L56.267450284090906,109.47517811946778L56.76091619318182,104.43157433967443L57.25438210227273,101.64988516658843L57.74784801136364,112.32246017090317L58.241313920454544,103.12480484418727L58.73477982954545,91.187397830641L59.22824573863636,103.91939967756238L59.721711647727275,102.05284110763913L60.21517755681818,83.70939106001688L60.70864346590909,100.59882116677343L61.202109375,110.02356733750398L61.69557528409091,109.37258861272132L62.18904119318182,111.83922679071678L62.68250710227273,106.63154880652374L63.17597301136364,96.281017445293L63.669438920454546,89.7753705811467L64.16290482954545,105.29234170511418L64.65637073863637,108.16566216947265L65.14983664772727,114.67189328776053L65.64330255681818,106.35143344884274L66.1367684659091,102.64805346467378L66.630234375,110.42279233281604L67.12370028409092,104.3494797321457L67.61716619318182,103.01907324627004L68.11063210227272,99.9214958005048L68.60409801136363,98.14769102587404L69.09756392045455,118.30150083559825L69.59102982954546,96.28211234675514L70.08449573863636,115.97277423756896L70.57796164772726,107.19378530775754L71.07142755681818,121.21105195737296L71.5648934659091,109.44197224235137L72.05835937500001,67.92373203732618L72.55182528409091,113.00082063309189L73.04529119318181,100.95388206949511L73.53875710227273,119.28662232466418L74.03222301136364,112.61037785160848L74.52568892045456,113.47199629591584L75.01915482954544,112.06349297297615L75.51262073863636,115.5020724186551L76.00608664772727,121.76722279651506L76.49955255681819,115.00127921123769L76.9930184659091,120.70762500589223L77.48648437499999,111.9396724988021L77.9799502840909,132.34044469399345L78.47341619318182,119.15049571010687L78.96688210227273,114.55707584787808L79.46034801136365,117.44500726620188L79.95381392045454,117.7974091225155L80.44727982954545,119.68442808845916L80.94074573863637,119.29747473033301L81.43421164772728,116.31848247359935L81.92767755681818,94.81404730436044L82.42114346590908,112.46981642608687L82.914609375,115.42777093329804L83.40807528409091,113.71146228670843L83.90154119318183,120.33938848221442L84.39500710227271,122.21332613594132L84.88847301136363,112.33017968625387L85.38193892045454,118.54808828632102L85.87540482954546,118.31730790040456L86.36887073863637,126.056575181472L86.86233664772726,114.3257296095253L87.35580255681818,119.40059788653161L87.84926846590909,126.56110393505433L88.342734375,132.74969631845144L88.83620028409092,126.17858538789248L89.32966619318181,125.69223291866689L89.82313210227272,110.59591557577046L90.31659801136364,104.66984882005232L90.81006392045455,123.00337804833381L91.30352982954547,128.45828294250694L91.79699573863635,94.37092044075771L92.29046164772727,123.45603239482767L92.78392755681818,114.54610843155146L93.2773934659091,117.96537528757472L93.77085937499999,116.21757212245657L94.2643252840909,117.66192196721548L94.75779119318182,118.69966773285867L95.25125710227273,121.54000774099L95.74472301136365,119.70691497226977L96.23818892045453,110.13704145290346L96.73165482954545,119.20371804210461L97.22512073863636,122.6093584353932L97.71858664772728,123.29825847426159L98.2120525568182,111.70774660673408L98.70551846590908,124.90138743273565L99.198984375,122.55142296663932L99.69245028409091,110.0080961038184L100.18591619318182,120.17326708810612L100.67938210227274,129.1746360253892L101.17284801136363,120.3954377761806L101.66631392045454,123.6434031580688L102.15977982954546,122.89104713887274L102.65324573863637,111.60320651923152L103.14671164772727,129.0808908382266L103.64017755681817,126.03574905155983L104.13364346590909,122.85801147752986L104.627109375,113.0797409464657L105.12057528409092,124.85079424437491L105.6140411931818,119.05550610762698L106.10750710227272,120.67968661690247L106.60097301136364,117.34797967486602L107.09443892045455,120.68870575268618L107.58790482954547,123.9304007535118L108.08137073863635,132.72554868074238L108.57483664772727,126.63800006085108L109.06830255681818,118.76775404226889L109.5617684659091,122.16525628141244L110.05523437500001,128.2247469012299L110.5487002840909,127.07956507972105L111.04216619318181,127.99512812295708L111.53563210227273,128.0643070336163L112.02909801136364,126.69861757814458L112.52256392045454,126.51316519267534L113.01602982954545,129.73675291553891L113.50949573863636,128.48266750217107L114.00296164772728,131.941760248773L114.49642755681819,124.12752212032017L114.98989346590909,127.43843283521548L115.48335937499999,118.44959775941808L115.9768252840909,133.3470754762788L116.47029119318182,124.37525047676819L116.96375710227274,132.3245985255635L117.45722301136364,131.82647816583307L117.95068892045454,127.88455687656015L118.44415482954545,127.1973405937218L118.93762073863637,125.23005798992139L119.43108664772728,129.6137628183141L119.92455255681817,126.04787577531695L120.41801846590909,131.74962114366L120.911484375,126.42139818882667L121.40495028409092,135.178882425845L121.89841619318182,130.09551486122817L122.39188210227272,123.15363947273323L122.88534801136363,125.55260767989967L123.37881392045455,129.73811464172712L123.87227982954546,125.22429135553992L124.36574573863636,133.297942923272L124.85921164772726,127.070865673566L125.35267755681818,129.01153481115438L125.8461434659091,124.01275528512716L126.33960937500001,130.03539418997633L126.83307528409091,133.34036345429033L127.32654119318181,75.59964454744478L127.82000710227273,125.31073336593303L128.31347301136364,122.76130131560947L128.80693892045454,128.92751262500113L129.30040482954544,129.58535058541423L129.79387073863637,132.95994960216598L130.28733664772727,131.20947358936084L130.78080255681817,132.20733135867016L131.27426846590907,134.81824350622063L131.767734375,119.76209938608937L132.2612002840909,134.08444560676514L132.75466619318183,130.23200720967725L133.24813210227273,130.0799240164585L133.74159801136364,134.1739584017212L134.23506392045454,135.1331380868166L134.72852982954547,126.72466289170714L135.22199573863637,130.44062734205122L135.71546164772727,128.1635888338448L136.2089275568182,134.75511875658736L136.7023934659091,131.95171557131107L137.195859375,121.70906420708505L137.6893252840909,120.13391504143753L138.1827911931818,137.67620314712502L138.67625710227273,129.0789195555521L139.16972301136363,133.80069821251124L139.66318892045456,125.53493514222404L140.15665482954546,133.35961623840396L140.65012073863636,135.1975739579486L141.1435866477273,138.89126544430553L141.6370525568182,133.4853343884315L142.1305184659091,131.02639042344202L142.623984375,125.26146280013685L143.1174502840909,138.47496136631202L143.61091619318182,129.37916177834592L144.10438210227272,132.55535130892207L144.59784801136365,134.11580211250435L145.09131392045455,129.6669414462619L145.58477982954545,131.3200655376762L146.07824573863638,131.15474921817238L146.57171164772726,128.09674233932554L147.06517755681818,131.04299336200023L147.55864346590909,118.4986751073092L148.052109375,133.2696641027352L148.54557528409092,135.3036137844287L149.03904119318182,125.03270200137113L149.53250710227275,137.2831036194467L150.02597301136365,129.84629366644205L150.51943892045455,131.98411637382299L151.01290482954548,136.91338115807028L151.50637073863635,135.78565105377413L151.99983664772725,128.02910457148067L152.49330255681818,124.25460429674908L152.98676846590908,135.1624911068971L153.480234375,131.52611633195517L153.9737002840909,133.88485151081437L154.46716619318184,132.7480815688161L154.96063210227274,120.7698963764447L155.45409801136364,125.01738028154068L155.94756392045454,131.23461031872688L156.44102982954544,133.1425244209774L156.93449573863634,129.00001534367038L157.42796164772727,134.24414710595576L157.92142755681817,137.5719988907432L158.4148934659091,131.6799062833355L158.908359375,137.53327480226613L159.4018252840909,127.5789988611634L159.89529119318183,128.9464824828966L160.3887571022727,130.0534439626095L160.88222301136364,134.2369612400572L161.37568892045454,129.9723499478035L161.86915482954544,127.25479531792614L162.36262073863637,115.03966516838086L162.85608664772727,121.78360031418399L163.3495525568182,132.7108940227271L163.8430184659091,126.56238515378209L164.336484375,133.5179790135379L164.82995028409093,137.60961197626602L165.3234161931818,139.65696730023126L165.81688210227273,130.3436848586021L166.31034801136363,137.85256969062902L166.80381392045453,130.58609282202087L167.29727982954546,131.55209723954937L167.79074573863636,139.70145572287663L168.2842116477273,135.73370994050413L168.7776775568182,135.32962919522026L169.2711434659091,136.70940285584464L169.764609375,129.9695735905245L170.2580752840909,123.90674996184438L170.75154119318182,130.3396824877111L171.24500710227272,141.96891384328936L171.73847301136362,133.5736947765965L172.23193892045455,132.20893000681343L172.72540482954545,136.7594899973111L173.21887073863638,137.32925969663L173.71233664772728,121.78223398756947L174.20580255681818,130.33438969723971L174.69926846590909,134.65069137952943L175.192734375,139.72481323736673L175.68620028409092,129.7856692485091L176.17966619318182,137.38829236705917L176.67313210227272,132.57654777315233L177.16659801136365,135.6424765861076L177.66006392045455,135.4811994409053L178.15352982954548,134.34000848922167L178.64699573863638,132.23443016985806L179.14046164772725,137.58276618852526L179.63392755681818,129.25698595657823L180.12739346590908,129.89017483281432L180.62085937499998,133.4289239609999L181.1143252840909,136.0273413506883L181.6077911931818,136.111237025118L182.10125710227274,134.90334449234393L182.59472301136364,138.18988214864092L183.08818892045457,142.30762828121968L183.58165482954547,131.355360008338L184.07512073863634,137.8254041732596L184.56858664772727,136.70694622819428L185.06205255681817,132.8918724936084L185.55551846590907,119.60779648717532L186.048984375,139.2409472985625L186.5424502840909,141.76580732184973L187.03591619318183,127.5077819616482L187.52938210227273,136.48458232221472L188.02284801136364,140.56038866832466L188.51631392045454,140.72914955702922L189.00977982954544,137.27629958893198L189.50324573863637,137.45334929574327L189.99671164772727,135.72521525331993L190.49017755681817,135.57620514487724L190.9836434659091,132.95898581285374L191.477109375,138.73253003464035L191.97057528409093,136.21359421033574L192.46404119318183,137.06026586955704L192.95750710227273,131.69399738912762L193.45097301136363,137.67741535945808L193.94443892045453,137.05211621434623L194.43790482954546,133.98585157027023L194.93137073863636,135.1233897834625L195.42483664772726,140.45695038292374L195.9183025568182,136.3334169140451L196.4117684659091,132.48235404442434L196.90523437500002,136.18283576001704L197.39870028409092,138.89461455466034L197.8921661931818,129.51386686117297L198.38563210227272,137.5517823173173L198.87909801136362,137.51129396534978L199.37256392045455,137.95266116588834L199.86602982954545,137.44106615749155L200.35949573863635,129.52151506991586L200.85296164772728,134.908278449563L201.34642755681818,131.0313726851374L201.8398934659091,136.10842386442852L202.33335937500001,136.01801398634174L202.8268252840909,134.30178354699942L203.32029119318182,135.93338454391537L203.81375710227272,136.3535023753211L204.30722301136365,126.60213743753977L204.80068892045455,137.64460511900447L205.29415482954545,131.66670536003465L205.78762073863638,138.82477318261226L206.28108664772728,140.7534674105118L206.7745525568182,126.44810136335178L207.26801846590908,136.0594776286873L207.76148437499998,138.59587207084405L208.2549502840909,138.19005236441444L208.7484161931818,139.2447403500563L209.2418821022727,142.12937441282136L209.73534801136364,132.6785806283151L210.22881392045454,141.92409188973642L210.72227982954547,139.19999200332435L211.21574573863637,135.43682372870455L211.7092116477273,128.69198689934436L212.20267755681817,143.40792604342036L212.69614346590907,138.5621900496044L213.189609375,139.19007463430333L213.6830752840909,134.7447102920576L214.16420454545454,134.12592765081598L214.65767045454544,139.52828647565912L215.13879971590907,136.02423146250175L215.632265625,136.21028880403094L216.1257315340909,134.6157350402015L216.61919744318183,136.0825487666395L217.10032670454547,135.61621735272155L217.59379261363637,127.22509726587224L218.074921875,137.10347997411412L218.5683877840909,135.42998289477936L219.06185369318183,140.1849662787483L219.54298295454547,140.46070318068735L220.0241122159091,141.47783558613526L220.50524147727273,135.37653284167916L220.99870738636363,135.30356317973929L221.49217329545453,137.8859963882084L221.98563920454546,119.58579724855372L222.44209517045454,136.55700453342354L222.9108877840909,141.2440936757808L223.37968039772727,135.39023751166113L223.84847301136364,140.28104848247716L224.317265625,139.5197837377289L225.24251420454547,131.251728505032L225.7236434659091,143.78265606883684L226.19243607954544,141.45379950876426L226.66122869318184,140.68971930311335L227.10534801136362,138.6518868616129L227.574140625,141.66176178017565L227.99358664772728,133.37401097233266L228.36368607954546,143.31196805120192L228.73378551136364,141.73527544252687L229.16556818181817,133.92861076588937L229.51099431818182,134.64231630342937L230.30053977272726,141.85682215599647L230.6953125,143.69995995556786L233.49573153409094,141.0923923179459L233.76713778409092,142.30759492812894L234.21125710227273,140.90955987526104L234.3963068181818,137.64460051857816L234.76640625,139.01267069466607L235.60529829545456,136.5325785699226L235.8890411931818,140.77127336055048L236.0740909090909,139.55566591285202L236.4812002840909,143.63282363419097L236.9870028409091,142.97248419197098L238.2453409090909,140.86580637071893L238.55375710227273,144.22054764729708L240.49061079545453,142.8639279322985L240.53995738636365,139.77129939513787L240.62631392045455,141.3207632305817L240.67566051136365,143.1782589606713L241.1814630681818,139.9076997350607L241.44053267045456,143.08031473439286L242.64952414772728,142.13218642340428L242.98261363636362,145.90388158819243L243.2170099431818,142.27979915235483L243.37738636363636,140.68005265732629" style="fill: none;" fill="none"></path></g></g></g></g></g></g><g transform="translate(58, 177)" clip-path="url(#clip_1)"><clipPath id="clip_1"><rect width="271" height="22"></rect></clipPath><g><g><line x1="0" y1="0" x2="0" y2="5" style="visibility: inherit;" fill="rgb(0, 0, 0)" stroke="rgb(204, 204, 204)" stroke-width="1px"></line><line x1="24.673295454545457" y1="0" x2="24.673295454545457" y2="5" style="visibility: inherit;" fill="rgb(0, 0, 0)" stroke="rgb(204, 204, 204)" stroke-width="1px"></line><line x1="49.346590909090914" y1="0" x2="49.346590909090914" y2="5" style="visibility: inherit;" fill="rgb(0, 0, 0)" stroke="rgb(204, 204, 204)" stroke-width="1px"></line><line x1="74.01988636363636" y1="0" x2="74.01988636363636" y2="5" style="visibility: inherit;" fill="rgb(0, 0, 0)" stroke="rgb(204, 204, 204)" stroke-width="1px"></line><line x1="98.69318181818183" y1="0" x2="98.69318181818183" y2="5" style="visibility: inherit;" fill="rgb(0, 0, 0)" stroke="rgb(204, 204, 204)" stroke-width="1px"></line><line x1="123.36647727272727" y1="0" x2="123.36647727272727" y2="5" style="visibility: inherit;" fill="rgb(0, 0, 0)" stroke="rgb(204, 204, 204)" stroke-width="1px"></line><line x1="148.03977272727272" y1="0" x2="148.03977272727272" y2="5" style="visibility: inherit;" fill="rgb(0, 0, 0)" stroke="rgb(204, 204, 204)" stroke-width="1px"></line><line x1="172.7130681818182" y1="0" x2="172.7130681818182" y2="5" style="visibility: inherit;" fill="rgb(0, 0, 0)" stroke="rgb(204, 204, 204)" stroke-width="1px"></line><line x1="197.38636363636365" y1="0" x2="197.38636363636365" y2="5" style="visibility: inherit;" fill="rgb(0, 0, 0)" stroke="rgb(204, 204, 204)" stroke-width="1px"></line><line x1="222.0596590909091" y1="0" x2="222.0596590909091" y2="5" style="visibility: inherit;" fill="rgb(0, 0, 0)" stroke="rgb(204, 204, 204)" stroke-width="1px"></line><line x1="246.73295454545453" y1="0" x2="246.73295454545453" y2="5" style="visibility: inherit;" fill="rgb(0, 0, 0)" stroke="rgb(204, 204, 204)" stroke-width="1px"></line><line x1="271.40625" y1="0" x2="271.40625" y2="5" style="visibility: inherit;" fill="rgb(0, 0, 0)" stroke="rgb(204, 204, 204)" stroke-width="1px"></line></g><g transform="translate(0, 8)"><text x="0" y="0" dx="0em" dy="0.95em" style="text-anchor: middle; visibility: hidden; font-family: &quot;Helvetica Neue&quot;, sans-serif; font-size: 12px; font-weight: 200;" fill="rgb(50, 49, 63)" stroke="none" stroke-width="1px">-2k</text><text x="24.673295454545457" y="0" dx="0em" dy="0.95em" style="text-anchor: middle; visibility: inherit; font-family: &quot;Helvetica Neue&quot;, sans-serif; font-size: 12px; font-weight: 200;" fill="rgb(50, 49, 63)" stroke="none" stroke-width="1px">0</text><text x="49.346590909090914" y="0" dx="0em" dy="0.95em" style="text-anchor: middle; visibility: inherit; font-family: &quot;Helvetica Neue&quot;, sans-serif; font-size: 12px; font-weight: 200;" fill="rgb(50, 49, 63)" stroke="none" stroke-width="1px">2k</text><text x="74.01988636363636" y="0" dx="0em" dy="0.95em" style="text-anchor: middle; visibility: inherit; font-family: &quot;Helvetica Neue&quot;, sans-serif; font-size: 12px; font-weight: 200;" fill="rgb(50, 49, 63)" stroke="none" stroke-width="1px">4k</text><text x="98.69318181818183" y="0" dx="0em" dy="0.95em" style="text-anchor: middle; visibility: inherit; font-family: &quot;Helvetica Neue&quot;, sans-serif; font-size: 12px; font-weight: 200;" fill="rgb(50, 49, 63)" stroke="none" stroke-width="1px">6k</text><text x="123.36647727272727" y="0" dx="0em" dy="0.95em" style="text-anchor: middle; visibility: inherit; font-family: &quot;Helvetica Neue&quot;, sans-serif; font-size: 12px; font-weight: 200;" fill="rgb(50, 49, 63)" stroke="none" stroke-width="1px">8k</text><text x="148.03977272727272" y="0" dx="0em" dy="0.95em" style="text-anchor: middle; visibility: inherit; font-family: &quot;Helvetica Neue&quot;, sans-serif; font-size: 12px; font-weight: 200;" fill="rgb(50, 49, 63)" stroke="none" stroke-width="1px">10k</text><text x="172.7130681818182" y="0" dx="0em" dy="0.95em" style="text-anchor: middle; visibility: inherit; font-family: &quot;Helvetica Neue&quot;, sans-serif; font-size: 12px; font-weight: 200;" fill="rgb(50, 49, 63)" stroke="none" stroke-width="1px">12k</text><text x="197.38636363636365" y="0" dx="0em" dy="0.95em" style="text-anchor: middle; visibility: inherit; font-family: &quot;Helvetica Neue&quot;, sans-serif; font-size: 12px; font-weight: 200;" fill="rgb(50, 49, 63)" stroke="none" stroke-width="1px">14k</text><text x="222.0596590909091" y="0" dx="0em" dy="0.95em" style="text-anchor: middle; visibility: inherit; font-family: &quot;Helvetica Neue&quot;, sans-serif; font-size: 12px; font-weight: 200;" fill="rgb(50, 49, 63)" stroke="none" stroke-width="1px">16k</text><text x="246.73295454545453" y="0" dx="0em" dy="0.95em" style="text-anchor: middle; visibility: inherit; font-family: &quot;Helvetica Neue&quot;, sans-serif; font-size: 12px; font-weight: 200;" fill="rgb(50, 49, 63)" stroke="none" stroke-width="1px">18k</text><text x="271.40625" y="0" dx="0em" dy="0.95em" style="text-anchor: middle; visibility: hidden; font-family: &quot;Helvetica Neue&quot;, sans-serif; font-size: 12px; font-weight: 200;" fill="rgb(50, 49, 63)" stroke="none" stroke-width="1px">20k</text></g><line x1="0" y1="0" x2="271.40625" y2="0" fill="rgb(0, 0, 0)" stroke="rgb(204, 204, 204)" stroke-width="1px"></line></g></g></g></g></svg>