<svg viewBox="0 0 330 200" xmlns="http://www.w3.org/2000/svg"><g><g><g><g><g><line x1="58.59375" y1="177.828125" x2="53.59375" y2="177.828125" style="visibility: inherit;" fill="rgb(0, 0, 0)" stroke="rgb(204, 204, 204)" stroke-width="1px"></line><line x1="58.59375" y1="160.0453125" x2="53.59375" y2="160.0453125" style="visibility: inherit;" fill="rgb(0, 0, 0)" stroke="rgb(204, 204, 204)" stroke-width="1px"></line><line x1="58.59375" y1="142.2625" x2="53.59375" y2="142.2625" style="visibility: inherit;" fill="rgb(0, 0, 0)" stroke="rgb(204, 204, 204)" stroke-width="1px"></line><line x1="58.59375" y1="124.47968749999998" x2="53.59375" y2="124.47968749999998" style="visibility: inherit;" fill="rgb(0, 0, 0)" stroke="rgb(204, 204, 204)" stroke-width="1px"></line><line x1="58.59375" y1="106.69687499999999" x2="53.59375" y2="106.69687499999999" style="visibility: inherit;" fill="rgb(0, 0, 0)" stroke="rgb(204, 204, 204)" stroke-width="1px"></line><line x1="58.59375" y1="88.91406249999999" x2="53.59375" y2="88.91406249999999" style="visibility: inherit;" fill="rgb(0, 0, 0)" stroke="rgb(204, 204, 204)" stroke-width="1px"></line><line x1="58.59375" y1="71.13124999999998" x2="53.59375" y2="71.13124999999998" style="visibility: inherit;" fill="rgb(0, 0, 0)" stroke="rgb(204, 204, 204)" stroke-width="1px"></line><line x1="58.59375" y1="53.34843749999999" x2="53.59375" y2="53.34843749999999" style="visibility: inherit;" fill="rgb(0, 0, 0)" stroke="rgb(204, 204, 204)" stroke-width="1px"></line><line x1="58.59375" y1="35.56562499999998" x2="53.59375" y2="35.56562499999998" style="visibility: inherit;" fill="rgb(0, 0, 0)" stroke="rgb(204, 204, 204)" stroke-width="1px"></line><line x1="58.59375" y1="17.78281249999995" x2="53.59375" y2="17.78281249999995" style="visibility: inherit;" fill="rgb(0, 0, 0)" stroke="rgb(204, 204, 204)" stroke-width="1px"></line><line x1="58.59375" y1="0" x2="53.59375" y2="0" style="visibility: inherit;" fill="rgb(0, 0, 0)" stroke="rgb(204, 204, 204)" stroke-width="1px"></line></g><g transform="translate(48.59375, 0)"><text x="0" y="177.828125" dx="0em" dy="0.3em" style="text-anchor: end; visibility: hidden; font-family: &quot;Helvetica Neue&quot;, sans-serif; font-size: 12px; font-weight: 200;" fill="rgb(50, 49, 63)" stroke="none" stroke-width="1px">-2e-3</text><text x="0" y="160.0453125" dx="0em" dy="0.3em" style="text-anchor: end; visibility: inherit; font-family: &quot;Helvetica Neue&quot;, sans-serif; font-size: 12px; font-weight: 200;" fill="rgb(50, 49, 63)" stroke="none" stroke-width="1px">0</text><text x="0" y="142.2625" dx="0em" dy="0.3em" style="text-anchor: end; visibility: hidden; font-family: &quot;Helvetica Neue&quot;, sans-serif; font-size: 12px; font-weight: 200;" fill="rgb(50, 49, 63)" stroke="none" stroke-width="1px">2e-3</text><text x="0" y="124.47968749999998" dx="0em" dy="0.3em" style="text-anchor: end; visibility: inherit; font-family: &quot;Helvetica Neue&quot;, sans-serif; font-size: 12px; font-weight: 200;" fill="rgb(50, 49, 63)" stroke="none" stroke-width="1px">4e-3</text><text x="0" y="106.69687499999999" dx="0em" dy="0.3em" style="text-anchor: end; visibility: hidden; font-family: &quot;Helvetica Neue&quot;, sans-serif; font-size: 12px; font-weight: 200;" fill="rgb(50, 49, 63)" stroke="none" stroke-width="1px">6e-3</text><text x="0" y="88.91406249999999" dx="0em" dy="0.3em" style="text-anchor: end; visibility: inherit; font-family: &quot;Helvetica Neue&quot;, sans-serif; font-size: 12px; font-weight: 200;" fill="rgb(50, 49, 63)" stroke="none" stroke-width="1px">8e-3</text><text x="0" y="71.13124999999998" dx="0em" dy="0.3em" style="text-anchor: end; visibility: hidden; font-family: &quot;Helvetica Neue&quot;, sans-serif; font-size: 12px; font-weight: 200;" fill="rgb(50, 49, 63)" stroke="none" stroke-width="1px">0.01</text><text x="0" y="53.34843749999999" dx="0em" dy="0.3em" style="text-anchor: end; visibility: inherit; font-family: &quot;Helvetica Neue&quot;, sans-serif; font-size: 12px; font-weight: 200;" fill="rgb(50, 49, 63)" stroke="none" stroke-width="1px">0.012</text><text x="0" y="35.56562499999998" dx="0em" dy="0.3em" style="text-anchor: end; visibility: hidden; font-family: &quot;Helvetica Neue&quot;, sans-serif; font-size: 12px; font-weight: 200;" fill="rgb(50, 49, 63)" stroke="none" stroke-width="1px">0.014</text><text x="0" y="17.78281249999995" dx="0em" dy="0.3em" style="text-anchor: end; visibility: inherit; font-family: &quot;Helvetica Neue&quot;, sans-serif; font-size: 12px; font-weight: 200;" fill="rgb(50, 49, 63)" stroke="none" stroke-width="1px">0.016</text><text x="0" y="0" dx="0em" dy="0.3em" style="text-anchor: end; visibility: hidden; font-family: &quot;Helvetica Neue&quot;, sans-serif; font-size: 12px; font-weight: 200;" fill="rgb(50, 49, 63)" stroke="none" stroke-width="1px">0.018</text></g><line x1="58.59375" y1="0" x2="58.59375" y2="177.828125" fill="rgb(0, 0, 0)" stroke="rgb(204, 204, 204)" stroke-width="1px"></line></g></g><g transform="translate(58, 0)" clip-path="url(#clip_0)"><clipPath id="clip_0"><rect width="271" height="177"></rect></clipPath><g><g><g><line x1="0" y1="0" x2="0" y2="177.828125" fill="rgb(0, 0, 0)" stroke="rgb(60, 60, 60)" stroke-width="1px" opacity="0.25"></line><line x1="27.140625" y1="0" x2="27.140625" y2="177.828125" fill="rgb(0, 0, 0)" stroke="rgb(60, 60, 60)" stroke-width="1px" opacity="0.25"></line><line x1="54.28125" y1="0" x2="54.28125" y2="177.828125" fill="rgb(0, 0, 0)" stroke="rgb(60, 60, 60)" stroke-width="1px" opacity="0.25"></line><line x1="81.421875" y1="0" x2="81.421875" y2="177.828125" fill="rgb(0, 0, 0)" stroke="rgb(60, 60, 60)" stroke-width="1px" opacity="0.25"></line><line x1="108.5625" y1="0" x2="108.5625" y2="177.828125" fill="rgb(0, 0, 0)" stroke="rgb(60, 60, 60)" stroke-width="1px" opacity="0.25"></line><line x1="135.703125" y1="0" x2="135.703125" y2="177.828125" fill="rgb(0, 0, 0)" stroke="rgb(60, 60, 60)" stroke-width="1px" opacity="0.25"></line><line x1="162.84375" y1="0" x2="162.84375" y2="177.828125" fill="rgb(0, 0, 0)" stroke="rgb(60, 60, 60)" stroke-width="1px" opacity="0.25"></line><line x1="189.984375" y1="0" x2="189.984375" y2="177.828125" fill="rgb(0, 0, 0)" stroke="rgb(60, 60, 60)" stroke-width="1px" opacity="0.25"></line><line x1="217.125" y1="0" x2="217.125" y2="177.828125" fill="rgb(0, 0, 0)" stroke="rgb(60, 60, 60)" stroke-width="1px" opacity="0.25"></line><line x1="244.265625" y1="0" x2="244.265625" y2="177.828125" fill="rgb(0, 0, 0)" stroke="rgb(60, 60, 60)" stroke-width="1px" opacity="0.25"></line><line x1="271.40625" y1="0" x2="271.40625" y2="177.828125" fill="rgb(0, 0, 0)" stroke="rgb(60, 60, 60)" stroke-width="1px" opacity="0.25"></line></g><g><line x1="0" y1="177.828125" x2="271.40625" y2="177.828125" fill="rgb(0, 0, 0)" stroke="rgb(60, 60, 60)" stroke-width="1px" opacity="0.25"></line><line x1="0" y1="160.0453125" x2="271.40625" y2="160.0453125" fill="rgb(0, 0, 0)" stroke="rgb(60, 60, 60)" stroke-width="1px" opacity="0.25"></line><line x1="0" y1="142.2625" x2="271.40625" y2="142.2625" fill="rgb(0, 0, 0)" stroke="rgb(60, 60, 60)" stroke-width="1px" opacity="0.25"></line><line x1="0" y1="124.47968749999998" x2="271.40625" y2="124.47968749999998" fill="rgb(0, 0, 0)" stroke="rgb(60, 60, 60)" stroke-width="1px" opacity="0.25"></line><line x1="0" y1="106.69687499999999" x2="271.40625" y2="106.69687499999999" fill="rgb(0, 0, 0)" stroke="rgb(60, 60, 60)" stroke-width="1px" opacity="0.25"></line><line x1="0" y1="88.91406249999999" x2="271.40625" y2="88.91406249999999" fill="rgb(0, 0, 0)" stroke="rgb(60, 60, 60)" stroke-width="1px" opacity="0.25"></line><line x1="0" y1="71.13124999999998" x2="271.40625" y2="71.13124999999998" fill="rgb(0, 0, 0)" stroke="rgb(60, 60, 60)" stroke-width="1px" opacity="0.25"></line><line x1="0" y1="53.34843749999999" x2="271.40625" y2="53.34843749999999" fill="rgb(0, 0, 0)" stroke="rgb(60, 60, 60)" stroke-width="1px" opacity="0.25"></line><line x1="0" y1="35.56562499999998" x2="271.40625" y2="35.56562499999998" fill="rgb(0, 0, 0)" stroke="rgb(60, 60, 60)" stroke-width="1px" opacity="0.25"></line><line x1="0" y1="17.78281249999995" x2="271.40625" y2="17.78281249999995" fill="rgb(0, 0, 0)" stroke="rgb(60, 60, 60)" stroke-width="1px" opacity="0.25"></line><line x1="0" y1="0" x2="271.40625" y2="0" fill="rgb(0, 0, 0)" stroke="rgb(60, 60, 60)" stroke-width="1px" opacity="0.25"></line></g></g></g><g><g><line x1="0" y1="160.0453125" x2="271.40625" y2="160.0453125" fill="rgb(0, 0, 0)" stroke="rgb(153, 153, 153)" stroke-width="1.5px"></line></g></g><g><g><line x1="27.140625" y1="0" x2="27.140625" y2="177.828125" fill="rgb(0, 0, 0)" stroke="rgb(153, 153, 153)" stroke-width="1.5px"></line></g></g><g><g><g><g><g><path stroke="rgb(255, 112, 67)" stroke-width="2px" d="M36.395578125,-1.9222312671151371L36.938390625,3.3400267981533034L37.481203125,9.5634952761352L38.024015625000004,26.524257353292512L38.566828125,35.17180399595702L39.109640625000004,38.88152713708442L39.652453125,41.35347415427671L40.195265625000005,41.01299508117174L40.738078125,43.82660257226246L41.280890625000005,42.398473330196055L41.823703124999994,48.47259128762073L42.366515625,57.74774635735781L42.909328124999995,64.82012605955704L43.452140625,71.96247634755805L43.994953124999995,75.22961421413544L44.537765625,77.2679362599914L45.080578125,81.8884054127855L45.623390625,85.5879874751542L46.166203125,88.50005426214L46.709015625,91.23630531220202L47.251828125,95.49057313386994L47.794640625,98.84255245529262L48.337453125,100.48567870785509L48.880265625,98.17769171743267L49.423078125,97.02056987527381L49.96589062500001,95.0903490200433L50.508703125,98.49132174237641L51.051515625,99.15588319052866L51.594328125,97.7863238565977L52.137140625,98.51623737697571L52.679953125,98.69303310943059L53.222765625,100.48800654527092L53.765578125,101.92960683201791L54.308390625,100.7435674647146L54.851203125,104.13623822708134L55.394015625,104.99803928998693L55.936828125,105.82550841067466L56.479640625,107.44545062167236L57.022453125000006,107.05675524976621L57.565265625,108.11599089828327L58.108078125000006,110.6146612990223L58.650890624999995,108.81213839062112L59.193703125,106.81841615123771L59.736515624999996,106.1218142827159L60.279328125,108.61328779105462L60.822140624999996,109.35178255729842L61.364953125,111.26302953035774L61.907765624999996,111.57216263606583L62.450578125,114.20804888452545L62.993390625,109.93585194304083L63.536203125,110.88898047956825L64.079015625,110.61126922701175L64.62182812500001,113.65443322921429L65.164640625,113.96804949486486L65.707453125,114.41338825290232L66.250265625,115.07742889507475L66.79307812500001,115.78627222421346L67.33589062499999,113.55574466129322L67.878703125,115.24095736399735L68.421515625,115.18463500271179L68.964328125,114.6831396603286L69.507140625,117.28417686075454L70.049953125,117.13908758236265L70.592765625,118.1447614562569L71.135578125,119.42380005585267L71.678390625,118.84863680438806L72.221203125,118.09022784352806L72.764015625,119.1730163565769L73.306828125,120.48248826114451L73.849640625,121.5333631771204L74.392453125,122.58388241855245L74.935265625,120.03965196487945L75.47807812500001,120.43955229937403L76.020890625,121.56634201533201L76.563703125,121.44746803961081L77.106515625,121.42455743760036L77.64932812500001,119.25894593513044L78.19214062500001,120.24101118974116L78.734953125,121.513447744693L79.277765625,121.88121987476121L79.820578125,122.63804279267424L80.363390625,120.85221244526686L80.90620312499999,121.6381038590545L81.44901562499999,121.5156858977185L81.991828125,122.28420481253136L82.534640625,121.64268439813648L83.07745312499999,121.92470110193726L83.620265625,123.63221993420682L84.163078125,123.91787812982477L84.705890625,123.93920726142508L85.24870312499999,123.40704630364027L85.791515625,125.02416006931666L86.334328125,125.37426936689005L86.877140625,126.36424699682243L87.419953125,125.59891265282397L87.962765625,126.2896744754994L88.505578125,124.15477754032827L89.048390625,125.13703834340816L89.591203125,125.18742534315288L90.134015625,124.90453521344818L90.676828125,123.80408538744112L91.219640625,124.7815307054808L91.76245312500001,124.53960965702615L92.305265625,124.95142591557908L92.848078125,125.04055636988144L93.39089062500001,125.76812386512253L93.93370312500001,125.57836186253988L94.476515625,125.52832004225482L95.019328125,125.47948758426656L95.56214062500001,124.8983812740384L96.10495312500001,125.90663284270548L96.647765625,125.64833640935672L97.19057812499999,125.53935278415781L97.733390625,125.52116985321382L98.276203125,126.9044178870716L98.81901562499999,127.78218131866626L99.36182812499999,126.90944203217839L99.904640625,128.65710256990374L100.447453125,129.5312958487464L100.99026562499999,129.6506778731871L101.533078125,129.64224831680042L102.075890625,129.90170179444138L102.618703125,128.00500194587534L103.16151562499999,125.9197773690801L103.704328125,126.44662154471767L104.247140625,126.53796149602611L104.789953125,127.12682325301523L105.332765625,128.0425413750751L105.875578125,127.27678887606318L106.418390625,127.22980383789445L106.961203125,129.1859458569005L107.50401562500001,130.2442691770238L108.046828125,130.55984171398597L108.589640625,129.4912209912325L109.132453125,129.95919260079566L109.67526562500001,127.79667449183785L110.218078125,123.98921994140383L110.760890625,124.22021270869536L111.303703125,125.7453216532862L111.84651562500001,126.70150420904503L112.389328125,125.14419713591894L112.932140625,126.86298478210583L113.47495312500001,127.04388864285319L114.017765625,127.8583310957938L114.56057812499999,128.27170203424083L115.10339062499999,127.5947593125019L115.646203125,127.05681129609327L116.189015625,127.71268996416181L116.73182812499999,127.07974211452239L117.27464062499999,127.05406912379712L117.817453125,124.60106024212016L118.360265625,124.8936845004042L118.903078125,126.23603455595739L119.445890625,126.43646889478285L119.988703125,126.53753360355847L120.531515625,126.20859694066976L121.074328125,127.1682054581176L121.617140625,128.47629329456245L122.159953125,130.07910741682292L122.702765625,128.91145227742618L123.245578125,116.27669451551785L123.788390625,119.17588124811034L124.331203125,122.69229655014928L124.874015625,124.60676182735943L125.41682812500001,126.04006885344256L125.959640625,125.52071870254701L126.502453125,127.10018332985251L127.045265625,129.17566344226955L127.58807812500001,129.50417844133358L128.130890625,129.75552684118765L128.673703125,129.17280189642634L129.216515625,129.78248410406346L129.759328125,129.82802223327548L130.30214062500002,131.091215909886L130.844953125,131.2613300360783L131.387765625,131.22537665096857L131.93057812499998,131.8970479692458L132.473390625,132.24685153165905L133.016203125,132.94679931318498L133.559015625,132.4452770450058L134.101828125,132.08287809054744L134.644640625,131.27188176574737L135.187453125,89.57612498391177L135.730265625,95.20004608775511L136.27307812499998,102.45866853045678L136.815890625,105.2392220960098L137.358703125,108.72263263778835L137.901515625,112.22978599188819L138.444328125,116.92420921506891L138.987140625,118.79410068518739L139.529953125,121.59283296052396L140.072765625,123.23262226765225L140.615578125,126.36913147786362L141.158390625,126.87007327661622L141.701203125,128.63526524158857L142.244015625,130.27758952067754L142.786828125,130.63602126231555L143.329640625,130.44409362934528L143.872453125,132.6210657484735L144.41526562500002,133.42605189040293L144.95807812500001,133.6857210805486L145.500890625,134.13559553639192L146.043703125,134.36503965166816L146.586515625,133.9598607661078L147.129328125,135.22335616753548L147.672140625,135.2624779110193L148.21495312500002,133.33820419721945L148.75776562500002,134.2288566435772L149.30057812500002,133.98523660081142L149.843390625,134.15276795793318L150.386203125,134.48466467058506L150.929015625,133.80671172307206L151.471828125,134.54895913395987L152.014640625,133.9624637761907L152.55745312500002,133.0550659228573L153.10026562500002,132.90100683191218L153.64307812500002,129.75885732352845L154.185890625,131.2794140614943L154.728703125,132.41617650261114L155.271515625,132.98883855557057L155.814328125,133.4980070603536L156.35714062499997,135.082274869432L156.899953125,135.19965551887498L157.442765625,134.4465795960975L157.985578125,135.61351035103206L158.528390625,134.47384211823095L159.07120312499998,134.76305349849878L159.61401562499998,135.1231383090802L160.15682812499998,133.9598778321673L160.699640625,133.64246606207416L161.242453125,134.27224352436406L161.785265625,135.88147036052342L162.328078125,133.37381238089785L162.870890625,134.48436038751828L163.41370312499998,135.20308965108111L163.95651562499998,133.11752713156233L164.499328125,134.65870209383348L165.042140625,133.30015144061088L165.584953125,135.09240226132036L166.127765625,134.27679607027363L166.670578125,133.72293310476613L167.213390625,133.9238613262444L167.75620312499998,133.60115346407107L168.299015625,134.9907623162915L168.841828125,135.43154927105064L169.384640625,136.9322975769409L169.927453125,137.01328566373917L170.470265625,137.06993708197518L171.013078125,138.13106641931313L171.555890625,137.48144156298423L172.098703125,137.08501003130738L172.641515625,137.35202145461392L173.184328125,131.7970306453281L173.727140625,132.45424209219163L174.269953125,134.7212768827857L174.812765625,136.41398725434752L175.355578125,138.1428894610392L175.87125,138.17053836172542L176.386921875,138.94104929300772L176.90259375000002,139.02463452972012L177.44540625000002,138.51690895680736L177.98821875000002,138.52727056190895L178.503890625,137.1084387334211L179.046703125,136.9795797875879L179.589515625,138.56948314518837L180.07804687499998,138.96497381786247L180.62085937499998,138.40290909029008L181.163671875,137.6187976394001L181.67934375,135.73162733103408L182.22215625,135.92866260177306L182.76496875,134.78464601799612L183.30778125,134.92676150133238L183.85059375,135.67267774910118L184.39340625,137.1754105207822L184.88193750000002,136.94055573916933L185.397609375,137.35139580414486L185.886140625,139.37811256988942L186.34753125,138.83908216268708L186.863203125,138.77511670981767L187.351734375,138.86506976118994L187.840265625,139.42520623426867L188.30165624999998,139.15301580760215L188.76304687500001,140.0795342450604L189.305859375,139.8288754515508L189.848671875,139.56727941333543L190.36434375000002,138.83380538492224L190.825734375,139.88606293119625L191.34140624999998,139.3402437253152L192.671296875,140.21314864780214L193.159828125,139.15695669556158L193.5669375,139.38424886794724L194.81540625,138.31271402491748L195.222515625,139.27651521102615L195.711046875,139.61217241990676L196.22671875,140.32227576701118L196.66096875,141.55124820508453L197.09521875,141.79110770278382L197.556609375,141.58525952115002L197.96371875000003,141.23438888811614L198.370828125,140.93356861013186L198.83221875,141.71197371707453L199.32075,141.86324935033522L199.727859375,141.18041755774044L200.08068749999998,141.2018124700428L200.46065625,141.38631701134582L200.840625,141.47176446976135L201.193453125,140.47984875811645L201.573421875,140.0515762317981L202.79475,140.66216677786218L203.229,141.33504857589614L203.880375,140.64559235269195L204.36890625,141.8503884951163L204.667453125,142.90382632300492L205.101703125,143.42627612282377L205.590234375,143.7488260240831L205.970203125,143.76880854425883L206.295890625,143.50691541755612L207.16439062499998,143.47718741707905L207.51721874999998,143.992715595561L207.8971875,144.20880724962527L208.27715625,143.80513391035677L208.684265625,143.2186602351002L209.009953125,143.5467408631094L209.52562500000002,143.13335370472925L209.932734375,143.63739362862535L210.20414062499998,144.44377734369564L210.9369375,143.88762229045855L211.181203125,144.07597082678598L211.506890625,144.03768701299094L212.131125,144.20947604762227L213.21675,144.08918090874295L213.70528124999998,144.97004312090723L215.98509374999998,144.48432641118248L216.3650625,144.6257969796568L216.717890625,144.4954447125296L217.15214062500002,143.87909964334094L218.15634375,144.0892961036352L218.672015625,145.0758009877989L218.997703125,145.67248453575166L219.24196874999998,145.3977136664049L219.513375,145.02420462448745L219.89334375,144.998832990113L220.16475,144.84345320884023L221.223234375,144.1644616810195L221.49464062500002,144.6727724516483L222.146015625,144.4989641018541L222.77025,144.2911177363683L222.987375,144.50543951072746L223.2045,144.3128598809441L224.20870312499997,144.28807944250724L224.805796875,143.76043630659203L225.59287500000002,144.34094479547554L225.86428125,144.19293836242534L226.08140625,144.23340402833878L226.84134375,145.0180170223887L227.357015625,145.77579827337996L227.49271875,146.1683304876548L228.442640625,145.3820183836434L229.01259375,144.7750505875002L229.17543750000002,143.83060054188047L229.636828125,144.15030516562615L230.342484375,144.49260902181155L230.613890625,145.02120036096147L232.32375,145.3638362832334L233.056546875,145.05091409832448L233.382234375,145.07531209129763L233.57221875000002,144.78384723831846L233.70792187499998,144.5570228494521L234.277875,144.7777723295478L234.60356249999998,145.2826252187545L234.87496875,145.8899162385578L235.14637499999998,146.35491869934899L235.3635,145.97921853301102L235.60776562499998,146.01880607053369L235.68918749999997,145.45400696818228L236.367703125,145.50492892060052L236.72053125,145.01804658047752L237.453328125,145.15381409545589L237.6433125,145.46160580069267L237.969,145.78778934662876L238.593234375,145.74357990313507L238.810359375,146.28696998916558L239.027484375,146.1116238332911L239.516015625,146.62203254010925L239.923125,146.27073897223417L240.0316875,145.7949963533831L240.275953125,146.1990627995107L242.121515625,146.36279439123888L242.47434375,145.83195647355302L242.827171875,145.67833534139314L243.261421875,145.29895422412255L243.532828125,145.7134065988915L243.61425,146.6553957484054L244.3741875,145.56475439740635L244.835578125,146.233841386642L245.05270312500002,146.0590638866596L245.89406250000002,145.51814632076974L246.355453125,145.9076537894733L247.25109375,146.55020612344435L247.332515625,146.84673849880926L247.441078125,145.75947970577437L248.11959375,146.14986350016287L248.906671875,146.44217139392973" style="fill: none;" fill="none"></path></g></g></g></g><g opacity="0.20000000298023224"><g><g><g><path stroke="rgb(255, 112, 67)" stroke-width="2px" d="M32.595890625,-84.33407712655611L33.138703125,33.97071224098323L33.681515625,34.81414151974019L34.224328125,20.322947692323908L34.767140624999996,28.11551413250851L35.309953125,12.13215914976314L35.852765624999996,29.60726953023692L36.395578125,37.321218365099014L36.938390625,23.075863959087258L37.481203125,32.97840304584821L38.024015625000004,90.49662969482013L38.566828125,67.85308664693146L39.109640625000004,52.92345931083544L39.652453125,50.72179372727403L40.195265625000005,39.72136566152912L40.738078125,54.50847271058008L41.280890625000005,36.97325223983495L41.823703124999994,71.55833256401236L42.366515625,93.01312591305175L42.909328124999995,91.71843621697333L43.452140625,99.1334452097304L43.994953124999995,87.66084778907823L44.537765625,85.02478143054175L45.080578125,99.47372678288373L45.623390625,99.66978223091571L46.166203125,99.58514450772198L46.709015625,101.65275274848098L47.251828125,111.68661652481532L47.794640625,111.60404899346176L48.337453125,106.74149545120015L48.880265625,89.39036886003449L49.423078125,92.61491623182663L49.96589062500001,87.74107186326871L50.508703125,111.4406073476799L51.051515625,101.68624017168766L51.594328125,92.57160781853015L52.137140625,101.29546247916876L52.679953125,99.3662051590887L53.222765625,107.32261900265583L53.765578125,107.41871730787678L54.308390625,96.22753348521071L54.851203125,117.05439624528807L55.394015625,108.2794947942544L55.936828125,108.97624270036756L56.479640625,113.61367116077744L57.022453125000006,105.57672685462747L57.565265625,112.14922573380463L58.108078125000006,120.12881330483069L58.650890624999995,101.94869495280143L59.193703125,99.22694335400008L59.736515624999996,103.4693709305371L60.279328125,118.10004600337706L60.822140624999996,112.16374191898794L61.364953125,118.54046689622336L61.907765624999996,112.74924599637743L62.450578125,124.24469005417777L62.993390625,93.66864387847598L63.536203125,114.51820008150534L64.079015625,109.55383036416023L64.62182812500001,125.2418642001372L65.164640625,115.16220363991451L65.707453125,116.10910110684344L66.250265625,117.60589121112716L66.79307812500001,118.48532940675213L67.33589062499999,105.06258228996883L67.878703125,121.65772864609025L68.421515625,114.9701767852035L68.964328125,112.77359973318525L69.507140625,127.18812607599247L70.049953125,116.58663225861673L70.592765625,121.97405809965275L71.135578125,124.29398546227603L71.678390625,116.65859212698123L72.221203125,115.20243988852016L72.764015625,123.29594183574372L73.306828125,125.4685543470201L73.849640625,125.53477150321996L74.392453125,126.58393644705356L74.935265625,110.35200524929095L75.47807812500001,121.96224972539639L76.020890625,125.85681054587766L76.563703125,120.99483251694764L77.106515625,121.3373209146026L77.64932812500001,111.01296367887116L78.19214062500001,123.98041350424464L78.734953125,126.35849462585028L79.277765625,123.28158298514026L79.820578125,125.51979159506445L80.363390625,114.05231996940856L80.90620312499999,124.63053654973336L81.44901562499999,121.04955596805084L81.991828125,125.2104883726075L82.534640625,119.19997205113177L83.07745312499999,122.99853393560042L83.620265625,130.13392625688866L84.163078125,125.00557664388324L84.705890625,124.02042203174787L85.24870312499999,121.38074111825844L85.791515625,131.18163171547494L86.334328125,126.70737784609955L86.877140625,130.13377720307616L87.419953125,122.68475495838501L87.962765625,128.9198829541361L88.505578125,116.02574690259061L89.048390625,128.8771852474325L89.591203125,125.37928353448805L90.134015625,123.8273766426515L90.676828125,119.61391104995855L91.219640625,128.50334172416623L91.76245312500001,123.6184487417573L92.305265625,126.51949551545258L92.848078125,125.37993771510955L93.39089062500001,128.5384770200777L93.93370312500001,124.8558065450139L94.476515625,125.33777618809253L95.019328125,125.29354860961902L95.56214062500001,122.6857072466315L96.10495312500001,129.74574458493734L96.647765625,124.66482306699035L97.19057812499999,125.12437667282356L97.733390625,125.45193484692717L98.276203125,132.17140078522206L98.81901562499999,131.12443438512273L99.36182812499999,123.58631936439778L99.904640625,135.31165615585778L100.447453125,132.8599548720318L100.99026562499999,130.1052478893267L101.533078125,129.61015115978952L102.075890625,130.88962080545897L102.618703125,120.78295252248935L103.16151562499999,117.97988378820591L103.704328125,128.4526820596453L104.247140625,126.88575592600827L104.789953125,129.36902763539692L105.332765625,131.5293142244569L105.875578125,124.36103897597931L106.418390625,127.05089926948276L106.961203125,136.63433277542353L107.50401562500001,134.27403874210867L108.046828125,131.76144483549578L108.589640625,125.42224208536354L109.132453125,131.74108449874765L109.67526562500001,119.56247092311386L110.218078125,109.49160453782824L110.760890625,125.09976209184387L111.303703125,131.55246724999742L111.84651562500001,130.34235317135753L112.389328125,119.21445097286195L112.932140625,133.40759928104816L113.47495312500001,127.73271488185273L114.017765625,130.95947735891386L114.56057812499999,129.84569137678918L115.10339062499999,125.01716971818823L115.646203125,125.00847077207581L116.189015625,130.21007412334583L116.73182812499999,124.66967145628004L117.27464062499999,126.95631427449698L117.817453125,115.2607571926579L118.360265625,126.00790763771656L118.903078125,131.34729053671762L119.445890625,127.19966118492593L119.988703125,126.92235691774258L120.531515625,124.95610733967041L121.074328125,130.8220994283998L121.617140625,133.4570892871794L122.159953125,136.1821304208148L122.702765625,124.46538078510784L123.245578125,68.16742457594371L123.788390625,130.21509226836642L124.331203125,136.08172404637443L124.874015625,131.8964565367365L125.41682812500001,131.4976609912206L125.959640625,123.54319312798324L126.502453125,133.11429864151577L127.045265625,137.07845310108823L127.58807812500001,130.75506247623125L128.130890625,130.71258420986268L128.673703125,126.95396460675838L129.216515625,132.10396635622018L129.759328125,130.0014174175827L130.30214062500002,135.90106875544151L130.844953125,131.90907228581054L131.387765625,131.08847722305072L131.93057812499998,134.4545656811475L132.473390625,133.57879586546332L133.016203125,135.61198509668756L133.559015625,130.53563456232368L134.101828125,130.7029743793406L134.644640625,128.1838572982393L135.187453125,-69.18848737769301L135.730265625,116.61420721392787L136.27307812499998,130.09726936997467L136.815890625,115.82671451869246L137.358703125,121.98638816225284L137.901515625,125.58394684019149L138.444328125,134.79912841102632L138.987140625,125.91407205217692L139.529953125,132.24954431661317L140.072765625,129.47643539864075L140.615578125,138.31199347059155L141.158390625,128.77750551032804L141.701203125,135.35657310821406L142.244015625,136.53105504490085L142.786828125,132.00081904778344L143.329640625,129.71329225765075L143.872453125,140.91030574053875L144.41526562500002,136.49119143082643L144.95807812500001,134.67446145841095L145.500890625,135.84857904133386L146.043703125,135.2386922444508L146.586515625,132.41706424032017L147.129328125,140.0343578883563L147.672140625,135.41144147274608L148.21495312500002,126.01116197928931L148.75776562500002,137.62018711240088L149.30057812500002,133.05760643797257L149.843390625,134.79067581774288L150.386203125,135.748425230298L150.929015625,131.22527549984952L151.471828125,137.37520889080187L152.014640625,131.72926991391577L152.55745312500002,129.59997409670322L153.10026562500002,132.31439721639035L153.64307812500002,117.79451881083659L154.185890625,137.06922625605657L154.728703125,136.7446181053252L155.271515625,135.16935944953147L155.814328125,135.4367640593351L156.35714062499997,141.11467921938456L156.899953125,135.64660491483082L157.442765625,131.57909819782944L157.985578125,140.0568236102059L158.528390625,130.134336154873L159.07120312499998,135.8642814464416L159.61401562499998,136.4942304724478L160.15682812499998,129.53053986238373L160.699640625,132.43385970671952L161.242453125,136.67024232308322L161.785265625,142.00891100589942L162.328078125,123.82542238155438L162.870890625,138.71298548964987L163.41370312499998,137.9397895392627L163.95651562499998,125.17634676877933L164.499328125,140.5270221424813L165.042140625,128.12720856872474L165.584953125,141.91674192479113L166.127765625,131.17121865051885L166.670578125,131.61399335148744L167.213390625,134.6889341695656L167.75620312499998,132.37238121964182L168.299015625,140.28196525359235L168.841828125,137.1099303680181L169.384640625,142.6466853570615L169.927453125,137.32166337885573L170.470265625,137.2856482514122L171.013078125,142.17152043456153L171.555890625,135.0078699946549L172.098703125,135.5755207376147L172.641515625,138.3687187972042L173.184328125,110.6453348715091L173.727140625,134.95670106294128L174.269953125,143.3534478162015L174.812765625,142.8593075152945L175.355578125,144.72601709421141L175.87125,138.27581686818448L176.386921875,141.87491783904406L176.90259375000002,139.34290139258664L177.44540625000002,136.58364619840867L177.98821875000002,138.56672436594963L178.503890625,131.70596369417908L179.046703125,136.48892457076144L179.589515625,144.6233459298979L180.07804687499998,140.47088060996757L180.62085937499998,136.26273955068754L181.163671875,134.63314249947288L181.67934375,128.54586346456344L182.22215625,136.67891228650987L182.76496875,130.42858287207636L183.30778125,135.46789353403582L183.85059375,138.51289730791322L184.39340625,142.89735453602916L184.88193750000002,136.0463009937972L185.397609375,138.91574835924402L185.886140625,147.095226408686L186.34753125,136.78662022757052L186.863203125,138.53155594696872L187.351734375,139.20758330295357L187.840265625,141.5580335740684L188.30165624999998,138.11659841375658L188.76304687500001,143.60743137230529L189.305859375,138.87444389164884L189.848671875,138.57120219089992L190.36434375000002,136.04096196904138L190.825734375,143.892735895855L191.34140624999998,137.26193213369115L192.671296875,143.53690200650234L193.159828125,135.13530272356874L193.5669375,140.24970752433873L194.81540625,134.23263904568884L195.222515625,142.94637357351675L195.711046875,140.89025179218297L196.22671875,143.02613081944727L196.66096875,146.2307971039023L197.09521875,142.70441886710032L197.556609375,140.80145298339048L197.96371875000003,139.89838147771806L198.370828125,139.7881375516532L198.83221875,144.67590085504852L199.32075,142.43926041544327L199.727859375,138.5804041936295L200.08068749999998,141.2832777130403L200.46065625,142.08885353399964L200.840625,141.7971220998821L201.193453125,136.70293893300695L201.573421875,138.42084622773982L202.79475,142.98710770325997L203.229,143.89717542225625L203.880375,138.02035519510682L204.36890625,146.4378814989628L204.667453125,146.91499343688847L205.101703125,145.4156042067494L205.590234375,144.9769968019551L205.970203125,143.84489583262038L206.295890625,142.5097069735726L207.16439062499998,143.36399233833944L207.51721874999998,145.95568827516544L207.8971875,145.0316177785622L208.27715625,142.26807004160364L208.684265625,140.98554893316177L209.009953125,144.7959709466828L209.52562500000002,141.55930260166642L209.932734375,145.5566225696144L210.20414062499998,147.51423841261712L210.9369375,141.76995497236348L211.181203125,144.79314409972503L211.506890625,143.89191402969445L212.131125,144.86359583333396L213.21675,143.63113403377938L213.70528124999998,148.32409539030195L215.98509374999998,142.63486663184594L216.3650625,145.1644733750014L216.717890625,143.99910338769914L217.15214062500002,141.53224726450716L218.15634375,144.88965954860177L218.672015625,148.83210804672999L218.997703125,147.94447189141792L219.24196874999998,144.35147074081542L219.513375,143.60199711872482L219.89334375,144.90222561307164L220.16475,144.25181481091712L221.223234375,141.57907086354825L221.49464062500002,146.60826346288886L222.146015625,143.83715538532996L222.77025,143.49970272932623L222.987375,145.32151088232567L223.2045,143.5795759059998L224.20870312499997,144.19372315768996L224.805796875,141.7513335967611L225.59287500000002,146.5513425031473L225.86428125,143.62937540581115L226.08140625,144.38748483316303L226.84134375,148.00558188434806L227.357015625,148.66119611369285L227.49271875,147.66297238047045L228.442640625,142.38798383375396L229.01259375,142.46390397910872L229.17543750000002,140.23442536817456L229.636828125,145.36764200219622L230.342484375,145.79599678190206L230.613890625,147.0339135369555L232.32375,146.66848844880732L233.056546875,143.8594027019404L233.382234375,145.16821214146475L233.57221875000002,143.674038759667L233.70792187499998,143.6933453687685L234.277875,145.61831842683532L234.60356249999998,147.20494968150305L234.87496875,148.20229358319338L235.14637499999998,148.12550499236167L235.3635,144.54866789964726L235.60776562499998,146.16954323263926L235.68918749999997,143.30342577076735L236.367703125,145.69882404711606L236.72053125,143.16414843923994L237.453328125,145.67077501787352L237.6433125,146.6335819090942L237.969,147.0297959253854L238.593234375,145.57524394521678L238.810359375,148.35603223982034L239.027484375,145.4439596243843L239.516015625,148.56551184683994L239.923125,144.93312115609442L240.0316875,143.98351484314261L240.275953125,147.73762349822718L242.121515625,146.9862339135885L242.47434375,143.81068901774924L242.827171875,145.09339333816897L243.261421875,143.85438766220759L243.532828125,147.29151371820407L243.61425,150.242200586939L244.3741875,141.41192771475616L244.835578125,148.78151876873162L245.05270312500002,145.3935649444189L245.89406250000002,143.4584986660353L246.355453125,147.39077838184457L247.25109375,148.99684770279563L247.332515625,147.97584254346802L247.441078125,141.61953276306448L248.11959375,147.6363248711037L248.906671875,147.55518991250355" style="fill: none;" fill="none"></path></g></g></g></g></g></g><g transform="translate(58, 177)" clip-path="url(#clip_1)"><clipPath id="clip_1"><rect width="271" height="22"></rect></clipPath><g><g><line x1="0" y1="0" x2="0" y2="5" style="visibility: inherit;" fill="rgb(0, 0, 0)" stroke="rgb(204, 204, 204)" stroke-width="1px"></line><line x1="27.140625" y1="0" x2="27.140625" y2="5" style="visibility: inherit;" fill="rgb(0, 0, 0)" stroke="rgb(204, 204, 204)" stroke-width="1px"></line><line x1="54.28125" y1="0" x2="54.28125" y2="5" style="visibility: inherit;" fill="rgb(0, 0, 0)" stroke="rgb(204, 204, 204)" stroke-width="1px"></line><line x1="81.421875" y1="0" x2="81.421875" y2="5" style="visibility: inherit;" fill="rgb(0, 0, 0)" stroke="rgb(204, 204, 204)" stroke-width="1px"></line><line x1="108.5625" y1="0" x2="108.5625" y2="5" style="visibility: inherit;" fill="rgb(0, 0, 0)" stroke="rgb(204, 204, 204)" stroke-width="1px"></line><line x1="135.703125" y1="0" x2="135.703125" y2="5" style="visibility: inherit;" fill="rgb(0, 0, 0)" stroke="rgb(204, 204, 204)" stroke-width="1px"></line><line x1="162.84375" y1="0" x2="162.84375" y2="5" style="visibility: inherit;" fill="rgb(0, 0, 0)" stroke="rgb(204, 204, 204)" stroke-width="1px"></line><line x1="189.984375" y1="0" x2="189.984375" y2="5" style="visibility: inherit;" fill="rgb(0, 0, 0)" stroke="rgb(204, 204, 204)" stroke-width="1px"></line><line x1="217.125" y1="0" x2="217.125" y2="5" style="visibility: inherit;" fill="rgb(0, 0, 0)" stroke="rgb(204, 204, 204)" stroke-width="1px"></line><line x1="244.265625" y1="0" x2="244.265625" y2="5" style="visibility: inherit;" fill="rgb(0, 0, 0)" stroke="rgb(204, 204, 204)" stroke-width="1px"></line><line x1="271.40625" y1="0" x2="271.40625" y2="5" style="visibility: inherit;" fill="rgb(0, 0, 0)" stroke="rgb(204, 204, 204)" stroke-width="1px"></line></g><g transform="translate(0, 8)"><text x="0" y="0" dx="0em" dy="0.95em" style="text-anchor: middle; visibility: hidden; font-family: &quot;Helvetica Neue&quot;, sans-serif; font-size: 12px; font-weight: 200;" fill="rgb(50, 49, 63)" stroke="none" stroke-width="1px">-1k</text><text x="27.140625" y="0" dx="0em" dy="0.95em" style="text-anchor: middle; visibility: inherit; font-family: &quot;Helvetica Neue&quot;, sans-serif; font-size: 12px; font-weight: 200;" fill="rgb(50, 49, 63)" stroke="none" stroke-width="1px">0</text><text x="54.28125" y="0" dx="0em" dy="0.95em" style="text-anchor: middle; visibility: inherit; font-family: &quot;Helvetica Neue&quot;, sans-serif; font-size: 12px; font-weight: 200;" fill="rgb(50, 49, 63)" stroke="none" stroke-width="1px">1k</text><text x="81.421875" y="0" dx="0em" dy="0.95em" style="text-anchor: middle; visibility: inherit; font-family: &quot;Helvetica Neue&quot;, sans-serif; font-size: 12px; font-weight: 200;" fill="rgb(50, 49, 63)" stroke="none" stroke-width="1px">2k</text><text x="108.5625" y="0" dx="0em" dy="0.95em" style="text-anchor: middle; visibility: inherit; font-family: &quot;Helvetica Neue&quot;, sans-serif; font-size: 12px; font-weight: 200;" fill="rgb(50, 49, 63)" stroke="none" stroke-width="1px">3k</text><text x="135.703125" y="0" dx="0em" dy="0.95em" style="text-anchor: middle; visibility: inherit; font-family: &quot;Helvetica Neue&quot;, sans-serif; font-size: 12px; font-weight: 200;" fill="rgb(50, 49, 63)" stroke="none" stroke-width="1px">4k</text><text x="162.84375" y="0" dx="0em" dy="0.95em" style="text-anchor: middle; visibility: inherit; font-family: &quot;Helvetica Neue&quot;, sans-serif; font-size: 12px; font-weight: 200;" fill="rgb(50, 49, 63)" stroke="none" stroke-width="1px">5k</text><text x="189.984375" y="0" dx="0em" dy="0.95em" style="text-anchor: middle; visibility: inherit; font-family: &quot;Helvetica Neue&quot;, sans-serif; font-size: 12px; font-weight: 200;" fill="rgb(50, 49, 63)" stroke="none" stroke-width="1px">6k</text><text x="217.125" y="0" dx="0em" dy="0.95em" style="text-anchor: middle; visibility: inherit; font-family: &quot;Helvetica Neue&quot;, sans-serif; font-size: 12px; font-weight: 200;" fill="rgb(50, 49, 63)" stroke="none" stroke-width="1px">7k</text><text x="244.265625" y="0" dx="0em" dy="0.95em" style="text-anchor: middle; visibility: inherit; font-family: &quot;Helvetica Neue&quot;, sans-serif; font-size: 12px; font-weight: 200;" fill="rgb(50, 49, 63)" stroke="none" stroke-width="1px">8k</text><text x="271.40625" y="0" dx="0em" dy="0.95em" style="text-anchor: middle; visibility: hidden; font-family: &quot;Helvetica Neue&quot;, sans-serif; font-size: 12px; font-weight: 200;" fill="rgb(50, 49, 63)" stroke="none" stroke-width="1px">9k</text></g><line x1="0" y1="0" x2="271.40625" y2="0" fill="rgb(0, 0, 0)" stroke="rgb(204, 204, 204)" stroke-width="1px"></line></g></g></g></g></svg>