<svg viewBox="0 0 1029 400" xmlns="http://www.w3.org/2000/svg"><g><g><g><g><g><line x1="78.03125" y1="377.828125" x2="73.03125" y2="377.828125" style="visibility: inherit;" fill="rgb(0, 0, 0)" stroke="rgb(204, 204, 204)" stroke-width="1px"></line><line x1="78.03125" y1="348.76442307692315" x2="73.03125" y2="348.76442307692315" style="visibility: inherit;" fill="rgb(0, 0, 0)" stroke="rgb(204, 204, 204)" stroke-width="1px"></line><line x1="78.03125" y1="319.70072115384613" x2="73.03125" y2="319.70072115384613" style="visibility: inherit;" fill="rgb(0, 0, 0)" stroke="rgb(204, 204, 204)" stroke-width="1px"></line><line x1="78.03125" y1="290.6370192307692" x2="73.03125" y2="290.6370192307692" style="visibility: inherit;" fill="rgb(0, 0, 0)" stroke="rgb(204, 204, 204)" stroke-width="1px"></line><line x1="78.03125" y1="261.5733173076924" x2="73.03125" y2="261.5733173076924" style="visibility: inherit;" fill="rgb(0, 0, 0)" stroke="rgb(204, 204, 204)" stroke-width="1px"></line><line x1="78.03125" y1="232.5096153846154" x2="73.03125" y2="232.5096153846154" style="visibility: inherit;" fill="rgb(0, 0, 0)" stroke="rgb(204, 204, 204)" stroke-width="1px"></line><line x1="78.03125" y1="203.44591346153848" x2="73.03125" y2="203.44591346153848" style="visibility: inherit;" fill="rgb(0, 0, 0)" stroke="rgb(204, 204, 204)" stroke-width="1px"></line><line x1="78.03125" y1="174.38221153846152" x2="73.03125" y2="174.38221153846152" style="visibility: inherit;" fill="rgb(0, 0, 0)" stroke="rgb(204, 204, 204)" stroke-width="1px"></line><line x1="78.03125" y1="145.31850961538464" x2="73.03125" y2="145.31850961538464" style="visibility: inherit;" fill="rgb(0, 0, 0)" stroke="rgb(204, 204, 204)" stroke-width="1px"></line><line x1="78.03125" y1="116.25480769230774" x2="73.03125" y2="116.25480769230774" style="visibility: inherit;" fill="rgb(0, 0, 0)" stroke="rgb(204, 204, 204)" stroke-width="1px"></line><line x1="78.03125" y1="87.19110576923077" x2="73.03125" y2="87.19110576923077" style="visibility: inherit;" fill="rgb(0, 0, 0)" stroke="rgb(204, 204, 204)" stroke-width="1px"></line><line x1="78.03125" y1="58.127403846153754" x2="73.03125" y2="58.127403846153754" style="visibility: inherit;" fill="rgb(0, 0, 0)" stroke="rgb(204, 204, 204)" stroke-width="1px"></line><line x1="78.03125" y1="29.063701923076962" x2="73.03125" y2="29.063701923076962" style="visibility: inherit;" fill="rgb(0, 0, 0)" stroke="rgb(204, 204, 204)" stroke-width="1px"></line><line x1="78.03125" y1="0" x2="73.03125" y2="0" style="visibility: inherit;" fill="rgb(0, 0, 0)" stroke="rgb(204, 204, 204)" stroke-width="1px"></line></g><g transform="translate(68.03125, 0)"><text x="0" y="377.828125" dx="0em" dy="0.3em" style="text-anchor: end; visibility: hidden; font-family: &quot;Helvetica Neue&quot;, sans-serif; font-size: 12px; font-weight: 200;" fill="rgb(50, 49, 63)" stroke="none" stroke-width="1px">1.5e-3</text><text x="0" y="348.76442307692315" dx="0em" dy="0.3em" style="text-anchor: end; visibility: inherit; font-family: &quot;Helvetica Neue&quot;, sans-serif; font-size: 12px; font-weight: 200;" fill="rgb(50, 49, 63)" stroke="none" stroke-width="1px">1.55e-3</text><text x="0" y="319.70072115384613" dx="0em" dy="0.3em" style="text-anchor: end; visibility: inherit; font-family: &quot;Helvetica Neue&quot;, sans-serif; font-size: 12px; font-weight: 200;" fill="rgb(50, 49, 63)" stroke="none" stroke-width="1px">1.6e-3</text><text x="0" y="290.6370192307692" dx="0em" dy="0.3em" style="text-anchor: end; visibility: inherit; font-family: &quot;Helvetica Neue&quot;, sans-serif; font-size: 12px; font-weight: 200;" fill="rgb(50, 49, 63)" stroke="none" stroke-width="1px">1.65e-3</text><text x="0" y="261.5733173076924" dx="0em" dy="0.3em" style="text-anchor: end; visibility: inherit; font-family: &quot;Helvetica Neue&quot;, sans-serif; font-size: 12px; font-weight: 200;" fill="rgb(50, 49, 63)" stroke="none" stroke-width="1px">1.7e-3</text><text x="0" y="232.5096153846154" dx="0em" dy="0.3em" style="text-anchor: end; visibility: inherit; font-family: &quot;Helvetica Neue&quot;, sans-serif; font-size: 12px; font-weight: 200;" fill="rgb(50, 49, 63)" stroke="none" stroke-width="1px">1.75e-3</text><text x="0" y="203.44591346153848" dx="0em" dy="0.3em" style="text-anchor: end; visibility: inherit; font-family: &quot;Helvetica Neue&quot;, sans-serif; font-size: 12px; font-weight: 200;" fill="rgb(50, 49, 63)" stroke="none" stroke-width="1px">1.8e-3</text><text x="0" y="174.38221153846152" dx="0em" dy="0.3em" style="text-anchor: end; visibility: inherit; font-family: &quot;Helvetica Neue&quot;, sans-serif; font-size: 12px; font-weight: 200;" fill="rgb(50, 49, 63)" stroke="none" stroke-width="1px">1.85e-3</text><text x="0" y="145.31850961538464" dx="0em" dy="0.3em" style="text-anchor: end; visibility: inherit; font-family: &quot;Helvetica Neue&quot;, sans-serif; font-size: 12px; font-weight: 200;" fill="rgb(50, 49, 63)" stroke="none" stroke-width="1px">1.9e-3</text><text x="0" y="116.25480769230774" dx="0em" dy="0.3em" style="text-anchor: end; visibility: inherit; font-family: &quot;Helvetica Neue&quot;, sans-serif; font-size: 12px; font-weight: 200;" fill="rgb(50, 49, 63)" stroke="none" stroke-width="1px">1.95e-3</text><text x="0" y="87.19110576923077" dx="0em" dy="0.3em" style="text-anchor: end; visibility: inherit; font-family: &quot;Helvetica Neue&quot;, sans-serif; font-size: 12px; font-weight: 200;" fill="rgb(50, 49, 63)" stroke="none" stroke-width="1px">2e-3</text><text x="0" y="58.127403846153754" dx="0em" dy="0.3em" style="text-anchor: end; visibility: inherit; font-family: &quot;Helvetica Neue&quot;, sans-serif; font-size: 12px; font-weight: 200;" fill="rgb(50, 49, 63)" stroke="none" stroke-width="1px">2.05e-3</text><text x="0" y="29.063701923076962" dx="0em" dy="0.3em" style="text-anchor: end; visibility: inherit; font-family: &quot;Helvetica Neue&quot;, sans-serif; font-size: 12px; font-weight: 200;" fill="rgb(50, 49, 63)" stroke="none" stroke-width="1px">2.1e-3</text><text x="0" y="0" dx="0em" dy="0.3em" style="text-anchor: end; visibility: hidden; font-family: &quot;Helvetica Neue&quot;, sans-serif; font-size: 12px; font-weight: 200;" fill="rgb(50, 49, 63)" stroke="none" stroke-width="1px">2.15e-3</text></g><line x1="78.03125" y1="0" x2="78.03125" y2="377.828125" fill="rgb(0, 0, 0)" stroke="rgb(204, 204, 204)" stroke-width="1px"></line></g></g><g transform="translate(78, 0)" clip-path="url(#clip_0)"><clipPath id="clip_0"><rect width="950" height="377"></rect></clipPath><g><g><g><line x1="0" y1="0" x2="0" y2="377.828125" fill="rgb(0, 0, 0)" stroke="rgb(60, 60, 60)" stroke-width="1px" opacity="0.25"></line><line x1="73.1514423076923" y1="0" x2="73.1514423076923" y2="377.828125" fill="rgb(0, 0, 0)" stroke="rgb(60, 60, 60)" stroke-width="1px" opacity="0.25"></line><line x1="146.3028846153846" y1="0" x2="146.3028846153846" y2="377.828125" fill="rgb(0, 0, 0)" stroke="rgb(60, 60, 60)" stroke-width="1px" opacity="0.25"></line><line x1="219.45432692307693" y1="0" x2="219.45432692307693" y2="377.828125" fill="rgb(0, 0, 0)" stroke="rgb(60, 60, 60)" stroke-width="1px" opacity="0.25"></line><line x1="292.6057692307692" y1="0" x2="292.6057692307692" y2="377.828125" fill="rgb(0, 0, 0)" stroke="rgb(60, 60, 60)" stroke-width="1px" opacity="0.25"></line><line x1="365.75721153846155" y1="0" x2="365.75721153846155" y2="377.828125" fill="rgb(0, 0, 0)" stroke="rgb(60, 60, 60)" stroke-width="1px" opacity="0.25"></line><line x1="438.90865384615387" y1="0" x2="438.90865384615387" y2="377.828125" fill="rgb(0, 0, 0)" stroke="rgb(60, 60, 60)" stroke-width="1px" opacity="0.25"></line><line x1="512.0600961538461" y1="0" x2="512.0600961538461" y2="377.828125" fill="rgb(0, 0, 0)" stroke="rgb(60, 60, 60)" stroke-width="1px" opacity="0.25"></line><line x1="585.2115384615385" y1="0" x2="585.2115384615385" y2="377.828125" fill="rgb(0, 0, 0)" stroke="rgb(60, 60, 60)" stroke-width="1px" opacity="0.25"></line><line x1="658.3629807692307" y1="0" x2="658.3629807692307" y2="377.828125" fill="rgb(0, 0, 0)" stroke="rgb(60, 60, 60)" stroke-width="1px" opacity="0.25"></line><line x1="731.5144230769231" y1="0" x2="731.5144230769231" y2="377.828125" fill="rgb(0, 0, 0)" stroke="rgb(60, 60, 60)" stroke-width="1px" opacity="0.25"></line><line x1="804.6658653846154" y1="0" x2="804.6658653846154" y2="377.828125" fill="rgb(0, 0, 0)" stroke="rgb(60, 60, 60)" stroke-width="1px" opacity="0.25"></line><line x1="877.8173076923077" y1="0" x2="877.8173076923077" y2="377.828125" fill="rgb(0, 0, 0)" stroke="rgb(60, 60, 60)" stroke-width="1px" opacity="0.25"></line><line x1="950.96875" y1="0" x2="950.96875" y2="377.828125" fill="rgb(0, 0, 0)" stroke="rgb(60, 60, 60)" stroke-width="1px" opacity="0.25"></line></g><g><line x1="0" y1="377.828125" x2="950.96875" y2="377.828125" fill="rgb(0, 0, 0)" stroke="rgb(60, 60, 60)" stroke-width="1px" opacity="0.25"></line><line x1="0" y1="348.76442307692315" x2="950.96875" y2="348.76442307692315" fill="rgb(0, 0, 0)" stroke="rgb(60, 60, 60)" stroke-width="1px" opacity="0.25"></line><line x1="0" y1="319.70072115384613" x2="950.96875" y2="319.70072115384613" fill="rgb(0, 0, 0)" stroke="rgb(60, 60, 60)" stroke-width="1px" opacity="0.25"></line><line x1="0" y1="290.6370192307692" x2="950.96875" y2="290.6370192307692" fill="rgb(0, 0, 0)" stroke="rgb(60, 60, 60)" stroke-width="1px" opacity="0.25"></line><line x1="0" y1="261.5733173076924" x2="950.96875" y2="261.5733173076924" fill="rgb(0, 0, 0)" stroke="rgb(60, 60, 60)" stroke-width="1px" opacity="0.25"></line><line x1="0" y1="232.5096153846154" x2="950.96875" y2="232.5096153846154" fill="rgb(0, 0, 0)" stroke="rgb(60, 60, 60)" stroke-width="1px" opacity="0.25"></line><line x1="0" y1="203.44591346153848" x2="950.96875" y2="203.44591346153848" fill="rgb(0, 0, 0)" stroke="rgb(60, 60, 60)" stroke-width="1px" opacity="0.25"></line><line x1="0" y1="174.38221153846152" x2="950.96875" y2="174.38221153846152" fill="rgb(0, 0, 0)" stroke="rgb(60, 60, 60)" stroke-width="1px" opacity="0.25"></line><line x1="0" y1="145.31850961538464" x2="950.96875" y2="145.31850961538464" fill="rgb(0, 0, 0)" stroke="rgb(60, 60, 60)" stroke-width="1px" opacity="0.25"></line><line x1="0" y1="116.25480769230774" x2="950.96875" y2="116.25480769230774" fill="rgb(0, 0, 0)" stroke="rgb(60, 60, 60)" stroke-width="1px" opacity="0.25"></line><line x1="0" y1="87.19110576923077" x2="950.96875" y2="87.19110576923077" fill="rgb(0, 0, 0)" stroke="rgb(60, 60, 60)" stroke-width="1px" opacity="0.25"></line><line x1="0" y1="58.127403846153754" x2="950.96875" y2="58.127403846153754" fill="rgb(0, 0, 0)" stroke="rgb(60, 60, 60)" stroke-width="1px" opacity="0.25"></line><line x1="0" y1="29.063701923076962" x2="950.96875" y2="29.063701923076962" fill="rgb(0, 0, 0)" stroke="rgb(60, 60, 60)" stroke-width="1px" opacity="0.25"></line><line x1="0" y1="0" x2="950.96875" y2="0" fill="rgb(0, 0, 0)" stroke="rgb(60, 60, 60)" stroke-width="1px" opacity="0.25"></line></g></g></g><g><g><line x1="0" y1="1249.7391826923076" x2="950.96875" y2="1249.7391826923076" fill="rgb(0, 0, 0)" stroke="rgb(153, 153, 153)" stroke-width="1.5px"></line></g></g><g><g><line x1="73.1514423076923" y1="0" x2="73.1514423076923" y2="377.828125" fill="rgb(0, 0, 0)" stroke="rgb(153, 153, 153)" stroke-width="1.5px"></line></g></g><g><g><g><g><g><path stroke="rgb(255, 112, 67)" stroke-width="2px" d="M73.22459375,-114.87311817451308L76.15065144230769,194.81902388600136L79.07670913461538,33.93381364094563L82.00276682692308,10.979255733149216L84.92882451923077,64.90993939922777L87.85488221153847,142.4590508680277L90.78093990384615,119.58785061637445L93.70699759615384,148.97363588871136L96.63305528846155,138.18407610289793L99.55911298076923,108.74059680276685L102.48517067307692,80.52136359554197L105.41122836538462,80.52068866965925L108.33728605769231,42.836736515128734L111.26334375,18.771190405883488L114.1894014423077,64.54920827985302L117.11545913461539,-2.082436297754839L120.04151682692307,-4.781437789616064L122.96757451923078,10.335378205635038L125.89363221153846,6.920360796390014L128.81968990384615,-37.24809209006162L131.74574759615385,30.58222649671154L134.67180528846154,80.0378954718667L137.59786298076924,69.08694148024642L140.52392067307693,95.68154753576869L143.44997836538462,149.48879443158557L146.3760360576923,74.38826290582574L149.30209375,72.96682230801122L152.2281514423077,100.6733290276876L155.15420913461537,126.53721697306685L158.0802668269231,154.36888859043034L161.00632451923076,156.32595526130228L163.93238221153845,183.80050453815412L166.85843990384618,124.44408288772078L169.78449759615384,137.41380553778794L172.71055528846153,184.09911416671892L175.63661298076923,161.5092932622688L178.56267067307692,60.585849601130406L181.48872836538462,95.9426740434132L184.4147860576923,118.94636076978031L187.34084375,60.050902661936675L190.2669014423077,34.33828237280284L193.1929591346154,84.5868587971932L196.11901682692306,93.72434179327996L199.04507451923078,132.75456421461988L201.97113221153847,154.07527405987517L204.89718990384614,162.65803831451558L207.82324759615386,139.20411025538183L210.74930528846153,153.78745585853227L213.67536298076922,177.64998881677283L216.60142067307694,154.32823521320682L219.5274783653846,90.26438227491366L222.4535360576923,70.50753069727403L225.37959375,101.92633168903632L228.3056514423077,131.35582933812557L231.2317091346154,140.5318429550031L234.15776682692308,143.8310662301966L237.08382451923077,149.61233344685343L240.00988221153844,187.37793775151113L242.93593990384616,212.59588435245476L245.86199759615386,149.46145358878314L248.78805528846155,175.60664446124775L251.71411298076922,170.58042109431406L254.6401706730769,200.75981501425792L257.56622836538463,212.3392050554273L260.4922860576923,221.74522779731404L263.41834375,236.72516421256736L266.3444014423077,214.06666560275622L269.27045913461535,236.8520734642211L272.1965168269231,255.03153561365883L275.1225745192308,273.38001878614443L278.04863221153846,289.6898487107339L280.9746899038461,272.8007466514199L283.90074759615385,247.69151510911314L286.8268052884615,250.30292832243924L289.75286298076924,181.24419346655696L292.67892067307696,99.0473298124731L295.6049783653846,144.56539963583944L298.5310360576923,178.3654672106918L301.45709375,165.63575419794148L304.38315144230774,122.94014142670176L307.3092091346154,47.356003462314504L310.23526682692307,94.43523400375182L313.1613245192308,92.67108064597L316.08738221153845,133.59548709013058L319.0134399038462,168.67963165804994L321.9394975961539,196.51071992185305L324.8655552884615,162.32557472332263L327.79161298076923,203.30333482763703L330.71767067307695,238.0800768823672L333.6437283653846,267.96586729547533L336.5697860576923,234.22486136315217L339.49584375,233.9895378866276L342.42190144230767,255.84673160255605L345.3479591346154,238.46205954877863L348.2740168269231,230.92112019376236L351.2000745192307,179.1199889642023L354.12613221153845,206.57752672068023L357.05218990384617,161.27648999467283L359.97824759615384,152.22305445122512L362.90430528846156,174.60268232905423L365.8303629807692,155.10866721238497L368.7564206730769,135.70279262772226L371.6824783653846,129.97671882716736L374.60853605769233,144.25831237987677L377.53459375,182.80048714687757L380.46065144230766,137.76809983639245L383.3867091346154,66.97618131099819L386.31276682692305,106.4317367796599L389.2388245192308,127.8307655299293L392.1648822115385,125.51024794406047L395.0909399038461,162.08696151300143L398.01699759615383,153.07503934001795L400.94305528846155,194.01984375187473L403.8691129807692,216.88613815890866L406.79517067307694,164.68549816592503L409.7212283653846,112.32632902193609L412.64728605769227,144.19365342860834L415.57334375,185.59719805462586L418.4994014423077,189.8778354239621L421.4254591346154,213.6850288996156L424.35151682692305,237.69884801416364L427.27757451923077,174.7501926425605L430.20363221153843,100.9350064242393L433.12968990384616,124.24566282409879L436.0557475961539,120.66380930692696L438.98180528846154,115.03853863398302L441.9078629807692,122.99552848116159L444.83392067307693,155.72000442762317L447.75997836538465,174.0962009109645L450.6860360576923,170.13231035005484L453.61209375,177.77042520630283L456.5381514423077,205.37327935590034L459.4642091346154,233.85116146239687L462.3902668269231,259.33384207607776L465.3163245192308,292.72587727765176L468.2423822115384,250.36830714664117L471.16843990384615,237.26357586004715L474.0944975961539,173.38624390601996L477.0205552884615,201.25938361506812L479.9466129807692,250.915999759148L482.8726706730769,182.83086003946497L485.7987283653846,137.790358378524L488.7247860576923,174.74392803450428L491.65084375000004,201.16010359217708L494.5769014423077,236.99224377583488L497.5029591346154,153.64625672820196L500.42901682692315,104.4432507656399L503.3550745192307,129.00949687073293L506.2811322115384,148.33936167249684L509.20718990384614,193.61136646180796L512.1332475961539,221.4829037025785L515.0593052884616,229.85372061142124L517.9853629807692,187.4971900106673L520.9114206730769,216.140163787846L523.8374783653846,250.42243981297256L526.7635360576924,262.67565417787216L529.6895937500001,292.71157152292466L532.6156514423077,277.1685800228055L535.5417091346153,292.11170581395794L538.467766826923,308.0096963483013L541.3938245192307,244.44888169223069L544.3198822115385,229.07645887067395L547.2459399038462,260.2717839745948L550.1719975961539,267.04213090473075L553.0980552884615,244.1865836780978L556.0241129807692,175.40497941061093L558.950170673077,211.12371917724835L561.8762283653846,230.93420597894726L564.8022860576923,170.40043288899884L567.72834375,182.9097197978566L570.6544014423076,212.1126832400303L573.5804591346154,224.68474560718695L576.5065168269231,241.30523778641654L579.4325745192308,188.4785774503233L582.3586322115385,207.32464403035306L585.2846899038462,202.50131290620084L588.2107475961539,230.83791105553493L591.1368052884615,129.05744751325597L594.0628629807692,115.30251544524111L596.9889206730769,128.98883344138937L599.9149783653846,136.22216562552126L602.8410360576923,115.14639024540884L605.76709375,120.94413854905594L608.6931514423077,109.1337565722269L611.6192091346154,115.56478245040012L614.5452668269231,93.71141294560266L617.4713245192307,89.258459152098L620.3973822115385,71.93199699700722L623.3234399038462,69.11156008340555L626.2494975961538,122.06366459165204L629.1755552884615,92.35448235937548L632.1016129807692,121.56979061030057L635.027670673077,162.8437996828165L637.9537283653847,183.98624679915076L640.8797860576923,205.14727313420406L643.80584375,211.52756219128602L646.7319014423076,227.64681802331407L649.6579591346153,254.3499377115844L652.5840168269231,282.4029833321771L655.5100745192308,315.0640909608197L658.4361322115385,300.2961380945992L661.3621899038461,281.0995194317538L664.2882475961538,295.631611553664L667.2143052884616,308.1587360210661L670.1403629807693,322.02041240053694L673.066420673077,344.0659405495577L675.9924783653846,254.7552371381513L678.9185360576922,281.28689084635874L681.84459375,267.07040586782387L684.7706514423077,236.00380883076008L687.6967091346154,165.33222353264938L690.6227668269231,191.24992691727755L693.5488245192308,225.3749276253751L696.4748822115384,211.09269300791792L699.4009399038462,144.9031637795128L702.1806947115385,160.28390619666578L705.1067524038461,114.00124112438453L708.0328100961539,155.039070673148L710.9588677884615,193.5117333953445L713.8849254807692,232.0143229515663L716.8109831730769,247.22293851946813L719.7370408653846,268.1624896781491L722.6630985576923,245.6193501386426L725.58915625,274.3921399904582L728.4420625,225.26521045252986L731.3681201923077,203.77695808270806L734.2941778846155,223.3385612480121L737.2202355769231,206.02301134389265L740.1462932692307,237.46401860666856L742.9991995192307,266.17984840419285L745.9252572115385,279.26909565414815L748.8513149038462,313.8699580052529L751.7042211538461,266.65057708602706L754.5571274038462,269.69507527739955L757.4831850961539,239.1667525336199L760.4092427884615,255.1902076000025L763.1889975961539,285.61949857717224L766.1150552884616,319.7274098865033L769.0411129807693,327.2586919108368L771.9671706730769,295.3727780894269L774.8932283653846,311.0055668867452L777.7461346153847,337.88728598419806L780.6721923076924,347.2288131540221L783.4519471153847,328.8960237767308L786.3780048076923,322.82610330591933L789.3040625,325.8126842379348L792.2301201923077,340.6603137570695L795.1561778846153,324.83024049751657L798.082235576923,318.3290614694332L800.9351418269231,248.52817041630084L803.8611995192308,236.53187199901814L806.7872572115385,228.56189963349874L809.7133149038461,123.39082876156351L812.6393725961539,123.26933499199032L815.5654302884616,66.62794522194446L818.4914879807692,101.95376018944631L821.3443942307692,145.22248892397621L824.1973004807692,188.54439016212672L827.1233581730769,218.89310847647656L829.9762644230769,248.4783651286334L832.8291706730769,178.70430723018492L835.7552283653846,215.81159654728697L838.6812860576923,198.3899848791219L841.5341923076923,194.27413770482244L844.46025,201.34115805997803L847.3863076923077,226.7983856217147L850.3123653846154,235.57564846034083L853.2384230769231,161.9654627507529L856.1644807692307,191.2924141586489L859.0173870192307,194.48485999016424L861.9434447115384,221.99369289678518L864.8695024038461,170.66027858119307L867.7955600961538,183.60410436791082L870.7216177884616,207.0098157544128L873.5745240384615,177.40438303993034L876.5005817307692,179.69671318365758L879.3534879807693,150.74985793157774L882.279545673077,179.23239140380113L885.2056033653846,159.99304995633628L888.1316610576923,183.63922053590372" style="fill: none;" fill="none"></path></g></g></g></g><g opacity="0.20000000298023224"><g><g><g><path stroke="rgb(255, 112, 67)" stroke-width="2px" d="M82.00276682692308,-44.767145872071296L84.92882451923077,230.95400431864144L87.85488221153847,426.5059595034243L90.78093990384615,23.821682870925372L93.70699759615384,285.8555861241587L96.63305528846155,83.36259765110805L99.55911298076923,-52.041856006531134L102.48517067307692,-83.19878772264701L105.41122836538462,80.51656625846118L108.33728605769231,-197.69751741708467L120.04151682692307,-24.29409880088997L122.96757451923078,122.05117947024814L125.89363221153846,-18.809645134257153L137.59786298076924,-18.28358474036213L140.52392067307693,310.1020710323311L143.44997836538462,587.3816429970858L146.3760360576923,-541.8928647187826L149.30209375,61.215685143422036L152.2281514423077,331.24193044226223L155.15420913461537,343.04371034152484L158.0802668269231,388.5766938252536L161.00632451923076,172.87257893587676L163.93238221153845,417.07091002305526L166.85843990384618,-381.414805469336L169.78449759615384,248.3193431843135L172.71055528846153,584.5142281358936L181.48872836538462,401.4087373593312L184.4147860576923,318.07296194018835L187.34084375,-450.65217586593315L193.1929591346154,521.5994621698584L196.11901682692306,173.29280469431365L199.04507451923078,473.0087780225664L201.97113221153847,340.1305510982549L204.89718990384614,237.62334575181686L207.82324759615386,-65.81822328601714L210.74930528846153,281.3605238929695L213.67536298076922,386.53254250305383L222.4535360576923,-102.70998472451737L225.37959375,377.5064180240107L228.3056514423077,389.58564166072756L231.2317091346154,221.07450350471146L234.15776682692308,172.798954841645L237.08382451923077,200.38708039444353L240.00988221153844,519.1413783252177L248.78805528846155,405.42490463199255L251.71411298076922,126.39242960016085L254.6401706730769,466.1199176907808L257.56622836538463,314.1671631396704L260.4922860576923,304.47043684643893L263.41834375,368.4862484349422L266.3444014423077,14.747513256859577L269.27045913461535,437.3044757803705L278.04863221153846,433.20331598716217L280.9746899038461,124.18201504310127L283.90074759615385,26.72739850172701L286.8268052884615,273.28467804930943L289.75286298076924,-426.53148800847475L298.5310360576923,475.8634710733582L301.45709375,53.58977183886765L304.38315144230774,-252.8721444617796L310.23526682692307,508.8490276961149L313.1613245192308,77.14190304215748L316.08738221153845,493.84304330607233L336.5697860576923,-62.80978580315309L339.49584375,231.91788446408017L342.42190144230767,448.26607483957645L345.3479591346154,85.41568130826971L348.2740168269231,164.5339735720862L351.2000745192307,-276.9165014568358L357.05218990384617,-237.53857345392828L359.97824759615384,72.51941969935211L362.90430528846156,371.6265055276991L365.8303629807692,-16.511463619276128L368.7564206730769,-35.141742920126944L371.6824783653846,79.56567860023978L374.60853605769233,269.9904058476632L377.53459375,522.118078951285L386.31276682692305,453.79187439001043L389.2388245192308,316.224442287496L392.1648822115385,105.08075808062074L395.0909399038461,484.10314406052487L398.01699759615383,73.73529996144441L400.94305528846155,554.4925826595997L415.57334375,550.1095129614562L418.4994014423077,227.5641155313799L421.4254591346154,423.2811159053459L430.20363221153843,-548.9268078244954L433.12968990384616,329.47048601321876L436.0557475961539,89.12950257631019L438.98180528846154,65.51416833624427L441.9078629807692,193.0481521851437L444.83392067307693,443.8233885724823L447.75997836538465,335.8786243179616L450.6860360576923,135.2345615128288L453.61209375,245.01573263247982L456.5381514423077,448.38645835394993L468.2423822115384,-122.54423450751125L471.16843990384615,121.89060044854594L474.0944975961539,-388.984553334357L500.42901682692315,-328.73608935446157L503.3550745192307,345.28877153116406L506.2811322115384,318.5179546273833L509.20718990384614,592.182502362313L512.1332475961539,466.86170750784765L515.0593052884616,303.54972965331626L517.9853629807692,-185.4063538326344L523.8374783653846,552.2408898879434L526.7635360576924,370.55198623329994L529.6895937500001,557.1454184740926L532.6156514423077,140.32930823214477L535.5417091346153,423.669807814599L541.3938245192307,-315.13552666763565L544.3198822115385,93.73885809348968L547.2459399038462,534.9129720922256L550.1719975961539,326.6477328268363L553.0980552884615,42.96814286184963L556.0241129807692,-430.14285810127L564.8022860576923,-362.53415011273376L567.72834375,293.0404992245693L570.6544014423076,469.21328002498757L573.5804591346154,335.36819551025L576.5065168269231,387.630746018943L579.4325745192308,-276.6031930411252L582.3586322115385,373.2439348478533L585.2846899038462,160.0370842723821L588.2107475961539,480.3110971923631L594.0628629807692,-5.794827079480967L596.9889206730769,249.48210312106397L599.9149783653846,199.90385460684328L602.8410360576923,-70.40308255125552L605.76709375,171.9870597289678L608.6931514423077,5.156080245452301L611.6192091346154,172.1830297444965L614.5452668269231,-98.6839377480344L617.4713245192307,50.055003285291605L620.3973822115385,-80.60881659890919L623.3234399038462,44.280654747621156L626.2494975961538,588.2498388877049L635.027670673077,526.2169379915488L637.9537283653847,370.12269280149263L640.8797860576923,391.44728913904584L643.80584375,267.6991265915164L646.7319014423076,369.55948201446046L649.6579591346153,489.4421089380048L655.5100745192308,602.6099207231131L658.4361322115385,170.28023938998993L661.3621899038461,112.09399440983094L664.2882475961538,423.57101077638356L678.9185360576922,514.8694891296685L681.84459375,141.90958715916182L684.7706514423077,-37.504074840743726L693.5488245192308,525.8087573514697L696.4748822115384,85.35301962512762L699.4009399038462,-437.8242601533152L702.1806947115385,295.69475609235144L705.1067524038461,-293.4677121260902L719.7370408653846,452.5126557527334L722.6630985576923,47.15131773061768L725.58915625,527.7055251467973L728.4420625,-207.24442409209087L731.3681201923077,14.596069577732123L734.2941778846155,395.5573812672161L737.2202355769231,53.57826807414398L740.1462932692307,514.2681805806396L751.7042211538461,-149.06514903997038L754.5571274038462,296.49859856972205L757.4831850961539,-29.60220652122871L769.0411129807693,393.56350816377943L771.9671706730769,14.651693663631477L774.8932283653846,448.63541335641196L780.6721923076924,429.47088568795095L783.4519471153847,167.49558396560428L786.3780048076923,269.3869995533023L789.3040625,352.1063085216626L792.2301201923077,471.37767952315227L795.1561778846153,185.46351709518618L798.082235576923,261.09319120272994L800.9351418269231,-365.9933998343589L803.8611995192308,130.91740161963165L806.7872572115385,158.39488802346975L809.7133149038461,-802.5270304819569L812.6393725961539,122.19971337359254L815.5654302884616,-432.038407850921L835.7552283653846,542.501261319213L838.6812860576923,45.01148215359831L841.5341923076923,158.03854199385162L844.46025,263.55865099063465L847.3863076923077,450.92182042985223L850.3123653846154,312.84998207880506L853.2384230769231,-486.0928388883432L856.1644807692307,449.48459420063483L859.0173870192307,222.59090270290974L861.9434447115384,464.1793002510945L864.8695024038461,-281.27507490303833L867.7955600961538,297.56053139212935L870.7216177884616,413.0718630590709L873.5745240384615,-83.23952458360986L876.5005817307692,199.87820797842983L879.3534879807693,-104.09598536611207" style="fill: none;" fill="none"></path></g></g></g></g></g></g><g transform="translate(78, 377)" clip-path="url(#clip_1)"><clipPath id="clip_1"><rect width="950" height="22"></rect></clipPath><g><g><line x1="0" y1="0" x2="0" y2="5" style="visibility: inherit;" fill="rgb(0, 0, 0)" stroke="rgb(204, 204, 204)" stroke-width="1px"></line><line x1="73.1514423076923" y1="0" x2="73.1514423076923" y2="5" style="visibility: inherit;" fill="rgb(0, 0, 0)" stroke="rgb(204, 204, 204)" stroke-width="1px"></line><line x1="146.3028846153846" y1="0" x2="146.3028846153846" y2="5" style="visibility: inherit;" fill="rgb(0, 0, 0)" stroke="rgb(204, 204, 204)" stroke-width="1px"></line><line x1="219.45432692307693" y1="0" x2="219.45432692307693" y2="5" style="visibility: inherit;" fill="rgb(0, 0, 0)" stroke="rgb(204, 204, 204)" stroke-width="1px"></line><line x1="292.6057692307692" y1="0" x2="292.6057692307692" y2="5" style="visibility: inherit;" fill="rgb(0, 0, 0)" stroke="rgb(204, 204, 204)" stroke-width="1px"></line><line x1="365.75721153846155" y1="0" x2="365.75721153846155" y2="5" style="visibility: inherit;" fill="rgb(0, 0, 0)" stroke="rgb(204, 204, 204)" stroke-width="1px"></line><line x1="438.90865384615387" y1="0" x2="438.90865384615387" y2="5" style="visibility: inherit;" fill="rgb(0, 0, 0)" stroke="rgb(204, 204, 204)" stroke-width="1px"></line><line x1="512.0600961538461" y1="0" x2="512.0600961538461" y2="5" style="visibility: inherit;" fill="rgb(0, 0, 0)" stroke="rgb(204, 204, 204)" stroke-width="1px"></line><line x1="585.2115384615385" y1="0" x2="585.2115384615385" y2="5" style="visibility: inherit;" fill="rgb(0, 0, 0)" stroke="rgb(204, 204, 204)" stroke-width="1px"></line><line x1="658.3629807692307" y1="0" x2="658.3629807692307" y2="5" style="visibility: inherit;" fill="rgb(0, 0, 0)" stroke="rgb(204, 204, 204)" stroke-width="1px"></line><line x1="731.5144230769231" y1="0" x2="731.5144230769231" y2="5" style="visibility: inherit;" fill="rgb(0, 0, 0)" stroke="rgb(204, 204, 204)" stroke-width="1px"></line><line x1="804.6658653846154" y1="0" x2="804.6658653846154" y2="5" style="visibility: inherit;" fill="rgb(0, 0, 0)" stroke="rgb(204, 204, 204)" stroke-width="1px"></line><line x1="877.8173076923077" y1="0" x2="877.8173076923077" y2="5" style="visibility: inherit;" fill="rgb(0, 0, 0)" stroke="rgb(204, 204, 204)" stroke-width="1px"></line><line x1="950.96875" y1="0" x2="950.96875" y2="5" style="visibility: inherit;" fill="rgb(0, 0, 0)" stroke="rgb(204, 204, 204)" stroke-width="1px"></line></g><g transform="translate(0, 8)"><text x="0" y="0" dx="0em" dy="0.95em" style="text-anchor: middle; visibility: hidden; font-family: &quot;Helvetica Neue&quot;, sans-serif; font-size: 12px; font-weight: 200;" fill="rgb(50, 49, 63)" stroke="none" stroke-width="1px">-1k</text><text x="73.1514423076923" y="0" dx="0em" dy="0.95em" style="text-anchor: middle; visibility: inherit; font-family: &quot;Helvetica Neue&quot;, sans-serif; font-size: 12px; font-weight: 200;" fill="rgb(50, 49, 63)" stroke="none" stroke-width="1px">0</text><text x="146.3028846153846" y="0" dx="0em" dy="0.95em" style="text-anchor: middle; visibility: inherit; font-family: &quot;Helvetica Neue&quot;, sans-serif; font-size: 12px; font-weight: 200;" fill="rgb(50, 49, 63)" stroke="none" stroke-width="1px">1k</text><text x="219.45432692307693" y="0" dx="0em" dy="0.95em" style="text-anchor: middle; visibility: inherit; font-family: &quot;Helvetica Neue&quot;, sans-serif; font-size: 12px; font-weight: 200;" fill="rgb(50, 49, 63)" stroke="none" stroke-width="1px">2k</text><text x="292.6057692307692" y="0" dx="0em" dy="0.95em" style="text-anchor: middle; visibility: inherit; font-family: &quot;Helvetica Neue&quot;, sans-serif; font-size: 12px; font-weight: 200;" fill="rgb(50, 49, 63)" stroke="none" stroke-width="1px">3k</text><text x="365.75721153846155" y="0" dx="0em" dy="0.95em" style="text-anchor: middle; visibility: inherit; font-family: &quot;Helvetica Neue&quot;, sans-serif; font-size: 12px; font-weight: 200;" fill="rgb(50, 49, 63)" stroke="none" stroke-width="1px">4k</text><text x="438.90865384615387" y="0" dx="0em" dy="0.95em" style="text-anchor: middle; visibility: inherit; font-family: &quot;Helvetica Neue&quot;, sans-serif; font-size: 12px; font-weight: 200;" fill="rgb(50, 49, 63)" stroke="none" stroke-width="1px">5k</text><text x="512.0600961538461" y="0" dx="0em" dy="0.95em" style="text-anchor: middle; visibility: inherit; font-family: &quot;Helvetica Neue&quot;, sans-serif; font-size: 12px; font-weight: 200;" fill="rgb(50, 49, 63)" stroke="none" stroke-width="1px">6k</text><text x="585.2115384615385" y="0" dx="0em" dy="0.95em" style="text-anchor: middle; visibility: inherit; font-family: &quot;Helvetica Neue&quot;, sans-serif; font-size: 12px; font-weight: 200;" fill="rgb(50, 49, 63)" stroke="none" stroke-width="1px">7k</text><text x="658.3629807692307" y="0" dx="0em" dy="0.95em" style="text-anchor: middle; visibility: inherit; font-family: &quot;Helvetica Neue&quot;, sans-serif; font-size: 12px; font-weight: 200;" fill="rgb(50, 49, 63)" stroke="none" stroke-width="1px">8k</text><text x="731.5144230769231" y="0" dx="0em" dy="0.95em" style="text-anchor: middle; visibility: inherit; font-family: &quot;Helvetica Neue&quot;, sans-serif; font-size: 12px; font-weight: 200;" fill="rgb(50, 49, 63)" stroke="none" stroke-width="1px">9k</text><text x="804.6658653846154" y="0" dx="0em" dy="0.95em" style="text-anchor: middle; visibility: inherit; font-family: &quot;Helvetica Neue&quot;, sans-serif; font-size: 12px; font-weight: 200;" fill="rgb(50, 49, 63)" stroke="none" stroke-width="1px">10k</text><text x="877.8173076923077" y="0" dx="0em" dy="0.95em" style="text-anchor: middle; visibility: inherit; font-family: &quot;Helvetica Neue&quot;, sans-serif; font-size: 12px; font-weight: 200;" fill="rgb(50, 49, 63)" stroke="none" stroke-width="1px">11k</text><text x="950.96875" y="0" dx="0em" dy="0.95em" style="text-anchor: middle; visibility: hidden; font-family: &quot;Helvetica Neue&quot;, sans-serif; font-size: 12px; font-weight: 200;" fill="rgb(50, 49, 63)" stroke="none" stroke-width="1px">12k</text></g><line x1="0" y1="0" x2="950.96875" y2="0" fill="rgb(0, 0, 0)" stroke="rgb(204, 204, 204)" stroke-width="1px"></line></g></g></g></g></svg>