<svg viewBox="0 0 1029 400" xmlns="http://www.w3.org/2000/svg"><g><g><g><g><g><line x1="68.3125" y1="377.828125" x2="63.3125" y2="377.828125" style="visibility: inherit;" fill="rgb(0, 0, 0)" stroke="rgb(204, 204, 204)" stroke-width="1px"></line><line x1="68.3125" y1="330.599609375" x2="63.3125" y2="330.599609375" style="visibility: inherit;" fill="rgb(0, 0, 0)" stroke="rgb(204, 204, 204)" stroke-width="1px"></line><line x1="68.3125" y1="283.37109375" x2="63.3125" y2="283.37109375" style="visibility: inherit;" fill="rgb(0, 0, 0)" stroke="rgb(204, 204, 204)" stroke-width="1px"></line><line x1="68.3125" y1="236.142578125" x2="63.3125" y2="236.142578125" style="visibility: inherit;" fill="rgb(0, 0, 0)" stroke="rgb(204, 204, 204)" stroke-width="1px"></line><line x1="68.3125" y1="188.9140625" x2="63.3125" y2="188.9140625" style="visibility: inherit;" fill="rgb(0, 0, 0)" stroke="rgb(204, 204, 204)" stroke-width="1px"></line><line x1="68.3125" y1="141.685546875" x2="63.3125" y2="141.685546875" style="visibility: inherit;" fill="rgb(0, 0, 0)" stroke="rgb(204, 204, 204)" stroke-width="1px"></line><line x1="68.3125" y1="94.45703125" x2="63.3125" y2="94.45703125" style="visibility: inherit;" fill="rgb(0, 0, 0)" stroke="rgb(204, 204, 204)" stroke-width="1px"></line><line x1="68.3125" y1="47.228515625" x2="63.3125" y2="47.228515625" style="visibility: inherit;" fill="rgb(0, 0, 0)" stroke="rgb(204, 204, 204)" stroke-width="1px"></line><line x1="68.3125" y1="0" x2="63.3125" y2="0" style="visibility: inherit;" fill="rgb(0, 0, 0)" stroke="rgb(204, 204, 204)" stroke-width="1px"></line></g><g transform="translate(58.3125, 0)"><text x="0" y="377.828125" dx="0em" dy="0.3em" style="text-anchor: end; visibility: hidden; font-family: &quot;Helvetica Neue&quot;, sans-serif; font-size: 12px; font-weight: 200;" fill="rgb(50, 49, 63)" stroke="none" stroke-width="1px">3.4e-4</text><text x="0" y="330.599609375" dx="0em" dy="0.3em" style="text-anchor: end; visibility: inherit; font-family: &quot;Helvetica Neue&quot;, sans-serif; font-size: 12px; font-weight: 200;" fill="rgb(50, 49, 63)" stroke="none" stroke-width="1px">3.6e-4</text><text x="0" y="283.37109375" dx="0em" dy="0.3em" style="text-anchor: end; visibility: inherit; font-family: &quot;Helvetica Neue&quot;, sans-serif; font-size: 12px; font-weight: 200;" fill="rgb(50, 49, 63)" stroke="none" stroke-width="1px">3.8e-4</text><text x="0" y="236.142578125" dx="0em" dy="0.3em" style="text-anchor: end; visibility: inherit; font-family: &quot;Helvetica Neue&quot;, sans-serif; font-size: 12px; font-weight: 200;" fill="rgb(50, 49, 63)" stroke="none" stroke-width="1px">4e-4</text><text x="0" y="188.9140625" dx="0em" dy="0.3em" style="text-anchor: end; visibility: inherit; font-family: &quot;Helvetica Neue&quot;, sans-serif; font-size: 12px; font-weight: 200;" fill="rgb(50, 49, 63)" stroke="none" stroke-width="1px">4.2e-4</text><text x="0" y="141.685546875" dx="0em" dy="0.3em" style="text-anchor: end; visibility: inherit; font-family: &quot;Helvetica Neue&quot;, sans-serif; font-size: 12px; font-weight: 200;" fill="rgb(50, 49, 63)" stroke="none" stroke-width="1px">4.4e-4</text><text x="0" y="94.45703125" dx="0em" dy="0.3em" style="text-anchor: end; visibility: inherit; font-family: &quot;Helvetica Neue&quot;, sans-serif; font-size: 12px; font-weight: 200;" fill="rgb(50, 49, 63)" stroke="none" stroke-width="1px">4.6e-4</text><text x="0" y="47.228515625" dx="0em" dy="0.3em" style="text-anchor: end; visibility: inherit; font-family: &quot;Helvetica Neue&quot;, sans-serif; font-size: 12px; font-weight: 200;" fill="rgb(50, 49, 63)" stroke="none" stroke-width="1px">4.8e-4</text><text x="0" y="0" dx="0em" dy="0.3em" style="text-anchor: end; visibility: hidden; font-family: &quot;Helvetica Neue&quot;, sans-serif; font-size: 12px; font-weight: 200;" fill="rgb(50, 49, 63)" stroke="none" stroke-width="1px">5e-4</text></g><line x1="68.3125" y1="0" x2="68.3125" y2="377.828125" fill="rgb(0, 0, 0)" stroke="rgb(204, 204, 204)" stroke-width="1px"></line></g></g><g transform="translate(68, 0)" clip-path="url(#clip_0)"><clipPath id="clip_0"><rect width="960" height="377"></rect></clipPath><g><g><g><line x1="0" y1="0" x2="0" y2="377.828125" fill="rgb(0, 0, 0)" stroke="rgb(60, 60, 60)" stroke-width="1px" opacity="0.25"></line><line x1="73.89903846153847" y1="0" x2="73.89903846153847" y2="377.828125" fill="rgb(0, 0, 0)" stroke="rgb(60, 60, 60)" stroke-width="1px" opacity="0.25"></line><line x1="147.79807692307693" y1="0" x2="147.79807692307693" y2="377.828125" fill="rgb(0, 0, 0)" stroke="rgb(60, 60, 60)" stroke-width="1px" opacity="0.25"></line><line x1="221.6971153846154" y1="0" x2="221.6971153846154" y2="377.828125" fill="rgb(0, 0, 0)" stroke="rgb(60, 60, 60)" stroke-width="1px" opacity="0.25"></line><line x1="295.59615384615387" y1="0" x2="295.59615384615387" y2="377.828125" fill="rgb(0, 0, 0)" stroke="rgb(60, 60, 60)" stroke-width="1px" opacity="0.25"></line><line x1="369.4951923076923" y1="0" x2="369.4951923076923" y2="377.828125" fill="rgb(0, 0, 0)" stroke="rgb(60, 60, 60)" stroke-width="1px" opacity="0.25"></line><line x1="443.3942307692308" y1="0" x2="443.3942307692308" y2="377.828125" fill="rgb(0, 0, 0)" stroke="rgb(60, 60, 60)" stroke-width="1px" opacity="0.25"></line><line x1="517.2932692307692" y1="0" x2="517.2932692307692" y2="377.828125" fill="rgb(0, 0, 0)" stroke="rgb(60, 60, 60)" stroke-width="1px" opacity="0.25"></line><line x1="591.1923076923077" y1="0" x2="591.1923076923077" y2="377.828125" fill="rgb(0, 0, 0)" stroke="rgb(60, 60, 60)" stroke-width="1px" opacity="0.25"></line><line x1="665.0913461538462" y1="0" x2="665.0913461538462" y2="377.828125" fill="rgb(0, 0, 0)" stroke="rgb(60, 60, 60)" stroke-width="1px" opacity="0.25"></line><line x1="738.9903846153846" y1="0" x2="738.9903846153846" y2="377.828125" fill="rgb(0, 0, 0)" stroke="rgb(60, 60, 60)" stroke-width="1px" opacity="0.25"></line><line x1="812.8894230769231" y1="0" x2="812.8894230769231" y2="377.828125" fill="rgb(0, 0, 0)" stroke="rgb(60, 60, 60)" stroke-width="1px" opacity="0.25"></line><line x1="886.7884615384615" y1="0" x2="886.7884615384615" y2="377.828125" fill="rgb(0, 0, 0)" stroke="rgb(60, 60, 60)" stroke-width="1px" opacity="0.25"></line><line x1="960.6875" y1="0" x2="960.6875" y2="377.828125" fill="rgb(0, 0, 0)" stroke="rgb(60, 60, 60)" stroke-width="1px" opacity="0.25"></line></g><g><line x1="0" y1="377.828125" x2="960.6875" y2="377.828125" fill="rgb(0, 0, 0)" stroke="rgb(60, 60, 60)" stroke-width="1px" opacity="0.25"></line><line x1="0" y1="330.599609375" x2="960.6875" y2="330.599609375" fill="rgb(0, 0, 0)" stroke="rgb(60, 60, 60)" stroke-width="1px" opacity="0.25"></line><line x1="0" y1="283.37109375" x2="960.6875" y2="283.37109375" fill="rgb(0, 0, 0)" stroke="rgb(60, 60, 60)" stroke-width="1px" opacity="0.25"></line><line x1="0" y1="236.142578125" x2="960.6875" y2="236.142578125" fill="rgb(0, 0, 0)" stroke="rgb(60, 60, 60)" stroke-width="1px" opacity="0.25"></line><line x1="0" y1="188.9140625" x2="960.6875" y2="188.9140625" fill="rgb(0, 0, 0)" stroke="rgb(60, 60, 60)" stroke-width="1px" opacity="0.25"></line><line x1="0" y1="141.685546875" x2="960.6875" y2="141.685546875" fill="rgb(0, 0, 0)" stroke="rgb(60, 60, 60)" stroke-width="1px" opacity="0.25"></line><line x1="0" y1="94.45703125" x2="960.6875" y2="94.45703125" fill="rgb(0, 0, 0)" stroke="rgb(60, 60, 60)" stroke-width="1px" opacity="0.25"></line><line x1="0" y1="47.228515625" x2="960.6875" y2="47.228515625" fill="rgb(0, 0, 0)" stroke="rgb(60, 60, 60)" stroke-width="1px" opacity="0.25"></line><line x1="0" y1="0" x2="960.6875" y2="0" fill="rgb(0, 0, 0)" stroke="rgb(60, 60, 60)" stroke-width="1px" opacity="0.25"></line></g></g></g><g><g><line x1="0" y1="1180.712890625" x2="960.6875" y2="1180.712890625" fill="rgb(0, 0, 0)" stroke="rgb(153, 153, 153)" stroke-width="1.5px"></line></g></g><g><g><line x1="73.89903846153847" y1="0" x2="73.89903846153847" y2="377.828125" fill="rgb(0, 0, 0)" stroke="rgb(153, 153, 153)" stroke-width="1.5px"></line></g></g><g><g><g><g><g><path stroke="rgb(255, 112, 67)" stroke-width="2px" d="M73.9729375,329.7487619769982L76.92889903846154,257.8844508816653L79.88486057692307,142.30775164355427L82.84082211538463,144.43168619158448L85.79678365384616,153.44657396779542L88.75274519230769,190.51783690369993L91.70870673076922,140.99456856280884L94.66466826923076,132.50527885110367L97.62062980769231,117.11349527318282L100.57659134615385,103.13473095504355L103.53255288461538,58.019984775427076L106.48851442307692,43.7443858498433L109.44447596153846,33.44384273288114L112.40043750000001,39.39569492420418L115.35639903846155,73.03073251444249L118.31236057692308,73.73147449627004L121.26832211538462,93.08156861791286L124.22428365384616,81.15967113269886L127.18024519230768,99.53961253940622L130.13620673076923,81.94545511709697L133.09216826923077,93.7390502397372L136.0481298076923,106.32004680885518L139.00409134615387,128.5612951447957L141.96005288461538,88.63618162070838L144.91601442307692,111.80336511425969L147.87197596153845,87.38148379446983L150.8279375,107.78063880823407L153.78389903846156,108.28746104534622L156.73986057692306,81.98445991981072L159.69582211538463,76.49941888440941L162.65178365384614,85.38202180252961L165.6077451923077,89.60090555433595L168.56370673076924,80.97014581486303L171.51966826923078,96.69039006840944L174.47562980769231,128.03018552326142L177.43159134615385,109.83737275698684L180.3875528846154,43.985123042797795L183.34351442307693,47.726086326146L186.29947596153846,44.2982084172898L189.2554375,27.040757755449874L192.21139903846154,35.87088138037399L195.16736057692307,83.8669478029289L198.1233221153846,85.58891171181148L201.07928365384615,101.290559197839L204.0352451923077,138.51085783995364L206.99120673076922,143.4008376067927L209.9471682692308,137.87606135383984L212.9031298076923,132.2597544671275L215.85909134615383,110.77722574759599L218.8150528846154,117.44758546005022L221.7710144230769,90.74922026281604L224.72697596153847,81.37482341878302L227.68293749999998,101.310610349142L230.63889903846155,113.57074393654307L233.59486057692308,114.64705839842287L236.55082211538462,116.54900779550286L239.50678365384616,134.84184250709652L242.4627451923077,151.80648023141808L245.41870673076923,139.47583546491876L248.37466826923077,123.94229952119838L251.33062980769233,141.08985234499244L254.2865913461538,169.8901681177705L257.24255288461535,182.05963997172242L260.1985144230769,172.87389021954675L263.1544759615385,182.42716362986621L266.11043750000005,176.0095745462177L269.0663990384615,175.83341220676655L272.02236057692306,195.09372251238278L274.97832211538463,193.51078173081618L277.9342836538462,208.58127507401719L280.8902451923077,205.66015836305604L283.8462067307692,212.36979957295316L286.8021682692308,197.5104848625398L289.7581298076923,197.1217128666137L292.71409134615385,162.0189079001078L295.6700528846154,156.86988915843776L298.6260144230769,194.51976628795396L301.58197596153843,215.10067167562556L304.5379375,207.59579130041178L307.49389903846156,184.21949257186054L310.44986057692313,164.22975182443082L313.4058221153846,177.25200725427965L316.36178365384615,186.33041364307672L319.3177451923077,213.3494858534884L322.2737067307692,217.92533384773625L325.2296682692308,213.37702734909567L328.1856298076923,196.65926432907992L331.14159134615386,216.76929736593817L334.09755288461537,236.89126197592566L337.05351442307693,261.74615419819895L340.00947596153844,268.0900148176813L342.9654375,257.1547060074591L345.9213990384615,238.90949815790924L348.8773605769231,240.9327004522938L351.83332211538465,217.3697318052681L354.78928365384616,211.2123586359891L357.74524519230766,198.34335646199665L360.70120673076923,184.927074101316L363.6571682692308,190.3520680178355L366.6131298076923,179.6458620230419L369.5690913461538,175.7674557966363L372.5250528846154,155.2868872296675L375.48101442307694,175.58883076792034L378.43697596153845,181.8919490325435L381.3929375,192.6418624473189L384.3488990384615,176.93468857344314L387.3048605769231,109.98223558797798L390.2608221153846,125.83339565867632L393.21678365384616,127.80257399317316L396.17274519230773,145.98956510825678L399.1287067307692,152.57611215113712L402.08466826923075,150.34448476862653L405.0406298076923,178.10805055170533L407.9965913461539,182.94446602770375L410.9525528846154,181.94867794618565L413.9085144230769,153.92117938014212L416.86447596153846,150.73495784643256L419.8204375,146.78088909160184L422.77639903846153,145.87303929440233L425.7323605769231,174.59716317354855L428.6883221153846,179.94577439744933L431.6442836538461,162.2518688162408L434.6002451923077,168.1874926817686L437.55620673076925,147.47018577346935L440.5121682692308,165.21561601554563L443.46812980769226,188.54694587941L446.42409134615383,181.82546426362853L449.3800528846154,191.75947712902018L452.33601442307696,185.95914216129378L455.29197596153847,208.52494993263957L458.2479375,229.56356085512715L461.20389903846154,237.1659833104724L464.15986057692305,254.76426648039327L467.1158221153846,258.1124420972356L470.0717836538462,273.81101990769434L473.0277451923077,282.2887429023661L475.9837067307692,250.24154570994833L478.93966826923076,205.5986151673627L481.8956298076923,201.1339318938498L484.85159134615384,242.91257672702937L487.80755288461535,209.15288305229618L490.7635144230769,193.6399394399817L493.7194759615385,205.1314947844307L496.6754375,192.77699729531784L499.63139903846155,197.04959342906028L502.5873605769231,185.26548826847406L505.5433221153847,173.2899841253574L508.4992836538461,185.82396535644483L511.45524519230764,174.05445299650373L514.4112067307692,177.29804144962324L517.3671682692308,189.6454908780055L520.3231298076923,221.94596541752304L523.2790913461539,207.84216288177873L526.2350528846154,199.96867904957094L529.1910144230769,205.2907578728851L532.1469759615385,193.35147528766683L535.1029375,222.050866413453L538.0588990384615,217.56507572082276L541.0148605769231,240.82039605230545L543.9708221153846,226.01785530348667L546.9267836538461,213.6701642491889L549.8827451923077,211.49954370752724L552.8387067307692,216.80155991423152L555.7946682692308,202.8979475424621L558.7506298076923,230.00698171329083L561.7065913461539,195.21181812354487L564.6625528846155,186.05988628267653L567.6185144230769,178.3642722873269L570.5744759615384,164.56897812318456L573.5304375,196.09708959513745L576.4863990384615,200.95065648465607L579.4423605769231,204.18417060962872L582.3983221153846,188.02258428471407L585.3542836538462,188.95661438678096L588.3102451923078,205.5964763278778L591.2662067307692,207.44301537125492L594.2221682692308,225.37623559175546L597.1781298076922,196.53787765996935L600.1340913461538,212.9593286875831L603.0900528846154,240.46230009142567L606.0460144230769,229.3991921506662L609.0019759615385,264.31298941381374L611.9579375,290.98561110623524L614.9138990384615,292.2557803877775L617.8698605769231,288.8056347929964L620.8258221153847,270.3318076757203L623.7817836538461,260.81583099772456L626.7377451923077,272.0253009410066L629.6937067307692,288.81035381623093L632.6496682692308,311.6540555317145L635.6056298076923,273.77275428979596L638.5615913461538,262.1871893009409L641.5175528846154,269.46719415365277L644.473514423077,246.1116861420239L647.4294759615385,248.78622150870984L650.3854375000001,253.52725489158095L653.3413990384615,276.95475077026134L656.297360576923,302.0058860529186L659.2533221153845,306.6424232516224L662.2092836538461,322.3344764763139L665.1652451923077,342.73727246295215L668.1212067307692,348.03877572634656L671.0771682692308,328.97736770739573L674.0331298076924,320.1037792301301L676.9890913461538,351.7515299034942L679.9450528846154,340.7403030711626L682.9010144230768,331.3215620353266L685.8569759615384,321.73062925308324L688.8129375,322.5122295296808L691.7688990384615,291.21690248376126L694.7248605769231,254.34526114231556L697.6808221153847,249.26801373066218L700.6367836538461,266.82799251797536L703.5927451923077,278.56918268457366L706.5487067307693,267.50775601495366L709.3568701923077,234.0628654744523L712.3128317307693,254.83836126302694L715.2687932692309,269.95855025253064L718.2247548076923,255.51010871301008L721.1807163461538,259.22514718389937L724.1366778846153,250.84528856235917L727.0926394230769,248.06947369056562L730.0486009615385,265.88408942436575L733.0045625,280.7379434971325L735.886625,266.5902516157998L738.8425865384615,241.95173795354972L741.7985480769231,233.01316941580305L744.7545096153847,229.22636982287344L747.7104711538461,266.50676942424013L750.5925336538461,292.20426122219567L753.5484951923077,276.9340848092124L756.5044567307692,280.5360792577475L759.3865192307692,293.78117263923525L762.2685817307693,287.550215201148L765.2245432692307,287.2987669169703L768.1805048076923,280.8670591616307L770.9886682692307,289.08890012922905L773.9446298076923,316.11420776795023L776.9005913461539,325.28695681724764L779.8565528846154,312.01074820080873L782.812514423077,310.1716997324397L785.694576923077,311.9845167419686L788.6505384615385,300.38957773789895L791.458701923077,299.1887778748232L794.4146634615385,271.2358558765945L797.370625,275.9778032149387L800.3265865384615,271.56607018809143L803.282548076923,296.33324404641905L806.2385096153846,308.44058035239436L809.1205721153846,300.3015241280539L812.0765336538461,316.534180991396L815.0324951923077,299.9591603922204L817.9884567307693,292.36737076928665L820.9444182692308,298.15737510556056L823.9003798076924,290.21903198510074L826.8563413461538,305.3565524763545L829.7384038461538,293.64496296986505L832.6204663461538,295.8333742811534L835.5764278846153,296.40915048470424L838.4584903846154,298.3767217689592L841.3405528846154,308.26180197561416L844.2965144230769,323.47492021089334L847.2524759615385,327.63086919206177L850.1345384615385,316.08648701228753L853.0905,271.540482966621L856.0464615384616,286.2689829766909L859.0024230769232,296.48562504840464L861.9583846153846,275.02258273015605L864.914346153846,280.28926130601195L867.7964086538461,270.4227853527003L870.7523701923077,270.86872566779294L873.7083317307691,242.1862946201743L876.6642932692307,260.89661782511047L879.6202548076923,283.5753408540912L882.5023173076924,280.54928601267676L885.4582788461538,307.94933977210565L888.3403413461539,289.04827501730915L891.2963028846154,293.00231307443227L894.252264423077,298.4501353358571L897.2082259615385,293.72113971249985" style="fill: none;" fill="none"></path></g></g></g></g><g opacity="0.20000000298023224"><g><g><g><path stroke="rgb(255, 112, 67)" stroke-width="2px" d="M73.9729375,329.7487619769982L76.92889903846154,193.35029951805612L79.88486057692307,-54.681636844679815L82.84082211538463,149.58977761609734L85.79678365384616,181.20199091044927L88.75274519230769,326.302469850657L91.70870673076922,-66.36899657819413L94.66466826923076,92.96131155253994L97.62062980769231,38.90823495653427L100.57659134615385,26.800681184522603L103.53255288461538,-203.72323896735907L109.44447596153846,-32.3038645026827L112.40043750000001,78.85573993833083L115.35639903846155,303.4855349463442L118.31236057692308,78.67224008834916L121.26832211538462,232.9747210561209L124.22428365384616,-6.945147406713659L127.18024519230768,238.0208982040813L130.13620673076923,-52.893784748266626L133.09216826923077,185.49499395505794L136.0481298076923,205.51585848609196L139.00409134615387,306.0097231448936L141.96005288461538,-233.26231631613155L144.91601442307692,300.341983209205L147.87197596153845,-113.02647940765382L150.8279375,276.4217125027927L153.78389903846156,112.50514520015719L156.73986057692306,-138.19784796764907L159.69582211538463,30.341953383026578L162.65178365384614,160.48272732491571L165.6077451923077,125.42099175705064L168.56370673076924,7.415399654473788L171.51966826923078,231.1159431749957L174.47562980769231,396.8284035787065L180.3875528846154,-523.7171500189561L183.34351442307693,80.04622098753777L186.29947596153846,14.625500501506451L189.2554375,-122.60462176441251L192.21139903846154,112.5593704367248L195.16736057692307,501.2894387769621L198.1233221153846,100.58363415994341L201.07928365384615,238.17299002730581L204.0352451923077,463.3139730069161L206.99120673076922,186.1118833383671L209.9471682692308,89.58127180649177L212.9031298076923,83.12908719376543L215.85909134615383,-77.27177418159954L218.8150528846154,175.87135463174948L221.7710144230769,-143.21722176673575L224.72697596153847,-0.8148778866143402L227.68293749999998,276.17106682755553L230.63889903846155,221.14757154924976L233.59486057692308,124.09443216740786L236.55082211538462,133.24853179967707L239.50678365384616,295.5010922230031L242.4627451923077,300.8375015306911L245.41870673076923,31.129490754165147L248.37466826923077,-12.574263029409849L251.33062980769233,291.81817463468184L254.2865913461538,423.08785064990394L257.24255288461535,289.06285909699824L260.1985144230769,92.09535720431182L263.1544759615385,266.4474303949874L266.11043750000005,119.56150478711157L269.0663990384615,174.28377165999794L272.02236057692306,364.5344230514639L274.97832211538463,179.5839620834386L277.9342836538462,341.1814898962121L280.8902451923077,179.95666608585455L283.8462067307692,271.4125102309709L286.8021682692308,66.74681163560768L289.7581298076923,193.70032376373277L292.71409134615385,-146.91567155209668L295.6700528846154,111.55252669057069L298.6260144230769,525.8931261531188L301.58197596153843,396.2475956265735L304.5379375,141.5383952471075L307.49389903846156,-21.541701391060997L310.44986057692313,-11.726177580430885L313.4058221153846,291.8800972432337L316.36178365384615,266.2442060292961L319.3177451923077,451.19178048282726L322.2737067307692,258.20595042860083L325.2296682692308,173.33836943664667L328.1856298076923,49.49150289605774L331.14159134615386,393.8012058662935L337.05351442307693,480.5514815737525L340.00947596153844,323.93738358196066L342.9654375,160.88649572141097L345.9213990384615,78.28819620756354L348.8773605769231,258.744010475607L351.83332211538465,9.931615574896625L354.78928365384616,157.00530207795967L357.74524519230766,85.04937532422906L360.70120673076923,66.81464472621889L363.6571682692308,238.11202959025198L366.6131298076923,85.39149601831474L369.5690913461538,141.62299761239868L372.5250528846154,-25.018989184945895L375.48101442307694,354.3224845836449L378.43697596153845,237.3832534070289L381.3929375,287.281948380678L384.3488990384615,38.6516787992378L387.3048605769231,-479.45533676652303L390.2608221153846,265.38436834273404L393.21678365384616,145.13890971927597L396.17274519230773,306.10511557626984L399.1287067307692,210.56313525862154L402.08466826923075,130.69754025225396L405.0406298076923,422.5348769446783L407.9965913461539,225.52366497536698L410.9525528846154,173.18187911514545L413.9085144230769,-92.82967494555123L416.86447596153846,122.68382002475849L419.8204375,111.9696967615028L422.77639903846153,137.88042539119945L425.7323605769231,427.4814006160569L428.6883221153846,227.03441168034718L431.6442836538461,6.476457725466446L434.6002451923077,220.44415545765335L437.55620673076925,-34.92303277339488L440.5121682692308,321.4447408632396L443.46812980769226,393.9538475018026L446.42409134615383,122.6501440223274L449.3800528846154,279.2176454230003L452.33601442307696,134.89350142863262L455.29197596153847,407.19236514321443L458.2479375,414.7856851526058L461.20389903846154,304.09706365987864L464.15986057692305,409.6980659036945L467.1158221153846,287.5894996273701L470.0717836538462,412.0199919080506L473.0277451923077,356.9259144777107L475.9837067307692,-31.899340114296137L478.93966826923076,-187.43408786490363L481.8956298076923,161.82722454034322L484.85159134615384,610.7283713100857L487.80755288461535,-88.06472678115824L490.7635144230769,57.06523584281064L493.7194759615385,306.3022232802951L496.6754375,84.008993028715L499.63139903846155,234.6651876516262L502.5873605769231,81.51916809795244L505.5433221153847,67.85860080158278L508.4992836538461,296.17213811634434L511.45524519230764,70.43660187748634L514.4112067307692,205.85433667379223L517.3671682692308,298.3514565593851L520.3231298076923,506.3167848541753L523.2790913461539,83.67340135550882L526.2350528846154,130.65114984074174L529.1910144230769,252.1459194278578L532.1469759615385,88.23897384020262L535.1029375,474.7180419607958L538.0588990384615,178.07252811310266L541.0148605769231,445.5584038149255L543.9708221153846,95.69745238679849L546.9267836538461,104.96206428827014L549.8827451923077,192.38957127727193L552.8387067307692,263.48009349505907L555.7946682692308,80.49163766459066L558.7506298076923,468.6727871652011L561.7065913461539,-111.1220671069077L564.6625528846155,105.48699756698176L567.6185144230769,110.61269131660089L570.5744759615384,43.116292003173896L573.5304375,473.668106676837L576.4863990384615,243.6810782208568L579.4423605769231,232.65177506546027L582.3983221153846,45.73724716381099L585.3542836538462,197.17974208022045L588.3102451923078,352.09251468388635L591.2662067307692,223.6998001743132L594.2221682692308,383.25889894197195L597.1781298076922,-57.35276237628568L600.1340913461538,357.5324948806838L603.0900528846154,482.5963021866756L606.0460144230769,132.0004579136594L609.0019759615385,571.6913211083012L611.9579375,525.809279779719L614.9138990384615,303.43825108986954L617.8698605769231,258.43082365299784L620.8258221153847,107.68968303211756L623.7817836538461,177.0379188465768L626.7377451923077,370.71259496685803L629.6937067307692,436.5846426120016L635.6056298076923,-59.731250319418905L638.5615913461538,160.18878393226717L641.5175528846154,333.5597858276288L644.473514423077,40.491625609615824L647.4294759615385,272.33262108923105L650.3854375000001,295.26694091630367L653.3413990384615,483.2085868921013L656.297360576923,522.5541161488081L659.2533221153845,347.4621330761466L662.2092836538461,460.48608224766673L668.1212067307692,394.71279463414254L671.0771682692308,161.1622265821325L674.0331298076924,241.9814022695846L676.9890913461538,630.375844573348L679.9450528846154,243.79832569054545L682.9010144230768,248.39970470027313L685.8569759615384,237.29280928621395L688.8129375,329.3933770615468L691.7688990384615,15.695297754246042L694.7248605769231,-70.26977728428392L697.6808221153847,204.5683257401379L700.6367836538461,421.42466848902137L703.5927451923077,381.9377000221039L706.5487067307693,170.12382318825988L709.3568701923077,-60.38332768894179L715.2687932692309,403.07550820928105L718.2247548076923,128.3071626184665L721.1807163461538,291.9320545041274L724.1366778846153,177.06967050601182L727.0926394230769,223.6314172714174L730.0486009615385,422.72256911332994L733.0045625,411.5101097406296L735.886625,142.03508191969834L738.8425865384615,25.036196110204457L741.7985480769231,154.31871307584973L744.7545096153847,195.88768321143564L747.7104711538461,594.7204835544654L750.5925336538461,518.4429635173274L753.5484951923077,142.49664933261104L756.5044567307692,312.2477558727724L759.3865192307692,410.38993593731453L762.2685817307693,232.69335461948234L765.2245432692307,285.0850359445304L768.1805048076923,224.24280853188068L770.9886682692307,361.47334315701306L773.9446298076923,554.0428965852698L776.9005913461539,406.0431200153517L779.8565528846154,195.12804881373998L782.812514423077,293.98086125611377L785.694576923077,327.9444155120473L788.6505384615385,198.3086441535534L791.458701923077,288.6170300607319L794.4146634615385,25.140522991205273L797.370625,317.7255356641354L800.3265865384615,232.7255186381308L803.282548076923,514.3815001710664L806.2385096153846,415.032619594922L809.1205721153846,228.64591148647835L812.0765336538461,459.44521886640365L815.0324951923077,154.03397903896806L817.9884567307693,225.5298503635686L820.9444182692308,349.13211916405095L823.9003798076924,220.33048176781452L826.8563413461538,438.62609562468157L829.7384038461538,190.53704751088392L832.6204663461538,315.0999758256149L835.5764278846153,301.47823902184433L838.4584903846154,315.69906503621047L841.3405528846154,395.2892728145344L844.2965144230769,457.41001996846086L847.2524759615385,364.21951806546537L850.1345384615385,214.45065174334562L853.0905,-120.63904284700584L859.0024230769232,386.432140542479L861.9583846153846,86.06364153622513L864.914346153846,326.65668641500366L867.7964086538461,183.55910490101908L870.7523701923077,274.7947492261574L873.7083317307691,-10.331578720570178L879.6202548076923,483.2370396778288L882.5023173076924,253.908136526502L885.4582788461538,549.1772640462614L888.3403413461539,122.64478335255265L891.2963028846154,327.81335400870836L894.252264423077,346.41233524525893L897.2082259615385,252.0874331460846" style="fill: none;" fill="none"></path></g></g></g></g></g></g><g transform="translate(68, 377)" clip-path="url(#clip_1)"><clipPath id="clip_1"><rect width="960" height="22"></rect></clipPath><g><g><line x1="0" y1="0" x2="0" y2="5" style="visibility: inherit;" fill="rgb(0, 0, 0)" stroke="rgb(204, 204, 204)" stroke-width="1px"></line><line x1="73.89903846153847" y1="0" x2="73.89903846153847" y2="5" style="visibility: inherit;" fill="rgb(0, 0, 0)" stroke="rgb(204, 204, 204)" stroke-width="1px"></line><line x1="147.79807692307693" y1="0" x2="147.79807692307693" y2="5" style="visibility: inherit;" fill="rgb(0, 0, 0)" stroke="rgb(204, 204, 204)" stroke-width="1px"></line><line x1="221.6971153846154" y1="0" x2="221.6971153846154" y2="5" style="visibility: inherit;" fill="rgb(0, 0, 0)" stroke="rgb(204, 204, 204)" stroke-width="1px"></line><line x1="295.59615384615387" y1="0" x2="295.59615384615387" y2="5" style="visibility: inherit;" fill="rgb(0, 0, 0)" stroke="rgb(204, 204, 204)" stroke-width="1px"></line><line x1="369.4951923076923" y1="0" x2="369.4951923076923" y2="5" style="visibility: inherit;" fill="rgb(0, 0, 0)" stroke="rgb(204, 204, 204)" stroke-width="1px"></line><line x1="443.3942307692308" y1="0" x2="443.3942307692308" y2="5" style="visibility: inherit;" fill="rgb(0, 0, 0)" stroke="rgb(204, 204, 204)" stroke-width="1px"></line><line x1="517.2932692307692" y1="0" x2="517.2932692307692" y2="5" style="visibility: inherit;" fill="rgb(0, 0, 0)" stroke="rgb(204, 204, 204)" stroke-width="1px"></line><line x1="591.1923076923077" y1="0" x2="591.1923076923077" y2="5" style="visibility: inherit;" fill="rgb(0, 0, 0)" stroke="rgb(204, 204, 204)" stroke-width="1px"></line><line x1="665.0913461538462" y1="0" x2="665.0913461538462" y2="5" style="visibility: inherit;" fill="rgb(0, 0, 0)" stroke="rgb(204, 204, 204)" stroke-width="1px"></line><line x1="738.9903846153846" y1="0" x2="738.9903846153846" y2="5" style="visibility: inherit;" fill="rgb(0, 0, 0)" stroke="rgb(204, 204, 204)" stroke-width="1px"></line><line x1="812.8894230769231" y1="0" x2="812.8894230769231" y2="5" style="visibility: inherit;" fill="rgb(0, 0, 0)" stroke="rgb(204, 204, 204)" stroke-width="1px"></line><line x1="886.7884615384615" y1="0" x2="886.7884615384615" y2="5" style="visibility: inherit;" fill="rgb(0, 0, 0)" stroke="rgb(204, 204, 204)" stroke-width="1px"></line><line x1="960.6875" y1="0" x2="960.6875" y2="5" style="visibility: inherit;" fill="rgb(0, 0, 0)" stroke="rgb(204, 204, 204)" stroke-width="1px"></line></g><g transform="translate(0, 8)"><text x="0" y="0" dx="0em" dy="0.95em" style="text-anchor: middle; visibility: hidden; font-family: &quot;Helvetica Neue&quot;, sans-serif; font-size: 12px; font-weight: 200;" fill="rgb(50, 49, 63)" stroke="none" stroke-width="1px">-1k</text><text x="73.89903846153847" y="0" dx="0em" dy="0.95em" style="text-anchor: middle; visibility: inherit; font-family: &quot;Helvetica Neue&quot;, sans-serif; font-size: 12px; font-weight: 200;" fill="rgb(50, 49, 63)" stroke="none" stroke-width="1px">0</text><text x="147.79807692307693" y="0" dx="0em" dy="0.95em" style="text-anchor: middle; visibility: inherit; font-family: &quot;Helvetica Neue&quot;, sans-serif; font-size: 12px; font-weight: 200;" fill="rgb(50, 49, 63)" stroke="none" stroke-width="1px">1k</text><text x="221.6971153846154" y="0" dx="0em" dy="0.95em" style="text-anchor: middle; visibility: inherit; font-family: &quot;Helvetica Neue&quot;, sans-serif; font-size: 12px; font-weight: 200;" fill="rgb(50, 49, 63)" stroke="none" stroke-width="1px">2k</text><text x="295.59615384615387" y="0" dx="0em" dy="0.95em" style="text-anchor: middle; visibility: inherit; font-family: &quot;Helvetica Neue&quot;, sans-serif; font-size: 12px; font-weight: 200;" fill="rgb(50, 49, 63)" stroke="none" stroke-width="1px">3k</text><text x="369.4951923076923" y="0" dx="0em" dy="0.95em" style="text-anchor: middle; visibility: inherit; font-family: &quot;Helvetica Neue&quot;, sans-serif; font-size: 12px; font-weight: 200;" fill="rgb(50, 49, 63)" stroke="none" stroke-width="1px">4k</text><text x="443.3942307692308" y="0" dx="0em" dy="0.95em" style="text-anchor: middle; visibility: inherit; font-family: &quot;Helvetica Neue&quot;, sans-serif; font-size: 12px; font-weight: 200;" fill="rgb(50, 49, 63)" stroke="none" stroke-width="1px">5k</text><text x="517.2932692307692" y="0" dx="0em" dy="0.95em" style="text-anchor: middle; visibility: inherit; font-family: &quot;Helvetica Neue&quot;, sans-serif; font-size: 12px; font-weight: 200;" fill="rgb(50, 49, 63)" stroke="none" stroke-width="1px">6k</text><text x="591.1923076923077" y="0" dx="0em" dy="0.95em" style="text-anchor: middle; visibility: inherit; font-family: &quot;Helvetica Neue&quot;, sans-serif; font-size: 12px; font-weight: 200;" fill="rgb(50, 49, 63)" stroke="none" stroke-width="1px">7k</text><text x="665.0913461538462" y="0" dx="0em" dy="0.95em" style="text-anchor: middle; visibility: inherit; font-family: &quot;Helvetica Neue&quot;, sans-serif; font-size: 12px; font-weight: 200;" fill="rgb(50, 49, 63)" stroke="none" stroke-width="1px">8k</text><text x="738.9903846153846" y="0" dx="0em" dy="0.95em" style="text-anchor: middle; visibility: inherit; font-family: &quot;Helvetica Neue&quot;, sans-serif; font-size: 12px; font-weight: 200;" fill="rgb(50, 49, 63)" stroke="none" stroke-width="1px">9k</text><text x="812.8894230769231" y="0" dx="0em" dy="0.95em" style="text-anchor: middle; visibility: inherit; font-family: &quot;Helvetica Neue&quot;, sans-serif; font-size: 12px; font-weight: 200;" fill="rgb(50, 49, 63)" stroke="none" stroke-width="1px">10k</text><text x="886.7884615384615" y="0" dx="0em" dy="0.95em" style="text-anchor: middle; visibility: inherit; font-family: &quot;Helvetica Neue&quot;, sans-serif; font-size: 12px; font-weight: 200;" fill="rgb(50, 49, 63)" stroke="none" stroke-width="1px">11k</text><text x="960.6875" y="0" dx="0em" dy="0.95em" style="text-anchor: middle; visibility: hidden; font-family: &quot;Helvetica Neue&quot;, sans-serif; font-size: 12px; font-weight: 200;" fill="rgb(50, 49, 63)" stroke="none" stroke-width="1px">12k</text></g><line x1="0" y1="0" x2="960.6875" y2="0" fill="rgb(0, 0, 0)" stroke="rgb(204, 204, 204)" stroke-width="1px"></line></g></g></g></g></svg>