<svg viewBox="0 0 1029 400" xmlns="http://www.w3.org/2000/svg"><g><g><g><g><g><line x1="68.3125" y1="377.828125" x2="63.3125" y2="377.828125" style="visibility: inherit;" fill="rgb(0, 0, 0)" stroke="rgb(204, 204, 204)" stroke-width="1px"></line><line x1="68.3125" y1="348.764423076923" x2="63.3125" y2="348.764423076923" style="visibility: inherit;" fill="rgb(0, 0, 0)" stroke="rgb(204, 204, 204)" stroke-width="1px"></line><line x1="68.3125" y1="319.70072115384613" x2="63.3125" y2="319.70072115384613" style="visibility: inherit;" fill="rgb(0, 0, 0)" stroke="rgb(204, 204, 204)" stroke-width="1px"></line><line x1="68.3125" y1="290.6370192307691" x2="63.3125" y2="290.6370192307691" style="visibility: inherit;" fill="rgb(0, 0, 0)" stroke="rgb(204, 204, 204)" stroke-width="1px"></line><line x1="68.3125" y1="261.57331730769215" x2="63.3125" y2="261.57331730769215" style="visibility: inherit;" fill="rgb(0, 0, 0)" stroke="rgb(204, 204, 204)" stroke-width="1px"></line><line x1="68.3125" y1="232.50961538461544" x2="63.3125" y2="232.50961538461544" style="visibility: inherit;" fill="rgb(0, 0, 0)" stroke="rgb(204, 204, 204)" stroke-width="1px"></line><line x1="68.3125" y1="203.44591346153842" x2="63.3125" y2="203.44591346153842" style="visibility: inherit;" fill="rgb(0, 0, 0)" stroke="rgb(204, 204, 204)" stroke-width="1px"></line><line x1="68.3125" y1="174.38221153846143" x2="63.3125" y2="174.38221153846143" style="visibility: inherit;" fill="rgb(0, 0, 0)" stroke="rgb(204, 204, 204)" stroke-width="1px"></line><line x1="68.3125" y1="145.3185096153844" x2="63.3125" y2="145.3185096153844" style="visibility: inherit;" fill="rgb(0, 0, 0)" stroke="rgb(204, 204, 204)" stroke-width="1px"></line><line x1="68.3125" y1="116.25480769230768" x2="63.3125" y2="116.25480769230768" style="visibility: inherit;" fill="rgb(0, 0, 0)" stroke="rgb(204, 204, 204)" stroke-width="1px"></line><line x1="68.3125" y1="87.19110576923072" x2="63.3125" y2="87.19110576923072" style="visibility: inherit;" fill="rgb(0, 0, 0)" stroke="rgb(204, 204, 204)" stroke-width="1px"></line><line x1="68.3125" y1="58.1274038461537" x2="63.3125" y2="58.1274038461537" style="visibility: inherit;" fill="rgb(0, 0, 0)" stroke="rgb(204, 204, 204)" stroke-width="1px"></line><line x1="68.3125" y1="29.063701923076678" x2="63.3125" y2="29.063701923076678" style="visibility: inherit;" fill="rgb(0, 0, 0)" stroke="rgb(204, 204, 204)" stroke-width="1px"></line></g><g transform="translate(58.3125, 0)"><text x="0" y="377.828125" dx="0em" dy="0.3em" style="text-anchor: end; visibility: hidden; font-family: &quot;Helvetica Neue&quot;, sans-serif; font-size: 12px; font-weight: 200;" fill="rgb(50, 49, 63)" stroke="none" stroke-width="1px">4.7e-4</text><text x="0" y="348.764423076923" dx="0em" dy="0.3em" style="text-anchor: end; visibility: inherit; font-family: &quot;Helvetica Neue&quot;, sans-serif; font-size: 12px; font-weight: 200;" fill="rgb(50, 49, 63)" stroke="none" stroke-width="1px">4.8e-4</text><text x="0" y="319.70072115384613" dx="0em" dy="0.3em" style="text-anchor: end; visibility: inherit; font-family: &quot;Helvetica Neue&quot;, sans-serif; font-size: 12px; font-weight: 200;" fill="rgb(50, 49, 63)" stroke="none" stroke-width="1px">4.9e-4</text><text x="0" y="290.6370192307691" dx="0em" dy="0.3em" style="text-anchor: end; visibility: inherit; font-family: &quot;Helvetica Neue&quot;, sans-serif; font-size: 12px; font-weight: 200;" fill="rgb(50, 49, 63)" stroke="none" stroke-width="1px">5e-4</text><text x="0" y="261.57331730769215" dx="0em" dy="0.3em" style="text-anchor: end; visibility: inherit; font-family: &quot;Helvetica Neue&quot;, sans-serif; font-size: 12px; font-weight: 200;" fill="rgb(50, 49, 63)" stroke="none" stroke-width="1px">5.1e-4</text><text x="0" y="232.50961538461544" dx="0em" dy="0.3em" style="text-anchor: end; visibility: inherit; font-family: &quot;Helvetica Neue&quot;, sans-serif; font-size: 12px; font-weight: 200;" fill="rgb(50, 49, 63)" stroke="none" stroke-width="1px">5.2e-4</text><text x="0" y="203.44591346153842" dx="0em" dy="0.3em" style="text-anchor: end; visibility: inherit; font-family: &quot;Helvetica Neue&quot;, sans-serif; font-size: 12px; font-weight: 200;" fill="rgb(50, 49, 63)" stroke="none" stroke-width="1px">5.3e-4</text><text x="0" y="174.38221153846143" dx="0em" dy="0.3em" style="text-anchor: end; visibility: inherit; font-family: &quot;Helvetica Neue&quot;, sans-serif; font-size: 12px; font-weight: 200;" fill="rgb(50, 49, 63)" stroke="none" stroke-width="1px">5.4e-4</text><text x="0" y="145.3185096153844" dx="0em" dy="0.3em" style="text-anchor: end; visibility: inherit; font-family: &quot;Helvetica Neue&quot;, sans-serif; font-size: 12px; font-weight: 200;" fill="rgb(50, 49, 63)" stroke="none" stroke-width="1px">5.5e-4</text><text x="0" y="116.25480769230768" dx="0em" dy="0.3em" style="text-anchor: end; visibility: inherit; font-family: &quot;Helvetica Neue&quot;, sans-serif; font-size: 12px; font-weight: 200;" fill="rgb(50, 49, 63)" stroke="none" stroke-width="1px">5.6e-4</text><text x="0" y="87.19110576923072" dx="0em" dy="0.3em" style="text-anchor: end; visibility: inherit; font-family: &quot;Helvetica Neue&quot;, sans-serif; font-size: 12px; font-weight: 200;" fill="rgb(50, 49, 63)" stroke="none" stroke-width="1px">5.7e-4</text><text x="0" y="58.1274038461537" dx="0em" dy="0.3em" style="text-anchor: end; visibility: inherit; font-family: &quot;Helvetica Neue&quot;, sans-serif; font-size: 12px; font-weight: 200;" fill="rgb(50, 49, 63)" stroke="none" stroke-width="1px">5.8e-4</text><text x="0" y="29.063701923076678" dx="0em" dy="0.3em" style="text-anchor: end; visibility: inherit; font-family: &quot;Helvetica Neue&quot;, sans-serif; font-size: 12px; font-weight: 200;" fill="rgb(50, 49, 63)" stroke="none" stroke-width="1px">5.9e-4</text></g><line x1="68.3125" y1="0" x2="68.3125" y2="377.828125" fill="rgb(0, 0, 0)" stroke="rgb(204, 204, 204)" stroke-width="1px"></line></g></g><g transform="translate(68, 0)" clip-path="url(#clip_0)"><clipPath id="clip_0"><rect width="960" height="377"></rect></clipPath><g><g><g><line x1="0" y1="0" x2="0" y2="377.828125" fill="rgb(0, 0, 0)" stroke="rgb(60, 60, 60)" stroke-width="1px" opacity="0.25"></line><line x1="73.89903846153847" y1="0" x2="73.89903846153847" y2="377.828125" fill="rgb(0, 0, 0)" stroke="rgb(60, 60, 60)" stroke-width="1px" opacity="0.25"></line><line x1="147.79807692307693" y1="0" x2="147.79807692307693" y2="377.828125" fill="rgb(0, 0, 0)" stroke="rgb(60, 60, 60)" stroke-width="1px" opacity="0.25"></line><line x1="221.6971153846154" y1="0" x2="221.6971153846154" y2="377.828125" fill="rgb(0, 0, 0)" stroke="rgb(60, 60, 60)" stroke-width="1px" opacity="0.25"></line><line x1="295.59615384615387" y1="0" x2="295.59615384615387" y2="377.828125" fill="rgb(0, 0, 0)" stroke="rgb(60, 60, 60)" stroke-width="1px" opacity="0.25"></line><line x1="369.4951923076923" y1="0" x2="369.4951923076923" y2="377.828125" fill="rgb(0, 0, 0)" stroke="rgb(60, 60, 60)" stroke-width="1px" opacity="0.25"></line><line x1="443.3942307692308" y1="0" x2="443.3942307692308" y2="377.828125" fill="rgb(0, 0, 0)" stroke="rgb(60, 60, 60)" stroke-width="1px" opacity="0.25"></line><line x1="517.2932692307692" y1="0" x2="517.2932692307692" y2="377.828125" fill="rgb(0, 0, 0)" stroke="rgb(60, 60, 60)" stroke-width="1px" opacity="0.25"></line><line x1="591.1923076923077" y1="0" x2="591.1923076923077" y2="377.828125" fill="rgb(0, 0, 0)" stroke="rgb(60, 60, 60)" stroke-width="1px" opacity="0.25"></line><line x1="665.0913461538462" y1="0" x2="665.0913461538462" y2="377.828125" fill="rgb(0, 0, 0)" stroke="rgb(60, 60, 60)" stroke-width="1px" opacity="0.25"></line><line x1="738.9903846153846" y1="0" x2="738.9903846153846" y2="377.828125" fill="rgb(0, 0, 0)" stroke="rgb(60, 60, 60)" stroke-width="1px" opacity="0.25"></line><line x1="812.8894230769231" y1="0" x2="812.8894230769231" y2="377.828125" fill="rgb(0, 0, 0)" stroke="rgb(60, 60, 60)" stroke-width="1px" opacity="0.25"></line><line x1="886.7884615384615" y1="0" x2="886.7884615384615" y2="377.828125" fill="rgb(0, 0, 0)" stroke="rgb(60, 60, 60)" stroke-width="1px" opacity="0.25"></line><line x1="960.6875" y1="0" x2="960.6875" y2="377.828125" fill="rgb(0, 0, 0)" stroke="rgb(60, 60, 60)" stroke-width="1px" opacity="0.25"></line></g><g><line x1="0" y1="377.828125" x2="960.6875" y2="377.828125" fill="rgb(0, 0, 0)" stroke="rgb(60, 60, 60)" stroke-width="1px" opacity="0.25"></line><line x1="0" y1="348.764423076923" x2="960.6875" y2="348.764423076923" fill="rgb(0, 0, 0)" stroke="rgb(60, 60, 60)" stroke-width="1px" opacity="0.25"></line><line x1="0" y1="319.70072115384613" x2="960.6875" y2="319.70072115384613" fill="rgb(0, 0, 0)" stroke="rgb(60, 60, 60)" stroke-width="1px" opacity="0.25"></line><line x1="0" y1="290.6370192307691" x2="960.6875" y2="290.6370192307691" fill="rgb(0, 0, 0)" stroke="rgb(60, 60, 60)" stroke-width="1px" opacity="0.25"></line><line x1="0" y1="261.57331730769215" x2="960.6875" y2="261.57331730769215" fill="rgb(0, 0, 0)" stroke="rgb(60, 60, 60)" stroke-width="1px" opacity="0.25"></line><line x1="0" y1="232.50961538461544" x2="960.6875" y2="232.50961538461544" fill="rgb(0, 0, 0)" stroke="rgb(60, 60, 60)" stroke-width="1px" opacity="0.25"></line><line x1="0" y1="203.44591346153842" x2="960.6875" y2="203.44591346153842" fill="rgb(0, 0, 0)" stroke="rgb(60, 60, 60)" stroke-width="1px" opacity="0.25"></line><line x1="0" y1="174.38221153846143" x2="960.6875" y2="174.38221153846143" fill="rgb(0, 0, 0)" stroke="rgb(60, 60, 60)" stroke-width="1px" opacity="0.25"></line><line x1="0" y1="145.3185096153844" x2="960.6875" y2="145.3185096153844" fill="rgb(0, 0, 0)" stroke="rgb(60, 60, 60)" stroke-width="1px" opacity="0.25"></line><line x1="0" y1="116.25480769230768" x2="960.6875" y2="116.25480769230768" fill="rgb(0, 0, 0)" stroke="rgb(60, 60, 60)" stroke-width="1px" opacity="0.25"></line><line x1="0" y1="87.19110576923072" x2="960.6875" y2="87.19110576923072" fill="rgb(0, 0, 0)" stroke="rgb(60, 60, 60)" stroke-width="1px" opacity="0.25"></line><line x1="0" y1="58.1274038461537" x2="960.6875" y2="58.1274038461537" fill="rgb(0, 0, 0)" stroke="rgb(60, 60, 60)" stroke-width="1px" opacity="0.25"></line><line x1="0" y1="29.063701923076678" x2="960.6875" y2="29.063701923076678" fill="rgb(0, 0, 0)" stroke="rgb(60, 60, 60)" stroke-width="1px" opacity="0.25"></line></g></g></g><g><g><line x1="0" y1="1743.8221153846157" x2="960.6875" y2="1743.8221153846157" fill="rgb(0, 0, 0)" stroke="rgb(153, 153, 153)" stroke-width="1.5px"></line></g></g><g><g><line x1="73.89903846153847" y1="0" x2="73.89903846153847" y2="377.828125" fill="rgb(0, 0, 0)" stroke="rgb(153, 153, 153)" stroke-width="1.5px"></line></g></g><g><g><g><g><g><path stroke="rgb(255, 112, 67)" stroke-width="2px" d="M85.79678365384616,-90.16221208947388L88.75274519230769,42.50985240759081L91.70870673076922,42.15834860394733L94.66466826923076,-42.83633094447856L100.57659134615385,-6.89500675738185L103.53255288461538,36.113395357665524L106.48851442307692,89.88087204811791L109.44447596153846,78.18001393164752L112.40043750000001,16.650593996159273L115.35639903846155,45.84265621046393L118.31236057692308,56.647849298923575L121.26832211538462,90.8450592889892L124.22428365384616,86.21466095624356L127.18024519230768,101.30529927938301L130.13620673076923,60.18676792509012L133.09216826923077,139.218468668224L136.0481298076923,187.22251733337487L139.00409134615387,158.00343080398406L141.96005288461538,154.86740954890436L144.91601442307692,210.2953281478266L147.87197596153845,197.47416503149265L150.8279375,177.57331767224198L153.78389903846156,141.81857183304575L156.73986057692306,161.89158012020968L159.69582211538463,150.50540467835188L162.65178365384614,198.68727066762082L165.6077451923077,175.4139847570802L168.56370673076924,199.84137818068524L171.51966826923078,193.6311565178977L174.47562980769231,218.53768838598273L177.43159134615385,209.7804536653059L180.3875528846154,175.59577568340282L183.34351442307693,216.37008729769911L186.29947596153846,176.34145569428856L189.2554375,198.25534017843782L192.21139903846154,186.1621777929629L195.16736057692307,233.15508256823094L198.1233221153846,188.97374944320708L201.07928365384615,206.9945735259465L204.0352451923077,207.83978858985137L206.99120673076922,248.49867324738653L209.9471682692308,216.28115204740718L212.9031298076923,160.00467169731826L215.85909134615383,142.87648318234045L218.8150528846154,198.28211746706543L221.7710144230769,185.50815921391873L224.72697596153847,140.76342747924946L227.68293749999998,164.60968335246838L230.63889903846155,164.41159559139896L233.59486057692308,210.53426215333855L236.55082211538462,169.28132003971177L239.50678365384616,153.843548249938L242.4627451923077,182.25959169846533L245.41870673076923,183.95591587428314L248.37466826923077,174.8517936874997L251.33062980769233,196.98313030320955L254.2865913461538,196.22564561800982L257.24255288461535,194.9066310555029L260.1985144230769,182.6558173781944L263.1544759615385,197.9978494107405L266.11043750000005,189.56003727870623L269.0663990384615,184.1064341753258L272.02236057692306,170.68770669852466L274.97832211538463,129.17687506960675L277.9342836538462,145.63162433317103L280.8902451923077,171.0722568687262L283.8462067307692,216.2406945757403L286.8021682692308,254.46873567045608L289.7581298076923,237.3532798677905L292.71409134615385,193.41861276133722L295.6700528846154,141.88174630226908L298.6260144230769,154.12834376729714L301.58197596153843,130.7547245713178L304.5379375,162.26918821021854L307.49389903846156,170.3832893400996L310.44986057692313,167.73518981392553L313.4058221153846,196.74597093088747L316.36178365384615,205.75469362818887L319.3177451923077,200.03841243220458L322.2737067307692,196.35990556777614L325.2296682692308,230.08155055141796L328.1856298076923,220.86856310290665L331.14159134615386,265.8287981436358L334.09755288461537,240.0145536819163L337.05351442307693,287.3427643901393L340.00947596153844,312.72166512757144L342.9654375,263.96168895288156L345.9213990384615,251.38560858802623L348.8773605769231,259.6655995455483L351.83332211538465,191.21119753663442L354.78928365384616,175.59058856767092L357.74524519230766,220.89741431120913L360.70120673076923,254.8491740423766L363.6571682692308,250.07767487888515L366.6131298076923,235.45279355776887L369.5690913461538,222.78707120586992L372.5250528846154,193.84469595249632L375.48101442307694,194.324401782028L378.43697596153845,159.38016187192022L381.3929375,190.60946773879908L384.3488990384615,181.94528120906816L387.3048605769231,177.07843657045927L390.2608221153846,144.3810671112635L393.21678365384616,157.1037476606969L396.17274519230773,140.58159135484328L399.1287067307692,187.91665865172823L402.08466826923075,211.7947274471966L405.0406298076923,233.3208447560265L407.9965913461539,234.8294563394532L410.9525528846154,277.2771068053905L413.9085144230769,280.6636522778253L416.86447596153846,286.6926793925704L419.8204375,334.79993190098145L422.77639903846153,304.65210803637507L425.7323605769231,320.36511122591014L428.6883221153846,302.86787415702696L431.6442836538461,293.3083419301832L434.6002451923077,310.6743891969853L437.55620673076925,283.613186229203L440.5121682692308,248.13749571125797L443.46812980769226,281.07009413001674L446.42409134615383,247.94835387401838L449.3800528846154,232.55605760769308L452.33601442307696,224.15176360248898L455.29197596153847,220.57732479088583L458.2479375,226.2851354650701L461.20389903846154,238.2363279934215L464.15986057692305,240.86258312021877L467.1158221153846,242.57528775695783L470.0717836538462,279.5121521478236L473.0277451923077,312.9257929206227L475.9837067307692,239.01168649737647L478.93966826923076,196.77449826338326L481.8956298076923,194.80690738903152L484.85159134615384,230.41351000515695L487.80755288461535,184.52283433074498L490.7635144230769,138.3158078256999L493.7194759615385,136.7854694002032L496.6754375,135.3349900927167L499.63139903846155,159.0332564378966L502.5873605769231,127.51213159167375L505.5433221153847,153.52842213836936L508.4992836538461,143.97238802484608L511.45524519230764,97.27453168160542L514.4112067307692,142.9089362502586L517.3671682692308,170.1870848857789L520.3231298076923,179.87746375849062L523.2790913461539,157.05382027655781L526.2350528846154,134.21733927757347L529.1910144230769,163.6079489046833L532.1469759615385,150.28295106600186L535.1029375,191.57511594777048L538.0588990384615,240.51772805031516L541.0148605769231,268.37283260635235L543.9708221153846,258.5539827671665L546.9267836538461,270.7617908700164L549.8827451923077,228.47196426438123L552.8387067307692,235.00733315413044L555.7946682692308,181.6010990044998L558.7506298076923,183.33578738047706L561.7065913461539,217.7332432380161L564.6625528846155,258.582747967068L567.6185144230769,202.57966298994555L570.5744759615384,200.85534356395183L573.5304375,207.6890942257429L576.4863990384615,181.4886675685483L579.4423605769231,132.91996217174028L582.3983221153846,153.18283229611674L585.3542836538462,166.7982141539414L588.3102451923078,164.02595966137358L591.2662067307692,184.5182535381254L594.2221682692308,199.4525781640281L597.1781298076922,187.39864074801667L600.1340913461538,209.0395489634053L603.0900528846154,212.0439828686338L606.0460144230769,254.94718234402518L609.0019759615385,289.32146826417454L611.9579375,318.8777768209941L614.9138990384615,277.7058616693864L617.8698605769231,222.88983132722217L620.8258221153847,243.28627475263025L623.7817836538461,255.85087885038496L626.7377451923077,287.9843921472585L629.6937067307692,272.4004817598877L632.6496682692308,295.2751066569286L635.6056298076923,305.34681122778755L638.5615913461538,241.56521868540474L641.5175528846154,246.55893951068072L644.473514423077,256.4587785855614L647.4294759615385,239.96789963521653L650.3854375000001,211.30944914506338L653.3413990384615,226.89556848449718L656.297360576923,237.94487207679268L659.2533221153845,253.32157909755819L662.2092836538461,267.27450746246666L665.1652451923077,277.8123832777429L668.1212067307692,259.98026651612383L671.0771682692308,267.9697084197492L674.0331298076924,236.35540482663845L676.9890913461538,258.39053998588895L679.9450528846154,308.83802864056406L682.9010144230768,331.7094993778962L685.8569759615384,363.54197014133183L688.8129375,327.96181849500454L691.7688990384615,364.14687866243656L694.7248605769231,329.74137620633593L697.6808221153847,281.88491831386943L700.6367836538461,273.84066710586745L703.5927451923077,316.08510798948333L706.5487067307693,318.55976072434316L709.3568701923077,274.5090485840301L712.3128317307693,260.20511408299166L715.2687932692309,265.22892112894664L718.2247548076923,267.89801795059907L721.1807163461538,259.45554236692305L724.1366778846153,234.847379342495L727.0926394230769,175.5972540779723L730.0486009615385,175.50329899891562L733.0045625,173.17586577319324L735.886625,119.79038277918738L738.8425865384615,180.9457519238263L741.7985480769231,186.90636251840354L744.7545096153847,147.60260132479763L747.7104711538461,199.83109727905338L750.5925336538461,212.73590098305513L753.5484951923077,240.2774847634833L756.5044567307692,276.21663641546144L759.3865192307692,251.05605725941717L762.2685817307693,257.90442580698124L765.2245432692307,277.2244694722312L768.1805048076923,244.01823071268655L770.9886682692307,266.9046163705252L773.9446298076923,279.94201522011L776.9005913461539,243.91893516758876L779.8565528846154,261.8398176451136L782.812514423077,232.9872881196994L785.694576923077,235.6138806052232L788.6505384615385,203.8838055161122L791.458701923077,191.06805782483505L794.4146634615385,131.3301898614994L797.370625,115.06062579204894L800.3265865384615,124.53322855626854L803.282548076923,153.3524386626597L806.2385096153846,161.97804702775207L809.1205721153846,170.74360031541963L812.0765336538461,175.75877441695553L815.0324951923077,183.63118622936048L817.9884567307693,171.1761924724861L820.9444182692308,162.43547360860785L823.9003798076924,216.50734348096432L826.8563413461538,211.27874676989723L829.7384038461538,263.2131789461971L832.6204663461538,285.7104856666523L835.5764278846153,276.1661951359547L838.4584903846154,237.38659934560033L841.3405528846154,273.31058909851924L844.2965144230769,272.84368576965346L847.2524759615385,253.087987290937L850.1345384615385,283.9616873356065L853.0905,204.71400996832728L856.0464615384616,226.3407507894447L859.0024230769232,215.57902150354L861.9583846153846,190.32965364581156L864.914346153846,186.7530290972982L867.7964086538461,148.05103047806475L870.7523701923077,197.3332159164537L873.7083317307691,222.7571166401068L876.6642932692307,224.2821198716824L879.6202548076923,227.67747201971846L882.5023173076924,251.8139860929927L885.4582788461538,274.0395830535284L888.3403413461539,313.01666174374816L891.2963028846154,274.5648697248158L894.252264423077,253.02089770606358L897.2082259615385,270.13190904438613" style="fill: none;" fill="none"></path></g></g></g></g><g opacity="0.20000000298023224"><g><g><g><path stroke="rgb(255, 112, 67)" stroke-width="2px" d="M73.9729375,-889.4660960743656L76.92889903846154,212.03121833201004L79.88486057692307,-38.95876627503867L88.75274519230769,528.4611298484547L91.70870673076922,40.686533751532465L94.66466826923076,-438.75011675634073L97.62062980769231,90.93091791246047L100.57659134615385,69.24733644632312L103.53255288461538,285.636196013578L106.48851442307692,418.2897442624548L109.44447596153846,3.4941857077220106L112.40043750000001,-391.2818617000619L115.35639903846155,245.85583925295316L118.31236057692308,132.8327042265467L121.26832211538462,338.07669961216624L124.22428365384616,51.99524199397541L127.18024519230768,215.00375730201566L130.13620673076923,-254.94008805965495L139.00409134615387,-75.11662135876804L141.96005288461538,129.5830598651081L144.91601442307692,661.3774883693651L147.87197596153845,92.262647852241L150.8279375,13.05178411700075L153.78389903846156,-155.72603837299278L156.73986057692306,329.922645085686L159.69582211538463,54.68898384244159L162.65178365384614,606.0557146400131L168.56370673076924,408.0212808624548L171.51966826923078,140.52686192359442L174.47562980769231,432.15846308845073L177.43159134615385,134.46776137440992L180.3875528846154,-119.10515675913388L189.2554375,388.27828300140163L192.21139903846154,81.13461638516463L195.16736057692307,641.8530620380625L198.1233221153846,-195.7537260751775L201.07928365384615,364.0949165435002L204.0352451923077,215.2155619113405L206.99120673076922,603.6296890808892L218.8150528846154,683.5641903691543L221.7710144230769,73.56581588900326L224.72697596153847,-251.53446618240355L227.68293749999998,373.7695826761437L230.63889903846155,162.67346991986125L233.59486057692308,615.3769783534237L236.55082211538462,-192.9283676244312L239.50678365384616,18.25926773060911L242.4627451923077,431.8889704824967L245.41870673076923,198.86109945346377L248.37466826923077,94.84016784239554L251.33062980769233,391.51929953929744L254.2865913461538,189.56622672971338L257.24255288461535,183.30885541205544L260.1985144230769,74.92342929941219L263.1544759615385,332.92977993636805L266.11043750000005,115.34241417521383L269.0663990384615,136.13293131816752L272.02236057692306,52.63776108839693L274.97832211538463,-236.03821840751812L277.9342836538462,290.4114425849939L280.8902451923077,394.92948908783615L286.8021682692308,590.8798805472851L289.7581298076923,86.7286603280919L292.71409134615385,-193.24387528928014L295.6700528846154,-311.70270832065216L298.6260144230769,261.916109845322L301.58197596153843,-74.9728242997216L304.5379375,439.6571413717006L307.49389903846156,241.8046531670887L310.44986057692313,144.4257922998803L313.4058221153846,452.1126734532915L316.36178365384615,285.05508672201984L319.3177451923077,149.71938497590588L322.2737067307692,163.97847052396025L325.2296682692308,526.9325671107911L328.1856298076923,139.76592172172286L331.14159134615386,661.6210975046909L334.09755288461537,12.76554338299303L337.05351442307693,703.9876866655184L342.9654375,-165.29327964387824L345.9213990384615,140.6723507127473L348.8773605769231,332.55869893752293L351.83332211538465,-411.4315514787004L354.78928365384616,38.07297991011097L357.74524519230766,619.7621119622972L360.70120673076923,553.7490268928433L363.6571682692308,208.07087815286081L366.6131298076923,106.699534234481L369.5690913461538,111.28141605473206L372.5250528846154,-60.95684036796109L375.48101442307694,198.54762186474255L378.43697596153845,-148.26144845138742L381.3929375,465.5460255363981L384.3488990384615,105.66740969654893L387.3048605769231,134.2315958515525L390.2608221153846,-143.48112668965223L393.21678365384616,269.11222219903715L396.17274519230773,-4.877002377918416L405.0406298076923,422.83398508783785L407.9965913461539,248.1110846578331L410.9525528846154,650.9811301733191L413.9085144230769,310.4784067614281L416.86447596153846,339.7715594192917L419.8204375,758.3309637013122L422.77639903846153,39.23384510914224L425.7323605769231,458.7007780067562L428.6883221153846,148.82395223057327L431.6442836538461,209.14715684657065L434.6002451923077,463.56340243816913L437.55620673076925,45.368904340105416L440.5121682692308,-64.18719900618635L446.42409134615383,-43.6524714553247L449.3800528846154,97.04364630601879L452.33601442307696,150.1610957066944L455.29197596153847,189.10827538990316L458.2479375,276.5362105980882L461.20389903846154,343.45360999593345L464.15986057692305,263.9839115544096L467.1158221153846,257.65379584217527L470.0717836538462,604.701230930301L478.93966826923076,-175.07824657946094L481.8956298076923,177.48439782863255L484.85159134615384,543.8911463896735L490.7635144230769,-268.4871244059135L493.7194759615385,123.31249305262003L496.6754375,122.5650866915999L499.63139903846155,367.67089564246885L502.5873605769231,-149.99733271359378L505.5433221153847,382.57376908252456L508.4992836538461,59.841824573612314L511.45524519230764,-313.8496829987206L517.3671682692308,410.3417424629375L520.3231298076923,265.19079181233576L523.2790913461539,-43.883730960873436L529.1910144230769,422.36055441755383L532.1469759615385,32.97072190912246L535.1029375,555.1080782738427L541.0148605769231,513.6069782354641L543.9708221153846,172.10960210749843L546.9267836538461,378.2383723387801L549.8827451923077,-143.84434114350256L552.8387067307692,292.54420673016836L555.7946682692308,-288.58318634017826L558.7506298076923,198.60784745653143L561.7065913461539,520.5657408552472L567.6185144230769,-290.46709698669713L570.5744759615384,185.67457079288513L573.5304375,267.8528983078117L576.4863990384615,-49.17783115593096L579.4423605769231,-294.6751064534275L582.3983221153846,331.57554998617195L585.3542836538462,286.66696716742496L588.3102451923078,139.61924872149552L591.2662067307692,364.93080038908647L594.2221682692308,330.9332000647611L597.1781298076922,81.27672171410461L600.1340913461538,399.56440664692377L603.0900528846154,238.49478321386124L606.0460144230769,632.6635840999427L620.8258221153847,422.8549625411576L623.7817836538461,366.4686676423354L626.7377451923077,570.8853224194061L629.6937067307692,135.20095720253607L632.6496682692308,496.6615098649065L638.5615913461538,-319.9629189113109L641.5175528846154,290.5232659450288L644.473514423077,343.6161852591612L647.4294759615385,94.7834948838302L650.3854375000001,-40.99730105328507L653.3413990384615,364.11454061273474L656.297360576923,335.2220742305787L659.2533221153845,388.69690161623737L662.2092836538461,390.1149943779511L665.1652451923077,370.58701541342504L668.1212067307692,102.98770920796608L671.0771682692308,338.3081282907257L674.0331298076924,-41.97444436275822L685.8569759615384,643.7925460185775L688.8129375,14.716954060758383L691.7688990384615,682.7173102778761L694.7248605769231,26.838031100308285L697.6808221153847,-139.43958346539443L700.6367836538461,203.01971040108646L703.5927451923077,688.0018521978322L706.5487067307693,340.34640930945613L709.3568701923077,-113.30996610655228L712.3128317307693,134.27439662324514L715.2687932692309,309.458124334241L718.2247548076923,291.39653702596723L721.1807163461538,185.12864948754066L724.1366778846153,18.19904213882029L727.0926394230769,-346.036201657609L730.0486009615385,174.6761258519612L733.0045625,152.68532619849645L735.886625,-350.211222387264L738.8425865384615,719.3528253571556L741.7985480769231,239.3831106927469L744.7545096153847,-198.4246295672068L747.7104711538461,659.646679297478L750.5925336538461,326.3487806493503L753.5484951923077,482.75142823780834L756.5044567307692,592.6221087973905L759.3865192307692,29.54429175156207L762.2685817307693,318.19692537200837L765.2245432692307,447.3166186015666L782.812514423077,-21.02811887700244L785.694576923077,258.738194840396L788.6505384615385,-75.465286933703L791.458701923077,78.2392203080122L794.4146634615385,-394.59731436264053L797.370625,-28.175340230641837L800.3265865384615,207.92928034295272L803.282548076923,407.07450410839203L806.2385096153846,237.91722655552655L809.1205721153846,247.91484396548736L812.0765336538461,219.91197385979683L815.0324951923077,252.93928238158017L817.9884567307693,61.52340429940227L820.9444182692308,85.48287027771795L823.9003798076924,692.5518449055772L826.8563413461538,165.24659141173908L829.7384038461538,720.4398465370414L832.6204663461538,483.775009538703L835.5764278846153,192.1390098755699L838.4584903846154,-104.02592045548306L841.3405528846154,589.5825773151704L844.2965144230769,268.7331054821865L847.2524759615385,79.16036735096253L850.1345384615385,555.771321062068L856.0464615384616,416.74088076351416L859.0024230769232,120.83360092767026L861.9583846153846,-31.963800630977858L864.914346153846,155.26470709176806L867.7964086538461,-192.67832991470107L873.7083317307691,446.58714457967454L876.6642932692307,237.70812871437198L879.6202548076923,257.5698860288964L882.5023173076924,464.309962934136L891.2963028846154,-63.96169138299945L894.252264423077,63.34945777628127L897.2082259615385,420.7759108268622" style="fill: none;" fill="none"></path></g></g></g></g></g></g><g transform="translate(68, 377)" clip-path="url(#clip_1)"><clipPath id="clip_1"><rect width="960" height="22"></rect></clipPath><g><g><line x1="0" y1="0" x2="0" y2="5" style="visibility: inherit;" fill="rgb(0, 0, 0)" stroke="rgb(204, 204, 204)" stroke-width="1px"></line><line x1="73.89903846153847" y1="0" x2="73.89903846153847" y2="5" style="visibility: inherit;" fill="rgb(0, 0, 0)" stroke="rgb(204, 204, 204)" stroke-width="1px"></line><line x1="147.79807692307693" y1="0" x2="147.79807692307693" y2="5" style="visibility: inherit;" fill="rgb(0, 0, 0)" stroke="rgb(204, 204, 204)" stroke-width="1px"></line><line x1="221.6971153846154" y1="0" x2="221.6971153846154" y2="5" style="visibility: inherit;" fill="rgb(0, 0, 0)" stroke="rgb(204, 204, 204)" stroke-width="1px"></line><line x1="295.59615384615387" y1="0" x2="295.59615384615387" y2="5" style="visibility: inherit;" fill="rgb(0, 0, 0)" stroke="rgb(204, 204, 204)" stroke-width="1px"></line><line x1="369.4951923076923" y1="0" x2="369.4951923076923" y2="5" style="visibility: inherit;" fill="rgb(0, 0, 0)" stroke="rgb(204, 204, 204)" stroke-width="1px"></line><line x1="443.3942307692308" y1="0" x2="443.3942307692308" y2="5" style="visibility: inherit;" fill="rgb(0, 0, 0)" stroke="rgb(204, 204, 204)" stroke-width="1px"></line><line x1="517.2932692307692" y1="0" x2="517.2932692307692" y2="5" style="visibility: inherit;" fill="rgb(0, 0, 0)" stroke="rgb(204, 204, 204)" stroke-width="1px"></line><line x1="591.1923076923077" y1="0" x2="591.1923076923077" y2="5" style="visibility: inherit;" fill="rgb(0, 0, 0)" stroke="rgb(204, 204, 204)" stroke-width="1px"></line><line x1="665.0913461538462" y1="0" x2="665.0913461538462" y2="5" style="visibility: inherit;" fill="rgb(0, 0, 0)" stroke="rgb(204, 204, 204)" stroke-width="1px"></line><line x1="738.9903846153846" y1="0" x2="738.9903846153846" y2="5" style="visibility: inherit;" fill="rgb(0, 0, 0)" stroke="rgb(204, 204, 204)" stroke-width="1px"></line><line x1="812.8894230769231" y1="0" x2="812.8894230769231" y2="5" style="visibility: inherit;" fill="rgb(0, 0, 0)" stroke="rgb(204, 204, 204)" stroke-width="1px"></line><line x1="886.7884615384615" y1="0" x2="886.7884615384615" y2="5" style="visibility: inherit;" fill="rgb(0, 0, 0)" stroke="rgb(204, 204, 204)" stroke-width="1px"></line><line x1="960.6875" y1="0" x2="960.6875" y2="5" style="visibility: inherit;" fill="rgb(0, 0, 0)" stroke="rgb(204, 204, 204)" stroke-width="1px"></line></g><g transform="translate(0, 8)"><text x="0" y="0" dx="0em" dy="0.95em" style="text-anchor: middle; visibility: hidden; font-family: &quot;Helvetica Neue&quot;, sans-serif; font-size: 12px; font-weight: 200;" fill="rgb(50, 49, 63)" stroke="none" stroke-width="1px">-1k</text><text x="73.89903846153847" y="0" dx="0em" dy="0.95em" style="text-anchor: middle; visibility: inherit; font-family: &quot;Helvetica Neue&quot;, sans-serif; font-size: 12px; font-weight: 200;" fill="rgb(50, 49, 63)" stroke="none" stroke-width="1px">0</text><text x="147.79807692307693" y="0" dx="0em" dy="0.95em" style="text-anchor: middle; visibility: inherit; font-family: &quot;Helvetica Neue&quot;, sans-serif; font-size: 12px; font-weight: 200;" fill="rgb(50, 49, 63)" stroke="none" stroke-width="1px">1k</text><text x="221.6971153846154" y="0" dx="0em" dy="0.95em" style="text-anchor: middle; visibility: inherit; font-family: &quot;Helvetica Neue&quot;, sans-serif; font-size: 12px; font-weight: 200;" fill="rgb(50, 49, 63)" stroke="none" stroke-width="1px">2k</text><text x="295.59615384615387" y="0" dx="0em" dy="0.95em" style="text-anchor: middle; visibility: inherit; font-family: &quot;Helvetica Neue&quot;, sans-serif; font-size: 12px; font-weight: 200;" fill="rgb(50, 49, 63)" stroke="none" stroke-width="1px">3k</text><text x="369.4951923076923" y="0" dx="0em" dy="0.95em" style="text-anchor: middle; visibility: inherit; font-family: &quot;Helvetica Neue&quot;, sans-serif; font-size: 12px; font-weight: 200;" fill="rgb(50, 49, 63)" stroke="none" stroke-width="1px">4k</text><text x="443.3942307692308" y="0" dx="0em" dy="0.95em" style="text-anchor: middle; visibility: inherit; font-family: &quot;Helvetica Neue&quot;, sans-serif; font-size: 12px; font-weight: 200;" fill="rgb(50, 49, 63)" stroke="none" stroke-width="1px">5k</text><text x="517.2932692307692" y="0" dx="0em" dy="0.95em" style="text-anchor: middle; visibility: inherit; font-family: &quot;Helvetica Neue&quot;, sans-serif; font-size: 12px; font-weight: 200;" fill="rgb(50, 49, 63)" stroke="none" stroke-width="1px">6k</text><text x="591.1923076923077" y="0" dx="0em" dy="0.95em" style="text-anchor: middle; visibility: inherit; font-family: &quot;Helvetica Neue&quot;, sans-serif; font-size: 12px; font-weight: 200;" fill="rgb(50, 49, 63)" stroke="none" stroke-width="1px">7k</text><text x="665.0913461538462" y="0" dx="0em" dy="0.95em" style="text-anchor: middle; visibility: inherit; font-family: &quot;Helvetica Neue&quot;, sans-serif; font-size: 12px; font-weight: 200;" fill="rgb(50, 49, 63)" stroke="none" stroke-width="1px">8k</text><text x="738.9903846153846" y="0" dx="0em" dy="0.95em" style="text-anchor: middle; visibility: inherit; font-family: &quot;Helvetica Neue&quot;, sans-serif; font-size: 12px; font-weight: 200;" fill="rgb(50, 49, 63)" stroke="none" stroke-width="1px">9k</text><text x="812.8894230769231" y="0" dx="0em" dy="0.95em" style="text-anchor: middle; visibility: inherit; font-family: &quot;Helvetica Neue&quot;, sans-serif; font-size: 12px; font-weight: 200;" fill="rgb(50, 49, 63)" stroke="none" stroke-width="1px">10k</text><text x="886.7884615384615" y="0" dx="0em" dy="0.95em" style="text-anchor: middle; visibility: inherit; font-family: &quot;Helvetica Neue&quot;, sans-serif; font-size: 12px; font-weight: 200;" fill="rgb(50, 49, 63)" stroke="none" stroke-width="1px">11k</text><text x="960.6875" y="0" dx="0em" dy="0.95em" style="text-anchor: middle; visibility: hidden; font-family: &quot;Helvetica Neue&quot;, sans-serif; font-size: 12px; font-weight: 200;" fill="rgb(50, 49, 63)" stroke="none" stroke-width="1px">12k</text></g><line x1="0" y1="0" x2="960.6875" y2="0" fill="rgb(0, 0, 0)" stroke="rgb(204, 204, 204)" stroke-width="1px"></line></g></g></g></g></svg>