<svg viewBox="0 0 1029 400" xmlns="http://www.w3.org/2000/svg"><g><g><g><g><g><line x1="68.3125" y1="377.828125" x2="63.3125" y2="377.828125" style="visibility: inherit;" fill="rgb(0, 0, 0)" stroke="rgb(204, 204, 204)" stroke-width="1px"></line><line x1="68.3125" y1="348.7644230769231" x2="63.3125" y2="348.7644230769231" style="visibility: inherit;" fill="rgb(0, 0, 0)" stroke="rgb(204, 204, 204)" stroke-width="1px"></line><line x1="68.3125" y1="319.7007211538462" x2="63.3125" y2="319.7007211538462" style="visibility: inherit;" fill="rgb(0, 0, 0)" stroke="rgb(204, 204, 204)" stroke-width="1px"></line><line x1="68.3125" y1="290.6370192307692" x2="63.3125" y2="290.6370192307692" style="visibility: inherit;" fill="rgb(0, 0, 0)" stroke="rgb(204, 204, 204)" stroke-width="1px"></line><line x1="68.3125" y1="261.5733173076923" x2="63.3125" y2="261.5733173076923" style="visibility: inherit;" fill="rgb(0, 0, 0)" stroke="rgb(204, 204, 204)" stroke-width="1px"></line><line x1="68.3125" y1="232.5096153846154" x2="63.3125" y2="232.5096153846154" style="visibility: inherit;" fill="rgb(0, 0, 0)" stroke="rgb(204, 204, 204)" stroke-width="1px"></line><line x1="68.3125" y1="203.44591346153842" x2="63.3125" y2="203.44591346153842" style="visibility: inherit;" fill="rgb(0, 0, 0)" stroke="rgb(204, 204, 204)" stroke-width="1px"></line><line x1="68.3125" y1="174.38221153846155" x2="63.3125" y2="174.38221153846155" style="visibility: inherit;" fill="rgb(0, 0, 0)" stroke="rgb(204, 204, 204)" stroke-width="1px"></line><line x1="68.3125" y1="145.31850961538464" x2="63.3125" y2="145.31850961538464" style="visibility: inherit;" fill="rgb(0, 0, 0)" stroke="rgb(204, 204, 204)" stroke-width="1px"></line><line x1="68.3125" y1="116.25480769230768" x2="63.3125" y2="116.25480769230768" style="visibility: inherit;" fill="rgb(0, 0, 0)" stroke="rgb(204, 204, 204)" stroke-width="1px"></line><line x1="68.3125" y1="87.19110576923077" x2="63.3125" y2="87.19110576923077" style="visibility: inherit;" fill="rgb(0, 0, 0)" stroke="rgb(204, 204, 204)" stroke-width="1px"></line><line x1="68.3125" y1="58.12740384615387" x2="63.3125" y2="58.12740384615387" style="visibility: inherit;" fill="rgb(0, 0, 0)" stroke="rgb(204, 204, 204)" stroke-width="1px"></line><line x1="68.3125" y1="29.06370192307685" x2="63.3125" y2="29.06370192307685" style="visibility: inherit;" fill="rgb(0, 0, 0)" stroke="rgb(204, 204, 204)" stroke-width="1px"></line><line x1="68.3125" y1="0" x2="63.3125" y2="0" style="visibility: inherit;" fill="rgb(0, 0, 0)" stroke="rgb(204, 204, 204)" stroke-width="1px"></line></g><g transform="translate(58.3125, 0)"><text x="0" y="377.828125" dx="0em" dy="0.3em" style="text-anchor: end; visibility: hidden; font-family: &quot;Helvetica Neue&quot;, sans-serif; font-size: 12px; font-weight: 200;" fill="rgb(50, 49, 63)" stroke="none" stroke-width="1px">2e-3</text><text x="0" y="348.7644230769231" dx="0em" dy="0.3em" style="text-anchor: end; visibility: inherit; font-family: &quot;Helvetica Neue&quot;, sans-serif; font-size: 12px; font-weight: 200;" fill="rgb(50, 49, 63)" stroke="none" stroke-width="1px">2.2e-3</text><text x="0" y="319.7007211538462" dx="0em" dy="0.3em" style="text-anchor: end; visibility: inherit; font-family: &quot;Helvetica Neue&quot;, sans-serif; font-size: 12px; font-weight: 200;" fill="rgb(50, 49, 63)" stroke="none" stroke-width="1px">2.4e-3</text><text x="0" y="290.6370192307692" dx="0em" dy="0.3em" style="text-anchor: end; visibility: inherit; font-family: &quot;Helvetica Neue&quot;, sans-serif; font-size: 12px; font-weight: 200;" fill="rgb(50, 49, 63)" stroke="none" stroke-width="1px">2.6e-3</text><text x="0" y="261.5733173076923" dx="0em" dy="0.3em" style="text-anchor: end; visibility: inherit; font-family: &quot;Helvetica Neue&quot;, sans-serif; font-size: 12px; font-weight: 200;" fill="rgb(50, 49, 63)" stroke="none" stroke-width="1px">2.8e-3</text><text x="0" y="232.5096153846154" dx="0em" dy="0.3em" style="text-anchor: end; visibility: inherit; font-family: &quot;Helvetica Neue&quot;, sans-serif; font-size: 12px; font-weight: 200;" fill="rgb(50, 49, 63)" stroke="none" stroke-width="1px">3e-3</text><text x="0" y="203.44591346153842" dx="0em" dy="0.3em" style="text-anchor: end; visibility: inherit; font-family: &quot;Helvetica Neue&quot;, sans-serif; font-size: 12px; font-weight: 200;" fill="rgb(50, 49, 63)" stroke="none" stroke-width="1px">3.2e-3</text><text x="0" y="174.38221153846155" dx="0em" dy="0.3em" style="text-anchor: end; visibility: inherit; font-family: &quot;Helvetica Neue&quot;, sans-serif; font-size: 12px; font-weight: 200;" fill="rgb(50, 49, 63)" stroke="none" stroke-width="1px">3.4e-3</text><text x="0" y="145.31850961538464" dx="0em" dy="0.3em" style="text-anchor: end; visibility: inherit; font-family: &quot;Helvetica Neue&quot;, sans-serif; font-size: 12px; font-weight: 200;" fill="rgb(50, 49, 63)" stroke="none" stroke-width="1px">3.6e-3</text><text x="0" y="116.25480769230768" dx="0em" dy="0.3em" style="text-anchor: end; visibility: inherit; font-family: &quot;Helvetica Neue&quot;, sans-serif; font-size: 12px; font-weight: 200;" fill="rgb(50, 49, 63)" stroke="none" stroke-width="1px">3.8e-3</text><text x="0" y="87.19110576923077" dx="0em" dy="0.3em" style="text-anchor: end; visibility: inherit; font-family: &quot;Helvetica Neue&quot;, sans-serif; font-size: 12px; font-weight: 200;" fill="rgb(50, 49, 63)" stroke="none" stroke-width="1px">4e-3</text><text x="0" y="58.12740384615387" dx="0em" dy="0.3em" style="text-anchor: end; visibility: inherit; font-family: &quot;Helvetica Neue&quot;, sans-serif; font-size: 12px; font-weight: 200;" fill="rgb(50, 49, 63)" stroke="none" stroke-width="1px">4.2e-3</text><text x="0" y="29.06370192307685" dx="0em" dy="0.3em" style="text-anchor: end; visibility: inherit; font-family: &quot;Helvetica Neue&quot;, sans-serif; font-size: 12px; font-weight: 200;" fill="rgb(50, 49, 63)" stroke="none" stroke-width="1px">4.4e-3</text><text x="0" y="0" dx="0em" dy="0.3em" style="text-anchor: end; visibility: hidden; font-family: &quot;Helvetica Neue&quot;, sans-serif; font-size: 12px; font-weight: 200;" fill="rgb(50, 49, 63)" stroke="none" stroke-width="1px">4.6e-3</text></g><line x1="68.3125" y1="0" x2="68.3125" y2="377.828125" fill="rgb(0, 0, 0)" stroke="rgb(204, 204, 204)" stroke-width="1px"></line></g></g><g transform="translate(68, 0)" clip-path="url(#clip_0)"><clipPath id="clip_0"><rect width="960" height="377"></rect></clipPath><g><g><g><line x1="0" y1="0" x2="0" y2="377.828125" fill="rgb(0, 0, 0)" stroke="rgb(60, 60, 60)" stroke-width="1px" opacity="0.25"></line><line x1="73.89903846153847" y1="0" x2="73.89903846153847" y2="377.828125" fill="rgb(0, 0, 0)" stroke="rgb(60, 60, 60)" stroke-width="1px" opacity="0.25"></line><line x1="147.79807692307693" y1="0" x2="147.79807692307693" y2="377.828125" fill="rgb(0, 0, 0)" stroke="rgb(60, 60, 60)" stroke-width="1px" opacity="0.25"></line><line x1="221.6971153846154" y1="0" x2="221.6971153846154" y2="377.828125" fill="rgb(0, 0, 0)" stroke="rgb(60, 60, 60)" stroke-width="1px" opacity="0.25"></line><line x1="295.59615384615387" y1="0" x2="295.59615384615387" y2="377.828125" fill="rgb(0, 0, 0)" stroke="rgb(60, 60, 60)" stroke-width="1px" opacity="0.25"></line><line x1="369.4951923076923" y1="0" x2="369.4951923076923" y2="377.828125" fill="rgb(0, 0, 0)" stroke="rgb(60, 60, 60)" stroke-width="1px" opacity="0.25"></line><line x1="443.3942307692308" y1="0" x2="443.3942307692308" y2="377.828125" fill="rgb(0, 0, 0)" stroke="rgb(60, 60, 60)" stroke-width="1px" opacity="0.25"></line><line x1="517.2932692307692" y1="0" x2="517.2932692307692" y2="377.828125" fill="rgb(0, 0, 0)" stroke="rgb(60, 60, 60)" stroke-width="1px" opacity="0.25"></line><line x1="591.1923076923077" y1="0" x2="591.1923076923077" y2="377.828125" fill="rgb(0, 0, 0)" stroke="rgb(60, 60, 60)" stroke-width="1px" opacity="0.25"></line><line x1="665.0913461538462" y1="0" x2="665.0913461538462" y2="377.828125" fill="rgb(0, 0, 0)" stroke="rgb(60, 60, 60)" stroke-width="1px" opacity="0.25"></line><line x1="738.9903846153846" y1="0" x2="738.9903846153846" y2="377.828125" fill="rgb(0, 0, 0)" stroke="rgb(60, 60, 60)" stroke-width="1px" opacity="0.25"></line><line x1="812.8894230769231" y1="0" x2="812.8894230769231" y2="377.828125" fill="rgb(0, 0, 0)" stroke="rgb(60, 60, 60)" stroke-width="1px" opacity="0.25"></line><line x1="886.7884615384615" y1="0" x2="886.7884615384615" y2="377.828125" fill="rgb(0, 0, 0)" stroke="rgb(60, 60, 60)" stroke-width="1px" opacity="0.25"></line><line x1="960.6875" y1="0" x2="960.6875" y2="377.828125" fill="rgb(0, 0, 0)" stroke="rgb(60, 60, 60)" stroke-width="1px" opacity="0.25"></line></g><g><line x1="0" y1="377.828125" x2="960.6875" y2="377.828125" fill="rgb(0, 0, 0)" stroke="rgb(60, 60, 60)" stroke-width="1px" opacity="0.25"></line><line x1="0" y1="348.7644230769231" x2="960.6875" y2="348.7644230769231" fill="rgb(0, 0, 0)" stroke="rgb(60, 60, 60)" stroke-width="1px" opacity="0.25"></line><line x1="0" y1="319.7007211538462" x2="960.6875" y2="319.7007211538462" fill="rgb(0, 0, 0)" stroke="rgb(60, 60, 60)" stroke-width="1px" opacity="0.25"></line><line x1="0" y1="290.6370192307692" x2="960.6875" y2="290.6370192307692" fill="rgb(0, 0, 0)" stroke="rgb(60, 60, 60)" stroke-width="1px" opacity="0.25"></line><line x1="0" y1="261.5733173076923" x2="960.6875" y2="261.5733173076923" fill="rgb(0, 0, 0)" stroke="rgb(60, 60, 60)" stroke-width="1px" opacity="0.25"></line><line x1="0" y1="232.5096153846154" x2="960.6875" y2="232.5096153846154" fill="rgb(0, 0, 0)" stroke="rgb(60, 60, 60)" stroke-width="1px" opacity="0.25"></line><line x1="0" y1="203.44591346153842" x2="960.6875" y2="203.44591346153842" fill="rgb(0, 0, 0)" stroke="rgb(60, 60, 60)" stroke-width="1px" opacity="0.25"></line><line x1="0" y1="174.38221153846155" x2="960.6875" y2="174.38221153846155" fill="rgb(0, 0, 0)" stroke="rgb(60, 60, 60)" stroke-width="1px" opacity="0.25"></line><line x1="0" y1="145.31850961538464" x2="960.6875" y2="145.31850961538464" fill="rgb(0, 0, 0)" stroke="rgb(60, 60, 60)" stroke-width="1px" opacity="0.25"></line><line x1="0" y1="116.25480769230768" x2="960.6875" y2="116.25480769230768" fill="rgb(0, 0, 0)" stroke="rgb(60, 60, 60)" stroke-width="1px" opacity="0.25"></line><line x1="0" y1="87.19110576923077" x2="960.6875" y2="87.19110576923077" fill="rgb(0, 0, 0)" stroke="rgb(60, 60, 60)" stroke-width="1px" opacity="0.25"></line><line x1="0" y1="58.12740384615387" x2="960.6875" y2="58.12740384615387" fill="rgb(0, 0, 0)" stroke="rgb(60, 60, 60)" stroke-width="1px" opacity="0.25"></line><line x1="0" y1="29.06370192307685" x2="960.6875" y2="29.06370192307685" fill="rgb(0, 0, 0)" stroke="rgb(60, 60, 60)" stroke-width="1px" opacity="0.25"></line><line x1="0" y1="0" x2="960.6875" y2="0" fill="rgb(0, 0, 0)" stroke="rgb(60, 60, 60)" stroke-width="1px" opacity="0.25"></line></g></g></g><g><g><line x1="0" y1="668.4651442307693" x2="960.6875" y2="668.4651442307693" fill="rgb(0, 0, 0)" stroke="rgb(153, 153, 153)" stroke-width="1.5px"></line></g></g><g><g><line x1="73.89903846153847" y1="0" x2="73.89903846153847" y2="377.828125" fill="rgb(0, 0, 0)" stroke="rgb(153, 153, 153)" stroke-width="1.5px"></line></g></g><g><g><g><g><g><path stroke="rgb(255, 112, 67)" stroke-width="2px" d="M94.66466826923076,-5.9268364334593L97.62062980769231,18.139633943870365L100.57659134615385,43.38233860229582L103.53255288461538,25.50263772985295L106.48851442307692,33.95074297265967L109.44447596153846,19.200657680249662L112.40043750000001,37.46282154232705L115.35639903846155,64.17892171691182L118.31236057692308,58.86315946709095L121.26832211538462,65.98562821472285L124.22428365384616,76.75498959298255L127.18024519230768,84.79158095362351L130.13620673076923,75.23755548742287L133.09216826923077,104.37908754082326L136.0481298076923,117.53447701967025L139.00409134615387,125.72605750520583L141.96005288461538,135.72532581135417L144.91601442307692,158.93319419471896L147.87197596153845,145.24047887048977L150.8279375,147.49979340803506L153.78389903846156,167.2485355249942L156.73986057692306,178.43576170010127L159.69582211538463,175.08561928818204L162.65178365384614,183.17813699303707L165.6077451923077,196.86851319404784L168.56370673076924,192.8451056357725L171.51966826923078,202.3267396378328L174.47562980769231,212.90632596043434L177.43159134615385,195.5651035990536L180.3875528846154,162.08741282639286L183.34351442307693,180.71614251653895L186.29947596153846,184.34246088675152L189.2554375,168.43260041422815L192.21139903846154,160.44073965536862L195.16736057692307,168.12186162834834L198.1233221153846,169.14804647651923L201.07928365384615,184.39474214168848L204.0352451923077,194.36226538050994L206.99120673076922,204.36767518325289L209.9471682692308,199.7581709094068L212.9031298076923,207.7589354371559L215.85909134615383,213.518904990393L218.8150528846154,207.60670974504546L221.7710144230769,184.1318448698134L224.72697596153847,185.2396669506836L227.68293749999998,191.63351698526063L230.63889903846155,209.11040384006722L233.59486057692308,203.54149260640466L236.55082211538462,210.03986462259033L239.50678365384616,217.54065648691787L242.4627451923077,227.99605709867595L245.41870673076923,238.9950458350527L248.37466826923077,220.2341448824995L251.33062980769233,226.75949896172645L254.2865913461538,222.44744157314264L257.24255288461535,222.09980995031142L260.1985144230769,230.16631209926769L263.1544759615385,228.92835781216954L266.11043750000005,242.09800075901506L269.0663990384615,245.31151805925953L272.02236057692306,247.9684585572791L274.97832211538463,239.9196025498018L277.9342836538462,240.84250046459556L280.8902451923077,250.84256979966463L283.8462067307692,246.36072583564604L286.8021682692308,240.5616285478577L289.7581298076923,243.45963539867932L292.71409134615385,229.92441634891645L295.6700528846154,206.0963672551615L298.6260144230769,212.17554050808863L301.58197596153843,213.71555066937273L304.5379375,215.25867729780663L307.49389903846156,209.18563146124282L310.44986057692313,191.88313744535213L313.4058221153846,208.14084247003316L316.36178365384615,208.85970844164427L319.3177451923077,220.13082119347337L322.2737067307692,233.97624938721376L325.2296682692308,247.4191654147729L328.1856298076923,243.51748659597294L331.14159134615386,258.3701729139552L334.09755288461537,267.9264033155715L337.05351442307693,272.663900244747L340.00947596153844,266.397503612307L342.9654375,264.552695857968L345.9213990384615,264.74594119295176L348.8773605769231,258.2993421100545L351.83332211538465,254.3165541884761L354.78928365384616,244.4786672938355L357.74524519230766,252.76858939685337L360.70120673076923,245.3635574510701L363.6571682692308,239.912879082974L366.6131298076923,248.8591609022645L369.5690913461538,237.96055601449174L372.5250528846154,213.47409816726756L375.48101442307694,211.22149721070818L378.43697596153845,216.1779665365648L381.3929375,232.88941450188634L384.3488990384615,220.13170548630657L387.3048605769231,208.98721272569742L390.2608221153846,219.98830862713143L393.21678365384616,231.98152502247964L396.17274519230773,226.84452265279776L399.1287067307692,237.94398198108985L402.08466826923075,240.00288688636886L405.0406298076923,255.87245111284034L407.9965913461539,263.548198143227L410.9525528846154,243.61785432985803L413.9085144230769,235.792108618633L416.86447596153846,245.72669144762784L419.8204375,257.1679178234665L422.77639903846153,262.59979788523657L425.7323605769231,261.4292072289908L428.6883221153846,272.3833982110732L431.6442836538461,254.5882993871168L434.6002451923077,233.42437743965462L437.55620673076925,236.1350631154276L440.5121682692308,239.81670849992102L443.46812980769226,243.2800448816238L446.42409134615383,249.30025729233475L449.3800528846154,254.793464961785L452.33601442307696,254.53057713586162L455.29197596153847,257.4943662005644L458.2479375,253.99057348142844L461.20389903846154,263.091130400493L464.15986057692305,267.283719036099L467.1158221153846,277.4274823150133L470.0717836538462,284.1493884047842L473.0277451923077,274.69950998797174L475.9837067307692,275.5067732788052L478.93966826923076,261.9705332585262L481.8956298076923,266.57723513465453L484.85159134615384,280.6708197487044L487.80755288461535,258.89484803545156L490.7635144230769,250.35985458030598L493.7194759615385,259.423407172582L496.6754375,263.2051906544667L499.63139903846155,265.8049632135832L502.5873605769231,230.9688705495172L505.5433221153847,222.76110506991282L508.4992836538461,233.46791924010017L511.45524519230764,230.27329707792356L514.4112067307692,238.79056275575786L517.3671682692308,237.50687738683263L520.3231298076923,245.2763300838201L523.2790913461539,243.9864866519636L526.2350528846154,240.29861207095797L529.1910144230769,249.1919931816658L532.1469759615385,257.9678263581805L535.1029375,273.03241994760515L538.0588990384615,273.9957904813806L541.0148605769231,275.6251705576311L543.9708221153846,283.08393216859133L546.9267836538461,269.53776063930843L549.8827451923077,265.6936268208147L552.8387067307692,272.7411350571236L555.7946682692308,267.7942360833689L558.7506298076923,265.59010253711915L561.7065913461539,254.41933536282903L564.6625528846155,249.43566366125359L567.6185144230769,255.203261487605L570.5744759615384,242.9943625837499L573.5304375,250.99941439516837L576.4863990384615,262.6680760164035L579.4423605769231,261.8664416007427L582.3983221153846,265.4705008815688L585.3542836538462,257.10696841362403L588.3102451923078,263.06565327079727L591.2662067307692,260.9702573447936L594.2221682692308,258.0397383521046L597.1781298076922,234.7725939109631L600.1340913461538,233.57416275036618L603.0900528846154,235.3186935400004L606.0460144230769,245.7375430608555L609.0019759615385,240.84024310033297L611.9579375,237.10609576963014L614.9138990384615,240.46903648189817L617.8698605769231,246.71071079871874L620.8258221153847,240.47586869219873L623.7817836538461,242.60701342885787L626.7377451923077,234.08963918736123L629.6937067307692,218.5320009972242L632.6496682692308,191.70923594055444L635.6056298076923,193.95719884030288L638.5615913461538,200.8643115212219L641.5175528846154,221.1188071503425L644.473514423077,222.13739211570916L647.4294759615385,232.41610679399187L650.3854375000001,243.9836182059733L653.3413990384615,252.96980881779893L656.297360576923,264.0466048234914L659.2533221153845,275.5985636874498L662.2092836538461,277.84118582816063L665.1652451923077,277.4721591807203L668.1212067307692,277.39545279790605L671.0771682692308,279.1622434593555L674.0331298076924,281.82203644402784L676.9890913461538,291.1993437059671L679.9450528846154,299.33771829288685L682.9010144230768,274.4916402312556L685.8569759615384,286.15341167818656L688.8129375,279.9296394347755L691.7688990384615,267.11928648108034L694.7248605769231,253.312930410168L697.6808221153847,264.22872037130776L700.6367836538461,275.6879110646429L703.5927451923077,265.7486375043772L706.5487067307693,236.42645661428088L709.3568701923077,240.7977314130888L712.3128317307693,227.22246926028126L715.2687932692309,242.69085357750436L718.2247548076923,260.69166982639905L721.1807163461538,274.80578140593354L724.1366778846153,280.26610239970057L727.0926394230769,290.32842942386907L730.0486009615385,274.7353449827278L733.0045625,284.7506314992194L735.886625,273.35144180136103L738.8425865384615,270.14134815666057L741.7985480769231,278.8370955666534L744.7545096153847,279.40421313274015L747.7104711538461,282.326852606261L750.5925336538461,288.88265065081214L753.5484951923077,296.4050162999222L756.5044567307692,310.53497785629077L759.3865192307692,303.1344691844695L762.2685817307693,304.7364388167084L765.2245432692307,295.38159339205873L768.1805048076923,291.9386932251092L770.9886682692307,304.1302368298142L773.9446298076923,313.755356058641L776.9005913461539,314.31464953423324L779.8565528846154,308.3080753479853L782.812514423077,302.850657142949L785.694576923077,310.48910842950716L788.6505384615385,315.3301930437858L791.458701923077,310.76812034673475L794.4146634615385,311.8058279152812L797.370625,314.7614177975198L800.3265865384615,316.8388951997198L803.282548076923,310.2385561006907L806.2385096153846,300.8645601595678L809.1205721153846,281.92322428636817L812.0765336538461,279.76733790898857L815.0324951923077,281.3331646458424L817.9884567307693,257.29670201469537L820.9444182692308,258.58098499287104L823.9003798076924,244.5373400573916L826.8563413461538,252.94989584048705L829.7384038461538,269.1444994784359L832.6204663461538,276.58322270413976L835.5764278846153,281.49563120725577L838.4584903846154,290.4997336202227L841.3405528846154,274.85802625751825L844.2965144230769,283.8074248561758L847.2524759615385,281.542967435326L850.1345384615385,267.2294930695624L853.0905,270.74858933734066L856.0464615384616,276.44627387023377L859.0024230769232,277.25907054341644L861.9583846153846,262.6450887177455L864.914346153846,271.9430789512196L867.7964086538461,270.4033593022531L870.7523701923077,280.024737993482L873.7083317307691,271.6366253862303L876.6642932692307,279.64254817964263L879.6202548076923,281.1555768746445L882.5023173076924,270.2206392752043L885.4582788461538,270.70301792941854L888.3403413461539,267.93783906681546L891.2963028846154,276.0715628215031L894.252264423077,273.87389025700065L897.2082259615385,274.41713367715533" style="fill: none;" fill="none"></path></g></g></g></g><g opacity="0.20000000298023224"><g><g><g><path stroke="rgb(255, 112, 67)" stroke-width="2px" d="M73.9729375,-1366.6884745557238L76.92889903846154,232.15637834891766L79.88486057692307,-38.07889712187284L82.84082211538463,-36.119264635790216L85.79678365384616,24.425319781934377L88.75274519230769,299.3863079666245L91.70870673076922,42.76144105187939L94.66466826923076,236.51654202142024L97.62062980769231,140.4207569361315L100.57659134615385,181.22555778000523L103.53255288461538,-78.2304194678481L106.48851442307692,85.55131800263638L109.44447596153846,-74.94819238455966L112.40043750000001,158.5387126915515L115.35639903846155,247.2277311902726L118.31236057692308,21.382980027737517L121.26832211538462,117.47812225558579L124.22428365384616,156.34237332897746L127.18024519230768,145.34223665794707L130.13620673076923,2.0167981305903027L133.09216826923077,331.1045895666556L136.0481298076923,221.25913270296027L139.00409134615387,191.08134053784306L141.96005288461538,216.34499508980662L144.91601442307692,347.802913085965L147.87197596153845,32.8769327168344L150.8279375,166.17768615252749L153.78389903846156,331.59404092104745L156.73986057692306,272.08398329800605L159.69582211538463,146.89365466934842L162.65178365384614,251.59882343926267L165.6077451923077,313.1055286031154L168.56370673076924,158.55603600784136L171.51966826923078,283.40524417783865L174.47562980769231,303.64635505142866L177.43159134615385,46.429653276250576L180.3875528846154,-126.5186899413149L183.34351442307693,341.65946287367393L186.29947596153846,215.73292713730078L189.2554375,30.472645889578132L192.21139903846154,91.03245587826058L195.16736057692307,234.92469166047522L198.1233221153846,178.08398113776525L201.07928365384615,317.31103430928823L204.0352451923077,281.3439048777576L206.99120673076922,291.7589397741786L209.9471682692308,159.4642243981764L212.9031298076923,277.7485047171671L215.85909134615383,263.93925020441213L218.8150528846154,155.82348587073366L221.7710144230769,-21.58601730668812L224.72697596153847,194.95245887117926L227.68293749999998,247.7151524685368L230.63889903846155,362.4617544581684L233.59486057692308,154.6602522495534L236.55082211538462,267.09696595186745L239.50678365384616,283.4173569654007L242.4627451923077,319.8447046550842L245.41870673076923,335.6404563280118L248.37466826923077,55.353867933682466L251.33062980769233,284.11786856787063L254.2865913461538,184.5380329975966L257.24255288461535,219.04316927115164L260.1985144230769,301.10229748277925L263.1544759615385,218.0406500100821L266.11043750000005,357.93603807745075L269.0663990384615,273.5797433889059L272.02236057692306,271.34263333076694L274.97832211538463,169.1052251017021L277.9342836538462,248.96276958742573L280.8902451923077,338.8351871301957L283.8462067307692,206.92192305859106L286.8021682692308,189.52890748837783L289.7581298076923,268.9635532820964L292.71409134615385,110.80296127084426L295.6700528846154,-3.6182195155147383L298.6260144230769,265.68105552199097L301.58197596153843,227.27025578632646L304.5379375,228.8411625285539L307.49389903846156,155.72989936124603L310.44986057692313,39.58119145940651L313.4058221153846,351.24889964355566L316.36178365384615,215.1876148547946L319.3177451923077,319.34767434981546L322.2737067307692,355.85581906938194L325.2296682692308,365.7569063594699L328.1856298076923,209.1707060544644L331.14159134615386,389.1207987538174L334.09755288461537,352.0522007672922L337.05351442307693,314.36955550403667L340.00947596153844,211.23207918914758L342.9654375,248.31206251928904L345.9213990384615,266.4471724179882L348.8773605769231,201.54655214922073L351.83332211538465,219.25382350400412L354.78928365384616,157.86983644207177L357.74524519230766,325.75002693759427L360.70120673076923,180.17215127733428L363.6571682692308,191.92679957583178L366.6131298076923,327.6196593820149L369.5690913461538,142.01213361264672L372.5250528846154,-2.09863986471629L375.48101442307694,191.3901151168684L378.43697596153845,259.813661828467L381.3929375,380.01365731997737L384.3488990384615,107.81523056448293L387.3048605769231,110.87306656645467L390.2608221153846,316.8401243168628L393.21678365384616,337.5679121074701L396.17274519230773,181.61912187196478L399.1287067307692,335.6620428041698L402.08466826923075,258.1292061614961L405.0406298076923,395.58603294965224L407.9965913461539,331.1245181473093L410.9525528846154,68.15349791892089L413.9085144230769,166.89514889066388L416.86447596153846,333.18964692282873L419.8204375,357.8952335472837L422.77639903846153,310.4214972854601L425.7323605769231,251.1234472793563L428.6883221153846,368.822998004361L431.6442836538461,97.92199290208879L434.6002451923077,47.09924005237497L437.55620673076925,259.99968447096984L440.5121682692308,272.2295735909653L443.46812980769226,273.77094272553444L446.42409134615383,302.30166645903284L449.3800528846154,303.15517813232816L452.33601442307696,252.2161357550985L455.29197596153847,283.5873081718925L458.2479375,223.1434831993068L461.20389903846154,343.2116590809243L464.15986057692305,304.1949154557392L467.1158221153846,366.7323241042345L470.0717836538462,343.32848996207423L473.0277451923077,191.5035625378055L475.9837067307692,282.6138528340514L478.93966826923076,142.79858510452323L481.8956298076923,307.1342626810566L484.85159134615384,404.7495935825416L487.80755288461535,67.18095611533721L490.7635144230769,175.21846101429233L493.7194759615385,339.21819482629115L496.6754375,296.4997088860255L499.63139903846155,288.69315264070667L502.5873605769231,-75.72530552624875L505.5433221153847,150.50059242926474L508.4992836538461,327.7298586811476L511.45524519230764,202.1480975404646L514.4112067307692,313.77589357508873L517.3671682692308,226.20541318813608L520.3231298076923,313.67797623652865L523.2790913461539,232.6308071399645L526.2350528846154,207.830855810173L529.1910144230769,327.4886179679709L532.1469759615385,335.2295689197624L535.1029375,405.65991355281085L538.0588990384615,282.4772287106562L541.0148605769231,289.9701043596411L543.9708221153846,348.75028194556495L546.9267836538461,150.27833292788216L549.8827451923077,231.8501751996541L552.8387067307692,334.7868431509101L555.7946682692308,224.2421265650236L558.7506298076923,246.18508409107855L561.7065913461539,156.07277921921698L564.6625528846155,205.55980964609907L567.6185144230769,305.9807395906873L570.5744759615384,135.50817571467576L573.5304375,321.47526180086425L576.4863990384615,365.3980565692943L579.4423605769231,254.808915150813L582.3983221153846,297.20035582690394L585.3542836538462,183.47508513712538L588.3102451923078,315.52544701655506L591.2662067307692,242.522556079865L594.2221682692308,232.2396791393582L597.1781298076922,29.930480225069914L600.1340913461538,223.02326885794398L603.0900528846154,250.6774057194953L606.0460144230769,337.46427672115027L609.0019759615385,197.7247985003901L611.9579375,204.23095564749943L614.9138990384615,270.0761026692881L617.8698605769231,301.66192180198584L620.8258221153847,185.58480791825033L623.7817836538461,261.3694445035429L626.7377451923077,159.1033445318731L629.6937067307692,81.56377480337574L632.6496682692308,-44.436283523422844L635.6056298076923,213.7480878726324L638.5615913461538,261.6739897573022L641.5175528846154,399.4377978905709L644.473514423077,231.1049342531702L647.4294759615385,322.9091045698688L650.3854375000001,345.8230813424116L653.3413990384615,332.08352611004153L656.297360576923,361.5658480284059L659.2533221153845,377.3011034327277L662.2092836538461,297.5850552531058L665.1652451923077,274.2232775213913L668.1212067307692,276.72013582007133L671.0771682692308,294.7169298652689L674.0331298076924,305.2386452622013L676.9890913461538,373.75642134072797L679.9450528846154,370.98732983332144L682.9010144230768,55.74871774052286L685.8569759615384,388.8227328263658L688.8129375,225.13603675326047L691.7688990384615,154.33794382967665L694.7248605769231,131.7628544320536L697.6808221153847,360.33047903548754L700.6367836538461,376.5737271561677L703.5927451923077,178.2440526404355L706.5487067307693,-21.723724137351383L709.3568701923077,279.28209189324673L712.3128317307693,107.70692600306938L715.2687932692309,378.873295889836L721.1807163461538,399.0653127557374L724.1366778846153,328.33834016582784L727.0926394230769,378.9163673383457L730.0486009615385,137.45505255575586L733.0045625,372.9244284743864L735.886625,172.99386975894092L738.8425865384615,241.87993548163706L741.7985480769231,355.39377374271413L744.7545096153847,284.3970717046356L747.7104711538461,308.0575413039411L750.5925336538461,346.5993824536496L753.5484951923077,362.63133348403676L756.5044567307692,434.9340511642782L759.3865192307692,237.98097127074905L762.2685817307693,318.8400538140805L765.2245432692307,213.02226798777028L768.1805048076923,261.6276701869882L770.9886682692307,411.46363052512885L773.9446298076923,398.49415083720504L776.9005913461539,319.23862542715506L779.8565528846154,255.42666731647648L782.812514423077,254.80397529890223L785.694576923077,377.73743446177775L788.6505384615385,357.9507222947745L791.458701923077,270.6039901316981L794.4146634615385,320.9417239598988L797.370625,340.78219930968436L800.3265865384615,335.12884330922566L803.282548076923,252.12968834665998L806.2385096153846,218.33663510950282L809.1205721153846,115.16518885407669L812.0765336538461,260.78708333170596L815.0324951923077,295.1185804271372L817.9884567307693,45.68157022318786L820.9444182692308,269.88771160463625L823.9003798076924,120.89819150794602L826.8563413461538,327.01337714647303L829.7384038461538,411.72051974179004L832.6204663461538,342.0731585539L835.5764278846153,324.7440903817097L838.4584903846154,369.77114505980995L841.3405528846154,137.14966143694338L844.2965144230769,362.5972282050912L847.2524759615385,261.6068619066791L850.1345384615385,141.2147873788848L853.0905,301.7304368712962L856.0464615384616,326.6082416205855L859.0024230769232,284.4148687053552L861.9583846153846,133.98473891923473L864.914346153846,353.8018557125649L867.7964086538461,256.8477882750807L870.7523701923077,364.730601373104L873.7083317307691,197.78833988318758L876.6642932692307,350.1260645373169L879.6202548076923,294.476162836522L882.5023173076924,173.95030629191135L885.4582788461538,274.9498417675003L888.3403413461539,243.59342123723428L891.2963028846154,347.6802288186468L894.252264423077,254.52575336559897L897.2082259615385,279.19980614087007" style="fill: none;" fill="none"></path></g></g></g></g></g></g><g transform="translate(68, 377)" clip-path="url(#clip_1)"><clipPath id="clip_1"><rect width="960" height="22"></rect></clipPath><g><g><line x1="0" y1="0" x2="0" y2="5" style="visibility: inherit;" fill="rgb(0, 0, 0)" stroke="rgb(204, 204, 204)" stroke-width="1px"></line><line x1="73.89903846153847" y1="0" x2="73.89903846153847" y2="5" style="visibility: inherit;" fill="rgb(0, 0, 0)" stroke="rgb(204, 204, 204)" stroke-width="1px"></line><line x1="147.79807692307693" y1="0" x2="147.79807692307693" y2="5" style="visibility: inherit;" fill="rgb(0, 0, 0)" stroke="rgb(204, 204, 204)" stroke-width="1px"></line><line x1="221.6971153846154" y1="0" x2="221.6971153846154" y2="5" style="visibility: inherit;" fill="rgb(0, 0, 0)" stroke="rgb(204, 204, 204)" stroke-width="1px"></line><line x1="295.59615384615387" y1="0" x2="295.59615384615387" y2="5" style="visibility: inherit;" fill="rgb(0, 0, 0)" stroke="rgb(204, 204, 204)" stroke-width="1px"></line><line x1="369.4951923076923" y1="0" x2="369.4951923076923" y2="5" style="visibility: inherit;" fill="rgb(0, 0, 0)" stroke="rgb(204, 204, 204)" stroke-width="1px"></line><line x1="443.3942307692308" y1="0" x2="443.3942307692308" y2="5" style="visibility: inherit;" fill="rgb(0, 0, 0)" stroke="rgb(204, 204, 204)" stroke-width="1px"></line><line x1="517.2932692307692" y1="0" x2="517.2932692307692" y2="5" style="visibility: inherit;" fill="rgb(0, 0, 0)" stroke="rgb(204, 204, 204)" stroke-width="1px"></line><line x1="591.1923076923077" y1="0" x2="591.1923076923077" y2="5" style="visibility: inherit;" fill="rgb(0, 0, 0)" stroke="rgb(204, 204, 204)" stroke-width="1px"></line><line x1="665.0913461538462" y1="0" x2="665.0913461538462" y2="5" style="visibility: inherit;" fill="rgb(0, 0, 0)" stroke="rgb(204, 204, 204)" stroke-width="1px"></line><line x1="738.9903846153846" y1="0" x2="738.9903846153846" y2="5" style="visibility: inherit;" fill="rgb(0, 0, 0)" stroke="rgb(204, 204, 204)" stroke-width="1px"></line><line x1="812.8894230769231" y1="0" x2="812.8894230769231" y2="5" style="visibility: inherit;" fill="rgb(0, 0, 0)" stroke="rgb(204, 204, 204)" stroke-width="1px"></line><line x1="886.7884615384615" y1="0" x2="886.7884615384615" y2="5" style="visibility: inherit;" fill="rgb(0, 0, 0)" stroke="rgb(204, 204, 204)" stroke-width="1px"></line><line x1="960.6875" y1="0" x2="960.6875" y2="5" style="visibility: inherit;" fill="rgb(0, 0, 0)" stroke="rgb(204, 204, 204)" stroke-width="1px"></line></g><g transform="translate(0, 8)"><text x="0" y="0" dx="0em" dy="0.95em" style="text-anchor: middle; visibility: hidden; font-family: &quot;Helvetica Neue&quot;, sans-serif; font-size: 12px; font-weight: 200;" fill="rgb(50, 49, 63)" stroke="none" stroke-width="1px">-1k</text><text x="73.89903846153847" y="0" dx="0em" dy="0.95em" style="text-anchor: middle; visibility: inherit; font-family: &quot;Helvetica Neue&quot;, sans-serif; font-size: 12px; font-weight: 200;" fill="rgb(50, 49, 63)" stroke="none" stroke-width="1px">0</text><text x="147.79807692307693" y="0" dx="0em" dy="0.95em" style="text-anchor: middle; visibility: inherit; font-family: &quot;Helvetica Neue&quot;, sans-serif; font-size: 12px; font-weight: 200;" fill="rgb(50, 49, 63)" stroke="none" stroke-width="1px">1k</text><text x="221.6971153846154" y="0" dx="0em" dy="0.95em" style="text-anchor: middle; visibility: inherit; font-family: &quot;Helvetica Neue&quot;, sans-serif; font-size: 12px; font-weight: 200;" fill="rgb(50, 49, 63)" stroke="none" stroke-width="1px">2k</text><text x="295.59615384615387" y="0" dx="0em" dy="0.95em" style="text-anchor: middle; visibility: inherit; font-family: &quot;Helvetica Neue&quot;, sans-serif; font-size: 12px; font-weight: 200;" fill="rgb(50, 49, 63)" stroke="none" stroke-width="1px">3k</text><text x="369.4951923076923" y="0" dx="0em" dy="0.95em" style="text-anchor: middle; visibility: inherit; font-family: &quot;Helvetica Neue&quot;, sans-serif; font-size: 12px; font-weight: 200;" fill="rgb(50, 49, 63)" stroke="none" stroke-width="1px">4k</text><text x="443.3942307692308" y="0" dx="0em" dy="0.95em" style="text-anchor: middle; visibility: inherit; font-family: &quot;Helvetica Neue&quot;, sans-serif; font-size: 12px; font-weight: 200;" fill="rgb(50, 49, 63)" stroke="none" stroke-width="1px">5k</text><text x="517.2932692307692" y="0" dx="0em" dy="0.95em" style="text-anchor: middle; visibility: inherit; font-family: &quot;Helvetica Neue&quot;, sans-serif; font-size: 12px; font-weight: 200;" fill="rgb(50, 49, 63)" stroke="none" stroke-width="1px">6k</text><text x="591.1923076923077" y="0" dx="0em" dy="0.95em" style="text-anchor: middle; visibility: inherit; font-family: &quot;Helvetica Neue&quot;, sans-serif; font-size: 12px; font-weight: 200;" fill="rgb(50, 49, 63)" stroke="none" stroke-width="1px">7k</text><text x="665.0913461538462" y="0" dx="0em" dy="0.95em" style="text-anchor: middle; visibility: inherit; font-family: &quot;Helvetica Neue&quot;, sans-serif; font-size: 12px; font-weight: 200;" fill="rgb(50, 49, 63)" stroke="none" stroke-width="1px">8k</text><text x="738.9903846153846" y="0" dx="0em" dy="0.95em" style="text-anchor: middle; visibility: inherit; font-family: &quot;Helvetica Neue&quot;, sans-serif; font-size: 12px; font-weight: 200;" fill="rgb(50, 49, 63)" stroke="none" stroke-width="1px">9k</text><text x="812.8894230769231" y="0" dx="0em" dy="0.95em" style="text-anchor: middle; visibility: inherit; font-family: &quot;Helvetica Neue&quot;, sans-serif; font-size: 12px; font-weight: 200;" fill="rgb(50, 49, 63)" stroke="none" stroke-width="1px">10k</text><text x="886.7884615384615" y="0" dx="0em" dy="0.95em" style="text-anchor: middle; visibility: inherit; font-family: &quot;Helvetica Neue&quot;, sans-serif; font-size: 12px; font-weight: 200;" fill="rgb(50, 49, 63)" stroke="none" stroke-width="1px">11k</text><text x="960.6875" y="0" dx="0em" dy="0.95em" style="text-anchor: middle; visibility: hidden; font-family: &quot;Helvetica Neue&quot;, sans-serif; font-size: 12px; font-weight: 200;" fill="rgb(50, 49, 63)" stroke="none" stroke-width="1px">12k</text></g><line x1="0" y1="0" x2="960.6875" y2="0" fill="rgb(0, 0, 0)" stroke="rgb(204, 204, 204)" stroke-width="1px"></line></g></g></g></g></svg>