<svg viewBox="0 0 1029 400" xmlns="http://www.w3.org/2000/svg"><g><g><g><g><g><line x1="68.3125" y1="377.828125" x2="63.3125" y2="377.828125" style="visibility: inherit;" fill="rgb(0, 0, 0)" stroke="rgb(204, 204, 204)" stroke-width="1px"></line><line x1="68.3125" y1="348.7644230769231" x2="63.3125" y2="348.7644230769231" style="visibility: inherit;" fill="rgb(0, 0, 0)" stroke="rgb(204, 204, 204)" stroke-width="1px"></line><line x1="68.3125" y1="319.70072115384613" x2="63.3125" y2="319.70072115384613" style="visibility: inherit;" fill="rgb(0, 0, 0)" stroke="rgb(204, 204, 204)" stroke-width="1px"></line><line x1="68.3125" y1="290.6370192307692" x2="63.3125" y2="290.6370192307692" style="visibility: inherit;" fill="rgb(0, 0, 0)" stroke="rgb(204, 204, 204)" stroke-width="1px"></line><line x1="68.3125" y1="261.5733173076923" x2="63.3125" y2="261.5733173076923" style="visibility: inherit;" fill="rgb(0, 0, 0)" stroke="rgb(204, 204, 204)" stroke-width="1px"></line><line x1="68.3125" y1="232.5096153846154" x2="63.3125" y2="232.5096153846154" style="visibility: inherit;" fill="rgb(0, 0, 0)" stroke="rgb(204, 204, 204)" stroke-width="1px"></line><line x1="68.3125" y1="203.44591346153842" x2="63.3125" y2="203.44591346153842" style="visibility: inherit;" fill="rgb(0, 0, 0)" stroke="rgb(204, 204, 204)" stroke-width="1px"></line><line x1="68.3125" y1="174.38221153846155" x2="63.3125" y2="174.38221153846155" style="visibility: inherit;" fill="rgb(0, 0, 0)" stroke="rgb(204, 204, 204)" stroke-width="1px"></line><line x1="68.3125" y1="145.3185096153846" x2="63.3125" y2="145.3185096153846" style="visibility: inherit;" fill="rgb(0, 0, 0)" stroke="rgb(204, 204, 204)" stroke-width="1px"></line><line x1="68.3125" y1="116.25480769230768" x2="63.3125" y2="116.25480769230768" style="visibility: inherit;" fill="rgb(0, 0, 0)" stroke="rgb(204, 204, 204)" stroke-width="1px"></line><line x1="68.3125" y1="87.19110576923077" x2="63.3125" y2="87.19110576923077" style="visibility: inherit;" fill="rgb(0, 0, 0)" stroke="rgb(204, 204, 204)" stroke-width="1px"></line><line x1="68.3125" y1="58.12740384615381" x2="63.3125" y2="58.12740384615381" style="visibility: inherit;" fill="rgb(0, 0, 0)" stroke="rgb(204, 204, 204)" stroke-width="1px"></line><line x1="68.3125" y1="29.06370192307685" x2="63.3125" y2="29.06370192307685" style="visibility: inherit;" fill="rgb(0, 0, 0)" stroke="rgb(204, 204, 204)" stroke-width="1px"></line></g><g transform="translate(58.3125, 0)"><text x="0" y="377.828125" dx="0em" dy="0.3em" style="text-anchor: end; visibility: hidden; font-family: &quot;Helvetica Neue&quot;, sans-serif; font-size: 12px; font-weight: 200;" fill="rgb(50, 49, 63)" stroke="none" stroke-width="1px">-2e-4</text><text x="0" y="348.7644230769231" dx="0em" dy="0.3em" style="text-anchor: end; visibility: inherit; font-family: &quot;Helvetica Neue&quot;, sans-serif; font-size: 12px; font-weight: 200;" fill="rgb(50, 49, 63)" stroke="none" stroke-width="1px">0</text><text x="0" y="319.70072115384613" dx="0em" dy="0.3em" style="text-anchor: end; visibility: inherit; font-family: &quot;Helvetica Neue&quot;, sans-serif; font-size: 12px; font-weight: 200;" fill="rgb(50, 49, 63)" stroke="none" stroke-width="1px">2e-4</text><text x="0" y="290.6370192307692" dx="0em" dy="0.3em" style="text-anchor: end; visibility: inherit; font-family: &quot;Helvetica Neue&quot;, sans-serif; font-size: 12px; font-weight: 200;" fill="rgb(50, 49, 63)" stroke="none" stroke-width="1px">4e-4</text><text x="0" y="261.5733173076923" dx="0em" dy="0.3em" style="text-anchor: end; visibility: inherit; font-family: &quot;Helvetica Neue&quot;, sans-serif; font-size: 12px; font-weight: 200;" fill="rgb(50, 49, 63)" stroke="none" stroke-width="1px">6e-4</text><text x="0" y="232.5096153846154" dx="0em" dy="0.3em" style="text-anchor: end; visibility: inherit; font-family: &quot;Helvetica Neue&quot;, sans-serif; font-size: 12px; font-weight: 200;" fill="rgb(50, 49, 63)" stroke="none" stroke-width="1px">8e-4</text><text x="0" y="203.44591346153842" dx="0em" dy="0.3em" style="text-anchor: end; visibility: inherit; font-family: &quot;Helvetica Neue&quot;, sans-serif; font-size: 12px; font-weight: 200;" fill="rgb(50, 49, 63)" stroke="none" stroke-width="1px">1e-3</text><text x="0" y="174.38221153846155" dx="0em" dy="0.3em" style="text-anchor: end; visibility: inherit; font-family: &quot;Helvetica Neue&quot;, sans-serif; font-size: 12px; font-weight: 200;" fill="rgb(50, 49, 63)" stroke="none" stroke-width="1px">1.2e-3</text><text x="0" y="145.3185096153846" dx="0em" dy="0.3em" style="text-anchor: end; visibility: inherit; font-family: &quot;Helvetica Neue&quot;, sans-serif; font-size: 12px; font-weight: 200;" fill="rgb(50, 49, 63)" stroke="none" stroke-width="1px">1.4e-3</text><text x="0" y="116.25480769230768" dx="0em" dy="0.3em" style="text-anchor: end; visibility: inherit; font-family: &quot;Helvetica Neue&quot;, sans-serif; font-size: 12px; font-weight: 200;" fill="rgb(50, 49, 63)" stroke="none" stroke-width="1px">1.6e-3</text><text x="0" y="87.19110576923077" dx="0em" dy="0.3em" style="text-anchor: end; visibility: inherit; font-family: &quot;Helvetica Neue&quot;, sans-serif; font-size: 12px; font-weight: 200;" fill="rgb(50, 49, 63)" stroke="none" stroke-width="1px">1.8e-3</text><text x="0" y="58.12740384615381" dx="0em" dy="0.3em" style="text-anchor: end; visibility: inherit; font-family: &quot;Helvetica Neue&quot;, sans-serif; font-size: 12px; font-weight: 200;" fill="rgb(50, 49, 63)" stroke="none" stroke-width="1px">2e-3</text><text x="0" y="29.06370192307685" dx="0em" dy="0.3em" style="text-anchor: end; visibility: inherit; font-family: &quot;Helvetica Neue&quot;, sans-serif; font-size: 12px; font-weight: 200;" fill="rgb(50, 49, 63)" stroke="none" stroke-width="1px">2.2e-3</text></g><line x1="68.3125" y1="0" x2="68.3125" y2="377.828125" fill="rgb(0, 0, 0)" stroke="rgb(204, 204, 204)" stroke-width="1px"></line></g></g><g transform="translate(68, 0)" clip-path="url(#clip_0)"><clipPath id="clip_0"><rect width="960" height="377"></rect></clipPath><g><g><g><line x1="0" y1="0" x2="0" y2="377.828125" fill="rgb(0, 0, 0)" stroke="rgb(60, 60, 60)" stroke-width="1px" opacity="0.25"></line><line x1="73.89903846153847" y1="0" x2="73.89903846153847" y2="377.828125" fill="rgb(0, 0, 0)" stroke="rgb(60, 60, 60)" stroke-width="1px" opacity="0.25"></line><line x1="147.79807692307693" y1="0" x2="147.79807692307693" y2="377.828125" fill="rgb(0, 0, 0)" stroke="rgb(60, 60, 60)" stroke-width="1px" opacity="0.25"></line><line x1="221.6971153846154" y1="0" x2="221.6971153846154" y2="377.828125" fill="rgb(0, 0, 0)" stroke="rgb(60, 60, 60)" stroke-width="1px" opacity="0.25"></line><line x1="295.59615384615387" y1="0" x2="295.59615384615387" y2="377.828125" fill="rgb(0, 0, 0)" stroke="rgb(60, 60, 60)" stroke-width="1px" opacity="0.25"></line><line x1="369.4951923076923" y1="0" x2="369.4951923076923" y2="377.828125" fill="rgb(0, 0, 0)" stroke="rgb(60, 60, 60)" stroke-width="1px" opacity="0.25"></line><line x1="443.3942307692308" y1="0" x2="443.3942307692308" y2="377.828125" fill="rgb(0, 0, 0)" stroke="rgb(60, 60, 60)" stroke-width="1px" opacity="0.25"></line><line x1="517.2932692307692" y1="0" x2="517.2932692307692" y2="377.828125" fill="rgb(0, 0, 0)" stroke="rgb(60, 60, 60)" stroke-width="1px" opacity="0.25"></line><line x1="591.1923076923077" y1="0" x2="591.1923076923077" y2="377.828125" fill="rgb(0, 0, 0)" stroke="rgb(60, 60, 60)" stroke-width="1px" opacity="0.25"></line><line x1="665.0913461538462" y1="0" x2="665.0913461538462" y2="377.828125" fill="rgb(0, 0, 0)" stroke="rgb(60, 60, 60)" stroke-width="1px" opacity="0.25"></line><line x1="738.9903846153846" y1="0" x2="738.9903846153846" y2="377.828125" fill="rgb(0, 0, 0)" stroke="rgb(60, 60, 60)" stroke-width="1px" opacity="0.25"></line><line x1="812.8894230769231" y1="0" x2="812.8894230769231" y2="377.828125" fill="rgb(0, 0, 0)" stroke="rgb(60, 60, 60)" stroke-width="1px" opacity="0.25"></line><line x1="886.7884615384615" y1="0" x2="886.7884615384615" y2="377.828125" fill="rgb(0, 0, 0)" stroke="rgb(60, 60, 60)" stroke-width="1px" opacity="0.25"></line><line x1="960.6875" y1="0" x2="960.6875" y2="377.828125" fill="rgb(0, 0, 0)" stroke="rgb(60, 60, 60)" stroke-width="1px" opacity="0.25"></line></g><g><line x1="0" y1="377.828125" x2="960.6875" y2="377.828125" fill="rgb(0, 0, 0)" stroke="rgb(60, 60, 60)" stroke-width="1px" opacity="0.25"></line><line x1="0" y1="348.7644230769231" x2="960.6875" y2="348.7644230769231" fill="rgb(0, 0, 0)" stroke="rgb(60, 60, 60)" stroke-width="1px" opacity="0.25"></line><line x1="0" y1="319.70072115384613" x2="960.6875" y2="319.70072115384613" fill="rgb(0, 0, 0)" stroke="rgb(60, 60, 60)" stroke-width="1px" opacity="0.25"></line><line x1="0" y1="290.6370192307692" x2="960.6875" y2="290.6370192307692" fill="rgb(0, 0, 0)" stroke="rgb(60, 60, 60)" stroke-width="1px" opacity="0.25"></line><line x1="0" y1="261.5733173076923" x2="960.6875" y2="261.5733173076923" fill="rgb(0, 0, 0)" stroke="rgb(60, 60, 60)" stroke-width="1px" opacity="0.25"></line><line x1="0" y1="232.5096153846154" x2="960.6875" y2="232.5096153846154" fill="rgb(0, 0, 0)" stroke="rgb(60, 60, 60)" stroke-width="1px" opacity="0.25"></line><line x1="0" y1="203.44591346153842" x2="960.6875" y2="203.44591346153842" fill="rgb(0, 0, 0)" stroke="rgb(60, 60, 60)" stroke-width="1px" opacity="0.25"></line><line x1="0" y1="174.38221153846155" x2="960.6875" y2="174.38221153846155" fill="rgb(0, 0, 0)" stroke="rgb(60, 60, 60)" stroke-width="1px" opacity="0.25"></line><line x1="0" y1="145.3185096153846" x2="960.6875" y2="145.3185096153846" fill="rgb(0, 0, 0)" stroke="rgb(60, 60, 60)" stroke-width="1px" opacity="0.25"></line><line x1="0" y1="116.25480769230768" x2="960.6875" y2="116.25480769230768" fill="rgb(0, 0, 0)" stroke="rgb(60, 60, 60)" stroke-width="1px" opacity="0.25"></line><line x1="0" y1="87.19110576923077" x2="960.6875" y2="87.19110576923077" fill="rgb(0, 0, 0)" stroke="rgb(60, 60, 60)" stroke-width="1px" opacity="0.25"></line><line x1="0" y1="58.12740384615381" x2="960.6875" y2="58.12740384615381" fill="rgb(0, 0, 0)" stroke="rgb(60, 60, 60)" stroke-width="1px" opacity="0.25"></line><line x1="0" y1="29.06370192307685" x2="960.6875" y2="29.06370192307685" fill="rgb(0, 0, 0)" stroke="rgb(60, 60, 60)" stroke-width="1px" opacity="0.25"></line></g></g></g><g><g><line x1="0" y1="348.7644230769231" x2="960.6875" y2="348.7644230769231" fill="rgb(0, 0, 0)" stroke="rgb(153, 153, 153)" stroke-width="1.5px"></line></g></g><g><g><line x1="73.89903846153847" y1="0" x2="73.89903846153847" y2="377.828125" fill="rgb(0, 0, 0)" stroke="rgb(153, 153, 153)" stroke-width="1.5px"></line></g></g><g><g><g><g><g><path stroke="rgb(255, 112, 67)" stroke-width="2px" d="M97.62062980769231,-0.6846839159561569L100.57659134615385,30.231669467115807L103.53255288461538,19.473846820668655L106.48851442307692,27.26717823627706L109.44447596153846,22.171716670243143L112.40043750000001,45.09748915634833L115.35639903846155,60.41311338147739L118.31236057692308,71.54634157281617L121.26832211538462,78.70553126186115L124.22428365384616,85.83833354290516L127.18024519230768,94.26368202777849L130.13620673076923,96.40891996925654L133.09216826923077,107.79898621527275L136.0481298076923,108.73290039939099L139.00409134615387,119.92183997839908L141.96005288461538,123.46402916322961L144.91601442307692,132.76515713234306L147.87197596153845,137.9081337852867L150.8279375,140.69522509941126L153.78389903846156,152.83136221808522L156.73986057692306,156.60873963196758L159.69582211538463,145.7554142343659L162.65178365384614,152.61010184776364L165.6077451923077,159.64718064096786L168.56370673076924,169.93672345577704L171.51966826923078,175.3943585448172L174.47562980769231,174.15396708609092L177.43159134615385,162.64698469159714L180.3875528846154,155.1482531677533L183.34351442307693,164.42375085011423L186.29947596153846,162.23990081829155L189.2554375,161.9319765698299L192.21139903846154,160.15593228105962L195.16736057692307,155.59642259805372L198.1233221153846,154.25208516803693L201.07928365384615,159.1302533811568L204.0352451923077,163.8797735853854L206.99120673076922,171.84564216762007L209.9471682692308,173.2564033852181L212.9031298076923,176.8323574399214L215.85909134615383,176.24925376619396L218.8150528846154,175.70070144455968L221.7710144230769,168.00421638394462L224.72697596153847,173.77540788778006L227.68293749999998,172.02286033360355L230.63889903846155,181.62780810953203L233.59486057692308,173.31375133950056L236.55082211538462,178.5912251519335L239.50678365384616,184.64483147713588L242.4627451923077,185.469343671946L245.41870673076923,189.78072356298875L248.37466826923077,187.0099305160337L251.33062980769233,186.61448069532432L254.2865913461538,183.7954484844535L257.24255288461535,176.28096458383507L260.1985144230769,181.27007542958754L263.1544759615385,177.1160179830321L266.11043750000005,187.02513973929112L269.0663990384615,195.32931696682402L272.02236057692306,193.40051202843722L274.97832211538463,181.70440104252464L277.9342836538462,178.15733661244894L280.8902451923077,183.49242904760987L283.8462067307692,183.3101524766817L286.8021682692308,183.55119054859168L289.7581298076923,185.40184351237244L292.71409134615385,189.50477853307962L295.6700528846154,186.63338238908688L298.6260144230769,181.1342316565145L301.58197596153843,174.3929359504842L304.5379375,179.79731112747854L307.49389903846156,184.2505182533485L310.44986057692313,185.53623574795955L313.4058221153846,189.7383000922815L316.36178365384615,191.05291354734618L319.3177451923077,191.34611365506413L322.2737067307692,196.28221889000048L325.2296682692308,202.88036073998455L328.1856298076923,207.08212495306344L331.14159134615386,211.07574801368165L334.09755288461537,211.57235481497568L337.05351442307693,209.55399611643833L340.00947596153844,211.62480819614387L342.9654375,210.2599287665986L345.9213990384615,205.4842020280082L348.8773605769231,204.08390495669235L351.83332211538465,201.82185094639215L354.78928365384616,204.4672595290404L357.74524519230766,206.13563662326507L360.70120673076923,209.55854951345643L363.6571682692308,206.62152578254813L366.6131298076923,209.78860435520474L369.5690913461538,204.0015731982684L372.5250528846154,184.42888691276238L375.48101442307694,183.60341864420255L378.43697596153845,184.84276045206883L381.3929375,191.50689667447168L384.3488990384615,190.1481301361769L387.3048605769231,196.1184970948467L390.2608221153846,196.68090530154416L393.21678365384616,203.1065418076359L396.17274519230773,198.41528096629048L399.1287067307692,200.07062119121503L402.08466826923075,204.19256948589043L405.0406298076923,209.92549834316515L407.9965913461539,211.92620222977325L410.9525528846154,205.0574550313586L413.9085144230769,210.57986223673686L416.86447596153846,213.05044216085426L419.8204375,213.76872705176748L422.77639903846153,217.786873244728L425.7323605769231,211.10882281020284L428.6883221153846,215.63347009994712L431.6442836538461,213.4878036031189L434.6002451923077,210.98321197236092L437.55620673076925,208.65001128053146L440.5121682692308,212.8123049506313L443.46812980769226,217.6822699405613L446.42409134615383,221.1934179513747L449.3800528846154,218.7434316420276L452.33601442307696,214.41565730281684L455.29197596153847,217.8126260839609L458.2479375,212.7220486898968L461.20389903846154,214.81194569571548L464.15986057692305,211.6130506598221L467.1158221153846,215.26293307187865L470.0717836538462,213.6907543409536L473.0277451923077,214.587898166693L475.9837067307692,218.95839518515413L478.93966826923076,221.64227907036812L481.8956298076923,220.06430261498875L484.85159134615384,221.2618968048377L487.80755288461535,216.700209171054L490.7635144230769,219.0485545545407L493.7194759615385,218.77565396746897L496.6754375,215.47253254959406L499.63139903846155,209.02128193372042L502.5873605769231,194.80788355832084L505.5433221153847,198.73300352921365L508.4992836538461,203.3528314036388L511.45524519230764,195.94407326266918L514.4112067307692,193.76299635038282L517.3671682692308,185.16394811330008L520.3231298076923,190.5462598798017L523.2790913461539,199.63290800551096L526.2350528846154,188.8747800608252L529.1910144230769,189.3109512130727L532.1469759615385,194.57440360225357L535.1029375,202.37171520258838L538.0588990384615,206.9982617274445L541.0148605769231,204.72864956672302L543.9708221153846,207.86096663584811L546.9267836538461,210.07100529651356L549.8827451923077,209.96916545628883L552.8387067307692,209.27358702172882L555.7946682692308,202.6118864167442L558.7506298076923,206.97441836173374L561.7065913461539,212.7337794392866L564.6625528846155,198.95557774153176L567.6185144230769,199.87902182336146L570.5744759615384,202.75009048719488L573.5304375,207.28438184436558L576.4863990384615,211.35113682409548L579.4423605769231,207.29756143196823L582.3983221153846,206.32892172508727L585.3542836538462,210.9604027482442L588.3102451923078,212.43116106774215L591.2662067307692,211.41466172468148L594.2221682692308,201.41280416107625L597.1781298076922,203.86689347710225L600.1340913461538,205.793993810729L603.0900528846154,204.34769279418714L606.0460144230769,212.7482537797128L609.0019759615385,213.0933471794516L611.9579375,208.41864971759355L614.9138990384615,214.6770835725626L617.8698605769231,218.93484626310357L620.8258221153847,218.43102103446012L623.7817836538461,221.32782512045515L626.7377451923077,218.55135080126783L629.6937067307692,203.94385506865692L632.6496682692308,164.506868611301L635.6056298076923,173.65622293099642L638.5615913461538,173.40697284562432L641.5175528846154,182.71433918273718L644.473514423077,178.10716667642345L647.4294759615385,182.80891616014404L650.3854375000001,192.79828725580805L653.3413990384615,197.4067232743524L656.297360576923,201.6946190005285L659.2533221153845,206.07275543937624L662.2092836538461,200.39532161384247L665.1652451923077,203.9689072542262L668.1212067307692,208.5858693657585L671.0771682692308,206.8515012190658L674.0331298076924,206.655186498297L676.9890913461538,212.20115834901506L679.9450528846154,214.5295242033487L682.9010144230768,211.7456540053805L685.8569759615384,217.07449537180477L688.8129375,214.30422606830047L691.7688990384615,209.59265094840848L694.7248605769231,213.31156001606874L697.6808221153847,217.5765883210775L700.6367836538461,220.33063547376716L703.5927451923077,213.84982575939287L706.5487067307693,201.20333984741393L709.3568701923077,201.75467252320414L712.3128317307693,200.27886031596285L715.2687932692309,205.05544091235475L718.2247548076923,212.9867099429276L721.1807163461538,217.4167656308156L724.1366778846153,218.77291519903522L727.0926394230769,223.69327739268027L730.0486009615385,214.1976500449941L733.0045625,216.9700791265376L735.886625,217.83169672941875L738.8425865384615,220.2784091864756L741.7985480769231,224.34891802435575L744.7545096153847,229.25334882096365L747.7104711538461,224.01082460715654L750.5925336538461,223.8358332040208L753.5484951923077,228.0087255093224L756.5044567307692,233.23547033304675L759.3865192307692,237.5844112422831L762.2685817307693,238.66165366468496L765.2245432692307,236.92396863033096L768.1805048076923,229.72086357542608L770.9886682692307,234.0823195126368L773.9446298076923,234.94704904276165L776.9005913461539,233.7142820239078L779.8565528846154,235.7589752977069L782.812514423077,226.2992112600986L785.694576923077,227.17032876819468L788.6505384615385,229.41667268813427L791.458701923077,229.51887248197377L794.4146634615385,231.84407304538797L797.370625,234.05752927330366L800.3265865384615,232.55380800576617L803.282548076923,230.31317241230664L806.2385096153846,222.54245549303545L809.1205721153846,220.89120274058982L812.0765336538461,221.89684051857986L815.0324951923077,225.27611879738055L817.9884567307693,227.8351554114517L820.9444182692308,229.42469138397587L823.9003798076924,230.19357864374535L826.8563413461538,229.52243684226488L829.7384038461538,234.49553121626928L832.6204663461538,231.28841914436788L835.5764278846153,229.09918123333105L838.4584903846154,230.33225102120488L841.3405528846154,231.83822474932776L844.2965144230769,231.40691260593368L847.2524759615385,233.32713676784982L850.1345384615385,219.97476208793788L853.0905,222.1470124070079L856.0464615384616,221.36576965633807L859.0024230769232,220.53817841992358L861.9583846153846,224.2053835443965L864.914346153846,225.78787877947968L867.7964086538461,223.09756776842792L870.7523701923077,225.84483072773156L873.7083317307691,229.87621892580543L876.6642932692307,234.48313950888175L879.6202548076923,230.13705548736857L882.5023173076924,227.1154937748042L885.4582788461538,226.75634258392984L888.3403413461539,231.6370658904554L891.2963028846154,232.3692963670031L894.252264423077,234.65459299634273" style="fill: none;" fill="none"></path></g></g></g></g><g opacity="0.20000000298023224"><g><g><g><path stroke="rgb(255, 112, 67)" stroke-width="2px" d="M73.9729375,-1322.5149671178526L76.92889903846154,140.22625699346375L79.88486057692307,43.07153344805607L82.84082211538463,-7.172004847818698L85.79678365384616,-2.557709478728441L88.75274519230769,200.1817302362268L91.70870673076922,52.08689852362238L94.66466826923076,179.11705131222527L97.62062980769231,124.51284182481598L100.57659134615385,199.05706806147307L103.53255288461538,-42.940051480424756L106.48851442307692,74.8684297461329L109.44447596153846,-10.352288274893738L112.40043750000001,197.09252955808185L115.35639903846155,165.350090052131L118.31236057692308,150.04409424501443L121.26832211538462,130.46350247417843L124.22428365384616,138.55093666906757L127.18024519230768,157.74337788428463L130.13620673076923,112.84973304237735L133.09216826923077,196.41541458298383L136.0481298076923,116.0964168761297L139.00409134615387,209.19109812856576L141.96005288461538,152.02313087541776L144.91601442307692,208.45937410563224L147.87197596153845,180.1118224494074L150.8279375,163.73628103440456L153.78389903846156,253.82612818910331L156.73986057692306,188.22914951527716L159.69582211538463,54.42300862758958L162.65178365384614,210.56517207291023L165.6077451923077,219.39492052119917L168.56370673076924,257.6282746860004L171.51966826923078,222.0632018315636L174.47562980769231,163.51525649599967L177.43159134615385,63.686313667553975L180.3875528846154,90.50282420150938L183.34351442307693,244.5596173205872L186.29947596153846,143.33585993669223L189.2554375,159.26185791051378L192.21139903846154,144.73121584577555L195.16736057692307,115.94230026343405L198.1233221153846,142.54570355588262L201.07928365384615,201.6567158814197L204.0352451923077,205.3264844974888L206.99120673076922,241.42273522939257L209.9471682692308,185.58856182675493L212.9031298076923,208.11430345717346L215.85909134615383,171.14501002789564L218.8150528846154,170.89608886003575L221.7710144230769,100.55741908145473L224.72697596153847,224.3741305328966L227.68293749999998,156.65094316805835L230.63889903846155,265.9066459993516L233.59486057692308,100.33693589668388L236.55082211538462,224.92857815797748L239.50678365384616,237.81143280580167L242.4627451923077,192.7125218914309L245.41870673076923,227.66375893540064L248.37466826923077,162.65880121231916L251.33062980769233,183.1384460309155L254.2865913461538,159.01195553919217L257.24255288461535,110.20792730817851L260.1985144230769,225.14380006211732L263.1544759615385,140.5814188120074L266.11043750000005,274.18416298899905L269.0663990384615,268.37835672999955L272.02236057692306,176.43203879110828L274.97832211538463,78.80122855914948L277.9342836538462,146.94790672152996L280.8902451923077,230.43697826426683L283.8462067307692,181.70617657090995L286.8021682692308,185.67235321892633L289.7581298076923,201.68852040742055L292.71409134615385,225.61410103170445L295.6700528846154,161.36175173972038L298.6260144230769,132.73375352510234L301.58197596153843,115.05808368870703L304.5379375,227.36621744428197L307.49389903846156,223.44822126969663L310.44986057692313,196.85352192864562L313.4058221153846,226.72687034380996L316.36178365384615,202.62496069053302L319.3177451923077,193.9270826040402L322.2737067307692,239.73413482366092L325.2296682692308,260.9636813051844L328.1856298076923,244.07058044007135L331.14159134615386,246.23226471141524L334.09755288461537,215.94410407415458L337.05351442307693,191.7857583045272L340.00947596153844,229.85493852115007L342.9654375,198.2443101664416L345.9213990384615,163.44119255194025L348.8773605769231,191.75635603527746L351.83332211538465,181.90771237848875L354.78928365384616,227.75638115872758L357.74524519230766,220.8234174230674L360.70120673076923,239.69272127065554L363.6571682692308,180.76488102239202L366.6131298076923,237.67065548499522L369.5690913461538,153.05408811957636L372.5250528846154,12.115782276196626L375.48101442307694,176.33618536327802L378.43697596153845,195.75366051725217L381.3929375,250.1766180410587L384.3488990384615,178.18580464053954L387.3048605769231,248.68055343873968L390.2608221153846,201.63225346408075L393.21678365384616,259.6768329651274L396.17274519230773,157.11412195389744L399.1287067307692,214.64400102871372L402.08466826923075,240.48164268848743L405.0406298076923,260.39745923856276L407.9965913461539,229.5401498415964L410.9525528846154,144.58582856042906L413.9085144230769,259.19849627753473L416.86447596153846,234.80115133712164L419.8204375,220.09242930273018L422.77639903846153,253.1622087088354L425.7323605769231,152.31595243953947L428.6883221153846,255.46801146794593L431.6442836538461,194.59756599712102L434.6002451923077,188.93302766065887L437.55620673076925,188.10873216630156L440.5121682692308,249.45675304617123L443.46812980769226,260.55699784624954L446.42409134615383,252.10524957294098L449.3800528846154,197.17396944540533L452.33601442307696,176.3143112930019L455.29197596153847,247.71924472306273L458.2479375,167.9050423626658L461.20389903846154,233.2112210898474L464.15986057692305,183.45024880683138L467.1158221153846,247.39619194193912L470.0717836538462,199.84942369142104L473.0277451923077,222.48627815522977L475.9837067307692,257.43589113829734L478.93966826923076,245.27097291303934L481.8956298076923,206.17192661817646L484.85159134615384,231.80541874735687L487.80755288461535,176.53948057016757L490.7635144230769,239.72319778852287L493.7194759615385,216.37305915994062L496.6754375,186.39211671000746L499.63139903846155,152.22498811171678L502.5873605769231,69.67426004846214L505.5433221153847,233.28944668996868L508.4992836538461,244.0254281635308L511.45524519230764,130.71795559948634L514.4112067307692,174.5609683760972L517.3671682692308,109.45860929213808L520.3231298076923,237.9317063577182L523.2790913461539,279.63103910064285L526.2350528846154,94.16107213555364L529.1910144230769,193.15096758311398L532.1469759615385,240.9134229635512L535.1029375,271.0186314484521L538.0588990384615,247.73001258519014L541.0148605769231,184.74716294102163L543.9708221153846,235.43763941371378L546.9267836538461,229.52801167808278L549.8827451923077,209.0725755173094L552.8387067307692,203.1497692041493L555.7946682692308,143.96279819683357L558.7506298076923,245.381806610962L561.7065913461539,263.4387416614431L564.6625528846155,77.65337276463663L567.6185144230769,208.00895096479562L570.5744759615384,228.02675346433702L573.5304375,247.20392681534352L576.4863990384615,247.1545282962358L579.4423605769231,171.61020197256133L582.3983221153846,197.8010937958584L585.3542836538462,251.7355980860358L588.3102451923078,225.37960186300185L591.2662067307692,202.46548129340002L594.2221682692308,113.35723515700482L597.1781298076922,225.4725032217964L600.1340913461538,222.76003392105204L603.0900528846154,191.6145721350577L606.0460144230769,286.7061335411946L609.0019759615385,216.13152239399528L611.9579375,167.26298003537295L614.9138990384615,269.775844219017L617.8698605769231,256.41985495367743L620.8258221153847,213.99538324725847L623.7817836538461,246.83106104123615L626.7377451923077,194.10748870258973L629.6937067307692,75.34060853613818L632.6496682692308,-182.69326654964914L635.6056298076923,254.2064206583779L638.5615913461538,171.21259464564744L641.5175528846154,264.6556623375509L644.473514423077,137.54598131664477L647.4294759615385,224.20274981446485L650.3854375000001,280.7439268338558L653.3413990384615,237.97903250744557L656.297360576923,239.44491664466588L659.2533221153845,244.61752524213023L662.2092836538461,150.41163952793707L665.1652451923077,235.43047493671304L668.1212067307692,249.2332416645099L671.0771682692308,191.5822600900249L674.0331298076924,204.92684709444717L676.9890913461538,261.0274595301968L679.9450528846154,235.0282745625602L682.9010144230768,187.23667913103975L685.8569759615384,263.98919680347285L688.8129375,189.91499240093532L691.7688990384615,168.1123131353054L694.7248605769231,246.0525437635588L697.6808221153847,255.12556300115216L700.6367836538461,244.57705059933394L703.5927451923077,156.79328533921327L706.5487067307693,89.86466977076242L709.3568701923077,206.60856215864564L712.3128317307693,187.2859253944379L715.2687932692309,247.1080818461638L718.2247548076923,282.8129804232222L721.1807163461538,256.41862844935025L724.1366778846153,230.71234963234073L727.0926394230769,267.0117602327255L730.0486009615385,130.5988916345959L733.0045625,241.3783273140988L735.886625,225.41731052707414L738.8425865384615,241.81907375872666L741.7985480769231,260.1853585764693L744.7545096153847,272.4315728919918L747.7104711538461,177.85605260819452L750.5925336538461,222.29522261566026L753.5484951923077,264.74654207886823L756.5044567307692,279.25132181960447L759.3865192307692,275.87214591324187L762.2685817307693,248.14561146178593L765.2245432692307,221.62552587707893L768.1805048076923,166.30529162212375L770.9886682692307,272.48023550850314L773.9446298076923,242.5600600039929L776.9005913461539,222.8610978776101L779.8565528846154,253.76029451201163L782.812514423077,143.01619061578148L785.694576923077,234.83957898648916L788.6505384615385,249.19330837534764L791.458701923077,230.4186314512626L794.4146634615385,252.31495643693387L797.370625,253.5446242993936L800.3265865384615,219.31516390533156L803.282548076923,210.58679238367037L806.2385096153846,154.1296732039426L809.1205721153846,206.3537030181122L812.0765336538461,230.7503966424343L815.0324951923077,255.02701972245268L817.9884567307693,250.36471305294197L820.9444182692308,243.41884141656973L823.9003798076924,236.9628017738634L826.8563413461538,223.61375706061068L829.7384038461538,278.27826403833836L832.6204663461538,203.05325600157752L835.5764278846153,209.82530236951422L838.4584903846154,241.18810072228146L841.3405528846154,245.0966993361256L844.2965144230769,227.6096743238981L847.2524759615385,250.23263968353308L850.1345384615385,102.42150265112622L853.0905,241.27133384351774L856.0464615384616,214.48776975338504L859.0024230769232,213.25213008364963L861.9583846153846,256.49116983631393L864.914346153846,239.72004271187436L867.7964086538461,199.41228063191988L870.7523701923077,250.03151834983032L873.7083317307691,265.36824443433017L876.6642932692307,275.04210699517324L879.6202548076923,191.8744726313083L882.5023173076924,200.51390144262402L885.4582788461538,223.59440366819314L888.3403413461539,274.60657107927324L891.2963028846154,238.81579605268723L894.252264423077,254.77416528209534" style="fill: none;" fill="none"></path></g></g></g></g></g></g><g transform="translate(68, 377)" clip-path="url(#clip_1)"><clipPath id="clip_1"><rect width="960" height="22"></rect></clipPath><g><g><line x1="0" y1="0" x2="0" y2="5" style="visibility: inherit;" fill="rgb(0, 0, 0)" stroke="rgb(204, 204, 204)" stroke-width="1px"></line><line x1="73.89903846153847" y1="0" x2="73.89903846153847" y2="5" style="visibility: inherit;" fill="rgb(0, 0, 0)" stroke="rgb(204, 204, 204)" stroke-width="1px"></line><line x1="147.79807692307693" y1="0" x2="147.79807692307693" y2="5" style="visibility: inherit;" fill="rgb(0, 0, 0)" stroke="rgb(204, 204, 204)" stroke-width="1px"></line><line x1="221.6971153846154" y1="0" x2="221.6971153846154" y2="5" style="visibility: inherit;" fill="rgb(0, 0, 0)" stroke="rgb(204, 204, 204)" stroke-width="1px"></line><line x1="295.59615384615387" y1="0" x2="295.59615384615387" y2="5" style="visibility: inherit;" fill="rgb(0, 0, 0)" stroke="rgb(204, 204, 204)" stroke-width="1px"></line><line x1="369.4951923076923" y1="0" x2="369.4951923076923" y2="5" style="visibility: inherit;" fill="rgb(0, 0, 0)" stroke="rgb(204, 204, 204)" stroke-width="1px"></line><line x1="443.3942307692308" y1="0" x2="443.3942307692308" y2="5" style="visibility: inherit;" fill="rgb(0, 0, 0)" stroke="rgb(204, 204, 204)" stroke-width="1px"></line><line x1="517.2932692307692" y1="0" x2="517.2932692307692" y2="5" style="visibility: inherit;" fill="rgb(0, 0, 0)" stroke="rgb(204, 204, 204)" stroke-width="1px"></line><line x1="591.1923076923077" y1="0" x2="591.1923076923077" y2="5" style="visibility: inherit;" fill="rgb(0, 0, 0)" stroke="rgb(204, 204, 204)" stroke-width="1px"></line><line x1="665.0913461538462" y1="0" x2="665.0913461538462" y2="5" style="visibility: inherit;" fill="rgb(0, 0, 0)" stroke="rgb(204, 204, 204)" stroke-width="1px"></line><line x1="738.9903846153846" y1="0" x2="738.9903846153846" y2="5" style="visibility: inherit;" fill="rgb(0, 0, 0)" stroke="rgb(204, 204, 204)" stroke-width="1px"></line><line x1="812.8894230769231" y1="0" x2="812.8894230769231" y2="5" style="visibility: inherit;" fill="rgb(0, 0, 0)" stroke="rgb(204, 204, 204)" stroke-width="1px"></line><line x1="886.7884615384615" y1="0" x2="886.7884615384615" y2="5" style="visibility: inherit;" fill="rgb(0, 0, 0)" stroke="rgb(204, 204, 204)" stroke-width="1px"></line><line x1="960.6875" y1="0" x2="960.6875" y2="5" style="visibility: inherit;" fill="rgb(0, 0, 0)" stroke="rgb(204, 204, 204)" stroke-width="1px"></line></g><g transform="translate(0, 8)"><text x="0" y="0" dx="0em" dy="0.95em" style="text-anchor: middle; visibility: hidden; font-family: &quot;Helvetica Neue&quot;, sans-serif; font-size: 12px; font-weight: 200;" fill="rgb(50, 49, 63)" stroke="none" stroke-width="1px">-1k</text><text x="73.89903846153847" y="0" dx="0em" dy="0.95em" style="text-anchor: middle; visibility: inherit; font-family: &quot;Helvetica Neue&quot;, sans-serif; font-size: 12px; font-weight: 200;" fill="rgb(50, 49, 63)" stroke="none" stroke-width="1px">0</text><text x="147.79807692307693" y="0" dx="0em" dy="0.95em" style="text-anchor: middle; visibility: inherit; font-family: &quot;Helvetica Neue&quot;, sans-serif; font-size: 12px; font-weight: 200;" fill="rgb(50, 49, 63)" stroke="none" stroke-width="1px">1k</text><text x="221.6971153846154" y="0" dx="0em" dy="0.95em" style="text-anchor: middle; visibility: inherit; font-family: &quot;Helvetica Neue&quot;, sans-serif; font-size: 12px; font-weight: 200;" fill="rgb(50, 49, 63)" stroke="none" stroke-width="1px">2k</text><text x="295.59615384615387" y="0" dx="0em" dy="0.95em" style="text-anchor: middle; visibility: inherit; font-family: &quot;Helvetica Neue&quot;, sans-serif; font-size: 12px; font-weight: 200;" fill="rgb(50, 49, 63)" stroke="none" stroke-width="1px">3k</text><text x="369.4951923076923" y="0" dx="0em" dy="0.95em" style="text-anchor: middle; visibility: inherit; font-family: &quot;Helvetica Neue&quot;, sans-serif; font-size: 12px; font-weight: 200;" fill="rgb(50, 49, 63)" stroke="none" stroke-width="1px">4k</text><text x="443.3942307692308" y="0" dx="0em" dy="0.95em" style="text-anchor: middle; visibility: inherit; font-family: &quot;Helvetica Neue&quot;, sans-serif; font-size: 12px; font-weight: 200;" fill="rgb(50, 49, 63)" stroke="none" stroke-width="1px">5k</text><text x="517.2932692307692" y="0" dx="0em" dy="0.95em" style="text-anchor: middle; visibility: inherit; font-family: &quot;Helvetica Neue&quot;, sans-serif; font-size: 12px; font-weight: 200;" fill="rgb(50, 49, 63)" stroke="none" stroke-width="1px">6k</text><text x="591.1923076923077" y="0" dx="0em" dy="0.95em" style="text-anchor: middle; visibility: inherit; font-family: &quot;Helvetica Neue&quot;, sans-serif; font-size: 12px; font-weight: 200;" fill="rgb(50, 49, 63)" stroke="none" stroke-width="1px">7k</text><text x="665.0913461538462" y="0" dx="0em" dy="0.95em" style="text-anchor: middle; visibility: inherit; font-family: &quot;Helvetica Neue&quot;, sans-serif; font-size: 12px; font-weight: 200;" fill="rgb(50, 49, 63)" stroke="none" stroke-width="1px">8k</text><text x="738.9903846153846" y="0" dx="0em" dy="0.95em" style="text-anchor: middle; visibility: inherit; font-family: &quot;Helvetica Neue&quot;, sans-serif; font-size: 12px; font-weight: 200;" fill="rgb(50, 49, 63)" stroke="none" stroke-width="1px">9k</text><text x="812.8894230769231" y="0" dx="0em" dy="0.95em" style="text-anchor: middle; visibility: inherit; font-family: &quot;Helvetica Neue&quot;, sans-serif; font-size: 12px; font-weight: 200;" fill="rgb(50, 49, 63)" stroke="none" stroke-width="1px">10k</text><text x="886.7884615384615" y="0" dx="0em" dy="0.95em" style="text-anchor: middle; visibility: inherit; font-family: &quot;Helvetica Neue&quot;, sans-serif; font-size: 12px; font-weight: 200;" fill="rgb(50, 49, 63)" stroke="none" stroke-width="1px">11k</text><text x="960.6875" y="0" dx="0em" dy="0.95em" style="text-anchor: middle; visibility: hidden; font-family: &quot;Helvetica Neue&quot;, sans-serif; font-size: 12px; font-weight: 200;" fill="rgb(50, 49, 63)" stroke="none" stroke-width="1px">12k</text></g><line x1="0" y1="0" x2="960.6875" y2="0" fill="rgb(0, 0, 0)" stroke="rgb(204, 204, 204)" stroke-width="1px"></line></g></g></g></g></svg>