<svg viewBox="0 0 1029 400" xmlns="http://www.w3.org/2000/svg"><g><g><g><g><g><line x1="68.3125" y1="377.828125" x2="63.3125" y2="377.828125" style="visibility: inherit;" fill="rgb(0, 0, 0)" stroke="rgb(204, 204, 204)" stroke-width="1px"></line><line x1="68.3125" y1="350.8404017857143" x2="63.3125" y2="350.8404017857143" style="visibility: inherit;" fill="rgb(0, 0, 0)" stroke="rgb(204, 204, 204)" stroke-width="1px"></line><line x1="68.3125" y1="323.85267857142856" x2="63.3125" y2="323.85267857142856" style="visibility: inherit;" fill="rgb(0, 0, 0)" stroke="rgb(204, 204, 204)" stroke-width="1px"></line><line x1="68.3125" y1="296.86495535714283" x2="63.3125" y2="296.86495535714283" style="visibility: inherit;" fill="rgb(0, 0, 0)" stroke="rgb(204, 204, 204)" stroke-width="1px"></line><line x1="68.3125" y1="269.8772321428571" x2="63.3125" y2="269.8772321428571" style="visibility: inherit;" fill="rgb(0, 0, 0)" stroke="rgb(204, 204, 204)" stroke-width="1px"></line><line x1="68.3125" y1="242.88950892857142" x2="63.3125" y2="242.88950892857142" style="visibility: inherit;" fill="rgb(0, 0, 0)" stroke="rgb(204, 204, 204)" stroke-width="1px"></line><line x1="68.3125" y1="215.9017857142857" x2="63.3125" y2="215.9017857142857" style="visibility: inherit;" fill="rgb(0, 0, 0)" stroke="rgb(204, 204, 204)" stroke-width="1px"></line><line x1="68.3125" y1="188.9140625" x2="63.3125" y2="188.9140625" style="visibility: inherit;" fill="rgb(0, 0, 0)" stroke="rgb(204, 204, 204)" stroke-width="1px"></line><line x1="68.3125" y1="161.9263392857143" x2="63.3125" y2="161.9263392857143" style="visibility: inherit;" fill="rgb(0, 0, 0)" stroke="rgb(204, 204, 204)" stroke-width="1px"></line><line x1="68.3125" y1="134.93861607142858" x2="63.3125" y2="134.93861607142858" style="visibility: inherit;" fill="rgb(0, 0, 0)" stroke="rgb(204, 204, 204)" stroke-width="1px"></line><line x1="68.3125" y1="107.95089285714283" x2="63.3125" y2="107.95089285714283" style="visibility: inherit;" fill="rgb(0, 0, 0)" stroke="rgb(204, 204, 204)" stroke-width="1px"></line><line x1="68.3125" y1="80.96316964285711" x2="63.3125" y2="80.96316964285711" style="visibility: inherit;" fill="rgb(0, 0, 0)" stroke="rgb(204, 204, 204)" stroke-width="1px"></line><line x1="68.3125" y1="53.97544642857139" x2="63.3125" y2="53.97544642857139" style="visibility: inherit;" fill="rgb(0, 0, 0)" stroke="rgb(204, 204, 204)" stroke-width="1px"></line><line x1="68.3125" y1="26.987723214285666" x2="63.3125" y2="26.987723214285666" style="visibility: inherit;" fill="rgb(0, 0, 0)" stroke="rgb(204, 204, 204)" stroke-width="1px"></line></g><g transform="translate(58.3125, 0)"><text x="0" y="377.828125" dx="0em" dy="0.3em" style="text-anchor: end; visibility: hidden; font-family: &quot;Helvetica Neue&quot;, sans-serif; font-size: 12px; font-weight: 200;" fill="rgb(50, 49, 63)" stroke="none" stroke-width="1px">-4e-4</text><text x="0" y="350.8404017857143" dx="0em" dy="0.3em" style="text-anchor: end; visibility: inherit; font-family: &quot;Helvetica Neue&quot;, sans-serif; font-size: 12px; font-weight: 200;" fill="rgb(50, 49, 63)" stroke="none" stroke-width="1px">-2e-4</text><text x="0" y="323.85267857142856" dx="0em" dy="0.3em" style="text-anchor: end; visibility: inherit; font-family: &quot;Helvetica Neue&quot;, sans-serif; font-size: 12px; font-weight: 200;" fill="rgb(50, 49, 63)" stroke="none" stroke-width="1px">0</text><text x="0" y="296.86495535714283" dx="0em" dy="0.3em" style="text-anchor: end; visibility: inherit; font-family: &quot;Helvetica Neue&quot;, sans-serif; font-size: 12px; font-weight: 200;" fill="rgb(50, 49, 63)" stroke="none" stroke-width="1px">2e-4</text><text x="0" y="269.8772321428571" dx="0em" dy="0.3em" style="text-anchor: end; visibility: inherit; font-family: &quot;Helvetica Neue&quot;, sans-serif; font-size: 12px; font-weight: 200;" fill="rgb(50, 49, 63)" stroke="none" stroke-width="1px">4e-4</text><text x="0" y="242.88950892857142" dx="0em" dy="0.3em" style="text-anchor: end; visibility: inherit; font-family: &quot;Helvetica Neue&quot;, sans-serif; font-size: 12px; font-weight: 200;" fill="rgb(50, 49, 63)" stroke="none" stroke-width="1px">6e-4</text><text x="0" y="215.9017857142857" dx="0em" dy="0.3em" style="text-anchor: end; visibility: inherit; font-family: &quot;Helvetica Neue&quot;, sans-serif; font-size: 12px; font-weight: 200;" fill="rgb(50, 49, 63)" stroke="none" stroke-width="1px">8e-4</text><text x="0" y="188.9140625" dx="0em" dy="0.3em" style="text-anchor: end; visibility: inherit; font-family: &quot;Helvetica Neue&quot;, sans-serif; font-size: 12px; font-weight: 200;" fill="rgb(50, 49, 63)" stroke="none" stroke-width="1px">1e-3</text><text x="0" y="161.9263392857143" dx="0em" dy="0.3em" style="text-anchor: end; visibility: inherit; font-family: &quot;Helvetica Neue&quot;, sans-serif; font-size: 12px; font-weight: 200;" fill="rgb(50, 49, 63)" stroke="none" stroke-width="1px">1.2e-3</text><text x="0" y="134.93861607142858" dx="0em" dy="0.3em" style="text-anchor: end; visibility: inherit; font-family: &quot;Helvetica Neue&quot;, sans-serif; font-size: 12px; font-weight: 200;" fill="rgb(50, 49, 63)" stroke="none" stroke-width="1px">1.4e-3</text><text x="0" y="107.95089285714283" dx="0em" dy="0.3em" style="text-anchor: end; visibility: inherit; font-family: &quot;Helvetica Neue&quot;, sans-serif; font-size: 12px; font-weight: 200;" fill="rgb(50, 49, 63)" stroke="none" stroke-width="1px">1.6e-3</text><text x="0" y="80.96316964285711" dx="0em" dy="0.3em" style="text-anchor: end; visibility: inherit; font-family: &quot;Helvetica Neue&quot;, sans-serif; font-size: 12px; font-weight: 200;" fill="rgb(50, 49, 63)" stroke="none" stroke-width="1px">1.8e-3</text><text x="0" y="53.97544642857139" dx="0em" dy="0.3em" style="text-anchor: end; visibility: inherit; font-family: &quot;Helvetica Neue&quot;, sans-serif; font-size: 12px; font-weight: 200;" fill="rgb(50, 49, 63)" stroke="none" stroke-width="1px">2e-3</text><text x="0" y="26.987723214285666" dx="0em" dy="0.3em" style="text-anchor: end; visibility: inherit; font-family: &quot;Helvetica Neue&quot;, sans-serif; font-size: 12px; font-weight: 200;" fill="rgb(50, 49, 63)" stroke="none" stroke-width="1px">2.2e-3</text></g><line x1="68.3125" y1="0" x2="68.3125" y2="377.828125" fill="rgb(0, 0, 0)" stroke="rgb(204, 204, 204)" stroke-width="1px"></line></g></g><g transform="translate(68, 0)" clip-path="url(#clip_0)"><clipPath id="clip_0"><rect width="960" height="377"></rect></clipPath><g><g><g><line x1="0" y1="0" x2="0" y2="377.828125" fill="rgb(0, 0, 0)" stroke="rgb(60, 60, 60)" stroke-width="1px" opacity="0.25"></line><line x1="73.89903846153847" y1="0" x2="73.89903846153847" y2="377.828125" fill="rgb(0, 0, 0)" stroke="rgb(60, 60, 60)" stroke-width="1px" opacity="0.25"></line><line x1="147.79807692307693" y1="0" x2="147.79807692307693" y2="377.828125" fill="rgb(0, 0, 0)" stroke="rgb(60, 60, 60)" stroke-width="1px" opacity="0.25"></line><line x1="221.6971153846154" y1="0" x2="221.6971153846154" y2="377.828125" fill="rgb(0, 0, 0)" stroke="rgb(60, 60, 60)" stroke-width="1px" opacity="0.25"></line><line x1="295.59615384615387" y1="0" x2="295.59615384615387" y2="377.828125" fill="rgb(0, 0, 0)" stroke="rgb(60, 60, 60)" stroke-width="1px" opacity="0.25"></line><line x1="369.4951923076923" y1="0" x2="369.4951923076923" y2="377.828125" fill="rgb(0, 0, 0)" stroke="rgb(60, 60, 60)" stroke-width="1px" opacity="0.25"></line><line x1="443.3942307692308" y1="0" x2="443.3942307692308" y2="377.828125" fill="rgb(0, 0, 0)" stroke="rgb(60, 60, 60)" stroke-width="1px" opacity="0.25"></line><line x1="517.2932692307692" y1="0" x2="517.2932692307692" y2="377.828125" fill="rgb(0, 0, 0)" stroke="rgb(60, 60, 60)" stroke-width="1px" opacity="0.25"></line><line x1="591.1923076923077" y1="0" x2="591.1923076923077" y2="377.828125" fill="rgb(0, 0, 0)" stroke="rgb(60, 60, 60)" stroke-width="1px" opacity="0.25"></line><line x1="665.0913461538462" y1="0" x2="665.0913461538462" y2="377.828125" fill="rgb(0, 0, 0)" stroke="rgb(60, 60, 60)" stroke-width="1px" opacity="0.25"></line><line x1="738.9903846153846" y1="0" x2="738.9903846153846" y2="377.828125" fill="rgb(0, 0, 0)" stroke="rgb(60, 60, 60)" stroke-width="1px" opacity="0.25"></line><line x1="812.8894230769231" y1="0" x2="812.8894230769231" y2="377.828125" fill="rgb(0, 0, 0)" stroke="rgb(60, 60, 60)" stroke-width="1px" opacity="0.25"></line><line x1="886.7884615384615" y1="0" x2="886.7884615384615" y2="377.828125" fill="rgb(0, 0, 0)" stroke="rgb(60, 60, 60)" stroke-width="1px" opacity="0.25"></line><line x1="960.6875" y1="0" x2="960.6875" y2="377.828125" fill="rgb(0, 0, 0)" stroke="rgb(60, 60, 60)" stroke-width="1px" opacity="0.25"></line></g><g><line x1="0" y1="377.828125" x2="960.6875" y2="377.828125" fill="rgb(0, 0, 0)" stroke="rgb(60, 60, 60)" stroke-width="1px" opacity="0.25"></line><line x1="0" y1="350.8404017857143" x2="960.6875" y2="350.8404017857143" fill="rgb(0, 0, 0)" stroke="rgb(60, 60, 60)" stroke-width="1px" opacity="0.25"></line><line x1="0" y1="323.85267857142856" x2="960.6875" y2="323.85267857142856" fill="rgb(0, 0, 0)" stroke="rgb(60, 60, 60)" stroke-width="1px" opacity="0.25"></line><line x1="0" y1="296.86495535714283" x2="960.6875" y2="296.86495535714283" fill="rgb(0, 0, 0)" stroke="rgb(60, 60, 60)" stroke-width="1px" opacity="0.25"></line><line x1="0" y1="269.8772321428571" x2="960.6875" y2="269.8772321428571" fill="rgb(0, 0, 0)" stroke="rgb(60, 60, 60)" stroke-width="1px" opacity="0.25"></line><line x1="0" y1="242.88950892857142" x2="960.6875" y2="242.88950892857142" fill="rgb(0, 0, 0)" stroke="rgb(60, 60, 60)" stroke-width="1px" opacity="0.25"></line><line x1="0" y1="215.9017857142857" x2="960.6875" y2="215.9017857142857" fill="rgb(0, 0, 0)" stroke="rgb(60, 60, 60)" stroke-width="1px" opacity="0.25"></line><line x1="0" y1="188.9140625" x2="960.6875" y2="188.9140625" fill="rgb(0, 0, 0)" stroke="rgb(60, 60, 60)" stroke-width="1px" opacity="0.25"></line><line x1="0" y1="161.9263392857143" x2="960.6875" y2="161.9263392857143" fill="rgb(0, 0, 0)" stroke="rgb(60, 60, 60)" stroke-width="1px" opacity="0.25"></line><line x1="0" y1="134.93861607142858" x2="960.6875" y2="134.93861607142858" fill="rgb(0, 0, 0)" stroke="rgb(60, 60, 60)" stroke-width="1px" opacity="0.25"></line><line x1="0" y1="107.95089285714283" x2="960.6875" y2="107.95089285714283" fill="rgb(0, 0, 0)" stroke="rgb(60, 60, 60)" stroke-width="1px" opacity="0.25"></line><line x1="0" y1="80.96316964285711" x2="960.6875" y2="80.96316964285711" fill="rgb(0, 0, 0)" stroke="rgb(60, 60, 60)" stroke-width="1px" opacity="0.25"></line><line x1="0" y1="53.97544642857139" x2="960.6875" y2="53.97544642857139" fill="rgb(0, 0, 0)" stroke="rgb(60, 60, 60)" stroke-width="1px" opacity="0.25"></line><line x1="0" y1="26.987723214285666" x2="960.6875" y2="26.987723214285666" fill="rgb(0, 0, 0)" stroke="rgb(60, 60, 60)" stroke-width="1px" opacity="0.25"></line></g></g></g><g><g><line x1="0" y1="323.85267857142856" x2="960.6875" y2="323.85267857142856" fill="rgb(0, 0, 0)" stroke="rgb(153, 153, 153)" stroke-width="1.5px"></line></g></g><g><g><line x1="73.89903846153847" y1="0" x2="73.89903846153847" y2="377.828125" fill="rgb(0, 0, 0)" stroke="rgb(153, 153, 153)" stroke-width="1.5px"></line></g></g><g><g><g><g><g><path stroke="rgb(255, 112, 67)" stroke-width="2px" d="M97.62062980769231,-21.981435403072737L100.57659134615385,8.293310544989026L103.53255288461538,-1.7583745382503935L106.48851442307692,6.086452009379627L109.44447596153846,1.1380008949803369L112.40043750000001,23.682370165853285L115.35639903846155,37.863136494937635L118.31236057692308,48.395128999198846L121.26832211538462,55.635407140646066L124.22428365384616,62.12626848717014L127.18024519230768,70.38159030537861L130.13620673076923,71.76338677313055L133.09216826923077,83.07705926073868L136.0481298076923,83.81199632636282L139.00409134615387,93.96065015464126L141.96005288461538,97.07193760434075L144.91601442307692,106.13113345168671L147.87197596153845,110.85052322380369L150.8279375,113.27843554483934L153.78389903846156,125.1846873777398L156.73986057692306,129.56871070890722L159.69582211538463,119.996940155505L162.65178365384614,127.05710326314914L165.6077451923077,133.39157635618702L168.56370673076924,143.43472385023318L171.51966826923078,149.22826935014453L174.47562980769231,148.214509594547L177.43159134615385,137.356011174822L180.3875528846154,129.6982418990108L183.34351442307693,138.78851251789553L186.29947596153846,136.81566788407935L189.2554375,135.71438384800842L192.21139903846154,134.2623728005166L195.16736057692307,129.72999471766377L198.1233221153846,128.56167889087126L201.07928365384615,133.65873720653178L204.0352451923077,137.96484210582952L206.99120673076922,145.26315066556174L209.9471682692308,146.42756027057106L212.9031298076923,150.47142201814717L215.85909134615383,150.2804469086736L218.8150528846154,150.20453154553127L221.7710144230769,143.2784101245864L224.72697596153847,148.8935145997501L227.68293749999998,147.53700892972182L230.63889903846155,156.93369734953663L233.59486057692308,149.63241954768733L236.55082211538462,154.90073188816018L239.50678365384616,160.52367138893072L242.4627451923077,161.4652409263342L245.41870673076923,165.8244201244254L248.37466826923077,163.0597894908372L251.33062980769233,163.04962808900737L254.2865913461538,160.21237554076504L257.24255288461535,152.883646226798L260.1985144230769,157.68589654093657L263.1544759615385,154.35282698963883L266.11043750000005,163.1042978989303L269.0663990384615,171.34828783423046L272.02236057692306,168.52597726349464L274.97832211538463,156.83180732717298L277.9342836538462,153.42931311376157L280.8902451923077,158.92887988046232L283.8462067307692,158.68785239565236L286.8021682692308,159.13190541762663L289.7581298076923,161.21668954266542L292.71409134615385,164.67976590132707L295.6700528846154,161.63513370626075L298.6260144230769,156.713384274321L301.58197596153843,150.29695154007874L304.5379375,154.6849662589299L307.49389903846156,158.95719127371973L310.44986057692313,160.4369061201922L313.4058221153846,164.6042390360411L316.36178365384615,165.68129350437337L319.3177451923077,166.64701855285102L322.2737067307692,171.35895600709253L325.2296682692308,177.38087717586453L328.1856298076923,181.6937277729511L331.14159134615386,185.97281352672647L334.09755288461537,186.77328450136145L337.05351442307693,184.23461586500758L340.00947596153844,186.24855317560576L342.9654375,184.59014586260017L345.9213990384615,179.6955963766617L348.8773605769231,177.74519432994748L351.83332211538465,175.79746487973176L354.78928365384616,178.68754617424725L357.74524519230766,180.01125995970764L360.70120673076923,183.65147278254432L363.6571682692308,180.69181900803554L366.6131298076923,183.80381076851535L369.5690913461538,178.2090755699628L372.5250528846154,159.97658538275502L375.48101442307694,159.21415143390664L378.43697596153845,160.50121552906523L381.3929375,167.07169807670655L384.3488990384615,165.67919944979394L387.3048605769231,171.76458188761356L390.2608221153846,172.82056143937788L393.21678365384616,178.98948847449074L396.17274519230773,174.75810619061554L399.1287067307692,176.5737223872361L402.08466826923075,180.57761679123243L405.0406298076923,185.80859752884282L407.9965913461539,187.6278290194945L410.9525528846154,181.23908362302487L413.9085144230769,186.12712632688533L416.86447596153846,187.9543246719215L419.8204375,188.96678292650145L422.77639903846153,193.01695089739727L425.7323605769231,186.4033028062792L428.6883221153846,191.00041637567614L431.6442836538461,189.08947398430035L434.6002451923077,186.57292969728476L437.55620673076925,183.67859483857197L440.5121682692308,187.928768480951L443.46812980769226,192.4505911932899L446.42409134615383,196.19363025616596L449.3800528846154,193.6977143700264L452.33601442307696,189.18770147401275L455.29197596153847,192.85998018486066L458.2479375,187.8333245547071L461.20389903846154,189.87603625402932L464.15986057692305,187.15821574193848L467.1158221153846,190.66180317034537L470.0717836538462,189.15184910722306L473.0277451923077,190.20996957163808L475.9837067307692,194.00174275619221L478.93966826923076,196.2610449809107L481.8956298076923,194.06814788043417L484.85159134615384,195.62761802740638L487.80755288461535,191.21254993600078L490.7635144230769,193.74302960578524L493.7194759615385,193.58067753492264L496.6754375,190.9600072322156L499.63139903846155,185.0559064196113L502.5873605769231,172.0562785097596L505.5433221153847,175.85690875885203L508.4992836538461,180.09607307212417L511.45524519230764,172.64234839006724L514.4112067307692,170.0416656107075L517.3671682692308,162.37949555044077L520.3231298076923,167.6507611857932L523.2790913461539,176.2858147407781L526.2350528846154,166.21209815833052L529.1910144230769,166.51185239478514L532.1469759615385,171.81634588012412L535.1029375,178.83227254880936L538.0588990384615,183.3350269952584L541.0148605769231,181.37908433571383L543.9708221153846,184.6144720335037L546.9267836538461,186.79107144664346L549.8827451923077,186.79011830917378L552.8387067307692,186.0924609806055L555.7946682692308,179.9272240555063L558.7506298076923,183.18628127795967L561.7065913461539,188.7805855392744L564.6625528846155,175.8610381024542L567.6185144230769,176.6178014700832L570.5744759615384,179.33344965265326L573.5304375,183.86277190399997L576.4863990384615,187.91869643008872L579.4423605769231,184.25580703845753L582.3983221153846,183.74410328069234L585.3542836538462,188.24129953867785L588.3102451923078,189.399384218757L591.2662067307692,188.57336121908392L594.2221682692308,179.27402448192709L597.1781298076922,181.29642423345166L600.1340913461538,183.3767048631454L603.0900528846154,181.8194456476153L606.0460144230769,189.81492510051018L609.0019759615385,190.16002327632287L611.9579375,185.34669515293783L614.9138990384615,191.21112025632777L617.8698605769231,195.5140459423788L620.8258221153847,194.79765190074068L623.7817836538461,197.81029214115128L626.7377451923077,193.92351504578903L629.6937067307692,180.13188477772852L632.6496682692308,142.93258206206772L635.6056298076923,151.91674966266538L638.5615913461538,151.54837195486277L641.5175528846154,160.77465224485164L644.473514423077,156.81241452680698L647.4294759615385,161.44455309911496L650.3854375000001,170.70467498997579L653.3413990384615,175.30702538407124L656.297360576923,179.39368215211923L659.2533221153845,183.60818601584748L662.2092836538461,178.10857799391636L665.1652451923077,181.19418674553427L668.1212067307692,185.57931791189048L671.0771682692308,183.8463876087014L674.0331298076924,183.40811429572742L676.9890913461538,188.89772597688963L679.9450528846154,191.3370757130664L682.9010144230768,188.99856053996905L685.8569759615384,193.66821385819756L688.8129375,191.1892501136444L691.7688990384615,186.50581068278467L694.7248605769231,190.09152557455812L697.6808221153847,194.21100719068573L700.6367836538461,196.9298096843777L703.5927451923077,191.0160011085244L706.5487067307693,179.15368965721098L709.3568701923077,179.6421992112142L712.3128317307693,177.78078869599014L715.2687932692309,182.6176509734034L718.2247548076923,190.40154018186834L721.1807163461538,194.56939964460187L724.1366778846153,196.10912691212275L727.0926394230769,200.59174966279673L730.0486009615385,191.34568553067746L733.0045625,193.96619656259315L735.886625,194.78569947632047L738.8425865384615,196.79324162835982L741.7985480769231,200.32677776130154L744.7545096153847,204.87306814591187L747.7104711538461,200.2881439914648L750.5925336538461,199.70949499871625L753.5484951923077,203.65597268666093L756.5044567307692,208.7443090458157L759.3865192307692,212.83405006778582L762.2685817307693,213.6148355294721L765.2245432692307,212.01512607989503L768.1805048076923,205.09841650898767L770.9886682692307,209.35519283899635L773.9446298076923,210.37489460325827L776.9005913461539,209.14590435060643L779.8565528846154,210.9704591383432L782.812514423077,202.2738162012697L785.694576923077,203.1262638918444L788.6505384615385,205.45298797273048L791.458701923077,205.47260534771743L794.4146634615385,207.84528029137135L797.370625,209.89644297467305L800.3265865384615,208.37875861230765L803.282548076923,205.9247104940686L806.2385096153846,198.7294861416322L809.1205721153846,197.34487947273672L812.0765336538461,198.1278392991807L815.0324951923077,201.4319936248915L817.9884567307693,203.52713424181403L820.9444182692308,204.74788679321506L823.9003798076924,204.85625194904122L826.8563413461538,204.46727396388513L829.7384038461538,209.46059431244723L832.6204663461538,206.3111122200855L835.5764278846153,203.82739800439802L838.4584903846154,205.3203442352658L841.3405528846154,206.99345003694032L844.2965144230769,206.68941299524087L847.2524759615385,208.63100459477502L850.1345384615385,196.29538439564502L853.0905,197.92255950990517L856.0464615384616,197.30355327767322L859.0024230769232,196.0207143902556L861.9583846153846,199.5386674303714L864.914346153846,201.36447419004693L867.7964086538461,199.19363269777475L870.7523701923077,201.7417900900185L873.7083317307691,205.86951464684705L876.6642932692307,210.29877062892888L879.6202548076923,206.2702568911808L882.5023173076924,202.98907738737864L885.4582788461538,202.9048503952242L888.3403413461539,207.05698903389523L891.2963028846154,207.99771415991304L894.252264423077,210.42329320938845" style="fill: none;" fill="none"></path></g></g></g></g><g opacity="0.20000000298023224"><g><g><g><path stroke="rgb(255, 112, 67)" stroke-width="2px" d="M73.9729375,-1249.1478261719458L76.92889903846154,99.0412530752011L79.88486057692307,13.673282032196369L82.84082211538463,-29.893874816503L85.79678365384616,-37.68059915145983L88.75274519230769,172.2443288521421L91.70870673076922,27.43005666029262L94.66466826923076,146.5162400089248L97.62062980769231,104.29174046811488L100.57659134615385,173.61507371331288L103.53255288461538,-60.075458873815876L106.48851442307692,54.00223303173385L109.44447596153846,-30.447645749541323L112.40043750000001,173.1487543513691L115.35639903846155,135.02448777734492L118.31236057692308,122.65371137408613L121.26832211538462,107.97961422145869L124.22428365384616,110.0948206248857L127.18024519230768,132.58024228497482L130.13620673076923,82.35328777765761L133.09216826923077,171.09913269903234L136.0481298076923,89.60666277871809L139.00409134615387,174.93014615343836L141.96005288461538,122.15686957588642L144.91601442307692,179.8564642233583L147.87197596153845,149.57822316641457L150.8279375,133.350136572624L153.78389903846156,224.2663890507985L156.73986057692306,166.26735092421688L159.69582211538463,39.449016037103945L162.65178365384614,186.74942941740926L165.6077451923077,187.1739002100346L168.56370673076924,229.0263967590914L171.51966826923078,198.76951983663457L174.47562980769231,139.51959592692273L177.43159134615385,43.97233741134238L180.3875528846154,63.6817725554626L183.34351442307693,217.32410569481985L186.29947596153846,119.73815108244372L189.2554375,126.16476549670605L192.21139903846154,121.65184342910754L195.16736057692307,90.31183630600987L198.1233221153846,118.38807916317353L201.07928365384615,178.09342044267188L204.0352451923077,175.54208722618623L206.99120673076922,209.00950658542882L209.9471682692308,156.60623796648306L212.9031298076923,185.84655910150158L215.85909134615383,148.6087313105371L218.8150528846154,149.53961063511397L221.7710144230769,82.58255950033134L224.72697596153847,198.12374959946206L227.68293749999998,135.63884802414498L230.63889903846155,239.3851586702793L233.59486057692308,85.54529368599157L236.55082211538462,201.1576452036705L239.50678365384616,209.9078841495253L242.4627451923077,169.73674498458732L245.41870673076923,204.1274562588795L248.37466826923077,138.76281858949162L251.33062980769233,162.96030857702445L254.2865913461538,135.26869868523707L257.24255288461535,88.44390405034625L260.1985144230769,199.91638898998175L263.1544759615385,125.03874993786721L266.11043750000005,240.08081259058653L269.0663990384615,243.86788033453143L272.02236057692306,143.69697541169754L274.97832211538463,53.94571232887807L277.9342836538462,123.49190805640373L280.8902451923077,207.32067175423956L283.8462067307692,156.5668871158289L286.8021682692308,163.03962292630706L289.7581298076923,179.56383841657745L292.71409134615385,195.1577872302452L295.6700528846154,134.83882402330036L298.6260144230769,113.39487250160266L301.58197596153843,93.8214452077674L304.5379375,193.30794379874456L307.49389903846156,196.56186642478445L310.44986057692313,173.46181746621423L313.4058221153846,201.28708672438526L316.36178365384615,175.16219835537984L319.3177451923077,175.1480603252047L322.2737067307692,212.83755105349806L325.2296682692308,230.39173775095074L328.1856298076923,219.66008529389313L331.14159134615386,223.64230498102242L334.09755288461537,193.82002325168858L337.05351442307693,161.88592824616978L340.00947596153844,203.97799371654455L342.9654375,169.99047549946408L345.9213990384615,136.60653335394454L348.8773605769231,160.57478303664848L351.83332211538465,158.6505028762757L354.78928365384616,204.13066873351377L357.74524519230766,191.6647512416374L360.70120673076923,215.69867992896616L363.6571682692308,154.63594637235136L366.6131298076923,211.20089340811631L369.5690913461538,128.95451302871206L372.5250528846154,-0.5377632143499795L375.48101442307694,152.50185784417928L378.43697596153845,171.83225239930368L381.3929375,224.9169112370021L384.3488990384615,153.41990297914163L387.3048605769231,225.3392141983339L390.2608221153846,182.11722950189971L393.21678365384616,233.2997499053719L396.17274519230773,137.50564923739458L399.1287067307692,192.55814907732773L402.08466826923075,215.82735956694367L405.0406298076923,231.86147238673115L407.9965913461539,203.64411627949707L410.9525528846154,124.99333544316013L413.9085144230769,229.16088869836312L416.86447596153846,204.04077442498343L419.8204375,197.8803555555356L422.77639903846153,228.6742027185059L425.7323605769231,128.17742405459595L428.6883221153846,231.47294360859556L431.6442836538461,172.26572440447387L434.6002451923077,164.4175153471775L437.55620673076925,158.1971433753258L440.5121682692308,225.34690371585697L443.46812980769226,232.26030621797221L446.42409134615383,229.14700986540785L449.3800528846154,171.72389225247233L452.33601442307696,149.4819431809218L455.29197596153847,225.19040357627924L458.2479375,143.57907994895922L461.20389903846154,207.85989622511988L464.15986057692305,163.23075338535273L467.1158221153846,221.50709326489752L470.0717836538462,175.85833925228198L473.0277451923077,199.5255745636345L475.9837067307692,227.3842017185577L478.93966826923076,216.15175666931256L481.8956298076923,174.76206068357817L484.85159134615384,209.35706649390133L487.80755288461535,152.34264791548466L490.7635144230769,216.0211683972614L493.7194759615385,192.15134296796012L496.6754375,167.8878362339705L499.63139903846155,133.07667565119172L502.5873605769231,57.60859318665666L505.5433221153847,209.31735433803155L508.4992836538461,217.4173381493638L511.45524519230764,107.02034887407456L514.4112067307692,147.1454608963312L517.3671682692308,94.92235790858416L520.3231298076923,214.05856632065272L523.2790913461539,252.30814296879595L526.2350528846154,77.52389375904954L529.1910144230769,169.15086501412898L532.1469759615385,218.51668781240005L535.1029375,240.5999374952345L538.0588990384615,222.97692215421247L541.0148605769231,164.1591192823429L543.9708221153846,213.0985705083762L546.9267836538461,205.95368132552645L549.8827451923077,186.78172696189824L552.8387067307692,179.9503407437213L555.7946682692308,125.6489630291492L558.7506298076923,211.87876482824763L561.7065913461539,238.03240052527585L564.6625528846155,62.11835776084939L567.6185144230769,183.28028669979747L570.5744759615384,203.2418029219407L573.5304375,223.7385692575928L576.4863990384615,223.62673743890733L579.4423605769231,152.0080164501612L582.3983221153846,179.23910357237662L585.3542836538462,227.83426234580006L588.3102451923078,199.5950708364066L591.2662067307692,181.30111956450025L594.2221682692308,97.40339369725444L597.1781298076922,199.10147293068596L600.1340913461538,201.69133227939892L603.0900528846154,168.10945771142724L606.0460144230769,260.2064988336775L609.0019759615385,193.19824053904657L611.9579375,142.97053200345337L614.9138990384615,242.84105876629368L617.8698605769231,233.39666610222255L620.8258221153847,188.4905749602466L623.7817836538461,224.33334047813904L626.7377451923077,159.7046344061351L629.6937067307692,58.71145379385308L632.6496682692308,-184.56716097069364L635.6056298076923,231.01265647285982L638.5615913461538,148.30520351159896L641.5175528846154,242.0021002012389L644.473514423077,121.92918445437681L647.4294759615385,202.22553774956708L650.3854375000001,252.23006176992305L653.3413990384615,215.82575725685714L656.297360576923,215.37228779345034L659.2533221153845,220.71234746198493L662.2092836538461,129.69046033501843L665.1652451923077,208.3596441739667L668.1212067307692,224.18566875295957L671.0771682692308,168.58980514108927L674.0331298076924,179.54959042394538L676.9890913461538,237.22783664585276L679.9450528846154,212.81291946314846L682.9010144230768,168.41045637385625L685.8569759615384,234.77947541580943L688.8129375,169.36464773929973L691.7688990384615,145.27317726915808L694.7248605769231,221.65987824432366L697.6808221153847,230.47860023745463L700.6367836538461,220.86593359645434L703.5927451923077,138.95129424064882L706.5487067307693,74.71883002768715L709.3568701923077,183.94299900979658L712.3128317307693,161.39307651426395L715.2687932692309,225.2010070989106L718.2247548076923,258.93029026761127L721.1807163461538,231.26290746142124L724.1366778846153,209.6647650117411L727.0926394230769,240.05640877961196L730.0486009615385,109.94406209645132L733.0045625,217.03697015642373L735.886625,202.00053885379074L738.8425865384615,214.46748528008538L741.7985480769231,231.43575273477367L744.7545096153847,244.89825211923537L747.7104711538461,159.92283133850495L750.5925336538461,194.61511465089436L753.5484951923077,238.40045272304113L756.5044567307692,253.5416232658884L759.3865192307692,248.83980926068867L762.2685817307693,220.48880949599334L765.2245432692307,197.9314095533903L768.1805048076923,144.20424793438204L770.9886682692307,246.83151778323062L773.9446298076923,219.35226895913522L776.9005913461539,198.325970557734L779.8565528846154,227.03369638713204L782.812514423077,125.70925387338502L785.694576923077,210.63114650098007L788.6505384615385,225.93728429258772L791.458701923077,205.64531517848394L794.4146634615385,228.73412440306492L797.370625,227.95471836289238L800.3265865384615,195.01718452015328L803.282548076923,184.31946333551605L806.2385096153846,135.38329527426788L809.1205721153846,185.15491095641065L812.0765336538461,205.02095620256554L815.0324951923077,230.5215091590362L817.9884567307693,221.97258790841443L820.9444182692308,215.4952965104354L823.9003798076924,205.81029028170556L826.8563413461538,201.04274229065257L829.7384038461538,253.4213950281711L832.6204663461538,178.58331889716337L835.5764278846153,181.96097285061944L838.4584903846154,218.46412575799332L841.3405528846154,221.7233422908877L844.2965144230769,204.01269472616332L847.2524759615385,225.7246247553698L850.1345384615385,87.69355166218361L853.0905,212.24808159426746L856.0464615384616,191.8538709586137L859.0024230769232,184.72670144025014L861.9583846153846,230.51045007765478L864.914346153846,217.43873370169553L867.7964086538461,180.08171446189328L870.7523701923077,224.17556791584556L873.7083317307691,242.209677902055L876.6642932692307,249.29359290254382L879.6202548076923,170.8035379059147L882.5023173076924,174.10183038332096L885.4582788461538,202.1633225623352L888.3403413461539,243.6120919508181L891.2963028846154,216.27978438700978L894.252264423077,231.77790091947358" style="fill: none;" fill="none"></path></g></g></g></g></g></g><g transform="translate(68, 377)" clip-path="url(#clip_1)"><clipPath id="clip_1"><rect width="960" height="22"></rect></clipPath><g><g><line x1="0" y1="0" x2="0" y2="5" style="visibility: inherit;" fill="rgb(0, 0, 0)" stroke="rgb(204, 204, 204)" stroke-width="1px"></line><line x1="73.89903846153847" y1="0" x2="73.89903846153847" y2="5" style="visibility: inherit;" fill="rgb(0, 0, 0)" stroke="rgb(204, 204, 204)" stroke-width="1px"></line><line x1="147.79807692307693" y1="0" x2="147.79807692307693" y2="5" style="visibility: inherit;" fill="rgb(0, 0, 0)" stroke="rgb(204, 204, 204)" stroke-width="1px"></line><line x1="221.6971153846154" y1="0" x2="221.6971153846154" y2="5" style="visibility: inherit;" fill="rgb(0, 0, 0)" stroke="rgb(204, 204, 204)" stroke-width="1px"></line><line x1="295.59615384615387" y1="0" x2="295.59615384615387" y2="5" style="visibility: inherit;" fill="rgb(0, 0, 0)" stroke="rgb(204, 204, 204)" stroke-width="1px"></line><line x1="369.4951923076923" y1="0" x2="369.4951923076923" y2="5" style="visibility: inherit;" fill="rgb(0, 0, 0)" stroke="rgb(204, 204, 204)" stroke-width="1px"></line><line x1="443.3942307692308" y1="0" x2="443.3942307692308" y2="5" style="visibility: inherit;" fill="rgb(0, 0, 0)" stroke="rgb(204, 204, 204)" stroke-width="1px"></line><line x1="517.2932692307692" y1="0" x2="517.2932692307692" y2="5" style="visibility: inherit;" fill="rgb(0, 0, 0)" stroke="rgb(204, 204, 204)" stroke-width="1px"></line><line x1="591.1923076923077" y1="0" x2="591.1923076923077" y2="5" style="visibility: inherit;" fill="rgb(0, 0, 0)" stroke="rgb(204, 204, 204)" stroke-width="1px"></line><line x1="665.0913461538462" y1="0" x2="665.0913461538462" y2="5" style="visibility: inherit;" fill="rgb(0, 0, 0)" stroke="rgb(204, 204, 204)" stroke-width="1px"></line><line x1="738.9903846153846" y1="0" x2="738.9903846153846" y2="5" style="visibility: inherit;" fill="rgb(0, 0, 0)" stroke="rgb(204, 204, 204)" stroke-width="1px"></line><line x1="812.8894230769231" y1="0" x2="812.8894230769231" y2="5" style="visibility: inherit;" fill="rgb(0, 0, 0)" stroke="rgb(204, 204, 204)" stroke-width="1px"></line><line x1="886.7884615384615" y1="0" x2="886.7884615384615" y2="5" style="visibility: inherit;" fill="rgb(0, 0, 0)" stroke="rgb(204, 204, 204)" stroke-width="1px"></line><line x1="960.6875" y1="0" x2="960.6875" y2="5" style="visibility: inherit;" fill="rgb(0, 0, 0)" stroke="rgb(204, 204, 204)" stroke-width="1px"></line></g><g transform="translate(0, 8)"><text x="0" y="0" dx="0em" dy="0.95em" style="text-anchor: middle; visibility: hidden; font-family: &quot;Helvetica Neue&quot;, sans-serif; font-size: 12px; font-weight: 200;" fill="rgb(50, 49, 63)" stroke="none" stroke-width="1px">-1k</text><text x="73.89903846153847" y="0" dx="0em" dy="0.95em" style="text-anchor: middle; visibility: inherit; font-family: &quot;Helvetica Neue&quot;, sans-serif; font-size: 12px; font-weight: 200;" fill="rgb(50, 49, 63)" stroke="none" stroke-width="1px">0</text><text x="147.79807692307693" y="0" dx="0em" dy="0.95em" style="text-anchor: middle; visibility: inherit; font-family: &quot;Helvetica Neue&quot;, sans-serif; font-size: 12px; font-weight: 200;" fill="rgb(50, 49, 63)" stroke="none" stroke-width="1px">1k</text><text x="221.6971153846154" y="0" dx="0em" dy="0.95em" style="text-anchor: middle; visibility: inherit; font-family: &quot;Helvetica Neue&quot;, sans-serif; font-size: 12px; font-weight: 200;" fill="rgb(50, 49, 63)" stroke="none" stroke-width="1px">2k</text><text x="295.59615384615387" y="0" dx="0em" dy="0.95em" style="text-anchor: middle; visibility: inherit; font-family: &quot;Helvetica Neue&quot;, sans-serif; font-size: 12px; font-weight: 200;" fill="rgb(50, 49, 63)" stroke="none" stroke-width="1px">3k</text><text x="369.4951923076923" y="0" dx="0em" dy="0.95em" style="text-anchor: middle; visibility: inherit; font-family: &quot;Helvetica Neue&quot;, sans-serif; font-size: 12px; font-weight: 200;" fill="rgb(50, 49, 63)" stroke="none" stroke-width="1px">4k</text><text x="443.3942307692308" y="0" dx="0em" dy="0.95em" style="text-anchor: middle; visibility: inherit; font-family: &quot;Helvetica Neue&quot;, sans-serif; font-size: 12px; font-weight: 200;" fill="rgb(50, 49, 63)" stroke="none" stroke-width="1px">5k</text><text x="517.2932692307692" y="0" dx="0em" dy="0.95em" style="text-anchor: middle; visibility: inherit; font-family: &quot;Helvetica Neue&quot;, sans-serif; font-size: 12px; font-weight: 200;" fill="rgb(50, 49, 63)" stroke="none" stroke-width="1px">6k</text><text x="591.1923076923077" y="0" dx="0em" dy="0.95em" style="text-anchor: middle; visibility: inherit; font-family: &quot;Helvetica Neue&quot;, sans-serif; font-size: 12px; font-weight: 200;" fill="rgb(50, 49, 63)" stroke="none" stroke-width="1px">7k</text><text x="665.0913461538462" y="0" dx="0em" dy="0.95em" style="text-anchor: middle; visibility: inherit; font-family: &quot;Helvetica Neue&quot;, sans-serif; font-size: 12px; font-weight: 200;" fill="rgb(50, 49, 63)" stroke="none" stroke-width="1px">8k</text><text x="738.9903846153846" y="0" dx="0em" dy="0.95em" style="text-anchor: middle; visibility: inherit; font-family: &quot;Helvetica Neue&quot;, sans-serif; font-size: 12px; font-weight: 200;" fill="rgb(50, 49, 63)" stroke="none" stroke-width="1px">9k</text><text x="812.8894230769231" y="0" dx="0em" dy="0.95em" style="text-anchor: middle; visibility: inherit; font-family: &quot;Helvetica Neue&quot;, sans-serif; font-size: 12px; font-weight: 200;" fill="rgb(50, 49, 63)" stroke="none" stroke-width="1px">10k</text><text x="886.7884615384615" y="0" dx="0em" dy="0.95em" style="text-anchor: middle; visibility: inherit; font-family: &quot;Helvetica Neue&quot;, sans-serif; font-size: 12px; font-weight: 200;" fill="rgb(50, 49, 63)" stroke="none" stroke-width="1px">11k</text><text x="960.6875" y="0" dx="0em" dy="0.95em" style="text-anchor: middle; visibility: hidden; font-family: &quot;Helvetica Neue&quot;, sans-serif; font-size: 12px; font-weight: 200;" fill="rgb(50, 49, 63)" stroke="none" stroke-width="1px">12k</text></g><line x1="0" y1="0" x2="960.6875" y2="0" fill="rgb(0, 0, 0)" stroke="rgb(204, 204, 204)" stroke-width="1px"></line></g></g></g></g></svg>