<svg viewBox="0 0 1029 400" xmlns="http://www.w3.org/2000/svg"><g><g><g><g><g><line x1="58.59375" y1="375.5995275918052" x2="53.59375" y2="375.5995275918052" style="visibility: inherit;" fill="rgb(0, 0, 0)" stroke="rgb(204, 204, 204)" stroke-width="1px"></line><line x1="58.59375" y1="318.28395950876376" x2="53.59375" y2="318.28395950876376" style="visibility: inherit;" fill="rgb(0, 0, 0)" stroke="rgb(204, 204, 204)" stroke-width="1px"></line><line x1="58.59375" y1="260.9683914257223" x2="53.59375" y2="260.9683914257223" style="visibility: inherit;" fill="rgb(0, 0, 0)" stroke="rgb(204, 204, 204)" stroke-width="1px"></line><line x1="58.59375" y1="203.65282334268082" x2="53.59375" y2="203.65282334268082" style="visibility: inherit;" fill="rgb(0, 0, 0)" stroke="rgb(204, 204, 204)" stroke-width="1px"></line><line x1="58.59375" y1="146.3372552596393" x2="53.59375" y2="146.3372552596393" style="visibility: inherit;" fill="rgb(0, 0, 0)" stroke="rgb(204, 204, 204)" stroke-width="1px"></line><line x1="58.59375" y1="89.02168717659782" x2="53.59375" y2="89.02168717659782" style="visibility: inherit;" fill="rgb(0, 0, 0)" stroke="rgb(204, 204, 204)" stroke-width="1px"></line><line x1="58.59375" y1="31.706119093556367" x2="53.59375" y2="31.706119093556367" style="visibility: inherit;" fill="rgb(0, 0, 0)" stroke="rgb(204, 204, 204)" stroke-width="1px"></line></g><g transform="translate(48.59375, 0)"><text x="0" y="375.5995275918052" dx="0em" dy="0.3em" style="text-anchor: end; visibility: hidden; font-family: &quot;Helvetica Neue&quot;, sans-serif; font-size: 12px; font-weight: 200;" fill="rgb(50, 49, 63)" stroke="none" stroke-width="1px">0</text><text x="0" y="318.28395950876376" dx="0em" dy="0.3em" style="text-anchor: end; visibility: inherit; font-family: &quot;Helvetica Neue&quot;, sans-serif; font-size: 12px; font-weight: 200;" fill="rgb(50, 49, 63)" stroke="none" stroke-width="1px">5e-3</text><text x="0" y="260.9683914257223" dx="0em" dy="0.3em" style="text-anchor: end; visibility: inherit; font-family: &quot;Helvetica Neue&quot;, sans-serif; font-size: 12px; font-weight: 200;" fill="rgb(50, 49, 63)" stroke="none" stroke-width="1px">0.01</text><text x="0" y="203.65282334268082" dx="0em" dy="0.3em" style="text-anchor: end; visibility: inherit; font-family: &quot;Helvetica Neue&quot;, sans-serif; font-size: 12px; font-weight: 200;" fill="rgb(50, 49, 63)" stroke="none" stroke-width="1px">0.015</text><text x="0" y="146.3372552596393" dx="0em" dy="0.3em" style="text-anchor: end; visibility: inherit; font-family: &quot;Helvetica Neue&quot;, sans-serif; font-size: 12px; font-weight: 200;" fill="rgb(50, 49, 63)" stroke="none" stroke-width="1px">0.02</text><text x="0" y="89.02168717659782" dx="0em" dy="0.3em" style="text-anchor: end; visibility: inherit; font-family: &quot;Helvetica Neue&quot;, sans-serif; font-size: 12px; font-weight: 200;" fill="rgb(50, 49, 63)" stroke="none" stroke-width="1px">0.025</text><text x="0" y="31.706119093556367" dx="0em" dy="0.3em" style="text-anchor: end; visibility: inherit; font-family: &quot;Helvetica Neue&quot;, sans-serif; font-size: 12px; font-weight: 200;" fill="rgb(50, 49, 63)" stroke="none" stroke-width="1px">0.03</text></g><line x1="58.59375" y1="0" x2="58.59375" y2="377.828125" fill="rgb(0, 0, 0)" stroke="rgb(204, 204, 204)" stroke-width="1px"></line></g></g><g transform="translate(58, 0)" clip-path="url(#clip_0)"><clipPath id="clip_0"><rect width="970" height="377"></rect></clipPath><g><g><g><line x1="33.68542110271252" y1="0" x2="33.68542110271252" y2="377.828125" fill="rgb(0, 0, 0)" stroke="rgb(60, 60, 60)" stroke-width="1px" opacity="0.25"></line><line x1="115.5635334562648" y1="0" x2="115.5635334562648" y2="377.828125" fill="rgb(0, 0, 0)" stroke="rgb(60, 60, 60)" stroke-width="1px" opacity="0.25"></line><line x1="197.44164580981712" y1="0" x2="197.44164580981712" y2="377.828125" fill="rgb(0, 0, 0)" stroke="rgb(60, 60, 60)" stroke-width="1px" opacity="0.25"></line><line x1="279.31975816336944" y1="0" x2="279.31975816336944" y2="377.828125" fill="rgb(0, 0, 0)" stroke="rgb(60, 60, 60)" stroke-width="1px" opacity="0.25"></line><line x1="361.19787051692174" y1="0" x2="361.19787051692174" y2="377.828125" fill="rgb(0, 0, 0)" stroke="rgb(60, 60, 60)" stroke-width="1px" opacity="0.25"></line><line x1="443.075982870474" y1="0" x2="443.075982870474" y2="377.828125" fill="rgb(0, 0, 0)" stroke="rgb(60, 60, 60)" stroke-width="1px" opacity="0.25"></line><line x1="524.9540952240263" y1="0" x2="524.9540952240263" y2="377.828125" fill="rgb(0, 0, 0)" stroke="rgb(60, 60, 60)" stroke-width="1px" opacity="0.25"></line><line x1="606.8322075775786" y1="0" x2="606.8322075775786" y2="377.828125" fill="rgb(0, 0, 0)" stroke="rgb(60, 60, 60)" stroke-width="1px" opacity="0.25"></line><line x1="688.7103199311309" y1="0" x2="688.7103199311309" y2="377.828125" fill="rgb(0, 0, 0)" stroke="rgb(60, 60, 60)" stroke-width="1px" opacity="0.25"></line><line x1="770.5884322846831" y1="0" x2="770.5884322846831" y2="377.828125" fill="rgb(0, 0, 0)" stroke="rgb(60, 60, 60)" stroke-width="1px" opacity="0.25"></line><line x1="852.4665446382355" y1="0" x2="852.4665446382355" y2="377.828125" fill="rgb(0, 0, 0)" stroke="rgb(60, 60, 60)" stroke-width="1px" opacity="0.25"></line><line x1="934.3446569917878" y1="0" x2="934.3446569917878" y2="377.828125" fill="rgb(0, 0, 0)" stroke="rgb(60, 60, 60)" stroke-width="1px" opacity="0.25"></line></g><g><line x1="0" y1="375.5995275918052" x2="970.40625" y2="375.5995275918052" fill="rgb(0, 0, 0)" stroke="rgb(60, 60, 60)" stroke-width="1px" opacity="0.25"></line><line x1="0" y1="318.28395950876376" x2="970.40625" y2="318.28395950876376" fill="rgb(0, 0, 0)" stroke="rgb(60, 60, 60)" stroke-width="1px" opacity="0.25"></line><line x1="0" y1="260.9683914257223" x2="970.40625" y2="260.9683914257223" fill="rgb(0, 0, 0)" stroke="rgb(60, 60, 60)" stroke-width="1px" opacity="0.25"></line><line x1="0" y1="203.65282334268082" x2="970.40625" y2="203.65282334268082" fill="rgb(0, 0, 0)" stroke="rgb(60, 60, 60)" stroke-width="1px" opacity="0.25"></line><line x1="0" y1="146.3372552596393" x2="970.40625" y2="146.3372552596393" fill="rgb(0, 0, 0)" stroke="rgb(60, 60, 60)" stroke-width="1px" opacity="0.25"></line><line x1="0" y1="89.02168717659782" x2="970.40625" y2="89.02168717659782" fill="rgb(0, 0, 0)" stroke="rgb(60, 60, 60)" stroke-width="1px" opacity="0.25"></line><line x1="0" y1="31.706119093556367" x2="970.40625" y2="31.706119093556367" fill="rgb(0, 0, 0)" stroke="rgb(60, 60, 60)" stroke-width="1px" opacity="0.25"></line></g></g></g><g><g><line x1="0" y1="375.5995275918052" x2="970.40625" y2="375.5995275918052" fill="rgb(0, 0, 0)" stroke="rgb(153, 153, 153)" stroke-width="1.5px"></line></g></g><g><g><line x1="33.68542110271252" y1="0" x2="33.68542110271252" y2="377.828125" fill="rgb(0, 0, 0)" stroke="rgb(153, 153, 153)" stroke-width="1.5px"></line></g></g><g><g><g><g><g><path stroke="rgb(255, 112, 67)" stroke-width="2px" d="M53.2952290113883,-10.658325889103196L54.93279125845934,31.883596997643338L56.570353505530385,62.012713615113114L58.20791575260144,93.07079277185699L59.845477999672475,111.45572391456159L61.48304024674353,126.32929306406083L63.120602493814566,145.240597163335L64.75816474088562,152.48496812071843L66.39572698795666,165.25397254393178L68.03328923502771,173.12172652077894L69.67085148209875,185.35279540030962L71.3084137291698,194.4931440191085L72.94597597624085,209.5972504765308L74.58353822331189,213.3971508436257L76.22110047038294,225.45925695486852L77.858662717454,236.8852331432014L79.49622496452503,241.84807290513226L81.13378721159607,249.4542152007281L82.77134945866713,239.23337982110235L84.40891170573816,246.44336627288092L86.04647395280921,252.55434453007925L87.68403619988027,238.5907393520315L89.32159844695131,246.48614880824198L90.95916069402234,253.32591004375809L92.5967229410934,254.61631856803328L94.23428518816445,261.32212775128687L95.87184743523548,261.562451764898L97.50940968230654,267.73929732037993L99.14697192937759,270.75037208338966L100.78453417644862,273.4030074958526L102.42209642351968,279.8797308755856L104.05965867059072,279.1429783771264L105.69722091766177,275.4892648375677L107.33478316473281,269.53527366222283L108.97234541180386,272.80591036010145L110.6099076588749,276.15845148307676L112.24746990594595,274.07465675500447L113.885032153017,252.18068598693725L115.52259440008805,257.6849754210373L117.16015664715908,255.04814728836232L118.79771889423013,258.3524265203236L120.43528114130119,267.551086487351L122.07284338837222,274.1991466918199L123.71040563544328,270.7108001954388L125.34796788251431,273.7474787255837L126.98553012958537,267.4659485719598L128.62309237665642,277.0339492749349L130.26065462372745,282.7449560475827L131.8982168707985,289.06520463421475L133.53577911786957,294.9952414593922L135.1733413649406,282.0350783331427L136.81090361201163,283.5427579474518L138.4484658590827,287.44345735137176L140.08602810615372,293.12986166064746L141.72359035322478,289.97789936979683L143.36115260029584,295.0694707277411L144.99871484736687,295.87852908335066L146.6362770944379,288.65323041690937L148.27383934150896,288.25202160792014L149.91140158858,293.2220141459085L151.54896383565105,298.857623639905L153.1865260827221,299.66282069649446L154.82408832979314,301.97085426540195L156.4616505768642,304.7042720599512L158.09921282393523,302.1260777696556L159.73677507100626,304.1063073750736L161.37433731807732,305.9131303644407L163.01189956514838,300.67838292603193L164.6494618122194,304.04704439811445L166.28702405929047,309.15532198774184L167.9245863063615,308.02937103716727L169.56214855343254,309.5617015701324L171.1997108005036,306.3003070921359L172.83727304757466,309.999831602738L174.4748352946457,308.5264191874558L176.11239754171675,303.58411469558314L177.7499597887878,306.8111896088999L179.38752203585884,310.5572487724689L181.02508428292987,309.5316112545555L182.66264653000093,308.38377118011283L184.300208777072,311.3644139113508L185.93777102414302,312.31457604762244L187.57533327121408,314.82685609615464L189.2128955182851,317.98461840777776L190.85045776535614,318.8770290508526L192.4880200124272,312.03062046263915L194.12558225949826,308.4807278863186L195.7631445065693,309.0215453721361L197.40070675364035,312.2501954458078L199.0382690007114,314.12826088839563L200.6758312477824,316.02906770110667L202.31339349485347,312.9819719460155L203.95095574192453,316.17026839299365L205.58851798899556,301.5184274754097L207.22608023606662,307.7571498692314L208.86364248313768,309.61475973645895L210.5012047302087,308.8962375626475L212.13876697727974,312.1170686060001L213.7763292243508,313.9327011140462L215.41389147142183,314.7109385585957L217.0514537184929,317.9159688642957L218.68901596556395,319.30422103033345L220.32657821263498,318.07343253539074L221.96414045970602,316.19434846042765L223.60170270677708,318.30268061857095L225.2392649538481,318.8259292335782L226.87682720091917,319.8374821551811L228.51438944799023,319.9991169376383L230.15195169506126,321.0095956783387L231.78951394213232,323.8124384076351L233.42707618920335,322.77354971703244L235.06463843627438,316.6976413451753L236.70220068334544,315.2135813154259L238.3397629304165,316.8924852575884L239.97732517748753,319.5861214077649L241.6148874245586,321.04594535089814L243.25244967162962,318.9165402378063L244.89001191870068,318.90002227271276L246.5275741657717,321.0705259423496L248.16513641284274,319.44284447536364L249.80269865991383,319.8035776734083L251.44026090698486,322.1606710481205L253.0778231540559,322.01385944032495L254.71538540112695,317.4980982191607L256.352947648198,320.4552719893618L257.99050989526904,321.48931088919505L259.6280721423401,324.3659590290001L261.2656343894111,324.8576196919661L262.90319663648216,322.69410204182316L264.5407588835532,326.2275753467592L266.1783211306243,326.5688455744995L267.8158833776953,327.14210635336053L269.4534456247664,326.34643445339765L271.0910078718374,328.42144111551414L272.7285701189084,327.08959910805754L274.3661323659795,328.70008871079494L276.0036946130505,325.2507729060493L277.6412568601216,327.63242894388026L279.27881910719265,327.2489303576127L280.91638135426365,328.2706182703832L282.5539436013347,325.3482728164257L284.19150584840577,326.58552384540985L285.8290680954768,325.88201911641784L287.46663034254783,327.97924087953004L289.10419258961895,330.1403326658956L290.74175483668995,329.65887315859646L292.37931708376095,329.0088734781205L294.01687933083207,327.8006711498932L295.65444157790307,330.04293413994276L297.29200382497413,330.46279356719174L298.9295660720452,331.12848558602195L300.56712831911625,331.79894341155773L302.2046905661873,331.7216934380692L303.8422528132583,328.9824168217523L305.4798150603294,330.96455943188795L307.11737730740043,331.96329840222063L308.7549395544715,329.6248813154387L310.3925018015425,329.8276101784987L312.0300640486136,330.5890464571887L313.6676262956846,330.3636757558948L315.3051885427556,329.73120203755576L316.94275078982673,331.29843951731624L318.58031303689773,330.8508686437007L320.2178752839688,333.34927665382213L321.85543753103985,332.8176434490088L323.4929997781109,333.37480956241336L325.1305620251819,333.3510703426762L326.768124272253,331.2730311727594L328.40568651932404,328.94654944682947L330.04324876639504,327.09839637418605L331.68081101346615,329.0693925511265L333.31837326053716,330.71162672438015L334.95593550760816,330.26428064136945L336.5934977546793,331.3034868356228L338.2310600017503,330.31826747528066L339.86862224882134,332.10820745653126L341.5061844958924,334.52817997994117L343.14374674296346,335.89748612806454L344.78130899003446,335.72954510178863L346.4188712371055,333.6061960719709L348.0564334841766,335.1434025649687L349.6939957312476,335.6263852845518L351.3315579783187,336.7796862934992L352.9691202253897,328.36665020121626L354.60668247246076,330.0737984712287L356.2442447195318,332.27078610042213L357.8818069666028,331.38012477128353L359.5193692136739,333.4445131963386L361.15693146074494,336.0085418422197L362.794493707816,336.02858012612734L364.432055954887,337.0029287432729L366.0696182019581,331.8446749688036L367.7071804490291,328.810757069882L369.3447426961001,332.70707534338794L370.98230494317124,321.10212964619086L372.61986719024225,323.06911190122986L374.2574294373133,325.1342607828574L375.89499168438437,328.48826349074193L377.53255393145537,331.93617298330526L379.1701161785264,334.2546025784398L380.8076784255975,336.3304223855265L382.44524067266855,339.15213654068776L384.08280291973955,338.7446911423736L385.72036516681067,337.7134367109571L387.35792741388167,337.2694904159784L388.99548966095267,337.68074191523226L390.6330519080238,335.52252175554946L392.2706141550948,336.4285821270963L393.90817640216585,338.14780766909627L395.5457386492369,337.32631105742115L397.18330089630797,336.32280350789904L398.820863143379,331.6976145623713L400.45842539045003,329.992951066561L402.0959876375211,332.3811625725886L403.7335498845921,335.74299916962093L405.3711121316632,334.65840912735416L407.0086743787342,334.34804152657483L408.6462366258053,336.51482773983486L410.28379887287633,336.5544231978665L411.92136111994733,338.5939485394497L413.5589233670184,335.0405156616943L415.19648561408945,333.5663014011952L416.8340478611605,335.21359436226214L418.4716101082315,334.12746329800797L420.10917235530263,336.6748372487927L421.74673460237364,337.10318901091966L423.38429684944464,339.17669292561027L425.02185909651575,338.59602121855403L426.65942134358676,339.19343107759244L428.2969835906578,340.67617788417084L429.9345458377289,341.31950451697645L431.5721080847999,342.20308163713497L433.20967033187094,337.93828300528025L434.847232578942,337.11484015449633L436.48479482601306,339.6691056900919L438.12235707308406,340.5357573558355L439.7599193201552,341.2539768121317L441.3974815672262,335.76030490395027L443.0350438142972,337.52841212104545L444.6726060613683,338.2206483418712L446.3101683084393,338.240955680091L447.94773055551036,338.3777013450859L449.5852928025814,338.468015122478L451.2228550496525,340.0786468607207L452.8604172967235,339.91687734749075L454.49797954379454,340.24209981465543L456.1355417908656,341.73351261326604L457.7731040379366,341.5806341084261L459.4106662850077,340.93402816850977L461.0482285320787,336.9059273374089L462.68579077914984,338.77244257765796L464.32335302622084,338.3199039488594L465.96091527329185,339.360228684987L467.59847752036296,336.8837595652829L469.23603976743397,336.6475843538247L470.873602014505,338.1304182065852L472.5111642615761,337.976301171644L474.1487265086471,339.5761164980138L475.78628875571815,340.6671860105643L477.4238510027892,340.18657207324884L479.06141324986027,340.96008416876487L480.69897549693127,341.6106473512289L482.3365377440024,339.5322022357947L483.9740999910734,336.84685784739867L485.6116622381444,337.2849927914551L487.2492244852155,339.11220093170346L488.88678673228645,339.41643470564657L490.52434897935757,338.76331564856997L492.16191122642863,335.55439097603943L493.79947347349963,334.41140306875883L495.4370357205707,334.98767843387174L497.07459796764175,336.80694458802986L498.71216021471275,337.4184273171228L500.3497224617838,339.8058436892428L501.98728470885493,340.4795064750704L503.6248469559259,340.8513850067537L505.262409202997,335.32574050447926L506.89997145006805,337.0322385324296L508.537533697139,340.51565668892437L510.1750959442101,336.5399586364062L511.8126581912812,338.2243234682464L513.4502204383522,338.67255509276265L515.0877826854232,338.30248267647613L516.7253449324943,340.5485757374534L518.3629071795654,340.5935078505122L520.0004694266364,340.496491673724L521.6380316737075,340.54125030089824L523.2755939207784,341.47531658809845L524.9131561678495,340.7924713640537L526.5507184149207,339.0022343915471L528.1882806619916,339.85465342989613L529.8258429090627,338.7878749073441L531.4634051561337,338.9488548988179L533.1009674032047,337.3285473818843L534.7385296502758,337.6379274161466L536.3760918973469,337.94455280289594L538.0136541444178,340.0734172146753L539.6512163914889,342.32466123570447L541.28877863856,342.4352196580723L542.9263408856311,343.00251122601344L544.5639031327021,343.09967916392094L546.2014653797731,342.56093163677764L547.8390276268442,344.2383756668521L549.4765898739153,345.458101643647L551.1141521209863,342.9253404742354L552.7517143680574,340.6512843249185L554.3892766151283,341.0048237576399L556.0268388621994,339.9320580545047L557.6644011092706,341.7534605908417L559.3019633563415,343.3054642197025L560.9395256034126,341.6483042794848L562.5770878504836,340.9182038029177L564.2146500975546,343.48854777072415L565.8522123446257,344.2404825223399L567.4897745916968,344.8657414532338L569.1273368387677,343.537101680636L570.7648990858388,344.19971696302275L572.4024613329099,346.23185040980957L574.0400235799809,347.18958613546596L575.677585827052,347.6469962288431L577.315148074123,344.04332074166496L578.952710321194,345.0840456398007L580.5902725682652,346.0505168705611L582.2278348153362,341.3529177718642L583.8653970624072,341.20439014659985L585.5029593094782,341.2852303969923L587.1405215565493,343.8070878374913L588.7780838036203,342.5725681917264L590.4156460506914,341.0171740952869L592.0532082977625,341.7013975855877L593.6907705448334,341.7297266707854L595.3283327919045,342.6175129937199L596.9658950389756,342.8144062147563L598.6034572860466,343.20446587078663L600.2410195331177,344.77064551715546L601.8785817801887,343.8663044418385L603.5161440272598,346.1227546099886L605.1537062743308,346.863590097219L606.7912685214019,345.1959500320124L608.4288307684728,345.1584848335246L610.0663930155439,344.6748474680177L611.7039552626151,345.6486611698145L613.341517509686,347.2191560482119L614.9790797567571,345.37182945219865L616.6166420038281,343.85666590462466L618.2542042508991,342.6317256816184L619.8917664979703,344.2889833083575L621.5293287450413,345.0291282604L623.1668909921123,343.56854000571855L624.8044532391833,343.43159339999784L626.4420154862544,344.4372744916226L628.0795777333254,345.5170582904824L629.7171399803965,344.7491136186036L631.3547022274676,344.754708730021L632.9922644745385,344.5210081763406L634.6298267216097,345.7909558869817L636.2673889686807,343.6879353512497L637.9049512157517,345.242341556008L639.5425134628227,344.9606377971756L641.1800757098938,344.9597327618932L642.8176379569649,342.72797815713216L644.4552002040359,341.70636812294174L646.092762451107,344.0442325221315L647.7303246981779,345.1948175792012L649.367886945249,344.4638891894736L651.0054491923202,345.28737821878616L652.6430114393911,345.4987248805054L654.2805736864622,345.57520098784664L655.9181359335332,345.8773908277418L657.5556981806043,347.01594528232687L659.1932604276753,343.17671018009014L660.8308226747464,343.0867435852666L662.4683849218173,344.89196972785527L664.1059471688884,345.9682430339826L665.7435094159596,347.2710369104582L667.3810716630305,347.33317502909784L669.0186339101016,347.4068346607819L670.6561961571726,347.24077363137883L672.2937584042436,349.02413345173636L673.9313206513148,350.0467979004552L675.5688828983858,349.31664824505316L677.2064451454568,350.5780667010819L678.8440073925278,349.09870523966765L680.4815696395989,346.67464874519015L682.11913188667,346.84535741860384L683.756694133741,348.01734086745165L685.3942563808121,348.3899113194398L687.031818627883,346.7405247418613L688.6693808749542,346.11158644047896L690.3069431220252,347.2471251318716L691.9445053690962,347.89403040506727L693.5820676161673,349.18578241882835L695.2196298632383,348.17064066767387L696.8571921103094,348.5282675039878L698.4947543573804,347.2066075635818L700.1323166044515,346.63250934884286L701.7698788515224,347.03216828983255L703.4074410985935,348.11125477199107L705.0450033456647,347.8187819655998L706.6825655927356,348.7093859152381L708.3201278398067,350.41767077165116L709.9576900868777,345.5248789360254L711.5952523339488,345.616348720667L713.2328145810199,347.3783504945878L714.8703768280909,348.84328167187255L716.5079390751619,348.4889221530476L718.1455013222329,348.3807108115339L719.7830635693041,349.69145625985317L721.420625816375,350.60025392954606L723.0581880634461,350.42345872069694L724.6957503105172,349.10104735140555L726.3333125575881,349.536073715925L727.9708748046593,350.6704248113296L729.6084370517303,349.2923731854385L731.2459992988013,350.7376304310131L732.8835615458723,351.84514293841994L734.5211237929434,351.71252205312214L736.1586860400145,351.84619224373773L737.7962482870855,351.24839938493886L739.4338105341566,350.106438739049L741.0713727812275,349.60194034825054L742.7089350282987,347.6968388638013L744.3464972753698,346.44170101260806L745.9840595224407,346.7642776902341L747.6216217695118,349.5021087860385L749.2591840165828,348.5632165885062L750.8967462636539,350.4053941139743L752.5343085107249,350.46814620413005L754.171870757796,350.9183097531801L755.809433004867,349.7348559166649L757.446995251938,350.588410305675L759.0845574990092,351.37256780365914L760.7221197460801,351.73172394134446L762.3596819931512,343.4450331825419L763.9972442402222,344.4566390039195L765.6348064872932,346.573349632569L767.2723687343644,348.1927822442898L768.9099309814354,349.8368432458888L770.5474932285064,349.98182030015323L772.1850554755774,349.4152235378644L773.8226177226486,345.6476940285344L775.4601799697195,346.87246915112115L777.0977422167906,345.241581655339L778.7353044638617,347.933635073366L780.3728667109326,349.6719795815928L782.0104289580038,350.3513728497678L783.6479912050748,349.73651921718596L785.2855534521458,348.9763989546055L786.9231156992169,350.4795467639213L788.5606779462879,350.3524650101748L790.198240193359,351.1842031719682L791.83580244043,350.4258864369052L793.4733646875011,350.5687248064044L795.110926934572,349.4335498210033L796.7484891816432,350.66863412506075L798.3860514287143,350.8600924462729L800.0236136757852,349.84466332636123L801.6611759228563,351.11837221040327L803.2987381699273,352.59914944657936L804.9363004169984,352.3537013027702L806.5738626640695,353.20596433161L808.2114249111405,354.47570962215656L809.8489871582115,354.421068410348L811.4865494052825,353.5694093132978L813.1241116523537,352.5694822837488L814.7616738994246,352.21275507226744L816.3992361464957,349.97843371983384L818.0367983935668,350.67732228205915L819.6743606406377,351.12639060470525L821.3119228877089,344.0456680562812L822.9494851347799,346.4743298077789L824.5870473818509,345.7380370421447L826.2246096289219,346.69988816800117L827.8621718759931,348.0979647086426L829.4997341230641,349.56069485134896L831.1372963701351,351.0563732943686L832.7748586172062,351.38363711192096L834.4124208642771,348.24951116605786L836.0499831113483,350.4993550583078L837.6875453584194,350.8697910156134L839.3251076054903,352.15697472229766L840.9626698525614,352.9459795672549L842.5592930434557,353.2494500283222L844.1968552905266,353.5979789518621L845.8344175375978,354.5704086798305L847.4719797846689,354.05094034999524L849.1095420317398,354.27189595558406L850.7061652226341,355.086757695531L852.3027884135284,354.2360796240278L855.4550957391401,354.47265267590615L857.0517189300344,353.5247669900242L858.6483421209288,352.6259410238808L860.244965311823,351.17885345809145L861.8415885027173,351.1806712213845L863.4791507497883,350.7628212456993L864.993895828329,352.0158959017788L866.5086409068697,351.74925925543084L867.8596297607033,351.3603131352426L870.7253636930776,350.7264383396088L872.0763525469113,352.0592158025153L873.3864023445682,352.63047426268145L875.597111378114,353.08560950523486L876.9481002319477,353.8914655725302L877.9306375801903,354.7095821138214L879.3225654902006,354.5240121376985L882.6795680966964,353.6401634433446L886.4459612649597,354.9694936052076L886.9781689952578,353.8628389475251L893.5284179835419,353.478955362964L894.1425038261935,354.17742267130615L894.8384677811988,353.5099050054825L895.8619441856182,353.6938099022609L897.0901158709215,352.7263627336268L897.7860798259268,352.38374551758676L899.0961296235835,354.1960362362707L900.2424231965333,354.17667427207925L900.6108747021242,353.8290649200991L901.020265263892,354.7817078999501L903.394730522145,354.40192393906125" style="fill: none;" fill="none"></path></g></g></g></g><g opacity="0.20000000298023224"><g><g><g><path stroke="rgb(255, 112, 67)" stroke-width="2px" d="M40.194731034819924,-55.80243827513914L41.832293281890976,7.735476748977817L43.46985552896202,87.39207746872546L45.10741777603307,-8.059922660527832L46.74498002310411,-99.7069834828431L48.38254227017516,63.93553398249554L50.0201045172462,-52.50641704691401L51.65766676431725,139.11752026961818L53.2952290113883,35.50632600683099L54.93279125845934,194.41414382381987L56.570353505530385,178.49261984578237L58.20791575260144,214.2765534652948L59.845477999672475,183.7424509213202L61.48304024674353,185.1593292424994L63.120602493814566,220.39758780941588L64.75816474088562,181.38490153339993L66.39572698795666,216.34805395451502L68.03328923502771,204.68034634524813L69.67085148209875,234.50860396175935L71.3084137291698,231.28470881995722L72.94597597624085,270.4697567989482L74.58353822331189,228.72677360578476L76.22110047038294,274.15931144897974L77.858662717454,283.04650291218655L79.49622496452503,261.90838179985377L81.13378721159607,280.2116786841795L82.77134945866713,197.88907105504626L84.40891170573816,275.61620288027046L86.04647395280921,277.285650614208L87.68403619988027,182.07001394756645L89.32159844695131,278.44889193698026L90.95916069402234,281.0181328831719L92.5967229410934,259.8412690876495L94.23428518816445,288.4763075763743L95.87184743523548,262.5356630994328L97.50940968230654,292.7540592153877L99.14697192937759,282.9449541652867L100.78453417644862,284.1462549164334L102.42209642351968,306.11125314121733L104.05965867059072,276.1589847757586L105.69722091766177,260.6907790158521L107.33478316473281,245.4197776769648L108.97234541180386,286.05312302277486L110.6099076588749,289.73751055826693L112.24746990594595,265.6344478790693L113.885032153017,163.50083485744372L115.52259440008805,279.97976705372264L117.16015664715908,244.36780013049517L118.79771889423013,271.7362870332276L120.43528114130119,304.80999434578723L122.07284338837222,301.12696798199715L123.71040563544328,256.5813109026359L125.34796788251431,286.04750752226295L126.98553012958537,242.02266676366872L128.62309237665642,315.7890771841035L130.26065462372745,305.8773664773105L131.8982168707985,314.6653578820444L133.53577911786957,319.0148512766473L135.1733413649406,229.53993224265074L136.81090361201163,289.64961623181335L138.4484658590827,303.24324835125014L140.08602810615372,316.1626574301367L141.72359035322478,277.2108662395199L143.36115260029584,315.6928983930164L144.99871484736687,299.1556230404053L146.6362770944379,259.3871288285691L148.27383934150896,286.6269236192846L149.91140158858,313.3529908579401L151.54896383565105,321.6846854805833L153.1865260827221,302.9242751111456L154.82408832979314,311.3195551350226L156.4616505768642,315.7759939219793L158.09921282393523,291.68308932022853L159.73677507100626,312.12723705751097L161.37433731807732,313.2316757627554L163.01189956514838,279.4750125590395L164.6494618122194,317.69182440984116L166.28702405929047,329.8464258058892L167.9245863063615,303.46870108853267L169.56214855343254,315.7684140638739L171.1997108005036,293.09001240523406L172.83727304757466,324.9847742101298L174.4748352946457,302.5583547921416L176.11239754171675,283.56528548229295L177.7499597887878,319.8824727953793L179.38752203585884,325.7306802890589L181.02508428292987,305.37726131812724L182.66264653000093,303.73443917026714L184.300208777072,323.4375223295371L185.93777102414302,316.16321257467393L187.57533327121408,325.002859111018L189.2128955182851,330.7751505892219L190.85045776535614,322.49174286546724L192.4880200124272,284.2992079123159L194.12558225949826,294.10187008302734L195.7631445065693,311.2121293291269L197.40070675364035,325.3278588721092L199.0382690007114,321.73537444718136L200.6758312477824,323.72829529473245L202.31339349485347,300.63969520231075L203.95095574192453,329.0844792525891L205.58851798899556,242.171071844688L207.22608023606662,333.02712643234685L208.86364248313768,317.1390178851122L210.5012047302087,305.98585986885485L212.13876697727974,325.16306101345486L213.7763292243508,321.2869297575364L215.41389147142183,317.86319325816294L217.0514537184929,330.89796030431467L218.68901596556395,324.92734344016054L220.32657821263498,313.0881175205811L221.96414045970602,308.5831089245389L223.60170270677708,326.8424906732073L225.2392649538481,320.9453503913217L226.87682720091917,323.93478237296665L228.51438944799023,320.6538194403158L230.15195169506126,325.10254492096095L231.78951394213232,335.1653670383926L233.42707618920335,318.5655258288423L235.06463843627438,292.0871437986025L236.70220068334544,309.2023886696812L238.3397629304165,323.6928941546231L239.97732517748753,330.49670823826847L241.6148874245586,326.9589696054036L243.25244967162962,310.2913740726614L244.89001191870068,318.83311617167715L246.5275741657717,329.8621620183504L248.16513641284274,312.84991247272535L249.80269865991383,321.2647293139727L251.44026090698486,331.7080896669026L253.0778231540559,321.41919828147627L254.71538540112695,299.206984585962L256.352947648198,332.43331928078135L257.99050989526904,325.677690675388L259.6280721423401,336.0178368478061L261.2656343894111,326.8490936904442L262.90319663648216,313.9307628730628L264.5407588835532,340.5399268142267L266.1783211306243,327.9511623555486L267.8158833776953,329.4641020333936L269.4534456247664,323.123561404053L271.0910078718374,336.82626608024856L272.7285701189084,321.6949663303798L274.3661323659795,335.22338498046867L276.0036946130505,311.27930181814014L277.6412568601216,337.27933875368035L279.27881910719265,325.6955673970747L280.91638135426365,332.40897032109973L282.5539436013347,313.5112977958506L284.19150584840577,331.5970153870526L285.8290680954768,323.0324696585817L287.46663034254783,336.474048223045L289.10419258961895,338.8938458611741L290.74175483668995,327.7087189926678L292.37931708376095,326.37604648952606L294.01687933083207,322.90684151737645L295.65444157790307,339.125231705699L297.29200382497413,332.163436297766L298.9295660720452,333.82487447037454L300.56712831911625,334.5146362200409L302.2046905661873,331.4087920303027L303.8422528132583,317.8869630526302L305.4798150603294,338.9932380850637L307.11737730740043,336.0086956456895L308.7549395544715,320.15311109524106L310.3925018015425,330.6487644622061L312.0300640486136,333.67324794966044L313.6676262956846,329.4508105920679L315.3051885427556,327.1693640471118L316.94275078982673,337.6465428444269L318.58031303689773,329.03798055966206L320.2178752839688,343.4690909170411L321.85543753103985,330.66426046789627L323.4929997781109,335.63161371872883L325.1305620251819,333.2549145132358L326.768124272253,322.85592301986395L328.40568651932404,319.5231234660427L330.04324876639504,319.61244301933726L331.68081101346615,337.0529225203499L333.31837326053716,337.36350453725606L334.95593550760816,328.45230307281105L336.5934977546793,335.512796773962L338.2310600017503,326.3276314803597L339.86862224882134,339.3583683906877L341.5061844958924,344.33029090809646L343.14374674296346,341.4438675967259L344.78130899003446,335.0492991266711L346.4188712371055,325.00556010270907L348.0564334841766,341.3698652285254L349.6939957312476,337.5827092295298L351.3315579783187,341.4511378549932L352.9691202253897,294.28960501934296L354.60668247246076,336.98861116087505L356.2442447195318,341.16969558836706L357.8818069666028,327.7724965593183L359.5193692136739,341.80632893822826L361.15693146074494,346.3941528220006L362.794493707816,336.1097452962986L364.432055954887,340.94953273797364L366.0696182019581,310.95114200352896L367.7071804490291,316.5218572974824L369.3447426961001,348.4891321885988L370.98230494317124,274.09623848885735L372.61986719024225,331.036383459519L374.2574294373133,333.49915675793466L375.89499168438437,342.0736683984357L377.53255393145537,345.9019477966174L379.1701161785264,343.6454133627726L380.8076784255975,344.7385409980696L382.44524067266855,350.5815039772502L384.08280291973955,337.09433149869704L385.72036516681067,333.53633542814896L387.35792741388167,335.4712837060141L388.99548966095267,339.34651818998765L390.6330519080238,326.78064009865255L392.2706141550948,340.0985842381095L393.90817640216585,345.1115394099242L395.5457386492369,333.9988348828584L397.18330089630797,332.2580911103397L398.820863143379,312.9632633789711L400.45842539045003,323.0882029673696L402.0959876375211,342.05462533942784L403.7335498845921,349.3601352848729L405.3711121316632,330.2652716834252L407.0086743787342,333.090895992105L408.6462366258053,345.2914062400092L410.28379887287633,336.7148048006009L411.92136111994733,346.85505623616524L413.5589233670184,320.6473178437155L415.19648561408945,327.5949890935168L416.8340478611605,341.8859628207254L418.4716101082315,329.728083936736L420.10917235530263,346.9929883019712L421.74673460237364,338.8382299868075L423.38429684944464,347.5754310043068L425.02185909651575,336.2440075364374L426.65942134358676,341.6132427288488L428.2969835906578,346.6820513128369L429.9345458377289,343.92530229228L431.5721080847999,345.7820152248477L433.20967033187094,320.66369460756584L434.847232578942,333.7794807285938L436.48479482601306,350.01517114235276L438.12235707308406,344.0461343049586L439.7599193201552,344.1631283472304L441.3974815672262,313.50815909404355L443.0350438142972,344.6901393337238L444.6726060613683,341.0245546504686L446.3101683084393,338.3232106561126L447.94773055551036,338.93159035178223L449.5852928025814,338.83383153393504L451.2228550496525,346.6025188509764L452.8604172967235,339.26162911713504L454.49797954379454,341.5594150604437L456.1355417908656,347.77448768642637L457.7731040379366,340.9613989524584L459.4106662850077,338.31494754319203L461.0482285320787,320.5900845770912L462.68579077914984,346.3327719851313L464.32335302622084,336.4868939473624L465.96091527329185,343.5740692828373L467.59847752036296,326.8528088885015L469.23603976743397,335.6909554670092L470.873602014505,344.13664421625145L472.5111642615761,337.352049343246L474.1487265086471,346.05617655735L475.78628875571815,345.0865685816022L477.4238510027892,338.2398428928093L479.06141324986027,344.0931988182795L480.69897549693127,344.245756807472L482.3365377440024,331.1134497985311L483.9740999910734,325.96985683985486L485.6116622381444,339.05966059515873L487.2492244852155,346.5133167321032L488.88678673228645,340.6487351435374L490.52434897935757,336.11785360930014L492.16191122642863,322.5566253832641L493.79947347349963,329.7817247776526L495.4370357205707,337.3218847107433L497.07459796764175,344.17589133366005L498.71216021471275,339.89524119961055L500.3497224617838,349.4760857621731L501.98728470885493,343.2081809914027L503.6248469559259,342.357680877511L505.262409202997,312.9440895407213L506.89997145006805,343.9444174133191L508.537533697139,354.6252595248277L510.1750959442101,320.43637359539815L511.8126581912812,345.0468517265082L513.4502204383522,340.4881195516617L515.0877826854232,336.80350248525514L516.7253449324943,349.6463870248462L518.3629071795654,340.7755056013867L520.0004694266364,340.10352715966275L521.6380316737075,340.72254534632117L523.2755939207784,345.2587568019093L524.9131561678495,338.0266033353474L526.5507184149207,331.7508704928082L528.1882806619916,343.3073810498755L529.8258429090627,334.4668831139767L531.4634051561337,339.6009051673128L533.1009674032047,330.7654836011733L534.7385296502758,338.8910728074517L536.3760918973469,339.186540480537L538.0136541444178,348.6963932664283L539.6512163914889,351.4433365128024L541.28877863856,342.88303710624893L542.9263408856311,345.30032858706784L544.5639031327021,343.4932583871625L546.2014653797731,340.37873205713663L547.8390276268442,351.0328711826083L549.4765898739153,350.39860787288706L551.1141521209863,332.66637856581053L552.7517143680574,331.44020840697846L554.3892766151283,342.43683701543034L556.0268388621994,335.5868151559472L557.6644011092706,349.13106076327733L559.3019633563415,349.59186275680537L560.9395256034126,334.93596957213833L562.5770878504836,337.96092813520636L564.2146500975546,353.89973899385967L565.8522123446257,347.28619803140964L567.4897745916968,347.398355910693L569.1273368387677,338.15543957142677L570.7648990858388,346.88364351087205L572.4024613329099,354.46301719931984L574.0400235799809,351.06889952928617L575.677585827052,349.499738122219L577.315148074123,329.44661498046867L578.952710321194,349.2995070958859L580.5902725682652,349.965213471924L582.2278348153362,322.32526889734453L583.8653970624072,340.60277825032705L585.5029593094782,341.6126742394909L587.1405215565493,354.0218841368862L588.7780838036203,337.5721401316082L590.4156460506914,334.71704245213317L592.0532082977625,344.47284828872523L593.6907705448334,341.84447377345464L595.3283327919045,346.21349597853555L596.9658950389756,343.6119232009744L598.6034572860466,344.7844044775357L600.2410195331177,351.1144640847707L601.8785817801887,340.2032663488881L603.5161440272598,355.2625174122934L605.1537062743308,349.8643479798393L606.7912685214019,338.44116552546814L608.4288307684728,345.0067318578318L610.0663930155439,342.71587187641876L611.7039552626151,349.5930984871937L613.341517509686,353.5804534849529L614.9790797567571,337.8892237451146L616.6166420038281,337.71948830283526L618.2542042508991,337.67009912176445L619.8917664979703,351.00171369545234L621.5293287450413,348.02708912675416L623.1668909921123,337.65241990342275L624.8044532391833,342.87689048187684L626.4420154862544,348.5107908324458L628.0795777333254,349.8907280212175L629.7171399803965,341.6385498466501L631.3547022274676,344.77737175707523L632.9922644745385,343.5744029033525L634.6298267216097,350.9348855028108L636.2673889686807,335.16964004995134L637.9049512157517,351.5384717389179L639.5425134628227,343.8195952992786L641.1800757098938,344.95606691191085L642.8176379569649,333.6882448590599L644.4552002040359,337.5683315198066L646.092762451107,353.51376407844566L647.7303246981779,349.8552681638975L649.367886945249,341.5032600553246L651.0054491923202,348.6229246910521L652.6430114393911,346.3547856012065L654.2805736864622,345.88496784687555L655.9181359335332,347.10141230044843L657.5556981806043,351.6276658508988L659.1932604276753,327.6258690084041L660.8308226747464,342.72233343855726L662.4683849218173,352.2040473357141L664.1059471688884,350.3276934961753L665.7435094159596,352.54801008688946L667.3810716630305,347.58486579247676L669.0186339101016,347.70519337093646L670.6561961571726,346.56814259308976L672.2937584042436,356.2476414109623L673.9313206513148,354.1891054149629L675.5688828983858,346.35917337822247L677.2064451454568,355.6874485280267L678.8440073925278,343.1065441686868L680.4815696395989,336.85599567159943L682.11913188667,347.5368137624309L683.756694133741,352.764465746118L685.3942563808121,349.899009816887L687.031818627883,340.0596760791443L688.6693808749542,343.5640686742735L690.3069431220252,351.84663033640163L691.9445053690962,350.51432348134455L693.5820676161673,354.4180304745677L695.2196298632383,344.05880387764404L696.8571921103094,349.9768368106738L698.4947543573804,341.8532172999171L700.1323166044515,344.3071216305566L701.7698788515224,348.6509888487911L703.4074410985935,352.4821000179058L705.0450033456647,346.6341193861765L706.6825655927356,352.31678171124776L708.3201278398067,357.33708721025346L709.9576900868777,325.70660089475354L711.5952523339488,345.9868475453265L713.2328145810199,354.5153475788527L714.8703768280909,354.7769928041066L716.5079390751619,347.0535871323529L718.1455013222329,347.9424002262106L719.7830635693041,355.00063731819677L721.420625816375,354.28134348052447L723.0581880634461,349.7073488343484L724.6957503105172,343.74461342124545L726.3333125575881,351.2981502025138L727.9708748046593,355.26511965231197L729.6084370517303,343.7105681149099L731.2459992988013,356.59165220349183L732.8835615458723,356.331127943169L734.5211237929434,351.175340487421L736.1586860400145,352.38762402592823L737.7962482870855,348.82703639121803L739.4338105341566,345.480921375394L741.0713727812275,347.5584670683497L742.7089350282987,339.98021567931505L744.3464972753698,341.35775880726965L745.9840595224407,348.0708761521337L747.6216217695118,360.59170746702387L749.2591840165828,344.760229000522L750.8967462636539,357.8671434848097L752.5343085107249,350.7223238622357L754.171870757796,352.74169948216047L755.809433004867,344.94127017482054L757.446995251938,354.0457366692412L759.0845574990092,354.5488017096353L760.7221197460801,353.18648769095876L762.3596819931512,309.87975041203856L763.9972442402222,348.55415349253L765.6348064872932,355.1470967243713L767.2723687343644,354.7523022170174L768.9099309814354,356.4961206362042L770.5474932285064,350.56905059065866L772.1850554755774,347.1202204906136L773.8226177226486,330.38729672306624L775.4601799697195,351.8334269708919L777.0977422167906,338.635663616868L778.7353044638617,358.83781103931375L780.3728667109326,356.713152791683L782.0104289580038,353.1032587137898L783.6479912050748,347.24605147309205L785.2855534521458,345.89752799203194L786.9231156992169,356.5680545572104L788.5606779462879,349.8377197247978L790.198240193359,354.55316279701003L791.83580244043,347.35432067165016L793.4733646875011,351.14729234346675L795.110926934572,344.8355178094291L796.7484891816432,355.671349336445L798.3860514287143,351.63559534330415L800.0236136757852,345.731662547729L801.6611759228563,356.2775364780887L803.2987381699273,358.59704512038337L804.9363004169984,351.35951235663424L806.5738626640695,356.65806003428423L808.2114249111405,359.6188193343705L809.8489871582115,354.1997439059517L811.4865494052825,350.11975983938714L813.1241116523537,348.5192728004244L814.7616738994246,350.76782970050954L816.3992361464957,340.92830379735017L818.0367983935668,353.5081739330929L819.6743606406377,352.94534411360513L821.3119228877089,315.36516561266467L822.9494851347799,356.31163649818876L824.5870473818509,342.7556794762929L826.2246096289219,350.5958710111169L827.8621718759931,353.7608807975035L829.4997341230641,355.4854906819069L831.1372963701351,357.1146263817513L832.7748586172062,352.7092208577643L834.4124208642771,335.55471819342046L836.0499831113483,359.6123591067141L837.6875453584194,352.37024373156817L839.3251076054903,357.37071882715014L840.9626698525614,356.141847676627L842.5592930434557,354.47865866355465L844.1968552905266,355.0096971169076L845.8344175375978,358.5092402042278L847.4719797846689,351.94683125642007L849.1095420317398,355.1668777519588L850.7061652226341,358.38735928864935L852.3027884135284,350.79040379905035L855.4550957391401,355.43089301735273L857.0517189300344,349.68535123205794L858.6483421209288,348.98524190849196L860.244965311823,345.3174179643387L861.8415885027173,351.1880340807835L863.4791507497883,349.07031780883307L864.993895828329,357.0914811248885L866.5086409068697,350.66924617274884L867.8596297607033,349.78488491104594L870.7253636930776,348.15892527850633L872.0763525469113,357.45763764721727L873.3864023445682,354.944359540728L875.597111378114,354.9291371038603L876.9481002319477,357.1555896430901L877.9306375801903,358.0233672962232L879.3225654902006,353.77236001219063L882.6795680966964,350.06012984298167L886.4459612649597,360.35395213962266L886.9781689952578,349.3803286674172L893.5284179835419,351.92403296489306L894.1425038261935,357.00656803135877L894.8384677811988,350.80612132876263L895.8619441856182,354.43871761547445L897.0901158709215,348.8077130909774L897.7860798259268,350.9959727536267L899.0961296235835,361.5367289452832L900.2424231965333,354.0982485383343L900.6108747021242,352.4210714843005L901.020265263892,358.6403931011649L903.394730522145,352.86360708738016" style="fill: none;" fill="none"></path></g></g></g></g></g></g><g transform="translate(58, 377)" clip-path="url(#clip_1)"><clipPath id="clip_1"><rect width="970" height="22"></rect></clipPath><g><g><line x1="33.68542110271252" y1="0" x2="33.68542110271252" y2="5" style="visibility: inherit;" fill="rgb(0, 0, 0)" stroke="rgb(204, 204, 204)" stroke-width="1px"></line><line x1="115.5635334562648" y1="0" x2="115.5635334562648" y2="5" style="visibility: inherit;" fill="rgb(0, 0, 0)" stroke="rgb(204, 204, 204)" stroke-width="1px"></line><line x1="197.44164580981712" y1="0" x2="197.44164580981712" y2="5" style="visibility: inherit;" fill="rgb(0, 0, 0)" stroke="rgb(204, 204, 204)" stroke-width="1px"></line><line x1="279.31975816336944" y1="0" x2="279.31975816336944" y2="5" style="visibility: inherit;" fill="rgb(0, 0, 0)" stroke="rgb(204, 204, 204)" stroke-width="1px"></line><line x1="361.19787051692174" y1="0" x2="361.19787051692174" y2="5" style="visibility: inherit;" fill="rgb(0, 0, 0)" stroke="rgb(204, 204, 204)" stroke-width="1px"></line><line x1="443.075982870474" y1="0" x2="443.075982870474" y2="5" style="visibility: inherit;" fill="rgb(0, 0, 0)" stroke="rgb(204, 204, 204)" stroke-width="1px"></line><line x1="524.9540952240263" y1="0" x2="524.9540952240263" y2="5" style="visibility: inherit;" fill="rgb(0, 0, 0)" stroke="rgb(204, 204, 204)" stroke-width="1px"></line><line x1="606.8322075775786" y1="0" x2="606.8322075775786" y2="5" style="visibility: inherit;" fill="rgb(0, 0, 0)" stroke="rgb(204, 204, 204)" stroke-width="1px"></line><line x1="688.7103199311309" y1="0" x2="688.7103199311309" y2="5" style="visibility: inherit;" fill="rgb(0, 0, 0)" stroke="rgb(204, 204, 204)" stroke-width="1px"></line><line x1="770.5884322846831" y1="0" x2="770.5884322846831" y2="5" style="visibility: inherit;" fill="rgb(0, 0, 0)" stroke="rgb(204, 204, 204)" stroke-width="1px"></line><line x1="852.4665446382355" y1="0" x2="852.4665446382355" y2="5" style="visibility: inherit;" fill="rgb(0, 0, 0)" stroke="rgb(204, 204, 204)" stroke-width="1px"></line><line x1="934.3446569917878" y1="0" x2="934.3446569917878" y2="5" style="visibility: inherit;" fill="rgb(0, 0, 0)" stroke="rgb(204, 204, 204)" stroke-width="1px"></line></g><g transform="translate(0, 8)"><text x="33.68542110271252" y="0" dx="0em" dy="0.95em" style="text-anchor: middle; visibility: inherit; font-family: &quot;Helvetica Neue&quot;, sans-serif; font-size: 12px; font-weight: 200;" fill="rgb(50, 49, 63)" stroke="none" stroke-width="1px">0</text><text x="115.5635334562648" y="0" dx="0em" dy="0.95em" style="text-anchor: middle; visibility: inherit; font-family: &quot;Helvetica Neue&quot;, sans-serif; font-size: 12px; font-weight: 200;" fill="rgb(50, 49, 63)" stroke="none" stroke-width="1px">2k</text><text x="197.44164580981712" y="0" dx="0em" dy="0.95em" style="text-anchor: middle; visibility: inherit; font-family: &quot;Helvetica Neue&quot;, sans-serif; font-size: 12px; font-weight: 200;" fill="rgb(50, 49, 63)" stroke="none" stroke-width="1px">4k</text><text x="279.31975816336944" y="0" dx="0em" dy="0.95em" style="text-anchor: middle; visibility: inherit; font-family: &quot;Helvetica Neue&quot;, sans-serif; font-size: 12px; font-weight: 200;" fill="rgb(50, 49, 63)" stroke="none" stroke-width="1px">6k</text><text x="361.19787051692174" y="0" dx="0em" dy="0.95em" style="text-anchor: middle; visibility: inherit; font-family: &quot;Helvetica Neue&quot;, sans-serif; font-size: 12px; font-weight: 200;" fill="rgb(50, 49, 63)" stroke="none" stroke-width="1px">8k</text><text x="443.075982870474" y="0" dx="0em" dy="0.95em" style="text-anchor: middle; visibility: inherit; font-family: &quot;Helvetica Neue&quot;, sans-serif; font-size: 12px; font-weight: 200;" fill="rgb(50, 49, 63)" stroke="none" stroke-width="1px">10k</text><text x="524.9540952240263" y="0" dx="0em" dy="0.95em" style="text-anchor: middle; visibility: inherit; font-family: &quot;Helvetica Neue&quot;, sans-serif; font-size: 12px; font-weight: 200;" fill="rgb(50, 49, 63)" stroke="none" stroke-width="1px">12k</text><text x="606.8322075775786" y="0" dx="0em" dy="0.95em" style="text-anchor: middle; visibility: inherit; font-family: &quot;Helvetica Neue&quot;, sans-serif; font-size: 12px; font-weight: 200;" fill="rgb(50, 49, 63)" stroke="none" stroke-width="1px">14k</text><text x="688.7103199311309" y="0" dx="0em" dy="0.95em" style="text-anchor: middle; visibility: inherit; font-family: &quot;Helvetica Neue&quot;, sans-serif; font-size: 12px; font-weight: 200;" fill="rgb(50, 49, 63)" stroke="none" stroke-width="1px">16k</text><text x="770.5884322846831" y="0" dx="0em" dy="0.95em" style="text-anchor: middle; visibility: inherit; font-family: &quot;Helvetica Neue&quot;, sans-serif; font-size: 12px; font-weight: 200;" fill="rgb(50, 49, 63)" stroke="none" stroke-width="1px">18k</text><text x="852.4665446382355" y="0" dx="0em" dy="0.95em" style="text-anchor: middle; visibility: inherit; font-family: &quot;Helvetica Neue&quot;, sans-serif; font-size: 12px; font-weight: 200;" fill="rgb(50, 49, 63)" stroke="none" stroke-width="1px">20k</text><text x="934.3446569917878" y="0" dx="0em" dy="0.95em" style="text-anchor: middle; visibility: inherit; font-family: &quot;Helvetica Neue&quot;, sans-serif; font-size: 12px; font-weight: 200;" fill="rgb(50, 49, 63)" stroke="none" stroke-width="1px">22k</text></g><line x1="0" y1="0" x2="970.40625" y2="0" fill="rgb(0, 0, 0)" stroke="rgb(204, 204, 204)" stroke-width="1px"></line></g></g></g></g></svg>