<svg viewBox="0 0 330 200" xmlns="http://www.w3.org/2000/svg"><g><g><g><g><g><line x1="58.59375" y1="177.828125" x2="53.59375" y2="177.828125" style="visibility: inherit;" fill="rgb(0, 0, 0)" stroke="rgb(204, 204, 204)" stroke-width="1px"></line><line x1="58.59375" y1="164.14903846153845" x2="53.59375" y2="164.14903846153845" style="visibility: inherit;" fill="rgb(0, 0, 0)" stroke="rgb(204, 204, 204)" stroke-width="1px"></line><line x1="58.59375" y1="150.46995192307693" x2="53.59375" y2="150.46995192307693" style="visibility: inherit;" fill="rgb(0, 0, 0)" stroke="rgb(204, 204, 204)" stroke-width="1px"></line><line x1="58.59375" y1="136.7908653846154" x2="53.59375" y2="136.7908653846154" style="visibility: inherit;" fill="rgb(0, 0, 0)" stroke="rgb(204, 204, 204)" stroke-width="1px"></line><line x1="58.59375" y1="123.11177884615385" x2="53.59375" y2="123.11177884615385" style="visibility: inherit;" fill="rgb(0, 0, 0)" stroke="rgb(204, 204, 204)" stroke-width="1px"></line><line x1="58.59375" y1="109.43269230769232" x2="53.59375" y2="109.43269230769232" style="visibility: inherit;" fill="rgb(0, 0, 0)" stroke="rgb(204, 204, 204)" stroke-width="1px"></line><line x1="58.59375" y1="95.75360576923077" x2="53.59375" y2="95.75360576923077" style="visibility: inherit;" fill="rgb(0, 0, 0)" stroke="rgb(204, 204, 204)" stroke-width="1px"></line><line x1="58.59375" y1="82.07451923076924" x2="53.59375" y2="82.07451923076924" style="visibility: inherit;" fill="rgb(0, 0, 0)" stroke="rgb(204, 204, 204)" stroke-width="1px"></line><line x1="58.59375" y1="68.39543269230771" x2="53.59375" y2="68.39543269230771" style="visibility: inherit;" fill="rgb(0, 0, 0)" stroke="rgb(204, 204, 204)" stroke-width="1px"></line><line x1="58.59375" y1="54.71634615384616" x2="53.59375" y2="54.71634615384616" style="visibility: inherit;" fill="rgb(0, 0, 0)" stroke="rgb(204, 204, 204)" stroke-width="1px"></line><line x1="58.59375" y1="41.03725961538464" x2="53.59375" y2="41.03725961538464" style="visibility: inherit;" fill="rgb(0, 0, 0)" stroke="rgb(204, 204, 204)" stroke-width="1px"></line><line x1="58.59375" y1="27.358173076923094" x2="53.59375" y2="27.358173076923094" style="visibility: inherit;" fill="rgb(0, 0, 0)" stroke="rgb(204, 204, 204)" stroke-width="1px"></line><line x1="58.59375" y1="13.679086538461547" x2="53.59375" y2="13.679086538461547" style="visibility: inherit;" fill="rgb(0, 0, 0)" stroke="rgb(204, 204, 204)" stroke-width="1px"></line><line x1="58.59375" y1="0" x2="53.59375" y2="0" style="visibility: inherit;" fill="rgb(0, 0, 0)" stroke="rgb(204, 204, 204)" stroke-width="1px"></line></g><g transform="translate(48.59375, 0)"><text x="0" y="177.828125" dx="0em" dy="0.3em" style="text-anchor: end; visibility: hidden; font-family: &quot;Helvetica Neue&quot;, sans-serif; font-size: 12px; font-weight: 200;" fill="rgb(50, 49, 63)" stroke="none" stroke-width="1px">-1e-3</text><text x="0" y="164.14903846153845" dx="0em" dy="0.3em" style="text-anchor: end; visibility: inherit; font-family: &quot;Helvetica Neue&quot;, sans-serif; font-size: 12px; font-weight: 200;" fill="rgb(50, 49, 63)" stroke="none" stroke-width="1px">0</text><text x="0" y="150.46995192307693" dx="0em" dy="0.3em" style="text-anchor: end; visibility: hidden; font-family: &quot;Helvetica Neue&quot;, sans-serif; font-size: 12px; font-weight: 200;" fill="rgb(50, 49, 63)" stroke="none" stroke-width="1px">1e-3</text><text x="0" y="136.7908653846154" dx="0em" dy="0.3em" style="text-anchor: end; visibility: inherit; font-family: &quot;Helvetica Neue&quot;, sans-serif; font-size: 12px; font-weight: 200;" fill="rgb(50, 49, 63)" stroke="none" stroke-width="1px">2e-3</text><text x="0" y="123.11177884615385" dx="0em" dy="0.3em" style="text-anchor: end; visibility: hidden; font-family: &quot;Helvetica Neue&quot;, sans-serif; font-size: 12px; font-weight: 200;" fill="rgb(50, 49, 63)" stroke="none" stroke-width="1px">3e-3</text><text x="0" y="109.43269230769232" dx="0em" dy="0.3em" style="text-anchor: end; visibility: inherit; font-family: &quot;Helvetica Neue&quot;, sans-serif; font-size: 12px; font-weight: 200;" fill="rgb(50, 49, 63)" stroke="none" stroke-width="1px">4e-3</text><text x="0" y="95.75360576923077" dx="0em" dy="0.3em" style="text-anchor: end; visibility: hidden; font-family: &quot;Helvetica Neue&quot;, sans-serif; font-size: 12px; font-weight: 200;" fill="rgb(50, 49, 63)" stroke="none" stroke-width="1px">5e-3</text><text x="0" y="82.07451923076924" dx="0em" dy="0.3em" style="text-anchor: end; visibility: inherit; font-family: &quot;Helvetica Neue&quot;, sans-serif; font-size: 12px; font-weight: 200;" fill="rgb(50, 49, 63)" stroke="none" stroke-width="1px">6e-3</text><text x="0" y="68.39543269230771" dx="0em" dy="0.3em" style="text-anchor: end; visibility: hidden; font-family: &quot;Helvetica Neue&quot;, sans-serif; font-size: 12px; font-weight: 200;" fill="rgb(50, 49, 63)" stroke="none" stroke-width="1px">7e-3</text><text x="0" y="54.71634615384616" dx="0em" dy="0.3em" style="text-anchor: end; visibility: inherit; font-family: &quot;Helvetica Neue&quot;, sans-serif; font-size: 12px; font-weight: 200;" fill="rgb(50, 49, 63)" stroke="none" stroke-width="1px">8e-3</text><text x="0" y="41.03725961538464" dx="0em" dy="0.3em" style="text-anchor: end; visibility: hidden; font-family: &quot;Helvetica Neue&quot;, sans-serif; font-size: 12px; font-weight: 200;" fill="rgb(50, 49, 63)" stroke="none" stroke-width="1px">9e-3</text><text x="0" y="27.358173076923094" dx="0em" dy="0.3em" style="text-anchor: end; visibility: inherit; font-family: &quot;Helvetica Neue&quot;, sans-serif; font-size: 12px; font-weight: 200;" fill="rgb(50, 49, 63)" stroke="none" stroke-width="1px">0.01</text><text x="0" y="13.679086538461547" dx="0em" dy="0.3em" style="text-anchor: end; visibility: hidden; font-family: &quot;Helvetica Neue&quot;, sans-serif; font-size: 12px; font-weight: 200;" fill="rgb(50, 49, 63)" stroke="none" stroke-width="1px">0.011</text><text x="0" y="0" dx="0em" dy="0.3em" style="text-anchor: end; visibility: hidden; font-family: &quot;Helvetica Neue&quot;, sans-serif; font-size: 12px; font-weight: 200;" fill="rgb(50, 49, 63)" stroke="none" stroke-width="1px">0.012</text></g><line x1="58.59375" y1="0" x2="58.59375" y2="177.828125" fill="rgb(0, 0, 0)" stroke="rgb(204, 204, 204)" stroke-width="1px"></line></g></g><g transform="translate(58, 0)" clip-path="url(#clip_0)"><clipPath id="clip_0"><rect width="271" height="177"></rect></clipPath><g><g><g><line x1="0" y1="0" x2="0" y2="177.828125" fill="rgb(0, 0, 0)" stroke="rgb(60, 60, 60)" stroke-width="1px" opacity="0.25"></line><line x1="30.15625" y1="0" x2="30.15625" y2="177.828125" fill="rgb(0, 0, 0)" stroke="rgb(60, 60, 60)" stroke-width="1px" opacity="0.25"></line><line x1="60.3125" y1="0" x2="60.3125" y2="177.828125" fill="rgb(0, 0, 0)" stroke="rgb(60, 60, 60)" stroke-width="1px" opacity="0.25"></line><line x1="90.46875" y1="0" x2="90.46875" y2="177.828125" fill="rgb(0, 0, 0)" stroke="rgb(60, 60, 60)" stroke-width="1px" opacity="0.25"></line><line x1="120.625" y1="0" x2="120.625" y2="177.828125" fill="rgb(0, 0, 0)" stroke="rgb(60, 60, 60)" stroke-width="1px" opacity="0.25"></line><line x1="150.78125" y1="0" x2="150.78125" y2="177.828125" fill="rgb(0, 0, 0)" stroke="rgb(60, 60, 60)" stroke-width="1px" opacity="0.25"></line><line x1="180.9375" y1="0" x2="180.9375" y2="177.828125" fill="rgb(0, 0, 0)" stroke="rgb(60, 60, 60)" stroke-width="1px" opacity="0.25"></line><line x1="211.09375" y1="0" x2="211.09375" y2="177.828125" fill="rgb(0, 0, 0)" stroke="rgb(60, 60, 60)" stroke-width="1px" opacity="0.25"></line><line x1="241.25" y1="0" x2="241.25" y2="177.828125" fill="rgb(0, 0, 0)" stroke="rgb(60, 60, 60)" stroke-width="1px" opacity="0.25"></line><line x1="271.40625" y1="0" x2="271.40625" y2="177.828125" fill="rgb(0, 0, 0)" stroke="rgb(60, 60, 60)" stroke-width="1px" opacity="0.25"></line></g><g><line x1="0" y1="177.828125" x2="271.40625" y2="177.828125" fill="rgb(0, 0, 0)" stroke="rgb(60, 60, 60)" stroke-width="1px" opacity="0.25"></line><line x1="0" y1="164.14903846153845" x2="271.40625" y2="164.14903846153845" fill="rgb(0, 0, 0)" stroke="rgb(60, 60, 60)" stroke-width="1px" opacity="0.25"></line><line x1="0" y1="150.46995192307693" x2="271.40625" y2="150.46995192307693" fill="rgb(0, 0, 0)" stroke="rgb(60, 60, 60)" stroke-width="1px" opacity="0.25"></line><line x1="0" y1="136.7908653846154" x2="271.40625" y2="136.7908653846154" fill="rgb(0, 0, 0)" stroke="rgb(60, 60, 60)" stroke-width="1px" opacity="0.25"></line><line x1="0" y1="123.11177884615385" x2="271.40625" y2="123.11177884615385" fill="rgb(0, 0, 0)" stroke="rgb(60, 60, 60)" stroke-width="1px" opacity="0.25"></line><line x1="0" y1="109.43269230769232" x2="271.40625" y2="109.43269230769232" fill="rgb(0, 0, 0)" stroke="rgb(60, 60, 60)" stroke-width="1px" opacity="0.25"></line><line x1="0" y1="95.75360576923077" x2="271.40625" y2="95.75360576923077" fill="rgb(0, 0, 0)" stroke="rgb(60, 60, 60)" stroke-width="1px" opacity="0.25"></line><line x1="0" y1="82.07451923076924" x2="271.40625" y2="82.07451923076924" fill="rgb(0, 0, 0)" stroke="rgb(60, 60, 60)" stroke-width="1px" opacity="0.25"></line><line x1="0" y1="68.39543269230771" x2="271.40625" y2="68.39543269230771" fill="rgb(0, 0, 0)" stroke="rgb(60, 60, 60)" stroke-width="1px" opacity="0.25"></line><line x1="0" y1="54.71634615384616" x2="271.40625" y2="54.71634615384616" fill="rgb(0, 0, 0)" stroke="rgb(60, 60, 60)" stroke-width="1px" opacity="0.25"></line><line x1="0" y1="41.03725961538464" x2="271.40625" y2="41.03725961538464" fill="rgb(0, 0, 0)" stroke="rgb(60, 60, 60)" stroke-width="1px" opacity="0.25"></line><line x1="0" y1="27.358173076923094" x2="271.40625" y2="27.358173076923094" fill="rgb(0, 0, 0)" stroke="rgb(60, 60, 60)" stroke-width="1px" opacity="0.25"></line><line x1="0" y1="13.679086538461547" x2="271.40625" y2="13.679086538461547" fill="rgb(0, 0, 0)" stroke="rgb(60, 60, 60)" stroke-width="1px" opacity="0.25"></line><line x1="0" y1="0" x2="271.40625" y2="0" fill="rgb(0, 0, 0)" stroke="rgb(60, 60, 60)" stroke-width="1px" opacity="0.25"></line></g></g></g><g><g><line x1="0" y1="164.14903846153845" x2="271.40625" y2="164.14903846153845" fill="rgb(0, 0, 0)" stroke="rgb(153, 153, 153)" stroke-width="1.5px"></line></g></g><g><g><line x1="30.15625" y1="0" x2="30.15625" y2="177.828125" fill="rgb(0, 0, 0)" stroke="rgb(153, 153, 153)" stroke-width="1.5px"></line></g></g><g><g><g><g><g><path stroke="rgb(255, 112, 67)" stroke-width="2px" d="M38.361765625,-0.9875659213625738L38.723640624999994,2.0183237340250173L38.844265625000006,4.974213061100727L38.964890625,4.716043254011055L39.085515625,9.27634337618133L39.326765625,11.78801533171415L39.688640625,9.828224278937313L40.291765625000004,13.658487161848L40.412390625,17.64107996200434L40.533015625,19.321920187148493L40.653640625,25.0718515363084L40.774265625,24.34164829254084L40.894890624999995,26.209995035248824L41.498015625,28.76021495857097L42.463015625,33.87491610744641L42.704265625000005,37.45197288081039L42.824890625,41.46143477890968L42.945515625,38.29375763390422L43.789890625000005,42.053022757404335L44.151765625,43.030001781399875L44.393015625,43.5741871106888L44.513640625,44.50568382531239L44.634265625,45.58787504918709L45.116765625000006,46.62962513771643L45.237390625,47.27022150976944L45.358015625,48.85481389187086L45.719890625,50.60155964809945L45.840515625,50.254575279524445L46.202390625,50.983241019924506L46.684890625,50.93083601693081L46.926140625,50.69034355468813L47.167390624999996,50.55701132485987L47.288015625,50.15643755410234L47.408640625,52.99057025061643L47.529265625,51.626766321996996L47.770515625,53.19085821289946L48.011765625,55.85578852911942L48.253015624999996,55.88887430814705L48.614890624999994,57.921522648600586L48.735515625000005,58.898681035168835L48.856140625,60.14459211592495L49.097390625,62.422474036893576L49.218015625,65.10969655039767L49.338640625,63.64680118662598L49.700515625,64.81404325649379L49.941765624999995,64.84214171881077L50.062390625000006,65.73133599182096L50.303640625,66.02460217325438L50.424265625000004,66.97503064742803L50.786140625,64.55281083786446L51.268640625,66.71514878438487L51.389265625,66.94887257282656L51.509890625000004,68.90036533399714L51.630515625,70.486149691543L51.871765625,69.97028404087395L51.992390625,69.1642828945099L52.233640625,71.45554989078533L52.474890625,69.022246068454L52.595515625000004,70.75860970650436L52.716140625,72.61947266289215L52.836765625,72.76511854169293L53.078015625,71.47736789989241L53.198640624999996,71.58828859629259L54.043015625,74.20049694228689L54.525515625,75.23314813933057L55.008015625000006,75.19092999858562L55.128640625,75.62350715650899L55.249265625,75.88249414257103L55.731765625,76.91951214182808L55.852390625,77.46006169131599L55.973015624999995,77.86533074364836L56.093640625,75.07136564611102L56.455515625000004,76.73206309618043L56.576140625,77.96037902034654L56.938015625,78.1323100700847L57.058640624999995,78.13391688229936L57.299890624999996,77.94744404736011L57.42051562499999,76.7278918979332L57.541140625000004,76.02570711897835L57.782390625000005,76.22870071184492L57.903015625,77.2215271825925L58.023640625,77.91017942064335L58.144265625,78.07979585153869L58.264890625,80.29231567013488L58.385515625,82.11580326127502L58.747390625,82.8123894663829L58.868015625000005,81.12367466503247L59.109265625,82.11093613374778L59.591765625,81.8309491298387L59.712390625,82.49737869844654L59.953640625000006,82.93697902579997L60.194890625,82.57640632242959L60.315515625,84.9019989974504L60.918640624999995,85.17325296093142L61.280515625,84.73007026777357L61.401140625000004,84.7147700451885L61.521765625,84.51405597588277L61.642390625,87.17870948880767L61.883640625,87.28072740215929L62.366140625,87.11155778392468L62.607390625,87.22044390229175L62.848640625,86.91262270794518L63.089890625,86.89702311729152L63.572390625,86.88532209878812L63.693015625,88.28148729526781L63.934265625,89.0568952254644L64.416765625,87.9452773234412L65.019890625,86.13489614744526L65.261140625,87.3341907199529L65.381765625,88.59197020523152L65.743640625,90.80660133988529L65.98489062499999,90.39764972970735L66.105515625,91.29583996143775L66.226140625,91.06164921916138L66.46739062500001,90.99089322539777L66.588015625,89.41012439999756L66.708640625,90.22173414046028L67.191140625,90.8395740556158L67.31176562499999,91.48889673422256L67.553015625,92.00310681021689L67.914890625,92.5058886118689L68.397390625,92.8035451596477L68.518015625,91.85784516261144L68.63864062500001,91.9396233668991L68.759265625,92.28906794989831L69.00051562499999,91.24205518393646L69.362390625,91.98993752163906L69.48301562500001,92.62619241674645L69.603640625,94.32576919215077L69.96551562500001,94.87261012360808L70.086140625,95.42533643504885L70.32739062499999,95.55544661364691L71.051140625,95.26441018567765L71.292390625,95.5151387314902L71.533640625,94.72773815761776L71.654265625,93.9112366799635L71.774890625,94.18762905429297L72.01614062499999,94.3497974207136L72.13676562500001,94.43905623274017L72.739890625,95.16951410102233L72.860515625,94.0475752525115L73.101765625,94.51332490218118L73.34301562499999,95.05802821665924L73.46364062500001,94.85134122048112L73.584265625,95.8955840808475L73.946140625,95.66013869923064L74.06676562499999,96.80979461519193L74.187390625,96.94125581787561L74.428640625,97.11408265716321L74.549265625,97.74509583649055L74.790515625,98.00731515687899L74.911140625,98.27879081428966L75.152390625,97.76913171659301L75.39364062499999,98.88953631228908L75.63489062500001,98.99507603453053L75.755515625,98.75424143454242L75.876140625,95.98477324028188L76.117390625,97.10046768557714L76.23801562499999,98.61414890612035L76.599890625,98.5986454608146L76.72051562499999,98.42153860919505L76.841140625,99.28589894521242L76.96176562500001,99.79620499289729L77.203015625,101.12073977475335L77.323640625,101.57955255082045L77.444265625,101.45038683454402L77.56489062499999,100.07197193614239L78.650515625,102.27320213294794L78.771140625,101.23712077736452L79.012390625,101.15104027503749L79.374265625,101.88374366793997L80.21864062499999,102.22543476424975L80.339265625,101.93105347088434L80.821765625,102.27226661845341L80.942390625,102.6986282898995L81.06301562499999,102.80669246842224L81.304265625,102.46947326612391L81.545515625,101.00812427504339L81.786765625,100.92944530922338L82.02801562500001,102.0117554594654L83.113640625,101.38447785678942L83.23426562499999,102.4068777417878L83.35489062500001,103.3262103553811L83.475515625,102.75501205998145L83.716765625,103.22190035108866L83.837390625,102.85121061633578L84.19926562500001,102.3638686235582L84.561140625,103.53587395902993L85.28489062499999,104.20371102764764L85.405515625,105.23228156704239L85.52614062500001,104.84483709628572L85.646765625,105.84058055227169L85.767390625,105.90646169820094L86.008640625,106.36172713221266L86.129265625,106.06609817255193L86.249890625,104.55292304090322L86.491140625,105.81328145674648L86.61176562499999,107.06551186663299L86.732390625,107.37832358073771L86.973640625,106.80311706567635L87.214890625,105.99471655058437L87.335515625,106.70979176098325L87.818015625,106.22781674836988L88.662390625,105.83778838962779L89.024265625,104.88528117522952L89.144890625,106.87972630768758L89.386140625,107.85846245009905L89.627390625,106.9802443267392L89.989265625,107.69073175757144L90.833640625,108.9710174474732L91.195515625,107.90008572685154L91.316140625,106.85857049855431L91.678015625,106.4645249666007L91.798640625,106.43114852122642L91.91926562500001,106.82227797770955L92.160515625,107.58431706210352L92.28114062499999,108.6475589314789L92.40176562500001,109.12542620112492L92.522390625,109.98356409734859L92.763640625,109.984191013216L93.366765625,109.40583295229439L93.487390625,110.83471683066382L94.211140625,110.14218248313492L94.45239062499999,110.10324592543574L94.57301562500001,109.88973809003522L94.693640625,110.35693388847226L94.814265625,110.55602104629024L94.934890625,109.93676364774821L95.055515625,109.02027753939781L95.17614062499999,109.86035079092794L95.296765625,109.15779422981832L95.41739062500001,109.62692199152045L95.538015625,111.41772315829776L95.779265625,111.73978169366305L96.141140625,112.28688700780673L96.261765625,113.29890216217326L96.382390625,112.401195118231L96.623640625,111.83320610574138L96.74426562500001,112.39882992785157L97.106140625,112.71126229635288L97.347390625,112.04577591516095L97.588640625,111.69701637691884L97.709265625,111.54498870792024L98.07114062500001,108.09380053041266L98.191765625,109.38296040389223L98.312390625,110.06544263259494L98.553640625,111.30820441519275L98.67426562499999,110.0989436017757L98.79489062500001,110.87933894546774L99.036140625,110.02785175875486L99.277390625,109.12533369168342L99.398015625,109.38822189452553L99.759890625,109.13310057314827L99.880515625,109.8910525274473L100.00114062499999,109.1918150020162L100.121765625,109.89844392389061L100.242390625,110.26215767934815L100.363015625,110.35565796809507L100.483640625,110.64135765238576L100.604265625,110.97668308620085L100.84551562499999,110.96708074551749L100.96614062500001,111.05114504132882L101.448640625,111.51404055085659L101.569265625,111.61124528679467L101.689890625,111.39407218135766L101.931140625,110.98624191559834L102.051765625,111.6981758394432L102.17239062499999,111.67534137033714L102.29301562500001,112.99407219106993L102.534265625,113.64143489339328L102.775515625,112.3938130029738L103.016765625,112.44934417679626L103.258015625,113.81802713791595L103.49926562499999,113.54854334501326L103.740515625,113.46921191977226L103.861140625,112.13455695601918L103.981765625,113.42753882660037L104.34364062499999,114.24329627497298L104.826140625,115.21223798959089L104.946765625,115.42350942031483L105.188015625,115.69010419288676L105.308640625,115.96352828950145L105.549890625,115.69948178921506L106.032390625,117.25140403892061L106.153015625,117.60336177178614L106.39426562499999,118.12359012662222L106.63551562500001,117.08335606976756L107.118015625,116.9953925696359L107.479890625,116.3726264038412L107.600515625,116.19333320292478L107.841765625,115.80404991889077L107.96239062500001,116.51951721699041L108.083015625,116.4133970747196L108.203640625,117.1082998475855L108.324265625,118.06822155607395L108.444890625,117.63461691340405L108.68614062500001,118.25621531409645L108.806765625,118.50799140835238L109.28926562500001,118.72090180385585L109.409890625,117.78343072148681L109.651140625,118.40536339883792L109.89239062499999,117.78591846867958L110.254265625,118.5435078758792L110.495515625,117.78290787537338L110.616140625,117.55406630102098L110.736765625,117.06950254330317L111.098640625,117.42904360999594L111.21926562499999,117.79579560756545L111.339890625,116.78321397579761L111.460515625,116.24420402663158L111.581140625,117.35736228433733L111.822390625,117.02338437959455L111.943015625,118.10671262777635L112.06364062499999,118.4680010164885L112.304890625,118.27949550283805L112.425515625,117.34852399436164L112.54614062499999,117.46290743151286L112.666765625,118.1793535096264L112.78739062499999,117.43411904972356L112.908015625,117.44931703552568L113.149265625,117.21249116175792L113.269890625,116.32912935550317L113.631765625,116.10417319938298L114.114265625,115.947213678653L114.476140625,115.96300969563524L114.596765625,116.5077990833667L114.717390625,117.10453153912243L114.838015625,116.78443672996809L114.958640625,117.2561230385143L115.079265625,117.64069677873604L115.199890625,118.3720166058243L115.320515625,118.35985178836233L115.56176562499999,117.86354342609371L115.68239062500001,118.69627883958015L115.803015625,118.48216016743328L116.28551562499999,119.02321025706382L116.768015625,119.0990306011452L116.888640625,118.51084224764794L117.129890625,119.03031695703478L117.250515625,120.11810612868345L117.371140625,120.49397841262551L117.491765625,119.768157702226L117.61239062499999,118.39567348344802L117.73301562500001,119.26241283502294L118.094890625,119.5662942235204L118.215515625,119.44463946080705L118.336140625,118.30952776084348L118.93926562499999,119.12927544795986L119.18051562500001,118.93433978660258L119.301140625,119.20440316731737L119.421765625,120.03857782090826L119.542390625,117.74680559598309L119.78364062499999,117.47860115136227L120.145515625,117.83546876760069L120.26614062499999,118.68002700407622L120.628015625,118.63452660025021L120.74864062500001,119.18879441000249L120.869265625,118.7612061191805L121.11051562499999,118.35969703379062L121.351765625,119.14409073962739L121.713640625,118.96890648315016L121.834265625,119.03699521118065L122.07551562500001,118.8742552564276L122.43739062499999,117.02061870358361L122.558015625,118.01607781168713L122.678640625,119.06421592750023L122.91989062500001,119.86516196023325L123.040515625,119.31047288980474L123.161140625,119.00448283269074L123.28176562499999,119.1309036533709L123.40239062500001,120.02381603343699L123.523015625,118.31712346110947L123.643640625,118.54096605346616L123.764265625,118.8052721090684L124.126140625,119.72171138125603L124.24676562500001,120.30769084924435L124.729265625,120.43407316971364L124.849890625,121.06589216874443L125.091140625,120.81314515450055L125.332390625,121.53522731861118L125.57364062500001,121.8755098956419L125.694265625,122.50367578650128L125.814890625,122.771608472921L125.935515625,123.39195254303878L126.056140625,122.41326305425062L126.176765625,122.9811937988449L126.418015625,122.32098562943764L126.659265625,121.5455160236195L126.90051562500001,122.27855313865416L127.262390625,122.38226128895201L127.383015625,120.96769598396516L127.50364062499999,121.72574402297039L127.624265625,121.59117984853859L127.744890625,121.48009145716267L127.986140625,120.6141144825208L128.227390625,120.53392806581806L128.468640625,121.84991959206909L128.589265625,122.15168779954774L128.830515625,122.49861585426547L129.192390625,121.48491749895845L129.433640625,120.88274909358796L129.554265625,120.92279029087005L129.674890625,120.38328825586356L130.03676562500002,120.65574078018861L130.398640625,120.32607933394502L130.519265625,119.4614613890866L130.760515625,119.32360301639437L131.001765625,116.6116142223296L131.243015625,116.8916914029065L131.363640625,117.4510739846711L131.846140625,117.51422609298729L132.08739062499998,117.92065719092166L132.208015625,117.74476755993024L132.328640625,117.57043302616495L132.449265625,118.68053148722508L132.690515625,119.6892442323069L132.811140625,118.94186574115054L132.931765625,120.08107473627174L133.05239062500002,121.3792030505775L133.534890625,121.62341157988371L133.776140625,121.71793748355223L133.896765625,122.8226709242156L134.017390625,121.7038656196149L134.138015625,121.8352169218631L134.258640625,121.38601159226371L134.74114062499999,121.3608054591011L134.982390625,121.19662620325894L135.103015625,121.46774953738307L135.464890625,119.35877850607575L135.585515625,119.96413864161579L135.706140625,120.3642262900436L135.826765625,120.93193747726741L135.947390625,121.92871278370384L136.18864062499998,122.36322437051743L136.309265625,123.35120166599047L136.429890625,122.9944926138746L136.550515625,122.9298630816989L136.79176562499998,122.98950154177045L137.153640625,122.91988454466426L137.394890625,123.62217930990283L137.515515625,123.99169160384925L137.756765625,121.77719099017332L137.877390625,121.96027980598913L137.998015625,122.23792946613419L138.239265625,123.04012118942731L138.359890625,122.86004223966242L138.601140625,123.85695607535047L138.72176562500002,124.13060095627681L139.32489062500002,123.57087347842855L139.566140625,123.95160001559418L139.686765625,123.67706540184551L139.807390625,123.32526482454705L139.928015625,123.8102438807689L140.048640625,123.15776058597369L140.169265625,122.13368451045999L140.289890625,123.44680947124276L140.53114062499998,121.63058991854993L140.651765625,122.41338966350799L140.772390625,121.59345065155206L141.13426562499998,121.45284588392192L141.254890625,121.6818731092367L141.37551562500002,121.7758136521206L141.496140625,122.31297295023228L141.737390625,122.72735348500838L142.461140625,123.45899860644943L142.58176562499997,123.72512492748339L142.702390625,124.34446593439486L142.943640625,124.1080993389333L143.42614062500002,122.9331154297914L143.78801562499999,123.08271938669833L144.149890625,123.06081385604764L144.632390625,122.54351262324732L144.994265625,123.24588459334078L145.11489062500002,123.77600122214098L145.235515625,124.52444636144358L145.47676562499998,123.76284669245034L145.597390625,124.06257868887143L145.71801562500002,123.85328445422056L145.959265625,124.72080602092336L146.079890625,124.23045070533101L146.200515625,124.09023854454946L146.321140625,124.47237838678333L146.441765625,122.97063186144305L146.683015625,123.18386961099402L146.803640625,124.48382702988792L147.044890625,123.37005819991302L147.286140625,123.57196988571731L147.406765625,123.92417652826701L147.648015625,124.5452646389152L147.889265625,124.37626792787195L148.009890625,123.83227032487474L148.130515625,123.8265179108385L148.251140625,124.69554996170258L148.613015625,125.36913678554052L148.733640625,124.69481293690635L148.854265625,123.74539933916967L149.216140625,123.59749422177433L149.336765625,124.3511432969208L150.301765625,123.97379516231919L150.663640625,124.57744510032967L150.784265625,124.25672194281488L151.025515625,125.00697437506244L151.266765625,125.30720201245279L151.387390625,125.8106319620862L151.749265625,125.55623663097526L151.869890625,124.98185141148764L152.11114062500002,125.64115056186715L152.23176562499998,125.83301773524899L152.352390625,125.47229664832764L152.473015625,125.63208944805493L152.83489062499999,125.9142314826498L153.799890625,126.27799906372277L153.92051562499998,124.84795206060153L154.041140625,125.36706601487796L154.282390625,125.61747043804156L154.52364062499998,125.673510709467L154.644265625,125.23670017930209L154.76489062500002,125.79021353704292L155.006140625,127.03306913019748L155.247390625,127.02134685769383L155.36801562500003,126.44491913137333L155.488640625,126.24684798883672L155.850515625,126.92343227311923L155.97114062499998,126.68267260486323L156.091765625,125.97220291008614L156.694890625,126.56563720067807L156.936140625,126.74381716177189L157.056765625,126.81497067051637L157.298015625,126.56484455801362L157.418640625,126.77126312591528L157.659890625,127.52122405156467L158.383640625,127.98445589096104L158.50426562500002,128.57205831685698L158.745515625,129.13212854077622L158.986765625,128.80702192923738L159.469265625,128.68097923351877L159.589890625,128.94253191345078L159.710515625,129.5346244822816L159.831140625,129.48139330724754L159.951765625,129.69279539869092L160.19301562500002,127.96106692528556L160.434265625,128.32835360677583L160.554890625,129.24696140803704L160.675515625,129.52608778008135L160.796140625,129.6962225863329L160.91676562499998,129.45755453048255L161.037390625,129.30763606693398L161.15801562500002,128.71491867439266L161.640515625,128.46693573031516L161.88176562499999,128.79623357491772L162.002390625,128.89229113484302L162.726140625,128.38464423318638L162.96739062499998,127.95075754641434L163.20864062500002,127.87018635494758L163.329265625,127.70537358726142L163.449890625,127.33422438715672L164.173640625,127.57257512093236L164.535515625,127.73705954765488L164.776765625,127.51644485411933L165.138640625,127.700341806253L165.50051562500002,128.2094501346132L165.62114062499998,128.7776532816099L165.862390625,128.92319788768876L165.983015625,128.16217850101302L166.103640625,128.68413288913314L166.224265625,129.10712070767L166.344890625,128.33556189541565L166.465515625,128.3237276619508L166.586140625,126.84625959517172L166.827390625,126.70137412181685L166.948015625,127.54562267548843L167.068640625,127.1965208865098L167.430515625,128.01070302552463L167.55114062500002,128.0385060807315L167.792390625,128.66995736046798L168.757390625,129.30175004445408L168.878015625,129.5516595643307L168.998640625,127.98847075335851L169.119265625,126.66659919670789L169.23989062500002,127.58092235737789L169.481140625,127.35328559090192L169.601765625,128.66909857690115L169.722390625,129.16334922268376L170.084265625,129.38427281403816L170.20489062500002,129.28672028145286L170.325515625,128.57652784489858L170.566765625,127.66633360380558L170.687390625,128.48545022658777L170.92864062499999,129.20313171438323L172.134890625,129.14868876745086L172.496765625,129.47299074122358L172.61739062499998,130.509640958975L172.738015625,130.30745814679187L172.858640625,131.36008173871363L173.099890625,130.12631451758546L173.220515625,129.8387532890872L173.341140625,129.39660323268566L173.582390625,129.403308661577L173.944265625,129.6210621268541L174.064890625,128.74680995109355L174.185515625,128.64831214769623L174.30614062499998,129.43847665055875L174.426765625,129.94584951333024L174.54739062500002,128.8277639624735L174.66801562499998,129.13457370580386L174.788640625,129.77643849340444L175.029890625,130.68254129740706L175.271140625,130.7886335073024L175.391765625,129.9885597335538L175.633015625,130.168531178709L175.874265625,129.92105871377962L176.115515625,129.48994638052827L176.236140625,129.24672834082364L176.35676562499998,129.8893668106735L176.477390625,130.72957818384234L176.59801562500002,130.68276740395834L176.718640625,130.46920833333687L177.20114062500002,130.44328747521416L177.80426562500003,130.64298674210988L177.924890625,130.4179883522415L178.166140625,131.1002867797644L178.28676562500002,130.54563753198286L178.40739062499998,129.95047176607716L178.769265625,130.43074850280382L178.88989062500002,129.82648959400248L179.01051562499998,130.98212459749004L179.25176562500002,131.89582272748407L179.493015625,132.1254615904487L179.613640625,131.03064962166724L179.97551562499999,131.84967149664766L180.216765625,131.13222888966553L180.458015625,131.34974786554756L180.578640625,131.97596298395896L180.819890625,132.5336326529183L180.94051562500002,132.60871309656352L181.302390625,132.83682178981036L181.423015625,132.42826670867152L181.54364062500002,132.67583671997764L181.784890625,131.92185240238322L181.905515625,131.36198931975744L182.026140625,132.16593679266288L182.267390625,132.71211437812406L182.388015625,133.17475469395978L182.508640625,133.86626566202577L182.62926562500002,133.1484746948041L182.74989062499998,133.8038429739056L182.870515625,133.66634645076894L183.111765625,133.13660456672002L183.473640625,133.82472576061656L183.59426562500002,132.55316498551073L183.835515625,132.77080887026545L184.318015625,133.39135433993178L184.438640625,133.76604249507673L184.679890625,134.00930667507862L185.162390625,133.11324068299018L185.40364062499998,132.61634134103534L185.64489062500002,132.0255640720157L185.886140625,131.8943890913273L186.00676562499999,132.34929427866194L186.127390625,132.25626299972208L186.248015625,132.81344793043561L186.489265625,132.94402667379387L186.851140625,132.85922754897516L186.971765625,132.20833954859836L187.213015625,132.1471536355517L187.33364062500002,132.4815694536576L187.45426562499998,131.9962936130127L187.695515625,132.38320291912294L188.178015625,132.01994674426095L188.419265625,132.3870564774705L188.539890625,132.47651360440352L188.781140625,132.11597445633276L188.901765625,131.78610449020837L189.022390625,132.3946523849392L189.263640625,132.5262983789584L189.384265625,132.56974166211688L189.866765625,132.87220099427202L189.98739062500002,132.920258032012L190.108015625,132.6396336195849L190.228640625,132.26016608056477L190.349265625,132.25538729583315L190.59051562500002,132.15923663831472L190.831765625,132.58547505862404L190.952390625,132.7094503250404L191.073015625,132.11470557010875L191.19364062499997,132.35107671423964L191.314265625,132.07341759108655L191.434890625,130.23910651748383L191.79676562499998,131.31437348810869L192.158640625,131.02533024043623L192.39989062499998,131.56061832190153L192.64114062500002,132.01146905266836L192.761765625,132.2205775340234L192.882390625,131.7190409119577L193.003015625,132.0988225306852L193.123640625,131.40803133248323L193.606140625,132.27336525294263L194.088640625,132.7532774680707L194.32989062500002,133.3605267246936L194.45051562499998,133.98413568739477L194.571140625,133.71561572580077L194.812390625,133.4214034615533L194.933015625,134.18746186431343L195.05364062499999,133.54563353747898L195.415515625,133.34049711643365L195.777390625,133.14763273010598L195.898015625,133.6579684866268L196.018640625,133.3933500754042L196.259890625,132.23967330272603L196.38051562500002,133.26751711113062L196.501140625,134.42122341709307L196.74239062499998,133.91021606737542L196.863015625,132.30658149372033L197.10426562499998,132.35712587911434L197.224890625,131.54272922710123L197.345515625,131.33548867279728L197.466140625,131.1867680968829L197.58676562500003,131.85626698484603L197.707390625,132.3294609095507L197.948640625,131.64277864132023L198.069265625,131.95945910306597L198.431140625,132.34583484628658L199.03426562500002,132.12935521018957L199.516765625,131.9734971665657L200.481765625,132.26857758250588L200.602390625,132.9804805611941L200.72301562500002,132.46992461820827L200.84364062499998,132.22799496425046L200.964265625,132.7301730816737L201.32614062500002,132.81467087995316L201.44676562499998,131.88626618091425L201.688015625,131.93052167073296L201.808640625,131.58855166933677L202.049890625,131.41935446895167L202.170515625,131.4555135222463L202.291140625,132.87142262865086L202.411765625,133.7360889439505L202.653015625,133.8295477626168L202.894265625,133.84141566188475L203.014890625,133.97727261301407L203.13551562499998,133.01997203260942L203.37676562500002,132.6728243827773L203.49739062499998,132.75513994082053L203.618015625,132.3391385920146L203.859265625,133.28248455282005L204.10051562499999,133.40999014488455L204.824265625,133.09629964933532L205.06551562500002,132.47120581216498L205.548015625,133.27189338749824L205.668640625,132.6099575796471L205.78926562499998,133.01758596278438L206.271765625,132.81530544380692L206.874890625,132.92314096723928L206.995515625,133.07414319586496L207.478015625,133.6352397604158L207.83989062499998,133.95826326328998L207.960515625,134.14530575913142L208.322390625,133.4372123294808L208.684265625,133.72635870145618L208.804890625,133.04686010014524L208.925515625,132.90224249346772L209.287390625,133.64460835930578L209.408015625,133.83458164371166L209.76989062500002,134.55269112495097L209.89051562499998,134.74905784979634L210.011140625,134.54009826329812L210.13176562499999,134.44644391083196L210.252390625,134.65842549656722L211.096765625,135.26069471996692L211.217390625,136.09595313335345L211.338015625,135.59682016405785L211.45864062500002,135.1083909356994L211.699890625,135.06110480078092L211.820515625,134.56567344311128L211.941140625,134.28651495110378L212.061765625,133.12533977351785L212.18239062499998,134.0718616612561L212.303015625,133.89857456090107L212.42364062500002,134.13397926061444L212.544265625,133.7108859536643L212.664890625,134.48060574908598L213.02676562500002,133.98657567082418L213.268015625,135.00768581199532L213.871140625,135.1253096898344L213.991765625,133.89936638909936L214.11239062500002,134.5333150568887L214.353640625,135.49998762372934L214.83614062499998,135.3736339278418L215.198015625,135.47557751207222L215.439265625,135.93958344597894L215.921765625,133.37264517126442L216.042390625,133.38128213578244L216.163015625,134.0873121448578L216.283640625,133.973786037685L216.645515625,134.19518053118L216.88676562499998,134.64058735035474L217.007390625,133.96013023940944L217.128015625,133.55381219941606L217.248640625,134.49678742885547L217.369265625,134.98490408456323L217.610515625,135.4580699628251L217.731140625,135.28672699482274L218.093015625,136.01665213107836L218.454890625,136.22114568329334L218.57551562499998,136.3409437536707L218.696140625,137.19514723783698L219.299265625,135.86390455695175L219.41989062500002,135.22299108065033L219.54051562499998,135.26569195435565L220.50551562500002,133.59113423026935L220.62614062499998,134.05845684461613L220.988015625,134.70723126959263L221.108640625,133.90858819195705L221.22926562499998,134.96775903888283L221.349890625,135.00314008697183L221.47051562500002,134.44290087420407L221.591140625,134.6291932194526L221.711765625,133.70232636400647L221.953015625,134.34318957110804L222.19426562499999,134.28256989175486L222.314890625,134.67868893742775L222.435515625,135.1871412788191L222.676765625,135.51933990801385L222.797390625,136.34213367073355L223.038640625,136.8657659777043L223.27989062499998,137.1139278486254L223.400515625,136.48538748779828L223.641765625,136.40490038087094L223.76239062500002,135.20662535725543L224.244890625,134.94663003364892L224.365515625,134.93283205856793L224.486140625,134.9570905426351L224.606765625,135.120028821166L224.727390625,135.8162301126992L224.848015625,135.89027388735886L224.96864062499998,136.4758255036238L225.209890625,135.62719631339138L225.330515625,136.23699080555923L225.451140625,135.49524332337268L225.57176562499998,134.90146954857565L226.054265625,133.995190554239L226.295515625,134.89188841533272L226.41614062500003,134.6033974319669L226.536765625,135.48198706086262L226.778015625,135.6538382172934L227.01926562499997,135.64844910317726L227.260515625,134.74748882034203L227.50176562500002,134.92774378443698L227.62239062499998,135.4288449238155L227.743015625,134.69233341187584L227.984265625,135.63925689812885L228.104890625,136.05927968284107L228.22551562499999,135.09699666720618L228.346140625,135.45271356834206L228.46676562500002,134.95056794033192L228.58739062499998,135.1846980337763L228.828640625,135.96661277160703L228.949265625,135.8883048221381L229.311140625,136.50344248083502L229.431765625,136.0271194090601L229.67301562499998,135.96211041001953L229.793640625,136.59687637732694L230.15551562500002,137.11927805523968L230.27614062499998,137.83300915138238L230.396765625,138.0954683648307L230.517390625,137.59111233522805L230.638015625,137.49107387681883L230.879265625,137.60698505044053L231.361765625,136.66880966594323L231.603015625,136.714776087684L231.723640625,135.84792803381532L231.844265625,136.249404723085L232.20614062500002,136.33551754718243L232.32676562499998,135.76109560521243L232.568015625,134.7132735067794L232.688640625,135.07348732584757L232.80926562500002,136.01247455754037L233.050515625,135.7517107846043L233.171140625,136.1565930827502L233.291765625,135.8034360618251L233.41239062499997,136.08667192834696L233.653640625,135.1390336018772L233.89489062500002,134.95978590291108L234.136140625,134.390238019177L234.256765625,133.89534248095953L234.498015625,133.2985192173736L234.61864062499998,132.74710681435874L234.739265625,132.8907769627597L234.85989062500002,131.92655842900186L235.101140625,132.79949640016588L235.46301562500003,133.7449190101966L235.583640625,134.31335934512924L235.704265625,134.86812286801705L235.824890625,134.91967328239986L235.945515625,135.35794740377622L236.186765625,135.14811233931314L236.307390625,135.8060284640011L236.428015625,135.88481716779637L236.66926562499998,136.38448286100663L236.789890625,136.17718536273944L236.91051562500002,136.01745440786001L237.031140625,134.87299381611146L237.27239062499999,135.0658060963513L237.393015625,135.2728127262938L237.513640625,135.93340229765954L237.996140625,136.22880121532594L238.358015625,136.53999920837845L238.478640625,136.89901506345674L238.59926562500002,136.23552342082723L238.96114062499998,136.55325777885648L239.081765625,137.0221461951475L239.20239062500002,137.42570459494326L239.32301562499998,137.2816500552597L239.443640625,137.54412667469467L239.684890625,137.73071811149612L239.805515625,137.7605494117254L239.926140625,136.4299119336142L240.288015625,137.20006675556448L240.40864062499998,136.7904744619762L240.649890625,136.8420459773181L240.770515625,136.82161189233577L240.891140625,137.47210251536902L241.25301562500002,137.26180513039697L241.494265625,138.0748355736214L241.614890625,138.09893505313923L241.735515625,137.15717503254245L241.85614062500002,136.5263215324435L241.97676562499998,136.50252766647657L242.338640625,136.39967558029167L242.700515625,136.44521052097357L242.821140625,134.3054749336507L243.183015625,135.4726030875472L243.303640625,136.25225610313842L243.786140625,136.28061045982741L244.148015625,136.74910490155102L244.268640625,136.4239922748764L244.509890625,136.3187978024342L244.630515625,136.81502201531245L244.751140625,136.27401376336223L244.992390625,136.88744119078171L245.113015625,137.3296799878067L245.233640625,137.46927934985018L245.354265625,137.0506579054479L245.83375,137.0796860484756L245.954375,137.74196754481744L246.075,137.04178767468733L246.31625,137.04175698203673L246.43687500000001,137.70131844903193L246.5575,135.08348138253984L247.03396875,135.647488580675L247.27521875,136.1962495207067L247.39584374999998,136.61513562213815L247.51646875,137.65743635710618L247.75771875,137.77911898325686L247.87834375,137.97594419919668L248.11657812500002,137.792149618973L248.23720312499998,138.06035303470998L248.5960625,137.36238957181527L248.8373125,137.3965034788763L248.9579375,137.51799289488181L249.07253125,137.69464658232044L249.30775000000003,136.77711058932874L249.425359375,137.28052527944698" style="fill: none;" fill="none"></path></g></g></g></g><g opacity="0.20000000298023224"><g><g><g><path stroke="rgb(255, 112, 67)" stroke-width="2px" d="M36.069890625,-6.660592064673381L36.190515624999996,9.255450471143178L36.552390625,-38.264433708561285L36.673015625,30.663960381966234L36.793640625,-6.769388608150905L36.914265625,0.12794279870396963L37.034890624999996,18.26417372070361L37.39676562499999,23.17335658246435L37.517390625000004,12.238170134825992L37.758640625000005,12.965731094779386L37.999890625,-4.907082247655239L38.120515625,22.06640908096989L38.241140625,-2.7827214492986343L38.361765625,25.821329410501335L38.723640624999994,22.033438887232194L38.844265625000006,24.669334534564626L38.964890625,2.994871855400021L39.085515625,39.69414992845401L39.326765625,28.548440895222427L39.688640625,-3.254406697806303L40.291765625000004,39.235854043786475L40.412390625,44.24322132716097L40.533015625,30.55204262617582L40.653640625,63.49687173645586L40.774265625,19.461012136809046L40.894890624999995,38.699948259486035L41.498015625,45.810923464247026L42.463015625,68.07589403372437L42.704265625000005,61.37359380767717L42.824890625,68.27726955629454L42.945515625,17.10617847334092L43.789890625000005,67.19931748020463L44.151765625,49.56556352165242L44.393015625,47.21474284544371L44.513640625,50.7376105942441L44.634265625,52.8282750392637L45.116765625000006,53.59969858694464L45.237390625,51.55641287087033L45.358015625,59.457507048084295L45.719890625,62.289510375981294L45.840515625,47.93276181346917L46.202390625,55.85912507077535L46.684890625,50.580161357611914L46.926140625,49.081036713914585L47.167390624999996,49.66477985427571L47.288015625,47.4758545497898L47.408640625,71.95635079644407L47.529265625,42.500234454512025L47.770515625,63.657779785916375L48.011765625,73.68963643163892L48.253015624999996,56.11028711464651L48.614890624999994,71.52423487627844L48.735515625000005,65.43796004365699L48.856140625,68.48242875256646L49.097390625,77.66646858679508L49.218015625,83.09311660092611L49.338640625,53.85679730403129L49.700515625,72.62548775775718L49.941765624999995,65.03018320971078L50.062390625000006,71.68204082288923L50.303640625,67.98721338511228L50.424265625000004,73.33554444947424L50.786140625,48.342672537466L51.268640625,81.18610046650373L51.389265625,68.5130166332327L51.509890625000004,81.96030125616102L51.630515625,81.0986683028168L51.871765625,66.51796320212395L51.992390625,63.77028993506414L52.233640625,86.78937724843854L52.474890625,52.73786179932695L52.595515625000004,82.37886856696032L52.716140625,85.07292068044907L52.836765625,73.73982425166581L53.078015625,62.859354566818524L53.198640624999996,72.33060326222152L54.043015625,91.68218330028826L54.525515625,82.14396230640034L55.008015625000006,74.90839340196601L55.128640625,78.5184448914325L55.249265625,77.61571385269502L55.731765625,83.85955257872747L55.852390625,81.07758419515227L55.973015624999995,80.5775150240605L56.093640625,56.373297025664485L56.455515625000004,87.84595857491682L56.576140625,86.18064530011124L56.938015625,79.28292533417252L57.058640624999995,78.14467016223352L57.299890624999996,76.69951064244378L57.42051562499999,68.56627470700411L57.541140625000004,71.32647104224174L57.782390625000005,77.58719616386897L57.903015625,83.86582685245845L58.023640625,82.51885175428248L58.144265625,79.214921124678L58.264890625,95.09917825347154L58.385515625,94.31914270773548L58.747390625,87.47415849024233L58.868015625000005,69.82227602099123L59.109265625,88.71799344603026L59.591765625,79.9571900014282L59.712390625,86.95733031997673L59.953640625000006,85.87891961677144L60.194890625,80.16334288978341L60.315515625,100.46558050014295L60.918640624999995,86.98856792238972L61.280515625,81.76415535667016L61.401140625000004,84.61237624895205L61.521765625,83.17081567805369L61.642390625,105.011390550474L61.883640625,87.96346266376518L62.366140625,85.97942265324617L62.607390625,87.9491433060522L62.848640625,84.85258857044391L63.089890625,86.79262585717237L63.572390625,86.80701528291684L63.693015625,97.62505435168546L63.934265625,94.2461636680035L64.416765625,80.50598830352716L65.019890625,74.01926830098428L65.261140625,95.36023899924925L65.381765625,97.00941751734355L65.743640625,105.62759429888908L65.98489062499999,87.66081972619465L66.105515625,97.30680535255055L66.226140625,89.49437271448552L66.46739062500001,90.51737234440562L66.588015625,78.83113303679364L66.708640625,95.65327624668136L67.191140625,94.97434887041948L67.31176562499999,95.83436388921781L67.553015625,95.44435885599188L67.914890625,95.87065912954188L68.397390625,94.79555436345983L68.518015625,85.52892979936084L68.63864062500001,92.4869082724013L68.759265625,94.62765862031105L69.00051562499999,84.23512359746161L69.362390625,96.99499624249383L69.48301562500001,96.88420594502868L69.603640625,105.69985991866382L69.96551562500001,98.53223789533457L70.086140625,99.12435098055107L70.32739062499999,96.42618396266614L71.051140625,93.31670486015412L71.292390625,97.19309130722496L71.533640625,89.45821124040344L71.654265625,88.44695756049344L71.774890625,96.03733186704967L72.01614062499999,95.43507802672686L72.13676562500001,95.03640366705636L72.739890625,100.0579629117229L72.860515625,86.53921526647173L73.101765625,97.63026486530165L73.34301562499999,98.70335039811192L73.46364062500001,93.46812824607612L73.584265625,102.88397860783601L73.946140625,94.08446576073318L74.06676562499999,104.50364574502098L74.187390625,97.82103463582911L74.428640625,98.27069304315732L74.549265625,101.96803019042665L74.790515625,99.76216753177758L74.911140625,100.09558944464573L75.152390625,94.35833621663579L75.39364062499999,106.38762860653851L75.63489062500001,99.70138032952897L75.755515625,97.14250218847212L75.876140625,77.45063994026995L76.117390625,104.56703820407768L76.23801562499999,108.74416938204713L76.599890625,98.49489163453781L76.72051562499999,97.2362850637426L76.841140625,105.07046427086104L76.96176562500001,103.21133008124666L77.203015625,109.98493408409055L77.323640625,104.65006882142133L77.444265625,100.58597011792546L77.56489062499999,90.84719530838238L78.650515625,117.00451191156306L78.771140625,94.30334555153969L79.012390625,100.57496306715677L79.374265625,106.7872202204397L80.21864062499999,104.51213671647622L80.339265625,99.96096327682385L80.821765625,104.55576999064607L80.942390625,105.55197178342273L81.06301562499999,103.52989120161287L81.304265625,100.21269860458919L81.545515625,91.22832718089026L81.786765625,100.40290146104348L82.02801562500001,109.2549080033921L83.113640625,97.18654313118897L83.23426562499999,109.24909235677646L83.35489062500001,109.47866707712036L83.475515625,98.9323773138458L83.716765625,106.34646045311372L83.837390625,100.37044085298953L84.19926562500001,99.10242605650834L84.561140625,111.3792942810329L85.28489062499999,108.67308217916602L85.405515625,112.11579209991481L85.52614062500001,102.25193948429884L85.646765625,112.5044021423315L85.767390625,106.34735859788131L86.008640625,109.40850349829103L86.129265625,104.08765821174558L86.249890625,94.42628946756193L86.491140625,114.24798777815886L86.61176562499999,115.44582307125809L86.732390625,109.4717558212847L86.973640625,102.9536580802658L87.214890625,100.5846515649688L87.335515625,111.49529509211426L87.818015625,103.00229166395731L88.662390625,103.22759860419991L89.024265625,98.5108098173335L89.144890625,120.22716680952223L89.386140625,114.40846586469874L89.627390625,101.10293842425409L89.989265625,112.44553225621797L90.833640625,117.53908321835425L91.195515625,100.73308113499886L91.316140625,99.88843012456513L91.678015625,103.82745102198813L91.798640625,106.20778307910615L91.91926562500001,109.43983664801972L92.160515625,112.68411708843242L92.28114062499999,115.7631006726834L92.40176562500001,112.32346100567912L92.522390625,115.726486941307L92.763640625,109.98838652709786L93.366765625,105.53528285228039L93.487390625,120.39724740129L94.211140625,105.50752954197995L94.45239062499999,109.84267050083369L94.57301562500001,108.46087796081646L94.693640625,113.48355192416616L94.814265625,111.88837356399522L94.934890625,105.79250259596694L95.055515625,102.88687050659121L95.17614062499999,115.48237947424508L95.296765625,104.45606955162322L95.41739062500001,112.7664693198346L95.538015625,123.40231558211515L95.779265625,113.89509650726148L96.141140625,115.94828411015288L96.261765625,120.07161896447249L96.382390625,106.39346336261728L96.623640625,108.03204886831094L96.74426562500001,116.18415858351196L97.106140625,114.8021558394002L97.347390625,107.59213628718415L97.588640625,109.36301023637554L97.709265625,110.52757276923737L98.07114062500001,84.99738734247737L98.191765625,118.01041494179384L98.312390625,114.63282370160542L98.553640625,119.62514865257813L98.67426562499999,102.00619815813845L98.79489062500001,116.10198470709909L99.036140625,104.32943750921494L99.277390625,103.08540508897457L99.398015625,111.14755063662261L99.759890625,107.42575019162345L99.880515625,114.96350022160243L100.00114062499999,104.51230233182343L100.121765625,114.62742209335781L100.242390625,112.6962420427948L100.363015625,110.98139066970909L100.483640625,112.55334784725432L100.604265625,113.22078406634795L100.84551562499999,110.9028189270981L100.96614062500001,111.61372917483544L101.448640625,114.61187973000386L101.569265625,112.26176928884189L101.689890625,109.94068293727918L101.931140625,108.25691629090132L102.051765625,116.462656714405L102.17239062499999,111.52252607708887L102.29301562500001,121.81942460674327L102.534265625,117.97378528586482L102.775515625,104.04434342862807L103.016765625,112.82097587853114L103.258015625,122.97767464694783L103.49926562499999,111.74507488481827L103.740515625,112.93830161239022L103.861140625,103.20263527551792L103.981765625,122.08057134510511L104.34364062499999,119.70259612177436L104.826140625,121.6966940797261L104.946765625,116.83740284131358L105.188015625,117.47423844009889L105.308640625,117.79336647453826L105.549890625,113.93240136422145L106.032390625,127.63734524848854L106.153015625,119.95877121480925L106.39426562499999,121.6051183474483L106.63551562500001,110.12178968927877L107.118015625,116.4067137610624L107.479890625,112.20488360198439L107.600515625,114.99344793525346L107.841765625,113.19884640266314L107.96239062500001,121.30764451965717L108.083015625,115.70320843029185L108.203640625,121.75880301984188L108.324265625,124.49231298980438L108.444890625,114.7328012278438L108.68614062500001,122.41614307257652L108.806765625,120.19295450068043L109.28926562500001,120.145763681456L109.409890625,111.50958578563251L109.651140625,122.56752823957225L109.89239062499999,113.64040239761997L110.254265625,123.61352929329195L110.495515625,112.69273864121911L110.616140625,116.02258807266257L110.736765625,113.82665278011477L111.098640625,119.83520305632445L111.21926562499999,120.25021282206916L111.339890625,110.00670613242815L111.460515625,112.6369835975974L111.581140625,124.80695985513739L111.822390625,114.78830147862362L111.943015625,125.3566785963776L112.06364062499999,120.88585407940823L112.304890625,117.01795860379264L112.425515625,111.11817620686578L112.54614062499999,118.22839658783275L112.666765625,122.97403110930912L112.78739062499999,112.44678074114312L112.908015625,117.55102663281679L113.149265625,115.62757954500447L113.269890625,110.41740034441374L113.631765625,114.59869738534775L114.114265625,114.89679227069092L114.476140625,116.06872150159325L114.596765625,120.15369729356966L114.717390625,121.09804874302623L114.838015625,114.64226377639662L114.958640625,120.41279294955446L115.079265625,120.21438257868152L115.199890625,123.2662339101841L115.320515625,118.27844108688609L115.56176562499999,114.54209515552682L115.68239062500001,124.26920045291234L115.803015625,117.04921213075824L116.28551562499999,122.64408393382195L116.768015625,119.60644367307452L116.888640625,114.5745048050124L117.129890625,122.50680155062359L117.250515625,127.39792596971697L117.371140625,123.00943138977613L117.491765625,114.91074217878318L117.61239062499999,109.2105867885492L117.73301562500001,125.06289926479356L118.094890625,121.59996197731101L118.215515625,118.6304883564948L118.336140625,110.71301099954873L118.93926562499999,124.61527920020029L119.18051562500001,117.62977036059601L119.301140625,121.01175040748562L119.421765625,125.62113127186268L119.542390625,102.40956070609928L119.78364062499999,115.68369448351532L120.145515625,120.22373666088859L120.26614062499999,124.33207058664323L120.628015625,118.33002389772223L120.74864062500001,122.89812513680619L120.869265625,115.8996537113719L121.11051562499999,115.67267469310453L121.351765625,124.39349477099648L121.713640625,117.79651953595638L121.834265625,119.49266592953848L122.07551562500001,117.78514940538803L122.43739062499999,104.61551254224301L122.558015625,124.67799645822603L122.678640625,126.07867870255723L122.91989062500001,125.22533925621582L123.040515625,115.598322956937L123.161140625,116.95670321969709L123.28176562499999,119.97695068407651L123.40239062500001,125.99946042311004L123.523015625,106.89541163091782L123.643640625,120.0389895561608L123.764265625,120.57408955809885L124.126140625,125.85480497205012L124.24676562500001,124.22924575039696L124.729265625,121.27986254516202L124.849890625,125.29421931610426L125.091140625,119.1216843668685L125.332390625,126.36762333996685L125.57364062500001,124.15278560346297L125.694265625,126.7075552099447L125.814890625,124.56469645126849L125.935515625,127.5434859353655L126.056140625,115.8635718600529L126.176765625,126.78196108959114L126.418015625,117.902669418789L126.659265625,116.35583481545194L126.90051562500001,127.18426306234772L127.262390625,123.07630814094537L127.383015625,111.50098971212999L127.50364062499999,126.79883474554384L127.624265625,120.69063498887968L127.744890625,120.73665376103152L127.986140625,114.81873011376369L128.227390625,119.99729589249966L128.468640625,130.6569398062107L128.589265625,124.17121349575106L128.830515625,124.82036514353017L129.192390625,114.7009361980577L129.433640625,116.85285284226232L129.554265625,121.19075830345034L129.674890625,116.7727746369738L130.03676562500002,122.47907690451785L130.398640625,118.1198835013918L130.519265625,113.67517206580334L130.760515625,118.40101236837711L131.001765625,98.4621507543578L131.243015625,118.76605407292104L131.363640625,121.19463433955724L131.846140625,117.93685943325713L132.08739062499998,120.64061915402104L132.208015625,116.56766002944921L132.328640625,116.40373268481255L132.449265625,126.10965195739678L132.690515625,126.43986029554688L132.811140625,113.94017891571949L132.931765625,127.70501185746757L133.05239062500002,130.06667715400823L133.534890625,123.25773019908678L133.776140625,122.35053391579557L133.896765625,130.21588702711654L134.017390625,114.21647627344086L134.138015625,122.71426025229337L134.258640625,118.37979130956005L134.74114062499999,121.1921182602438L134.982390625,120.09788810646904L135.103015625,123.28219031190608L135.464890625,105.2448954504037L135.585515625,124.01539493330682L135.706140625,123.04173593721444L135.826765625,124.7312354225343L135.947390625,128.59943983447067L136.18864062499998,125.27110960534685L136.309265625,129.9630497203101L136.429890625,120.60728588048369L136.550515625,122.49734236636925L136.79176562499998,123.38862046686477L137.153640625,122.45398617941493L137.394890625,128.3221519695765L137.515515625,126.4645815710291L137.756765625,106.95707149864981L137.877390625,123.18556649644877L137.998015625,124.09604642248955L138.239265625,128.40863502992747L138.359890625,121.65489849892822L138.601140625,130.52861020649345L138.72176562500002,125.9619166978608L139.32489062500002,119.82500497282868L139.566140625,126.49953914893335L139.686765625,121.8397952944506L139.807390625,120.97090711493422L139.928015625,127.05587294933055L140.048640625,118.79114161311344L140.169265625,115.28025231279138L140.289890625,132.23464574725054L140.53114062499998,109.475889835144L140.651765625,127.6521264182274L140.772390625,116.10616649461625L141.13426562499998,120.51187551593578L141.254890625,123.21459377095856L141.37551562500002,122.40449266988212L141.496140625,125.90780825297966L141.737390625,125.500515525433L142.461140625,128.35539288070868L142.58176562499997,125.50612415286463L142.702390625,128.48928651911018L142.943640625,122.52626135392124L143.42614062500002,115.06976157630338L143.78801562499999,124.08391509830612L144.149890625,122.91421530477014L144.632390625,119.08157360373747L144.994265625,127.94637393165837L145.11489062500002,127.3237048148809L145.235515625,129.5332715244686L145.47676562499998,118.665987369188L145.597390625,126.06847743415095L145.71801562500002,122.45262303771094L145.959265625,130.52652727501118L146.079890625,120.94884205482848L146.200515625,123.15189562239595L146.321140625,127.02977579250225L146.441765625,112.92048203801208L146.683015625,124.61092224260435L146.803640625,133.18354206402392L147.044890625,115.91637449161948L147.286140625,124.92322501379218L147.406765625,126.28125175148419L147.648015625,128.70177737940685L147.889265625,123.24528993858257L148.009890625,120.19167098173952L148.130515625,123.78802098613457L148.251140625,130.51137984056214L148.613015625,129.87698706814822L148.733640625,120.18203025758535L148.854265625,117.39163141585485L149.216140625,122.60766766689798L149.336765625,129.394794799824L150.301765625,121.44846533844697L150.663640625,128.61725622393828L150.784265625,122.11034388867736L151.025515625,130.02789449856544L151.266765625,127.31641773960348L151.387390625,129.17974008655605L151.749265625,123.85374479969435L151.869890625,121.13788878876278L152.11114062500002,130.0533833374838L152.23176562499998,127.11705189557352L152.352390625,123.05824014354641L152.473015625,126.70147203084511L152.83489062499999,127.80241279109256L153.799890625,128.71244364474956L153.92051562499998,115.27763750125172L154.041140625,128.84113632426642L154.282390625,127.29325388536716L154.52364062499998,126.04854944900637L154.644265625,122.31342970819858L154.76489062500002,129.49449523884687L155.006140625,135.35064117669333L155.247390625,126.94289780324638L155.36801562500003,122.5872874244591L155.488640625,124.92129495801504L155.850515625,131.45134248331755L155.97114062499998,125.07143482499615L156.091765625,121.21752110657802L156.694890625,130.53708206848555L156.936140625,127.93625228601518L157.056765625,127.29115184442176L157.298015625,124.89092365126439L157.418640625,128.1526796957187L157.659890625,132.54019332321838L158.383640625,131.08454589307524L158.50426562500002,132.50447455169902L158.745515625,132.88029080854344L158.986765625,126.63130845201579L159.469265625,127.837462731402L159.589890625,130.69292292530344L159.710515625,133.4970901352264L159.831140625,129.1251539050964L159.951765625,131.10756324142747L160.19301562500002,116.37180714172652L160.434265625,130.7863490905953L160.554890625,135.39456746263136L160.675515625,131.39408734683934L160.796140625,130.8348170589396L160.91676562499998,127.860314464407L161.037390625,128.3043355801089L161.15801562500002,124.74827150892368L161.640515625,126.80735756610432L161.88176562499999,130.99999607341195L162.002390625,129.53513788203531L162.726140625,124.98731496825349L162.96739062499998,125.0470543349399L163.20864062500002,127.33097915051621L163.329265625,126.60239583428483L163.449890625,124.8503797403022L164.173640625,129.16769157004623L164.535515625,128.83783994187476L164.776765625,126.04002344353538L165.138640625,128.93103679360894L165.50051562500002,131.61655971671615L165.62114062499998,132.58024357304944L165.862390625,129.8972271745241L165.983015625,123.06920260556777L166.103640625,132.17721225578302L166.224265625,131.93788533941665L166.344890625,123.17205292109821L166.465515625,128.2445293303015L166.586140625,116.95858868672693L166.827390625,125.73175595398061L166.948015625,133.19559376544427L167.068640625,124.86022429872986L167.430515625,133.45946041739305L167.55114062500002,128.2245726809622L167.792390625,132.8958236171658L168.757390625,133.5299010834379L168.878015625,131.22413096658198L168.998640625,117.52713024916011L169.119265625,117.82022800989216L169.23989062500002,133.69985427878476L169.481140625,125.82987030756286L169.601765625,137.47492394474216L169.722390625,132.47102662138283L170.084265625,130.86276146387144L170.20489062500002,128.63386871722804L170.325515625,123.82370153872762L170.566765625,121.57503368264477L170.687390625,133.96723070213025L170.92864062499999,134.00607705578352L172.134890625,128.78433981490357L172.496765625,131.64331933493332L172.61739062499998,137.44722318546533L172.738015625,128.95438855756612L172.858640625,138.4045627000361L173.099890625,121.86956465311232L173.220515625,127.91430506759878L173.341140625,126.4375990090753L173.582390625,129.4481834549269L173.944265625,131.07833531755472L174.064890625,122.89604539023443L174.185515625,127.98913454034482L174.30614062499998,134.72650063125408L174.426765625,133.3413448257242L174.54739062500002,121.34519142981691L174.66801562499998,131.18783891116843L174.788640625,134.07199514888524L175.029890625,136.7464600626554L175.271140625,131.4986352196787L175.391765625,124.63421986308262L175.633015625,131.37295546551692L175.874265625,128.2648968330983L176.115515625,126.60480999646154L176.236140625,127.61903838280034L176.35676562499998,134.1901011858225L176.477390625,136.35253121966468L176.59801562500002,130.36949526165756L176.718640625,129.04000532225473L177.20114062500002,130.26981711700836L177.80426562500003,131.97943568210422L177.924890625,128.91222989696857L178.166140625,135.66643779472528L178.28676562500002,126.8337541045218L178.40739062499998,125.9674393327083L178.769265625,133.64490820243597L178.88989062500002,125.78260305048585L179.01051562499998,138.71598962083002L179.25176562500002,138.0105717512902L179.493015625,133.66227551951977L179.613640625,123.7038310613604L179.97551562499999,137.33081789074754L180.216765625,126.33088221216951L180.458015625,132.80545178106584L180.578640625,136.16678723794308L180.819890625,136.2657296682614L180.94051562500002,133.11117452711244L181.302390625,134.36339535230834L181.423015625,129.6940903964345L181.54364062500002,134.33265141102646L181.784890625,126.87595735386668L181.905515625,127.61521330526179L182.026140625,137.5462006497994L182.267390625,136.367302834672L182.388015625,136.2708860383987L182.508640625,138.494069832929L182.62926562500002,128.3447966833975L182.74989062499998,138.18976914943107L182.870515625,132.74617741131584L183.111765625,129.59140888116178L183.473640625,138.42984451977043L183.59426562500002,124.04348902903328L183.835515625,134.22734871439303L184.318015625,137.54423556000648L184.438640625,136.2735709179699L184.679890625,135.63730541816824L185.162390625,127.11649135132141L185.40364062499998,129.2909380525682L185.64489062500002,128.07190081011504L185.886140625,131.01652575902813L186.00676562499999,135.39365976313218L186.127390625,131.63366905604758L186.248015625,136.5423009282878L186.489265625,133.8178998024221L186.851140625,132.29172571364995L186.971765625,127.85239677684598L187.213015625,131.73767867900852L187.33364062500002,134.71958300559737L187.45426562499998,128.74867837177368L187.695515625,134.97251904463002L188.178015625,129.58892465095357L188.419265625,134.84386776894993L188.539890625,133.07518822310914L188.781140625,129.7031355423208L188.901765625,129.57851317845277L189.022390625,136.4672421419841L189.263640625,133.40731387739427L189.384265625,132.8604774801777L189.866765625,134.89635190946416L189.98739062500002,133.2418705153485L190.108015625,130.76160870564996L190.228640625,129.72065255019922L190.349265625,132.22340619801366L190.59051562500002,131.5157668533838L190.831765625,135.4379937176172L190.952390625,133.53913095413458L191.073015625,128.13449067171985L191.19364062499997,133.93294514034642L191.314265625,130.21523730536978L191.434890625,117.9633324095272L191.79676562499998,138.51039090690588L192.158640625,129.0909638906283L192.39989062499998,135.14293086709222L192.64114062500002,135.02870086626186L192.761765625,133.61999583232233L192.882390625,128.36260351813354L193.003015625,134.6404379790922L193.123640625,126.78504408297775L193.606140625,138.0644461052479L194.088640625,135.96499767700487L194.32989062500002,137.42442559593923L194.45051562499998,138.15751874547166L194.571140625,131.91859752128727L194.812390625,131.4524444623586L194.933015625,139.3141604058619L195.05364062499999,129.25032088866396L195.415515625,131.96766106789943L195.777390625,131.85692491391316L195.898015625,137.07329239565072L196.018640625,131.62244224645278L196.259890625,124.51891336249537L196.38051562500002,140.1461641366074L196.501140625,142.14218100314946L196.74239062499998,130.49039765003434L196.863015625,121.57456550079783L197.10426562499998,132.69538445828948L197.224890625,126.09253624824433L197.345515625,129.94857111707097L197.466140625,130.19148424268664L197.58676562500003,136.33675954275307L197.707390625,135.496220251805L197.948640625,127.04728961547013L198.069265625,134.0787821932105L198.431140625,134.93158020476292L199.03426562500002,130.68060687630967L199.516765625,130.93044718231363L200.481765625,134.2433465199518L200.602390625,137.7447543416459L200.72301562500002,129.05312715361092L200.84364062499998,130.6089272800712L200.964265625,136.09090355981382L201.32614062500002,133.3801561453617L201.44676562499998,125.67309627196161L201.688015625,132.22669302567374L201.808640625,129.2999831984545L202.049890625,130.28703474329757L202.170515625,131.69750103275652L202.291140625,142.34712203305054L202.411765625,139.52270197710962L202.653015625,134.45500293369136L202.894265625,133.9208392954472L203.014890625,134.88646913211022L203.13551562499998,126.61342199451667L203.37676562500002,130.34960549543925L203.49739062499998,133.30602098310976L203.618015625,129.55512956539036L203.859265625,139.59564598282583L204.10051562499999,134.26329679947006L204.824265625,130.99698633296737L205.06551562500002,128.2878855172558L205.548015625,138.63034100703618L205.668640625,128.18007948095106L205.78926562499998,135.7455605268568L206.271765625,131.46158197065012L206.874890625,133.64480947020974L206.995515625,134.08469657205234L207.478015625,137.39027061548683L207.83989062499998,136.1200359363709L207.960515625,135.39705169283957L208.322390625,128.69843322335734L208.684265625,135.66141519082998L208.804890625,128.49944638367967L208.925515625,131.9344169718567L209.287390625,138.61274915376046L209.408015625,135.10594131627408L209.76989062500002,139.35850073016795L209.89051562499998,136.06320439299228L210.011140625,133.14167641519452L210.13176562499999,133.81968016740464L210.252390625,136.07707149341093L211.096765625,139.29126567656482L211.217390625,141.6857594383249L211.338015625,132.25646875415651L211.45864062500002,131.83967225360817L211.699890625,134.74465143632665L211.820515625,131.25009435716828L211.941140625,132.41830042766884L212.061765625,125.35439820044289L212.18239062499998,140.40627737150442L212.303015625,132.73888396621737L212.42364062500002,135.70937994331157L212.544265625,130.87941536099802L212.664890625,139.63180745690792L213.02676562500002,130.68037437784147L213.268015625,141.8412690644484L213.871140625,135.91248487229592L213.991765625,125.69497660725702L214.11239062500002,138.77589460286367L214.353640625,141.9692578787396L214.83614062499998,134.52803611690223L215.198015625,136.15781534499882L215.439265625,139.04485392673928L215.921765625,116.19390440971341L216.042390625,133.43908335986467L216.163015625,138.8122822055929L216.283640625,133.21403439737446L216.645515625,135.6768206030314L216.88676562499998,137.62138683252402L217.007390625,129.40630188154486L217.128015625,130.83460685484505L217.248640625,140.80746781048836L217.369265625,138.2515309342998L217.610515625,138.62464160965465L217.731140625,134.14004713203758L218.093015625,140.90153573525066L218.454890625,137.58967945580886L218.57551562499998,137.1426693015808L218.696140625,142.91173978571896L219.299265625,126.95481892333527L219.41989062500002,130.9338008930947L219.54051562499998,135.55145933992193L220.50551562500002,122.38447869215341L220.62614062499998,137.18592357139838L220.988015625,139.04902934443538L221.108640625,128.56382298008808L221.22926562499998,142.05605624523238L221.349890625,135.2399209472597L221.47051562500002,130.69360768106597L221.591140625,135.8759189145774L221.711765625,127.49944817755917L221.953015625,138.6320433417109L222.19426562499999,133.87688434531447L222.314890625,137.3296394738539L222.435515625,138.58986079428445L222.676765625,137.74251534954797L222.797390625,141.8485226981653L223.038640625,140.37007449358555L223.27989062499998,138.77470344632792L223.400515625,132.2790019961092L223.641765625,135.86625589604955L223.76239062500002,127.18740019921322L224.244890625,133.20666132951288L224.365515625,134.8404917637952L224.486140625,135.11943578216147L224.606765625,136.21046191594976L224.727390625,140.47542337142156L224.848015625,136.38579761008106L224.96864062499998,140.39451708939697L225.209890625,129.9479086556821L225.330515625,140.317923176221L225.451140625,130.53124094258573L225.57176562499998,130.92775274801085L226.054265625,127.93009266906301L226.295515625,140.89286640880613L226.41614062500003,132.6727270048264L226.536765625,141.36177919270324L226.778015625,136.80391903340708L227.01926562499997,135.61238349332305L227.260515625,128.71798538906017L227.50176562500002,136.13406546722624L227.62239062499998,138.78236793350237L227.743015625,129.76337175504887L227.984265625,141.97636022920668L228.104890625,138.87020139591522L228.22551562499999,128.65710263949586L228.346140625,137.83328052209757L228.46676562500002,131.59005489134086L228.58739062499998,136.75156865913485L228.828640625,141.19942678632037L228.949265625,135.36424392953856L229.311140625,140.62013296596035L229.431765625,132.83941885179735L229.67301562499998,135.52705018567102L229.793640625,140.84492554315344L230.15551562500002,140.61535082280955L230.27614062499998,142.60951725633754L230.396765625,139.851926177908L230.517390625,134.21580659865643L230.638015625,136.8215857320801L230.879265625,138.38269828929333L231.361765625,130.39025132353822L231.603015625,137.02239752548763L231.723640625,130.04671413484792L231.844265625,138.93621025896687L232.20614062500002,136.911811062296L232.32676562499998,131.91688722433622L232.568015625,127.70092561726611L232.688640625,137.484149038073L232.80926562500002,142.2964660311767L233.050515625,134.00659938110934L233.171140625,138.86619000111108L233.291765625,133.4400006140954L233.41239062499997,137.9821734966088L233.653640625,128.79714634011796L233.89489062500002,133.76020514829165L234.136140625,130.57864833572575L234.256765625,130.58334926365822L234.498015625,129.30439429952935L234.61864062499998,129.05688534802846L234.739265625,133.85226180205848L234.85989062500002,125.47371131846852L235.101140625,138.64146589949422L235.46301562500003,140.0719780157871L235.583640625,138.11753697121682L235.704265625,138.5807710596508L235.824890625,135.2646645171156L235.945515625,138.29101267760248L236.186765625,133.74383152329113L236.307390625,140.2090056061436L236.428015625,136.41209541627234L236.66926562499998,139.72839942326L236.789890625,134.78988672048973L236.91051562500002,134.94848570982083L237.031140625,127.21391139440955L237.27239062499999,136.35616520257184L237.393015625,136.65816478821665L237.513640625,140.3542709675687L237.996140625,138.20570166432412L238.358015625,138.62263193111443L238.478640625,139.30165963205778L238.59926562500002,131.79523319707593L238.96114062499998,138.679633867206L239.081765625,140.16009175032602L239.20239062500002,140.1264415781916L239.32301562499998,136.31759275122357L239.443640625,139.30070097399025L239.684890625,138.97944541932128L239.805515625,137.96018965172138L239.926140625,127.52487650317758L240.288015625,142.3541797947703L240.40864062499998,134.0493568048853L240.649890625,137.18717842614458L240.770515625,136.68486070822334L240.891140625,141.82538591566845L241.25301562500002,135.85443032327638L241.494265625,143.51588546289264L241.614890625,138.26021618529697L241.735515625,130.85462720239482L241.85614062500002,132.30445580101178L241.97676562499998,136.34329179423645L242.338640625,135.71135777274657L242.700515625,136.74994435476793L242.821140625,119.98570600310521L243.183015625,143.2833838097778L243.303640625,141.4699339767103L243.786140625,136.47036653920748L244.148015625,139.88441385770142L244.268640625,134.24823854251568L244.509890625,135.61480402532078L244.630515625,140.135907132267L244.751140625,132.65342007723387L244.992390625,140.9926862819736L245.113015625,140.28927809097402L245.233640625,138.40352123429497L245.354265625,134.2491143929096L245.83375,137.27395131335317L245.954375,142.17415909725912L246.075,132.3559685438164L246.31625,137.04155157737506L246.43687500000001,142.11530672815346L246.5575,117.5641102452467L247.03396875,139.4219982912719L247.27521875,139.86872658091866L247.39584374999998,139.4184503009489L247.51646875,144.63283358343045L247.75771875,138.5934565582653L247.87834375,139.29315910587096L248.11657812500002,136.56213973593773L248.23720312499998,139.85525281694964L248.5960625,132.6914033201353L248.8373125,137.6248042415156L248.9579375,138.33103744814937L249.07253125,138.87686741364058L249.30775000000003,130.63667740546114L249.425359375,140.6495312825461" style="fill: none;" fill="none"></path></g></g></g></g></g></g><g transform="translate(58, 177)" clip-path="url(#clip_1)"><clipPath id="clip_1"><rect width="271" height="22"></rect></clipPath><g><g><line x1="0" y1="0" x2="0" y2="5" style="visibility: inherit;" fill="rgb(0, 0, 0)" stroke="rgb(204, 204, 204)" stroke-width="1px"></line><line x1="30.15625" y1="0" x2="30.15625" y2="5" style="visibility: inherit;" fill="rgb(0, 0, 0)" stroke="rgb(204, 204, 204)" stroke-width="1px"></line><line x1="60.3125" y1="0" x2="60.3125" y2="5" style="visibility: inherit;" fill="rgb(0, 0, 0)" stroke="rgb(204, 204, 204)" stroke-width="1px"></line><line x1="90.46875" y1="0" x2="90.46875" y2="5" style="visibility: inherit;" fill="rgb(0, 0, 0)" stroke="rgb(204, 204, 204)" stroke-width="1px"></line><line x1="120.625" y1="0" x2="120.625" y2="5" style="visibility: inherit;" fill="rgb(0, 0, 0)" stroke="rgb(204, 204, 204)" stroke-width="1px"></line><line x1="150.78125" y1="0" x2="150.78125" y2="5" style="visibility: inherit;" fill="rgb(0, 0, 0)" stroke="rgb(204, 204, 204)" stroke-width="1px"></line><line x1="180.9375" y1="0" x2="180.9375" y2="5" style="visibility: inherit;" fill="rgb(0, 0, 0)" stroke="rgb(204, 204, 204)" stroke-width="1px"></line><line x1="211.09375" y1="0" x2="211.09375" y2="5" style="visibility: inherit;" fill="rgb(0, 0, 0)" stroke="rgb(204, 204, 204)" stroke-width="1px"></line><line x1="241.25" y1="0" x2="241.25" y2="5" style="visibility: inherit;" fill="rgb(0, 0, 0)" stroke="rgb(204, 204, 204)" stroke-width="1px"></line><line x1="271.40625" y1="0" x2="271.40625" y2="5" style="visibility: inherit;" fill="rgb(0, 0, 0)" stroke="rgb(204, 204, 204)" stroke-width="1px"></line></g><g transform="translate(0, 8)"><text x="0" y="0" dx="0em" dy="0.95em" style="text-anchor: middle; visibility: hidden; font-family: &quot;Helvetica Neue&quot;, sans-serif; font-size: 12px; font-weight: 200;" fill="rgb(50, 49, 63)" stroke="none" stroke-width="1px">-10k</text><text x="30.15625" y="0" dx="0em" dy="0.95em" style="text-anchor: middle; visibility: inherit; font-family: &quot;Helvetica Neue&quot;, sans-serif; font-size: 12px; font-weight: 200;" fill="rgb(50, 49, 63)" stroke="none" stroke-width="1px">0</text><text x="60.3125" y="0" dx="0em" dy="0.95em" style="text-anchor: middle; visibility: inherit; font-family: &quot;Helvetica Neue&quot;, sans-serif; font-size: 12px; font-weight: 200;" fill="rgb(50, 49, 63)" stroke="none" stroke-width="1px">10k</text><text x="90.46875" y="0" dx="0em" dy="0.95em" style="text-anchor: middle; visibility: inherit; font-family: &quot;Helvetica Neue&quot;, sans-serif; font-size: 12px; font-weight: 200;" fill="rgb(50, 49, 63)" stroke="none" stroke-width="1px">20k</text><text x="120.625" y="0" dx="0em" dy="0.95em" style="text-anchor: middle; visibility: inherit; font-family: &quot;Helvetica Neue&quot;, sans-serif; font-size: 12px; font-weight: 200;" fill="rgb(50, 49, 63)" stroke="none" stroke-width="1px">30k</text><text x="150.78125" y="0" dx="0em" dy="0.95em" style="text-anchor: middle; visibility: inherit; font-family: &quot;Helvetica Neue&quot;, sans-serif; font-size: 12px; font-weight: 200;" fill="rgb(50, 49, 63)" stroke="none" stroke-width="1px">40k</text><text x="180.9375" y="0" dx="0em" dy="0.95em" style="text-anchor: middle; visibility: inherit; font-family: &quot;Helvetica Neue&quot;, sans-serif; font-size: 12px; font-weight: 200;" fill="rgb(50, 49, 63)" stroke="none" stroke-width="1px">50k</text><text x="211.09375" y="0" dx="0em" dy="0.95em" style="text-anchor: middle; visibility: inherit; font-family: &quot;Helvetica Neue&quot;, sans-serif; font-size: 12px; font-weight: 200;" fill="rgb(50, 49, 63)" stroke="none" stroke-width="1px">60k</text><text x="241.25" y="0" dx="0em" dy="0.95em" style="text-anchor: middle; visibility: inherit; font-family: &quot;Helvetica Neue&quot;, sans-serif; font-size: 12px; font-weight: 200;" fill="rgb(50, 49, 63)" stroke="none" stroke-width="1px">70k</text><text x="271.40625" y="0" dx="0em" dy="0.95em" style="text-anchor: middle; visibility: hidden; font-family: &quot;Helvetica Neue&quot;, sans-serif; font-size: 12px; font-weight: 200;" fill="rgb(50, 49, 63)" stroke="none" stroke-width="1px">80k</text></g><line x1="0" y1="0" x2="271.40625" y2="0" fill="rgb(0, 0, 0)" stroke="rgb(204, 204, 204)" stroke-width="1px"></line></g></g></g></g></svg>