<svg viewBox="0 0 330 200" xmlns="http://www.w3.org/2000/svg"><g><g><g><g><g><line x1="58.59375" y1="177.828125" x2="53.59375" y2="177.828125" style="visibility: inherit;" fill="rgb(0, 0, 0)" stroke="rgb(204, 204, 204)" stroke-width="1px"></line><line x1="58.59375" y1="152.42410714285714" x2="53.59375" y2="152.42410714285714" style="visibility: inherit;" fill="rgb(0, 0, 0)" stroke="rgb(204, 204, 204)" stroke-width="1px"></line><line x1="58.59375" y1="127.02008928571428" x2="53.59375" y2="127.02008928571428" style="visibility: inherit;" fill="rgb(0, 0, 0)" stroke="rgb(204, 204, 204)" stroke-width="1px"></line><line x1="58.59375" y1="101.61607142857142" x2="53.59375" y2="101.61607142857142" style="visibility: inherit;" fill="rgb(0, 0, 0)" stroke="rgb(204, 204, 204)" stroke-width="1px"></line><line x1="58.59375" y1="76.21205357142856" x2="53.59375" y2="76.21205357142856" style="visibility: inherit;" fill="rgb(0, 0, 0)" stroke="rgb(204, 204, 204)" stroke-width="1px"></line><line x1="58.59375" y1="50.808035714285694" x2="53.59375" y2="50.808035714285694" style="visibility: inherit;" fill="rgb(0, 0, 0)" stroke="rgb(204, 204, 204)" stroke-width="1px"></line><line x1="58.59375" y1="25.404017857142833" x2="53.59375" y2="25.404017857142833" style="visibility: inherit;" fill="rgb(0, 0, 0)" stroke="rgb(204, 204, 204)" stroke-width="1px"></line><line x1="58.59375" y1="0" x2="53.59375" y2="0" style="visibility: inherit;" fill="rgb(0, 0, 0)" stroke="rgb(204, 204, 204)" stroke-width="1px"></line></g><g transform="translate(48.59375, 0)"><text x="0" y="177.828125" dx="0em" dy="0.3em" style="text-anchor: end; visibility: hidden; font-family: &quot;Helvetica Neue&quot;, sans-serif; font-size: 12px; font-weight: 200;" fill="rgb(50, 49, 63)" stroke="none" stroke-width="1px">-5e-3</text><text x="0" y="152.42410714285714" dx="0em" dy="0.3em" style="text-anchor: end; visibility: inherit; font-family: &quot;Helvetica Neue&quot;, sans-serif; font-size: 12px; font-weight: 200;" fill="rgb(50, 49, 63)" stroke="none" stroke-width="1px">0</text><text x="0" y="127.02008928571428" dx="0em" dy="0.3em" style="text-anchor: end; visibility: inherit; font-family: &quot;Helvetica Neue&quot;, sans-serif; font-size: 12px; font-weight: 200;" fill="rgb(50, 49, 63)" stroke="none" stroke-width="1px">5e-3</text><text x="0" y="101.61607142857142" dx="0em" dy="0.3em" style="text-anchor: end; visibility: inherit; font-family: &quot;Helvetica Neue&quot;, sans-serif; font-size: 12px; font-weight: 200;" fill="rgb(50, 49, 63)" stroke="none" stroke-width="1px">0.01</text><text x="0" y="76.21205357142856" dx="0em" dy="0.3em" style="text-anchor: end; visibility: inherit; font-family: &quot;Helvetica Neue&quot;, sans-serif; font-size: 12px; font-weight: 200;" fill="rgb(50, 49, 63)" stroke="none" stroke-width="1px">0.015</text><text x="0" y="50.808035714285694" dx="0em" dy="0.3em" style="text-anchor: end; visibility: inherit; font-family: &quot;Helvetica Neue&quot;, sans-serif; font-size: 12px; font-weight: 200;" fill="rgb(50, 49, 63)" stroke="none" stroke-width="1px">0.02</text><text x="0" y="25.404017857142833" dx="0em" dy="0.3em" style="text-anchor: end; visibility: inherit; font-family: &quot;Helvetica Neue&quot;, sans-serif; font-size: 12px; font-weight: 200;" fill="rgb(50, 49, 63)" stroke="none" stroke-width="1px">0.025</text><text x="0" y="0" dx="0em" dy="0.3em" style="text-anchor: end; visibility: hidden; font-family: &quot;Helvetica Neue&quot;, sans-serif; font-size: 12px; font-weight: 200;" fill="rgb(50, 49, 63)" stroke="none" stroke-width="1px">0.03</text></g><line x1="58.59375" y1="0" x2="58.59375" y2="177.828125" fill="rgb(0, 0, 0)" stroke="rgb(204, 204, 204)" stroke-width="1px"></line></g></g><g transform="translate(58, 0)" clip-path="url(#clip_0)"><clipPath id="clip_0"><rect width="271" height="177"></rect></clipPath><g><g><g><line x1="0" y1="0" x2="0" y2="177.828125" fill="rgb(0, 0, 0)" stroke="rgb(60, 60, 60)" stroke-width="1px" opacity="0.25"></line><line x1="24.673295454545457" y1="0" x2="24.673295454545457" y2="177.828125" fill="rgb(0, 0, 0)" stroke="rgb(60, 60, 60)" stroke-width="1px" opacity="0.25"></line><line x1="49.346590909090914" y1="0" x2="49.346590909090914" y2="177.828125" fill="rgb(0, 0, 0)" stroke="rgb(60, 60, 60)" stroke-width="1px" opacity="0.25"></line><line x1="74.01988636363636" y1="0" x2="74.01988636363636" y2="177.828125" fill="rgb(0, 0, 0)" stroke="rgb(60, 60, 60)" stroke-width="1px" opacity="0.25"></line><line x1="98.69318181818183" y1="0" x2="98.69318181818183" y2="177.828125" fill="rgb(0, 0, 0)" stroke="rgb(60, 60, 60)" stroke-width="1px" opacity="0.25"></line><line x1="123.36647727272727" y1="0" x2="123.36647727272727" y2="177.828125" fill="rgb(0, 0, 0)" stroke="rgb(60, 60, 60)" stroke-width="1px" opacity="0.25"></line><line x1="148.03977272727272" y1="0" x2="148.03977272727272" y2="177.828125" fill="rgb(0, 0, 0)" stroke="rgb(60, 60, 60)" stroke-width="1px" opacity="0.25"></line><line x1="172.7130681818182" y1="0" x2="172.7130681818182" y2="177.828125" fill="rgb(0, 0, 0)" stroke="rgb(60, 60, 60)" stroke-width="1px" opacity="0.25"></line><line x1="197.38636363636365" y1="0" x2="197.38636363636365" y2="177.828125" fill="rgb(0, 0, 0)" stroke="rgb(60, 60, 60)" stroke-width="1px" opacity="0.25"></line><line x1="222.0596590909091" y1="0" x2="222.0596590909091" y2="177.828125" fill="rgb(0, 0, 0)" stroke="rgb(60, 60, 60)" stroke-width="1px" opacity="0.25"></line><line x1="246.73295454545453" y1="0" x2="246.73295454545453" y2="177.828125" fill="rgb(0, 0, 0)" stroke="rgb(60, 60, 60)" stroke-width="1px" opacity="0.25"></line><line x1="271.40625" y1="0" x2="271.40625" y2="177.828125" fill="rgb(0, 0, 0)" stroke="rgb(60, 60, 60)" stroke-width="1px" opacity="0.25"></line></g><g><line x1="0" y1="177.828125" x2="271.40625" y2="177.828125" fill="rgb(0, 0, 0)" stroke="rgb(60, 60, 60)" stroke-width="1px" opacity="0.25"></line><line x1="0" y1="152.42410714285714" x2="271.40625" y2="152.42410714285714" fill="rgb(0, 0, 0)" stroke="rgb(60, 60, 60)" stroke-width="1px" opacity="0.25"></line><line x1="0" y1="127.02008928571428" x2="271.40625" y2="127.02008928571428" fill="rgb(0, 0, 0)" stroke="rgb(60, 60, 60)" stroke-width="1px" opacity="0.25"></line><line x1="0" y1="101.61607142857142" x2="271.40625" y2="101.61607142857142" fill="rgb(0, 0, 0)" stroke="rgb(60, 60, 60)" stroke-width="1px" opacity="0.25"></line><line x1="0" y1="76.21205357142856" x2="271.40625" y2="76.21205357142856" fill="rgb(0, 0, 0)" stroke="rgb(60, 60, 60)" stroke-width="1px" opacity="0.25"></line><line x1="0" y1="50.808035714285694" x2="271.40625" y2="50.808035714285694" fill="rgb(0, 0, 0)" stroke="rgb(60, 60, 60)" stroke-width="1px" opacity="0.25"></line><line x1="0" y1="25.404017857142833" x2="271.40625" y2="25.404017857142833" fill="rgb(0, 0, 0)" stroke="rgb(60, 60, 60)" stroke-width="1px" opacity="0.25"></line><line x1="0" y1="0" x2="271.40625" y2="0" fill="rgb(0, 0, 0)" stroke="rgb(60, 60, 60)" stroke-width="1px" opacity="0.25"></line></g></g></g><g><g><line x1="0" y1="152.42410714285714" x2="271.40625" y2="152.42410714285714" fill="rgb(0, 0, 0)" stroke="rgb(153, 153, 153)" stroke-width="1.5px"></line></g></g><g><g><line x1="24.673295454545457" y1="0" x2="24.673295454545457" y2="177.828125" fill="rgb(0, 0, 0)" stroke="rgb(153, 153, 153)" stroke-width="1.5px"></line></g></g><g><g><g><g><g><path stroke="rgb(255, 112, 67)" stroke-width="2px" d="M35.38150568181818,-15.052879973643343L36.3684375,3.515089782024006L37.35536931818182,-1.3613407542979132L38.12024147727272,16.66426749270724L39.03315340909091,26.60766705165173L40.02008522727272,25.07376052092104L41.007017045454546,37.69704733651588L41.99394886363637,43.21718857444381L42.980880681818185,50.23868426447537L43.9678125,56.5077639181777L44.95474431818182,64.20559427547848L45.94167613636363,70.98701323271612L46.928607954545456,69.41650907786435L47.91553977272727,77.50738573908768L48.902471590909094,80.26265943808016L49.88940340909091,81.0304089562872L50.876335227272726,85.2989099082592L51.86326704545454,87.67935802271887L52.850198863636365,88.67670542506131L53.83713068181818,94.6780127106654L54.824062500000004,97.53612851620878L55.81099431818182,101.45608379489273L56.797926136363635,104.04965209850047L57.78485795454545,104.61853851166859L58.771789772727274,107.91285213757743L59.75872159090909,110.10289139999406L60.745653409090906,111.81221685997671L61.73258522727273,114.19041368657005L62.719517045454545,116.28669188948686L63.70644886363636,108.99535546905854L64.69338068181818,111.45272037848383L65.6803125,112.06645020255694L66.66724431818182,104.47874983655362L67.65417613636365,101.99855236466782L68.64110795454546,105.06085364998856L69.62803977272726,107.53247890058867L70.6149715909091,102.9088971232673L71.60190340909091,102.44096902350162L72.58883522727272,101.97743045440427L73.57576704545455,105.3470327325312L74.56269886363636,101.65206713419684L75.54963068181819,106.95060081453154L76.53656249999999,110.22189348029018L77.52349431818182,111.82002646513288L78.51042613636365,112.32262414343326L79.49735795454545,111.16149968214668L80.48428977272728,113.93629681065985L81.47122159090908,114.28784650503134L82.45815340909091,115.98081847000977L83.44508522727273,115.88052065843686L84.43201704545454,116.66696328898745L85.41894886363637,115.77665444402292L86.40588068181818,106.81769230725538L87.3928125,106.20311512621987L88.3797443181818,107.8359249885403L89.36667613636364,110.19945520998986L90.35360795454547,111.11292094092057L91.34053977272727,112.51868622741925L92.3274715909091,113.5118774804372L93.3144034090909,116.1722161159004L94.30133522727273,118.26373741890447L95.28826704545453,121.02218024929661L96.27519886363636,121.1798471501294L97.26213068181819,122.38479062561835L98.2490625,123.90205576100266L99.23599431818182,124.11111724600947L100.22292613636363,124.96752430051345L101.20985795454546,121.33516768938435L102.19678977272729,122.21438949908892L103.18372159090909,122.22843338673843L104.17065340909092,121.7385526293664L105.15758522727272,117.96789484620808L106.14451704545455,120.50309671757526L107.13144886363635,122.38016791184157L108.11838068181818,121.83165144428676L109.10531250000001,124.20012364770827L110.09224431818181,124.1305450393051L111.07917613636364,118.53832537521004L112.06610795454544,118.59083666578577L113.05303977272727,119.86137791387978L114.03997159090909,120.84542395748026L115.0269034090909,123.51818041697388L116.01383522727274,123.6186085272764L117.00076704545454,124.98825161820477L117.98769886363637,125.77438903509292L118.97463068181818,125.17503770202794L119.9615625,127.62944529673402L120.94849431818183,127.49670439817916L121.93542613636363,128.37653944546236L122.92235795454546,129.7859060440643L123.90928977272726,124.9336248390758L124.8962215909091,127.68355638231397L125.88315340909091,127.37880070678918L126.87008522727272,127.99501960306361L127.85701704545455,126.9854881085902L128.84394886363637,127.18048759865943L129.83088068181817,127.69423854447783L130.8178125,127.23385999297591L131.80474431818183,128.49996793977058L132.79167613636363,128.52936393288903L133.77860795454546,129.7558447357012L134.76553977272727,130.52505588147238L135.7524715909091,130.05722491272414L136.73940340909093,128.04075803574057L137.72633522727273,127.16481265227792L138.71326704545453,127.81662890783565L139.70019886363636,126.4341130540525L140.6871306818182,128.3285776272015L141.67406250000002,129.20559294557566L142.66099431818182,128.82611680584193L143.64792613636362,128.9627301777573L144.63485795454545,128.88948873643528L145.62178977272728,129.80907218984277L146.60872159090908,129.50746559887722L147.59565340909091,131.4096758748133L148.58258522727272,128.7201068591933L149.56951704545455,125.98311492756348L150.55644886363638,126.64605576832903L151.54338068181818,126.70316430048223L152.5303125,127.50443722961211L153.5172443181818,129.10586680399476L154.50417613636364,128.7337500298705L155.49110795454547,129.0637328873936L156.47803977272727,129.62391027410837L157.46497159090907,119.73997407881009L158.4519034090909,121.34149301066331L159.43883522727273,122.47421596140079L160.42576704545456,120.65410710672398L161.41269886363636,124.04284482271089L162.39963068181817,120.446568475949L163.3865625,123.33658020350842L164.37349431818183,124.35464100814191L165.36042613636366,125.31221320896523L166.34735795454546,125.744864478588L167.33428977272726,127.21004752546543L168.3212215909091,124.65009052175319L169.30815340909092,126.78825956655933L170.29508522727275,125.00513909939127L171.28201704545452,122.36815314603805L172.26894886363635,124.64290639104986L173.25588068181818,126.33785745911979L174.2428125,128.5931675540155L175.22974431818182,128.62635293264233L176.21667613636362,130.75380315995994L177.20360795454545,127.61203832392442L178.19053977272728,128.81583534747404L179.1774715909091,128.50996642769366L180.1644034090909,129.09271266582152L181.1513352272727,129.51883413914692L182.13826704545454,131.10327366264798L183.12519886363637,128.1512003524793L184.1121306818182,130.46283760689926L185.0990625,132.78878364397852L186.0859943181818,133.37648555807434L187.07292613636363,133.96255426038772L188.05985795454546,133.57372119028486L189.0467897727273,133.66125825459656L190.03372159090907,132.96260163594812L191.0206534090909,130.54138477629346L192.00758522727273,131.75029962461622L192.99451704545456,131.97844347887565L193.9814488636364,129.42487624804L194.96838068181816,129.84062853994266L195.9553125,131.36860426133566L196.94224431818182,131.35958691339573L197.92917613636365,132.13110400697454L198.91610795454545,132.94559950460356L199.90303977272725,133.32001921894417L200.88997159090908,133.0391856766983L201.87690340909091,131.69757114358424L202.86383522727274,132.97452481726188L203.85076704545455,131.2808024846284L204.83769886363635,130.22910203162354L205.82463068181818,129.4106078957837L206.8115625,124.93070261142346L207.79849431818184,127.65657851283015L208.7854261363636,129.769028061445L209.77235795454544,129.67331937561L210.75928977272727,131.60057313301184L211.7462215909091,132.02375293090006L212.73315340909093,129.6047970785734L213.7200852272727,131.51673245645148L214.70701704545453,132.24202351149628L215.69394886363636,131.39073877609292L216.6808806818182,131.8168014214178L217.66781250000003,130.29275300347615L218.6547443181818,131.6135799381018L219.64167613636363,129.40024250865827L220.62860795454546,127.52043862253126L221.6155397727273,129.50876567876534L222.60247159090912,130.76446663028398L223.5894034090909,131.00665546622395L224.57633522727272,130.7297413818096L225.56326704545455,128.02920025215326L226.55019886363638,129.84474613546357L227.53713068181816,128.73782572556115L228.52406249999999,130.51374316707103L229.51099431818182,128.62249898095973L230.49792613636365,131.09059909087975L231.4601846590909,131.8285823375292L232.44711647727274,130.79659074130254L233.43404829545455,129.62584075889902L234.42098011363635,130.28913371406043L235.40791193181818,130.8857884013169L236.39484375,130.9746518175009L237.35710227272727,129.49462623270213L238.31936079545457,131.63587145958203L239.30629261363634,131.95595697988355L240.26855113636364,131.2141488771001L241.2308096590909,132.85977542419693L242.16839488636361,134.88559134253651L243.10598011363635,134.91433033733097L243.99421875000002,135.02189059933642L244.88245738636363,134.55292592841232L245.69667613636364,135.91309506774422L246.58491477272727,136.55279281776694" style="fill: none;" fill="none"></path></g></g></g></g><g opacity="0.20000000298023224"><g><g><g><path stroke="rgb(255, 112, 67)" stroke-width="2px" d="M27.658764204545456,-11.759055330883712L28.64569602272727,65.87466233689337L29.63262784090909,43.99292859278751L30.545539772727274,27.84706000168805L31.53247159090909,30.202280586286037L32.51940340909091,79.2276694224482L33.407642045454544,-136.5166989103891L34.39457386363636,0.031205338359399093L35.38150568181818,63.48245747932897L36.3684375,75.2309262986694L37.35536931818182,-20.49601253142049L38.12024147727272,88.29073270538355L39.03315340909091,66.51740130382987L40.02008522727272,18.86749997681804L41.007017045454546,89.10110752677012L41.99394886363637,65.81241935754326L42.980880681818185,79.09871658124028L43.9678125,82.36122062468034L44.95474431818182,96.03642053857246L45.94167613636363,99.08905208215582L46.928607954545456,62.89704981373089L47.91553977272727,111.14123578895149L48.902471590909094,91.72930005851333L49.88940340909091,84.2284674183798L50.876335227272726,103.09239616048788L51.86326704545454,97.6082663352468L52.850198863636365,92.83865316842481L53.83713068181818,119.73121883256991L54.824062500000004,109.47139775726411L55.81099431818182,117.82961631805767L56.797926136363635,114.88509847313563L57.78485795454545,106.99562812736256L58.771789772727274,121.67994127929808L59.75872159090909,119.25613937941878L60.745653409090906,118.9569386931419L61.73258522727273,124.13160441244585L62.719517045454545,125.04991312154534L63.70644886363636,78.51348872659062L64.69338068181818,121.72625442817971L65.6803125,114.63235289175228L66.66724431818182,72.75508095889484L67.65417613636365,91.62881412955798L68.64110795454546,117.86457298598751L69.62803977272726,117.86666447122946L70.6149715909091,83.57690825123737L71.60190340909091,100.48446548350952L72.58883522727272,100.03926777086285L73.57576704545455,119.43619875084342L74.56269886363636,86.2024083506216L75.54963068181819,129.10529117603852L76.53656249999999,123.90014513504657L77.52349431818182,118.50231273537167L78.51042613636365,114.42414364316832L79.49735795454545,106.30646481266842L80.48428977272728,125.53862981557279L81.47122159090908,115.7577919837453L82.45815340909091,123.05969929847299L83.44508522727273,115.46114177381551L84.43201704545454,119.95534608195467L85.41894886363637,112.05397035865046L86.40588068181818,69.35721239437615L87.3928125,103.63335739876077L88.3797443181818,114.66326381334302L89.36667613636364,120.0821885104524L90.35360795454547,114.93243607123648L91.34053977272727,118.39667616911797L92.3274715909091,117.66475333770668L93.3144034090909,127.29601211979752L94.30133522727273,127.00911192195156L95.28826704545453,132.5561850428681L96.27519886363636,121.8391070917049L97.26213068181819,127.42307694604719L98.2490625,130.24626735353377L99.23599431818182,124.98527581746123L100.22292613636363,128.54845925563546L101.20985795454546,106.14702455197194L102.19678977272729,125.89072094594925L103.18372159090909,122.28715575425718L104.17065340909092,119.69019117919794L105.15758522727272,102.2014660342164L106.14451704545455,131.10365564012733L107.13144886363635,130.22885408274095L108.11838068181818,119.53811370365187L109.10531250000001,134.10352804892213L110.09224431818181,123.83961272563984L111.07917613636364,95.15531376832429L112.06610795454544,118.81040459986043L113.05303977272727,125.17395191880806L114.03997159090909,124.96006206381466L115.0269034090909,134.69390299196988L116.01383522727274,124.03853331917863L117.00076704545454,130.7152048432368L117.98769886363637,129.06150247823513L118.97463068181818,122.66894171638913L119.9615625,137.8921754889265L120.94849431818183,126.94166862069895L121.93542613636363,132.05543521089876L122.92235795454546,135.67895705193013L123.90928977272726,104.64455265831201L124.8962215909091,139.18197480039504L125.88315340909091,126.10451143173432L126.87008522727272,130.57164472840458L127.85701704545455,122.76428647178025L128.84394886363637,127.99584816065283L129.83088068181817,129.84240959748524L130.8178125,125.30885744878157L131.80474431818183,133.79400479464675L132.79167613636363,128.65227878493687L133.77860795454546,134.88418674515145L134.76553977272727,133.74139471367067L135.7524715909091,128.10106122480437L136.73940340909093,119.60921000627732L137.72633522727273,123.50218091942534L138.71326704545453,130.5420989504616L139.70019886363636,120.6533343287218L140.6871306818182,136.24999167132358L141.67406250000002,132.87269844776267L142.66099431818182,127.23939533038563L143.64792613636362,129.53395811109968L144.63485795454545,128.58324084448395L145.62178977272728,133.65416984216012L146.60872159090908,128.2463437392476L147.59565340909091,139.363477391274L148.58258522727272,117.47408512032624L149.56951704545455,114.53880151397814L150.55644886363638,129.41804156365106L151.54338068181818,126.94195489865626L152.5303125,130.8548375084065L153.5172443181818,135.80199979117606L154.50417613636364,127.17780061682319L155.49110795454547,130.44350576833156L156.47803977272727,131.96620639368692L157.46497159090907,78.41180563526825L158.4519034090909,128.03799963245234L159.43883522727273,127.21052384349915L160.42576704545456,113.04360013406091L161.41269886363636,138.21233361442657L162.39963068181817,105.40928862187346L163.3865625,135.42072250475343L164.37349431818183,128.6115066523863L165.36042613636366,129.31615500204498L166.34735795454546,127.553929631881L167.33428977272726,133.3364864831341L168.3212215909091,113.94602159949551L169.30815340909092,135.72868660883145L170.29508522727275,117.54929341542966L171.28201704545452,111.3419994447114L172.26894886363635,134.1544393896225L173.25588068181818,133.4250362774224L174.2428125,138.0234019922583L175.22974431818182,128.7651125209938L176.21667613636362,139.64941110527226L177.20360795454545,114.47522887998326L178.19053977272728,133.8493286013836L179.1774715909091,127.2310222916172L180.1644034090909,131.52937698794162L181.1513352272727,131.30059594730014L182.13826704545454,137.7283653489971L183.12519886363637,115.80755702964962L184.1121306818182,140.1285954531008L185.0990625,142.51437147777636L186.0859943181818,135.83387128178063L187.07292613636363,136.41311095866175L188.05985795454546,131.94787514068383L189.0467897727273,134.02728110899832L190.03372159090907,130.04127577455282L191.0206534090909,120.41743656001718L192.00758522727273,136.80519228055658L192.99451704545456,132.93239213373244L193.9814488636364,118.74752518439033L194.96838068181816,131.57903320090344L195.9553125,137.75760118964743L196.94224431818182,131.3218822512842L197.92917613636365,135.35708480758643L198.91610795454545,136.35128793251351L199.90303977272725,134.88559802450305L200.88997159090908,131.8649231451314L201.87690340909091,126.08781503880164L202.86383522727274,138.31391142170676L203.85076704545455,124.19876143574115L204.83769886363635,125.83157733952558L205.82463068181818,125.9881997733859L206.8115625,106.19866341723328L207.79849431818184,139.05441194513696L208.7854261363636,138.60191296161167L209.77235795454544,129.27312813483877L210.75928977272727,139.65909013935016L211.7462215909091,133.79321457284718L212.73315340909093,119.49030291884472L213.7200852272727,139.51119800022155L214.70701704545453,135.27471719761627L215.69394886363636,127.83122177365502L216.6808806818182,133.59831724927892L217.66781250000003,123.92017749425887L218.6547443181818,137.13641587718405L219.64167613636363,120.14551035549292L220.62860795454546,119.66032600022818L221.6155397727273,137.8226513491328L222.60247159090912,136.0149882254939L223.5894034090909,132.0193310652061L224.57633522727272,129.57186746407697L225.56326704545455,116.73730029550745L226.55019886363638,137.43617374080765L227.53713068181816,124.10940722405212L228.52406249999999,137.93947050022376L229.51099431818182,120.71455049291917L230.49792613636365,141.4105824520479L231.4601846590909,134.91434648284587L232.44711647727274,126.48147562132881L233.43404829545455,124.73052865631013L234.42098011363635,133.06259182191152L235.40791193181818,133.38060877756547L236.39484375,131.34622060952407L237.35710227272727,123.30612547139336L238.31936079545457,140.58916108700214L239.30629261363634,133.2943456580355L240.26855113636364,128.11239168048735L241.2308096590909,139.74071129729106L242.16839488636361,143.35623095963507L243.10598011363635,135.03449805131612L243.99421875000002,135.47163739435408L244.88245738636363,132.59202183807167L245.69667613636364,141.60043442235994L246.58491477272727,139.2275911818516" style="fill: none;" fill="none"></path></g></g></g></g></g></g><g transform="translate(58, 177)" clip-path="url(#clip_1)"><clipPath id="clip_1"><rect width="271" height="22"></rect></clipPath><g><g><line x1="0" y1="0" x2="0" y2="5" style="visibility: inherit;" fill="rgb(0, 0, 0)" stroke="rgb(204, 204, 204)" stroke-width="1px"></line><line x1="24.673295454545457" y1="0" x2="24.673295454545457" y2="5" style="visibility: inherit;" fill="rgb(0, 0, 0)" stroke="rgb(204, 204, 204)" stroke-width="1px"></line><line x1="49.346590909090914" y1="0" x2="49.346590909090914" y2="5" style="visibility: inherit;" fill="rgb(0, 0, 0)" stroke="rgb(204, 204, 204)" stroke-width="1px"></line><line x1="74.01988636363636" y1="0" x2="74.01988636363636" y2="5" style="visibility: inherit;" fill="rgb(0, 0, 0)" stroke="rgb(204, 204, 204)" stroke-width="1px"></line><line x1="98.69318181818183" y1="0" x2="98.69318181818183" y2="5" style="visibility: inherit;" fill="rgb(0, 0, 0)" stroke="rgb(204, 204, 204)" stroke-width="1px"></line><line x1="123.36647727272727" y1="0" x2="123.36647727272727" y2="5" style="visibility: inherit;" fill="rgb(0, 0, 0)" stroke="rgb(204, 204, 204)" stroke-width="1px"></line><line x1="148.03977272727272" y1="0" x2="148.03977272727272" y2="5" style="visibility: inherit;" fill="rgb(0, 0, 0)" stroke="rgb(204, 204, 204)" stroke-width="1px"></line><line x1="172.7130681818182" y1="0" x2="172.7130681818182" y2="5" style="visibility: inherit;" fill="rgb(0, 0, 0)" stroke="rgb(204, 204, 204)" stroke-width="1px"></line><line x1="197.38636363636365" y1="0" x2="197.38636363636365" y2="5" style="visibility: inherit;" fill="rgb(0, 0, 0)" stroke="rgb(204, 204, 204)" stroke-width="1px"></line><line x1="222.0596590909091" y1="0" x2="222.0596590909091" y2="5" style="visibility: inherit;" fill="rgb(0, 0, 0)" stroke="rgb(204, 204, 204)" stroke-width="1px"></line><line x1="246.73295454545453" y1="0" x2="246.73295454545453" y2="5" style="visibility: inherit;" fill="rgb(0, 0, 0)" stroke="rgb(204, 204, 204)" stroke-width="1px"></line><line x1="271.40625" y1="0" x2="271.40625" y2="5" style="visibility: inherit;" fill="rgb(0, 0, 0)" stroke="rgb(204, 204, 204)" stroke-width="1px"></line></g><g transform="translate(0, 8)"><text x="0" y="0" dx="0em" dy="0.95em" style="text-anchor: middle; visibility: hidden; font-family: &quot;Helvetica Neue&quot;, sans-serif; font-size: 12px; font-weight: 200;" fill="rgb(50, 49, 63)" stroke="none" stroke-width="1px">-1k</text><text x="24.673295454545457" y="0" dx="0em" dy="0.95em" style="text-anchor: middle; visibility: inherit; font-family: &quot;Helvetica Neue&quot;, sans-serif; font-size: 12px; font-weight: 200;" fill="rgb(50, 49, 63)" stroke="none" stroke-width="1px">0</text><text x="49.346590909090914" y="0" dx="0em" dy="0.95em" style="text-anchor: middle; visibility: inherit; font-family: &quot;Helvetica Neue&quot;, sans-serif; font-size: 12px; font-weight: 200;" fill="rgb(50, 49, 63)" stroke="none" stroke-width="1px">1k</text><text x="74.01988636363636" y="0" dx="0em" dy="0.95em" style="text-anchor: middle; visibility: inherit; font-family: &quot;Helvetica Neue&quot;, sans-serif; font-size: 12px; font-weight: 200;" fill="rgb(50, 49, 63)" stroke="none" stroke-width="1px">2k</text><text x="98.69318181818183" y="0" dx="0em" dy="0.95em" style="text-anchor: middle; visibility: inherit; font-family: &quot;Helvetica Neue&quot;, sans-serif; font-size: 12px; font-weight: 200;" fill="rgb(50, 49, 63)" stroke="none" stroke-width="1px">3k</text><text x="123.36647727272727" y="0" dx="0em" dy="0.95em" style="text-anchor: middle; visibility: inherit; font-family: &quot;Helvetica Neue&quot;, sans-serif; font-size: 12px; font-weight: 200;" fill="rgb(50, 49, 63)" stroke="none" stroke-width="1px">4k</text><text x="148.03977272727272" y="0" dx="0em" dy="0.95em" style="text-anchor: middle; visibility: inherit; font-family: &quot;Helvetica Neue&quot;, sans-serif; font-size: 12px; font-weight: 200;" fill="rgb(50, 49, 63)" stroke="none" stroke-width="1px">5k</text><text x="172.7130681818182" y="0" dx="0em" dy="0.95em" style="text-anchor: middle; visibility: inherit; font-family: &quot;Helvetica Neue&quot;, sans-serif; font-size: 12px; font-weight: 200;" fill="rgb(50, 49, 63)" stroke="none" stroke-width="1px">6k</text><text x="197.38636363636365" y="0" dx="0em" dy="0.95em" style="text-anchor: middle; visibility: inherit; font-family: &quot;Helvetica Neue&quot;, sans-serif; font-size: 12px; font-weight: 200;" fill="rgb(50, 49, 63)" stroke="none" stroke-width="1px">7k</text><text x="222.0596590909091" y="0" dx="0em" dy="0.95em" style="text-anchor: middle; visibility: inherit; font-family: &quot;Helvetica Neue&quot;, sans-serif; font-size: 12px; font-weight: 200;" fill="rgb(50, 49, 63)" stroke="none" stroke-width="1px">8k</text><text x="246.73295454545453" y="0" dx="0em" dy="0.95em" style="text-anchor: middle; visibility: inherit; font-family: &quot;Helvetica Neue&quot;, sans-serif; font-size: 12px; font-weight: 200;" fill="rgb(50, 49, 63)" stroke="none" stroke-width="1px">9k</text><text x="271.40625" y="0" dx="0em" dy="0.95em" style="text-anchor: middle; visibility: hidden; font-family: &quot;Helvetica Neue&quot;, sans-serif; font-size: 12px; font-weight: 200;" fill="rgb(50, 49, 63)" stroke="none" stroke-width="1px">10k</text></g><line x1="0" y1="0" x2="271.40625" y2="0" fill="rgb(0, 0, 0)" stroke="rgb(204, 204, 204)" stroke-width="1px"></line></g></g></g></g></svg>