<svg viewBox="0 0 330 200" xmlns="http://www.w3.org/2000/svg"><g><g><g><g><g><line x1="68.3125" y1="172.81041282097704" x2="63.3125" y2="172.81041282097704" style="visibility: inherit;" fill="rgb(0, 0, 0)" stroke="rgb(204, 204, 204)" stroke-width="1px"></line><line x1="68.3125" y1="158.1088258783467" x2="63.3125" y2="158.1088258783467" style="visibility: inherit;" fill="rgb(0, 0, 0)" stroke="rgb(204, 204, 204)" stroke-width="1px"></line><line x1="68.3125" y1="143.4072389357164" x2="63.3125" y2="143.4072389357164" style="visibility: inherit;" fill="rgb(0, 0, 0)" stroke="rgb(204, 204, 204)" stroke-width="1px"></line><line x1="68.3125" y1="128.70565199308606" x2="63.3125" y2="128.70565199308606" style="visibility: inherit;" fill="rgb(0, 0, 0)" stroke="rgb(204, 204, 204)" stroke-width="1px"></line><line x1="68.3125" y1="114.00406505045572" x2="63.3125" y2="114.00406505045572" style="visibility: inherit;" fill="rgb(0, 0, 0)" stroke="rgb(204, 204, 204)" stroke-width="1px"></line><line x1="68.3125" y1="99.3024781078254" x2="63.3125" y2="99.3024781078254" style="visibility: inherit;" fill="rgb(0, 0, 0)" stroke="rgb(204, 204, 204)" stroke-width="1px"></line><line x1="68.3125" y1="84.60089116519505" x2="63.3125" y2="84.60089116519505" style="visibility: inherit;" fill="rgb(0, 0, 0)" stroke="rgb(204, 204, 204)" stroke-width="1px"></line><line x1="68.3125" y1="69.89930422256475" x2="63.3125" y2="69.89930422256475" style="visibility: inherit;" fill="rgb(0, 0, 0)" stroke="rgb(204, 204, 204)" stroke-width="1px"></line><line x1="68.3125" y1="55.19771727993442" x2="63.3125" y2="55.19771727993442" style="visibility: inherit;" fill="rgb(0, 0, 0)" stroke="rgb(204, 204, 204)" stroke-width="1px"></line><line x1="68.3125" y1="40.496130337304066" x2="63.3125" y2="40.496130337304066" style="visibility: inherit;" fill="rgb(0, 0, 0)" stroke="rgb(204, 204, 204)" stroke-width="1px"></line><line x1="68.3125" y1="25.794543394673752" x2="63.3125" y2="25.794543394673752" style="visibility: inherit;" fill="rgb(0, 0, 0)" stroke="rgb(204, 204, 204)" stroke-width="1px"></line><line x1="68.3125" y1="11.092956452043438" x2="63.3125" y2="11.092956452043438" style="visibility: inherit;" fill="rgb(0, 0, 0)" stroke="rgb(204, 204, 204)" stroke-width="1px"></line></g><g transform="translate(58.3125, 0)"><text x="0" y="172.81041282097704" dx="0em" dy="0.3em" style="text-anchor: end; visibility: inherit; font-family: &quot;Helvetica Neue&quot;, sans-serif; font-size: 12px; font-weight: 200;" fill="rgb(50, 49, 63)" stroke="none" stroke-width="1px">1e-3</text><text x="0" y="158.1088258783467" dx="0em" dy="0.3em" style="text-anchor: end; visibility: hidden; font-family: &quot;Helvetica Neue&quot;, sans-serif; font-size: 12px; font-weight: 200;" fill="rgb(50, 49, 63)" stroke="none" stroke-width="1px">1.1e-3</text><text x="0" y="143.4072389357164" dx="0em" dy="0.3em" style="text-anchor: end; visibility: inherit; font-family: &quot;Helvetica Neue&quot;, sans-serif; font-size: 12px; font-weight: 200;" fill="rgb(50, 49, 63)" stroke="none" stroke-width="1px">1.2e-3</text><text x="0" y="128.70565199308606" dx="0em" dy="0.3em" style="text-anchor: end; visibility: hidden; font-family: &quot;Helvetica Neue&quot;, sans-serif; font-size: 12px; font-weight: 200;" fill="rgb(50, 49, 63)" stroke="none" stroke-width="1px">1.3e-3</text><text x="0" y="114.00406505045572" dx="0em" dy="0.3em" style="text-anchor: end; visibility: inherit; font-family: &quot;Helvetica Neue&quot;, sans-serif; font-size: 12px; font-weight: 200;" fill="rgb(50, 49, 63)" stroke="none" stroke-width="1px">1.4e-3</text><text x="0" y="99.3024781078254" dx="0em" dy="0.3em" style="text-anchor: end; visibility: hidden; font-family: &quot;Helvetica Neue&quot;, sans-serif; font-size: 12px; font-weight: 200;" fill="rgb(50, 49, 63)" stroke="none" stroke-width="1px">1.5e-3</text><text x="0" y="84.60089116519505" dx="0em" dy="0.3em" style="text-anchor: end; visibility: inherit; font-family: &quot;Helvetica Neue&quot;, sans-serif; font-size: 12px; font-weight: 200;" fill="rgb(50, 49, 63)" stroke="none" stroke-width="1px">1.6e-3</text><text x="0" y="69.89930422256475" dx="0em" dy="0.3em" style="text-anchor: end; visibility: hidden; font-family: &quot;Helvetica Neue&quot;, sans-serif; font-size: 12px; font-weight: 200;" fill="rgb(50, 49, 63)" stroke="none" stroke-width="1px">1.7e-3</text><text x="0" y="55.19771727993442" dx="0em" dy="0.3em" style="text-anchor: end; visibility: inherit; font-family: &quot;Helvetica Neue&quot;, sans-serif; font-size: 12px; font-weight: 200;" fill="rgb(50, 49, 63)" stroke="none" stroke-width="1px">1.8e-3</text><text x="0" y="40.496130337304066" dx="0em" dy="0.3em" style="text-anchor: end; visibility: hidden; font-family: &quot;Helvetica Neue&quot;, sans-serif; font-size: 12px; font-weight: 200;" fill="rgb(50, 49, 63)" stroke="none" stroke-width="1px">1.9e-3</text><text x="0" y="25.794543394673752" dx="0em" dy="0.3em" style="text-anchor: end; visibility: inherit; font-family: &quot;Helvetica Neue&quot;, sans-serif; font-size: 12px; font-weight: 200;" fill="rgb(50, 49, 63)" stroke="none" stroke-width="1px">2e-3</text><text x="0" y="11.092956452043438" dx="0em" dy="0.3em" style="text-anchor: end; visibility: hidden; font-family: &quot;Helvetica Neue&quot;, sans-serif; font-size: 12px; font-weight: 200;" fill="rgb(50, 49, 63)" stroke="none" stroke-width="1px">2.1e-3</text></g><line x1="68.3125" y1="0" x2="68.3125" y2="177.828125" fill="rgb(0, 0, 0)" stroke="rgb(204, 204, 204)" stroke-width="1px"></line></g></g><g transform="translate(68, 0)" clip-path="url(#clip_0)"><clipPath id="clip_0"><rect width="261" height="177"></rect></clipPath><g><g><g><line x1="3.727177660891999" y1="0" x2="3.727177660891999" y2="177.828125" fill="rgb(0, 0, 0)" stroke="rgb(60, 60, 60)" stroke-width="1px" opacity="0.25"></line><line x1="23.81635081600775" y1="0" x2="23.81635081600775" y2="177.828125" fill="rgb(0, 0, 0)" stroke="rgb(60, 60, 60)" stroke-width="1px" opacity="0.25"></line><line x1="43.90552397112349" y1="0" x2="43.90552397112349" y2="177.828125" fill="rgb(0, 0, 0)" stroke="rgb(60, 60, 60)" stroke-width="1px" opacity="0.25"></line><line x1="63.994697126239245" y1="0" x2="63.994697126239245" y2="177.828125" fill="rgb(0, 0, 0)" stroke="rgb(60, 60, 60)" stroke-width="1px" opacity="0.25"></line><line x1="84.08387028135499" y1="0" x2="84.08387028135499" y2="177.828125" fill="rgb(0, 0, 0)" stroke="rgb(60, 60, 60)" stroke-width="1px" opacity="0.25"></line><line x1="104.17304343647073" y1="0" x2="104.17304343647073" y2="177.828125" fill="rgb(0, 0, 0)" stroke="rgb(60, 60, 60)" stroke-width="1px" opacity="0.25"></line><line x1="124.2622165915865" y1="0" x2="124.2622165915865" y2="177.828125" fill="rgb(0, 0, 0)" stroke="rgb(60, 60, 60)" stroke-width="1px" opacity="0.25"></line><line x1="144.35138974670224" y1="0" x2="144.35138974670224" y2="177.828125" fill="rgb(0, 0, 0)" stroke="rgb(60, 60, 60)" stroke-width="1px" opacity="0.25"></line><line x1="164.44056290181797" y1="0" x2="164.44056290181797" y2="177.828125" fill="rgb(0, 0, 0)" stroke="rgb(60, 60, 60)" stroke-width="1px" opacity="0.25"></line><line x1="184.52973605693373" y1="0" x2="184.52973605693373" y2="177.828125" fill="rgb(0, 0, 0)" stroke="rgb(60, 60, 60)" stroke-width="1px" opacity="0.25"></line><line x1="204.6189092120495" y1="0" x2="204.6189092120495" y2="177.828125" fill="rgb(0, 0, 0)" stroke="rgb(60, 60, 60)" stroke-width="1px" opacity="0.25"></line><line x1="224.70808236716525" y1="0" x2="224.70808236716525" y2="177.828125" fill="rgb(0, 0, 0)" stroke="rgb(60, 60, 60)" stroke-width="1px" opacity="0.25"></line><line x1="244.79725552228098" y1="0" x2="244.79725552228098" y2="177.828125" fill="rgb(0, 0, 0)" stroke="rgb(60, 60, 60)" stroke-width="1px" opacity="0.25"></line></g><g><line x1="0" y1="172.81041282097704" x2="261.6875" y2="172.81041282097704" fill="rgb(0, 0, 0)" stroke="rgb(60, 60, 60)" stroke-width="1px" opacity="0.25"></line><line x1="0" y1="158.1088258783467" x2="261.6875" y2="158.1088258783467" fill="rgb(0, 0, 0)" stroke="rgb(60, 60, 60)" stroke-width="1px" opacity="0.25"></line><line x1="0" y1="143.4072389357164" x2="261.6875" y2="143.4072389357164" fill="rgb(0, 0, 0)" stroke="rgb(60, 60, 60)" stroke-width="1px" opacity="0.25"></line><line x1="0" y1="128.70565199308606" x2="261.6875" y2="128.70565199308606" fill="rgb(0, 0, 0)" stroke="rgb(60, 60, 60)" stroke-width="1px" opacity="0.25"></line><line x1="0" y1="114.00406505045572" x2="261.6875" y2="114.00406505045572" fill="rgb(0, 0, 0)" stroke="rgb(60, 60, 60)" stroke-width="1px" opacity="0.25"></line><line x1="0" y1="99.3024781078254" x2="261.6875" y2="99.3024781078254" fill="rgb(0, 0, 0)" stroke="rgb(60, 60, 60)" stroke-width="1px" opacity="0.25"></line><line x1="0" y1="84.60089116519505" x2="261.6875" y2="84.60089116519505" fill="rgb(0, 0, 0)" stroke="rgb(60, 60, 60)" stroke-width="1px" opacity="0.25"></line><line x1="0" y1="69.89930422256475" x2="261.6875" y2="69.89930422256475" fill="rgb(0, 0, 0)" stroke="rgb(60, 60, 60)" stroke-width="1px" opacity="0.25"></line><line x1="0" y1="55.19771727993442" x2="261.6875" y2="55.19771727993442" fill="rgb(0, 0, 0)" stroke="rgb(60, 60, 60)" stroke-width="1px" opacity="0.25"></line><line x1="0" y1="40.496130337304066" x2="261.6875" y2="40.496130337304066" fill="rgb(0, 0, 0)" stroke="rgb(60, 60, 60)" stroke-width="1px" opacity="0.25"></line><line x1="0" y1="25.794543394673752" x2="261.6875" y2="25.794543394673752" fill="rgb(0, 0, 0)" stroke="rgb(60, 60, 60)" stroke-width="1px" opacity="0.25"></line><line x1="0" y1="11.092956452043438" x2="261.6875" y2="11.092956452043438" fill="rgb(0, 0, 0)" stroke="rgb(60, 60, 60)" stroke-width="1px" opacity="0.25"></line></g></g></g><g><g><line x1="0" y1="319.82628224728035" x2="261.6875" y2="319.82628224728035" fill="rgb(0, 0, 0)" stroke="rgb(153, 153, 153)" stroke-width="1.5px"></line></g></g><g><g><line x1="104.17304343647073" y1="0" x2="104.17304343647073" y2="177.828125" fill="rgb(0, 0, 0)" stroke="rgb(153, 153, 153)" stroke-width="1.5px"></line></g></g><g><g><g><g><g><path stroke="rgb(255, 112, 67)" stroke-width="2px" d="M104.1830880230483,-20.340428574881315L104.58487148615062,44.0961099712122L104.98665494925294,67.1464356661278L105.38843841235524,63.7423268113609L105.79022187545756,48.491139053372194L106.19200533855988,48.195605538650995L106.59378880166219,54.0205166600371L106.9955722647645,62.934984465414615L107.39735572786681,56.309509867325474L107.79913919096914,60.955161919043675L108.20092265407145,59.493614124932904L108.60270611717377,59.3429621151858L109.00448958027609,57.9279467393778L109.40627304337839,63.62545616459721L109.80805650648071,49.15289061017225L110.20983996958302,59.035144820633064L110.61162343268535,54.903129898764675L111.01340689578765,60.85234805865311L111.41519035888997,59.52704800803312L111.81697382199229,68.51140184160035L112.2187572850946,71.84415437852978L112.62054074819692,73.32839442021675L113.02232421129922,77.68819194098518L113.42410767440155,83.10840546371224L113.82589113750386,86.06080238724124L114.22767460060618,90.22922171296736L114.6294580637085,91.17180687075103L115.0312415268108,84.05134580313579L115.43302498991312,85.3130123089558L115.83480845301543,83.43800776310161L116.23659191611776,87.30681579231262L116.63837537922007,89.69706638338357L117.04015884232238,87.88799367309396L117.44194230542469,82.24347537286009L117.84372576852701,84.6677215544075L118.24550923162933,82.63010896956814L118.64729269473163,81.88443506687973L119.04907615783395,88.08638084425637L119.45085962093627,85.96024554180556L119.85264308403859,86.4900061607241L120.2544265471409,72.987346414948L120.65621001024321,74.5713745091432L121.05799347334553,72.90540185153218L121.45977693644784,75.31082661140213L121.86156039955016,80.88439668926117L122.26334386265248,80.769446430174L122.6651273257548,79.79905608509736L123.0669107888571,68.59877878775787L123.46869425195942,75.87023724915186L123.87047771506174,71.91520459330289L124.27226117816404,61.10261682518633L124.67404464126636,50.99232332599371L125.07582810436868,56.007576807262126L125.477611567471,59.92552303552719L125.8793950305733,64.6763812259858L126.28117849367563,62.32440821310077L126.68296195677794,68.14045610053131L127.08474541988025,70.49199177139361L127.48652888298257,73.04483291229349L127.88831234608487,74.89310706399391L128.2900958091872,80.5433455733421L128.69187927228953,86.78551599116538L129.09366273539183,82.59090551321508L129.49544619849414,86.25884811347747L129.89722966159647,77.26385798986014L130.29901312469877,73.33479302668955L130.70079658780108,76.36656932216306L131.1025800509034,73.67997924359352L131.50436351400572,72.19258526375195L131.90614697710802,66.36252717096002L132.30793044021036,59.116922599756265L132.6996693167351,63.657743680007556L133.10145277983742,68.03754427962636L133.50323624293972,69.27118211197417L133.90501970604205,65.83973215622443L134.30680316914436,66.31505276707011L134.69854204566911,72.84717167066945L135.10032550877142,72.84601708884716L135.50210897187375,69.82429020835102L135.9038924349761,63.071883927323825L136.3056758980784,66.49035289220076L136.7074593611807,63.438546560914986L137.10924282428303,67.92708640768308L137.51102628738533,74.42798135663452L137.91280975048764,73.50935365167058L138.31459321358997,78.38231158205666L138.70633209011473,82.50157185455897L139.10811555321703,80.93161945267579L139.50989901631934,82.28328382237164L139.91168247942164,85.51665436905364L140.31346594252398,76.05901735576619L140.70520481904873,69.97413691476763L141.10698828215104,71.96963252501149L141.50877174525334,77.52825723473673L141.91055520835567,76.84241123308921L142.30229408488043,81.08897429853437L142.70407754798276,76.16891313680783L143.10586101108507,79.19625706046062L143.5076444741874,84.31424756567905L143.9094279372897,87.33111871238673L144.311211400392,92.88037990904516L144.70295027691677,89.81285597204742L145.10473374001907,91.47958877571098L145.45629427023363,91.29262133147057L145.85807773333593,88.271566302268L146.25986119643824,89.9592590924517L146.651600072963,95.4721644705668L147.0533835360653,95.9004296850091L147.44512241259008,81.11786942776888L147.83686128911484,85.89264099543067L148.2286001656396,92.21585020274945L148.6303836287419,92.8614793519951L149.00203333211155,94.91906020254781L149.3937722086363,92.04077102506862L149.77546649858348,89.94840135781254L150.16720537510824,83.770885840681L150.56898883821057,83.51745075215163L150.9406385415802,76.53788623766705L151.33237741810495,78.61344973112077L151.71407170805216,72.09224948438408L152.09576599799937,71.34421539218587L152.48750487452412,72.02161215031288L152.88928833762643,72.93349966220833L153.28102721415118,75.00901030507534L153.67276609067594,76.65903751767202L154.0444157940456,76.12448162691884L154.40602091083767,81.19314486432538L154.79775978736242,74.87955873017346L155.17945407730963,81.1793835557849L155.55110378067928,86.67779323647875L155.89261972431623,88.86993226467854L156.284358600841,81.24847172300551L156.65600830421062,83.69239067890953L157.02765800758027,87.68138579082192L157.41939688410503,90.65537698742884L157.7810020008971,89.59243328066152L158.1426071176892,89.83109804125361L158.5042122344813,97.16886782122037L158.83568359154071,102.70622172299817L159.19728870833276,106.84639331794429L159.87027600902917,111.11210161263774L160.20174736608857,110.44655013097855L160.52317413657042,108.54750849743965L160.91491301309517,107.7864887660546L161.56781114063645,104.70667799063342L161.9294162574285,108.03821823730152L162.2407984413328,104.03209525835135L162.59235897154736,103.21053651415528L162.90374115545166,101.37606921651482L163.25530168566615,106.63486381995487L163.54659469641535,110.52323043242352L163.87806605347475,107.3535508864732L164.16935906422393,110.8389119980896L164.52091959443845,108.62657005372986L164.87248012465298,111.78021760236186L165.2340852414451,105.78991946430895L165.5354228387718,109.78757522532787L166.16823179315793,112.91489140610875L166.46956939048468,115.40574519680587L166.76086240123385,119.00030397368785L167.09233375829328,111.55721625937852L167.38362676904245,112.74975417482531L167.67491977979162,107.07615977311671L168.31777332075532,101.06357025211427L168.63920009123717,97.8512039517755L168.98071603487415,102.49823072817988L169.5432128832174,105.18788762050866L169.81441672081144,101.84205985610691L170.15593266444841,101.70256551214457L170.4271365020425,102.28531683414963L170.72847409936924,100.81347821396683L170.95949959065305,104.10736402981055L171.74297734370256,94.80401338503134L172.02422576787419,91.04119344642069L172.7173022417257,88.67294391487552L173.6614933800161,85.05128414579929L173.9025634578775,86.40329941675665L174.163722708894,88.5992481188804L174.3847036136003,91.14688095947135L174.63581827803924,87.13855981483744L175.66036610895014,87.29624472175611L176.13246167809535,93.40682094535941L176.54428972777524,93.6435348659426L176.92598401772244,99.28975361542399L177.1670540955838,103.59795873458083L177.37799041371252,95.32250286652068L177.61906049157392,101.12282735154588L177.890264329168,100.82501880548463L178.11124523387426,100.98064576874536L178.30209237884787,102.15865690870953L178.85454464061354,104.80781288593703L179.28646186344852,107.6889848539668L179.51748735473237,111.33323337113788L179.73846825943863,111.43931833419389L180.3411434540921,113.24741604239087L180.55207977222082,116.0414044093522L180.73288233061686,112.8164940215929L181.73734098837264,110.7509644126206L181.92818813334623,105.72952176555786L182.1089906917423,104.1768126242901L182.46055122195682,102.98627509400461L182.6313091937753,101.15411548365742L182.9426913776796,104.60038599700972L183.2239398018512,109.91266629571825L183.3946977736697,108.74867008829403L183.5855449186433,111.95693845552856L183.706079957574,115.20314353913443L183.83665958308222,112.62820505461279L185.46388260864663,106.23695042882832L185.71499727308557,108.92861224516267L185.79535396570603,105.14288994846459L185.95606735094694,100.9199579151584L186.0866469764552,104.53865812654784L187.2819527791846,111.38482390001738L187.7841821080625,115.7165950068565L188.11565346512188,112.82913658379826L188.26632226378527,113.57270031490404L188.3768127161384,109.86312638945459L188.5174369282242,110.74564887545635L189.4716726530922,105.90077922579393L189.62234145175557,108.859767864666L190.34555168533976,113.9625555604057L190.5062650705807,116.38033529040479L191.61116959411203,113.47348786106983L192.10335433641237,117.82976176342837L192.41473652031667,117.72223582508204L192.87678750288433,123.42295013521559L194.02187037272594,118.33421635494607L194.37343090294047,118.72485526653244L194.48392135529357,116.33802735329965L194.6747685002672,114.37745615095172L195.20713158887776,113.59126322748396L195.30757745465334,118.83744468799591L195.44820166673915,107.38529285231304L195.87007430299658,111.39377840671678L195.97052016877217,114.58177182394894L196.25176859294376,112.22901498442654L196.51292784396028,109.20108312864501L196.77408709497678,112.89955268471864L196.91471130706262,114.25729489007067L197.21604890438934,115.670719026803L197.5173865017161,111.7200391971042L198.0296604171715,116.43950328098681L198.37117636080848,119.24235532264007L198.45153305342896,123.37236637203226L198.66246937155768,125.1652657844221L198.78300441048836,126.34822863309428L199.95822104006263,122.346116397519L201.1334376696369,123.2762718300441L201.3443739877656,112.59969979817984L201.95709376899666,107.96231650238883L202.12785174081512,110.95418812258991L202.94146325359733,112.8667680314111L203.18253333145873,116.46332845414918L203.34324671669964,106.91381454995515L203.62449514087126,114.49566441606007L204.2070811623696,107.81209182803144L204.30752702814522,96.8188773611789L204.98051432884156,93.6838872924595L205.50283283087458,86.96320845044221L206.33653351681187,90.66152578216834L206.4269347960099,95.11995008831408L206.76845073964685,92.97147085133514L206.99947623093072,87.43120124531555L207.29076924167987,91.86804612923231L207.5418839061188,94.6908521314889L207.61219601216175,87.96021320899996L208.4961196309868,87.44472636951126L209.03852730617496,95.07056244473735L209.20928527799344,90.96557306943762L209.44031076927726,97.68186548250434L209.6010241545182,91.90808147721583L209.9827184444654,97.9625741176807L210.05303055050828,103.82081564033557L210.34432356125748,103.83345944129559L210.4347248404555,108.58996202460317L211.18806883377232,110.26661507497495L211.32869304585816,103.53542804297804L211.85101154789118,107.53745500418047L212.1523491452179,108.84996305586691L212.23270583783835,112.66657780783919L212.3231071170364,110.5419368175674L212.56417719489775,102.5354010204846L212.6244447143631,104.52256433606529L212.694756820406,108.56378653659834L212.8655147922245,106.37223018650916L212.92578231168986,98.92201751908628L213.37778870767994,91.50667177085323L213.8900626231354,90.86386649537324L213.9804639023334,85.11423358626675L215.3967506097691,81.7481660945105L215.71817738025092,79.83143773420058L216.08982708362058,80.68487084292103L216.93357235613544,87.39969454288078L217.00388446217835,79.98830803031697L217.36548957897043,83.09573882144598L217.7974068018054,89.65976989294066L218.58088455485492,88.18033631502841L218.81191004613876,93.985703106196L219.65565531865363,93.12183436316438L220.46926683143582,95.14617264909965L220.54962352405627,101.38261692208293L221.11212037239952,99.92724359563104L221.15229871870974,99.92290418579479L221.7348847402081,103.48910339777834L222.5183624932576,107.23821737051497L222.58867459930053,113.3910145749229L222.669031291921,117.71249072608367L223.22148355368668,117.65762886797535L223.281751073152,112.0203298110245L224.01500589331374,116.86188483432213L224.09536258593423,119.0106667986384L224.30629890406294,112.85394636329315L224.58754732823454,112.71550835277353L224.6176810879672,105.12246258908304L225.33084673497382,105.17681422608473L225.4312926007494,102.3695765437201L225.64222891887815,100.97103643917667L225.8632098235844,103.68978093586755L226.144458247756,104.46866091203268L226.26499328668672,105.99932923623274L226.33530539272962,104.76233337577234L227.4602990894161,99.1799352818732L228.7761399310762,97.09530756914548L230.24264957139962,101.80643585022928L230.59421010161415,101.05875756159779L230.64443303450193,98.96002592863806L230.87545852578575,94.32167384099715L231.11652860364717,88.80424890455716L231.37768785466366,95.03091364136162" style="fill: none;" fill="none"></path></g></g></g></g><g opacity="0.20000000298023224"><g><g><g><path stroke="rgb(255, 112, 67)" stroke-width="2px" d="M104.1830880230483,-20.340428574881315L104.58487148615062,102.54005043251908L104.98665494925294,107.01540845401291L105.38843841235524,55.314462556866516L105.79022187545756,0.41111353714990173L106.19200533855988,47.08252095880263L106.59378880166219,79.20210466982509L106.9955722647645,105.97437756164122L107.39735572786681,21.287046740585453L107.79913919096914,87.44202181117384L108.20092265407145,50.61003871707945L108.60270611717377,58.375787560773304L109.00448958027609,48.405074837210265L109.40627304337839,103.57065835094124L109.80805650648071,-56.00435399063778L110.20983996958302,133.12473570389932L110.61162343268535,23.05772003922408L111.01340689578765,107.83476716478468L111.41519035888997,48.832142930745135L111.81697382199229,142.41946123192088L112.2187572850946,99.7334978263344L112.62054074819692,85.94000109395698L113.02232421129922,115.24257499504574L113.42410767440155,130.37108525285095L113.82589113750386,112.08847011957832L114.22767460060618,127.34027611520362L114.6294580637085,99.6380480304123L115.0312415268108,19.585414947550163L115.43302498991312,96.81768370012702L115.83480845301543,66.22996909149052L116.23659191611776,123.0200988897696L116.63837537922007,111.87761455462223L117.04015884232238,71.02094297932815L117.44194230542469,29.39105446299621L117.84372576852701,107.45488484986865L118.24550923162933,63.41028935719537L118.64729269473163,74.82864876146019L119.04907615783395,146.93851359248396L119.45085962093627,65.73262721957013L119.85264308403859,91.5418104724894L120.2544265471409,-56.046285495032436L120.65621001024321,89.73755774053555L121.05799347334553,56.92702841158756L121.45977693644784,98.41746472473262L121.86156039955016,134.50041423114004L122.26334386265248,79.66223874968261L122.6651273257548,70.44131266939569L123.0669107888571,-39.52256860936839L123.46869425195942,146.13202528632638L123.87047771506174,33.66587720408495L124.27226117816404,-43.54857493784908L124.67404464126636,-46.93123218461713L125.07582810436868,104.61429070807539L125.477611567471,97.91957517602015L125.8793950305733,110.77195780078345L126.28117849367563,39.49324384646124L126.68296195677794,124.62280656223295L127.08474541988025,93.3378651674616L127.48652888298257,97.85532584234765L127.88831234608487,92.86189980533263L128.2900958091872,135.49073367554382L128.69187927228953,147.50551310639875L129.09366273539183,41.77844237637217L129.49544619849414,121.95479906954824L129.89722966159647,-10.291654793545177L130.29901312469877,35.08312782282559L130.70079658780108,105.88745098579608L131.1025800509034,47.516349437739876L131.50436351400572,57.70549962684957L131.90614697710802,9.571350182912965L132.30793044021036,-11.471042535519558L132.6996693167351,107.89966686464778L133.10145277983742,110.71450308231287L133.50323624293972,81.29279236404399L133.90501970604205,32.398279268783966L134.30680316914436,70.94763986368635L134.69854204566911,136.51466678306235L135.10032550877142,72.83476294024388L135.50210897187375,40.36887634762064L135.9038924349761,-2.752746831176637L136.3056758980784,99.81607721764229L136.7074593611807,33.68619259009168L137.10924282428303,111.68779320146248L137.51102628738533,137.80997374106332L137.91280975048764,64.55272603060317L138.31459321358997,125.89490571616895L138.70633209011473,122.66635102677628L139.10811555321703,65.62350261874548L139.50989901631934,95.4631934187804L139.91168247942164,117.04539007542034L140.31346594252398,-16.164256115968413L140.70520481904873,10.638429952708634L141.10698828215104,91.42862964042328L141.50877174525334,131.73360242218166L141.91055520835567,70.15426157073954L142.30229408488043,122.50049053327065L142.70407754798276,28.189177742746466L143.10586101108507,108.71871750722399L143.5076444741874,134.22491568981712L143.9094279372897,116.75185242975786L144.311211400392,146.9974744221328L144.70295027691677,59.89781559580133L145.10473374001907,107.73394329034016L145.45629427023363,89.46926457200863L145.85807773333593,58.809307971515L146.25986119643824,106.41821825693394L146.651600072963,149.23608619491625L147.0533835360653,100.07704520907495L147.44512241259008,-63.048025213755494L147.83686128911484,132.45838419691873L148.2286001656396,153.8827985927364L148.6303836287419,99.15797509234264L149.00203333211155,114.98564611995477L149.3937722086363,63.970169072812936L149.77546649858348,69.54247236417132L150.16720537510824,23.52430643628844L150.56898883821057,81.04580724570945L150.9406385415802,8.469116409024792L151.33237741810495,98.85557192860811L151.71407170805216,8.493590715671473L152.09576599799937,64.04893184147593L152.48750487452412,78.62800247251282L152.88928833762643,81.82679435123515L153.28102721415118,95.25069482344803L153.67276609067594,92.75114928903142L154.0444157940456,70.91115089741311L154.40602091083767,130.62601168467083L154.79775978736242,13.305376321608662L155.17945407730963,142.61938037593484L155.55110378067928,140.30188603019013L155.89261972431623,110.2491147282312L156.284358600841,6.91895147880291L156.65600830421062,107.52710972682601L157.02765800758027,126.5847217507108L157.41939688410503,119.65972524247987L157.7810020008971,79.22589438048166L158.1426071176892,92.15871703408375L158.5042122344813,168.7317369630775L158.83568359154071,156.71023137661967L159.19728870833276,147.2241441544606L159.87027600902917,152.71417612270662L160.20174736608857,103.95564090598364L160.52317413657042,90.02676531656056L160.91491301309517,100.36450706532517L161.56781114063645,74.67026747914659L161.9294162574285,140.5296682310019L162.2407984413328,64.96165233039991L162.59235897154736,95.19813496630678L162.90374115545166,83.485091218096L163.25530168566615,157.92222300262338L163.54659469641535,148.44524090713287L163.87806605347475,76.44066693938915L164.16935906422393,144.8305398495146L164.52091959443845,87.0502959856288L164.87248012465298,142.5367496399277L165.2340852414451,47.36842535917532L165.5354228387718,148.77545578296588L166.16823179315793,143.41462419295473L166.46956939048468,139.69826063080407L166.76086240123385,154.05690846792297L167.09233375829328,38.967114713156434L167.38362676904245,124.38020285823518L167.67491977979162,51.74337026381872L168.31777332075532,42.42466676124329L168.63920009123717,66.52200062597475L168.98071603487415,147.81922921886996L169.5432128832174,131.41927017331938L169.81441672081144,69.21124770925286L170.15593266444841,100.34212077644834L170.4271365020425,107.9687083702511L170.72847409936924,86.45909600346333L170.95949959065305,136.23160345604865L171.74297734370256,4.071340228110984L172.02422576787419,54.34358563858207L172.7173022417257,65.5761456911291L173.6614933800161,49.73036709957839L173.9025634578775,99.58908230221918L174.163722708894,110.0156503807015L174.3847036136003,115.99314892371048L174.63581827803924,48.04665460658441L175.66036610895014,88.8340964123779L176.13246167809535,153.00136414056078L176.54428972777524,95.95213187492212L176.92598401772244,154.3555634686116L177.1670540955838,145.6145391773968L177.37799041371252,14.614563463309253L177.61906049157392,157.6915826135529L177.890264329168,97.92058495510557L178.11124523387426,102.49842699631995L178.30209237884787,113.64743210827318L178.85454464061354,130.6442048231082L179.28646186344852,135.78815640345022L179.51748735473237,146.87445252270874L179.73846825943863,112.4739318918138L180.3411434540921,130.8812290697865L180.55207977222082,143.29030156114945L180.73288233061686,81.36494878140233L181.73734098837264,90.60649831589154L181.92818813334623,56.7569576527427L182.1089906917423,89.03372460309608L182.46055122195682,91.37533384259265L182.6313091937753,83.28563417637535L182.9426913776796,138.2107875783772L183.2239398018512,161.72167940307452L183.3946977736697,97.39657806937012L183.5855449186433,143.24617934958638L183.706079957574,146.86236940348317L183.83665958308222,87.5156329950112L185.46388260864663,43.90503713027269L185.71499727308557,135.17955056823604L185.79535396570603,68.22192092903475L185.95606735094694,59.73501866935146L186.0866469764552,139.83071283999197L187.2819527791846,178.15334380041742L187.7841821080625,157.9630078087346L188.11565346512188,84.66865499561011L188.26632226378527,120.824445515366L188.3768127161384,73.68480866627264L188.5174369282242,119.35261548131331L189.4716726530922,58.650276323010786L189.62234145175557,137.71786135059307L190.34555168533976,163.72845274380478L190.5062650705807,139.96018705662289L191.61116959411203,85.12391132903804L192.10335433641237,160.31514271157926L192.41473652031667,116.67356887828795L192.87678750288433,179.02023914525293L194.02187037272594,68.70538261725551L194.37343090294047,122.53463475827775L194.48392135529357,93.06003899977229L194.6747685002672,95.25661657876255L195.20713158887776,105.92376880307181L195.30757745465334,170.00181655884268L195.44820166673915,-4.303972885183185L195.87007430299658,150.48728805625393L195.97052016877217,145.67327751334886L196.25176859294376,89.28331118619303L196.51292784396028,79.67060793566179L196.77408709497678,148.96957297596362L196.91471130706262,127.49893123591329L197.21604890438934,129.4554038862697L197.5173865017161,73.19029075281149L198.0296604171715,162.4669648277156L198.37117636080848,146.5776972758927L198.45153305342896,163.6510762820218L198.66246937155768,142.65085467658048L198.78300441048836,137.88529641487597L199.95822104006263,83.31476373575484L201.1334376696369,132.3477877147153L201.3443739877656,8.47442202794818L201.95709376899666,62.73536328543857L202.12785174081512,140.13297908452847L202.94146325359733,131.51956348587154L203.18253333145873,151.53946074836477L203.34324671669964,13.780383249351473L203.62449514087126,188.43908192628274L204.2070811623696,42.62929250268931L204.30752702814522,-10.394515341060298L204.98051432884156,63.10930673014033L205.50283283087458,21.41852340048746L206.33653351681187,126.73006147941265L206.4269347960099,138.60157208443582L206.76845073964685,72.01802280913432L206.99947623093072,33.39867938914222L207.29076924167987,135.13921074951838L207.5418839061188,122.22079884150827L207.61219601216175,22.31839059969701L208.4961196309868,82.41734396720999L209.03852730617496,169.44296373721025L209.20928527799344,50.93089174274763L209.44031076927726,163.1837710591678L209.6010241545182,35.598166501090475L209.9827184444654,157.01015287989L210.05303055050828,160.9544184471507L210.34432356125748,103.95677048936734L210.4347248404555,154.97864850901675L211.18806883377232,126.61848944792331L211.32869304585816,37.88825989233075L211.85101154789118,146.56797601283301L212.1523491452179,121.65044480724188L212.23270583783835,149.88883135659322L212.3231071170364,89.82097576193134L212.56417719489775,24.450154053322905L212.6244447143631,123.90274849982768L212.694756820406,147.97656649229864L212.8655147922245,84.99866449264609L212.92578231168986,26.26241655836114L213.37778870767994,19.187117000499995L213.8900626231354,84.59478708827646L213.9804639023334,29.03985672006607L215.3967506097691,48.91995948137742L215.71817738025092,61.13818372559541L216.08982708362058,89.00813782796543L216.93357235613544,152.88727621880776L217.00388446217835,7.707366450821382L217.36548957897043,113.40154234352285L217.7974068018054,153.6767180848114L218.58088455485492,73.75188195840437L218.81191004613876,150.60363514477433L219.65565531865363,84.69679189080392L220.46926683143582,114.8889127065512L220.54962352405627,162.20471321880146L221.11212037239952,85.73344136883887L221.15229871870974,99.88058327481109L221.7348847402081,138.26913227163493L222.5183624932576,143.8021568680603L222.58867459930053,173.39732709532515L222.669031291921,159.85850007127135L223.22148355368668,117.12257827330606L223.281751073152,57.04150997603489L224.01500589331374,164.080061244329L224.09536258593423,139.96706724632358L224.30629890406294,52.809371794929945L224.58754732823454,111.36536560501705L224.6176810879672,31.06985497976106L225.33084673497382,105.70688879340267L225.4312926007494,74.99146280280982L225.64222891887815,87.33151090346918L225.8632098235844,130.20484823155073L226.144458247756,112.06483444301952L226.26499328668672,120.92746009697888L226.33530539272962,92.69829847859437L227.4602990894161,44.736547419869055L228.7761399310762,76.76458353211308L230.24264957139962,147.7526009141318L230.59421010161415,93.76688435956828L230.64443303450193,78.49175075557974L230.87545852578575,49.085272298090956L231.11652860364717,34.99452398680464L231.37768785466366,155.75763317127135" style="fill: none;" fill="none"></path></g></g></g></g></g></g><g transform="translate(68, 177)" clip-path="url(#clip_1)"><clipPath id="clip_1"><rect width="261" height="22"></rect></clipPath><g><g><line x1="3.727177660891999" y1="0" x2="3.727177660891999" y2="5" style="visibility: inherit;" fill="rgb(0, 0, 0)" stroke="rgb(204, 204, 204)" stroke-width="1px"></line><line x1="23.81635081600775" y1="0" x2="23.81635081600775" y2="5" style="visibility: inherit;" fill="rgb(0, 0, 0)" stroke="rgb(204, 204, 204)" stroke-width="1px"></line><line x1="43.90552397112349" y1="0" x2="43.90552397112349" y2="5" style="visibility: inherit;" fill="rgb(0, 0, 0)" stroke="rgb(204, 204, 204)" stroke-width="1px"></line><line x1="63.994697126239245" y1="0" x2="63.994697126239245" y2="5" style="visibility: inherit;" fill="rgb(0, 0, 0)" stroke="rgb(204, 204, 204)" stroke-width="1px"></line><line x1="84.08387028135499" y1="0" x2="84.08387028135499" y2="5" style="visibility: inherit;" fill="rgb(0, 0, 0)" stroke="rgb(204, 204, 204)" stroke-width="1px"></line><line x1="104.17304343647073" y1="0" x2="104.17304343647073" y2="5" style="visibility: inherit;" fill="rgb(0, 0, 0)" stroke="rgb(204, 204, 204)" stroke-width="1px"></line><line x1="124.2622165915865" y1="0" x2="124.2622165915865" y2="5" style="visibility: inherit;" fill="rgb(0, 0, 0)" stroke="rgb(204, 204, 204)" stroke-width="1px"></line><line x1="144.35138974670224" y1="0" x2="144.35138974670224" y2="5" style="visibility: inherit;" fill="rgb(0, 0, 0)" stroke="rgb(204, 204, 204)" stroke-width="1px"></line><line x1="164.44056290181797" y1="0" x2="164.44056290181797" y2="5" style="visibility: inherit;" fill="rgb(0, 0, 0)" stroke="rgb(204, 204, 204)" stroke-width="1px"></line><line x1="184.52973605693373" y1="0" x2="184.52973605693373" y2="5" style="visibility: inherit;" fill="rgb(0, 0, 0)" stroke="rgb(204, 204, 204)" stroke-width="1px"></line><line x1="204.6189092120495" y1="0" x2="204.6189092120495" y2="5" style="visibility: inherit;" fill="rgb(0, 0, 0)" stroke="rgb(204, 204, 204)" stroke-width="1px"></line><line x1="224.70808236716525" y1="0" x2="224.70808236716525" y2="5" style="visibility: inherit;" fill="rgb(0, 0, 0)" stroke="rgb(204, 204, 204)" stroke-width="1px"></line><line x1="244.79725552228098" y1="0" x2="244.79725552228098" y2="5" style="visibility: inherit;" fill="rgb(0, 0, 0)" stroke="rgb(204, 204, 204)" stroke-width="1px"></line></g><g transform="translate(0, 8)"><text x="3.727177660891999" y="0" dx="0em" dy="0.95em" style="text-anchor: middle; visibility: hidden; font-family: &quot;Helvetica Neue&quot;, sans-serif; font-size: 12px; font-weight: 200;" fill="rgb(50, 49, 63)" stroke="none" stroke-width="1px">-10k</text><text x="23.81635081600775" y="0" dx="0em" dy="0.95em" style="text-anchor: middle; visibility: inherit; font-family: &quot;Helvetica Neue&quot;, sans-serif; font-size: 12px; font-weight: 200;" fill="rgb(50, 49, 63)" stroke="none" stroke-width="1px">-8k</text><text x="43.90552397112349" y="0" dx="0em" dy="0.95em" style="text-anchor: middle; visibility: hidden; font-family: &quot;Helvetica Neue&quot;, sans-serif; font-size: 12px; font-weight: 200;" fill="rgb(50, 49, 63)" stroke="none" stroke-width="1px">-6k</text><text x="63.994697126239245" y="0" dx="0em" dy="0.95em" style="text-anchor: middle; visibility: inherit; font-family: &quot;Helvetica Neue&quot;, sans-serif; font-size: 12px; font-weight: 200;" fill="rgb(50, 49, 63)" stroke="none" stroke-width="1px">-4k</text><text x="84.08387028135499" y="0" dx="0em" dy="0.95em" style="text-anchor: middle; visibility: hidden; font-family: &quot;Helvetica Neue&quot;, sans-serif; font-size: 12px; font-weight: 200;" fill="rgb(50, 49, 63)" stroke="none" stroke-width="1px">-2k</text><text x="104.17304343647073" y="0" dx="0em" dy="0.95em" style="text-anchor: middle; visibility: inherit; font-family: &quot;Helvetica Neue&quot;, sans-serif; font-size: 12px; font-weight: 200;" fill="rgb(50, 49, 63)" stroke="none" stroke-width="1px">0</text><text x="124.2622165915865" y="0" dx="0em" dy="0.95em" style="text-anchor: middle; visibility: hidden; font-family: &quot;Helvetica Neue&quot;, sans-serif; font-size: 12px; font-weight: 200;" fill="rgb(50, 49, 63)" stroke="none" stroke-width="1px">2k</text><text x="144.35138974670224" y="0" dx="0em" dy="0.95em" style="text-anchor: middle; visibility: inherit; font-family: &quot;Helvetica Neue&quot;, sans-serif; font-size: 12px; font-weight: 200;" fill="rgb(50, 49, 63)" stroke="none" stroke-width="1px">4k</text><text x="164.44056290181797" y="0" dx="0em" dy="0.95em" style="text-anchor: middle; visibility: hidden; font-family: &quot;Helvetica Neue&quot;, sans-serif; font-size: 12px; font-weight: 200;" fill="rgb(50, 49, 63)" stroke="none" stroke-width="1px">6k</text><text x="184.52973605693373" y="0" dx="0em" dy="0.95em" style="text-anchor: middle; visibility: inherit; font-family: &quot;Helvetica Neue&quot;, sans-serif; font-size: 12px; font-weight: 200;" fill="rgb(50, 49, 63)" stroke="none" stroke-width="1px">8k</text><text x="204.6189092120495" y="0" dx="0em" dy="0.95em" style="text-anchor: middle; visibility: hidden; font-family: &quot;Helvetica Neue&quot;, sans-serif; font-size: 12px; font-weight: 200;" fill="rgb(50, 49, 63)" stroke="none" stroke-width="1px">10k</text><text x="224.70808236716525" y="0" dx="0em" dy="0.95em" style="text-anchor: middle; visibility: inherit; font-family: &quot;Helvetica Neue&quot;, sans-serif; font-size: 12px; font-weight: 200;" fill="rgb(50, 49, 63)" stroke="none" stroke-width="1px">12k</text><text x="244.79725552228098" y="0" dx="0em" dy="0.95em" style="text-anchor: middle; visibility: hidden; font-family: &quot;Helvetica Neue&quot;, sans-serif; font-size: 12px; font-weight: 200;" fill="rgb(50, 49, 63)" stroke="none" stroke-width="1px">14k</text></g><line x1="0" y1="0" x2="261.6875" y2="0" fill="rgb(0, 0, 0)" stroke="rgb(204, 204, 204)" stroke-width="1px"></line></g></g></g></g></svg>