<svg viewBox="0 0 330 200" xmlns="http://www.w3.org/2000/svg"><g><g><g><g><g><line x1="68.3125" y1="165.7309713505966" x2="63.3125" y2="165.7309713505966" style="visibility: inherit;" fill="rgb(0, 0, 0)" stroke="rgb(204, 204, 204)" stroke-width="1px"></line><line x1="68.3125" y1="145.16909541085604" x2="63.3125" y2="145.16909541085604" style="visibility: inherit;" fill="rgb(0, 0, 0)" stroke="rgb(204, 204, 204)" stroke-width="1px"></line><line x1="68.3125" y1="124.60721947111547" x2="63.3125" y2="124.60721947111547" style="visibility: inherit;" fill="rgb(0, 0, 0)" stroke="rgb(204, 204, 204)" stroke-width="1px"></line><line x1="68.3125" y1="104.04534353137494" x2="63.3125" y2="104.04534353137494" style="visibility: inherit;" fill="rgb(0, 0, 0)" stroke="rgb(204, 204, 204)" stroke-width="1px"></line><line x1="68.3125" y1="83.48346759163438" x2="63.3125" y2="83.48346759163438" style="visibility: inherit;" fill="rgb(0, 0, 0)" stroke="rgb(204, 204, 204)" stroke-width="1px"></line><line x1="68.3125" y1="62.921591651893806" x2="63.3125" y2="62.921591651893806" style="visibility: inherit;" fill="rgb(0, 0, 0)" stroke="rgb(204, 204, 204)" stroke-width="1px"></line><line x1="68.3125" y1="42.359715712153246" x2="63.3125" y2="42.359715712153246" style="visibility: inherit;" fill="rgb(0, 0, 0)" stroke="rgb(204, 204, 204)" stroke-width="1px"></line><line x1="68.3125" y1="21.797839772412658" x2="63.3125" y2="21.797839772412658" style="visibility: inherit;" fill="rgb(0, 0, 0)" stroke="rgb(204, 204, 204)" stroke-width="1px"></line><line x1="68.3125" y1="1.2359638326721267" x2="63.3125" y2="1.2359638326721267" style="visibility: inherit;" fill="rgb(0, 0, 0)" stroke="rgb(204, 204, 204)" stroke-width="1px"></line></g><g transform="translate(58.3125, 0)"><text x="0" y="165.7309713505966" dx="0em" dy="0.3em" style="text-anchor: end; visibility: inherit; font-family: &quot;Helvetica Neue&quot;, sans-serif; font-size: 12px; font-weight: 200;" fill="rgb(50, 49, 63)" stroke="none" stroke-width="1px">1.8e-3</text><text x="0" y="145.16909541085604" dx="0em" dy="0.3em" style="text-anchor: end; visibility: hidden; font-family: &quot;Helvetica Neue&quot;, sans-serif; font-size: 12px; font-weight: 200;" fill="rgb(50, 49, 63)" stroke="none" stroke-width="1px">2e-3</text><text x="0" y="124.60721947111547" dx="0em" dy="0.3em" style="text-anchor: end; visibility: inherit; font-family: &quot;Helvetica Neue&quot;, sans-serif; font-size: 12px; font-weight: 200;" fill="rgb(50, 49, 63)" stroke="none" stroke-width="1px">2.2e-3</text><text x="0" y="104.04534353137494" dx="0em" dy="0.3em" style="text-anchor: end; visibility: hidden; font-family: &quot;Helvetica Neue&quot;, sans-serif; font-size: 12px; font-weight: 200;" fill="rgb(50, 49, 63)" stroke="none" stroke-width="1px">2.4e-3</text><text x="0" y="83.48346759163438" dx="0em" dy="0.3em" style="text-anchor: end; visibility: inherit; font-family: &quot;Helvetica Neue&quot;, sans-serif; font-size: 12px; font-weight: 200;" fill="rgb(50, 49, 63)" stroke="none" stroke-width="1px">2.6e-3</text><text x="0" y="62.921591651893806" dx="0em" dy="0.3em" style="text-anchor: end; visibility: hidden; font-family: &quot;Helvetica Neue&quot;, sans-serif; font-size: 12px; font-weight: 200;" fill="rgb(50, 49, 63)" stroke="none" stroke-width="1px">2.8e-3</text><text x="0" y="42.359715712153246" dx="0em" dy="0.3em" style="text-anchor: end; visibility: inherit; font-family: &quot;Helvetica Neue&quot;, sans-serif; font-size: 12px; font-weight: 200;" fill="rgb(50, 49, 63)" stroke="none" stroke-width="1px">3e-3</text><text x="0" y="21.797839772412658" dx="0em" dy="0.3em" style="text-anchor: end; visibility: hidden; font-family: &quot;Helvetica Neue&quot;, sans-serif; font-size: 12px; font-weight: 200;" fill="rgb(50, 49, 63)" stroke="none" stroke-width="1px">3.2e-3</text><text x="0" y="1.2359638326721267" dx="0em" dy="0.3em" style="text-anchor: end; visibility: hidden; font-family: &quot;Helvetica Neue&quot;, sans-serif; font-size: 12px; font-weight: 200;" fill="rgb(50, 49, 63)" stroke="none" stroke-width="1px">3.4e-3</text></g><line x1="68.3125" y1="0" x2="68.3125" y2="177.828125" fill="rgb(0, 0, 0)" stroke="rgb(204, 204, 204)" stroke-width="1px"></line></g></g><g transform="translate(68, 0)" clip-path="url(#clip_0)"><clipPath id="clip_0"><rect width="261" height="177"></rect></clipPath><g><g><g><line x1="12.691641433178832" y1="0" x2="12.691641433178832" y2="177.828125" fill="rgb(0, 0, 0)" stroke="rgb(60, 60, 60)" stroke-width="1px" opacity="0.25"></line><line x1="40.78868209684177" y1="0" x2="40.78868209684177" y2="177.828125" fill="rgb(0, 0, 0)" stroke="rgb(60, 60, 60)" stroke-width="1px" opacity="0.25"></line><line x1="68.88572276050472" y1="0" x2="68.88572276050472" y2="177.828125" fill="rgb(0, 0, 0)" stroke="rgb(60, 60, 60)" stroke-width="1px" opacity="0.25"></line><line x1="96.98276342416766" y1="0" x2="96.98276342416766" y2="177.828125" fill="rgb(0, 0, 0)" stroke="rgb(60, 60, 60)" stroke-width="1px" opacity="0.25"></line><line x1="125.07980408783058" y1="0" x2="125.07980408783058" y2="177.828125" fill="rgb(0, 0, 0)" stroke="rgb(60, 60, 60)" stroke-width="1px" opacity="0.25"></line><line x1="153.17684475149352" y1="0" x2="153.17684475149352" y2="177.828125" fill="rgb(0, 0, 0)" stroke="rgb(60, 60, 60)" stroke-width="1px" opacity="0.25"></line><line x1="181.27388541515643" y1="0" x2="181.27388541515643" y2="177.828125" fill="rgb(0, 0, 0)" stroke="rgb(60, 60, 60)" stroke-width="1px" opacity="0.25"></line><line x1="209.3709260788194" y1="0" x2="209.3709260788194" y2="177.828125" fill="rgb(0, 0, 0)" stroke="rgb(60, 60, 60)" stroke-width="1px" opacity="0.25"></line><line x1="237.46796674248233" y1="0" x2="237.46796674248233" y2="177.828125" fill="rgb(0, 0, 0)" stroke="rgb(60, 60, 60)" stroke-width="1px" opacity="0.25"></line></g><g><line x1="0" y1="165.7309713505966" x2="261.6875" y2="165.7309713505966" fill="rgb(0, 0, 0)" stroke="rgb(60, 60, 60)" stroke-width="1px" opacity="0.25"></line><line x1="0" y1="145.16909541085604" x2="261.6875" y2="145.16909541085604" fill="rgb(0, 0, 0)" stroke="rgb(60, 60, 60)" stroke-width="1px" opacity="0.25"></line><line x1="0" y1="124.60721947111547" x2="261.6875" y2="124.60721947111547" fill="rgb(0, 0, 0)" stroke="rgb(60, 60, 60)" stroke-width="1px" opacity="0.25"></line><line x1="0" y1="104.04534353137494" x2="261.6875" y2="104.04534353137494" fill="rgb(0, 0, 0)" stroke="rgb(60, 60, 60)" stroke-width="1px" opacity="0.25"></line><line x1="0" y1="83.48346759163438" x2="261.6875" y2="83.48346759163438" fill="rgb(0, 0, 0)" stroke="rgb(60, 60, 60)" stroke-width="1px" opacity="0.25"></line><line x1="0" y1="62.921591651893806" x2="261.6875" y2="62.921591651893806" fill="rgb(0, 0, 0)" stroke="rgb(60, 60, 60)" stroke-width="1px" opacity="0.25"></line><line x1="0" y1="42.359715712153246" x2="261.6875" y2="42.359715712153246" fill="rgb(0, 0, 0)" stroke="rgb(60, 60, 60)" stroke-width="1px" opacity="0.25"></line><line x1="0" y1="21.797839772412658" x2="261.6875" y2="21.797839772412658" fill="rgb(0, 0, 0)" stroke="rgb(60, 60, 60)" stroke-width="1px" opacity="0.25"></line><line x1="0" y1="1.2359638326721267" x2="261.6875" y2="1.2359638326721267" fill="rgb(0, 0, 0)" stroke="rgb(60, 60, 60)" stroke-width="1px" opacity="0.25"></line></g></g></g><g><g><line x1="0" y1="350.78785480826167" x2="261.6875" y2="350.78785480826167" fill="rgb(0, 0, 0)" stroke="rgb(153, 153, 153)" stroke-width="1.5px"></line></g></g><g><g><line x1="68.88572276050472" y1="0" x2="68.88572276050472" y2="177.828125" fill="rgb(0, 0, 0)" stroke="rgb(153, 153, 153)" stroke-width="1.5px"></line></g></g><g><g><g><g><g><path stroke="rgb(255, 112, 67)" stroke-width="2px" d="M68.89977128083655,-43.19031078915046L69.4617120941098,16.389202448164582L70.02365290738305,42.120612621800746L70.5855937206563,42.53724265748414L71.14753453392959,37.441525152872686L71.70947534720284,40.01372183088111L72.2714161604761,41.945789940792054L72.83335697374935,50.77955135091037L73.3952977870226,47.141128719253174L73.95723860029588,52.047814724156936L74.51917941356913,52.342843221643435L75.08112022684239,54.005024220390794L75.64306104011564,53.91068968759801L76.20500185338891,56.46718580340524L76.76694266666216,44.72991926373436L77.32888347993543,53.375504253915125L77.89082429320868,51.508265766587925L78.45276510648193,56.07177371846656L79.0147059197552,54.77216116976403L79.57664673302845,60.91484134803203L80.13858754630172,65.29104824468871L80.70052835957497,66.72590042910453L81.26246917284824,70.74027615783886L81.8244099861215,76.04611471041076L82.38635079939475,78.83602016984204L82.948291612668,83.13638522299422L83.51023242594127,85.3051678584084L84.07217323921454,81.02027823451878L84.63411405248779,83.17122312072871L85.19605486576104,84.68570614039817L85.7579956790343,86.99431178674276L86.31993649230758,90.3872939925329L86.88187730558083,87.56735887966882L87.44381811885408,82.12715689982636L88.00575893212734,85.36363571960302L88.56769974540059,86.43069830235035L89.12964055867386,83.42916006393529L89.69158137194712,86.19787994522639L90.25352218522038,84.00702285471095L90.81546299849363,84.37919571156705L91.3774038117669,75.91545002922011L91.93934462504015,75.8184731259989L92.50128543831342,74.96285671229407L93.06322625158667,76.38093471564092L93.62516706485992,82.05848989243009L94.18710787813319,84.32723795854662L94.74904869140644,83.28460160300106L95.3109895046797,76.95792416556925L95.87293031795296,82.19136949399704L96.43487113122622,78.2185306961382L96.99681194449948,70.97652241799574L97.55875275777274,66.44399302696986L98.12069357104599,67.98193156993324L98.68263438431926,72.48867805445204L99.24457519759252,77.19792380488225L99.80651601086578,77.25222670820334L100.36845682413903,81.81488238736297L100.93039763741228,84.52474679415577L101.49233845068554,86.89298292824277L102.05427926395882,88.53653435840067L102.61622007723207,89.68443835708901L103.17816089050532,97.15172279466856L103.74010170377858,95.69529785070786L104.30204251705185,97.42377820699659L104.86398333032511,89.7562979581831L105.42592414359837,85.54071176354272L105.98786495687162,85.71329116921453L106.54980577014487,83.85399494443378L107.11174658341814,80.55254066120473L107.67368739669139,77.96848741870875L108.23562820996466,70.61565119839595L108.78352050290609,77.06001950225588L109.34546131617934,78.94859620470156L109.9074021294526,81.46554183443608L110.46934294272586,79.54196009484532L111.03128375599911,80.24962033575399L111.57917604894054,86.00751985263504L112.14111686221379,83.50453584777797L112.70305767548707,82.64495635620652L113.26499848876033,75.51430329331384L113.82693930203358,79.37147926395487L114.38888011530683,76.8305862690163L114.9508209285801,81.69293578422729L115.51276174185334,85.23997469857497L116.0747025551266,85.07113888714933L116.63664336839986,87.58390387968194L117.18453566134129,88.72957465709233L117.74647647461455,87.88353873229312L118.3084172878878,90.43011882536095L118.87035810116106,93.5674289983369L119.43229891443431,86.70383537212511L119.98019120737574,84.45865538696987L120.54213202064902,87.10931051007617L121.10407283392227,88.81389451613566L121.66601364719553,88.35114187888796L122.21390594013695,92.36129315177452L122.7758467534102,89.03307730721694L123.33778756668347,88.86491570475484L123.89972837995673,92.47991148133802L124.46166919323,96.40653657213849L125.02361000650325,100.71968895920351L125.57150229944467,99.62065014173581L126.13344311271794,102.45956257402976L126.62514132433203,102.39846583688703L127.1870821376053,100.18890108701812L127.74902295087855,102.86887150518992L128.29691524382,107.74069525489126L128.85885605709325,107.88428707803138L129.40674835003466,97.33241156989651L129.9546406429761,101.36311280948802L130.50253293591751,104.45226383510884L131.0644737491908,104.24343987578375L131.58426900146853,106.4720325989148L132.13216129440997,105.40033161155452L132.66600506701957,104.9075306291167L133.21389735996098,100.5741135853512L133.77583817323426,101.0717112593598L134.29563342551202,96.61266304177317L134.84352571845346,98.26811605075947L135.37736949106306,94.38942418915411L135.91121326367266,94.47021525139253L136.45910555661408,95.42185558273461L137.02104636988733,94.14204461790816L137.56893866282877,95.75264705248502L138.11683095577018,96.87779130784604L138.63662620804794,97.11100093907355L139.1423729399939,101.04535996619997L139.6902652329353,96.38229763311615L140.2241090055449,102.25559503200822L140.74390425782266,105.22218144422696L141.22155394910493,104.81844867640444L141.76944624204637,99.22438253184677L142.2892414943241,100.36688932448715L142.8090367466019,102.1677356094767L143.3569290395433,105.15978893183464L143.86267577148925,104.41658599367473L144.36842250343517,104.06652774251994L144.87416923538112,111.15502632093376L145.33777040633154,115.5230088100553L145.8435171382775,120.54255557842762L146.78476800051018,123.70141040416054L147.24836917146064,124.35524709464956L147.69792182207922,124.36650134342602L148.24581411502066,123.37988172294662L149.15896793658973,122.46808570108043L149.66471466853565,123.91036169088252L150.10021879882243,120.03664110740007L150.59191701043653,120.98524870864358L151.02742114072328,119.75330295667393L151.5191193523374,122.34196958632675L151.92652644196053,125.25905964385944L152.39012761291096,121.59929322057607L152.79753470253408,123.56584161984324L153.28923291414816,119.30908650219214L153.78093112576227,120.87433141206394L154.2866778577082,115.17570439687506L154.70813346766315,118.71498404022901L155.59319024856853,122.08720820607275L156.0146458585235,123.99737632183101L156.4220529481466,127.38136815698103L156.88565411909704,125.36698532336189L157.29306120872013,126.15567074336616L157.70046829834325,122.4552314019005L158.59957359958045,118.62533358874555L159.04912625019907,115.957349535491L159.52677594148133,120.01415459995832L160.31349308006392,122.39037289401435L160.69280312902336,118.50464437395962L161.1704528203056,117.96053008203299L161.54976286926507,119.28323778396424L161.97121847922003,119.52064821689564L162.29433444685216,121.97847677208959L163.390119032735,115.96577836629265L163.78347760202627,115.586621746095L164.75282550492264,115.16576398521477L166.0733864161148,112.9707451830277L166.41055090407878,114.24561135028517L166.77581243270637,115.7086660689859L167.08487988000667,119.00239537950215L167.43609288830245,116.0571566881481L168.86904196214925,116.51402135225962L169.52932241774533,122.27017985919365L170.10531175135043,123.14691020489084L170.63915552396003,126.44349279565037L170.97632001192397,127.42747176039032L171.27133893889246,122.47703710767937L171.6085034268564,127.7069963428959L171.98781347581584,126.48258915768778L172.29688092311613,127.21916348954194L172.56380280942096,128.19680137604047L173.33647142767168,130.04860706111134L173.94055780194043,130.41438807084228L174.26367376957256,133.09858852770958L174.57274121687286,133.5877651982443L175.41565243678272,133.9051674446539L175.71067136375117,136.2299951352417L175.96354472972413,134.4965281009599L177.3683967629073,133.6636782577903L177.6353186492121,129.4014714495895L177.88819201518507,126.62793171378675L178.37989022679915,125.5383518191181L178.6187150724403,124.42988814067667L179.05421920272707,127.29115851720476L179.44757777201835,130.45448724665033L179.6864026176595,131.9442393011537L179.9533245039643,134.5591091863878L180.12190674794627,136.23707772856557L180.30453751226008,134.15811581714934L182.58039780601678,129.3881701228525L182.9316108143126,130.3173034272021L183.04399897696723,127.32097251217911L183.26877530227654,123.76710453111272L183.45140606659032,125.96747105333296L185.12317998607827,131.5069407490744L185.82560600266984,134.5447406392015L186.2892071736203,132.68924287657765L186.49993497859776,133.87687154141696L186.6544687022479,131.92552194341837L186.85114798689355,133.7365619425594L188.18575741841752,129.7948576903666L188.39648522339502,130.43866489404928L189.40797868728686,134.69650982809947L189.63275501259616,135.7283661801233L191.17809224909763,131.9943898533881L191.86646974535736,135.12028504559643L192.30197387564414,134.68916066120607L192.9482058109084,140.2846737943242L194.5497371287372,136.6212478969411L195.04143534035128,137.3361909444758L195.19596906400145,135.12777892588792L195.46289095030625,132.6618087072951L196.2074625278933,132.47061591785945L196.3479477312116,136.14041399824745L196.54462701585726,129.0128108162095L197.13466486979416,132.23313074162576L197.27515007311248,134.48148446401558L197.66850864240376,132.28520119890484L198.0337701710314,130.51346834036866L198.39903169965902,134.66986953694013L198.59571098430465,135.82019735596077L199.01716659425958,138.23487977636756L199.43862220421454,135.0759862435182L200.15509674113795,138.34184027074556L200.63274643242022,140.50102391623102L200.74513459507486,144.0605937530457L201.04015352204334,145.97207891486306L201.2087357660253,147.31347471022715L202.85241264484958,144.25262199493233L204.49608952367387,145.5091156649563L204.79110845064235,138.9044031421388L205.64806819088403,136.68294434415907L205.88689303652518,138.44460438969034L207.02482318340356,141.26625217275839L207.3619876713675,143.66859383195265L207.5867639966768,136.92493056048025L207.98012256596806,142.00005589515783L208.7949367452143,136.3213547969951L208.93542194853262,128.91042416617194L209.87667281076534,126.2206191248037L210.60719586802054,121.18325422665131L211.77322305556257,124.7158400205349L211.89965973854905,129.25420275159394L212.3773094298313,126.6204129384321L212.70042539746345,123.88794708536577L213.10783248708657,126.04664590541499L213.45904549538236,126.03154262074948L213.55738513770518,120.93269318654572L214.79365492690633,120.096782640988L215.55227502482524,124.13538501615045L215.79109987046635,122.36885675941804L216.1142158380985,126.38200029581095L216.3389921634078,122.04611118696614L216.8728359360174,127.10992417387916L216.97117557834022,131.75836409714745L217.37858266796334,131.1340553420469L217.50501935094982,134.13012184034983L218.55865837583715,136.70541067871235L218.7553376604828,131.257680590383L219.48586071773806,133.25142076921284L219.90731632769297,134.80886410111546L220.01970449034766,136.99140170153407L220.14614117333414,135.1077658129178L220.4833056612981,131.30129070920788L220.56759678328905,133.9828102597146L220.66593642561187,135.58567488691193L220.90476127125305,132.7354964886487L220.989052393244,127.88416557014557L221.62123580817644,122.33950317278658L222.33771034509985,121.71900688267876L222.46414702808633,117.56602849424465L224.44498839487457,113.4842892109817L224.89454104549318,111.59087322893302L225.41433629777092,112.08631846275837L226.59441200564478,117.04710391008128L226.69275164796758,112.44807160606062L227.19849837991353,115.9493870469579L227.80258475418228,121.52095733614553L228.89836934006513,120.47838296128185L229.22148530769726,124.05252826065849L230.4015610155711,123.94831036803814L231.53949116244945,124.56626857314339L231.65187932510412,129.6439479371584L232.43859646368665,128.91390095428932L232.494790545014,128.64445582547728L233.30960472426023,131.75336305610037L234.40538931014308,134.94262278791987L234.5037289524659,140.88300297400258L234.61611711512055,143.93767687245796L235.3887857333713,144.82530220831566L235.47307685536228,141.32272416113847L236.49861883958596,144.47210590189434L236.61100700224063,145.01180107743994L236.90602592920905,141.41311719417413L237.29938449850036,142.59355359333685L237.34153005949582,137.92504928949663L238.33897500305588,138.95210927920326L238.4794602063742,136.5162092723342L238.77447913334265,134.71537674987903L239.08354658064295,136.862348216777L239.47690514993423,137.1288158412794L239.6454873939162,136.92089836667904L239.74382703623903,135.8092099736137L241.31726131340415,131.30889165356848L243.15761747687407,130.3861157097583L245.20870144532148,133.41079488472593L245.70039965693556,133.58793390264162L245.77064225859473,131.016952745308L246.09375822622687,127.87568883187848L246.4309227141908,123.89993992880082L246.7961842428184,128.26674511014954" style="fill: none;" fill="none"></path></g></g></g></g><g opacity="0.20000000298023224"><g><g><g><path stroke="rgb(255, 112, 67)" stroke-width="2px" d="M68.89977128083655,-43.19031078915043L69.4617120941098,70.42782095440937L70.02365290738305,86.6269204972204L70.5855937206563,43.56873181805179L71.14753453392959,21.377056500793827L71.70947534720284,49.70153155807722L72.2714161604761,50.29828530711639L72.83335697374935,93.42929086974176L73.3952977870226,27.908314440037287L73.95723860029588,80.02294142321637L74.51917941356913,54.136084548029075L75.08112022684239,64.67610102524252L75.64306104011564,53.27583038705956L76.20500185338891,74.39076374124971L76.76694266666216,-40.55272145504975L77.32888347993543,118.19349428203545L77.89082429320868,37.11747191447975L78.45276510648193,92.11090313465027L79.0147059197552,44.284549070810215L79.57664673302845,111.44641878156706L80.13858754630172,101.91229023223667L80.70052835957497,78.91785784607465L81.26246917284824,105.31926821461718L81.8244099861215,122.31147814519056L82.38635079939475,103.43119967433583L82.948291612668,121.42214031775163L83.51023242594127,104.78503836419374L84.07217323921454,42.22652659478166L84.63411405248779,102.78489597501542L85.19605486576104,98.58502303943901L85.7579956790343,108.30523917982558L86.31993649230758,121.87278155639629L86.88187730558083,61.27544245681091L87.44381811885408,31.18785090778144L88.00575893212734,115.78553425858594L88.56769974540059,96.49578648845066L89.12964055867386,55.0277203441767L89.69158137194712,112.47109739107849L90.25352218522038,63.16365462013654L90.81546299849363,87.92824102721501L91.3774038117669,-4.965492356762439L91.93934462504015,74.88997350603962L92.50128543831342,66.75662444487705L93.06322625158667,90.00306739942593L93.62516706485992,136.6748118730171L94.18710787813319,106.17995324471957L94.74904869140644,73.2301698574886L95.3109895046797,15.883642616788677L95.87293031795296,132.76048548667006L96.43487113122622,39.79699917751407L96.99681194449948,0.8836997451315654L97.55875275777274,22.544041610026L98.12069357104599,82.88728760708226L98.68263438431926,116.19258590328755L99.24457519759252,122.88975239586398L99.80651601086578,77.77935797396067L100.36845682413903,126.12495721726955L100.93039763741228,110.85189118971442L101.49233845068554,109.90934102436478L102.05427926395882,104.5150270409221L102.61622007723207,100.84756473054141L103.17816089050532,169.78887608574567L103.74010170377858,81.5246639743484L104.30204251705185,114.24512923419087L104.86398333032511,15.122512293555673L105.42592414359837,44.499600642465566L105.98786495687162,87.39372393070299L106.54980577014487,65.74705019219047L107.11174658341814,48.39666832632335L107.67368739669139,52.79696722021124L108.23562820996466,-1.0169836858735835L108.78352050290609,139.84849815711698L109.34546131617934,97.3509659685218L109.9074021294526,105.9927884808312L110.46934294272586,60.79554999147847L111.03128375599911,87.1466444201702L111.57917604894054,142.12882516853773L112.14111686221379,59.10699779689473L112.70305767548707,74.26588350423658L113.26499848876033,6.0024011065751495L113.82693930203358,116.97403888728809L114.38888011530683,52.05917564167591L114.9508209285801,129.0980739200137L115.51276174185334,119.82265834780387L116.0747025551266,83.4249883477428L116.63664336839986,112.08400934953366L117.18453566134129,99.90041862777439L117.74647647461455,79.63410596796595L118.3084172878878,115.26150164430733L118.87035810116106,124.15947585611406L119.43229891443431,19.775587745399974L119.98019120737574,62.5651534573918L120.54213202064902,112.95706989861934L121.10407283392227,105.43627312136823L121.66601364719553,83.83852696661167L122.21390594013695,131.46737540737422L122.7758467534102,56.57679062557747L123.33778756668347,87.2250147280063L123.89972837995673,127.73336775313757L124.46166919323,134.69925296158698L125.02361000650325,142.78209458550637L125.57150229944467,88.9026276340497L126.13344311271794,130.14527741030514L126.62514132433203,101.80263403791864L127.1870821376053,78.6405456847181L127.74902295087855,129.00486256426726L128.29691524382,155.2525484010677L128.85885605709325,109.28465259321052L129.40674835003466,-5.574023195433682L129.9546406429761,140.67234387635813L130.50253293591751,134.57913622220957L131.0644737491908,102.20688503325653L131.58426900146853,128.206414186692L132.13216129440997,94.94853543227761L132.66600506701957,100.10146695261113L133.21389735996098,58.31221180694898L133.77583817323426,105.92456753479182L134.29563342551202,53.12543312251029L134.84352571845346,114.41307244731797L135.37736949106306,56.562093200711445L135.91121326367266,95.25813884142613L136.45910555661408,104.7028381085098L137.02104636988733,81.66053137424998L137.56893866282877,111.46025446816732L138.11683095577018,107.85091161637737L138.63662620804794,99.38541032811221L139.1423729399939,139.4157619246609L139.6902652329353,50.90509266925609L140.2241090055449,159.5358184510305L140.74390425782266,134.15427532001559L141.22155394910493,100.88098102551369L141.76944624204637,44.667352358200304L142.2892414943241,111.50937354931567L142.8090367466019,119.73078747380416L143.3569290395433,134.34029109954963L143.86267577148925,97.16837320487676L144.36842250343517,100.65252463639095L144.87416923538112,180.2868349481552L145.33777040633154,158.12251982083512L145.8435171382775,169.4965672848475L146.78476800051018,154.50870071749802L147.24836917146064,130.73190573472164L147.69792182207922,124.47626041747725L148.24581411502066,113.75769655903304L149.15896793658973,113.57563041321707L149.66471466853565,137.9764196491003L150.10021879882243,82.25747662068154L150.59191701043653,130.23671741517194L151.02742114072328,107.73852658421777L151.5191193523374,147.58841582561178L151.92652644196053,153.70851689480423L152.39012761291096,85.90674667878507L152.79753470253408,142.7449680285565L153.28923291414816,77.7942947705672L153.78093112576227,136.1396724099798L154.2866778577082,59.59878703772948L154.70813346766315,153.23246634590666L155.59319024856853,154.97545167427762L156.0146458585235,142.6266465772328L156.4220529481466,160.38437930247713L156.88565411909704,105.72134092711661L157.29306120872013,133.84747256023078L157.70046829834325,86.36600530008734L158.59957359958045,81.27353908140135L159.04912625019907,89.93733591948764L159.52677594148133,159.57890536431853L160.31349308006392,145.56488681738767L160.69280312902336,80.60834895175635L161.1704528203056,112.65395346363806L161.54976286926507,132.18319266013265L161.97121847922003,121.83603799423122L162.29433444685216,145.94891090065423L163.390119032735,57.32580873874173L163.78347760202627,111.88882563233891L164.75282550492264,111.0612696511202L166.0733864161148,91.56341208980373L166.41055090407878,126.67898311063144L166.77581243270637,129.9773820715261L167.08487988000667,151.1251093541633L167.43609288830245,87.33316288035927L168.86904196214925,120.96967985387923L169.52932241774533,178.4081976544491L170.10531175135043,131.69738771281013L170.63915552396003,158.59403427525044L170.97632001192397,137.0239116193463L171.27133893889246,74.19699231732385L171.6085034268564,178.71315725183214L171.98781347581584,114.541327825872L172.29688092311613,134.40274318664322L172.56380280942096,137.73139873553572L173.33647142767168,148.10869030356469L173.94055780194043,133.9817361694711L174.26367376957256,159.27675838488625L174.57274121687286,138.358552695617L175.41565243678272,137.00069256051887L175.71067136375117,158.9033145325493L175.96354472972413,117.59056474209166L177.3683967629073,125.54115347939084L177.6353186492121,87.83349769232946L177.88819201518507,99.57846363681662L178.37989022679915,114.91201890319334L178.6187150724403,113.61938756737847L179.05421920272707,155.19623619911766L179.44757777201835,161.3054458541179L179.6864026176595,146.47332650971762L179.9533245039643,160.0611197355337L180.12190674794627,152.60178165265316L180.30453751226008,113.88264860756831L182.58039780601678,82.86837723958364L182.9316108143126,139.3788508022775L183.04399897696723,98.09869147428742L183.26877530227654,89.10733834651593L183.45140606659032,147.42695958665192L185.12317998607827,185.53166127966247L185.82560600266984,164.1714556715802L186.2892071736203,114.59315180768789L186.49993497859776,145.45944356570223L186.6544687022479,112.89461781152575L186.85114798689355,151.399070311153L188.18575741841752,91.35264527230314L188.39648522339502,136.71751579152033L189.40797868728686,176.22194373704056L189.63275501259616,145.79173941584912L191.17809224909763,95.57808310976378L191.86646974535736,165.60616610396232L192.30197387564414,130.48453897810026L192.9482058109084,194.85596852986717L194.5497371287372,100.89299748688624L195.04143534035128,144.30880754634546L195.19596906400145,113.58982515742807L195.46289095030625,108.61197012808823L196.2074625278933,130.60597226205036L196.3479477312116,171.9308103254027L196.54462701585726,59.49951957694866L197.13466486979416,163.63990678465024L197.27515007311248,156.40897721654432L197.66850864240376,110.8655353789223L198.0337701710314,113.23431024845375L198.39903169965902,175.20595432170887L198.59571098430465,147.03898586966727L199.01716659425958,161.78452445553265L199.43862220421454,104.268282650826L200.15509674113795,170.1926962119507L200.63274643242022,161.55886871577363L200.74513459507486,178.77596839653646L201.04015352204334,164.61419764278872L201.2087357660253,160.39568961721525L202.85241264484958,114.40107992311948L204.49608952367387,157.76330661847024L204.79110845064235,74.4907014429039L205.64806819088403,115.01774940096735L205.88689303652518,155.62552547851072L207.02482318340356,168.78490313178656L207.3619876713675,167.09788291634194L207.5867639966768,71.15608553767322L207.98012256596806,191.49617071753704L208.7949367452143,80.93875376515338L208.93542194853262,56.6339286600322L209.87667281076534,99.98778931305287L210.60719586802054,72.05540516669055L211.77322305556257,159.16804770894316L211.89965973854905,173.5154392788531L212.3773094298313,100.93388218016177L212.70042539746345,97.23905967984318L213.10783248708657,147.09976235457745L213.45904549538236,125.88424499503378L213.55738513770518,71.20520461882157L214.79365492690633,111.94440775048045L215.55227502482524,163.5226146318106L215.79109987046635,105.14045752447187L216.1142158380985,165.5209377957612L216.3389921634078,79.75953675998221L216.8728359360174,176.49571319663787L216.97117557834022,177.09314915513744L217.37858266796334,125.04536673048995L217.50501935094982,163.34982414093858L218.55865837583715,161.821399672155L218.7553376604828,78.12766779354628L219.48586071773806,152.69574702938212L219.90731632769297,149.99812326276685L220.01970449034766,158.27701034214675L220.14614117333414,116.73725236159632L220.4833056612981,94.17792598812123L220.56759678328905,160.1348342630173L220.66593642561187,151.21791377795088L220.90476127125305,104.93859533571745L220.989052393244,80.57064790262935L221.62123580817644,68.26413979212893L222.33771034509985,115.66750005335079L222.46414702808633,77.0633252866358L224.44498839487457,73.67635878176019L224.89454104549318,93.12497757605804L225.41433629777092,116.91824133458007L226.59441200564478,165.42809746621253L226.69275164796758,67.59514365181015L227.19849837991353,150.09662473397808L227.80258475418228,175.85874499519653L228.89836934006513,110.31048018707632L229.22148530769726,158.91005284704406L230.4015610155711,122.9319057593641L231.53949116244945,130.5930222508899L231.65187932510412,179.1649714120052L232.43859646368665,121.7939803794273L232.494790545014,126.01664150469827L233.30960472426023,162.0735658321732L234.40538931014308,166.0464784520049L234.5037289524659,198.81767855224402L234.61611711512055,173.72895887136934L235.3887857333713,153.48203532254053L235.47307685536228,107.16317266877832L236.49861883958596,175.18704395421022L236.61100700224063,150.27527983249206L236.90602592920905,106.31627545092809L237.29938449850036,154.10598170129927L237.34153005949582,92.39458258430383L238.33897500305588,148.96870509279373L238.4794602063742,112.75963608706398L238.77447913334265,117.1524187083005L239.08354658064295,157.80109144770643L239.47690514993423,139.72759149099596L239.6454873939162,134.89314407138312L239.74382703623903,124.96725973156836L241.31726131340415,87.418690403236L243.15761747687407,121.38656967711495L245.20870144532148,162.9095476986571L245.70039965693556,135.31551550747602L245.77064225859473,105.94297522163544L246.09375822622687,97.23992141810893L246.4309227141908,85.12570062674338L246.7961842428184,170.85483435190446" style="fill: none;" fill="none"></path></g></g></g></g></g></g><g transform="translate(68, 177)" clip-path="url(#clip_1)"><clipPath id="clip_1"><rect width="261" height="22"></rect></clipPath><g><g><line x1="12.691641433178832" y1="0" x2="12.691641433178832" y2="5" style="visibility: inherit;" fill="rgb(0, 0, 0)" stroke="rgb(204, 204, 204)" stroke-width="1px"></line><line x1="40.78868209684177" y1="0" x2="40.78868209684177" y2="5" style="visibility: inherit;" fill="rgb(0, 0, 0)" stroke="rgb(204, 204, 204)" stroke-width="1px"></line><line x1="68.88572276050472" y1="0" x2="68.88572276050472" y2="5" style="visibility: inherit;" fill="rgb(0, 0, 0)" stroke="rgb(204, 204, 204)" stroke-width="1px"></line><line x1="96.98276342416766" y1="0" x2="96.98276342416766" y2="5" style="visibility: inherit;" fill="rgb(0, 0, 0)" stroke="rgb(204, 204, 204)" stroke-width="1px"></line><line x1="125.07980408783058" y1="0" x2="125.07980408783058" y2="5" style="visibility: inherit;" fill="rgb(0, 0, 0)" stroke="rgb(204, 204, 204)" stroke-width="1px"></line><line x1="153.17684475149352" y1="0" x2="153.17684475149352" y2="5" style="visibility: inherit;" fill="rgb(0, 0, 0)" stroke="rgb(204, 204, 204)" stroke-width="1px"></line><line x1="181.27388541515643" y1="0" x2="181.27388541515643" y2="5" style="visibility: inherit;" fill="rgb(0, 0, 0)" stroke="rgb(204, 204, 204)" stroke-width="1px"></line><line x1="209.3709260788194" y1="0" x2="209.3709260788194" y2="5" style="visibility: inherit;" fill="rgb(0, 0, 0)" stroke="rgb(204, 204, 204)" stroke-width="1px"></line><line x1="237.46796674248233" y1="0" x2="237.46796674248233" y2="5" style="visibility: inherit;" fill="rgb(0, 0, 0)" stroke="rgb(204, 204, 204)" stroke-width="1px"></line></g><g transform="translate(0, 8)"><text x="12.691641433178832" y="0" dx="0em" dy="0.95em" style="text-anchor: middle; visibility: inherit; font-family: &quot;Helvetica Neue&quot;, sans-serif; font-size: 12px; font-weight: 200;" fill="rgb(50, 49, 63)" stroke="none" stroke-width="1px">-4k</text><text x="40.78868209684177" y="0" dx="0em" dy="0.95em" style="text-anchor: middle; visibility: inherit; font-family: &quot;Helvetica Neue&quot;, sans-serif; font-size: 12px; font-weight: 200;" fill="rgb(50, 49, 63)" stroke="none" stroke-width="1px">-2k</text><text x="68.88572276050472" y="0" dx="0em" dy="0.95em" style="text-anchor: middle; visibility: inherit; font-family: &quot;Helvetica Neue&quot;, sans-serif; font-size: 12px; font-weight: 200;" fill="rgb(50, 49, 63)" stroke="none" stroke-width="1px">0</text><text x="96.98276342416766" y="0" dx="0em" dy="0.95em" style="text-anchor: middle; visibility: inherit; font-family: &quot;Helvetica Neue&quot;, sans-serif; font-size: 12px; font-weight: 200;" fill="rgb(50, 49, 63)" stroke="none" stroke-width="1px">2k</text><text x="125.07980408783058" y="0" dx="0em" dy="0.95em" style="text-anchor: middle; visibility: inherit; font-family: &quot;Helvetica Neue&quot;, sans-serif; font-size: 12px; font-weight: 200;" fill="rgb(50, 49, 63)" stroke="none" stroke-width="1px">4k</text><text x="153.17684475149352" y="0" dx="0em" dy="0.95em" style="text-anchor: middle; visibility: inherit; font-family: &quot;Helvetica Neue&quot;, sans-serif; font-size: 12px; font-weight: 200;" fill="rgb(50, 49, 63)" stroke="none" stroke-width="1px">6k</text><text x="181.27388541515643" y="0" dx="0em" dy="0.95em" style="text-anchor: middle; visibility: inherit; font-family: &quot;Helvetica Neue&quot;, sans-serif; font-size: 12px; font-weight: 200;" fill="rgb(50, 49, 63)" stroke="none" stroke-width="1px">8k</text><text x="209.3709260788194" y="0" dx="0em" dy="0.95em" style="text-anchor: middle; visibility: inherit; font-family: &quot;Helvetica Neue&quot;, sans-serif; font-size: 12px; font-weight: 200;" fill="rgb(50, 49, 63)" stroke="none" stroke-width="1px">10k</text><text x="237.46796674248233" y="0" dx="0em" dy="0.95em" style="text-anchor: middle; visibility: inherit; font-family: &quot;Helvetica Neue&quot;, sans-serif; font-size: 12px; font-weight: 200;" fill="rgb(50, 49, 63)" stroke="none" stroke-width="1px">12k</text></g><line x1="0" y1="0" x2="261.6875" y2="0" fill="rgb(0, 0, 0)" stroke="rgb(204, 204, 204)" stroke-width="1px"></line></g></g></g></g></svg>