<svg viewBox="0 0 330 200" xmlns="http://www.w3.org/2000/svg"><g><g><g><g><g><line x1="68.3125" y1="177.828125" x2="63.3125" y2="177.828125" style="visibility: inherit;" fill="rgb(0, 0, 0)" stroke="rgb(204, 204, 204)" stroke-width="1px"></line><line x1="68.3125" y1="155.599609375" x2="63.3125" y2="155.599609375" style="visibility: inherit;" fill="rgb(0, 0, 0)" stroke="rgb(204, 204, 204)" stroke-width="1px"></line><line x1="68.3125" y1="133.37109375" x2="63.3125" y2="133.37109375" style="visibility: inherit;" fill="rgb(0, 0, 0)" stroke="rgb(204, 204, 204)" stroke-width="1px"></line><line x1="68.3125" y1="111.14257812499999" x2="63.3125" y2="111.14257812499999" style="visibility: inherit;" fill="rgb(0, 0, 0)" stroke="rgb(204, 204, 204)" stroke-width="1px"></line><line x1="68.3125" y1="88.9140625" x2="63.3125" y2="88.9140625" style="visibility: inherit;" fill="rgb(0, 0, 0)" stroke="rgb(204, 204, 204)" stroke-width="1px"></line><line x1="68.3125" y1="66.68554687499999" x2="63.3125" y2="66.68554687499999" style="visibility: inherit;" fill="rgb(0, 0, 0)" stroke="rgb(204, 204, 204)" stroke-width="1px"></line><line x1="68.3125" y1="44.45703124999997" x2="63.3125" y2="44.45703124999997" style="visibility: inherit;" fill="rgb(0, 0, 0)" stroke="rgb(204, 204, 204)" stroke-width="1px"></line><line x1="68.3125" y1="22.22851562500003" x2="63.3125" y2="22.22851562500003" style="visibility: inherit;" fill="rgb(0, 0, 0)" stroke="rgb(204, 204, 204)" stroke-width="1px"></line><line x1="68.3125" y1="0" x2="63.3125" y2="0" style="visibility: inherit;" fill="rgb(0, 0, 0)" stroke="rgb(204, 204, 204)" stroke-width="1px"></line></g><g transform="translate(58.3125, 0)"><text x="0" y="177.828125" dx="0em" dy="0.3em" style="text-anchor: end; visibility: hidden; font-family: &quot;Helvetica Neue&quot;, sans-serif; font-size: 12px; font-weight: 200;" fill="rgb(50, 49, 63)" stroke="none" stroke-width="1px">2.5e-4</text><text x="0" y="155.599609375" dx="0em" dy="0.3em" style="text-anchor: end; visibility: inherit; font-family: &quot;Helvetica Neue&quot;, sans-serif; font-size: 12px; font-weight: 200;" fill="rgb(50, 49, 63)" stroke="none" stroke-width="1px">3e-4</text><text x="0" y="133.37109375" dx="0em" dy="0.3em" style="text-anchor: end; visibility: hidden; font-family: &quot;Helvetica Neue&quot;, sans-serif; font-size: 12px; font-weight: 200;" fill="rgb(50, 49, 63)" stroke="none" stroke-width="1px">3.5e-4</text><text x="0" y="111.14257812499999" dx="0em" dy="0.3em" style="text-anchor: end; visibility: inherit; font-family: &quot;Helvetica Neue&quot;, sans-serif; font-size: 12px; font-weight: 200;" fill="rgb(50, 49, 63)" stroke="none" stroke-width="1px">4e-4</text><text x="0" y="88.9140625" dx="0em" dy="0.3em" style="text-anchor: end; visibility: hidden; font-family: &quot;Helvetica Neue&quot;, sans-serif; font-size: 12px; font-weight: 200;" fill="rgb(50, 49, 63)" stroke="none" stroke-width="1px">4.5e-4</text><text x="0" y="66.68554687499999" dx="0em" dy="0.3em" style="text-anchor: end; visibility: inherit; font-family: &quot;Helvetica Neue&quot;, sans-serif; font-size: 12px; font-weight: 200;" fill="rgb(50, 49, 63)" stroke="none" stroke-width="1px">5e-4</text><text x="0" y="44.45703124999997" dx="0em" dy="0.3em" style="text-anchor: end; visibility: hidden; font-family: &quot;Helvetica Neue&quot;, sans-serif; font-size: 12px; font-weight: 200;" fill="rgb(50, 49, 63)" stroke="none" stroke-width="1px">5.5e-4</text><text x="0" y="22.22851562500003" dx="0em" dy="0.3em" style="text-anchor: end; visibility: inherit; font-family: &quot;Helvetica Neue&quot;, sans-serif; font-size: 12px; font-weight: 200;" fill="rgb(50, 49, 63)" stroke="none" stroke-width="1px">6e-4</text><text x="0" y="0" dx="0em" dy="0.3em" style="text-anchor: end; visibility: hidden; font-family: &quot;Helvetica Neue&quot;, sans-serif; font-size: 12px; font-weight: 200;" fill="rgb(50, 49, 63)" stroke="none" stroke-width="1px">6.5e-4</text></g><line x1="68.3125" y1="0" x2="68.3125" y2="177.828125" fill="rgb(0, 0, 0)" stroke="rgb(204, 204, 204)" stroke-width="1px"></line></g></g><g transform="translate(68, 0)" clip-path="url(#clip_0)"><clipPath id="clip_0"><rect width="261" height="177"></rect></clipPath><g><g><g><line x1="0" y1="0" x2="0" y2="177.828125" fill="rgb(0, 0, 0)" stroke="rgb(60, 60, 60)" stroke-width="1px" opacity="0.25"></line><line x1="18.691964285714285" y1="0" x2="18.691964285714285" y2="177.828125" fill="rgb(0, 0, 0)" stroke="rgb(60, 60, 60)" stroke-width="1px" opacity="0.25"></line><line x1="37.38392857142857" y1="0" x2="37.38392857142857" y2="177.828125" fill="rgb(0, 0, 0)" stroke="rgb(60, 60, 60)" stroke-width="1px" opacity="0.25"></line><line x1="56.075892857142854" y1="0" x2="56.075892857142854" y2="177.828125" fill="rgb(0, 0, 0)" stroke="rgb(60, 60, 60)" stroke-width="1px" opacity="0.25"></line><line x1="74.76785714285714" y1="0" x2="74.76785714285714" y2="177.828125" fill="rgb(0, 0, 0)" stroke="rgb(60, 60, 60)" stroke-width="1px" opacity="0.25"></line><line x1="93.45982142857143" y1="0" x2="93.45982142857143" y2="177.828125" fill="rgb(0, 0, 0)" stroke="rgb(60, 60, 60)" stroke-width="1px" opacity="0.25"></line><line x1="112.15178571428571" y1="0" x2="112.15178571428571" y2="177.828125" fill="rgb(0, 0, 0)" stroke="rgb(60, 60, 60)" stroke-width="1px" opacity="0.25"></line><line x1="130.84375" y1="0" x2="130.84375" y2="177.828125" fill="rgb(0, 0, 0)" stroke="rgb(60, 60, 60)" stroke-width="1px" opacity="0.25"></line><line x1="149.53571428571428" y1="0" x2="149.53571428571428" y2="177.828125" fill="rgb(0, 0, 0)" stroke="rgb(60, 60, 60)" stroke-width="1px" opacity="0.25"></line><line x1="168.22767857142858" y1="0" x2="168.22767857142858" y2="177.828125" fill="rgb(0, 0, 0)" stroke="rgb(60, 60, 60)" stroke-width="1px" opacity="0.25"></line><line x1="186.91964285714286" y1="0" x2="186.91964285714286" y2="177.828125" fill="rgb(0, 0, 0)" stroke="rgb(60, 60, 60)" stroke-width="1px" opacity="0.25"></line><line x1="205.61160714285714" y1="0" x2="205.61160714285714" y2="177.828125" fill="rgb(0, 0, 0)" stroke="rgb(60, 60, 60)" stroke-width="1px" opacity="0.25"></line><line x1="224.30357142857142" y1="0" x2="224.30357142857142" y2="177.828125" fill="rgb(0, 0, 0)" stroke="rgb(60, 60, 60)" stroke-width="1px" opacity="0.25"></line><line x1="242.99553571428572" y1="0" x2="242.99553571428572" y2="177.828125" fill="rgb(0, 0, 0)" stroke="rgb(60, 60, 60)" stroke-width="1px" opacity="0.25"></line><line x1="261.6875" y1="0" x2="261.6875" y2="177.828125" fill="rgb(0, 0, 0)" stroke="rgb(60, 60, 60)" stroke-width="1px" opacity="0.25"></line></g><g><line x1="0" y1="177.828125" x2="261.6875" y2="177.828125" fill="rgb(0, 0, 0)" stroke="rgb(60, 60, 60)" stroke-width="1px" opacity="0.25"></line><line x1="0" y1="155.599609375" x2="261.6875" y2="155.599609375" fill="rgb(0, 0, 0)" stroke="rgb(60, 60, 60)" stroke-width="1px" opacity="0.25"></line><line x1="0" y1="133.37109375" x2="261.6875" y2="133.37109375" fill="rgb(0, 0, 0)" stroke="rgb(60, 60, 60)" stroke-width="1px" opacity="0.25"></line><line x1="0" y1="111.14257812499999" x2="261.6875" y2="111.14257812499999" fill="rgb(0, 0, 0)" stroke="rgb(60, 60, 60)" stroke-width="1px" opacity="0.25"></line><line x1="0" y1="88.9140625" x2="261.6875" y2="88.9140625" fill="rgb(0, 0, 0)" stroke="rgb(60, 60, 60)" stroke-width="1px" opacity="0.25"></line><line x1="0" y1="66.68554687499999" x2="261.6875" y2="66.68554687499999" fill="rgb(0, 0, 0)" stroke="rgb(60, 60, 60)" stroke-width="1px" opacity="0.25"></line><line x1="0" y1="44.45703124999997" x2="261.6875" y2="44.45703124999997" fill="rgb(0, 0, 0)" stroke="rgb(60, 60, 60)" stroke-width="1px" opacity="0.25"></line><line x1="0" y1="22.22851562500003" x2="261.6875" y2="22.22851562500003" fill="rgb(0, 0, 0)" stroke="rgb(60, 60, 60)" stroke-width="1px" opacity="0.25"></line><line x1="0" y1="0" x2="261.6875" y2="0" fill="rgb(0, 0, 0)" stroke="rgb(60, 60, 60)" stroke-width="1px" opacity="0.25"></line></g></g></g><g><g><line x1="0" y1="288.970703125" x2="261.6875" y2="288.970703125" fill="rgb(0, 0, 0)" stroke="rgb(153, 153, 153)" stroke-width="1.5px"></line></g></g><g><g><line x1="18.691964285714285" y1="0" x2="18.691964285714285" y2="177.828125" fill="rgb(0, 0, 0)" stroke="rgb(153, 153, 153)" stroke-width="1.5px"></line></g></g><g><g><g><g><g><path stroke="rgb(255, 112, 67)" stroke-width="2px" d="M19.458334821428572,-17.137168144356764L20.20601339285714,3.6453256812937127L20.953691964285714,9.693077334843224L21.701370535714286,21.735081528604354L22.44904910714286,27.74329581491415L23.19672767857143,23.11348236116453L23.94440625,28.73454216183555L24.692084821428573,30.885464433737866L25.43976339285714,34.47011498996591L26.187441964285714,37.31782935336355L26.935120535714283,41.139428572173074L27.68279910714286,43.074938418373165L28.430477678571428,39.98783866402596L29.17815625,36.492823312698704L29.92583482142857,40.24374808109013L30.673513392857142,42.45409979095797L31.42119196428571,43.3258009999727L32.168870535714284,42.51972656721071L32.916549107142856,42.21670183015564L33.66422767857143,46.639481952904845L34.41190625,47.497647318278666L35.159584821428574,49.58523547373551L35.90726339285714,52.86178237963297L36.65494196428571,54.42989436162469L37.402620535714284,57.42518877580838L38.15029910714286,60.68916166004948L38.89797767857143,62.190761559287125L39.64565625,64.93372383589903L40.393334821428574,71.04317447328957L41.14101339285715,70.18506766275367L41.88869196428571,73.90705624333287L42.636370535714285,70.5453279103059L43.38404910714286,67.31741760165201L44.13172767857143,70.6496255369793L44.87940625,76.03756075923802L45.62708482142857,70.67535104137795L46.37476339285714,67.28440544024846L47.12244196428571,65.76221061408454L47.870120535714285,65.7658991170777L48.61779910714286,67.88211385408695L49.36547767857143,65.27741966635604L50.11315625,65.94639954909647L50.860834821428575,65.37548695313326L51.60851339285714,69.22385639286121L52.35619196428571,74.3029436078867L53.103870535714286,73.51586070127453L53.85154910714286,76.77149173600492L54.599227678571424,77.09246852558613L55.346906249999996,74.48268834092808L56.09458482142857,75.17309606900618L56.84226339285714,80.65983897701439L57.58994196428572,76.4020644164397L58.33762053571429,80.22228807541457L59.08529910714286,83.22098911311153L59.83297767857143,86.89453424428055L60.580656250000004,87.96574525394354L61.32833482142857,90.26929257428417L62.07601339285714,91.52983213362776L62.823691964285715,92.28881557678638L63.57137053571429,86.22765580323997L64.31904910714286,92.93470396563154L65.06672767857143,96.12792468883862L65.81440625,94.31923025810529L66.56208482142857,91.34155057080842L67.30976339285715,88.16766322317282L68.05744196428572,83.95681105211797L68.8051205357143,83.99888049675872L69.55279910714286,79.10968231390787L70.30047767857143,82.33761205293638L71.04815625,77.39518754481506L71.77714285714286,84.46298585453725L72.52482142857143,81.92412396301586L73.27250000000001,85.50079817781359L74.02017857142857,86.53008796319513L74.76785714285714,87.34145001117186L75.49684375,89.91422259586408L76.24452232142858,84.5042422414816L76.99220089285714,87.21452972034804L77.73987946428572,82.00678348832493L78.48755803571429,85.17776069327405L79.23523660714285,84.29834363197823L79.98291517857143,88.02469110166184L80.73059375,85.86455070542286L81.47827232142856,86.88845776033595L82.22595089285714,84.95351050945662L82.9549375,81.20233455219791L83.70261607142857,81.74684873933032L84.45029464285714,85.20914284469278L85.19797321428571,87.10355926666865L85.94565178571428,86.56348052365803L86.67463839285715,90.90937715042344L87.42231696428571,93.62323369993457L88.16999553571428,88.90419587975524L88.91767410714286,88.94066146873415L89.64666071428572,91.19032490638438L90.39433928571428,91.4333963440857L91.14201785714286,86.49252486378184L91.88969642857143,86.57023874653473L92.63737499999999,90.49858376576702L93.38505357142857,91.43371937120573L94.11404017857143,93.69551642170396L94.86171875,97.31348619234997L95.51593749999999,97.46407845360116L96.26361607142857,97.25453421669489L97.01129464285714,100.49716433399347L97.74028125,102.6951766977618L98.48795982142856,102.35811181277704L99.21694642857143,101.8947463592819L99.94593303571429,103.39020317636738L100.67491964285715,100.50871483146257L101.42259821428571,99.08103558383795L102.11420089285714,100.78847246095903L102.8431875,102.82325394861564L103.55348214285715,104.92138692569357L104.28246875,104.89234833038931L105.03014732142857,106.35139701948016L105.72175,107.26341392556647L106.45073660714286,107.70447312565544L107.16103125,109.17824606017292L107.87132589285714,110.48393830442117L108.6003125,111.51727826747509L109.34799107142858,107.3714302638456L110.07697767857142,107.71559617209991L110.80596428571428,107.65347109013256L111.49756696428571,108.96593429392074L112.17047767857143,109.8087281093486L112.89946428571429,109.27269647641334L113.60975892857144,112.44619765866929L114.30136160714285,110.54679132625316L114.93688839285714,106.35940283753321L115.665875,105.78791753003665L116.35747767857143,104.56298737130022L117.04908035714286,102.4253313952758L117.77806696428571,104.39786078181653L118.45097767857142,104.3981253224344L119.12388839285715,103.28040247886975L119.79679910714286,107.51194951238118L120.41363392857143,108.58363622385262L121.08654464285713,113.17658769678641L122.33890625000001,113.55670879170472L122.95574107142858,115.9766779713049L123.55388392857142,118.87232537469393L124.28287053571428,117.88979525740228L125.49784821428572,120.5750042057222L126.17075892857143,118.6561375320947L126.75020982142857,116.33790958016635L127.40442857142858,119.63108687432337L127.9838794642857,119.74116415480657L128.63809821428572,117.38695064770567L129.18016517857143,117.81488396694198L129.797,114.69456288919578L130.3390669642857,113.67665852568679L130.99328571428572,107.81810263055914L131.64750446428573,106.43408076569571L132.32041517857144,103.17023904448655L132.88117410714287,104.7781725934798L134.05876785714284,107.340848012534L134.6195267857143,107.70472046611725L135.16159374999998,109.5863782160988L135.77842857142858,116.48486740740734L136.3204955357143,116.38699711755167L136.8625625,116.96460500942885L138.05884821428572,117.77486490751596L138.65699107142856,116.86342637730323L139.29251785714285,118.60846899338179L140.33926785714286,119.67940656226781L140.84395089285715,116.33686189686502L141.4794776785714,115.37134195053135L141.9841607142857,117.3500730298111L142.54491964285714,120.08877262777526L142.97483482142857,120.42257516740683L144.4328080357143,121.48894524653055L144.95618303571428,126.358477842588L146.24592857142858,129.02928329142495L148.00297321428573,129.75929258261448L148.45158035714286,130.4714742620067L148.93757142857143,130.31452897571552L149.34879464285714,133.5839619527623L149.81609375,133.27653634382105L151.72267410714284,134.02591191809043L152.60119642857143,137.23228527149178L153.36756696428571,138.76996485410803L154.07786160714284,137.3605648342364L154.52646875000002,132.97411162367985L154.91899999999998,134.78305895409116L155.36760714285714,137.32082397259816L155.87229017857143,135.1238003863903L156.28351339285715,136.48104836724812L156.6386607142857,136.8136760006321L157.66671875,136.8120091583814L158.4704732142857,133.2465939832509L158.90038839285714,133.54009631043627L159.31161160714285,134.43735263280846L160.4331294642857,132.3898032928043L160.8256607142857,133.19187902130915L161.16211607142858,134.31993272781858L163.0313125,135.64226089186994L163.38645982142856,134.01922416566254L163.72291517857144,130.37019107650752L164.37713392857142,129.8144712103782L164.69489732142856,130.18804378243732L165.2743482142857,131.16372973259348L165.79772321428572,129.97112700006784L166.11548660714286,134.95207307374307L166.47063392857143,135.75486899194848L166.6949375,134.47462183213833L166.93793303571428,133.872934395456L169.96603125,133.2232412627884L170.43333035714284,131.1623914591434L170.58286607142855,130.4079344825418L170.88193750000002,129.10907267929298L171.1249330357143,128.3950994019711L173.3492767857143,130.02076924652516L174.28387500000002,130.03927202856937L174.90070982142856,130.39326295596922L175.1810892857143,131.8367929042925L175.38670089285716,133.2265644411901L175.64838839285716,135.8078751445582L177.424125,134.61082683011975L177.70450446428572,131.52887668075024L179.05032589285713,133.019487179841L179.34939732142857,131.59483798646562L181.40551339285713,127.9166703959099L182.32141964285714,128.0885969165655L182.9008705357143,127.31903729531885L183.76070089285713,130.79778060116132L185.89158482142858,130.5711168862327L186.54580357142856,131.52626279515627L186.75141517857142,130.36027188600772L187.1065625,127.99292114551L188.09723660714286,128.76824889447053L188.28415625,128.77063011206124L188.54584375000002,130.6754029479103L189.33090625,131.57733535101525L189.51782589285713,131.61833845391692L190.04120089285715,130.4270562458072L190.52719196428572,131.1745501566624L191.0131830357143,134.56912986810255L191.2748705357143,135.00338265226534L191.83562946428572,138.0871213743211L192.39638839285715,137.230596696844L193.34967857142857,137.15599457104355L193.98520535714286,137.58652992427818L194.13474107142858,139.03821247746745L194.52727232142857,140.46022414498617L194.75157589285715,141.57185234239884L196.9385357142857,141.00506735462912L199.12549553571426,142.31536794059951L199.51802678571428,144.17802742885752L200.65823660714287,146.38662173802624L200.976,145.67187236387923L202.49004910714285,148.88079973134387L202.93865624999998,148.63699530893064L203.23772767857145,148.49513803639167L203.76110267857143,148.00450550597077L204.84523660714285,145.83196271863105L205.03215624999999,146.43024626822876L206.28451785714284,145.35463879448963L207.25650000000002,144.62483784131211L208.80793303571429,146.67089308342062L208.97616071428573,149.7422787571601L209.61168750000002,147.2961945904275L210.04160267857142,149.7650848356694L210.58366964285713,147.72400629630178L211.05096875,143.42332463521765L211.1818125,142.5756490985255L212.82670535714286,141.5477274841242L213.83607142857144,138.7495117876889L214.15383482142857,141.136749707114L214.58374999999998,139.6587015741531L214.88282142857145,139.01388346944705L215.59311607142857,140.80812645398504L215.7239598214286,142.0010152288767L216.26602678571427,140.63207149044405L216.43425446428571,139.91815472234484L217.8361517857143,142.95114483722364L218.0978392857143,141.34997983572L219.06982142857143,139.60967866633518L219.63058035714286,140.99255519187673L219.78011607142858,139.9407931041533L219.94834375000002,139.0805830865407L220.39695089285715,142.9562944405033L220.50910267857142,145.74948114892072L220.63994642857145,143.10480143124175L220.95770982142855,140.2559925600925L221.06986160714285,141.03146179621606L221.911,140.25515050001698L222.86429017857142,139.88548108039862L223.03251785714286,139.59962123671755L225.66808482142855,135.86388316408872L226.26622767857143,134.66816483120257L226.95783035714288,134.44899717433566L228.52795535714287,135.0220742741583L228.65879910714287,136.28433761974088L229.33170982142857,139.15619002237352L230.13546428571428,141.27784642990065L231.5934375,141.26055995325544L232.02335267857143,140.21065043552989L233.59347767857145,141.29147048885778L235.1075267857143,139.56680263132358L235.25706250000002,141.11592066953625L236.30381250000002,141.73797564318068L236.37858035714285,141.1619658542193L237.4627142857143,142.49174147788156L238.9206875,143.71868309085124L239.05153124999998,147.25952624395327L239.2010669642857,147.33007912949503L240.229125,149.33217136226443L240.3412767857143,150.2827008935417L241.70579017857142,149.7716732801665L241.85532589285717,147.68963660306332L242.24785714285713,149.21772973521755L242.77123214285714,151.97927710893725L242.82730803571428,153.36599621661838L244.1544375,155.5044341608921L244.34135714285713,154.48224051903156L244.73388839285712,152.70320647460994L245.14511160714287,153.234504279778L245.66848660714288,152.632986688433L245.89279017857143,149.8691056508093L246.02363392857143,149.3358263337079L248.11713392857143,148.04612177958163L250.56578125000001,149.2028986703537L253.29480803571428,148.6194532009529L253.9490267857143,150.13292116991843L254.04248660714285,147.74742096084856L254.47240178571428,147.9687614418568L254.9210089285714,147.71499753077663L255.40699999999998,147.7419124797992" style="fill: none;" fill="none"></path></g></g></g></g><g opacity="0.20000000298023224"><g><g><g><path stroke="rgb(255, 112, 67)" stroke-width="2px" d="M18.71065625,-48.52778175059575L19.458334821428572,11.334118396502134L20.20601339285714,39.59174534433623L20.953691964285714,24.6660503376406L21.701370535714286,59.69801779887712L22.44904910714286,50.37237286164236L23.19672767857143,3.0984035857217975L23.94440625,55.8732348645608L24.692084821428573,42.255305920702085L25.43976339285714,54.90774914509893L26.187441964285714,54.62679823498911L26.935120535714283,65.67380768732983L27.68279910714286,56.100671315602085L28.430477678571428,18.344202005704545L29.17815625,11.098142404120125L29.92583482142857,68.36531585353805L30.673513392857142,59.48926482919342L31.42119196428571,50.20983692479058L32.168870535714284,36.01486788288091L32.916549107142856,39.72392709333144L33.66422767857143,83.65046085718313L34.41190625,54.789489436228905L35.159584821428574,67.56728277654838L35.90726339285714,81.43231499393005L36.65494196428571,68.25401716473061L37.402620535714284,84.09201983799358L38.15029910714286,90.00596274522103L38.89797767857143,75.78567266936625L39.64565625,89.94578485616692L40.393334821428574,127.1132587101365L41.14101339285715,62.26381356559068L41.88869196428571,108.4455884427316L42.636370535714285,39.20195409822918L43.38404910714286,37.09289440625432L44.13172767857143,101.97134811396063L44.87940625,126.85936261963798L45.62708482142857,19.936541814371566L46.37476339285714,35.1067005999939L47.12244196428571,51.28035900274335L47.870120535714285,65.80107273070462L48.61779910714286,88.10500908797985L49.36547767857143,40.33892933425159L50.11315625,72.362597522937L50.860834821428575,59.891270207157504L51.60851339285714,106.24397823680192L52.35619196428571,123.22501145721981L53.103870535714286,65.9258017890752L53.85154910714286,108.19957201992474L54.599227678571424,80.19396505123404L55.346906249999996,49.24336786420463L56.09458482142857,81.85530694167392L56.84226339285714,133.80185446525866L57.58994196428572,35.13666662688044L58.33762053571429,117.26868137206475L59.08529910714286,112.3161226167158L59.83297767857143,122.55451513628395L60.580656250000004,98.36877439628915L61.32833482142857,112.64894477112102L62.07601339285714,103.78073459837105L62.823691964285715,99.66759981811629L63.57137053571429,27.284144325716596L64.31904910714286,158.1767460459505L65.06672767857143,127.19712735706162L65.81440625,76.71724605874624L66.56208482142857,62.357386236766615L67.30976339285715,57.268078371675074L68.05744196428572,42.95508251747742L68.8051205357143,84.40857804775442L69.55279910714286,31.48932501066517L70.30047767857143,113.78119738200803L71.04815625,29.245211178516882L71.77714285714286,153.32563962946915L72.52482142857143,57.18534833026206L73.27250000000001,120.35493630609744L74.02017857142857,96.56110875884588L74.76785714285714,95.24917643493063L75.49684375,114.99061639373758L76.24452232142858,31.771103997511062L76.99220089285714,113.63407143566656L77.73987946428572,31.239996280914028L78.48755803571429,116.09075515370387L79.23523660714285,75.72482196796409L79.98291517857143,124.35445637042358L80.73059375,64.80375781170005L81.47827232142856,96.8715599026782L82.22595089285714,66.08727675260889L82.9549375,44.62655540923515L83.70261607142857,87.05623696304792L84.45029464285714,118.96953804925397L85.19797321428571,105.57609553306429L85.94565178571428,81.29706677327158L86.67463839285715,133.28767056695506L87.42231696428571,120.08729931725975L88.16999553571428,42.886145129199576L88.91767410714286,89.29626216631185L89.64666071428572,113.12853058829569L90.39433928571428,93.80379436951806L91.14201785714286,38.309468518531475L91.88969642857143,87.32810490645898L92.63737499999999,128.80807301489222L93.38505357142857,100.55327964213939L94.11404017857143,115.75296453888222L94.86171875,132.59674404029647L95.51593749999999,98.93269465355297L96.26361607142857,95.2109943341784L97.01129464285714,132.12040583657108L97.74028125,124.13101797737363L98.48795982142856,99.07091877498169L99.21694642857143,97.37580688014896L99.94593303571429,117.9745779734676L100.67491964285715,72.40706783140377L101.42259821428571,85.15759933292793L102.11420089285714,117.4402743982173L102.8431875,122.66752173335954L103.55348214285715,125.38352285677684L104.28246875,104.6091477406153L105.03014732142857,120.5808718680546L105.72175,116.15793287891756L106.45073660714286,112.0059431855625L107.16103125,123.55136426212448L107.87132589285714,123.2178434179732L108.6003125,121.5950459118576L109.34799107142858,66.93853963728907L110.07697767857142,111.07211846255632L110.80596428571428,107.04758789306106L111.49756696428571,121.76591437086608L112.17047767857143,118.02819594212815L112.89946428571429,104.04496870937146L113.60975892857144,143.3962491194452L114.30136160714285,92.02253661673602L114.93688839285714,65.52123454870889L115.665875,100.21441511530065L116.35747767857143,92.6166557974684L117.04908035714286,81.57748719672236L117.77806696428571,123.6352846638456L118.45097767857142,104.40070529970762L119.12388839285715,92.3796188317683L119.79679910714286,148.78084397313978L120.41363392857143,119.03544778196556L121.08654464285713,157.97015383899998L122.33890625000001,117.26390699213334L122.95574107142858,139.57785790243543L123.55388392857142,147.11264457222933L124.28287053571428,108.3074937082929L125.49784821428572,146.76298917042368L126.17075892857143,99.94204256262856L126.75020982142857,93.72896987319471L127.40442857142858,151.7483992825364L127.9838794642857,120.81471297510143L128.63809821428572,94.4270515004009L129.18016517857143,121.98838236149095L129.797,84.26305650008908L130.3390669642857,103.7493582532934L130.99328571428572,50.68145250338057L131.64750446428573,92.93615109190249L132.32041517857144,71.3390170449602L132.88117410714287,120.45984327759834L134.05876785714284,132.33381673789518L134.6195267857143,111.2534543290567L135.16159374999998,127.9375961621954L135.77842857142858,183.7636702555701L136.3204955357143,115.43249884202305L136.8625625,122.59783390053963L138.05884821428572,125.67707605971373L138.65699107142856,107.97445159600466L139.29251785714285,135.62732375252745L140.33926785714286,130.1239257646048L140.84395089285715,83.73806878811956L141.4794776785714,105.95492770111741L141.9841607142857,136.648018900627L142.54491964285714,146.7984541443857L142.97483482142857,123.67804706404422L144.4328080357143,131.88891957274245L144.95618303571428,173.84950859427045L146.24592857142858,155.07681490707364L148.00297321428573,136.87884529080657L148.45158035714286,137.4171598627472L148.93757142857143,128.78389058645917L149.34879464285714,165.4697213701129L149.81609375,130.27831032108588L151.72267410714284,141.33433804663036L152.60119642857143,168.5030440865321L153.36756696428571,153.76647404313553L154.07786160714284,123.61512617080189L154.52646875000002,90.194401957473L154.91899999999998,152.4251579337888L155.36760714285714,162.0708545295147L155.87229017857143,113.69691469671488L156.28351339285715,149.71786455479923L156.6386607142857,140.0576895548911L157.66671875,136.79575296582152L158.4704732142857,98.4742118544491L158.90038839285714,136.40253296447918L159.31161160714285,143.18801369772154L160.4331294642857,112.42069318204267L160.8256607142857,141.01427344944022L161.16211607142858,145.32148871471145L163.0313125,148.53851507954823L163.38645982142856,118.19025314711689L163.72291517857144,94.78230935887403L164.37713392857142,124.39470866301599L164.69489732142856,133.83138057637916L165.2743482142857,140.67929053230182L165.79772321428572,118.34004446545259L166.11548660714286,183.52968682283426L166.47063392857143,143.58428723202815L166.6949375,121.98877052246098L166.93793303571428,128.0048644583021L169.96603125,126.88698674200532L170.43333035714284,111.0635659825166L170.58286607142855,123.04995085973496L170.88193750000002,116.44167854801162L171.1249330357143,121.43194067224977L173.3492767857143,145.87542029634642L174.28387500000002,130.21972389200891L174.90070982142856,133.84562608397937L175.1810892857143,145.91509034748378L175.38670089285716,146.78057286236617L175.64838839285716,160.9825934952314L177.424125,122.93638789860233L177.70450446428572,101.47157792634425L179.05032589285713,147.556946557228L179.34939732142857,117.70067865431338L181.40551339285713,92.0446488533289L182.32141964285714,129.7653426604884L182.9008705357143,119.81376228167755L183.76070089285713,164.72487928471674L185.89158482142858,128.36053635514327L186.54580357142856,140.84150300167857L186.75141517857142,118.9887261398726L187.1065625,104.90488758368338L188.09723660714286,136.329778659996L188.28415625,128.79385338469L188.54584375000002,149.25205845206074L189.33090625,140.3736008297019L189.51782589285713,132.01822893055942L190.04120089285715,118.80885234635934L190.52719196428572,138.46462517908003L191.0131830357143,167.67540726622792L191.2748705357143,139.23851464373365L191.83562946428572,168.16186353257217L192.39638839285715,128.87717860625708L193.34967857142857,136.42842330118037L193.98520535714286,141.7854069712066L194.13474107142858,153.19601974287616L194.52727232142857,154.3286605147332L194.75157589285715,152.41321551461078L196.9385357142857,135.47739010850273L199.12549553571426,155.09432096682212L199.51802678571428,162.34396458802985L200.65823660714287,167.9263533333542L200.976,138.7011445968201L202.49004910714285,180.17646771231193L202.93865624999998,146.25924680221397L203.23772767857145,147.11164829240624L203.76110267857143,143.21951942978922L204.84523660714285,124.64383037358311L205.03215624999999,152.26511916584423L206.28451785714284,134.86457450771377L207.25650000000002,137.50731671738686L208.80793303571429,166.6254318422889L208.97616071428573,179.69654548896324L209.61168750000002,123.44029846989906L210.04160267857142,173.84340152834193L210.58366964285713,127.81800376732826L211.05096875,101.48011746768498L211.1818125,134.30853391814162L212.82670535714286,131.5227285136134L213.83607142857144,111.45938666235816L214.15383482142857,164.41873672765178L214.58374999999998,125.24375903016698L214.88282142857145,132.72517356658136L215.59311607142857,158.30681878700852L215.7239598214286,153.63488747429437L216.26602678571427,127.28119008447175L216.43425446428571,132.9555471022959L217.8361517857143,172.53095165646664L218.0978392857143,125.73431686409458L219.06982142857143,122.63706403591095L219.63058035714286,154.47931872590198L219.78011607142858,129.68328543142343L219.94834375000002,130.6912230223079L220.39695089285715,180.75489872050548L220.50910267857142,172.9905601223836L220.63994642857145,117.31206482981543L220.95770982142855,112.47244797804706L221.06986160714285,148.59437144313597L221.911,132.68402850375787L222.86429017857142,136.2802105041228L223.03251785714286,136.81171932038887L225.66808482142855,99.43039464932917L226.26622767857143,123.0066967889743L226.95783035714288,132.3115233595163L228.52795535714287,140.61111652726504L228.65879910714287,148.594798420203L229.33170982142857,167.1644709813736L230.13546428571428,161.9696997807241L231.5934375,141.0919703369418L232.02335267857143,129.97121030029484L233.59347767857145,151.83237143905353L235.1075267857143,122.74665481645025L235.25706250000002,156.2239858379089L236.30381250000002,147.804683827002L236.37858035714285,135.5443219984354L237.4627142857143,155.46062847424218L238.9206875,155.68466204744618L239.05153124999998,181.79226538226794L239.2010669642857,148.0181594218211L240.229125,168.8579526001322L240.3412767857143,159.55291901040619L241.70579017857142,144.7877803196152L241.85532589285717,127.38418212852048L242.24785714285713,164.1207455509575L242.77123214285714,178.9117875171487L242.82730803571428,166.89023525604534L244.1544375,176.35995260665732L244.34135714285713,144.5131046785209L244.73388839285712,135.35284219191817L245.14511160714287,158.4160861000728L245.66848660714288,146.76657319004698L245.89279017857143,122.91383574624342L246.02363392857143,144.13491944541784L248.11713392857143,135.46803542912494L250.56578125000001,160.48458297067918L253.29480803571428,142.9292914724956L253.9490267857143,164.89330232961402L254.04248660714285,124.48238128744742L254.47240178571428,150.12742613297996L254.9210089285714,145.24011723669355L255.40699999999998,148.00440558478294" style="fill: none;" fill="none"></path></g></g></g></g></g></g><g transform="translate(68, 177)" clip-path="url(#clip_1)"><clipPath id="clip_1"><rect width="261" height="22"></rect></clipPath><g><g><line x1="0" y1="0" x2="0" y2="5" style="visibility: inherit;" fill="rgb(0, 0, 0)" stroke="rgb(204, 204, 204)" stroke-width="1px"></line><line x1="18.691964285714285" y1="0" x2="18.691964285714285" y2="5" style="visibility: inherit;" fill="rgb(0, 0, 0)" stroke="rgb(204, 204, 204)" stroke-width="1px"></line><line x1="37.38392857142857" y1="0" x2="37.38392857142857" y2="5" style="visibility: inherit;" fill="rgb(0, 0, 0)" stroke="rgb(204, 204, 204)" stroke-width="1px"></line><line x1="56.075892857142854" y1="0" x2="56.075892857142854" y2="5" style="visibility: inherit;" fill="rgb(0, 0, 0)" stroke="rgb(204, 204, 204)" stroke-width="1px"></line><line x1="74.76785714285714" y1="0" x2="74.76785714285714" y2="5" style="visibility: inherit;" fill="rgb(0, 0, 0)" stroke="rgb(204, 204, 204)" stroke-width="1px"></line><line x1="93.45982142857143" y1="0" x2="93.45982142857143" y2="5" style="visibility: inherit;" fill="rgb(0, 0, 0)" stroke="rgb(204, 204, 204)" stroke-width="1px"></line><line x1="112.15178571428571" y1="0" x2="112.15178571428571" y2="5" style="visibility: inherit;" fill="rgb(0, 0, 0)" stroke="rgb(204, 204, 204)" stroke-width="1px"></line><line x1="130.84375" y1="0" x2="130.84375" y2="5" style="visibility: inherit;" fill="rgb(0, 0, 0)" stroke="rgb(204, 204, 204)" stroke-width="1px"></line><line x1="149.53571428571428" y1="0" x2="149.53571428571428" y2="5" style="visibility: inherit;" fill="rgb(0, 0, 0)" stroke="rgb(204, 204, 204)" stroke-width="1px"></line><line x1="168.22767857142858" y1="0" x2="168.22767857142858" y2="5" style="visibility: inherit;" fill="rgb(0, 0, 0)" stroke="rgb(204, 204, 204)" stroke-width="1px"></line><line x1="186.91964285714286" y1="0" x2="186.91964285714286" y2="5" style="visibility: inherit;" fill="rgb(0, 0, 0)" stroke="rgb(204, 204, 204)" stroke-width="1px"></line><line x1="205.61160714285714" y1="0" x2="205.61160714285714" y2="5" style="visibility: inherit;" fill="rgb(0, 0, 0)" stroke="rgb(204, 204, 204)" stroke-width="1px"></line><line x1="224.30357142857142" y1="0" x2="224.30357142857142" y2="5" style="visibility: inherit;" fill="rgb(0, 0, 0)" stroke="rgb(204, 204, 204)" stroke-width="1px"></line><line x1="242.99553571428572" y1="0" x2="242.99553571428572" y2="5" style="visibility: inherit;" fill="rgb(0, 0, 0)" stroke="rgb(204, 204, 204)" stroke-width="1px"></line><line x1="261.6875" y1="0" x2="261.6875" y2="5" style="visibility: inherit;" fill="rgb(0, 0, 0)" stroke="rgb(204, 204, 204)" stroke-width="1px"></line></g><g transform="translate(0, 8)"><text x="0" y="0" dx="0em" dy="0.95em" style="text-anchor: middle; visibility: hidden; font-family: &quot;Helvetica Neue&quot;, sans-serif; font-size: 12px; font-weight: 200;" fill="rgb(50, 49, 63)" stroke="none" stroke-width="1px">-1k</text><text x="18.691964285714285" y="0" dx="0em" dy="0.95em" style="text-anchor: middle; visibility: inherit; font-family: &quot;Helvetica Neue&quot;, sans-serif; font-size: 12px; font-weight: 200;" fill="rgb(50, 49, 63)" stroke="none" stroke-width="1px">0</text><text x="37.38392857142857" y="0" dx="0em" dy="0.95em" style="text-anchor: middle; visibility: hidden; font-family: &quot;Helvetica Neue&quot;, sans-serif; font-size: 12px; font-weight: 200;" fill="rgb(50, 49, 63)" stroke="none" stroke-width="1px">1k</text><text x="56.075892857142854" y="0" dx="0em" dy="0.95em" style="text-anchor: middle; visibility: inherit; font-family: &quot;Helvetica Neue&quot;, sans-serif; font-size: 12px; font-weight: 200;" fill="rgb(50, 49, 63)" stroke="none" stroke-width="1px">2k</text><text x="74.76785714285714" y="0" dx="0em" dy="0.95em" style="text-anchor: middle; visibility: hidden; font-family: &quot;Helvetica Neue&quot;, sans-serif; font-size: 12px; font-weight: 200;" fill="rgb(50, 49, 63)" stroke="none" stroke-width="1px">3k</text><text x="93.45982142857143" y="0" dx="0em" dy="0.95em" style="text-anchor: middle; visibility: inherit; font-family: &quot;Helvetica Neue&quot;, sans-serif; font-size: 12px; font-weight: 200;" fill="rgb(50, 49, 63)" stroke="none" stroke-width="1px">4k</text><text x="112.15178571428571" y="0" dx="0em" dy="0.95em" style="text-anchor: middle; visibility: hidden; font-family: &quot;Helvetica Neue&quot;, sans-serif; font-size: 12px; font-weight: 200;" fill="rgb(50, 49, 63)" stroke="none" stroke-width="1px">5k</text><text x="130.84375" y="0" dx="0em" dy="0.95em" style="text-anchor: middle; visibility: inherit; font-family: &quot;Helvetica Neue&quot;, sans-serif; font-size: 12px; font-weight: 200;" fill="rgb(50, 49, 63)" stroke="none" stroke-width="1px">6k</text><text x="149.53571428571428" y="0" dx="0em" dy="0.95em" style="text-anchor: middle; visibility: hidden; font-family: &quot;Helvetica Neue&quot;, sans-serif; font-size: 12px; font-weight: 200;" fill="rgb(50, 49, 63)" stroke="none" stroke-width="1px">7k</text><text x="168.22767857142858" y="0" dx="0em" dy="0.95em" style="text-anchor: middle; visibility: inherit; font-family: &quot;Helvetica Neue&quot;, sans-serif; font-size: 12px; font-weight: 200;" fill="rgb(50, 49, 63)" stroke="none" stroke-width="1px">8k</text><text x="186.91964285714286" y="0" dx="0em" dy="0.95em" style="text-anchor: middle; visibility: hidden; font-family: &quot;Helvetica Neue&quot;, sans-serif; font-size: 12px; font-weight: 200;" fill="rgb(50, 49, 63)" stroke="none" stroke-width="1px">9k</text><text x="205.61160714285714" y="0" dx="0em" dy="0.95em" style="text-anchor: middle; visibility: inherit; font-family: &quot;Helvetica Neue&quot;, sans-serif; font-size: 12px; font-weight: 200;" fill="rgb(50, 49, 63)" stroke="none" stroke-width="1px">10k</text><text x="224.30357142857142" y="0" dx="0em" dy="0.95em" style="text-anchor: middle; visibility: hidden; font-family: &quot;Helvetica Neue&quot;, sans-serif; font-size: 12px; font-weight: 200;" fill="rgb(50, 49, 63)" stroke="none" stroke-width="1px">11k</text><text x="242.99553571428572" y="0" dx="0em" dy="0.95em" style="text-anchor: middle; visibility: inherit; font-family: &quot;Helvetica Neue&quot;, sans-serif; font-size: 12px; font-weight: 200;" fill="rgb(50, 49, 63)" stroke="none" stroke-width="1px">12k</text><text x="261.6875" y="0" dx="0em" dy="0.95em" style="text-anchor: middle; visibility: hidden; font-family: &quot;Helvetica Neue&quot;, sans-serif; font-size: 12px; font-weight: 200;" fill="rgb(50, 49, 63)" stroke="none" stroke-width="1px">13k</text></g><line x1="0" y1="0" x2="261.6875" y2="0" fill="rgb(0, 0, 0)" stroke="rgb(204, 204, 204)" stroke-width="1px"></line></g></g></g></g></svg>