<svg viewBox="0 0 330 200" xmlns="http://www.w3.org/2000/svg"><g><g><g><g><g><line x1="68.3125" y1="156.12669015083168" x2="63.3125" y2="156.12669015083168" style="visibility: inherit;" fill="rgb(0, 0, 0)" stroke="rgb(204, 204, 204)" stroke-width="1px"></line><line x1="68.3125" y1="132.50071584116372" x2="63.3125" y2="132.50071584116372" style="visibility: inherit;" fill="rgb(0, 0, 0)" stroke="rgb(204, 204, 204)" stroke-width="1px"></line><line x1="68.3125" y1="108.87474153149579" x2="63.3125" y2="108.87474153149579" style="visibility: inherit;" fill="rgb(0, 0, 0)" stroke="rgb(204, 204, 204)" stroke-width="1px"></line><line x1="68.3125" y1="85.24876722182789" x2="63.3125" y2="85.24876722182789" style="visibility: inherit;" fill="rgb(0, 0, 0)" stroke="rgb(204, 204, 204)" stroke-width="1px"></line><line x1="68.3125" y1="61.62279291215995" x2="63.3125" y2="61.62279291215995" style="visibility: inherit;" fill="rgb(0, 0, 0)" stroke="rgb(204, 204, 204)" stroke-width="1px"></line><line x1="68.3125" y1="37.99681860249203" x2="63.3125" y2="37.99681860249203" style="visibility: inherit;" fill="rgb(0, 0, 0)" stroke="rgb(204, 204, 204)" stroke-width="1px"></line><line x1="68.3125" y1="14.370844292824074" x2="63.3125" y2="14.370844292824074" style="visibility: inherit;" fill="rgb(0, 0, 0)" stroke="rgb(204, 204, 204)" stroke-width="1px"></line></g><g transform="translate(58.3125, 0)"><text x="0" y="156.12669015083168" dx="0em" dy="0.3em" style="text-anchor: end; visibility: inherit; font-family: &quot;Helvetica Neue&quot;, sans-serif; font-size: 12px; font-weight: 200;" fill="rgb(50, 49, 63)" stroke="none" stroke-width="1px">1.8e-3</text><text x="0" y="132.50071584116372" dx="0em" dy="0.3em" style="text-anchor: end; visibility: inherit; font-family: &quot;Helvetica Neue&quot;, sans-serif; font-size: 12px; font-weight: 200;" fill="rgb(50, 49, 63)" stroke="none" stroke-width="1px">2e-3</text><text x="0" y="108.87474153149579" dx="0em" dy="0.3em" style="text-anchor: end; visibility: inherit; font-family: &quot;Helvetica Neue&quot;, sans-serif; font-size: 12px; font-weight: 200;" fill="rgb(50, 49, 63)" stroke="none" stroke-width="1px">2.2e-3</text><text x="0" y="85.24876722182789" dx="0em" dy="0.3em" style="text-anchor: end; visibility: inherit; font-family: &quot;Helvetica Neue&quot;, sans-serif; font-size: 12px; font-weight: 200;" fill="rgb(50, 49, 63)" stroke="none" stroke-width="1px">2.4e-3</text><text x="0" y="61.62279291215995" dx="0em" dy="0.3em" style="text-anchor: end; visibility: inherit; font-family: &quot;Helvetica Neue&quot;, sans-serif; font-size: 12px; font-weight: 200;" fill="rgb(50, 49, 63)" stroke="none" stroke-width="1px">2.6e-3</text><text x="0" y="37.99681860249203" dx="0em" dy="0.3em" style="text-anchor: end; visibility: inherit; font-family: &quot;Helvetica Neue&quot;, sans-serif; font-size: 12px; font-weight: 200;" fill="rgb(50, 49, 63)" stroke="none" stroke-width="1px">2.8e-3</text><text x="0" y="14.370844292824074" dx="0em" dy="0.3em" style="text-anchor: end; visibility: inherit; font-family: &quot;Helvetica Neue&quot;, sans-serif; font-size: 12px; font-weight: 200;" fill="rgb(50, 49, 63)" stroke="none" stroke-width="1px">3e-3</text></g><line x1="68.3125" y1="0" x2="68.3125" y2="177.828125" fill="rgb(0, 0, 0)" stroke="rgb(204, 204, 204)" stroke-width="1px"></line></g></g><g transform="translate(68, 0)" clip-path="url(#clip_0)"><clipPath id="clip_0"><rect width="261" height="177"></rect></clipPath><g><g><g><line x1="3.118270551437134" y1="0" x2="3.118270551437134" y2="177.828125" fill="rgb(0, 0, 0)" stroke="rgb(60, 60, 60)" stroke-width="1px" opacity="0.25"></line><line x1="30.76751298320067" y1="0" x2="30.76751298320067" y2="177.828125" fill="rgb(0, 0, 0)" stroke="rgb(60, 60, 60)" stroke-width="1px" opacity="0.25"></line><line x1="58.41675541496421" y1="0" x2="58.41675541496421" y2="177.828125" fill="rgb(0, 0, 0)" stroke="rgb(60, 60, 60)" stroke-width="1px" opacity="0.25"></line><line x1="86.06599784672774" y1="0" x2="86.06599784672774" y2="177.828125" fill="rgb(0, 0, 0)" stroke="rgb(60, 60, 60)" stroke-width="1px" opacity="0.25"></line><line x1="113.71524027849127" y1="0" x2="113.71524027849127" y2="177.828125" fill="rgb(0, 0, 0)" stroke="rgb(60, 60, 60)" stroke-width="1px" opacity="0.25"></line><line x1="141.36448271025483" y1="0" x2="141.36448271025483" y2="177.828125" fill="rgb(0, 0, 0)" stroke="rgb(60, 60, 60)" stroke-width="1px" opacity="0.25"></line><line x1="169.01372514201836" y1="0" x2="169.01372514201836" y2="177.828125" fill="rgb(0, 0, 0)" stroke="rgb(60, 60, 60)" stroke-width="1px" opacity="0.25"></line><line x1="196.66296757378188" y1="0" x2="196.66296757378188" y2="177.828125" fill="rgb(0, 0, 0)" stroke="rgb(60, 60, 60)" stroke-width="1px" opacity="0.25"></line><line x1="224.31221000554544" y1="0" x2="224.31221000554544" y2="177.828125" fill="rgb(0, 0, 0)" stroke="rgb(60, 60, 60)" stroke-width="1px" opacity="0.25"></line><line x1="251.961452437309" y1="0" x2="251.961452437309" y2="177.828125" fill="rgb(0, 0, 0)" stroke="rgb(60, 60, 60)" stroke-width="1px" opacity="0.25"></line></g><g><line x1="0" y1="156.12669015083168" x2="261.6875" y2="156.12669015083168" fill="rgb(0, 0, 0)" stroke="rgb(60, 60, 60)" stroke-width="1px" opacity="0.25"></line><line x1="0" y1="132.50071584116372" x2="261.6875" y2="132.50071584116372" fill="rgb(0, 0, 0)" stroke="rgb(60, 60, 60)" stroke-width="1px" opacity="0.25"></line><line x1="0" y1="108.87474153149579" x2="261.6875" y2="108.87474153149579" fill="rgb(0, 0, 0)" stroke="rgb(60, 60, 60)" stroke-width="1px" opacity="0.25"></line><line x1="0" y1="85.24876722182789" x2="261.6875" y2="85.24876722182789" fill="rgb(0, 0, 0)" stroke="rgb(60, 60, 60)" stroke-width="1px" opacity="0.25"></line><line x1="0" y1="61.62279291215995" x2="261.6875" y2="61.62279291215995" fill="rgb(0, 0, 0)" stroke="rgb(60, 60, 60)" stroke-width="1px" opacity="0.25"></line><line x1="0" y1="37.99681860249203" x2="261.6875" y2="37.99681860249203" fill="rgb(0, 0, 0)" stroke="rgb(60, 60, 60)" stroke-width="1px" opacity="0.25"></line><line x1="0" y1="14.370844292824074" x2="261.6875" y2="14.370844292824074" fill="rgb(0, 0, 0)" stroke="rgb(60, 60, 60)" stroke-width="1px" opacity="0.25"></line></g></g></g><g><g><line x1="0" y1="368.76045893784305" x2="261.6875" y2="368.76045893784305" fill="rgb(0, 0, 0)" stroke="rgb(153, 153, 153)" stroke-width="1.5px"></line></g></g><g><g><line x1="30.76751298320067" y1="0" x2="30.76751298320067" y2="177.828125" fill="rgb(0, 0, 0)" stroke="rgb(153, 153, 153)" stroke-width="1.5px"></line></g></g><g><g><g><g><g><path stroke="rgb(255, 112, 67)" stroke-width="2px" d="M30.781337604416553,38.684986832080455L31.334322453051822,-5.245364419963607L31.887307301687095,29.457539809839346L32.440292150322364,30.55190939481912L32.99327699895764,22.92546132690643L33.5462618475929,30.042765659860237L34.09924669622818,12.969408107786677L34.65223154486345,22.04999154465105L35.205216393498716,36.896017378031786L35.75820124213399,40.34345860805334L36.311186090769255,44.369068079120495L36.86417093940453,58.623005548929626L37.4171557880398,62.90365750856709L37.97014063667507,60.72548529676537L38.523125485310345,57.555857837405256L39.076110333945614,60.93107584786134L39.62909518258088,70.15222461729262L40.18208003121615,80.62677289233574L40.73506487985143,89.68558923396651L41.28804972848669,97.04011286948145L41.84103457712197,89.20288615221514L42.394019425757236,92.05506100821486L42.947004274392505,88.908164799712L43.49998912302778,90.22905407327067L44.05297397166304,95.7121766993149L44.60595882029832,93.84672979863397L45.158943668933595,99.56251615734399L45.71192851756886,102.01357398131734L46.264913366204134,105.62516578366834L46.8178982148394,104.8217552111092L47.37088306347467,93.45702310874299L47.92386791210995,76.49083786703676L48.47685276074521,84.45013261494603L49.029837609380486,85.26921563030358L49.582822458015755,90.37135392391306L50.135807306651024,85.67390337323393L50.68879215528629,81.27413121113159L51.24177700392157,84.29304442100333L51.79476185255684,88.34073634547393L52.34774670119211,87.47413848853341L52.900731549827384,92.95248446523446L53.453716398462646,96.6790220068526L54.00670124709792,77.10061271879896L54.5596860957332,84.43506844690843L55.11267094436846,90.45761645474L55.66565579300374,91.12061768466859L56.218640641639,92.17076463870252L56.771625490274275,91.09761621041577L57.32461033890955,89.44533577586748L57.87759518754481,83.41227488952946L58.43058003618009,87.79263282446608L58.98356488481536,94.42719085960036L59.53654973345063,97.57836992200187L60.089534582085896,100.8748457080728L60.64251943072117,100.44987467066743L61.19550427935644,104.05948520125087L61.74848912799171,105.62867497520794L62.30147397662698,112.59899649608471L62.85445882526225,116.19036775056964L63.407443673897525,116.0453279789104L63.960428522532794,111.07798025477426L64.51341337116807,112.94508632584291L65.06639821980333,109.53476641378163L65.61938306843861,114.34260096535405L66.17236791707387,116.43447732229872L66.72535276570915,111.04913056620191L67.27833761434442,114.1887850209529L67.83132246297968,114.34813580056647L68.38430731161496,104.43950654009821L68.93729216025022,105.03406862896956L69.4902770088855,108.22801787623665L70.02943723630489,109.55820979260257L70.58242208494015,109.33637057261274L71.13540693357544,110.47767691567739L71.6883917822107,105.57834358553472L72.24137663084596,104.64066656853831L72.78053685826536,102.51771278503348L73.33352170690064,99.49541783854139L73.8865065555359,96.42889210111267L74.43949140417118,87.62319965603028L74.99247625280645,95.4729057680802L75.54546110144172,99.75399103889193L76.09844595007698,95.0646597533101L76.65143079871225,103.54232119026042L77.20441564734753,99.29408195276244L77.7574004959828,98.03195548547805L78.2965607234022,94.98110130656221L78.84954557203746,95.40686596217768L79.40253042067273,100.84988920925976L79.955515269308,104.94915203171924L80.50850011794327,108.44567732823427L81.04766034536266,92.75782744167435L81.60064519399792,88.0298029685993L82.15363004263321,88.78913299346975L82.70661489126847,93.58076407370092L83.24577511868786,95.36667947161587L83.79875996732314,78.61589695515516L84.3517448159584,78.88529418237587L84.90472966459367,79.45210293519564L85.45771451322895,83.14276229761624L86.01069936186421,74.60938013777924L86.5498595892836,79.00718031772112L87.10284443791886,80.9373853829901L87.58670618047474,77.95776271193489L88.13969102911,84.44874060882452L88.69267587774529,81.38865460810351L89.23183610516466,76.80813732129839L89.78482095379994,84.60676465941148L90.32398118121934,90.91455059909323L90.86314140863871,99.09666874363188L91.4023016360581,97.5409907982258L91.95528648469336,90.77624816766071L92.466797469681,96.29732075600904L93.00595769710038,98.16401873806646L93.5312933033039,101.8473803425522L94.07045353072328,92.64103161689913L94.62343837935855,90.83090534669523L95.13494936434618,93.81351309820354L95.67410959176557,96.3075282783592L96.19944519796907,89.67470982070233L96.72478080417258,88.83274674040678L97.26394103159197,91.76315599786126L97.81692588022723,95.33301858040103L98.35608610764663,99.34193384623617L98.89524633506602,102.44056111687853L99.40675732005366,106.28319666196337L99.90444368382539,108.47005162907386L100.44360391124478,106.37960812760042L100.96893951744829,112.62467305201456L101.48045050243591,115.25212594754407L101.9504876237759,107.54782773889607L102.48964785119529,110.62331366620398L103.0011588361829,115.98457404826158L103.51266982117053,118.21180792530997L104.05183004858992,124.33660307730166L104.54951641236167,127.66761814601026L105.0472027761334,125.80073106749451L105.54488913990515,130.78453610520745L106.00110164002925,128.38200264275653L106.498788003801,134.839809814501L107.42503762526508,134.24091574177135L107.88125012538916,138.61982079362724L108.3236380042974,129.14884618683183L108.86279823171677,128.34763056292573L109.7613986107491,124.94464093005968L110.25908497452083,126.63880908224239L110.68764823221318,130.36185614838655L111.17150997476902,128.1557141953254L111.60007323246137,123.60628799064378L112.08393497501723,122.76864409805094L112.4848489902778,118.51090076063038L112.9410614904019,120.8924494150034L113.34197550566248,128.31861648164468L113.82583724821833,121.26671718664255L114.3096989907742,124.38787620845969L114.80738535454594,115.07686097324661L115.2221239910224,116.58739157010126L116.09307512762294,105.48541489210535L116.5078137640994,109.58017739341264L116.90872777935998,111.45497145594688L117.36494027948406,115.43751839121907L117.76585429474464,117.8602462659747L118.16676831000521,109.473972025582L119.05154406782164,117.70469331475766L119.49393194672986,112.68417948021649L119.96396906806983,100.63274384260431L120.73814785615922,105.45224728750874L121.11141262898803,104.25237708147847L121.581449750328,105.65545207697504L121.95471452315681,106.70929750713482L122.36945315963327,107.45814525928732L122.68741944759854,114.14321777528002L123.76573990243732,117.38362719195175L124.15282929648201,120.27108958616296L125.10672816037786,126.03585112577285L126.40624255467074,124.0473998384434L126.73803346385189,122.15752764772569L127.09747361546482,124.26168936236873L127.40161528221422,126.21316736928227L127.74723081261126,128.1082364536939L129.1573421766312,129.35118679855762L129.80709937377765,125.83639055625908L130.3739088436288,132.18015268770546L130.8992444498323,135.015591878048L131.23103535901348,122.07649892574142L131.521352404547,123.79761584380499L131.85314331372814,122.34876748858215L132.22640808655697,126.0236431025152L132.53054975330636,128.11050759064202L132.7932175564081,132.32675307302642L133.5535717232816,128.20046461201207L134.14803043556455,128.37602623505973L134.46599672352983,129.13230416438248L134.77013839027921,125.94510824655411L135.59961566323213,129.65892703292417L135.88993270876563,118.82820701326702L136.13877589065152,117.71579823729903L137.52123801223968,120.16155011231356L137.78390581534146,123.67294643575127L138.0327489972273,115.47060067230379L138.51661073978318,106.74315215568636L138.75162930045315,105.49525310910703L139.1801925581455,111.78885051719286L139.56728195219017,117.0266095097322L139.80230051286017,112.63701079685663L140.06496831596195,115.70530743597263L140.2308637705525,114.85493056699602L140.41058384635897,114.16556814406601L142.6501724833318,118.49697332209263L142.99578801372886,124.58810765491921L143.1063849834559,120.76316430126366L143.32757892291005,120.53821690425126L143.5072989987165,123.55545884665804L145.15242892340643,116.26512468910377L145.8436599842005,113.52136062851616L146.2998724843246,114.83608884324327L146.50724180256285,115.34715974956788L146.65931263593754,116.10225767868644L146.8528573329599,116.79352879728059L148.16619634846865,114.99912073399568L148.37356566670687,111.92371626501912L149.36893839425036,114.14772310107227L149.59013233370445,114.52343428887731L151.11084066745147,119.65341370504929L151.78824710702966,122.28605604931705L152.216810364722,116.3505291225822L152.85274294065255,119.01927441776866L154.4287497592631,118.83184206316349L154.91261150181896,123.30290976068528L155.06468233519365,121.31797645437265L155.3273501382954,123.54109026362278L156.06005506273712,130.01862525321144L156.19830127489595,128.49679622581752L156.3918459719183,128.31764927289834L156.97248006298534,134.40735052548916L157.11072627514415,138.97660298289185L157.49781566918884,140.86175213007675L157.85725582080178,135.2152229477041L158.2166959724147,128.46838829936806L158.41024066943703,134.083806920372L158.82497930591347,128.65376680426743L159.23971794238994,122.6760491694277L159.94477362439991,113.78232778539085L160.41481074573989,109.33191673476284L160.52540771546694,111.46611759048494L160.81572476100047,117.9927565073979L160.98162021559105,124.71195478775913L162.5991008978492,124.7952563943707L164.21658158010737,127.93483482552838L164.5068986256409,123.67439606927923L165.35020051980968,116.49399433486509L165.58521908047967,114.42549874628455L166.7050133989661,120.21795967734892L167.03680430814725,124.99522927116996L167.25799824760136,120.27761326218473L167.64508764164606,116.7660837662568L168.4469156721672,123.02937521884945L168.585161884326,125.26112050090165L169.51141150579008,121.55099236580936L170.23029180901594,120.2108718921635L171.37773536993413,115.10696177834697L171.50215696087707,105.77291137757742L171.97219408221704,110.48330540538466L172.29016037018232,109.75887065447328L172.6910743854429,112.95934770573335L173.03668991583993,119.80363920120718L173.13346226435112,123.45350061566606L174.35002893134873,126.56755015568885L175.09655847700634,130.8447422347654L175.3315770376763,123.62254568191284L175.64954332564162,126.32867956834556L175.8707372650957,122.79450568289724L176.39607287129922,119.5072212562024L176.4928452198104,127.43614448342362L176.89375923507097,124.69792575706258L177.0181808260139,124.42625301356568L178.05502741720503,127.39577929339433L178.2485721142274,125.83672640078657L178.96745241745325,117.89750182582365L179.3821910539297,119.81305466856628L179.49278802365674,121.40529284655354L179.61720961459966,126.88740829639138L179.94900052378082,129.32260498154415L180.0319482510761,130.6205103430934L180.1287205995873,121.51635903266927L180.36373916025727,120.29617367846956L180.44668688755257,123.62550500171274L181.06879484226724,127.93112531079557L181.77385052427724,116.9156650056373L181.89827211522015,113.33946105087446L183.8475437066595,105.91074313780612L184.2899315855677,113.80785232225962L184.80144257055534,106.46738238248584L185.9627107526894,102.0164773340559L186.05948310120056,102.02318133214725L186.5571694649723,113.53984076888163L187.15162817725522,119.93115561834928L188.229948632094,121.19157355981858L188.54791492005927,124.19733758438602L189.70918310219338,130.17318777716665L190.82897742067976,132.5013073447567L190.93957439040682,128.6828605135208L191.7137531784962,133.76732066720552L191.76905166335973,128.60790542509957L192.5708796938809,127.88465388932134L193.64920014871967,128.6729728370823L193.7459724972308,132.40623612806363L193.8565694669579,127.81039775238635L194.61692363383136,129.41001674741057L194.69987136112667,137.7635584293263L195.70906870988603,136.30244265621474L195.81966567961308,137.1139717810256L196.1099827251466,141.58226443458318L196.4970721191913,137.50457859711497L196.53854598283894,135.9705320831514L197.52009408916655,128.96124573480145L197.65834030132538,129.52107620691058L197.94865734685888,129.38773404367353L198.25279901360827,135.68547110812656L198.639888407653,136.37251476590023L198.80578386224357,136.4650995372669L198.90255621075474,129.98427061504435L200.45091378693348,135.9750425963459L202.261939166214,135.96394127277435L204.28033386373275,133.81548441965475L204.7641956062886,131.4553658479199L204.833318712368,133.57340814445857L205.15128500033327,127.3734570101251L205.48307590951447,133.16002704892134L205.84251606112738,130.9870623511973" style="fill: none;" fill="none"></path></g></g></g></g><g opacity="0.20000000298023224"><g><g><g><path stroke="rgb(255, 112, 67)" stroke-width="2px" d="M30.781337604416553,38.684986832080426L31.334322453051822,-45.09019300556747L31.887307301687095,89.48138340801381L32.440292150322364,33.261340467665406L32.99327699895764,-1.1172442985169653L33.5462618475929,56.849071234281865L34.09924669622818,-60.8401740232805L34.65223154486345,65.8913972925671L35.205216393498716,115.37256794516672L35.75820124213399,59.99880339698581L36.311186090769255,68.83751546270659L36.86417093940453,150.13221039877098L37.4171557880398,91.71189589686972L37.97014063667507,45.454333833291514L38.523125485310345,34.52543598276236L39.076110333945614,86.23588143278666L39.62909518258088,141.21955314609767L40.18208003121615,163.34682177598893L40.73506487985143,162.7884166585987L41.28804972848669,157.5406875029426L41.84103457712197,23.61892659501146L42.394019425757236,116.290027346757L42.947004274392505,61.801459710192276L43.49998912302778,101.74682297874796L44.05297397166304,144.0501534493223L44.60595882029832,77.23882737663044L45.158943668933595,150.90135311051878L45.71192851756886,124.20451396439677L46.264913366204134,138.55793897961712L46.8178982148394,97.4483756465918L47.37088306347467,-11.451747715261092L47.92386791210995,-80.94842412565913L48.47685276074521,158.65932677061593L49.029837609380486,92.9386956435056L49.582822458015755,138.32987370522233L50.135807306651024,41.3651113615214L50.68879215528629,39.642189880740204L51.24177700392157,112.94042177003632L51.79476185255684,126.84965308271495L52.34774670119211,79.21024979254871L52.900731549827384,145.3044574499855L53.453716398462646,132.35853513036074L54.00670124709792,-110.67625956984904L54.5596860957332,154.89024006359713L55.11267094436846,148.39266259643026L55.66565579300374,97.50668466512978L56.218640641639,102.29762316989965L56.771625490274275,80.73802859100586L57.32461033890955,73.47987598722071L57.87759518754481,25.066227946184597L58.43058003618009,130.188559504619L58.98356488481536,158.68640470870585L59.53654973345063,128.11889189331504L60.089534582085896,132.84222494168569L60.64251943072117,96.32655963757833L61.19550427935644,139.09883763931896L61.74848912799171,120.86780788281492L62.30147397662698,180.317757886357L62.85445882526225,151.09410292274245L63.407443673897525,114.63526140745557L63.960428522532794,62.77156225399091L64.51341337116807,131.1071465806244L65.06639821980333,76.35324540545784L65.61938306843861,161.13183543853145L66.17236791707387,136.7964015261815L66.72535276570915,58.61974010005453L67.27833761434442,144.76009325427623L67.83132246297968,115.89998952039517L68.38430731161496,7.930335072287534L68.93729216025022,110.82575719914361L69.4902770088855,139.34403806397276L70.02943723630489,122.51847568826626L70.58242208494015,107.17476000679123L71.13540693357544,121.59953105695851L71.6883917822107,57.831523188138775L72.24137663084596,95.50184458056826L72.78053685826536,81.82562930800931L73.33352170690064,70.03595832344025L73.8865065555359,66.53678461331886L74.43949140417118,1.782474195078379L74.99247625280645,171.9975560175598L75.54546110144172,141.4907038344263L76.09844595007698,49.34635080368554L76.65143079871225,186.19725975702127L77.20441564734753,57.873714713816724L77.7574004959828,85.72589755461154L78.2965607234022,65.23379808302722L78.84954557203746,99.55836449429987L79.40253042067273,153.92412563663248L79.955515269308,144.92124067862244L80.50850011794327,142.54098127871464L81.04766034536266,-60.219650548169454L81.60064519399792,41.924657905453756L82.15363004263321,96.19379660338831L82.70661489126847,140.3072095357565L83.24577511868786,112.7825198476653L83.79875996732314,-84.7353473414147L84.3517448159584,81.5124383673999L84.90472966459367,84.97962463008749L85.45771451322895,119.13432476848723L86.01069936186421,-8.609238070042608L86.5498595892836,121.89531180476862L87.10284443791886,99.76118086349754L87.58670618047474,48.899681718281386L88.13969102911,147.750754563813L88.69267587774529,51.54564596422041L89.23183610516466,32.137214101313646L89.78482095379994,160.66213154037942L90.32398118121934,152.43079591634458L90.86314140863871,178.89240492989768L91.4023016360581,82.36927839311389L91.95528648469336,24.80312225215897L92.466797469681,150.14165811002937L93.00595769710038,116.36904706857757L93.5312933033039,137.76952953792315L94.07045353072328,2.8555801702094357L94.62343837935855,73.17752172269807L95.13494936434618,122.90163745112125L95.67410959176557,120.63063870033709L96.19944519796907,24.98748326690429L96.72478080417258,80.6214105539299L97.26394103159197,120.3423116053684L97.81692588022723,130.14854081500923L98.35608610764663,138.43939564475923L98.89524633506602,132.66033930980282L99.40675732005366,143.7590346725698L99.90444368382539,129.79766904638234L100.44360391124478,85.99224875061239L100.96893951744829,173.5306156327902L101.48045050243591,140.87676762815482L101.9504876237759,32.41044136082132L102.48964785119529,140.617485025439L103.0011588361829,168.27114216066443L103.51266982117053,139.93327545012767L104.05183004858992,184.06969569098973L104.54951641236167,160.15390793446207L105.0472027761334,107.5935947871197L105.54488913990515,179.38995688525242L106.00110164002925,104.95087604315592L106.498788003801,197.82070878237604L107.42503762526508,128.40009538649065L107.88125012538916,181.3258713092214L108.3236380042974,36.78147241935565L108.86279823171677,120.53363119638263L109.7613986107491,91.75637027563195L110.25908497452083,143.16149100169864L110.68764823221318,166.67154975494188L111.17150997476902,106.6399122829754L111.60007323246137,79.23717645724149L112.08393497501723,114.59936835594989L112.4848489902778,76.9864758459295L112.9410614904019,144.1189415886447L113.34197550566248,200.74368212275152L113.82583724821833,52.49176479850719L114.3096989907742,154.8275578686688L114.80738535454594,24.269457211266314L115.2221239910224,131.31912186641318L116.09307512762294,-2.7886778157589447L116.5078137640994,149.51511120328638L116.90872777935998,129.73925001082824L117.36494027948406,154.2780503774564L117.76585429474464,141.48835222070696L118.16676831000521,27.68526552743083L119.05154406782164,197.97634160378982L119.49393194672986,63.720679051966655L119.96396906806983,-16.901138061445664L120.73814785615922,152.45535721519101L121.11141262898803,92.55041808940152L121.581449750328,119.33920395673695L121.95471452315681,116.98712266508015L122.36945315963327,114.76142342067904L122.68741944759854,179.34064175778138L123.76573990243732,148.98632816748358L124.15282929648201,148.43160862013298L125.10672816037786,182.25777044417603L126.40624255467074,104.65465522728137L126.73803346385189,103.72619412408015L127.09747361546482,144.7829217851189L127.40161528221422,145.2453233038267L127.74723081261126,146.59025382151003L129.1573421766312,141.47329364162698L129.80709937377765,91.55767954453837L130.3739088436288,194.04888540208154L130.8992444498323,162.6687456493257L131.23103535901348,-4.114437868385181L131.521352404547,140.58313221215886L131.85314331372814,108.21860145563717L132.22640808655697,161.86355861267506L132.53054975330636,148.46304598248625L132.7932175564081,173.44648011972052L133.5535717232816,87.9580602987091L134.14803043556455,130.08822398592724L134.46599672352983,136.5080469269588L134.77013839027921,94.86138052128742L135.59961566323213,165.87864336771446L135.88993270876563,13.199572554592976L136.13877589065152,106.86682237870104L137.52123801223968,144.01420538930853L137.78390581534146,157.9184996883893L138.0327489972273,35.475680455153224L138.51661073978318,21.627068518350853L138.75162930045315,93.3248828743036L139.1801925581455,173.16834335086898L139.56728195219017,168.10883955764905L139.80230051286017,69.82662344603811L140.06496831596195,145.62944771557267L140.2308637705525,106.5614701504894L140.41058384635897,107.44243140698539L142.6501724833318,160.73981730587965L142.99578801372886,183.9930413350155L143.1063849834559,83.45968454402815L143.32757892291005,118.34437508856774L143.5072989987165,152.98167862025835L145.15242892340643,45.164769046891564L145.8436599842005,86.76228535061607L146.2998724843246,127.65822314261096L146.50724180256285,120.33147492928163L146.65931263593754,123.46649231608092L146.8528573329599,123.53528045540332L148.16619634846865,97.49881844847795L148.37356566670687,81.93025549032936L149.36893839425036,135.8377682563123L149.59013233370445,118.18762834486589L151.11084066745147,169.6845032623678L151.78824710702966,147.96139589328143L152.216810364722,58.46318588613086L152.85274294065255,145.0467150854952L154.4287497592631,117.00387275578282L154.91261150181896,166.90783880129084L155.06468233519365,101.95954087939548L155.3273501382954,145.22242601234893L156.06005506273712,193.1920041199865L156.19830127489595,113.65487227265073L156.3918459719183,126.57048490433738L156.97248006298534,193.7983078957654L157.11072627514415,183.53909737442112L157.49781566918884,159.2470239185453L157.85725582080178,80.14638458262357L158.2166959724147,62.668613831166525L158.41024066943703,188.84923368246527L158.82497930591347,75.69627879376058L159.23971794238994,64.3772330998535L159.94477362439991,27.04463644262583L160.41481074573989,65.92844552274195L160.52540771546694,132.28031303190696L160.81572476100047,181.64503067295476L160.98162021559105,190.24220037980737L162.5991008978492,125.60767098785601L164.21658158010737,158.55416425534236L164.5068986256409,82.12366540464967L165.35020051980968,46.46577527089323L165.58521908047967,94.25210628607358L166.7050133989661,176.71002488558963L167.03680430814725,171.58644993261302L167.25799824760136,74.26817541189855L167.64508764164606,82.519231586071L168.4469156721672,184.11330368575008L168.585161884326,147.02663631590795L169.51141150579008,85.36726958634894L170.23029180901594,107.14109479986175L171.37773536993413,65.330117980631L171.50215696087707,14.740828437523533L171.97219408221704,156.42230952568255L172.29016037018232,102.69368442789347L172.6910743854429,144.17260238825205L173.03668991583993,186.55387991473987L173.13346226435112,159.04946086186686L174.35002893134873,156.93790427167923L175.09655847700634,172.55886283374994L175.3315770376763,53.18671478501621L175.64954332564162,152.7207595144279L175.8707372650957,88.32680983245378L176.39607287129922,87.44736130992929L176.4928452198104,204.76446025837458L176.89375923507097,97.99293237207928L177.0181808260139,121.7767134614027L178.05502741720503,156.35664311919226L178.2485721142274,110.63176969548871L178.96745241745325,40.46872021851607L179.3821910539297,138.49484422087835L179.49278802365674,136.93389529206422L179.61720961459966,180.3527708017338L179.94900052378082,153.0723188894055L180.0319482510761,143.27857661109306L180.1287205995873,32.7264102310875L180.36373916025727,108.39608640687565L180.44668688755257,156.09543521869452L181.06879484226724,169.92249757246645L181.77385052427724,9.485315577977701L181.89827211522015,78.46185904046455L183.8475437066595,33.46077381361772L184.2899315855677,190.82589565877575L184.80144257055534,34.87806802364699L185.9627107526894,58.608188313363044L186.05948310120056,102.08856333503778L186.5571694649723,225.85822903893416L187.15162817725522,182.2636563545379L188.229948632094,133.48403670941389L188.54791492005927,153.5116168347303L189.70918310219338,188.45379127018705L190.82897742067976,155.20673151468984L190.93957439040682,91.4427392669581L191.7137531784962,183.35447506926255L191.76905166335973,78.2897374187614L192.5708796938809,120.83100719092633L193.64920014871967,136.36120171470677L193.7459724972308,168.8155888691358L193.8565694669579,82.98861918530174L194.61692363383136,145.01060199995732L194.69987136112667,219.2330455852074L195.70906870988603,122.05263613780505L195.81966567961308,145.02856227783718L196.1099827251466,185.16012934615802L196.4970721191913,97.73618016073398L196.53854598283894,121.00945479105576L197.52009408916655,60.60186167078946L197.65834030132538,134.9809282305983L197.94865734685888,128.0872895054376L198.25279901360827,197.10533688725172L198.639888407653,143.0730373207467L198.80578386224357,137.36804994188594L198.90255621075474,66.77876704025145L200.45091378693348,194.40117363979084L202.261939166214,135.8556735256841L204.28033386373275,112.8622546800906L204.7641956062886,108.4378653687432L204.833318712368,154.23001419779763L205.15128500033327,66.90726691506724L205.48307590951447,189.59464022298746L205.84251606112738,109.79481524543648" style="fill: none;" fill="none"></path></g></g></g></g></g></g><g transform="translate(68, 177)" clip-path="url(#clip_1)"><clipPath id="clip_1"><rect width="261" height="22"></rect></clipPath><g><g><line x1="3.118270551437134" y1="0" x2="3.118270551437134" y2="5" style="visibility: inherit;" fill="rgb(0, 0, 0)" stroke="rgb(204, 204, 204)" stroke-width="1px"></line><line x1="30.76751298320067" y1="0" x2="30.76751298320067" y2="5" style="visibility: inherit;" fill="rgb(0, 0, 0)" stroke="rgb(204, 204, 204)" stroke-width="1px"></line><line x1="58.41675541496421" y1="0" x2="58.41675541496421" y2="5" style="visibility: inherit;" fill="rgb(0, 0, 0)" stroke="rgb(204, 204, 204)" stroke-width="1px"></line><line x1="86.06599784672774" y1="0" x2="86.06599784672774" y2="5" style="visibility: inherit;" fill="rgb(0, 0, 0)" stroke="rgb(204, 204, 204)" stroke-width="1px"></line><line x1="113.71524027849127" y1="0" x2="113.71524027849127" y2="5" style="visibility: inherit;" fill="rgb(0, 0, 0)" stroke="rgb(204, 204, 204)" stroke-width="1px"></line><line x1="141.36448271025483" y1="0" x2="141.36448271025483" y2="5" style="visibility: inherit;" fill="rgb(0, 0, 0)" stroke="rgb(204, 204, 204)" stroke-width="1px"></line><line x1="169.01372514201836" y1="0" x2="169.01372514201836" y2="5" style="visibility: inherit;" fill="rgb(0, 0, 0)" stroke="rgb(204, 204, 204)" stroke-width="1px"></line><line x1="196.66296757378188" y1="0" x2="196.66296757378188" y2="5" style="visibility: inherit;" fill="rgb(0, 0, 0)" stroke="rgb(204, 204, 204)" stroke-width="1px"></line><line x1="224.31221000554544" y1="0" x2="224.31221000554544" y2="5" style="visibility: inherit;" fill="rgb(0, 0, 0)" stroke="rgb(204, 204, 204)" stroke-width="1px"></line><line x1="251.961452437309" y1="0" x2="251.961452437309" y2="5" style="visibility: inherit;" fill="rgb(0, 0, 0)" stroke="rgb(204, 204, 204)" stroke-width="1px"></line></g><g transform="translate(0, 8)"><text x="3.118270551437134" y="0" dx="0em" dy="0.95em" style="text-anchor: middle; visibility: hidden; font-family: &quot;Helvetica Neue&quot;, sans-serif; font-size: 12px; font-weight: 200;" fill="rgb(50, 49, 63)" stroke="none" stroke-width="1px">-2k</text><text x="30.76751298320067" y="0" dx="0em" dy="0.95em" style="text-anchor: middle; visibility: inherit; font-family: &quot;Helvetica Neue&quot;, sans-serif; font-size: 12px; font-weight: 200;" fill="rgb(50, 49, 63)" stroke="none" stroke-width="1px">0</text><text x="58.41675541496421" y="0" dx="0em" dy="0.95em" style="text-anchor: middle; visibility: inherit; font-family: &quot;Helvetica Neue&quot;, sans-serif; font-size: 12px; font-weight: 200;" fill="rgb(50, 49, 63)" stroke="none" stroke-width="1px">2k</text><text x="86.06599784672774" y="0" dx="0em" dy="0.95em" style="text-anchor: middle; visibility: inherit; font-family: &quot;Helvetica Neue&quot;, sans-serif; font-size: 12px; font-weight: 200;" fill="rgb(50, 49, 63)" stroke="none" stroke-width="1px">4k</text><text x="113.71524027849127" y="0" dx="0em" dy="0.95em" style="text-anchor: middle; visibility: inherit; font-family: &quot;Helvetica Neue&quot;, sans-serif; font-size: 12px; font-weight: 200;" fill="rgb(50, 49, 63)" stroke="none" stroke-width="1px">6k</text><text x="141.36448271025483" y="0" dx="0em" dy="0.95em" style="text-anchor: middle; visibility: inherit; font-family: &quot;Helvetica Neue&quot;, sans-serif; font-size: 12px; font-weight: 200;" fill="rgb(50, 49, 63)" stroke="none" stroke-width="1px">8k</text><text x="169.01372514201836" y="0" dx="0em" dy="0.95em" style="text-anchor: middle; visibility: inherit; font-family: &quot;Helvetica Neue&quot;, sans-serif; font-size: 12px; font-weight: 200;" fill="rgb(50, 49, 63)" stroke="none" stroke-width="1px">10k</text><text x="196.66296757378188" y="0" dx="0em" dy="0.95em" style="text-anchor: middle; visibility: inherit; font-family: &quot;Helvetica Neue&quot;, sans-serif; font-size: 12px; font-weight: 200;" fill="rgb(50, 49, 63)" stroke="none" stroke-width="1px">12k</text><text x="224.31221000554544" y="0" dx="0em" dy="0.95em" style="text-anchor: middle; visibility: inherit; font-family: &quot;Helvetica Neue&quot;, sans-serif; font-size: 12px; font-weight: 200;" fill="rgb(50, 49, 63)" stroke="none" stroke-width="1px">14k</text><text x="251.961452437309" y="0" dx="0em" dy="0.95em" style="text-anchor: middle; visibility: inherit; font-family: &quot;Helvetica Neue&quot;, sans-serif; font-size: 12px; font-weight: 200;" fill="rgb(50, 49, 63)" stroke="none" stroke-width="1px">16k</text></g><line x1="0" y1="0" x2="261.6875" y2="0" fill="rgb(0, 0, 0)" stroke="rgb(204, 204, 204)" stroke-width="1px"></line></g></g></g></g></svg>