<svg viewBox="0 0 330 200" xmlns="http://www.w3.org/2000/svg"><g><g><g><g><g><line x1="58.59375" y1="177.828125" x2="53.59375" y2="177.828125" style="visibility: inherit;" fill="rgb(0, 0, 0)" stroke="rgb(204, 204, 204)" stroke-width="1px"></line><line x1="58.59375" y1="163.00911458333334" x2="53.59375" y2="163.00911458333334" style="visibility: inherit;" fill="rgb(0, 0, 0)" stroke="rgb(204, 204, 204)" stroke-width="1px"></line><line x1="58.59375" y1="148.19010416666666" x2="53.59375" y2="148.19010416666666" style="visibility: inherit;" fill="rgb(0, 0, 0)" stroke="rgb(204, 204, 204)" stroke-width="1px"></line><line x1="58.59375" y1="133.37109375" x2="53.59375" y2="133.37109375" style="visibility: inherit;" fill="rgb(0, 0, 0)" stroke="rgb(204, 204, 204)" stroke-width="1px"></line><line x1="58.59375" y1="118.55208333333334" x2="53.59375" y2="118.55208333333334" style="visibility: inherit;" fill="rgb(0, 0, 0)" stroke="rgb(204, 204, 204)" stroke-width="1px"></line><line x1="58.59375" y1="103.73307291666666" x2="53.59375" y2="103.73307291666666" style="visibility: inherit;" fill="rgb(0, 0, 0)" stroke="rgb(204, 204, 204)" stroke-width="1px"></line><line x1="58.59375" y1="88.9140625" x2="53.59375" y2="88.9140625" style="visibility: inherit;" fill="rgb(0, 0, 0)" stroke="rgb(204, 204, 204)" stroke-width="1px"></line><line x1="58.59375" y1="74.09505208333333" x2="53.59375" y2="74.09505208333333" style="visibility: inherit;" fill="rgb(0, 0, 0)" stroke="rgb(204, 204, 204)" stroke-width="1px"></line><line x1="58.59375" y1="59.27604166666667" x2="53.59375" y2="59.27604166666667" style="visibility: inherit;" fill="rgb(0, 0, 0)" stroke="rgb(204, 204, 204)" stroke-width="1px"></line><line x1="58.59375" y1="44.45703124999997" x2="53.59375" y2="44.45703124999997" style="visibility: inherit;" fill="rgb(0, 0, 0)" stroke="rgb(204, 204, 204)" stroke-width="1px"></line><line x1="58.59375" y1="29.63802083333337" x2="53.59375" y2="29.63802083333337" style="visibility: inherit;" fill="rgb(0, 0, 0)" stroke="rgb(204, 204, 204)" stroke-width="1px"></line><line x1="58.59375" y1="14.819010416666686" x2="53.59375" y2="14.819010416666686" style="visibility: inherit;" fill="rgb(0, 0, 0)" stroke="rgb(204, 204, 204)" stroke-width="1px"></line><line x1="58.59375" y1="0" x2="53.59375" y2="0" style="visibility: inherit;" fill="rgb(0, 0, 0)" stroke="rgb(204, 204, 204)" stroke-width="1px"></line></g><g transform="translate(48.59375, 0)"><text x="0" y="177.828125" dx="0em" dy="0.3em" style="text-anchor: end; visibility: hidden; font-family: &quot;Helvetica Neue&quot;, sans-serif; font-size: 12px; font-weight: 200;" fill="rgb(50, 49, 63)" stroke="none" stroke-width="1px">-2e-3</text><text x="0" y="163.00911458333334" dx="0em" dy="0.3em" style="text-anchor: end; visibility: inherit; font-family: &quot;Helvetica Neue&quot;, sans-serif; font-size: 12px; font-weight: 200;" fill="rgb(50, 49, 63)" stroke="none" stroke-width="1px">0</text><text x="0" y="148.19010416666666" dx="0em" dy="0.3em" style="text-anchor: end; visibility: hidden; font-family: &quot;Helvetica Neue&quot;, sans-serif; font-size: 12px; font-weight: 200;" fill="rgb(50, 49, 63)" stroke="none" stroke-width="1px">2e-3</text><text x="0" y="133.37109375" dx="0em" dy="0.3em" style="text-anchor: end; visibility: inherit; font-family: &quot;Helvetica Neue&quot;, sans-serif; font-size: 12px; font-weight: 200;" fill="rgb(50, 49, 63)" stroke="none" stroke-width="1px">4e-3</text><text x="0" y="118.55208333333334" dx="0em" dy="0.3em" style="text-anchor: end; visibility: hidden; font-family: &quot;Helvetica Neue&quot;, sans-serif; font-size: 12px; font-weight: 200;" fill="rgb(50, 49, 63)" stroke="none" stroke-width="1px">6e-3</text><text x="0" y="103.73307291666666" dx="0em" dy="0.3em" style="text-anchor: end; visibility: inherit; font-family: &quot;Helvetica Neue&quot;, sans-serif; font-size: 12px; font-weight: 200;" fill="rgb(50, 49, 63)" stroke="none" stroke-width="1px">8e-3</text><text x="0" y="88.9140625" dx="0em" dy="0.3em" style="text-anchor: end; visibility: hidden; font-family: &quot;Helvetica Neue&quot;, sans-serif; font-size: 12px; font-weight: 200;" fill="rgb(50, 49, 63)" stroke="none" stroke-width="1px">0.01</text><text x="0" y="74.09505208333333" dx="0em" dy="0.3em" style="text-anchor: end; visibility: inherit; font-family: &quot;Helvetica Neue&quot;, sans-serif; font-size: 12px; font-weight: 200;" fill="rgb(50, 49, 63)" stroke="none" stroke-width="1px">0.012</text><text x="0" y="59.27604166666667" dx="0em" dy="0.3em" style="text-anchor: end; visibility: hidden; font-family: &quot;Helvetica Neue&quot;, sans-serif; font-size: 12px; font-weight: 200;" fill="rgb(50, 49, 63)" stroke="none" stroke-width="1px">0.014</text><text x="0" y="44.45703124999997" dx="0em" dy="0.3em" style="text-anchor: end; visibility: inherit; font-family: &quot;Helvetica Neue&quot;, sans-serif; font-size: 12px; font-weight: 200;" fill="rgb(50, 49, 63)" stroke="none" stroke-width="1px">0.016</text><text x="0" y="29.63802083333337" dx="0em" dy="0.3em" style="text-anchor: end; visibility: hidden; font-family: &quot;Helvetica Neue&quot;, sans-serif; font-size: 12px; font-weight: 200;" fill="rgb(50, 49, 63)" stroke="none" stroke-width="1px">0.018</text><text x="0" y="14.819010416666686" dx="0em" dy="0.3em" style="text-anchor: end; visibility: inherit; font-family: &quot;Helvetica Neue&quot;, sans-serif; font-size: 12px; font-weight: 200;" fill="rgb(50, 49, 63)" stroke="none" stroke-width="1px">0.02</text><text x="0" y="0" dx="0em" dy="0.3em" style="text-anchor: end; visibility: hidden; font-family: &quot;Helvetica Neue&quot;, sans-serif; font-size: 12px; font-weight: 200;" fill="rgb(50, 49, 63)" stroke="none" stroke-width="1px">0.022</text></g><line x1="58.59375" y1="0" x2="58.59375" y2="177.828125" fill="rgb(0, 0, 0)" stroke="rgb(204, 204, 204)" stroke-width="1px"></line></g></g><g transform="translate(58, 0)" clip-path="url(#clip_0)"><clipPath id="clip_0"><rect width="271" height="177"></rect></clipPath><g><g><g><line x1="0" y1="0" x2="0" y2="177.828125" fill="rgb(0, 0, 0)" stroke="rgb(60, 60, 60)" stroke-width="1px" opacity="0.25"></line><line x1="22.6171875" y1="0" x2="22.6171875" y2="177.828125" fill="rgb(0, 0, 0)" stroke="rgb(60, 60, 60)" stroke-width="1px" opacity="0.25"></line><line x1="45.234375" y1="0" x2="45.234375" y2="177.828125" fill="rgb(0, 0, 0)" stroke="rgb(60, 60, 60)" stroke-width="1px" opacity="0.25"></line><line x1="67.8515625" y1="0" x2="67.8515625" y2="177.828125" fill="rgb(0, 0, 0)" stroke="rgb(60, 60, 60)" stroke-width="1px" opacity="0.25"></line><line x1="90.46875" y1="0" x2="90.46875" y2="177.828125" fill="rgb(0, 0, 0)" stroke="rgb(60, 60, 60)" stroke-width="1px" opacity="0.25"></line><line x1="113.0859375" y1="0" x2="113.0859375" y2="177.828125" fill="rgb(0, 0, 0)" stroke="rgb(60, 60, 60)" stroke-width="1px" opacity="0.25"></line><line x1="135.703125" y1="0" x2="135.703125" y2="177.828125" fill="rgb(0, 0, 0)" stroke="rgb(60, 60, 60)" stroke-width="1px" opacity="0.25"></line><line x1="158.3203125" y1="0" x2="158.3203125" y2="177.828125" fill="rgb(0, 0, 0)" stroke="rgb(60, 60, 60)" stroke-width="1px" opacity="0.25"></line><line x1="180.9375" y1="0" x2="180.9375" y2="177.828125" fill="rgb(0, 0, 0)" stroke="rgb(60, 60, 60)" stroke-width="1px" opacity="0.25"></line><line x1="203.5546875" y1="0" x2="203.5546875" y2="177.828125" fill="rgb(0, 0, 0)" stroke="rgb(60, 60, 60)" stroke-width="1px" opacity="0.25"></line><line x1="226.171875" y1="0" x2="226.171875" y2="177.828125" fill="rgb(0, 0, 0)" stroke="rgb(60, 60, 60)" stroke-width="1px" opacity="0.25"></line><line x1="248.7890625" y1="0" x2="248.7890625" y2="177.828125" fill="rgb(0, 0, 0)" stroke="rgb(60, 60, 60)" stroke-width="1px" opacity="0.25"></line><line x1="271.40625" y1="0" x2="271.40625" y2="177.828125" fill="rgb(0, 0, 0)" stroke="rgb(60, 60, 60)" stroke-width="1px" opacity="0.25"></line></g><g><line x1="0" y1="177.828125" x2="271.40625" y2="177.828125" fill="rgb(0, 0, 0)" stroke="rgb(60, 60, 60)" stroke-width="1px" opacity="0.25"></line><line x1="0" y1="163.00911458333334" x2="271.40625" y2="163.00911458333334" fill="rgb(0, 0, 0)" stroke="rgb(60, 60, 60)" stroke-width="1px" opacity="0.25"></line><line x1="0" y1="148.19010416666666" x2="271.40625" y2="148.19010416666666" fill="rgb(0, 0, 0)" stroke="rgb(60, 60, 60)" stroke-width="1px" opacity="0.25"></line><line x1="0" y1="133.37109375" x2="271.40625" y2="133.37109375" fill="rgb(0, 0, 0)" stroke="rgb(60, 60, 60)" stroke-width="1px" opacity="0.25"></line><line x1="0" y1="118.55208333333334" x2="271.40625" y2="118.55208333333334" fill="rgb(0, 0, 0)" stroke="rgb(60, 60, 60)" stroke-width="1px" opacity="0.25"></line><line x1="0" y1="103.73307291666666" x2="271.40625" y2="103.73307291666666" fill="rgb(0, 0, 0)" stroke="rgb(60, 60, 60)" stroke-width="1px" opacity="0.25"></line><line x1="0" y1="88.9140625" x2="271.40625" y2="88.9140625" fill="rgb(0, 0, 0)" stroke="rgb(60, 60, 60)" stroke-width="1px" opacity="0.25"></line><line x1="0" y1="74.09505208333333" x2="271.40625" y2="74.09505208333333" fill="rgb(0, 0, 0)" stroke="rgb(60, 60, 60)" stroke-width="1px" opacity="0.25"></line><line x1="0" y1="59.27604166666667" x2="271.40625" y2="59.27604166666667" fill="rgb(0, 0, 0)" stroke="rgb(60, 60, 60)" stroke-width="1px" opacity="0.25"></line><line x1="0" y1="44.45703124999997" x2="271.40625" y2="44.45703124999997" fill="rgb(0, 0, 0)" stroke="rgb(60, 60, 60)" stroke-width="1px" opacity="0.25"></line><line x1="0" y1="29.63802083333337" x2="271.40625" y2="29.63802083333337" fill="rgb(0, 0, 0)" stroke="rgb(60, 60, 60)" stroke-width="1px" opacity="0.25"></line><line x1="0" y1="14.819010416666686" x2="271.40625" y2="14.819010416666686" fill="rgb(0, 0, 0)" stroke="rgb(60, 60, 60)" stroke-width="1px" opacity="0.25"></line><line x1="0" y1="0" x2="271.40625" y2="0" fill="rgb(0, 0, 0)" stroke="rgb(60, 60, 60)" stroke-width="1px" opacity="0.25"></line></g></g></g><g><g><line x1="0" y1="163.00911458333334" x2="271.40625" y2="163.00911458333334" fill="rgb(0, 0, 0)" stroke="rgb(153, 153, 153)" stroke-width="1.5px"></line></g></g><g><g><line x1="22.6171875" y1="0" x2="22.6171875" y2="177.828125" fill="rgb(0, 0, 0)" stroke="rgb(153, 153, 153)" stroke-width="1.5px"></line></g></g><g><g><g><g><g><path stroke="rgb(255, 112, 67)" stroke-width="2px" d="M35.3054296875,-4.480289474509732L36.210117187499996,7.5974179323397095L37.114804687500005,19.471601913658674L38.0194921875,31.591715463343377L38.9241796875,43.525152069678654L39.828867187499995,45.11217281870984L40.7335546875,50.652540766077834L41.638242187500005,51.96672731950895L42.5429296875,58.00324165599724L43.4476171875,64.34074784169886L44.352304687499995,60.182610700492276L45.2569921875,68.85300130976081L46.1616796875,72.09047432169835L47.0663671875,77.13406445743915L47.9710546875,83.28162921565554L48.8757421875,86.40586902994207L49.7804296875,82.1481107846202L50.6851171875,53.715945813835674L51.5898046875,65.20964367216664L52.49449218749999,73.5125677815191L53.3991796875,79.35183810594279L54.3038671875,83.39972573157883L55.2085546875,86.36873724953793L56.1132421875,90.11438278634792L57.0179296875,92.65265689159753L57.9226171875,96.63649983700459L58.827304687499996,95.63097957998482L59.7319921875,95.31587252753894L60.636679687500006,95.90673846023716L61.5413671875,96.05511119073743L62.4460546875,98.0062664960778L63.350742187499996,95.76356695520367L64.2554296875,99.67994354674897L65.1601171875,103.69701299792865L66.0648046875,104.10079022898893L66.9694921875,104.75628920966462L67.8741796875,105.61026989388286L68.7788671875,105.04060313996263L69.68355468749999,106.03270199434938L70.5882421875,102.26261517936466L71.49292968750001,105.25330177106478L72.3976171875,106.57086883341171L73.3023046875,108.26991480953822L74.20699218749999,110.48230871309667L75.1116796875,111.86228035329948L76.01636718750001,113.89904493286402L76.92105468749999,114.66973159899521L77.8257421875,114.76141804791777L78.7304296875,111.42835271329389L79.6351171875,113.19152483473779L80.53980468750001,113.64454425060754L81.44449218749999,115.74762483158L82.3491796875,115.21583543910313L83.2538671875,115.04010316081612L84.1585546875,116.73159479673754L85.06324218750001,112.79705897004084L85.96792968749999,115.4978369237977L86.8726171875,116.83712535302983L87.7773046875,113.57190368476358L88.6819921875,117.00111384300357L89.5866796875,119.48187539846705L90.49136718749999,118.41140598927782L91.3960546875,120.19248700294308L92.3007421875,120.43155025973411L93.2054296875,121.66619499266194L94.1101171875,123.27887965357887L95.0148046875,124.03105590196132L95.9194921875,123.52581865407357L96.8241796875,124.65314981087879L97.7288671875,124.175577997066L98.6335546875,122.80939594202756L99.5382421875,123.36421321192108L100.4429296875,123.26464775370896L101.3476171875,123.38990979258944L102.25230468749999,123.21527414907345L103.1569921875,124.38924702032338L104.0616796875,121.93056038193546L104.9663671875,124.2077576784602L105.8710546875,123.74803468382072L106.7757421875,124.71305275177974L107.6804296875,125.75404380092364L108.5851171875,125.21254992793907L109.4898046875,123.14298410888318L110.3944921875,124.59766694866728L111.2991796875,123.99243156212245L112.2038671875,125.46925953421541L113.1085546875,121.4335564509534L114.0132421875,122.07362829143861L114.91792968749999,123.66041952764354L115.8226171875,123.75040809327541L116.7273046875,124.37325325049451L117.6319921875,125.5799999255415L118.53667968750001,128.50890454614856L119.44136718749999,130.04629929274492L120.3460546875,132.11607774873187L121.2507421875,131.7231496344275L122.1554296875,130.77198009075835L123.06011718750001,130.73404635995024L123.96480468749999,129.77961640853502L124.8694921875,128.84837139978242L125.7741796875,129.90866867743014L126.6788671875,129.83213158154604L127.58355468750001,130.2249338357519L128.4882421875,130.836357172321L129.39292968750001,124.53573339541171L130.29761718749998,125.9992085181227L131.2023046875,128.21597225272876L132.1069921875,128.76326962371843L133.0116796875,128.1713700137115L133.91636718750001,129.2905183240166L134.8210546875,131.2285187212822L135.7257421875,131.0380740047244L136.6304296875,130.45010057964302L137.53511718750002,129.74457742207272L138.4398046875,130.42711447281303L139.34449218749998,132.33787634386863L140.2491796875,132.90657132460763L141.1538671875,130.75901257897542L142.0585546875,131.46677232136284L142.96324218750001,132.52137070254884L143.8679296875,133.6161477800512L144.7726171875,132.5758320409116L145.6773046875,133.8531365898783L146.58199218750002,130.87339786141445L147.4866796875,132.06842288859752L148.39136718749998,131.4972032655071L149.2960546875,132.27668725443314L150.2007421875,133.12668064545161L151.1054296875,133.86178283273426L152.01011718750001,132.94598407619864L152.9148046875,132.7075000631629L153.8194921875,133.4549217493021L154.72417968750003,134.05977966095435L155.6288671875,135.19832159085453L156.5335546875,135.26563175297633L157.43824218749998,134.79375384661142L158.3429296875,135.77234172603494L159.2476171875,135.64590435692185L160.1523046875,136.61057656182973L161.05699218750001,136.7981323206226L161.9616796875,136.48039759447823L162.8663671875,135.61948794826407L163.77105468750003,136.6700872082687L164.6757421875,136.40998618289248L165.5804296875,130.44962541593614L166.4851171875,128.08817133294244L167.3898046875,129.6587673955267L168.2944921875,128.81137637687763L169.1991796875,131.14508167626263L170.10386718750001,131.12676981303935L171.0085546875,132.96572664932668L171.9132421875,127.67054472358657L172.8179296875,129.79020967050286L173.7226171875,132.47098981469256L174.6273046875,133.623928857554L175.5319921875,134.6740737749733L176.4366796875,135.55939732009142L177.3413671875,136.4682802028677L178.2460546875,137.41891453729423L179.15074218750001,138.30420320806454L180.0554296875,138.45619695279095L180.96011718749997,138.87113620626707L181.8648046875,138.686032039627L182.7694921875,139.02161309893262L183.6741796875,138.88655466381692L184.5788671875,138.63451415319415L185.4835546875,138.69917216121345L186.3882421875,139.94184384071335L187.29292968750002,140.90384469089784L188.19761718750001,140.7963280986844L189.10230468749998,140.67523315223303L190.00699218749997,141.23530867413626L190.9116796875,140.14694042364286L191.8163671875,140.7762856749102L192.7210546875,139.9797661780064L193.6257421875,140.66669100670237L194.5304296875,141.06592693012638L195.4351171875,140.67848601474248L196.33980468750002,139.41844321024084L197.24449218750001,139.660238419334L198.14917968749998,139.98961030514357L199.0538671875,139.06790930548215L199.9585546875,139.74655232128495L200.8632421875,140.63138740501486L201.7679296875,140.35087274930748L202.6726171875,140.73669260408295L203.5773046875,140.6016489289501L204.4819921875,140.1290556758756L205.38667968750002,141.2793362675946L206.2913671875,137.21859245902868L207.19605468749998,135.79134294062976L208.1007421875,137.46700407192037L209.0054296875,138.2382408889139L209.9101171875,136.71480627612107L210.81480468750001,138.1943037963455L211.7194921875,138.89674447524084L212.6241796875,138.1489007084509L213.5288671875,137.8407964862623L214.43355468750002,137.99948538620774L215.3382421875,139.03214043479366L216.24292968749998,138.47573857453L217.1476171875,137.6831354148224L218.0523046875,138.6600701089013L218.9569921875,140.15361806493357L219.86167968750001,141.0928896495851L220.7663671875,141.51269088181132L221.6710546875,141.6556722153423L222.57574218750003,142.14863860309845L223.4804296875,142.5414872871712L224.3851171875,141.3888013981495L225.28980468749998,141.2138946410853L226.1944921875,141.67691381214308L227.0991796875,141.31068234563986L228.0038671875,141.48881209111812L228.90855468750001,141.2228728147287L229.8132421875,141.52258560810853L230.7179296875,141.77865189037274L231.62261718750003,142.2301694894942L232.5273046875,142.0216475729468L233.4319921875,141.75728300079174L234.3366796875,142.00364578696545L235.2413671875,138.80974643930637L236.1460546875,139.9444204122914L237.0507421875,140.604722610557L237.95542968750001,140.52701849085423L238.8601171875,141.2033168631109L239.7648046875,141.5853080023964L240.6694921875,141.75264557070483L241.5741796875,140.86110348495413L242.4788671875,140.6470944847733L243.3835546875,141.98106220424526L244.2882421875,142.60159291835888L245.1929296875,142.6518666131357L246.0976171875,143.20253756450035L247.00230468750001,143.3947319803814L247.9069921875,142.73494670288673" style="fill: none;" fill="none"></path></g></g></g></g><g opacity="0.20000000298023224"><g><g><g><path stroke="rgb(255, 112, 67)" stroke-width="2px" d="M31.686679687500003,-16.417200063025433L32.5913671875,51.7434867395835L33.4960546875,42.89386516439842L34.4007421875,57.60396521737856L35.3054296875,70.79136326487544L36.210117187499996,53.43884274453738L37.114804687500005,64.8552744804377L38.0194921875,78.1713763546383L38.9241796875,89.58829803594077L39.828867187499995,51.259379278397915L40.7335546875,72.17199490500691L41.638242187500005,57.08238728388581L42.5429296875,81.54224902607773L43.4476171875,89.08776705282312L44.352304687499995,43.92776037321889L45.2569921875,102.77682088767082L46.1616796875,84.7663036922119L47.0663671875,96.89248689923747L47.9710546875,107.3756105975117L48.8757421875,98.65495162301036L49.7804296875,65.45017860890948L50.6851171875,-57.81341856056437L51.5898046875,110.30344496355488L52.49449218749999,106.0924953440117L53.3991796875,102.26721556365374L54.3038671875,99.28651884897167L55.2085546875,98.0220939774687L56.1132421875,104.8168707346534L57.0179296875,102.61640172197562L57.9226171875,112.27525438684583L58.827304687499996,91.68364960761392L59.7319921875,94.07884086477861L60.636679687500006,98.22637360761777L61.5413671875,96.63760487987506L62.4460546875,105.66636015499049L63.350742187499996,86.95880936694448L64.2554296875,115.05561173651463L65.1601171875,119.46809453169894L66.0648046875,105.68603387811163L66.9694921875,107.32981105336754L67.8741796875,108.96305095215698L68.7788671875,102.80405081100858L69.68355468749999,109.92776034967878L70.5882421875,87.46093439777906L71.49292968750001,116.99500540590816L72.3976171875,111.74376023443861L73.3023046875,114.94053322243903L74.20699218749999,119.16838595835725L75.1116796875,117.28018813317127L76.01636718750001,121.89559113252957L76.92105468749999,117.69552727174596L77.8257421875,115.12138863191649L78.7304296875,98.34238715834121L79.6351171875,120.11392537943902L80.53980468750001,115.42314669517995L81.44449218749999,124.00454386459265L82.3491796875,113.12797330645358L83.2538671875,114.3501593637775L84.1585546875,123.37257295122254L85.06324218750001,97.34964736330343L85.96792968749999,126.101382524071L86.8726171875,122.09531634063023L87.7773046875,100.75229057885008L88.6819921875,130.4645637005815L89.5866796875,129.22161361910062L90.49136718749999,114.20862724830417L91.3960546875,127.18520385943702L92.3007421875,121.37013848997594L93.2054296875,126.513543918171L94.1101171875,129.61045430212107L95.0148046875,126.9841813311165L95.9194921875,121.54220248477213L96.8241796875,129.07917406953734L97.7288671875,122.30057931190336L98.6335546875,117.44561716311969L99.5382421875,125.54248593233933L100.4429296875,122.87374297573356L101.3476171875,123.88170213111638L102.25230468749999,122.52963568805959L103.1569921875,128.99839173361397L104.0616796875,112.27749019403322L104.9663671875,133.14828104483118L105.8710546875,121.9431123862208L106.7757421875,128.5018182672308L107.6804296875,129.84108747439555L108.5851171875,123.08658629946149L109.4898046875,115.01764441816582L110.3944921875,130.30890942643842L111.2991796875,121.61621184305841L112.2038671875,131.26744620195677L113.1085546875,105.58894878144687L114.0132421875,124.5866197042948L114.91792968749999,129.8903338879536L115.8226171875,124.10371295437653L116.7273046875,126.81861083805902L117.6319921875,130.31781815199065L118.53667968750001,140.00810150447433L119.44136718749999,136.08227768191864L120.3460546875,140.24225227771723L121.2507421875,130.1804712743542L122.1554296875,127.03758537995358L123.06011718750001,130.58511442175464L123.96480468749999,126.032420983555L124.8694921875,125.19220257234215L125.7741796875,134.07151069851534L126.6788671875,129.53163864844586L127.58355468750001,131.76711805546074L128.4882421875,133.23687145431177L129.39292968750001,99.79880162110203L130.29761718749998,131.7449704530906L131.2023046875,136.91922691518386L132.1069921875,130.91201841523676L133.0116796875,125.8475079980708L133.91636718750001,133.68441587728012L134.8210546875,138.837318310542L135.7257421875,130.29036740818992L136.6304296875,128.14165319151653L137.53511718750002,126.97461704481489L138.4398046875,133.10682890355142L139.34449218749998,139.8397345272727L140.2491796875,135.13932945095684L141.1538671875,122.3274642032678L142.0585546875,134.24551377300185L142.96324218750001,136.66183823853498L143.8679296875,137.9143612321168L144.7726171875,128.49143970547206L145.6773046875,138.8679726762154L146.58199218750002,119.1746206861159L147.4866796875,136.76022065541957L148.39136718749998,129.25453311967917L149.2960546875,135.3370258710541L150.2007421875,136.46384681610044L151.1054296875,136.74787368625283L152.01011718750001,129.35045890891342L152.9148046875,131.7711859824267L153.8194921875,136.38938029044948L154.72417968750003,136.43451737320476L155.6288671875,139.66836059642327L156.5335546875,135.5298987441638L157.43824218749998,132.94111004674537L158.3429296875,139.6143837945104L159.2476171875,135.1494975432118L160.1523046875,140.39798418405434L161.05699218750001,137.53449655588338L161.9616796875,135.23293662533007L162.8663671875,132.2394633766744L163.77105468750003,140.79485376109488L164.6757421875,135.38880136897689L165.5804296875,107.04860309443757L166.4851171875,118.81684668197704L167.3898046875,135.82509774961363L168.2944921875,125.48442740218161L169.1991796875,140.3074615955229L170.10386718750001,131.05487545348782L171.0085546875,140.18567048440553L171.9132421875,106.88108662105029L172.8179296875,138.11224396947972L173.7226171875,142.99602318867863L174.6273046875,138.1504924888868L175.5319921875,138.79705652957028L176.4366796875,139.03527350461928L177.3413671875,140.0366529002701L178.2460546875,141.1512079586634L179.15074218750001,141.77994247212337L180.0554296875,139.05294086681533L180.96011718749997,140.50023268420045L181.8648046875,137.95929302084795L182.7694921875,140.3391407061572L183.6741796875,138.35630061067786L184.5788671875,137.6449757937541L185.4835546875,138.953026507969L186.3882421875,144.820707528208L187.29292968750002,144.68076428497199L188.19761718750001,140.37420630561002L189.10230468749998,140.19980126887458L190.00699218749997,143.4342258709682L190.9116796875,135.87388872096682L191.8163671875,143.24716333628993L192.7210546875,136.85254431085195L193.6257421875,143.3636323292182L194.5304296875,142.63337043243638L195.4351171875,139.1573509922746L196.33980468750002,134.47137860340445L197.24449218750001,140.60955261464068L198.14917968749998,141.2827600243072L199.0538671875,135.4492112920331L199.9585546875,142.41097834884567L200.8632421875,144.1053458371959L201.7679296875,139.2495418103972L202.6726171875,142.2514631669207L203.5773046875,140.07145282510345L204.4819921875,138.2736033473023L205.38667968750002,145.79546253163426L206.2913671875,121.27567218598901L207.19605468749998,130.1878066541079L208.1007421875,144.04583127211055L209.0054296875,141.26620021474565L209.9101171875,130.7336368850083L210.81480468750001,144.00297140037947L211.7194921875,141.65460270715994L212.6241796875,135.21278503292586L213.5288671875,136.63114591934453L214.43355468750002,138.6225152052054L215.3382421875,143.08645606889695L216.24292968749998,136.2912445714258L217.1476171875,134.57128951193107L218.0523046875,142.495621592551L218.9569921875,146.01744920265628L219.86167968750001,144.7805716839066L220.7663671875,143.1608760152315L221.6710546875,142.21703242629883L222.57574218750003,144.0840780663578L223.4804296875,144.08385379557512L224.3851171875,136.86323167622686L225.28980468749998,140.52719175743914L226.1944921875,143.49477725713342L227.0991796875,139.8728179180386L228.0038671875,142.18816877656718L228.90855468750001,140.17876639461855L229.8132421875,142.69929051610717L230.7179296875,142.7839958655677L231.62261718750003,144.0028765165868L232.5273046875,141.2029679301474L233.4319921875,140.71935904016328L234.3366796875,142.97089278489875L235.2413671875,126.27015146352156L236.1460546875,144.39927339982387L237.0507421875,143.19714060079178L237.95542968750001,140.2219436957651L238.8601171875,143.85853756601017L239.7648046875,143.08504661328578L240.6694921875,142.4096309989897L241.5741796875,137.36081263597225L242.4788671875,139.80687195696981L243.3835546875,147.2183640388224L244.2882421875,145.03786375160297L245.1929296875,142.8492465872102L246.0976171875,145.36453139818332L247.00230468750001,144.14930808608187L247.9069921875,140.1445581996195" style="fill: none;" fill="none"></path></g></g></g></g></g></g><g transform="translate(58, 177)" clip-path="url(#clip_1)"><clipPath id="clip_1"><rect width="271" height="22"></rect></clipPath><g><g><line x1="0" y1="0" x2="0" y2="5" style="visibility: inherit;" fill="rgb(0, 0, 0)" stroke="rgb(204, 204, 204)" stroke-width="1px"></line><line x1="22.6171875" y1="0" x2="22.6171875" y2="5" style="visibility: inherit;" fill="rgb(0, 0, 0)" stroke="rgb(204, 204, 204)" stroke-width="1px"></line><line x1="45.234375" y1="0" x2="45.234375" y2="5" style="visibility: inherit;" fill="rgb(0, 0, 0)" stroke="rgb(204, 204, 204)" stroke-width="1px"></line><line x1="67.8515625" y1="0" x2="67.8515625" y2="5" style="visibility: inherit;" fill="rgb(0, 0, 0)" stroke="rgb(204, 204, 204)" stroke-width="1px"></line><line x1="90.46875" y1="0" x2="90.46875" y2="5" style="visibility: inherit;" fill="rgb(0, 0, 0)" stroke="rgb(204, 204, 204)" stroke-width="1px"></line><line x1="113.0859375" y1="0" x2="113.0859375" y2="5" style="visibility: inherit;" fill="rgb(0, 0, 0)" stroke="rgb(204, 204, 204)" stroke-width="1px"></line><line x1="135.703125" y1="0" x2="135.703125" y2="5" style="visibility: inherit;" fill="rgb(0, 0, 0)" stroke="rgb(204, 204, 204)" stroke-width="1px"></line><line x1="158.3203125" y1="0" x2="158.3203125" y2="5" style="visibility: inherit;" fill="rgb(0, 0, 0)" stroke="rgb(204, 204, 204)" stroke-width="1px"></line><line x1="180.9375" y1="0" x2="180.9375" y2="5" style="visibility: inherit;" fill="rgb(0, 0, 0)" stroke="rgb(204, 204, 204)" stroke-width="1px"></line><line x1="203.5546875" y1="0" x2="203.5546875" y2="5" style="visibility: inherit;" fill="rgb(0, 0, 0)" stroke="rgb(204, 204, 204)" stroke-width="1px"></line><line x1="226.171875" y1="0" x2="226.171875" y2="5" style="visibility: inherit;" fill="rgb(0, 0, 0)" stroke="rgb(204, 204, 204)" stroke-width="1px"></line><line x1="248.7890625" y1="0" x2="248.7890625" y2="5" style="visibility: inherit;" fill="rgb(0, 0, 0)" stroke="rgb(204, 204, 204)" stroke-width="1px"></line><line x1="271.40625" y1="0" x2="271.40625" y2="5" style="visibility: inherit;" fill="rgb(0, 0, 0)" stroke="rgb(204, 204, 204)" stroke-width="1px"></line></g><g transform="translate(0, 8)"><text x="0" y="0" dx="0em" dy="0.95em" style="text-anchor: middle; visibility: hidden; font-family: &quot;Helvetica Neue&quot;, sans-serif; font-size: 12px; font-weight: 200;" fill="rgb(50, 49, 63)" stroke="none" stroke-width="1px">-1k</text><text x="22.6171875" y="0" dx="0em" dy="0.95em" style="text-anchor: middle; visibility: inherit; font-family: &quot;Helvetica Neue&quot;, sans-serif; font-size: 12px; font-weight: 200;" fill="rgb(50, 49, 63)" stroke="none" stroke-width="1px">0</text><text x="45.234375" y="0" dx="0em" dy="0.95em" style="text-anchor: middle; visibility: inherit; font-family: &quot;Helvetica Neue&quot;, sans-serif; font-size: 12px; font-weight: 200;" fill="rgb(50, 49, 63)" stroke="none" stroke-width="1px">1k</text><text x="67.8515625" y="0" dx="0em" dy="0.95em" style="text-anchor: middle; visibility: inherit; font-family: &quot;Helvetica Neue&quot;, sans-serif; font-size: 12px; font-weight: 200;" fill="rgb(50, 49, 63)" stroke="none" stroke-width="1px">2k</text><text x="90.46875" y="0" dx="0em" dy="0.95em" style="text-anchor: middle; visibility: inherit; font-family: &quot;Helvetica Neue&quot;, sans-serif; font-size: 12px; font-weight: 200;" fill="rgb(50, 49, 63)" stroke="none" stroke-width="1px">3k</text><text x="113.0859375" y="0" dx="0em" dy="0.95em" style="text-anchor: middle; visibility: inherit; font-family: &quot;Helvetica Neue&quot;, sans-serif; font-size: 12px; font-weight: 200;" fill="rgb(50, 49, 63)" stroke="none" stroke-width="1px">4k</text><text x="135.703125" y="0" dx="0em" dy="0.95em" style="text-anchor: middle; visibility: inherit; font-family: &quot;Helvetica Neue&quot;, sans-serif; font-size: 12px; font-weight: 200;" fill="rgb(50, 49, 63)" stroke="none" stroke-width="1px">5k</text><text x="158.3203125" y="0" dx="0em" dy="0.95em" style="text-anchor: middle; visibility: inherit; font-family: &quot;Helvetica Neue&quot;, sans-serif; font-size: 12px; font-weight: 200;" fill="rgb(50, 49, 63)" stroke="none" stroke-width="1px">6k</text><text x="180.9375" y="0" dx="0em" dy="0.95em" style="text-anchor: middle; visibility: inherit; font-family: &quot;Helvetica Neue&quot;, sans-serif; font-size: 12px; font-weight: 200;" fill="rgb(50, 49, 63)" stroke="none" stroke-width="1px">7k</text><text x="203.5546875" y="0" dx="0em" dy="0.95em" style="text-anchor: middle; visibility: inherit; font-family: &quot;Helvetica Neue&quot;, sans-serif; font-size: 12px; font-weight: 200;" fill="rgb(50, 49, 63)" stroke="none" stroke-width="1px">8k</text><text x="226.171875" y="0" dx="0em" dy="0.95em" style="text-anchor: middle; visibility: inherit; font-family: &quot;Helvetica Neue&quot;, sans-serif; font-size: 12px; font-weight: 200;" fill="rgb(50, 49, 63)" stroke="none" stroke-width="1px">9k</text><text x="248.7890625" y="0" dx="0em" dy="0.95em" style="text-anchor: middle; visibility: inherit; font-family: &quot;Helvetica Neue&quot;, sans-serif; font-size: 12px; font-weight: 200;" fill="rgb(50, 49, 63)" stroke="none" stroke-width="1px">10k</text><text x="271.40625" y="0" dx="0em" dy="0.95em" style="text-anchor: middle; visibility: hidden; font-family: &quot;Helvetica Neue&quot;, sans-serif; font-size: 12px; font-weight: 200;" fill="rgb(50, 49, 63)" stroke="none" stroke-width="1px">11k</text></g><line x1="0" y1="0" x2="271.40625" y2="0" fill="rgb(0, 0, 0)" stroke="rgb(204, 204, 204)" stroke-width="1px"></line></g></g></g></g></svg>