<svg viewBox="0 0 1029 400" xmlns="http://www.w3.org/2000/svg"><g><g><g><g><g><line x1="68.3125" y1="377.828125" x2="63.3125" y2="377.828125" style="visibility: inherit;" fill="rgb(0, 0, 0)" stroke="rgb(204, 204, 204)" stroke-width="1px"></line><line x1="68.3125" y1="348.7644230769231" x2="63.3125" y2="348.7644230769231" style="visibility: inherit;" fill="rgb(0, 0, 0)" stroke="rgb(204, 204, 204)" stroke-width="1px"></line><line x1="68.3125" y1="319.70072115384613" x2="63.3125" y2="319.70072115384613" style="visibility: inherit;" fill="rgb(0, 0, 0)" stroke="rgb(204, 204, 204)" stroke-width="1px"></line><line x1="68.3125" y1="290.63701923076917" x2="63.3125" y2="290.63701923076917" style="visibility: inherit;" fill="rgb(0, 0, 0)" stroke="rgb(204, 204, 204)" stroke-width="1px"></line><line x1="68.3125" y1="261.57331730769226" x2="63.3125" y2="261.57331730769226" style="visibility: inherit;" fill="rgb(0, 0, 0)" stroke="rgb(204, 204, 204)" stroke-width="1px"></line><line x1="68.3125" y1="232.5096153846153" x2="63.3125" y2="232.5096153846153" style="visibility: inherit;" fill="rgb(0, 0, 0)" stroke="rgb(204, 204, 204)" stroke-width="1px"></line><line x1="68.3125" y1="203.4459134615384" x2="63.3125" y2="203.4459134615384" style="visibility: inherit;" fill="rgb(0, 0, 0)" stroke="rgb(204, 204, 204)" stroke-width="1px"></line><line x1="68.3125" y1="174.38221153846146" x2="63.3125" y2="174.38221153846146" style="visibility: inherit;" fill="rgb(0, 0, 0)" stroke="rgb(204, 204, 204)" stroke-width="1px"></line><line x1="68.3125" y1="145.31850961538453" x2="63.3125" y2="145.31850961538453" style="visibility: inherit;" fill="rgb(0, 0, 0)" stroke="rgb(204, 204, 204)" stroke-width="1px"></line><line x1="68.3125" y1="116.25480769230762" x2="63.3125" y2="116.25480769230762" style="visibility: inherit;" fill="rgb(0, 0, 0)" stroke="rgb(204, 204, 204)" stroke-width="1px"></line><line x1="68.3125" y1="87.19110576923072" x2="63.3125" y2="87.19110576923072" style="visibility: inherit;" fill="rgb(0, 0, 0)" stroke="rgb(204, 204, 204)" stroke-width="1px"></line><line x1="68.3125" y1="58.127403846153754" x2="63.3125" y2="58.127403846153754" style="visibility: inherit;" fill="rgb(0, 0, 0)" stroke="rgb(204, 204, 204)" stroke-width="1px"></line><line x1="68.3125" y1="29.06370192307685" x2="63.3125" y2="29.06370192307685" style="visibility: inherit;" fill="rgb(0, 0, 0)" stroke="rgb(204, 204, 204)" stroke-width="1px"></line></g><g transform="translate(58.3125, 0)"><text x="0" y="377.828125" dx="0em" dy="0.3em" style="text-anchor: end; visibility: hidden; font-family: &quot;Helvetica Neue&quot;, sans-serif; font-size: 12px; font-weight: 200;" fill="rgb(50, 49, 63)" stroke="none" stroke-width="1px">2.6e-4</text><text x="0" y="348.7644230769231" dx="0em" dy="0.3em" style="text-anchor: end; visibility: inherit; font-family: &quot;Helvetica Neue&quot;, sans-serif; font-size: 12px; font-weight: 200;" fill="rgb(50, 49, 63)" stroke="none" stroke-width="1px">2.8e-4</text><text x="0" y="319.70072115384613" dx="0em" dy="0.3em" style="text-anchor: end; visibility: inherit; font-family: &quot;Helvetica Neue&quot;, sans-serif; font-size: 12px; font-weight: 200;" fill="rgb(50, 49, 63)" stroke="none" stroke-width="1px">3e-4</text><text x="0" y="290.63701923076917" dx="0em" dy="0.3em" style="text-anchor: end; visibility: inherit; font-family: &quot;Helvetica Neue&quot;, sans-serif; font-size: 12px; font-weight: 200;" fill="rgb(50, 49, 63)" stroke="none" stroke-width="1px">3.2e-4</text><text x="0" y="261.57331730769226" dx="0em" dy="0.3em" style="text-anchor: end; visibility: inherit; font-family: &quot;Helvetica Neue&quot;, sans-serif; font-size: 12px; font-weight: 200;" fill="rgb(50, 49, 63)" stroke="none" stroke-width="1px">3.4e-4</text><text x="0" y="232.5096153846153" dx="0em" dy="0.3em" style="text-anchor: end; visibility: inherit; font-family: &quot;Helvetica Neue&quot;, sans-serif; font-size: 12px; font-weight: 200;" fill="rgb(50, 49, 63)" stroke="none" stroke-width="1px">3.6e-4</text><text x="0" y="203.4459134615384" dx="0em" dy="0.3em" style="text-anchor: end; visibility: inherit; font-family: &quot;Helvetica Neue&quot;, sans-serif; font-size: 12px; font-weight: 200;" fill="rgb(50, 49, 63)" stroke="none" stroke-width="1px">3.8e-4</text><text x="0" y="174.38221153846146" dx="0em" dy="0.3em" style="text-anchor: end; visibility: inherit; font-family: &quot;Helvetica Neue&quot;, sans-serif; font-size: 12px; font-weight: 200;" fill="rgb(50, 49, 63)" stroke="none" stroke-width="1px">4e-4</text><text x="0" y="145.31850961538453" dx="0em" dy="0.3em" style="text-anchor: end; visibility: inherit; font-family: &quot;Helvetica Neue&quot;, sans-serif; font-size: 12px; font-weight: 200;" fill="rgb(50, 49, 63)" stroke="none" stroke-width="1px">4.2e-4</text><text x="0" y="116.25480769230762" dx="0em" dy="0.3em" style="text-anchor: end; visibility: inherit; font-family: &quot;Helvetica Neue&quot;, sans-serif; font-size: 12px; font-weight: 200;" fill="rgb(50, 49, 63)" stroke="none" stroke-width="1px">4.4e-4</text><text x="0" y="87.19110576923072" dx="0em" dy="0.3em" style="text-anchor: end; visibility: inherit; font-family: &quot;Helvetica Neue&quot;, sans-serif; font-size: 12px; font-weight: 200;" fill="rgb(50, 49, 63)" stroke="none" stroke-width="1px">4.6e-4</text><text x="0" y="58.127403846153754" dx="0em" dy="0.3em" style="text-anchor: end; visibility: inherit; font-family: &quot;Helvetica Neue&quot;, sans-serif; font-size: 12px; font-weight: 200;" fill="rgb(50, 49, 63)" stroke="none" stroke-width="1px">4.8e-4</text><text x="0" y="29.06370192307685" dx="0em" dy="0.3em" style="text-anchor: end; visibility: inherit; font-family: &quot;Helvetica Neue&quot;, sans-serif; font-size: 12px; font-weight: 200;" fill="rgb(50, 49, 63)" stroke="none" stroke-width="1px">5e-4</text></g><line x1="68.3125" y1="0" x2="68.3125" y2="377.828125" fill="rgb(0, 0, 0)" stroke="rgb(204, 204, 204)" stroke-width="1px"></line></g></g><g transform="translate(68, 0)" clip-path="url(#clip_0)"><clipPath id="clip_0"><rect width="960" height="377"></rect></clipPath><g><g><g><line x1="0" y1="0" x2="0" y2="377.828125" fill="rgb(0, 0, 0)" stroke="rgb(60, 60, 60)" stroke-width="1px" opacity="0.25"></line><line x1="73.89903846153847" y1="0" x2="73.89903846153847" y2="377.828125" fill="rgb(0, 0, 0)" stroke="rgb(60, 60, 60)" stroke-width="1px" opacity="0.25"></line><line x1="147.79807692307693" y1="0" x2="147.79807692307693" y2="377.828125" fill="rgb(0, 0, 0)" stroke="rgb(60, 60, 60)" stroke-width="1px" opacity="0.25"></line><line x1="221.6971153846154" y1="0" x2="221.6971153846154" y2="377.828125" fill="rgb(0, 0, 0)" stroke="rgb(60, 60, 60)" stroke-width="1px" opacity="0.25"></line><line x1="295.59615384615387" y1="0" x2="295.59615384615387" y2="377.828125" fill="rgb(0, 0, 0)" stroke="rgb(60, 60, 60)" stroke-width="1px" opacity="0.25"></line><line x1="369.4951923076923" y1="0" x2="369.4951923076923" y2="377.828125" fill="rgb(0, 0, 0)" stroke="rgb(60, 60, 60)" stroke-width="1px" opacity="0.25"></line><line x1="443.3942307692308" y1="0" x2="443.3942307692308" y2="377.828125" fill="rgb(0, 0, 0)" stroke="rgb(60, 60, 60)" stroke-width="1px" opacity="0.25"></line><line x1="517.2932692307692" y1="0" x2="517.2932692307692" y2="377.828125" fill="rgb(0, 0, 0)" stroke="rgb(60, 60, 60)" stroke-width="1px" opacity="0.25"></line><line x1="591.1923076923077" y1="0" x2="591.1923076923077" y2="377.828125" fill="rgb(0, 0, 0)" stroke="rgb(60, 60, 60)" stroke-width="1px" opacity="0.25"></line><line x1="665.0913461538462" y1="0" x2="665.0913461538462" y2="377.828125" fill="rgb(0, 0, 0)" stroke="rgb(60, 60, 60)" stroke-width="1px" opacity="0.25"></line><line x1="738.9903846153846" y1="0" x2="738.9903846153846" y2="377.828125" fill="rgb(0, 0, 0)" stroke="rgb(60, 60, 60)" stroke-width="1px" opacity="0.25"></line><line x1="812.8894230769231" y1="0" x2="812.8894230769231" y2="377.828125" fill="rgb(0, 0, 0)" stroke="rgb(60, 60, 60)" stroke-width="1px" opacity="0.25"></line><line x1="886.7884615384615" y1="0" x2="886.7884615384615" y2="377.828125" fill="rgb(0, 0, 0)" stroke="rgb(60, 60, 60)" stroke-width="1px" opacity="0.25"></line><line x1="960.6875" y1="0" x2="960.6875" y2="377.828125" fill="rgb(0, 0, 0)" stroke="rgb(60, 60, 60)" stroke-width="1px" opacity="0.25"></line></g><g><line x1="0" y1="377.828125" x2="960.6875" y2="377.828125" fill="rgb(0, 0, 0)" stroke="rgb(60, 60, 60)" stroke-width="1px" opacity="0.25"></line><line x1="0" y1="348.7644230769231" x2="960.6875" y2="348.7644230769231" fill="rgb(0, 0, 0)" stroke="rgb(60, 60, 60)" stroke-width="1px" opacity="0.25"></line><line x1="0" y1="319.70072115384613" x2="960.6875" y2="319.70072115384613" fill="rgb(0, 0, 0)" stroke="rgb(60, 60, 60)" stroke-width="1px" opacity="0.25"></line><line x1="0" y1="290.63701923076917" x2="960.6875" y2="290.63701923076917" fill="rgb(0, 0, 0)" stroke="rgb(60, 60, 60)" stroke-width="1px" opacity="0.25"></line><line x1="0" y1="261.57331730769226" x2="960.6875" y2="261.57331730769226" fill="rgb(0, 0, 0)" stroke="rgb(60, 60, 60)" stroke-width="1px" opacity="0.25"></line><line x1="0" y1="232.5096153846153" x2="960.6875" y2="232.5096153846153" fill="rgb(0, 0, 0)" stroke="rgb(60, 60, 60)" stroke-width="1px" opacity="0.25"></line><line x1="0" y1="203.4459134615384" x2="960.6875" y2="203.4459134615384" fill="rgb(0, 0, 0)" stroke="rgb(60, 60, 60)" stroke-width="1px" opacity="0.25"></line><line x1="0" y1="174.38221153846146" x2="960.6875" y2="174.38221153846146" fill="rgb(0, 0, 0)" stroke="rgb(60, 60, 60)" stroke-width="1px" opacity="0.25"></line><line x1="0" y1="145.31850961538453" x2="960.6875" y2="145.31850961538453" fill="rgb(0, 0, 0)" stroke="rgb(60, 60, 60)" stroke-width="1px" opacity="0.25"></line><line x1="0" y1="116.25480769230762" x2="960.6875" y2="116.25480769230762" fill="rgb(0, 0, 0)" stroke="rgb(60, 60, 60)" stroke-width="1px" opacity="0.25"></line><line x1="0" y1="87.19110576923072" x2="960.6875" y2="87.19110576923072" fill="rgb(0, 0, 0)" stroke="rgb(60, 60, 60)" stroke-width="1px" opacity="0.25"></line><line x1="0" y1="58.127403846153754" x2="960.6875" y2="58.127403846153754" fill="rgb(0, 0, 0)" stroke="rgb(60, 60, 60)" stroke-width="1px" opacity="0.25"></line><line x1="0" y1="29.06370192307685" x2="960.6875" y2="29.06370192307685" fill="rgb(0, 0, 0)" stroke="rgb(60, 60, 60)" stroke-width="1px" opacity="0.25"></line></g></g></g><g><g><line x1="0" y1="755.65625" x2="960.6875" y2="755.65625" fill="rgb(0, 0, 0)" stroke="rgb(153, 153, 153)" stroke-width="1.5px"></line></g></g><g><g><line x1="73.89903846153847" y1="0" x2="73.89903846153847" y2="377.828125" fill="rgb(0, 0, 0)" stroke="rgb(153, 153, 153)" stroke-width="1.5px"></line></g></g><g><g><g><g><g><path stroke="rgb(255, 112, 67)" stroke-width="2px" d="M74.50501057692308,144.32534200826802L75.68739519230769,142.98753378382585L76.86977980769231,36.27949933595875L77.4609721153846,65.72423325049078L78.64335673076923,-10.377184332313334L81.00812596153845,-9.525575588721097L81.59931826923076,12.953843403074416L82.19051057692307,39.620274521409726L82.78170288461538,73.96420880519128L83.3728951923077,67.40441012531727L83.9640875,14.411386370706225L84.55527980769232,24.308959700777734L85.14647211538463,-42.70465236381597L86.92004903846154,-11.94326335394993L88.10243365384616,7.506136510931242L88.69362596153846,38.10677987561792L89.87601057692308,31.231874561792324L91.6495875,32.18323472552066L92.2407798076923,43.678693599563644L92.83197211538462,49.40923515295822L93.42316442307693,54.01641304027589L94.01435673076922,52.480660053819065L95.19674134615384,77.67461452540914L96.97031826923076,86.47831467332236L97.56151057692307,76.80637296009041L98.7438951923077,86.52672529407766L99.3350875,91.31237242717106L99.92627980769231,103.25784670911452L100.51747211538462,102.12068364000748L101.10866442307693,92.0588438077969L101.69985673076924,75.20920022156957L102.88224134615385,77.49115698156947L103.47343365384616,60.921491631126685L105.24701057692307,66.8592297956107L105.83820288461538,63.41728924269182L106.4293951923077,80.54872526519142L107.0205875,57.53499873879633L107.6117798076923,62.62342053338608L109.38535673076923,61.65235482386828L109.97654903846154,77.78112629743225L110.56774134615384,97.53786401014463L111.15893365384615,108.82581695170404L111.75012596153846,111.47508915486128L112.34131826923077,75.2456425951928L112.93251057692306,75.25356231957528L113.52370288461537,90.8336456148673L114.1148951923077,74.31534571051753L114.70608750000001,80.74745210531557L115.88847211538462,90.42602352952542L116.47966442307693,95.32296209596888L117.07085673076924,85.98048948459353L117.66204903846155,107.87808498527704L118.84443365384615,93.88811164444672L120.02681826923077,94.916891543497L120.61801057692308,92.11329557132092L121.80039519230769,68.80500650807886L122.39158750000001,56.375642814310766L123.57397211538462,60.8358685725799L124.16516442307692,66.6997556649149L124.75635673076924,92.50630021732968L125.34754903846154,98.88148546642293L125.93874134615386,100.71833716256674L126.52993365384614,125.61851421718211L127.71231826923076,128.85256962428497L128.3035105769231,108.66263353086691L128.89470288461538,118.19170892977769L129.4858951923077,126.26197700474819L130.6682798076923,122.94089187043517L132.44185673076922,125.50197467714213L133.03304903846154,125.73954715415624L133.62424134615384,129.51695463715427L134.21543365384616,128.24910417257482L135.39781826923078,121.91622450758334L135.98901057692308,130.64450519877533L136.58020288461537,126.7296598544319L138.35377980769232,127.66346219768897L138.94497211538462,138.68471245349178L140.71854903846156,141.36881393828398L142.49212596153845,146.1028370701329L143.08331826923077,145.5459889001363L143.67451057692307,159.18788727965207L144.2657028846154,144.96627697089224L144.8568951923077,151.14756403158606L146.63047211538463,158.5143598525281L147.2216644230769,165.45176438684248L147.81285673076923,164.6224509226676L148.40404903846152,163.3600023736149L148.99524134615385,163.07477315574997L150.17762596153847,166.4881174865398L150.76881826923076,167.2418899601888L152.54239519230768,164.87029933796762L154.31597211538462,164.7267794244274L154.90716442307692,160.15700493777018L156.08954903846154,143.85113157601762L157.27193365384616,138.93219527770063L157.86312596153846,145.99266964540323L158.45431826923075,145.7395195306779L159.04551057692308,146.31135055719622L159.63670288461537,127.15518725607916L160.2278951923077,129.0820971534035L161.41027980769232,146.06636178188944L162.00147211538462,138.34269248389305L162.59266442307694,146.1068684197651L163.18385673076924,146.48679333135522L164.36624134615383,150.01542244465477L164.95743365384615,110.07337714077028L165.54862596153845,113.43639472968528L166.73101057692307,131.31625038620166L167.3222028846154,124.40498079961401L167.9133951923077,144.2481285954538L169.0957798076923,143.47385831116665L169.6869721153846,145.8546725111056L170.86935673076923,153.5997345648187L171.46054903846155,164.78672197420198L172.64293365384617,165.46658042899423L173.23412596153847,180.486922282561L173.8253182692308,185.29433121890716L175.00770288461538,180.40707876000118L175.59889519230768,175.74057207562856L177.37247211538462,187.63347731535214L177.96366442307692,173.51830370277062L178.55485673076925,180.5977751342747L179.14604903846154,182.21391899297882L180.32843365384613,191.2186511279468L180.91962596153846,168.10732466031922L182.10201057692308,167.27137186390635L183.2843951923077,169.843501317914L183.8755875,181.4549410661859L184.46677980769232,176.66619232150248L185.05797211538462,180.14255556652589L186.24035673076924,170.51293408667803L186.83154903846153,185.15716715760232L188.60512596153848,197.25735692638983L190.9698951923077,203.51443172854906L191.56108749999999,194.02287124787134L193.33466442307693,187.95840697191818L193.92585673076923,192.856975542469L195.10824134615385,191.33104109996214L195.69943365384617,177.19474528258772L196.29062596153844,177.35789133452678L196.88181826923076,176.9016566171929L197.47301057692306,147.0378488826286L199.2465875,162.15848426185488L199.8377798076923,169.71307855950585L200.42897211538462,180.06195291953713L201.02016442307695,182.13143187264296L202.79374134615384,167.6849570850158L203.38493365384616,158.27911067956228L203.97612596153846,152.75776064261453L204.56731826923078,143.70654430072298L205.15851057692308,152.5821600246189L205.7497028846154,158.59502094285827L206.9320875,159.32018750143163L207.5232798076923,161.13047481553875L208.11447211538461,151.12792432028968L209.29685673076924,160.11116618970885L209.88804903846153,140.3291024576898L210.47924134615386,140.2138253286652L211.07043365384615,157.09198178822814L211.66162596153848,158.60367156534193L212.25281826923077,161.524081991215L212.84401057692307,146.6206232046084L214.0263951923077,128.02100408773L214.61758749999998,138.91163773737426L215.7999721153846,152.16831455501944L218.16474134615385,130.84278632922323L218.75593365384614,135.3853846167191L219.93831826923076,148.0543006360679L220.5295105769231,154.9886243471874L221.12070288461538,143.77780173421448L221.7118951923077,146.33751427585162L222.3030875,153.67680834173723L222.89427980769233,125.76801151645401L223.4854721153846,117.14948253819784L224.66785673076922,126.30667832628296L226.44143365384616,135.5331093448053L227.03262596153846,145.735477767777L227.62381826923078,160.54876552930136L228.21501057692308,136.01541695009388L229.39739519230767,105.29409465291786L230.565,97.54822762860698L231.74738461538462,102.830066335028L232.91498942307692,104.74482751062749L234.09737403846154,104.53266433770563L234.68856634615386,102.59694017068699L235.27975865384616,95.85406924637965L235.87095096153845,116.80071128746448L236.46214326923075,132.88728528528222L237.64452788461537,140.6576428242181L238.2357201923077,113.20368253534872L239.403325,124.79776911139885L239.9945173076923,134.88263533864446L240.58570961538462,151.467915429046L241.7680942307692,160.6983790691801L244.72405576923074,161.4852659718637L245.9064403846154,171.31895433924907L246.49763269230772,175.2829618311643L247.6800173076923,182.87577275612298L248.27120961538463,175.850265045103L248.86240192307696,158.7090748926477L249.45359423076923,177.76472230967929L250.04478653846152,178.7541731764292L250.63597884615385,170.73908813027822L251.21239134615385,162.3118784641522L251.80358365384618,138.16226187170935L252.3947759615385,138.62457749128342L252.98596826923074,154.26246602503034L255.32117788461537,148.42890692712973L255.89759038461537,167.27277038243068L257.079975,150.73497571026584L258.7944326923077,167.95955332416077L261.1444221153846,165.6298143241201L261.72083461538466,167.21833822577415L262.3120269230769,159.83664449484755L262.90321923076925,168.09238900597484L264.08560384615384,170.03326380252986L264.6767961538461,176.1133805789124L265.26798846153844,194.0204146933649L265.85918076923076,193.94638002398912L266.4503730769231,200.74710950614931L267.04156538461535,204.56402961109802L268.8151423076923,209.7625881814101L269.4063346153846,210.6470711705795L270.5591596153846,202.77341554193353L271.7119846153846,196.30531488024735L272.89436923076926,196.96900584121303L274.07675384615385,212.7052776337802L275.2591384615385,219.2488526477143L275.8503307692308,203.2220536790564L276.42674326923077,205.5582207517761L276.98837596153845,209.26172380266837L277.5795682692308,207.39835997855744L278.1559807692308,210.4996838713968L278.74717307692305,216.5047058907088L279.3383653846154,216.00565459086408L279.9147778846154,232.6368699186655L281.0823826923077,225.07020375202194L282.2647673076923,213.7747455449722L282.8559596153846,224.12386387147845L284.0235644230769,230.8411600996369L285.16160961538463,220.18066227998804L285.7380221153846,221.68479357066175L286.3144346153846,225.85825124254077L286.9056269230769,224.99991890229128L287.49681923076923,215.28891236919003L288.08801153846156,217.27809409921332L288.66442403846156,173.9476306914799L289.2112769230769,140.3225984831442L289.80246923076925,139.16171879933123L290.3936615384615,134.02387121438392L290.98485384615384,135.7801226803678L292.15245865384617,133.02075865294665L292.7436509615385,112.7439819587434L293.91125576923076,92.18285333064517L295.09364038461536,93.84696466642299L295.6700528846154,92.26874867286244L296.2464653846154,82.01474285120605L296.8376576923077,78.75709590608756L297.42885,77.19094332856741L298.5521153846154,77.76361004775862L299.1285278846154,96.58676203398102L300.2961326923077,92.96615489660843L300.8725451923077,117.79006358583638L301.4489576923077,138.38913735401908L302.0105903846154,153.7899930363383L302.5870028846154,154.11613636280075L303.73982788461535,172.98510540964537L304.3310201923077,174.03528033883487L304.8926528846154,168.0407821649037L305.4690653846154,177.98408932615007L307.1983028846154,195.9680109425155L308.3067884615385,197.5266072000683L308.8979807692308,182.15342707052582L310.05080576923075,191.27534173000305L310.6419980769231,196.91157467639943L311.2036307692308,186.5535201473898L312.3860153846154,205.80775359460566L312.97720769230773,199.80539059439198L314.1152528846154,198.5393596458284L315.2976375,187.7675964334066L318.17969999999997,184.6871895133125L318.7708923076923,185.9781275279159L320.5444692307692,179.86007522748423L321.13566153846153,182.2535860332174L321.71207403846154,187.2854412459106L322.2589269230769,191.01073610779684L322.8057798076923,190.74202816816853L323.9290451923077,179.62414465349303L325.0523105769231,189.00703566036444L326.19035576923073,178.1996326368979L327.3727403846154,173.92692988689276L328.51078557692307,185.04439484330408L330.22524326923076,191.15278633597825L330.8164355769231,188.7715959334704L333.03340673076923,195.8691908702762L333.5802596153846,194.80154038564L334.1566721153846,196.604319301335L334.71830480769233,187.318724287491L335.9006894230769,190.9950736847418L336.4623221153846,183.94998396225864L338.1767798076923,185.12702524839406L338.7531923076923,175.01381538938173L339.31482500000004,176.5890033108902L339.9060173076923,179.97177019357338L341.59091538461536,188.37570343792325L342.1673278846154,189.86888703120133L343.2905932692308,193.67991177826443L343.85222596153847,182.65595681755775L344.41385865384615,181.83632793406485L344.9607115384615,173.70366807345806L345.5371240384615,184.4684573655517L346.12831634615384,187.42531507195085L346.70472884615384,186.65486144334017L347.23680192307694,186.75982966987695L347.8279942307692,182.71934474960375L348.40440673076927,198.29195606487326L348.95125961538463,191.27873471770218L349.5128923076923,190.2867577311672L350.10408461538464,185.86518091319752L350.63615769230773,187.42632536729408L351.1830105769231,174.9789974091936L352.8974682692308,161.26452265521078L353.4295413461538,186.0369632944031L355.69085192307693,186.10744978436279L356.2672644230769,188.28639683283188L358.528575,183.53650717216718L360.2430326923077,191.47561561889665L360.78988557692304,183.54158768332775L361.86881153846156,179.70823311705362L362.38610480769233,167.17294414829746L364.08578269230765,178.03369324802068L364.67697499999997,172.49260787295339L365.2681673076923,167.90189807429883L367.0121846153846,155.97330947697748L367.58859711538463,158.30319458909293L368.7118625,144.5425692222875L370.9731730769231,164.5419711172867L371.52002596153847,178.90125463626836L372.61373173076925,184.14284351130402L373.7222173076923,186.76819847403576L374.28385000000003,177.57961688573027L374.8307028846154,177.03336568996374L375.4071153846154,184.53158845522506L375.9687480769231,190.91355967597326L376.5599403846154,189.9781223571363L377.72754519230773,185.59199083223564L378.3187375,196.26082726495906L378.89515,180.934568041731L379.4567826923077,175.05154674345738L380.0184153846154,173.25382019336303L380.5652682692308,170.50802191371267L381.11212115384615,173.0820785663694L383.2847528846154,169.96520076030544L383.8316057692308,178.38479206146732L384.37845865384617,161.5667939056803L387.7039153846154,173.49273084988585L388.84196057692304,156.13765937536832L389.38881346153846,165.16967249832155L389.95044615384614,175.21304844240566L390.54163846153847,191.05329537829627L391.10327115384615,184.38935866022945L391.66490384615383,196.71503727340496L392.24131634615384,191.38747415332722L392.8029490384615,187.4975704982366L393.34980192307694,197.7816131116151L393.92621442307694,204.94870623692927L394.4878471153846,205.24649080394659L395.06425961538463,191.34895203425953L395.6258923076923,189.32850289738198L396.17274519230773,176.7748934827309L396.7639375,176.74283998838715L397.31079038461536,144.10262577909245L397.8724230769231,139.55271283240984L399.0104682692308,151.066414421087L399.5868807692308,172.19843547386057L400.16329326923073,171.91746390834152L401.27177884615384,169.69652368910099L402.3950442307692,172.59059242462402L403.51830961538457,166.77181207392863L404.1095019230769,142.1076985085194L405.72050096153845,141.22164227347548L406.29691346153845,147.63133530533975L406.8733259615385,162.11162147791853L407.96703173076924,183.3631738486504L408.5286644230769,193.27013081931318L409.1050769230769,200.70255299937543L410.1987826923077,206.62380579478642L411.27770865384616,216.16837060026515L411.80978173076926,223.31482396696504L412.3566346153846,216.8151715036213L413.46512019230767,222.37308190193644L413.98241346153844,223.44591467849116L415.12045865384613,217.16434958475406L415.6525317307692,210.6136785684325L416.19938461538464,207.19446707027046L416.77579711538465,219.4134675233269L417.3522096153846,216.84787121015663L417.91384230769233,223.23954787590864L418.4606951923077,211.63312919504244L419.5987403846154,221.5407631081381L420.1308134615385,227.96136985670051L420.69244615384616,218.01816344132408L422.3773442307692,214.51817027767265L422.8946375,219.02128737159524L423.4267105769231,223.5618464041489L425.12638846153845,218.18121098263305L426.2053144230769,223.26528463533526L426.75216730769233,237.81151375843282L427.2990201923077,229.69246619264115L428.36316634615383,230.755365345627L428.9247990384616,233.75207187323272L429.4864317307692,208.98407802431186L430.04806442307694,217.32968035189367L430.5949173076923,224.3483059936482L431.6590634615385,221.10415094382182L432.81188846153844,187.66217868790278L433.92037403846155,159.14630753273002L434.4820067307692,174.4866496885923L435.0288596153846,169.40332141002958L436.6989778846154,175.95044342701638L438.9602884615385,185.45911768021995L439.50714134615384,184.13709860995868L440.0392144230769,188.15433649366673L440.5712875,196.64989228575465L441.1033605769231,186.90908662644844L442.1970663461538,200.9713324061598L443.2612125,192.32678230480778L444.85743173076924,183.81918807428625L445.3895048076923,165.56026912228793L446.5571096153846,156.34428330252388L447.6655951923077,166.16605069972286L448.21244807692307,171.52336320259897L449.88256634615385,179.57494820064625L450.9319326923077,174.26343583592245L451.4492259615385,173.43987872266447L451.98129903846154,170.2299024643059L452.51337211538464,168.02484794190897L453.5775182692308,177.09121343644895L454.1243711538462,178.6107091884869L454.65644423076924,157.3251649772074L455.2180769230769,164.7432017907237L455.76492980769234,162.45795565701087L456.2822230769231,148.7524406348437L456.7699567307692,151.14419307910512L457.33158942307693,166.2529491929954L457.8784423076923,168.28770554756835L458.44007500000004,149.81721987674698L460.0806336538462,167.68016504851357L460.62748653846154,164.2784490738281L461.73597211538464,162.59317667603634L462.77055865384614,177.4137646427854L463.87904423076924,191.1821360075207L464.4258971153846,180.95614900394838L464.98752980769234,185.87955749419467L465.5196028846154,151.2579355270338L466.06645576923074,166.04824999475971L466.6280884615385,170.92216422780362L467.17494134615384,174.75901432568128L467.70701442307694,172.75633712013033L468.8007201923077,169.3988248805994L469.33279326923076,179.47911966012296L470.44127884615386,188.24321036662982L471.0029115384615,177.9584084902549L471.56454423076923,176.66478798590467L472.6434701923077,193.8186919808006L473.20510288461537,195.794829296579L474.25446923076925,210.22714679450385L474.7569826923077,209.88789714590743L475.348175,219.52472103340736L475.88024807692307,208.5224353962371L476.41232115384616,210.92846401374985L476.9591740384615,200.66198344460145L477.50602692307694,187.66293793329433L478.06765961538457,192.83169918562922L478.6145125,211.8812289485595L479.16136538461535,230.65814821961325L479.66387884615386,225.39130069201252L481.18619903846155,216.55787322757175L482.32424423076924,230.80515664676665L483.3588307692308,231.4995056538599L484.98460961538456,214.04236991993838L485.5314625,225.17753979943723L486.03397596153843,241.0301974573885L486.53648942307694,218.66125123428256L487.05378269230766,229.10406056843416L488.16226826923076,221.31873634542774L488.7239009615385,188.2384435297865L489.2855336538462,183.54125619019476L489.8471663461538,194.35997283910856L490.3053403846154,201.09884010227836L490.83741346153846,203.74822383912542L491.3547067307692,207.06556428076834L491.88677980769233,206.12435926725763L493.95595288461544,204.66477847846684L494.4880259615385,208.7852510251103L495.55217211538456,206.0016734326222L496.5867586538461,195.03136164543773L497.14839134615386,184.2411936695613L498.24209711538464,157.644250780693L498.81850961538464,162.9187540003933L499.32102307692304,177.6558760079213L499.79397692307685,178.13667185132468L500.3556096153846,190.2626993381222L500.8729028846154,194.95324670824624L502.4100028846154,196.38433462842443L502.92729615384616,170.49448636017976L503.4741490384616,175.99434168477106L507.1691009615385,166.52342639280005L507.70117403846155,176.82479693502617L509.2530538461538,184.34237402255283L510.80493365384615,169.85278536963915L511.33700673076925,174.34216146036263L511.8690798076923,164.63634015024422L513.4357394230768,175.6434368283006L514.544225,181.06348471206925L515.0910778846154,177.74258982358958L515.6231509615385,177.95151734318125L517.2637096153846,191.7467865605441L517.7810028846154,184.8136781143157L518.2982961538462,184.17600529391189L518.8451490384616,175.3417207034713L519.3920019230769,173.5232528703222L519.8945153846154,188.8537820504786L520.4265884615385,189.32960764306867L520.9734413461539,192.82586762632465L523.0278346153847,206.1868873285148L523.5599076923077,196.08661269747418L524.6388336538462,200.14131478596772L525.2300259615386,203.4104357076523L525.7473192307692,188.61708072934374L526.7375663461539,193.9362975668951L527.2548596153846,194.11551497836038L527.7869326923077,196.23433832694988L528.8362990384616,190.10058211855554L529.4274913461538,188.8402010943253L529.9595644230769,198.6510087086756L530.4916375,189.16495134153098L531.0384903846154,182.23802917912565L531.5557836538461,192.40378810621502L532.073076923077,210.18250725467863L533.1520028846154,196.35342460184458L535.2211759615385,212.65668706056195L535.7089096153846,197.97276146344694L537.3051288461538,197.05885130970182L537.8372019230769,200.13649970035792L538.3544951923077,194.05773984872522L538.8865682692307,201.48985328505862L539.8620355769231,186.1535152195621L540.9409615384615,193.38161908162175L541.4878144230769,206.45533041207298L541.975548076923,203.1539740622672L542.4928413461539,206.46052842742128L543.0396942307692,212.2758959689472L543.5865471153846,226.02638467772175L545.0201884615385,229.1006987754147L545.5818211538461,233.95311060791465L547.1780403846153,228.34901216052884L547.6657740384614,238.28926535875019L548.7151403846153,236.1023634321735L550.2818,223.02751943764937L552.3509730769231,226.77178605986458L553.2968807692307,223.08369578303802L553.784614423077,212.3478419018812L554.2575682692308,208.88989445427453L554.7305221153846,205.1991951102692L555.277375,213.84321837744753L556.3415211538462,227.42144633203583L556.8440346153847,234.43866093808577L557.3908875000001,232.74261901609836L558.4106942307693,243.88788432843762L558.9427673076923,256.4011795655069L559.9773538461538,246.3038448933546L561.957848076923,236.51524290173222L563.5392875,234.9883166566904L564.0565807692308,235.81279287684043L564.5886538461539,237.18837877522557L566.1109740384614,246.18215189632537L566.5839278846155,252.42071295493002L567.6480740384616,248.6046791888991L568.1949269230769,245.25250291282487L569.1851740384616,250.55104112855423L569.6729076923076,239.1621480581324L570.1458615384615,217.80164328995954L571.2247875,230.1326645017525L572.1559153846154,237.08724448358763L573.6486759615384,247.56044889791758L574.1216298076923,249.42111833620334L575.1562163461539,252.59639857164535L575.6735096153847,263.4685053927109L576.2203625,260.0605168036702L576.6785365384615,234.03619849188047L577.7574625000001,247.4550637492129L578.333875,241.33165214583278L578.8807278846153,237.92892374442297L579.4128009615384,216.53747481377025L580.4178278846155,183.72895939019986L581.4080749999999,195.3929131282589L582.4574413461538,187.94389276937096L582.9156153846153,195.7888106812658L583.3885692307692,193.15932372844557L584.4379355769231,197.93001908086822L584.9256692307692,209.23666439914112L586.8174846153846,216.71818906977913L587.3643375,221.0912969503767L587.8520711538462,218.61825852049728L588.4137038461538,235.2966441444374L588.9605567307692,234.33268371893723L589.9360240384615,231.29657157165013L590.4533173076923,235.47444217788268L591.4879038461538,216.79512294456833L591.9904173076923,207.8686476520106L592.4485913461538,212.37827959618002L592.9511048076923,201.4844308581452L593.4536182692308,213.1689444220188L593.9856913461539,200.7602275085841L594.5029846153845,203.2797767497625L594.9759384615385,207.87678806778294L597.0007721153846,208.17500041898745L597.9171201923077,203.08634028118374L598.8925875,209.30311630892058L599.3655413461539,220.21001109008117L599.8089355769231,200.14169779295014L600.7991826923077,189.86635203407477L601.3312557692308,186.40088152183L602.2919432692308,166.05658880676964L603.8290432692307,169.60200730813642L604.3611163461538,170.1624861185327L604.8636298076923,182.75956302319145L605.4104826923076,158.521468459675L605.8686567307693,159.59811140325075L606.9032432692308,167.26792738826606L607.4500961538462,182.60955034203212L610.5242961538462,193.3948672062005L610.99725,203.0567866266583L611.9431576923076,203.57935777932553L612.4604509615385,206.7186576566477L612.9629644230769,207.8154930082546L613.3767990384615,208.23922848818643L613.8940923076923,220.46403205043663L614.3818259615385,231.96333247905736L614.9138990384615,243.33974921432173L615.8893663461539,238.01395953946852L616.3327605769231,233.18421915840665L616.8500538461539,233.06301199215986L617.382126923077,251.32699955865843L618.2541355769231,251.60332469127655L618.7418692307692,260.2424544469038L619.1704836538462,260.75277098463437L619.7321163461539,246.3710665802192L620.2050701923077,231.4836779032613L620.7223634615384,243.87230296207355L623.1610317307693,253.08180790450604L624.5946730769231,239.22775779113368L625.5701403846153,237.86506269387985L626.0874336538461,247.60280092597822L626.5603875,257.52962954105885L627.0185615384615,246.42700864954983L628.4965423076924,258.33609241636L629.4867894230769,251.16508720535097L630.8317519230769,254.45509093768175L631.3490451923077,257.20125588463895L632.8270259615385,264.0273524369709L633.2704201923077,239.10043469114794L635.2656942307692,248.05528994800673L635.8125471153846,243.66491039804265L637.1722894230769,226.1473621973384L637.6748028846154,212.4718248174976L638.1920961538461,225.72187117409288L639.0493250000001,208.25755232082997L640.438626923077,208.7862356022882L641.3845346153846,199.30184039274712L641.8722682692307,200.57597079955045L642.3452221153847,219.3642978845628L642.8033961538462,224.74760421727197L643.3059096153846,220.86231050829358L643.7640836538461,196.8173589243851L644.2222576923076,206.37470965052583L644.6065326923077,218.91982328280147L645.5228807692307,233.88468722502526L645.9514951923077,229.73753841773595L647.8137509615384,229.51997491390202L648.7448788461539,235.05227413848468L649.2621721153846,230.18660911147566L650.2671990384615,239.22409025685633L651.7008403846154,236.35705093876635L652.1442346153847,248.94528869903706L652.6319682692308,258.5752021432236L653.0901423076923,262.3557581687057L655.57315,237.70929602147513L656.0756634615385,237.4683653839605L656.5486173076923,244.58283407062993L656.9920115384615,238.20504076891092L658.4256528846154,240.28067383435652L659.2533221153845,243.92616455221182L659.6967163461538,250.99648033902517L660.1696701923076,248.8864225561181L660.5982846153846,244.0012560497264L662.105825,223.79719037985106L663.0960721153846,202.72198064505227L664.0419798076923,217.56572639401884L664.9287682692308,229.32932637231025L665.3869423076924,225.34511369661834L666.8501432692308,237.0013136399022L667.825610576923,236.43460001919115L668.3133442307692,234.58964682872156L668.7271788461538,229.34950648121355L670.1460403846154,215.59982207083831L671.1215076923077,211.10951572391193L672.1117548076924,216.74804018568625L673.5453961538461,219.68001331043806L674.0331298076924,230.77191946816544L674.5060836538462,227.99601063091504L674.9642576923077,232.5313487634877L675.9101653846153,231.2176286348945L676.3535596153846,232.41115906742002L677.7428615384616,228.6718334093115L680.0780711538462,246.13841780934504L681.0683182692308,242.405855258594L681.5264923076924,254.84596816520423L681.9846663461539,249.5560097172358L682.8418951923077,264.560047115346L683.7730230769231,254.39716772529852L685.4727009615385,252.41420931531445L686.8176634615385,249.9698302788553L687.2758375000001,241.66995428865206L687.7192317307693,229.81968950689858L688.2217451923077,233.15116216730794L688.7242586538462,218.82208922997754L689.6258269230768,226.78136263259694L690.4239365384616,220.3677496600696L691.310725,223.80519685529006L692.6852471153846,229.61898179856036L694.0893288461538,234.85378520478585L694.4440442307692,242.21236205551963L697.8138403846153,235.56844124128983L698.3163538461539,229.9513597410645L698.7301884615385,243.2490157174111L699.6613163461539,237.09865779468558L701.3609942307692,237.69025257526215L702.3512413461539,237.28495875656228L702.8537548076923,231.7799609485772L703.7405432692308,241.36916163682764L704.6568913461538,243.46639512525007L707.8493298076924,235.6701512512905L708.3518432692307,210.74156815286204L709.2681913461538,206.67907960467016L709.8150442307692,197.44297378661435L710.2584384615385,207.16941989334524L710.7609519230768,218.56464104472593L711.7364192307692,208.81227056583398L712.209373076923,214.22483690337162L713.0222625,194.11098618238583L713.5247759615385,202.96443010239736L714.4854634615384,191.43794679981815L714.9731971153847,191.9863232792908L715.4461509615385,201.892480091508L715.9930038461539,191.77214070763785L716.8650124999999,201.4191186737281L718.5203509615385,203.35417985555418L718.9637451923078,204.2510790786777L719.8800932692308,204.38977088895035L720.8112211538462,206.44474419924407L721.2546153846154,204.1185963741569L722.4517798076923,210.64216870237274L722.7917153846154,213.30515162139304L724.2549163461538,193.04921547568568L725.2599432692308,201.24750547203845L726.6640249999999,186.7057044390751L727.5360336538462,181.070352361657L727.9498682692308,175.25118755548917L728.8809961538461,179.41191189518813L730.5215548076923,194.58282199693306L731.3935634615384,199.741105885384L732.5907278846154,199.15530969500713L733.8322317307692,187.51206387428675L734.6599009615385,202.5458152874964L735.0885153846154,190.3553515531181L735.9605240384616,205.78063822993752L737.2315874999999,214.5818565889806L737.6897615384615,220.10158225050031L739.8180538461539,216.4391131170375L740.2614480769231,219.7174174560441L740.7491817307692,212.17443524571638L743.660803846154,223.24865497527256L744.488473076923,195.01179006702353L745.7151971153846,204.66135347329623L746.6611048076924,218.13549533931845L747.0749394230769,211.98662986833713L747.8878288461539,206.0021781040315L748.331223076923,213.04600291616902L748.7746173076923,208.86272891712045L749.2327913461538,203.1984076633118L749.6614057692308,205.11557784430687L750.4151759615385,212.1052508160063L750.9029096153846,202.98469422754886L751.8488173076923,200.9263968455309L752.3513307692308,191.52021041817528L752.7356057692308,189.52430611287988L754.4205038461539,198.29901877854556L755.3220721153846,209.63004292328085L756.0906221153846,200.98223018884053L758.1450153846154,211.91873410100902L758.9283451923077,191.34375422772595L759.2978403846155,198.60802479982962L760.2585278846153,201.17442145691572L761.0861971153846,194.15869691379646L762.7710951923077,198.22145081740334L763.6283240384615,199.74072443501268L764.1160576923077,218.48431594056524L764.9732865384616,207.9050127563855L765.3723413461538,196.10120412236247L765.7566163461538,210.94563798427407L766.2739096153846,214.0259903173824L766.6877442307692,222.789989629958L767.1163586538462,220.93821218899288L767.8701288461539,209.12322786065198L768.2544038461539,214.41104704676818L768.5943394230769,218.5210540476461L769.0081740384616,207.18171013434238L769.8210634615384,209.77754952944468L771.0034480769231,222.05746879513867L771.7424384615384,228.2213753037814L772.1562730769231,220.82859804073846L772.5405480769231,232.4078181872946L773.7968317307692,240.71214471980355L774.6245009615385,244.028044448077L777.2996461538462,253.51970329539907L780.1078096153846,232.92455006245208L781.1571759615385,247.35716861321717L781.5562307692308,256.9885410213203L782.0439644230769,260.291580245422L782.4282394230769,250.04723039286444L783.6401836538462,244.50494449902482L784.4087336538461,245.19714205985048L784.837348076923,227.97308329875074L785.2511826923077,227.30055542689266L785.6502375,228.36126041666213L786.5074663461538,214.99899340296238L786.9656403846154,212.62074915542644L788.5175201923076,201.02931907554083L789.3747490384616,192.4316264166114L789.7442442307693,193.71613746473395L790.1876384615384,184.25863057926477L790.5719134615384,186.3803159826257L790.9414086538461,202.1027123934968L791.2813442307693,201.77565665891987L791.7099586538461,204.89012777905268L792.1090134615384,231.02160282444086L793.0105817307692,225.89280186159564L793.4096365384615,227.22389652372198L794.2520855769232,239.05569961382818L794.6511403846154,242.27367659117388L795.8483048076923,240.52870841046973L797.1932673076923,243.00634712717283L797.6218817307692,253.53368755872975L798.0357163461539,268.9287101416395L798.4938903846154,248.60205375208136L799.2772201923077,242.49161007443362L799.7058346153846,231.66686312845582L801.1690355769231,239.69652489415867L802.4696586538462,231.46340878511478L803.5781442307692,216.307583166455L804.3762538461539,214.0198496900371L805.6177576923077,228.79460859868283L806.2976288461538,245.7186713569907L806.6966836538461,255.0986520208154L807.3765548076923,266.9468531408861L807.8199490384616,262.5925624411735L808.2190038461538,250.1413990105335L808.6328384615384,250.99589984944555L809.0466730769231,254.56507984527883L809.8300028846154,239.55514241800813L810.1994980769231,237.96189106521336L810.5689932692308,244.20665298618368L810.864589423077,248.6932376383594L811.5444605769231,250.9239839871376L812.7268451923077,243.5012581626412L813.1259,233.67304831613524L813.4658355769232,231.08457226690584L814.5447615384616,230.97659138719243L815.195073076923,229.11536406006326L815.6089076923076,240.09847973309326L815.9488432692307,233.46453505552049L816.3183384615385,232.1342509671735L818.2101538461538,229.62216563129567L819.7915932692307,244.92687168316246L820.2054278846153,251.794721987875L820.574923076923,255.250688990598L820.9444182692308,262.26556253434165L821.6686288461539,266.4157453877626L822.0085644230769,273.13591217877456L822.4223990384615,264.81088658802094L823.2057288461539,251.33962530587786L823.9742788461538,243.9371161823199L824.3733336538462,249.10557517900412L824.7723884615385,221.94364118484657L825.4670394230769,237.3092224015139L826.2503692307693,238.3836660756522L826.5755250000001,238.96700276578997L826.9450201923077,243.83967631462767L828.2013038461539,249.59378727326768L828.8368355769231,232.10604416939182L829.2358903846155,234.31225209466768L829.9453211538461,239.48701138201565L831.6006596153846,229.6745110380232L831.9849346153846,235.98657604770807L832.723925,226.60183374957163L833.4629153846154,226.15196161253465L834.1427865384616,230.47675278601133L836.4484365384616,229.29339802699795L838.3993711538461,206.3175101873483L838.7984259615384,219.43105265462248L839.5226365384616,214.42933950111023L840.9710576923077,215.4305496469469L841.325773076923,225.46507789883367L841.9908644230769,224.18113226654046L842.3751394230769,224.45164938115366L843.4392855769231,212.9443753784508L844.207835576923,226.74225751163513L844.6216701923076,181.42749484769848L845.0207250000001,190.02506326426965L845.7744951923078,202.36924406069397L848.1540442307693,198.34703821767135L848.4792,205.82981410424654L849.1738509615385,197.1857987233998L850.3266759615384,186.10927568173278L850.6666115384616,195.21181742872602L852.2037115384616,205.40348194171224L853.7703711538461,222.92614283302544L854.1989855769231,220.67760515390108L854.8936365384616,235.83077239513656L855.3222509615384,229.83727762641212L855.6326269230769,240.6468738025198L856.7558923076923,251.61279415743928L857.1845067307692,246.64234803433524L858.2486528846155,252.53210742457148L858.618148076923,235.62814479604378L859.0911019230768,239.4312848892569L860.1404682692307,240.0377685055497L860.539523076923,242.23738853278124L860.9237980769232,241.41152087018742L862.7417144230769,234.90548318550748L863.1555490384616,243.7079117705421L863.4511451923078,259.47838877171364L864.1457961538462,265.6181095330365L865.2986211538462,260.9327234728365L865.6385567307692,263.91644712154164L866.0819509615384,255.73668400456975L866.495785576923,241.073537990333L868.2398028846154,237.17522724494577L868.6240778846153,251.3125591649285L870.5750125,259.6819830968674L871.6982778846154,251.03859311014176L872.0382134615385,262.37859727455384L872.4224884615385,265.0325876509659L872.8067634615384,256.06056812091174L873.220598076923,254.50354741320433L873.9743682692307,249.3275122342977L874.2995240384615,256.11203220283153L875.0532942307693,259.3762356711909L875.7922846153846,259.34030853291347L876.147,266.1664927090186L878.1570538461538,240.5648500005038L878.5117692307692,248.28103766223745L880.0340894230769,241.06143223813078L880.3592451923076,234.91341319800847L880.6548413461538,240.5167893266046L880.9947769230769,257.830860671343L881.9850240384616,245.75380717934686L882.2658403846153,248.9739369759545L883.6403624999999,240.240177804023L884.4828115384615,244.41651911643578L884.8375269230769,244.5931773366195L885.1774625,249.5410953834741L885.5321778846154,258.97653547831726L885.901673076923,260.752743269547L886.2268288461539,259.8854617356368L887.7934884615385,269.3565533678678L889.8478817307692,270.4821169574959L890.1878173076923,286.4451198979534L891.2371836538462,286.4902924330694L891.4884403846154,275.3957796774609L891.7840365384616,266.44931228929414L892.4934673076923,259.80635365846473L892.7595038461538,264.5306646792851L893.4541548076922,262.45290894315565L893.8827692307692,254.5284928691023L895.7745846153847,251.9569222988528L896.1293,226.35937453922872L896.469235576923,207.32808156474678L896.8830701923076,213.87219476006177L897.9915557692308,212.5626898667567L898.390610576923,225.07781626143804L900.4745634615384,231.0797163810976L901.1692144230769,244.5419077411825L903.6078826923076,240.0072275488883L906.1500096153846,241.5366905435381" style="fill: none;" fill="none"></path></g></g></g></g><g opacity="0.20000000298023224"><g><g><g><path stroke="rgb(255, 112, 67)" stroke-width="2px" d="M74.50501057692308,144.32534200826802L75.68739519230769,141.7861819982768L76.86977980769231,-145.5941014091245L77.4609721153846,137.2323828977924L78.64335673076923,-244.68144051081515L79.82574134615385,-119.05390115345216L80.41693365384614,139.97264732418537L81.00812596153845,-52.935505884873066L81.59931826923076,127.1711987290825L82.19051057692307,185.23805831563084L82.78170288461538,273.2181742305541L83.3728951923077,27.337510597688322L83.9640875,-323.8396914397455L84.55527980769232,89.92864859436384L85.14647211538463,-501.8570670790091L85.73766442307692,200.53096013172367L86.92004903846154,-7.9767632684704495L88.10243365384616,151.24045799130542L88.69362596153846,268.66336009200586L89.87601057692308,-21.456468756493166L91.6495875,39.584959876188464L92.2407798076923,134.31550184828828L92.83197211538462,95.12949216730448L93.42316442307693,91.16204672170824L94.01435673076922,39.982431864693865L95.19674134615384,284.41827340016437L96.97031826923076,159.2590472295134L97.56151057692307,-3.6817988742696457L98.7438951923077,167.89575235535779L99.3350875,131.58433047121736L99.92627980769231,204.25454268247822L100.51747211538462,92.46569394172207L101.10866442307693,6.307867404190972L101.69985673076924,-68.87397190957904L102.88224134615385,97.06326655871027L103.47343365384616,-81.57852666283617L105.24701057692307,118.04757138535535L105.83820288461538,33.68056804523684L106.4293951923077,228.84341684689062L107.0205875,-142.0250584035922L107.6117798076923,106.8157099829969L109.38535673076923,53.20698215941451L109.97654903846154,218.2291638131366L110.56774134615384,269.7714010184639L111.15893365384615,207.33019260247065L111.75012596153846,134.61489578387346L112.34131826923077,-241.45378864076008L112.93251057692306,75.32284296099698L113.52370288461537,227.21512661945314L114.1148951923077,-70.3637094413001L114.70608750000001,137.1140886701004L115.88847211538462,175.28256498532008L116.47966442307693,138.27491157587897L117.07085673076924,4.004746037299128L117.66204903846155,300.0847092237566L118.84443365384615,-28.946857562221567L120.02681826923077,103.95228760485594L120.61801057692308,67.48425380611292L121.80039519230769,-135.9992003509991L122.39158750000001,-52.8598855491158L123.57397211538462,100.0415997043304L124.16516442307692,118.25205926196992L124.75635673076924,319.41699730822154L125.34754903846154,154.94420500656207L125.93874134615386,116.87329922523065L126.52993365384614,344.63642157655255L127.71231826923076,157.3014617368596L128.3035105769231,-68.95635916576208L128.89470288461538,202.02915631397678L129.4858951923077,197.26955824604536L130.6682798076923,93.7179971530058L132.44185673076922,148.03868959187875L133.03304903846154,127.83021219204176L133.62424134615384,162.76004039151465L134.21543365384616,117.09094030342266L135.39781826923078,66.17950696152991L135.98901057692308,207.4659962367642L136.58020288461537,92.27237148380993L138.35377980769232,135.8827206188837L138.94497211538462,235.69517753744222L140.71854903846156,164.99511191487542L142.49212596153845,187.7739617451672L143.08331826923077,140.64426417643747L143.67451057692307,279.27418737229436L144.2657028846154,19.775223262436725L144.8568951923077,205.56131960318896L146.63047211538463,223.3648334837271L147.2216644230769,226.52287065990257L147.81285673076923,157.3218047913894L148.40404903846152,152.24627612608248L148.99524134615385,160.56379407409645L150.17762596153847,196.53725057622512L150.76881826923076,173.87771001168915L152.54239519230768,143.99194429754363L154.31597211538462,163.46329259675701L154.90716442307692,119.92653372131286L156.08954903846154,0.30019545024185845L157.27193365384616,95.62753751063701L157.86312596153846,208.1508931703518L158.45431826923075,143.510858548528L159.04551057692308,151.34559901741991L159.63670288461537,-41.49095171488392L160.2278951923077,146.04616987252714L161.41027980769232,295.5921930463776L162.00147211538462,70.34505400258894L162.59266442307694,214.46121564034092L163.18385673076924,149.83158515867171L164.36624134615383,181.08088533859862L164.95743365384615,-241.570095085577L165.54862596153845,143.0438987459011L166.73101057692307,288.7279558462911L167.3222028846154,63.559101613177404L167.9133951923077,318.94462396925405L169.0957798076923,136.65727924811202L169.6869721153846,166.8150751633712L170.86935673076923,221.7863647079239L171.46054903846155,263.27570722206286L172.64293365384617,171.4519805053339L173.23412596153847,312.7244284206849L173.8253182692308,227.61826590381506L175.00770288461538,137.3801978158416L175.59889519230768,134.65710445002884L177.37247211538462,292.3374734946197L177.96366442307692,49.24964480120417L178.55485673076925,242.92478614726465L179.14604903846154,196.44230222400182L180.32843365384613,270.495503797268L180.91962596153846,-35.36274399085181L182.10201057692308,159.91171670457356L183.2843951923077,192.4883060327517L183.8755875,283.68105971303544L184.46677980769232,134.50645588405138L185.05797211538462,210.7481641094989L186.24035673076924,85.73455360775881L186.83154903846153,314.0837758544529L188.60512596153848,303.78642616288556L190.9698951923077,258.6012031784848L191.56108749999999,110.45995039176L193.33466442307693,134.56735816788284L193.92585673076923,235.98357522733565L195.10824134615385,177.89683781203678L195.69943365384617,52.73993777028221L196.29062596153844,178.7942160469918L196.88181826923076,172.88500278523685L197.47301057692306,-115.88072299282408L199.2465875,295.2793498564463L199.8377798076923,236.22312421040593L200.42897211538462,271.17261877236604L201.02016442307695,200.35096004839966L202.79374134615384,40.49933999871308L203.38493365384616,75.47078475880414L203.97612596153846,104.14823224443307L204.56731826923078,64.02035182669516L205.15851057692308,230.72237918284816L205.7497028846154,211.53177349479662L206.9320875,165.70449664175354L207.5232798076923,177.0681015261501L208.11447211538461,63.06625833992206L209.29685673076924,239.1989197608664L209.88804903846153,-33.830628619964784L210.47924134615386,139.19893456001026L211.07043365384615,305.6859430196362L211.66162596153848,171.91246944030377L212.25281826923077,187.23514570626972L212.84401057692307,15.411743798925556L214.0263951923077,-35.72858062636698L214.61758749999998,234.79192054036736L215.7999721153846,268.8790556805755L218.16474134615385,-56.90548892562896L218.75593365384614,175.378063149828L219.93831826923076,259.5904423582189L220.5295105769231,216.0378658062797L221.12070288461538,45.07859963729919L221.7118951923077,168.87302254458888L222.3030875,218.2913771878005L222.89427980769233,-119.9388451721249L223.4854721153846,41.27262983036161L224.66785673076922,206.92591140028688L226.44143365384616,216.76188399857847L227.03262596153846,235.5563287889571L227.62381826923078,290.96378864819974L228.21501057692308,-79.97425900291L229.39739519230767,-165.17401648791804L230.565,29.3542220575618L231.74738461538462,149.33095992692685L232.91498942307692,121.60223468498305L234.09737403846154,102.66479640735855L234.68856634615386,85.55497645696141L235.27975865384616,36.490362579004056L235.87095096153845,301.21330467100773L236.46214326923075,274.51222088221397L237.64452788461537,209.0672610757515L238.2357201923077,-128.4988303376427L239.403325,226.8711978888162L239.9945173076923,223.66900655686294L240.58570961538462,297.4834204256067L241.7680942307692,241.96265694248606L244.72405576923074,168.41295654214565L245.9064403846154,257.89397540749235L246.49763269230772,210.18177286986662L247.6800173076923,249.72228459465256L248.27120961538463,113.99824620260796L248.86240192307696,7.799381252523688L249.45359423076923,345.5291475537149L250.04478653846152,187.465221000744L250.63597884615385,100.174908036717L251.21239134615385,88.11938553879116L251.80358365384618,-74.44906847531433L252.3947759615385,142.6947679451869L252.98596826923074,291.9372101514387L255.32117788461537,97.07071017117858L255.89759038461537,333.1726662698554L257.079975,5.137528516563691L258.7944326923077,319.6033836726973L261.1444221153846,145.11897489444632L261.72083461538466,181.20357806456738L262.3120269230769,94.8487918493953L262.90321923076925,240.7753161672892L264.08560384615384,187.12057328481185L264.6767961538461,229.64225180314617L265.26798846153844,351.6725385554522L265.85918076923076,193.29458460147552L266.4503730769231,260.620198474002L267.04156538461535,238.1678948475035L268.8151423076923,255.5302901027904L269.4063346153846,218.43399003577244L270.5591596153846,133.45436893086347L271.7119846153846,139.36066395818486L272.89436923076926,202.81208900723192L274.07675384615385,351.2461802753795L275.2591384615385,276.8579738477878L275.8503307692308,62.12337256510415L276.42674326923077,226.12565243091314L276.98837596153845,241.86707419147285L277.5795682692308,190.99345101745874L278.1559807692308,237.8034961825788L278.74717307692305,269.37244876611544L279.3383653846154,211.61204608834666L279.9147778846154,379.05678525447445L281.0823826923077,158.45386828535874L282.2647673076923,114.33041740900524L282.8559596153846,315.23668992198395L284.0235644230769,289.9797092452902L285.16160961538463,126.32647559369008L285.7380221153846,234.92704748261832L286.3144346153846,262.60104525561917L286.9056269230769,217.44322829894256L287.49681923076923,129.79397249958404L288.08801153846156,234.79069403604018L288.66442403846156,-207.53037068160154L289.2112769230769,-155.70954782099807L289.80246923076925,128.94142511244937L290.3936615384615,88.79066404502197L290.98485384615384,151.24202284165384L292.15245865384617,108.72753417627183L292.7436509615385,-65.7711697213785L293.91125576923076,-88.83571047339342L295.09364038461536,108.49767034806086L295.6700528846154,78.37425884721478L296.2464653846154,-8.260720166834517L296.8376576923077,50.07702770300568L297.42885,63.4026588715854L298.5521153846154,82.80532292847778L299.1285278846154,262.3043157949516L300.2961326923077,61.09061362838219L300.8725451923077,336.3378087124779L301.4489576923077,319.74176719540316L302.0105903846154,289.37791855318096L302.5870028846154,156.98747662910648L303.73982788461535,339.10602897887964L304.3310201923077,183.2809380487563L304.8926528846154,115.26569039834425L305.4690653846154,265.5241857065171L307.1983028846154,354.2970463493128L308.3067884615385,211.24836640871717L308.8979807692308,46.8091549496703L310.05080576923075,271.5839629477441L310.6419980769231,246.5325274789815L311.2036307692308,95.36202047043304L312.3860153846154,375.3205147279217L312.97720769230773,146.9610575140837L314.1152528846154,187.3933224712208L315.2976375,92.93383795542348L318.17969999999997,157.56752858934817L318.7708923076923,197.34344455844365L320.5444692307692,125.99722262172645L321.13566153846153,203.32586744055425L321.71207403846154,231.585499883148L322.2589269230769,223.80793989185338L322.8057798076923,188.37634454281377L323.9290451923077,81.74317018115659L325.0523105769231,271.613272171838L326.19035576923073,83.05210405775307L327.3727403846154,136.3103899897888L328.51078557692307,282.92168436151235L330.22524326923076,244.93058594795164L330.8164355769231,167.8077823898235L333.03340673076923,258.35586001980005L333.5802596153846,185.40202925619644L334.1566721153846,212.47584348068904L334.71830480769233,105.56907406756972L335.9006894230769,223.3613654370089L336.4623221153846,121.92556660157422L338.1767798076923,195.48960441456657L338.7531923076923,85.97790898356857L339.31482500000004,190.4568342276996L339.9060173076923,209.75338451366625L341.59091538461536,262.3632725891606L342.1673278846154,203.01475827398207L343.2905932692308,227.23187474750677L343.85222596153847,85.60192196741485L344.41385865384615,174.6203795284113L344.9607115384615,102.10436851635137L345.5371240384615,279.24081799594506L346.12831634615384,213.4572584086809L346.70472884615384,179.8718481247868L347.23680192307694,187.68396170350525L347.8279942307692,147.14723241229618L348.40440673076927,335.39200470322635L348.95125961538463,129.5348840337845L349.5128923076923,181.55347014382943L350.10408461538464,146.93796539813096L350.63615769230773,201.17051869845898L351.1830105769231,65.39369832709383L352.8974682692308,40.52336256622442L353.4295413461538,404.1315877453321L355.69085192307693,186.7280073136151L356.2672644230769,207.46967574974568L358.528575,141.71885114004093L360.2430326923077,261.37090370872966L360.78988557692304,113.69102801528055L361.86881153846156,145.959680170836L362.38610480769233,56.81324322728818L364.08578269230765,273.65087649852586L364.67697499999997,123.70932682579246L365.2681673076923,127.48564906261493L367.0121846153846,50.95495104173682L367.58859711538463,178.8153203800695L368.7118625,23.39510275766719L370.9731730769231,340.6151368203192L371.52002596153847,305.3192605190678L372.61373173076925,230.28938086210775L373.7222173076923,209.88161765573355L374.28385000000003,96.68406525535431L374.8307028846154,172.2242130056659L375.4071153846154,250.5453535846827L375.9687480769231,247.09993375667764L376.5599403846154,181.74260556972814L377.72754519230773,146.97683289732618L378.3187375,290.18842644717085L378.89515,46.00338389997836L379.4567826923077,123.25788864689198L380.0184153846154,157.42677664449332L380.5652682692308,146.3342292163993L381.11212115384615,195.7438714495628L383.2847528846154,142.5244530167222L383.8316057692308,252.51021351679412L384.37845865384617,13.502457200810284L387.7039153846154,278.4877443390684L388.84196057692304,3.344971295791993L389.38881346153846,244.6868076396153L389.95044615384614,263.6341425383624L390.54163846153847,330.50958702956825L391.10327115384615,125.72058245607269L391.66490384615383,305.2293450639112L392.24131634615384,144.48402629225103L392.8029490384615,153.25116380930106L393.34980192307694,288.32151768822166L393.92621442307694,268.0472319872446L394.4878471153846,207.86816277631493L395.06425961538463,68.99611070897544L395.6258923076923,171.5406271629108L396.17274519230773,66.25390079296011L396.7639375,176.46064353818429L397.31079038461536,-143.25926010273713L397.8724230769231,99.49563610573324L399.0104682692308,252.43214017238245L399.5868807692308,358.2430914090627L400.16329326923073,169.4438122824979L401.27177884615384,150.14354019029713L402.3950442307692,198.0697465863861L403.51830961538457,115.54372624133578L404.1095019230769,-75.03322288106415L405.72050096153845,133.4208726747562L406.29691346153845,204.0617700368507L406.8733259615385,289.594925232583L407.96703173076924,370.4601741321525L408.5286644230769,280.49020297279526L409.1050769230769,266.1370149375708L410.1987826923077,258.75405099360063L411.27770865384616,300.197970554382L411.80978173076926,286.2316389012451L412.3566346153846,159.59274099300643L413.46512019230767,271.30448913416217L413.98241346153844,232.8910502995316L415.12045865384613,161.8619431712644L415.6525317307692,152.94208471885656L416.19938461538464,177.0919972139034L416.77579711538465,326.9885891590585L417.3522096153846,194.2605624922462L417.91384230769233,279.51136793321564L418.4606951923077,109.45112943604403L419.5987403846154,308.7667950097059L420.1308134615385,284.4878880940439L420.69244615384616,130.47895401967696L422.3773442307692,183.70450497415334L422.8946375,258.666377080835L423.4267105769231,263.5365720044741L425.12638846153845,170.81051874222888L426.2053144230769,268.0250703228504L426.75216730769233,365.87537407746777L427.2990201923077,158.21300821145599L428.36316634615383,240.11304612387508L428.9247990384616,260.1348411064676L429.4864317307692,-9.071397233835057L430.04806442307694,290.8037086868789L430.5949173076923,286.1397356632134L431.6590634615385,192.542864328684L432.81188846153844,-106.7583221534241L433.92037403846155,-91.90518557849737L434.4820067307692,309.5418188647135L435.0288596153846,124.65009793797736L436.6989778846154,233.5907921648031L438.9602884615385,269.17274002705153L439.50714134615384,172.49814640314935L440.0392144230769,223.52178374435098L440.5712875,271.44409916119514L441.1033605769231,101.15179758667415L442.1970663461538,324.7742413295015L443.2612125,116.22084121643383L444.85743173076924,108.9189957310669L445.3895048076923,4.810178740969775L446.5571096153846,75.20746696773853L447.6655951923077,252.63612052996507L448.21244807692307,218.6887222965479L449.88256634615385,250.46047102659264L450.9319326923077,127.50129756609937L451.4492259615385,166.18934649025599L451.98129903846154,141.969523248561L452.51337211538464,148.61172087217872L453.5775182692308,256.9107841628887L454.1243711538462,191.9882306132914L454.65644423076924,-30.071096804448644L455.2180769230769,230.05101609011197L455.76492980769234,142.3388279307943L456.2822230769231,28.090161322038398L456.7699567307692,172.20099400995517L457.33158942307693,299.2692530192054L457.8784423076923,186.20154090449455L458.44007500000004,-12.795487303621542L460.0806336538462,324.94413332543957L460.62748653846154,134.3300084339509L461.73597211538464,147.75617066410513L462.77055865384614,307.89305870298824L463.87904423076924,312.3977976303862L464.4258971153846,90.92736146269391L464.98752980769234,229.2248596926376L465.5196028846154,-153.54810885051972L466.06645576923074,296.26101854395415L466.6280884615385,213.83172286773888L467.17494134615384,208.53834165797662L467.70701442307694,155.12492407518133L468.8007201923077,139.83955045806212L469.33279326923076,268.22524428769356L470.44127884615386,265.40157756705366L471.0029115384615,87.41181942177741L471.56454423076923,165.27585452603725L472.6434701923077,344.8403173476298L473.20510288461537,213.1925872335302L474.25446923076925,337.2881380997641L474.7569826923077,206.90116984748036L475.348175,304.3665627096326L475.88024807692307,111.65917557095457L476.41232115384616,232.1109512542047L476.9591740384615,110.27669372798113L477.50602692307694,73.22036078472757L478.06765961538457,238.33706785814638L478.6145125,379.59179490063246L479.16136538461535,395.9686727824194L479.66387884615386,179.02238814509636L481.18619903846155,138.78907064847527L482.32424423076924,356.23712243536505L483.3588307692308,237.61249985356304L484.98460961538456,60.351116105609606L485.5314625,323.21070207188757L486.03397596153843,380.5957521322925L486.53648942307694,21.726803113212725L487.05378269230766,321.0417349024355L488.16226826923076,152.77735249974307L488.7239009615385,-102.99785988634943L489.2855336538462,142.18758725927958L489.8471663461538,289.60710568934934L490.3053403846154,260.42729894861645L490.83741346153846,227.0731904635238L491.3547067307692,236.2711693454285L491.88677980769233,197.83806414831068L493.95595288461544,191.81474369087715L494.4880259615385,245.0615681514419L495.55217211538456,181.49527462816832L496.5867586538461,98.44959708767584L497.14839134615386,89.24540109763001L498.24209711538464,-76.51314837816784L498.81850961538464,209.35506666010767L499.32102307692304,307.4003423094909L499.79397692307685,182.36956074717057L500.3556096153846,297.01929427090806L500.8729028846154,236.24845786874968L502.4100028846154,208.98352043548329L502.92729615384616,-57.43770721711138L503.4741490384616,224.4146366012713L507.1691009615385,83.14223097917301L507.70117403846155,267.5172552381532L509.2530538461538,250.52653308724868L510.80493365384615,42.28758330771342L511.33700673076925,213.8662764551627L511.8690798076923,79.18705057684838L513.4357394230768,272.54905268020894L514.544225,228.78116117897406L515.0910778846154,148.50569168775834L515.6231509615385,179.79089883919423L517.2637096153846,313.1992547683067L517.7810028846154,123.77513512693255L518.2982961538462,178.56198379663184L518.8451490384616,97.56537205429828L519.3920019230769,157.5136046922058L519.8945153846154,323.82255855813014L520.4265884615385,193.5187388405773L520.9734413461539,223.60666630244103L523.0278346153847,323.81625686348366L523.5599076923077,107.16458702419516L524.6388336538462,235.83859395721473L525.2300259615386,232.1915199005234L525.7473192307692,58.377543763450035L526.7375663461539,240.7662654112198L527.2548596153846,195.69333101263325L527.7869326923077,214.88829290570882L528.8362990384616,136.09947353876987L529.4274913461538,177.74390541041566L529.9595644230769,285.02458947030834L530.4916375,105.65044628568893L531.0384903846154,121.25394974932209L531.5557836538461,281.9023323858838L532.073076923077,366.7049562284077L533.1520028846154,74.60326556022756L535.2211759615385,356.18933105985843L535.7089096153846,68.69663218688493L537.3051288461538,189.0128579953575L537.8372019230769,227.23187474750677L538.3544951923077,140.5408148804294L538.8865682692307,266.9215970676797L539.8620355769231,51.13359774097563L540.9409615384615,257.01727857308845L541.4878144230769,321.5552595762419L541.975548076923,174.08909168848737L542.4928413461539,235.571173720641L543.0396942307692,263.47393569728365L543.5865471153846,347.0846088000706L545.0201884615385,256.16671896882883L545.5818211538461,276.6733637999238L547.1780403846153,179.01096896687798L547.6657740384614,325.8024748881888L548.7151403846153,216.84905039231217L550.2818,107.91761838781918L552.3509730769231,259.7360157338771L553.2968807692307,190.6140382478395L553.784614423077,117.83022635993194L554.2575682692308,178.4463963371101L554.7305221153846,172.70656755226136L555.277375,289.9445212590765L556.3415211538462,346.9631002851764L556.8440346153847,296.2176679599769L557.3908875000001,217.81079895781684L558.4106942307693,342.00992599981686L558.9427673076923,366.5672493977444L559.9773538461538,157.40770238754337L561.957848076923,150.33715870097788L563.5392875,221.54537775426317L564.0565807692308,243.07141685423932L564.5886538461539,249.29892913551882L566.1109740384614,325.36262506051736L566.5839278846155,307.3445152159788L567.6480740384616,215.00861720952858L568.1949269230769,215.74020589405362L569.1851740384616,297.19895600821076L569.6729076923076,138.89522671265368L570.1458615384615,29.745434644673367L571.2247875,338.6940081114589L572.1559153846154,298.31482118641105L573.6486759615384,339.7657191338814L574.1216298076923,265.8023061360139L575.1562163461539,280.55131672288996L575.6735096153847,359.185681131112L576.2203625,230.05685255897916L576.6785365384615,4.920141197887631L577.7574625000001,365.5937010147474L578.333875,187.4216166572508L578.8807278846153,207.9715697790704L579.4128009615384,28.20883618900433L580.4178278846155,-105.11463718201816L581.4080749999999,298.08144701822926L582.4574413461538,122.36330176661255L582.9156153846153,264.8548526899086L583.3885692307692,170.0095268300876L584.4379355769231,239.93084679141273L584.9256692307692,308.77948298550416L586.8174846153846,282.5849454838277L587.3643375,259.59179574230404L587.8520711538462,196.84582214763768L588.4137038461538,382.13184306892964L588.9605567307692,225.84605173757316L589.9360240384615,204.5668783533776L590.4533173076923,272.2560873190282L591.4879038461538,52.343861459114635L591.9904173076923,129.28065929204095L592.4485913461538,252.0807255360246L592.9511048076923,105.57584098799543L593.4536182692308,316.03848540592577L593.9856913461539,91.5148570354039L594.5029846153845,225.4616906573926L594.9759384615385,248.34851516172722L597.0007721153846,210.80043856978753L597.9171201923077,158.286175538559L598.8925875,264.03512486683866L599.3655413461539,316.2334573006916L599.8089355769231,23.461841510365844L600.7991826923077,99.4030138824063L601.3312557692308,155.89115093363546L602.2919432692308,-13.052968625819915L603.8290432692307,200.81559372213025L604.3611163461538,175.09689760613952L604.8636298076923,293.6632400857751L605.4104826923076,-54.86881505049968L605.8686567307693,169.0767914359082L606.9032432692308,234.79238576614662L607.4500961538462,317.67599556244323L610.5242961538462,288.34795097113454L610.99725,288.1195674067667L611.9431576923076,208.18003322143502L612.4604509615385,234.35680755699394L612.9629644230769,217.4719454174992L613.3767990384615,211.96976241935096L613.8940923076923,328.0902438043648L614.3818259615385,333.2022715467179L614.9138990384615,343.4968298836096L615.8893663461539,191.1261249510554L616.3327605769231,190.66356364670517L616.8500538461539,231.99591360696758L617.382126923077,412.12171362449953L618.2541355769231,254.03606948628737L618.7418692307692,336.3006752366418L619.1704836538462,265.2455577579883L619.7321163461539,119.7556689805636L620.2050701923077,100.4162756296517L620.7223634615384,352.940786322989L623.1610317307693,334.16156710356825L624.5946730769231,117.2577871851692L625.5701403846153,225.8680019357041L626.0874336538461,333.3330845771975L626.5603875,344.9246500934353L627.0185615384615,148.6804051144997L628.4965423076924,363.1827318535708L629.4867894230769,188.0321197594082L630.8317519230769,283.42002575761353L631.3490451923077,281.3782766921649L632.8270259615385,324.1237711035797L633.2704201923077,19.64580590929495L635.2656942307692,326.89313328780327L635.8125471153846,205.0123531836529L637.1722894230769,71.92424176368735L637.6748028846154,92.07346631654661L638.1920961538461,342.37424007823626L639.0493250000001,54.50305888720203L640.438626923077,213.4407217468906L641.3845346153846,115.80196884208209L641.8722682692307,211.79331496925047L642.3452221153847,384.77525594672954L642.8033961538462,272.14181095033894L643.3059096153846,186.65648942336583L643.7640836538461,-14.872508941789192L644.2222576923076,290.51687584733395L644.6065326923077,329.3660197708752L645.5228807692307,365.6341756575437L645.9514951923077,193.22636558493377L647.8137509615384,227.604562889953L648.7448788461539,283.7582026058886L649.2621721153846,187.34967583447497L650.2671990384615,318.7893654387365L651.7008403846154,211.11586164813116L652.1442346153847,359.7711466276943L652.6319682692308,343.3562048185127L653.0901423076923,295.63947690285227L655.57315,20.723776333111232L656.0756634615385,235.34723094780253L656.5486173076923,307.21805839052325L656.9920115384615,182.05544875965944L658.4256528846154,258.5543845477894L659.2533221153845,276.020778911369L659.6967163461538,313.2429859915579L660.1696701923076,230.30963933013226L660.5982846153846,200.992633277768L662.105825,45.92218085486985L663.0960721153846,17.17748709751038L664.0419798076923,348.2488997525674L664.9287682692308,332.8951379458958L665.3869423076924,190.26841778709613L666.8501432692308,339.62158372881373L667.825610576923,231.44529775057774L668.3133442307692,218.34682364203871L668.7271788461538,183.21572185315347L670.1460403846154,94.5486789285149L671.1215076923077,171.5772108264623L672.1117548076924,266.389167309934L673.5453961538461,245.49287474207586L674.0331298076924,328.42419132737376L674.5060836538462,203.55712694610307L674.9642576923077,272.4601099698635L675.9101653846153,219.65173965963237L676.3535596153846,242.91890738514482L677.7428615384616,195.75110359576774L680.0780711538462,399.91285693905223L681.0683182692308,209.54466731178562L681.5264923076924,364.3677464998713L681.9846663461539,202.98363044002377L682.8418951923077,396.6544155810602L683.7730230769231,164.9239746639001L685.4727009615385,234.95639899996488L686.8176634615385,228.44970895787202L687.2758375000001,168.5984970415682L687.7192317307693,125.49088780087234L688.2217451923077,262.4811861775787L688.7242586538462,92.67005493857863L689.6258269230768,296.85418141252063L690.4239365384616,163.90280407840714L691.310725,254.0682123583095L692.6852471153846,280.8030884559792L694.0893288461538,280.9405838203792L694.4440442307692,306.99669550609707L697.8138403846153,177.0758834846397L698.3163538461539,180.49901476849254L698.7301884615385,360.320535979757L699.6613163461539,182.95138902402402L701.3609942307692,242.89860662386766L702.3512413461539,233.71678376447935L702.8537548076923,183.3143920116109L703.7405432692308,325.79173240201294L704.6568913461538,261.93027426842025L707.8493298076924,167.03263165505794L708.3518432692307,-8.727722262714053L709.2681913461538,170.91324905294175L709.8150442307692,116.12902256490742L710.2584384615385,292.80028855848593L710.7609519230768,318.8872743186461L711.7364192307692,122.95316576147158L712.209373076923,261.87664642404644L713.0222625,17.030221991745748L713.5247759615385,280.9094559864209L714.4854634615384,89.95969184181678L714.9731971153847,196.81418679464747L715.4461509615385,289.10550771279327L715.9930038461539,102.67346652415398L716.8650124999999,286.35035606146374L718.5203509615385,220.39030673084642L718.9637451923078,212.14730949402065L719.8800932692308,205.610802708802L720.8112211538462,224.53656804869215L721.2546153846154,183.63937336505583L722.4517798076923,268.07518782725333L722.7917153846154,236.74984437904246L724.2549163461538,14.717542349752591L725.2599432692308,273.4246075967911L726.6640249999999,58.68082867828002L727.5360336538462,131.4571546604666L727.9498682692308,124.01971700706943L728.8809961538461,216.04260265057772L730.5215548076923,328.1463246573929L731.3935634615384,245.1542326680215L732.5907278846154,193.99800597972853L733.8322317307692,85.00584086441472L734.6599009615385,334.901783611636L735.0885153846154,83.03146495045462L735.9605240384616,341.5836523062495L737.2315874999999,292.0670927303598L737.6897615384615,268.6968140548605L739.8180538461539,184.1950221185123L740.2614480769231,248.57935173474942L740.7491817307692,145.76661147243982L743.660803846154,320.74521690803124L744.488473076923,-53.58335392912994L745.7151971153846,289.6153528736182L746.6611048076924,336.7607835323377L747.0749394230769,157.8525005257761L747.8878288461539,153.31553413985063L748.331223076923,275.0592841053803L748.7746173076923,172.03351272941873L749.2327913461538,153.33016760527124L749.6614057692308,221.99419375149864L750.4151759615385,273.64178344920384L750.9029096153846,122.68802936054152L751.8488173076923,182.8053081293339L752.3513307692308,108.7088828518485L752.7356057692308,171.95252115057343L754.4205038461539,275.55090087430847L755.3220721153846,309.38749078575455L756.0906221153846,124.84756513465027L758.1450153846154,308.20285677872795L758.9283451923077,10.203245147253313L759.2978403846155,262.5620931699186L760.2585278846153,223.76877633988957L761.0861971153846,132.39280828907957L762.7710951923077,233.9896175373936L763.6283240384615,213.11629020573025L764.1160576923077,383.50142546984154L764.9732865384616,114.76565727213665L765.3723413461538,92.18139869733676L765.7566163461538,341.6348694352217L766.2739096153846,241.14517066180713L766.6877442307692,299.9475522053779L767.1163586538462,204.63530883618265L767.8701288461539,105.10503249937636L768.2544038461539,260.9645924304182L768.5943394230769,254.70523332988517L769.0081740384616,107.35101568192357L769.8210634615384,232.63111596867884L771.0034480769231,330.1689148793862L771.7424384615384,282.48792476222405L772.1562730769231,155.74316684257565L772.5405480769231,334.35036418344566L773.7968317307692,313.8227841922836L774.6245009615385,273.2209655852297L777.2996461538462,337.0835233433916L780.1078096153846,51.60643630572241L781.1571759615385,374.4208103640703L781.5562307692308,341.78238830050225L782.0439644230769,289.3712785125132L782.4282394230769,159.85677776936728L783.6401836538462,195.71109417875073L784.4087336538461,251.2911950953544L784.837348076923,76.33382087259866L785.2511826923077,221.37967279033847L785.6502375,237.69962395404409L786.5074663461538,97.35864263529271L786.9656403846154,191.68287332908105L788.5175201923076,98.97927778399861L789.3747490384616,116.73821457623234L789.7442442307693,205.02487198644047L790.1876384615384,100.99548172484015L790.5719134615384,205.05946786711692L790.9414086538461,340.52145726567574L791.2813442307693,198.89628362313442L791.7099586538461,232.3096872484574L792.1090134615384,461.0810595965844L793.0105817307692,180.73924044360538L793.4096365384615,238.94274952950045L794.2520855769232,343.22196603456763L794.6511403846154,270.60449350937466L795.8483048076923,225.16614540779955L797.1932673076923,264.8192840644209L797.6218817307692,346.21556704439826L798.0357163461539,404.46528150882517L798.4938903846154,69.64776514597173L799.2772201923077,188.69574318690746L799.7058346153846,136.36664001582758L801.1690355769231,310.3890373020129L802.4696586538462,158.97970029568938L803.5781442307692,82.87688311197968L804.3762538461539,193.87882359373063L805.6177576923077,358.87042722577905L806.2976288461538,394.7167925036623L806.6966836538461,337.67926610037046L807.3765548076923,371.2574865313122L807.8199490384616,224.2577286339001L808.2190038461538,140.52233272901665L808.6328384615384,258.5188582155544L809.0466730769231,285.98786059290876L809.8300028846154,107.4088305583108L810.1994980769231,223.9350311160988L810.5689932692308,299.1850471531579L810.864589423077,288.1927770271224L811.5444605769231,270.5632998812831L812.7268451923077,178.15216217834953L813.1259,147.146259667485L813.4658355769232,208.29583214722007L814.5447615384616,230.0259361912842L815.195073076923,212.72926465063208L815.6089076923076,336.79296869761254L815.9488432692307,175.0598064235561L816.3183384615385,220.4225341893739L818.2101538461538,207.50596336052857L819.7915932692307,379.6683033946957L820.2054278846153,312.25873741563777L820.574923076923,285.6767514263365L820.9444182692308,324.02395902730046L821.6686288461539,302.95362972474345L822.0085644230769,332.2997335349383L822.4223990384615,191.5180142302096L823.2057288461539,132.73969754740273L823.9742788461538,178.76600644746713L824.3733336538462,294.6082828164788L824.7723884615385,-17.187895351952648L825.4670394230769,372.5865942894278L826.2503692307693,247.84298391267373L826.5755250000001,244.10265323386554L826.9450201923077,286.7383120681205L828.2013038461539,300.2525288503143L828.8368355769231,78.14532547056234L829.2358903846155,253.73553363288033L829.9453211538461,285.04518628435414L831.6006596153846,143.28602761738367L831.9849346153846,291.5575013290508L832.723925,143.97929861499807L833.4629153846154,222.19132260215025L834.1427865384616,268.55187507799224L836.4484365384616,218.8752355407817L838.3993711538461,4.039595677491548L838.7984259615384,334.88165202336955L839.5226365384616,170.39464918881606L840.9710576923077,224.24512524460715L841.325773076923,313.808277606621L841.9908644230769,212.87737562144986L842.3751394230769,226.83326084117954L843.4392855769231,111.63523758994859L844.207835576923,348.21772962535647L844.6216701923076,-217.52012154656745L845.0207250000001,265.7173812846712L845.7744951923078,311.04644362137105L848.1540442307693,162.93585344282528L848.4792,271.7075861252714L849.1738509615385,121.08456527241589L850.3266759615384,88.59243556980124L850.6666115384616,275.3498810444121L852.2037115384616,295.13009696780665L853.7703711538461,377.19427499380197L854.1989855769231,200.8816557827863L854.8936365384616,369.23806830326845L855.3222509615384,177.07101976058368L855.6326269230769,335.8137107255063L856.7558923076923,348.15589688996647L857.1845067307692,202.8829302054386L858.2486528846155,304.385087154298L858.618148076923,86.80698361547655L859.0911019230768,272.91383198440764L860.1404682692307,245.37720269604878L860.539523076923,261.60267073331033L860.9237980769232,234.14064674264503L862.7417144230769,177.62683768705082L863.1555490384616,321.2038026466314L863.4511451923078,398.32043138987103L864.1457961538462,319.671729568997L865.2986211538462,219.68295208009596L865.6385567307692,290.1849161072L866.0819509615384,183.72269107279743L866.495785576923,111.98035053166001L868.2398028846154,202.85480519241924L868.6240778846153,375.7765205781095L870.5750125,333.36573496825156L871.6982778846154,174.94286557994926L872.0382134615385,362.2151045259463L872.4224884615385,288.39811076879016L872.8067634615384,177.07161186612092L873.220598076923,240.795659221819L873.9743682692307,203.75810448274677L874.2995240384615,315.8424138865907L875.0532942307693,288.11402699066815L875.7922846153846,259.02400882533396L876.147,326.26368280845384L878.1570538461538,15.16999556671692L878.5117692307692,316.21374864495175L880.0340894230769,177.50059232785858L880.3592451923076,180.78673576634336L880.6548413461538,289.84847328228403L880.9947769230769,410.26258682403983L881.9850240384616,139.4283754556946L882.2658403846153,277.3237071460876L883.6403624999999,163.3488470550571L884.4828115384615,281.1847004747368L884.8375269230769,246.14846245156957L885.1774625,293.10217779597804L885.5321778846154,342.0454100387992L885.901673076923,276.3903373531183L886.2268288461539,252.24998313317275L887.7934884615385,352.73930126731335L889.8478817307692,280.39149052108513L890.1878173076923,426.9821457855102L891.2371836538462,286.8879878892867L891.4884403846154,177.72055953494694L891.7840365384616,187.6853150875904L892.4934673076923,201.32226688900562L892.7595038461538,306.12312837239L893.4541548076922,244.16051040350538L893.8827692307692,184.76255527596643L895.7745846153847,229.31701669018528L896.1293,1.0005717143033053L896.469235576923,39.7780708678373L896.8830701923076,271.4860540678346L897.9915557692308,201.03391149236487L898.390610576923,335.2600074616723L900.4745634615384,283.91997429731583L901.1692144230769,363.0619846172244L903.6078826923076,200.0842587971212L906.1500096153846,255.00196279055274" style="fill: none;" fill="none"></path></g></g></g></g></g></g><g transform="translate(68, 377)" clip-path="url(#clip_1)"><clipPath id="clip_1"><rect width="960" height="22"></rect></clipPath><g><g><line x1="0" y1="0" x2="0" y2="5" style="visibility: inherit;" fill="rgb(0, 0, 0)" stroke="rgb(204, 204, 204)" stroke-width="1px"></line><line x1="73.89903846153847" y1="0" x2="73.89903846153847" y2="5" style="visibility: inherit;" fill="rgb(0, 0, 0)" stroke="rgb(204, 204, 204)" stroke-width="1px"></line><line x1="147.79807692307693" y1="0" x2="147.79807692307693" y2="5" style="visibility: inherit;" fill="rgb(0, 0, 0)" stroke="rgb(204, 204, 204)" stroke-width="1px"></line><line x1="221.6971153846154" y1="0" x2="221.6971153846154" y2="5" style="visibility: inherit;" fill="rgb(0, 0, 0)" stroke="rgb(204, 204, 204)" stroke-width="1px"></line><line x1="295.59615384615387" y1="0" x2="295.59615384615387" y2="5" style="visibility: inherit;" fill="rgb(0, 0, 0)" stroke="rgb(204, 204, 204)" stroke-width="1px"></line><line x1="369.4951923076923" y1="0" x2="369.4951923076923" y2="5" style="visibility: inherit;" fill="rgb(0, 0, 0)" stroke="rgb(204, 204, 204)" stroke-width="1px"></line><line x1="443.3942307692308" y1="0" x2="443.3942307692308" y2="5" style="visibility: inherit;" fill="rgb(0, 0, 0)" stroke="rgb(204, 204, 204)" stroke-width="1px"></line><line x1="517.2932692307692" y1="0" x2="517.2932692307692" y2="5" style="visibility: inherit;" fill="rgb(0, 0, 0)" stroke="rgb(204, 204, 204)" stroke-width="1px"></line><line x1="591.1923076923077" y1="0" x2="591.1923076923077" y2="5" style="visibility: inherit;" fill="rgb(0, 0, 0)" stroke="rgb(204, 204, 204)" stroke-width="1px"></line><line x1="665.0913461538462" y1="0" x2="665.0913461538462" y2="5" style="visibility: inherit;" fill="rgb(0, 0, 0)" stroke="rgb(204, 204, 204)" stroke-width="1px"></line><line x1="738.9903846153846" y1="0" x2="738.9903846153846" y2="5" style="visibility: inherit;" fill="rgb(0, 0, 0)" stroke="rgb(204, 204, 204)" stroke-width="1px"></line><line x1="812.8894230769231" y1="0" x2="812.8894230769231" y2="5" style="visibility: inherit;" fill="rgb(0, 0, 0)" stroke="rgb(204, 204, 204)" stroke-width="1px"></line><line x1="886.7884615384615" y1="0" x2="886.7884615384615" y2="5" style="visibility: inherit;" fill="rgb(0, 0, 0)" stroke="rgb(204, 204, 204)" stroke-width="1px"></line><line x1="960.6875" y1="0" x2="960.6875" y2="5" style="visibility: inherit;" fill="rgb(0, 0, 0)" stroke="rgb(204, 204, 204)" stroke-width="1px"></line></g><g transform="translate(0, 8)"><text x="0" y="0" dx="0em" dy="0.95em" style="text-anchor: middle; visibility: hidden; font-family: &quot;Helvetica Neue&quot;, sans-serif; font-size: 12px; font-weight: 200;" fill="rgb(50, 49, 63)" stroke="none" stroke-width="1px">-5k</text><text x="73.89903846153847" y="0" dx="0em" dy="0.95em" style="text-anchor: middle; visibility: inherit; font-family: &quot;Helvetica Neue&quot;, sans-serif; font-size: 12px; font-weight: 200;" fill="rgb(50, 49, 63)" stroke="none" stroke-width="1px">0</text><text x="147.79807692307693" y="0" dx="0em" dy="0.95em" style="text-anchor: middle; visibility: inherit; font-family: &quot;Helvetica Neue&quot;, sans-serif; font-size: 12px; font-weight: 200;" fill="rgb(50, 49, 63)" stroke="none" stroke-width="1px">5k</text><text x="221.6971153846154" y="0" dx="0em" dy="0.95em" style="text-anchor: middle; visibility: inherit; font-family: &quot;Helvetica Neue&quot;, sans-serif; font-size: 12px; font-weight: 200;" fill="rgb(50, 49, 63)" stroke="none" stroke-width="1px">10k</text><text x="295.59615384615387" y="0" dx="0em" dy="0.95em" style="text-anchor: middle; visibility: inherit; font-family: &quot;Helvetica Neue&quot;, sans-serif; font-size: 12px; font-weight: 200;" fill="rgb(50, 49, 63)" stroke="none" stroke-width="1px">15k</text><text x="369.4951923076923" y="0" dx="0em" dy="0.95em" style="text-anchor: middle; visibility: inherit; font-family: &quot;Helvetica Neue&quot;, sans-serif; font-size: 12px; font-weight: 200;" fill="rgb(50, 49, 63)" stroke="none" stroke-width="1px">20k</text><text x="443.3942307692308" y="0" dx="0em" dy="0.95em" style="text-anchor: middle; visibility: inherit; font-family: &quot;Helvetica Neue&quot;, sans-serif; font-size: 12px; font-weight: 200;" fill="rgb(50, 49, 63)" stroke="none" stroke-width="1px">25k</text><text x="517.2932692307692" y="0" dx="0em" dy="0.95em" style="text-anchor: middle; visibility: inherit; font-family: &quot;Helvetica Neue&quot;, sans-serif; font-size: 12px; font-weight: 200;" fill="rgb(50, 49, 63)" stroke="none" stroke-width="1px">30k</text><text x="591.1923076923077" y="0" dx="0em" dy="0.95em" style="text-anchor: middle; visibility: inherit; font-family: &quot;Helvetica Neue&quot;, sans-serif; font-size: 12px; font-weight: 200;" fill="rgb(50, 49, 63)" stroke="none" stroke-width="1px">35k</text><text x="665.0913461538462" y="0" dx="0em" dy="0.95em" style="text-anchor: middle; visibility: inherit; font-family: &quot;Helvetica Neue&quot;, sans-serif; font-size: 12px; font-weight: 200;" fill="rgb(50, 49, 63)" stroke="none" stroke-width="1px">40k</text><text x="738.9903846153846" y="0" dx="0em" dy="0.95em" style="text-anchor: middle; visibility: inherit; font-family: &quot;Helvetica Neue&quot;, sans-serif; font-size: 12px; font-weight: 200;" fill="rgb(50, 49, 63)" stroke="none" stroke-width="1px">45k</text><text x="812.8894230769231" y="0" dx="0em" dy="0.95em" style="text-anchor: middle; visibility: inherit; font-family: &quot;Helvetica Neue&quot;, sans-serif; font-size: 12px; font-weight: 200;" fill="rgb(50, 49, 63)" stroke="none" stroke-width="1px">50k</text><text x="886.7884615384615" y="0" dx="0em" dy="0.95em" style="text-anchor: middle; visibility: inherit; font-family: &quot;Helvetica Neue&quot;, sans-serif; font-size: 12px; font-weight: 200;" fill="rgb(50, 49, 63)" stroke="none" stroke-width="1px">55k</text><text x="960.6875" y="0" dx="0em" dy="0.95em" style="text-anchor: middle; visibility: hidden; font-family: &quot;Helvetica Neue&quot;, sans-serif; font-size: 12px; font-weight: 200;" fill="rgb(50, 49, 63)" stroke="none" stroke-width="1px">60k</text></g><line x1="0" y1="0" x2="960.6875" y2="0" fill="rgb(0, 0, 0)" stroke="rgb(204, 204, 204)" stroke-width="1px"></line></g></g></g></g></svg>