<svg viewBox="0 0 1029 400" xmlns="http://www.w3.org/2000/svg"><g><g><g><g><g><line x1="78.03125" y1="377.828125" x2="73.03125" y2="377.828125" style="visibility: inherit;" fill="rgb(0, 0, 0)" stroke="rgb(204, 204, 204)" stroke-width="1px"></line><line x1="78.03125" y1="348.7644230769231" x2="73.03125" y2="348.7644230769231" style="visibility: inherit;" fill="rgb(0, 0, 0)" stroke="rgb(204, 204, 204)" stroke-width="1px"></line><line x1="78.03125" y1="319.7007211538462" x2="73.03125" y2="319.7007211538462" style="visibility: inherit;" fill="rgb(0, 0, 0)" stroke="rgb(204, 204, 204)" stroke-width="1px"></line><line x1="78.03125" y1="290.6370192307692" x2="73.03125" y2="290.6370192307692" style="visibility: inherit;" fill="rgb(0, 0, 0)" stroke="rgb(204, 204, 204)" stroke-width="1px"></line><line x1="78.03125" y1="261.5733173076923" x2="73.03125" y2="261.5733173076923" style="visibility: inherit;" fill="rgb(0, 0, 0)" stroke="rgb(204, 204, 204)" stroke-width="1px"></line><line x1="78.03125" y1="232.5096153846154" x2="73.03125" y2="232.5096153846154" style="visibility: inherit;" fill="rgb(0, 0, 0)" stroke="rgb(204, 204, 204)" stroke-width="1px"></line><line x1="78.03125" y1="203.44591346153842" x2="73.03125" y2="203.44591346153842" style="visibility: inherit;" fill="rgb(0, 0, 0)" stroke="rgb(204, 204, 204)" stroke-width="1px"></line><line x1="78.03125" y1="174.38221153846155" x2="73.03125" y2="174.38221153846155" style="visibility: inherit;" fill="rgb(0, 0, 0)" stroke="rgb(204, 204, 204)" stroke-width="1px"></line><line x1="78.03125" y1="145.31850961538464" x2="73.03125" y2="145.31850961538464" style="visibility: inherit;" fill="rgb(0, 0, 0)" stroke="rgb(204, 204, 204)" stroke-width="1px"></line><line x1="78.03125" y1="116.25480769230768" x2="73.03125" y2="116.25480769230768" style="visibility: inherit;" fill="rgb(0, 0, 0)" stroke="rgb(204, 204, 204)" stroke-width="1px"></line><line x1="78.03125" y1="87.19110576923077" x2="73.03125" y2="87.19110576923077" style="visibility: inherit;" fill="rgb(0, 0, 0)" stroke="rgb(204, 204, 204)" stroke-width="1px"></line><line x1="78.03125" y1="58.12740384615387" x2="73.03125" y2="58.12740384615387" style="visibility: inherit;" fill="rgb(0, 0, 0)" stroke="rgb(204, 204, 204)" stroke-width="1px"></line><line x1="78.03125" y1="29.06370192307685" x2="73.03125" y2="29.06370192307685" style="visibility: inherit;" fill="rgb(0, 0, 0)" stroke="rgb(204, 204, 204)" stroke-width="1px"></line><line x1="78.03125" y1="0" x2="73.03125" y2="0" style="visibility: inherit;" fill="rgb(0, 0, 0)" stroke="rgb(204, 204, 204)" stroke-width="1px"></line></g><g transform="translate(68.03125, 0)"><text x="0" y="377.828125" dx="0em" dy="0.3em" style="text-anchor: end; visibility: hidden; font-family: &quot;Helvetica Neue&quot;, sans-serif; font-size: 12px; font-weight: 200;" fill="rgb(50, 49, 63)" stroke="none" stroke-width="1px">5e-4</text><text x="0" y="348.7644230769231" dx="0em" dy="0.3em" style="text-anchor: end; visibility: inherit; font-family: &quot;Helvetica Neue&quot;, sans-serif; font-size: 12px; font-weight: 200;" fill="rgb(50, 49, 63)" stroke="none" stroke-width="1px">5.5e-4</text><text x="0" y="319.7007211538462" dx="0em" dy="0.3em" style="text-anchor: end; visibility: inherit; font-family: &quot;Helvetica Neue&quot;, sans-serif; font-size: 12px; font-weight: 200;" fill="rgb(50, 49, 63)" stroke="none" stroke-width="1px">6e-4</text><text x="0" y="290.6370192307692" dx="0em" dy="0.3em" style="text-anchor: end; visibility: inherit; font-family: &quot;Helvetica Neue&quot;, sans-serif; font-size: 12px; font-weight: 200;" fill="rgb(50, 49, 63)" stroke="none" stroke-width="1px">6.5e-4</text><text x="0" y="261.5733173076923" dx="0em" dy="0.3em" style="text-anchor: end; visibility: inherit; font-family: &quot;Helvetica Neue&quot;, sans-serif; font-size: 12px; font-weight: 200;" fill="rgb(50, 49, 63)" stroke="none" stroke-width="1px">7e-4</text><text x="0" y="232.5096153846154" dx="0em" dy="0.3em" style="text-anchor: end; visibility: inherit; font-family: &quot;Helvetica Neue&quot;, sans-serif; font-size: 12px; font-weight: 200;" fill="rgb(50, 49, 63)" stroke="none" stroke-width="1px">7.5e-4</text><text x="0" y="203.44591346153842" dx="0em" dy="0.3em" style="text-anchor: end; visibility: inherit; font-family: &quot;Helvetica Neue&quot;, sans-serif; font-size: 12px; font-weight: 200;" fill="rgb(50, 49, 63)" stroke="none" stroke-width="1px">8e-4</text><text x="0" y="174.38221153846155" dx="0em" dy="0.3em" style="text-anchor: end; visibility: inherit; font-family: &quot;Helvetica Neue&quot;, sans-serif; font-size: 12px; font-weight: 200;" fill="rgb(50, 49, 63)" stroke="none" stroke-width="1px">8.5e-4</text><text x="0" y="145.31850961538464" dx="0em" dy="0.3em" style="text-anchor: end; visibility: inherit; font-family: &quot;Helvetica Neue&quot;, sans-serif; font-size: 12px; font-weight: 200;" fill="rgb(50, 49, 63)" stroke="none" stroke-width="1px">9e-4</text><text x="0" y="116.25480769230768" dx="0em" dy="0.3em" style="text-anchor: end; visibility: inherit; font-family: &quot;Helvetica Neue&quot;, sans-serif; font-size: 12px; font-weight: 200;" fill="rgb(50, 49, 63)" stroke="none" stroke-width="1px">9.5e-4</text><text x="0" y="87.19110576923077" dx="0em" dy="0.3em" style="text-anchor: end; visibility: inherit; font-family: &quot;Helvetica Neue&quot;, sans-serif; font-size: 12px; font-weight: 200;" fill="rgb(50, 49, 63)" stroke="none" stroke-width="1px">1e-3</text><text x="0" y="58.12740384615387" dx="0em" dy="0.3em" style="text-anchor: end; visibility: inherit; font-family: &quot;Helvetica Neue&quot;, sans-serif; font-size: 12px; font-weight: 200;" fill="rgb(50, 49, 63)" stroke="none" stroke-width="1px">1.05e-3</text><text x="0" y="29.06370192307685" dx="0em" dy="0.3em" style="text-anchor: end; visibility: inherit; font-family: &quot;Helvetica Neue&quot;, sans-serif; font-size: 12px; font-weight: 200;" fill="rgb(50, 49, 63)" stroke="none" stroke-width="1px">1.1e-3</text><text x="0" y="0" dx="0em" dy="0.3em" style="text-anchor: end; visibility: hidden; font-family: &quot;Helvetica Neue&quot;, sans-serif; font-size: 12px; font-weight: 200;" fill="rgb(50, 49, 63)" stroke="none" stroke-width="1px">1.15e-3</text></g><line x1="78.03125" y1="0" x2="78.03125" y2="377.828125" fill="rgb(0, 0, 0)" stroke="rgb(204, 204, 204)" stroke-width="1px"></line></g></g><g transform="translate(78, 0)" clip-path="url(#clip_0)"><clipPath id="clip_0"><rect width="950" height="377"></rect></clipPath><g><g><g><line x1="0" y1="0" x2="0" y2="377.828125" fill="rgb(0, 0, 0)" stroke="rgb(60, 60, 60)" stroke-width="1px" opacity="0.25"></line><line x1="73.1514423076923" y1="0" x2="73.1514423076923" y2="377.828125" fill="rgb(0, 0, 0)" stroke="rgb(60, 60, 60)" stroke-width="1px" opacity="0.25"></line><line x1="146.3028846153846" y1="0" x2="146.3028846153846" y2="377.828125" fill="rgb(0, 0, 0)" stroke="rgb(60, 60, 60)" stroke-width="1px" opacity="0.25"></line><line x1="219.45432692307693" y1="0" x2="219.45432692307693" y2="377.828125" fill="rgb(0, 0, 0)" stroke="rgb(60, 60, 60)" stroke-width="1px" opacity="0.25"></line><line x1="292.6057692307692" y1="0" x2="292.6057692307692" y2="377.828125" fill="rgb(0, 0, 0)" stroke="rgb(60, 60, 60)" stroke-width="1px" opacity="0.25"></line><line x1="365.75721153846155" y1="0" x2="365.75721153846155" y2="377.828125" fill="rgb(0, 0, 0)" stroke="rgb(60, 60, 60)" stroke-width="1px" opacity="0.25"></line><line x1="438.90865384615387" y1="0" x2="438.90865384615387" y2="377.828125" fill="rgb(0, 0, 0)" stroke="rgb(60, 60, 60)" stroke-width="1px" opacity="0.25"></line><line x1="512.0600961538461" y1="0" x2="512.0600961538461" y2="377.828125" fill="rgb(0, 0, 0)" stroke="rgb(60, 60, 60)" stroke-width="1px" opacity="0.25"></line><line x1="585.2115384615385" y1="0" x2="585.2115384615385" y2="377.828125" fill="rgb(0, 0, 0)" stroke="rgb(60, 60, 60)" stroke-width="1px" opacity="0.25"></line><line x1="658.3629807692307" y1="0" x2="658.3629807692307" y2="377.828125" fill="rgb(0, 0, 0)" stroke="rgb(60, 60, 60)" stroke-width="1px" opacity="0.25"></line><line x1="731.5144230769231" y1="0" x2="731.5144230769231" y2="377.828125" fill="rgb(0, 0, 0)" stroke="rgb(60, 60, 60)" stroke-width="1px" opacity="0.25"></line><line x1="804.6658653846154" y1="0" x2="804.6658653846154" y2="377.828125" fill="rgb(0, 0, 0)" stroke="rgb(60, 60, 60)" stroke-width="1px" opacity="0.25"></line><line x1="877.8173076923077" y1="0" x2="877.8173076923077" y2="377.828125" fill="rgb(0, 0, 0)" stroke="rgb(60, 60, 60)" stroke-width="1px" opacity="0.25"></line><line x1="950.96875" y1="0" x2="950.96875" y2="377.828125" fill="rgb(0, 0, 0)" stroke="rgb(60, 60, 60)" stroke-width="1px" opacity="0.25"></line></g><g><line x1="0" y1="377.828125" x2="950.96875" y2="377.828125" fill="rgb(0, 0, 0)" stroke="rgb(60, 60, 60)" stroke-width="1px" opacity="0.25"></line><line x1="0" y1="348.7644230769231" x2="950.96875" y2="348.7644230769231" fill="rgb(0, 0, 0)" stroke="rgb(60, 60, 60)" stroke-width="1px" opacity="0.25"></line><line x1="0" y1="319.7007211538462" x2="950.96875" y2="319.7007211538462" fill="rgb(0, 0, 0)" stroke="rgb(60, 60, 60)" stroke-width="1px" opacity="0.25"></line><line x1="0" y1="290.6370192307692" x2="950.96875" y2="290.6370192307692" fill="rgb(0, 0, 0)" stroke="rgb(60, 60, 60)" stroke-width="1px" opacity="0.25"></line><line x1="0" y1="261.5733173076923" x2="950.96875" y2="261.5733173076923" fill="rgb(0, 0, 0)" stroke="rgb(60, 60, 60)" stroke-width="1px" opacity="0.25"></line><line x1="0" y1="232.5096153846154" x2="950.96875" y2="232.5096153846154" fill="rgb(0, 0, 0)" stroke="rgb(60, 60, 60)" stroke-width="1px" opacity="0.25"></line><line x1="0" y1="203.44591346153842" x2="950.96875" y2="203.44591346153842" fill="rgb(0, 0, 0)" stroke="rgb(60, 60, 60)" stroke-width="1px" opacity="0.25"></line><line x1="0" y1="174.38221153846155" x2="950.96875" y2="174.38221153846155" fill="rgb(0, 0, 0)" stroke="rgb(60, 60, 60)" stroke-width="1px" opacity="0.25"></line><line x1="0" y1="145.31850961538464" x2="950.96875" y2="145.31850961538464" fill="rgb(0, 0, 0)" stroke="rgb(60, 60, 60)" stroke-width="1px" opacity="0.25"></line><line x1="0" y1="116.25480769230768" x2="950.96875" y2="116.25480769230768" fill="rgb(0, 0, 0)" stroke="rgb(60, 60, 60)" stroke-width="1px" opacity="0.25"></line><line x1="0" y1="87.19110576923077" x2="950.96875" y2="87.19110576923077" fill="rgb(0, 0, 0)" stroke="rgb(60, 60, 60)" stroke-width="1px" opacity="0.25"></line><line x1="0" y1="58.12740384615387" x2="950.96875" y2="58.12740384615387" fill="rgb(0, 0, 0)" stroke="rgb(60, 60, 60)" stroke-width="1px" opacity="0.25"></line><line x1="0" y1="29.06370192307685" x2="950.96875" y2="29.06370192307685" fill="rgb(0, 0, 0)" stroke="rgb(60, 60, 60)" stroke-width="1px" opacity="0.25"></line><line x1="0" y1="0" x2="950.96875" y2="0" fill="rgb(0, 0, 0)" stroke="rgb(60, 60, 60)" stroke-width="1px" opacity="0.25"></line></g></g></g><g><g><line x1="0" y1="668.4651442307693" x2="950.96875" y2="668.4651442307693" fill="rgb(0, 0, 0)" stroke="rgb(153, 153, 153)" stroke-width="1.5px"></line></g></g><g><g><line x1="73.1514423076923" y1="0" x2="73.1514423076923" y2="377.828125" fill="rgb(0, 0, 0)" stroke="rgb(153, 153, 153)" stroke-width="1.5px"></line></g></g><g><g><g><g><g><path stroke="rgb(255, 112, 67)" stroke-width="2px" d="M76.09213028846153,-129.31181476822366L76.67734182692307,13.68278394498094L77.84776490384615,-88.1741296835541L80.1886110576923,-29.133517470566687L80.77382259615383,17.59381868713234L81.35903413461538,65.44009130344557L81.94424567307694,111.98948730506731L82.52945721153847,158.57141243314743L83.11466875,86.31490344047035L83.69988028846154,145.74389978374674L84.28509182692308,-22.959148170266246L84.87030336538461,-17.860552465265073L86.0407264423077,11.4286319905749L87.21114951923077,60.921828416701885L87.79636105769231,86.66738794862596L88.96678413461538,104.59364941063836L90.72241875,111.76107718209079L91.30763028846154,114.52977253215448L91.89284182692307,90.52381429172522L92.47805336538461,131.30709965159699L93.06326490384615,163.02816480850518L94.23368798076923,190.4417205620405L95.98932259615384,181.43991545401062L96.57453413461538,159.323910065805L97.74495721153846,178.71279636174685L98.33016875,210.4066876512246L98.91538028846155,236.91222832852776L99.50059182692308,260.91342662723304L100.08580336538462,270.4172537517708L100.67101490384616,184.61961242073565L101.84143798076923,204.216217421684L102.42664951923076,228.18037366736488L104.18228413461539,248.56129100904386L104.76749567307692,262.47362823905263L105.35270721153846,288.4630156059029L105.93791875,203.55116131516877L106.52313028846153,225.67553502549117L108.27876490384615,234.93133757332635L108.86397644230769,201.5607267794806L109.44918798076922,226.11942915640893L110.03439951923076,223.07960847865118L110.6196110576923,247.85226213778213L111.20482259615385,196.5896744436412L111.79003413461538,223.66266006641655L112.37524567307692,215.59886555942222L112.96045721153847,235.56910034683264L113.54566875,258.2956171244889L114.71609182692308,240.96866012934788L115.30130336538463,226.51467761168112L115.88651490384616,142.62384470044404L116.4717264423077,177.450741039316L117.64214951923077,86.64617235418979L118.81257259615384,74.51837263711099L119.39778413461539,113.1479851506001L120.56820721153846,114.96858120198038L121.15341875000001,112.98585020166422L122.32384182692309,126.25260524632532L122.90905336538461,143.2409464275826L123.49426490384616,115.65181285775373L124.0794764423077,117.14279855531294L124.66468798076924,151.20703426222806L125.24989951923077,182.3918445738213L126.42032259615384,184.84088415163706L127.00553413461539,130.50549468433005L127.59074567307692,168.44902708326165L128.17595721153847,170.05834510976553L129.34638028846155,151.118769249234L131.10201490384614,122.33784194561022L131.6872264423077,154.41457818884916L132.2724379807692,171.48524414254618L132.85764951923076,186.6383670106748L134.02807259615383,198.32286112148833L134.61328413461538,209.3107736492206L135.19849567307693,186.20522095006797L136.95413028846156,209.83630556704912L137.53934182692308,227.3465652863654L139.2949764423077,216.99378115054807L141.0506110576923,229.31294697973007L141.63582259615384,172.8546402517194L142.22103413461537,212.96358076043632L142.80624567307694,235.46640708507255L143.39145721153847,243.43133288937153L145.1470918269231,213.1344291824081L145.7323033653846,201.87993327210407L146.31751490384616,233.8506422789061L146.90272644230768,209.687457967411L147.48793798076923,198.19038812512753L148.6583610576923,225.24406744164216L149.24357259615383,207.57078489263515L150.99920721153848,218.28278827107414L152.7548418269231,180.89691387216868L153.34005336538462,209.566479157604L154.5104764423077,175.1814278276306L155.68089951923076,178.17190871957865L156.2661110576923,196.02238807908057L156.85132259615384,179.53586688782107L157.43653413461539,164.4295146940438L158.0217456730769,114.62489494403746L158.60695721153846,147.31405672848376L159.77738028846156,141.7586305904401L160.36259182692308,146.5212152582682L160.94780336538463,146.27198795572582L161.53301490384615,137.62622755371657L162.70343798076922,123.84610911740782L163.28864951923077,-10.329989928320629L163.8738610576923,33.32065668487178L165.04428413461537,79.4839183359835L165.62949567307692,95.95831322974874L166.21470721153844,134.4942895005895L167.38513028846154,116.91701765616551L167.9703418269231,155.23551070874657L169.14076490384616,184.72660883394352L169.7259764423077,213.4345060109978L170.89639951923078,236.25129390778181L171.4816110576923,198.44708524085146L172.06682259615386,187.80319747352564L173.23724567307693,218.60484541216078L173.82245721153845,222.8179197835111L175.57809182692307,212.11891007399714L176.16330336538462,173.84707341170926L176.74851490384617,192.97439258798624L177.3337264423077,219.48975563607345L178.50414951923077,196.75916515941813L179.08936105769232,148.1196687167103L180.2597841346154,175.75687393143423L181.43020721153846,189.0633631361699L182.01541874999998,173.87676505643174L182.60063028846153,179.59849148983827L183.18584182692308,202.3817499483403L184.35626490384615,196.0636681826659L184.9414764423077,225.65265728695465L186.69711105769233,250.4678728373963L189.03795721153847,255.61024013008722L189.62316875,281.15656835679954L191.3788033653846,296.59867028088536L191.96401490384613,297.1604837426359L193.13443798076923,306.474452684228L193.71964951923079,233.13817383909665L194.3048610576923,256.11561883167076L194.89007259615386,279.6893294419916L195.47528413461538,230.18119885778034L197.23091875,251.88260275899853L197.81613028846152,266.53473100697107L198.40134182692307,286.58667076668246L198.98655336538462,254.33561164577964L200.74218798076922,237.94786934293987L201.32739951923077,171.40682129458057L201.91261105769232,196.20830123271776L202.49782259615387,219.7489877819525L203.0830341346154,235.49378025109715L203.66824567307694,252.54465133285197L204.83866875,228.54509422781675L205.42388028846153,219.26681677288386L206.00909182692308,158.4963525233207L207.17951490384615,187.93586964791155L207.76472644230768,126.38971316989517L208.34993798076923,127.2603299646172L208.93514951923075,155.53036968291738L209.5203610576923,166.05040014102988L210.10557259615385,188.97728009272575L210.6907841346154,184.1569103144632L211.86120721153847,158.04732222082643L212.44641875,145.59228331207865L213.61684182692306,163.88979120376553L215.95768798076924,114.78300740087877L216.54289951923076,107.11661866080834L217.71332259615383,140.21190046042085L218.29853413461538,88.2085938615428L218.88374567307693,74.9983218206396L219.46895721153848,117.73523149558326L220.05416875,124.18326306221294L220.63938028846155,92.02187008675418L221.22459182692307,75.69529223879334L222.39501490384615,4.63087107197299L224.15064951923077,58.98002320026535L224.7358610576923,58.45118943780653L225.32107259615384,101.10834839656047L225.90628413461536,45.7393649632682L227.07670721153846,14.111254119828686L228.2325,31.620506803167416L229.40292307692306,72.50250607300319L230.5587158653846,42.27146373658138L231.72913894230769,86.69671753836138L232.31435048076924,76.63148855492386L232.89956201923076,113.9846943055851L233.4847735576923,138.66784198720308L234.06998509615383,135.70508310232594L235.2404081730769,122.58384174828393L235.82561971153845,79.71704465628966L236.9814125,109.31246766439313L237.56662403846153,107.72560504065643L238.15183557692308,143.25181058821846L239.32225865384612,180.09041937424502L242.24831634615384,206.68477136150514L243.41873942307694,225.7149241384973L244.0039509615385,247.8673500148957L245.17437403846154,265.66204529738764L245.7595855769231,256.46545787583847L246.34479711538464,211.17629336078807L246.93000865384613,229.57810636352434L247.51522019230768,231.01696927480185L248.10043173076923,201.12378271061576L248.67101298076923,224.60263295302096L249.25622451923078,131.49191028892338L249.84143605769233,165.89270413695735L250.42664759615383,192.27983535015338L252.7382331730769,216.32724762365697L253.3088144230769,245.27549040751984L254.4792375,225.33235060346473L256.17635096153845,187.36167134999252L258.50256682692304,171.94043013357836L259.0731480769231,145.28325417755786L259.6583596153846,99.41447344451763L260.2435711538462,139.22549426203776L261.4139942307693,169.2201560654214L261.99920576923074,198.6299308672976L262.5844173076923,182.732649432294L263.16962884615384,207.07156567458173L263.7548403846154,211.69409549285683L264.3400519230769,204.3257576886781L266.09568653846156,188.76030494221658L266.68089807692303,215.04739366275783L267.8220605769231,237.82252801302587L268.96322307692304,258.8815470644942L270.13364615384614,254.0559092669073L271.30406923076924,265.4417494632468L272.47449230769234,241.36908236815745L273.05970384615387,167.5727935979354L273.63028509615384,192.77003075975637L274.18623605769227,209.59938000197724L274.77144759615385,230.7112666730155L275.3420288461538,257.7758520357476L275.9272403846154,279.9466651851426L276.5124519230769,301.4708129640723L277.0830331730769,289.89861116570427L278.23882596153845,265.1544792166384L279.4092490384615,280.7209080192217L279.9944605769231,307.26208974894234L281.15025336538463,278.2971815947766L282.2767855769231,249.05561556912755L282.84736682692306,261.7112932772124L283.41794807692304,283.4128180576139L284.0031596153846,274.0247491838869L284.58837115384614,279.3707336750051L285.1735826923077,294.58746262613766L285.7441639423077,241.37406838960646L286.28548461538463,193.14546029550016L286.87069615384615,179.87221922881915L287.4559076923077,202.04995217401344L288.0411192307692,164.5071643169894L289.19691201923075,200.5602425419617L289.78212355769233,153.4580649328235L290.9379163461538,172.66872264212515L292.1083394230769,197.9450253709799L292.67892067307696,224.33202121858457L293.24950192307693,218.80109666347582L293.83471346153846,124.24165735304379L294.419925,12.743368997418031L295.5318269230769,24.729287741188784L296.1024081730769,14.232815879047052L297.2582009615385,56.47689172332343L297.82878221153845,93.2699740433921L298.3993634615385,133.4362524272122L298.95531442307697,161.38411901351233L299.52589567307695,193.22776253026763L300.6670581730769,220.7573919862948L301.2522697115385,241.85682321895527L301.80822067307696,206.3730218142412L302.37880192307694,232.33723359527056L304.0905456730769,200.7203834622162L305.1878173076923,226.3679723740137L305.77302884615386,187.51795790198358L306.9141913461538,212.95384018375557L307.4994028846154,187.8711745288009L308.0553538461539,174.12945773843123L309.2257769230769,183.50654591829763L309.81098846153844,165.3628271527562L310.93752067307696,191.8125421828874L312.10794375,152.24012509803038L314.96085,137.03693428391247L315.5460615384616,170.8883024943073L317.30169615384614,163.3921428760528L317.8869076923077,134.37261797339377L318.4574889423077,160.53168380216292L318.99880961538463,190.9343571836292L319.5401302884615,189.07024402943438L320.6520322115384,141.11720817433584L321.7639341346154,173.02582276379906L322.8904663461538,192.90372291840373L324.0608894230769,138.82812621005198L325.1874216346154,177.33985420994563L326.88453509615385,200.24886739921206L327.46974663461543,215.23801552709534L329.66428990384617,237.71943656403582L330.20561057692305,233.51386540812484L330.7761918269231,246.1518279431844L331.33214278846157,268.81770157225736L332.5025658653846,293.896526627983L333.0585168269231,309.10793503541197L334.75563028846153,288.9624848845644L335.3262115384615,268.69880834241707L335.8821625,264.77514918167L336.46737403846157,287.3765631307559L338.1352269230769,278.15266229718253L338.70580817307695,252.67232121489394L339.81771009615386,269.39675559153244L340.3736610576923,238.22852379643086L340.9296120192308,224.09026276288785L341.4709326923077,252.91675618883588L342.0415139423077,244.57128260078096L342.6267254807692,265.89943936391427L343.19730673076924,276.2740470474248L343.72399711538463,263.153506631591L344.30920865384616,275.5961036385816L344.8797899038462,291.70643607002944L345.42111057692307,281.0844801524147L345.9770615384615,223.11691344036285L346.5622730769231,244.5434256873721L347.08896346153847,273.1513959686236L347.6302841346154,295.9529650268278L349.32739759615384,246.68445272937396L349.85408798076924,271.7332310893039L352.0925221153846,275.9610636573954L352.6631033653846,238.1498505766696L354.90153749999996,251.50293525717905L356.59865096153845,277.91232531677906L357.13997163461534,245.883436105103L358.20798269230767,262.17218153769727L358.72004278846157,276.39065932210974L360.40252596153846,298.34708411456637L360.9877375,321.04330670172834L361.57294903846156,312.76789409021495L363.2993230769231,321.9834983651035L363.86990432692306,238.30424221523927L364.98180625,197.39728240224903L367.2202403846154,219.55190748741975L367.76156105769235,237.1577422843667L368.84420240384617,258.5733945006083L369.94147403846154,239.1741293609362L370.497425,170.32628055699402L371.0387456730769,199.36799202975257L371.60932692307694,184.87064123531002L372.1652778846154,193.99753806728677L372.75048942307694,157.28468976144845L373.9062822115385,149.23485905159566L374.49149374999996,172.59894458928704L375.062075,141.4978778341554L375.6180259615385,118.38604757650205L376.17397692307696,159.92065162135307L376.71529759615385,144.47734460147572L377.2566182692308,181.50095349730054L379.4072706730769,210.94774986484853L379.9485913461539,233.41756518988868L380.4899120192308,182.60199311970536L383.7817269230769,192.92104507564545L384.9082591346154,218.21864519439978L385.44957980769226,247.2510462499596L386.00553076923075,236.85503969352524L386.5907423076923,233.89406562139902L387.14669326923075,234.03322451569633L387.70264423076924,264.8219425646538L388.2732254807692,200.06153200728818L388.8291764423077,229.3301570704876L389.37049711538464,219.24242813847437L389.9410783653846,240.32483866810665L390.4970293269231,261.00649691560506L391.0676105769231,242.8344959825257L391.62356153846156,271.5122855227449L392.1648822115385,197.4957087365757L392.75009374999996,132.324521713216L393.2914144230769,68.36679233348639L393.8473653846154,59.545401733513415L394.97389759615385,37.69033420899865L395.5444788461538,86.95532332320619L396.11506009615385,115.6542869739688L397.2123317307692,122.8724326535L398.32423365384614,158.59651835235275L399.43613557692305,176.74489159379755L400.02134711538463,54.0033566652109L401.6160485576923,99.21851540322166L402.18662980769227,122.87106062210393L402.7572110576923,112.73149325159568L403.8398524038462,153.17214420329154L404.3958033653846,105.74298217571464L404.9663846153846,99.55844928747831L406.04902596153846,138.73270986116248L407.11703701923074,173.84523441978155L407.6437274038462,121.53755452446444L408.18504807692307,116.4597534771508L409.28231971153843,159.86353810271675L409.7943798076923,193.91391864163884L410.92091201923074,222.34655262094896L411.4476024038462,191.16220489380652L411.9889230769231,189.80211137439102L412.5595043269231,222.13944184217468L413.1300855769231,238.62245002681698L413.68603653846156,266.77055090818436L414.2273572115385,292.1079868546989L415.3538894230769,308.9428937229306L415.8805798076923,278.8866519196734L416.4365307692308,288.85058519523085L418.1043836538461,294.3845471250371L418.61644375,282.9956086737756L419.14313413461537,310.2533371520182L420.8256173076923,313.61673907975745L421.89362836538464,327.8956607225896L422.4349490384615,310.84070589192856L422.97626971153846,244.637787130668L424.02965048076925,275.753480384823L424.58560144230773,296.12370628482927L425.14155240384616,219.09654407869334L425.69750336538465,254.80033539543524L426.23882403846153,277.9990001674894L427.2922048076923,292.38213927142056L428.4333673076923,228.03294269801842L429.5306389423077,118.92413462754803L430.0865899038461,92.6493553461907L430.62791057692306,118.03113756916724L432.2811331730769,113.3676724008406L434.51956730769234,100.33852195534314L435.0608879807692,87.42775077609218L435.5875783653846,99.34444892989768L436.11426875,97.98454705571925L436.64095913461534,136.28603437044117L437.7236004807692,146.2462939989035L438.77698125,175.00665922434396L440.3570524038462,175.00382210838674L440.8837427884615,125.23110483534444L442.0395355769231,88.76468510509704L443.13680721153844,122.14067743165444L443.6781278846154,131.3318414439503L445.33135048076923,155.2152232102782L446.37010096153847,190.74880414736967L446.8821610576923,213.5209532007618L447.4088514423077,243.55156697844197L447.9355418269231,136.7068055835903L448.9889225961539,132.51589152872486L449.53024326923077,111.11178181959355L450.05693365384616,73.07748722344297L450.61288461538464,93.05419050859643L451.1542052884615,62.540962599488466L451.66626538461543,-1.8955940642517248L452.1490649038461,47.93252985094716L452.7050158653846,73.68402469509442L453.24633653846155,97.41534093986712L453.80228750000003,66.24153868464691L455.4262495192308,37.32096025162309L455.9675701923077,85.44261106052272L457.0648418269231,85.93970101765399L458.08896201923073,95.94273795987732L459.18623365384616,132.6023962654955L459.72755432692304,167.61572756572608L460.2835052884615,197.31796057625988L460.8101956730769,78.66047769897483L461.3515163461538,117.97454481732831L461.9074673076923,157.29505844888268L462.4487879807692,186.78451541676122L462.9754783653846,212.44574364606808L464.0581197115385,242.2189269855344L464.58481009615383,227.14855548588895L465.68208173076926,187.41611981144337L466.2380326923077,123.46936490421027L466.79398365384617,153.7825191571975L467.8619947115385,173.93420522712762L468.41794567307693,171.35137954236473L469.45669615384617,197.3918133634077L469.95412596153847,225.7812734960039L470.53933750000004,196.27158964316828L471.0660278846154,227.6582773997095L471.5927182692308,216.89709959290153L472.1340389423077,237.84897100060914L472.67535961538465,266.987182247168L473.2313105769231,287.62514570332644L473.77263124999996,277.51624071858305L474.3139519230769,273.0088610076034L474.81138173076926,294.7089976189959L476.3183014423077,318.61091581355277L477.44483365384616,327.5334961708011L478.46895384615385,283.62869570079283L480.07828557692307,239.87321928081514L480.61960624999995,218.0781173298092L481.1170360576923,232.2695812644245L481.61446586538466,238.52957189125834L482.12652596153845,212.25709275521098L483.2237975961539,245.0156192721189L483.7797485576923,209.11862128951864L484.3356995192308,228.30494023945172L484.89165048076916,215.51723690790394L485.34518942307693,240.63650787271115L485.8718798076923,225.64907134188732L486.3839399038461,249.40061189682777L486.91063028846156,213.76419891899263L488.958870673077,210.0403813729883L489.48556105769234,200.47506637435055L490.53894182692306,221.90039163667603L491.56306201923076,164.65411030466075L492.11901298076924,196.70061167605942L493.20165432692306,68.89889923726406L493.7722355769231,58.95004292052465L494.26966538461534,100.65716831902597L494.7378346153846,109.11437288411082L495.293785576923,148.2294327837576L495.80584567307693,185.04373068255256L497.3273956730769,216.76432886171312L497.8394557692308,135.09043280347882L498.3807764423077,122.64054768472707L502.0383485576923,144.52096260324026L502.5650389423077,176.9853442905189L504.1012192307692,209.33916769279784L505.63739951923077,132.44486038685127L506.16408990384616,122.1433148098838L506.6907802884615,153.03382275308357L508.2415908653846,165.74327636827292L509.33886249999995,123.55644679746393L509.8801831730769,159.1636810205594L510.40687355769234,125.80170516771497L512.0308355769231,156.30608622450168L512.5428956730769,157.56003506535504L513.0549557692308,172.56832167850115L513.5962764423077,206.65733670369133L514.1375971153847,229.17430476109362L514.6350269230769,246.06788454421368L515.1617173076924,272.3690156728032L515.7030379807693,298.30078300655066L517.7366480769231,319.2825188529947L518.2633384615385,332.9775277193356L519.3313495192308,267.41406954059426L519.9165610576923,284.89555105180966L520.4286211538462,275.9956030996458L521.4088504807693,300.79897188090905L521.9209105769231,322.63876090965834L522.4476009615385,324.9506005617641L523.4863514423078,344.4380791668973L524.0715629807692,359.8959052120829L524.5982533653846,367.1327098535014L525.12494375,311.8603576841686L525.666264423077,322.9948234953284L526.1783245192307,294.1414162560317L526.6903846153847,320.0259226255355L527.758395673077,332.2417767288901L529.8066360576923,350.9313070616688L530.2894355769231,354.91189191538837L531.8695067307692,349.73998546744724L532.3961971153847,333.65892605520946L532.9082572115384,338.08664296377356L533.4349475961538,339.5906611371499L534.4005466346154,289.87191534259773L535.4685576923076,294.3341291494727L536.0098783653846,311.30707656362705L536.4926778846153,325.12502852833063L537.0047379807693,340.38392518202926L537.5460586538462,344.39394846925006L538.087379326923,340.99400895239285L539.5065173076923,325.6587733777345L540.0624682692307,338.93584992774754L541.6425394230769,319.6960203531545L542.1253389423076,338.3470865644268L543.1640894230769,359.71842489136185L544.7149,369.4691720643039L546.7631403846153,377.9607570121487L548.1822783653846,389.2107432462463L548.6504475961539,329.8731323502544L549.118616826923,287.5283141082593L549.6599375,292.33068297957004L550.7133182692307,312.5855006772954L551.2107480769231,295.05056303067795L551.75206875,306.85035513633784L552.7615586538462,281.22149172335094L553.2882490384616,302.5755809962405L554.3123692307693,312.8845629007743L556.2728278846154,322.85491637578593L557.83826875,269.60546503957386L558.3503288461538,269.22723488801466L558.8770192307693,293.7784806853092L560.3839389423076,307.37714495157223L560.852108173077,325.21754962094275L561.9054889423077,300.02409316864623L562.4468096153846,315.17715661139414L563.4270389423077,334.93498438118587L563.9098384615384,341.82552527014326L564.3780076923077,300.08177833427044L565.44601875,301.2822088250001L566.3677269230769,320.92338397246164L567.8453860576923,334.43806733122034L568.3135552884615,321.96331213230724L569.3376754807692,304.9386781556935L569.8497355769231,267.0325897354934L570.39105625,278.7849197798881L570.8445951923077,241.75524740362007L571.9126062500001,229.42510821228063L572.4831875,242.52285241462954L573.0245081730769,183.132356756141L573.5511985576923,154.90935004526975L574.546058173077,67.42510977994999L575.5262875,110.12010822753183L576.5650379807693,106.94096953856086L577.0185769230769,77.91683743821795L577.4867461538461,83.51977783183122L578.5254966346154,31.893032739259354L579.0082961538461,78.53102174892098L580.880973076923,112.49855306978952L581.4222937500001,156.135259335888L581.9050932692307,180.3808510904861L582.4610442307692,209.4827958827351L583.0023649038461,238.94244593233046L583.9679639423077,192.3335975428947L584.4800240384615,219.18751322073263L585.5041442307692,174.40066700635717L586.0015740384615,203.52096173364674L586.4551129807692,201.0370881400502L586.9525427884615,226.5661139204889L587.4499725961539,247.0972065195179L587.9766629807692,273.1130718848293L588.4887230769231,297.69145557591696L588.9568923076923,286.5346764255248L590.9612418269231,276.7376203623929L591.8683197115384,256.8109414148732L592.83391875,253.5197995550834L593.3020879807693,277.2236093517163L593.7409966346154,203.0792052492499L594.7212259615385,180.28797283179625L595.2479163461538,212.1255539458457L596.1988850961538,182.58411345922377L597.7204350961538,202.19692041931273L598.2471254807692,185.1277586090311L598.7445552884615,189.92460534878174L599.2858759615384,146.1093248805775L599.7394149038462,173.4597749999625L600.7635350961539,204.4095913339326L601.3048557692308,238.61911383267233L604.3479557692308,260.2306568896156L604.816125,255.38780944193758L605.7524634615385,248.5832778460456L606.2645235576923,228.86277230052028L606.7619533653846,255.7999894277145L607.1716014423076,236.21569367458758L607.6836615384616,234.5389166712002L608.1664610576923,251.44945008635216L608.6931514423077,281.840432426981L609.6587504807693,275.8285299852492L610.0976591346154,297.2274732644067L610.6097192307693,311.46464359940745L611.1364096153847,335.3370254878304L611.9995966346154,352.2383263520206L612.4823961538461,326.27062386126147L612.9066745192308,345.82556513077094L613.4626254807692,357.0155195433747L613.9307947115385,269.60790347732166L614.4428548076922,264.6314883338202L616.8568524038462,282.7601314842898L618.2759903846154,231.1720231129874L619.2415894230769,257.6874081425036L619.7536495192307,240.3642244553774L620.22181875,261.8709249957534L620.6753576923077,288.7028038548071L622.1383865384615,259.0839541340705L623.1186158653845,272.9559669427922L624.4499721153846,293.97479129181335L624.9620322115385,302.1685086804659L626.4250610576923,326.41129271352526L626.8639697115384,263.16868674337115L628.8390586538461,277.6391858372119L629.380379326923,260.6798699056499L630.7263658653845,167.94300711708195L631.2237956730769,126.66967689001115L631.7358557692307,118.53657489616955L632.5844125,138.5200632078323L633.9596596153847,168.47227058568203L634.8959980769231,123.5895467412322L635.3787975961538,150.9842256579149L635.8469668269231,183.70144487944228L636.3005057692308,202.2084363424491L636.7979355769231,224.53665233399624L637.2514745192308,183.92158414387438L637.7050134615384,154.0869964780693L638.0854009615384,191.89718862514965L638.9924788461537,194.71730376498002L639.4167572115384,191.6007411094619L641.2601735576923,211.69439111484456L642.1818817307693,237.07604378398145L642.693941826923,258.09056482087465L643.6888014423076,263.42109671839233L645.1079394230769,246.3347147858932L645.5468480769231,274.09327231934446L646.0296475961538,288.9331111231122L646.4831865384615,217.7280523399709L648.941075,213.74650846701874L649.4385048076923,240.06908761974617L649.9066740384616,257.63163877763145L650.3455826923076,271.0991980871358L651.7647206730769,296.1838335824427L652.5840168269231,275.31871189656846L653.0229254807692,227.65186369682127L653.4910947115385,224.14519998695198L653.9153730769231,153.75052098958233L655.4076625,113.02750309003147L656.387891826923,78.08021552646665L657.3242302884615,106.16295455089119L658.2020475961539,103.21731866119148L658.6555865384615,124.78749450344756L660.1039850961539,157.2620012617184L661.0695841346154,196.12935204511305L661.5523836538462,185.21281637964807L661.9620317307692,218.86996089130983L663.3665394230769,242.82105017622308L664.3321384615384,236.6432622485127L665.3123677884615,257.8877237308883L666.7315057692308,223.08910282626664L667.2143052884616,234.2916008902141L667.6824745192308,251.2932546545523L668.1360134615385,249.54693571995517L669.0723519230769,275.44660647922916L669.5112605769231,297.34442071777244L670.8865076923078,317.10220594352927L673.1980932692308,320.67503956208304L674.1783225961539,345.46075855909095L674.6318615384616,321.77823069095183L675.0854004807693,258.9483958765604L675.9339572115384,275.3759786387352L676.8556653846155,291.28739457483596L678.5381485576924,306.10701804186596L679.8695048076922,325.36972904768925L680.32304375,331.40277231252765L680.7619524038462,274.1912983906838L681.2593822115384,295.0155104792078L681.7568120192308,229.61203282177001L682.6492596153846,230.3035546414558L683.4392951923077,203.4553456626011L684.3171125,191.30381052763167L685.6777293269231,218.86180462299026L687.0676067307692,206.20108901542534L687.4187336538462,202.6167378607229L690.754439423077,227.1716136737457L691.2518692307692,248.3429171003365L691.6615173076923,265.2944112364449L692.5832254807692,226.56891353517577L694.2657086538461,227.5067322443006L695.2459379807692,221.3335549043851L695.7433677884616,153.6155708267889L696.6211850961539,175.248944951044L697.5282629807692,203.44158018296577L700.6884052884616,232.90319531802078L701.1858350961538,136.92557936778755L702.0929129807693,176.19809781395236L702.6342336538462,204.87772803613888L703.0731423076924,202.34755766818384L703.5705721153846,198.84244515961365L704.5361711538461,170.31364706940985L705.0043403846154,168.18437764145298L705.8090062499999,201.93924169072858L706.3064360576923,231.17763062509061L707.2574048076923,178.45439320746434L707.740204326923,210.03307383451613L708.2083735576923,240.032862692507L708.7496942307693,264.5521837823015L709.61288125,286.1760976375961L711.2514735576923,282.9112599260076L711.6903822115385,300.8947380308921L712.5974600961538,320.6500917564683L713.5191682692308,334.76237716995325L713.9580769230769,302.3176334617855L715.1431302884615,315.29440494061055L715.4796269230769,308.1372131564261L716.9280254807692,253.08721681716492L717.9228850961539,275.5911317854666L719.3127625,258.7236032904129L720.1759495192308,203.12283435884208L720.5855975961539,190.07105676397268L721.5073057692308,146.4525581389001L723.1312677884615,180.52170515996966L723.9944548076923,132.66466142915485L725.1795081730769,134.38337773559843L726.4084524038461,164.06316151845732L727.2277485576923,199.40669700272477L727.652026923077,171.1878905074463L728.5152139423077,168.9869385726957L729.77341875,194.72318409763486L730.2269576923078,217.317137696758L732.3337192307692,171.66766084706566L732.7726278846154,201.6576625438249L733.2554274038462,227.78876748669825L736.1375942307693,250.51313155514345L736.9568903846153,206.5069528179033L738.1712043269231,240.12277181083053L739.1075427884616,251.66793142080036L739.5171908653847,239.3467867439486L740.3218567307692,222.4242550371492L740.7607653846153,250.60727247984985L741.1996740384616,228.17929979761146L741.6532129807692,237.8826357679745L742.0774913461538,244.01754411776332L742.8236360576923,269.9581976084266L743.306435576923,219.4468143262719L744.2427740384616,250.53463833533746L744.7402038461539,237.98987804279477L745.1205913461538,257.73332786861624L746.7884442307693,279.30454636495875L747.680891826923,302.04160279077445L748.4416668269231,297.15887008005643L750.4752769230769,322.60957040380254L751.2506822115384,234.80411666458815L751.6164394230769,231.9334349796057L752.5674081730768,188.98770203450607L753.386704326923,159.21330945303325L755.0545572115385,141.64223578964393L755.9031139423076,112.39449560050116L756.3859134615384,147.38031261369994L757.2344701923078,155.56429869075066L757.6294879807692,196.1385988576674L758.0098754807692,228.29176214692035L758.521935576923,220.746474474629L758.9315836538461,246.04053151289267L759.3558620192308,263.4130487831501L760.1020067307693,221.5137084790411L760.4823942307693,216.45643680429367L760.8188908653847,230.94960070432276L761.2285389423078,223.69759739953358L762.0332048076923,243.61264117285629L763.2036278846155,227.5413317819493L763.9351423076923,259.66162638383366L764.3447903846154,210.35032760136082L764.7251778846154,241.06451713510293L765.9687524038461,249.81228513317436L766.7880485576923,276.50511327860664L769.4361307692308,295.2670493091788L772.215885576923,254.45829956181228L773.2546360576923,278.1781264771556L773.6496538461538,303.0917876220053L774.1324533653847,320.40870447477323L774.5128408653846,302.68987675364724L775.7125245192308,258.48879901114265L776.4732995192307,280.91256429856486L776.8975778846153,236.0657190541756L777.3072259615385,255.95131938757584L777.70224375,268.99027517005345L778.5508004807692,218.62902800041007L779.0043394230769,246.0436221148199L780.5405197115384,149.13443439947622L781.3890764423077,184.14560582647476L781.7548336538462,146.66114432818657L782.1937423076923,108.13348085292137L782.5741298076922,78.6467065008087L782.9398870192308,73.36121046216931L783.2763836538461,79.03303893239672L783.7006620192308,119.66687057256348L784.0956798076922,144.59329248027476L784.9881274038462,180.99856285531007L785.3831451923077,181.99831694008395L786.2170716346154,214.31805828911757L786.6120894230769,218.00238816688423L787.7971427884615,252.0326280264282L789.1284990384615,270.25595513284185L789.5527774038462,284.24221225466766L789.9624254807693,305.481233859568L790.415964423077,266.55903793688344L791.1913697115385,226.986582250492L791.6156480769231,244.3069487976444L793.0640466346154,242.9606366601085L794.3515120192308,202.3198960696199L795.4487836538461,213.36511636477067L796.2388192307692,177.78571120347857L797.4677634615384,201.56278509402043L798.1407567307692,190.67102833761737L798.5357745192307,210.52844910300323L799.2087677884615,184.140889837764L799.6476764423077,189.1000757771266L800.0426942307693,134.58582275468126L800.4523423076923,174.71919273295316L800.8619903846154,210.7707997984715L801.637395673077,171.73517974588017L802.0031528846154,131.79575342900984L802.3689100961539,129.66437611465702L802.6615158653847,148.54386125775272L803.3345091346155,120.72299300913056L804.5049322115384,161.3711910679901L804.89995,174.33556429590183L805.2364466346154,203.57868004592027L806.3044576923077,175.26006267914082L806.9481903846154,202.80392323081642L807.3578384615384,188.61889685842206L807.6943350961538,220.88268046654525L808.0600923076923,254.96280692061532L809.9327692307692,240.9836815864981L811.4982100961538,269.4555968394885L811.9078581730769,248.89811407651712L812.2736153846154,230.09491474264945L812.6393725961539,216.19406112235657L813.3562567307692,214.6496494243833L813.6927533653846,234.11151678425006L814.1024014423077,171.26786790575417L814.8778067307693,135.02991474209915L815.6385817307691,141.03289298222555L816.0335995192308,151.33365146667015L816.4286173076923,71.1396104893143L817.1162408653846,106.82380489981392L817.8916461538462,81.17052502719451L818.2135125000001,95.31127833245739L818.5792697115385,103.03904416127864L819.8228442307693,130.87236072797072L820.4519466346154,143.55842955535795L820.846964423077,160.60688941683716L821.5492182692308,150.81520670019532L823.1878105769231,172.49210052997583L823.5681980769231,175.7646273095942L824.2997125,152.3217082957154L825.0312269230769,190.54155053578108L825.7042201923077,223.12165061579614L827.9865451923077,245.71688435500582L829.9177432692308,267.9362922509825L830.3127610576922,254.68027381911634L831.0296451923077,276.2197269703994L832.4634134615385,294.27919336274516L832.8145403846154,317.32128888365054L833.4729033653847,330.10587674544905L833.8532908653846,321.96285577942007L834.9066716346155,291.99194648562707L835.6674466346153,265.3954358009988L836.0770947115384,158.01112697389894L836.4721125000001,191.23184052154625L837.2182572115385,215.04923865715125L839.5737336538461,121.21506177388522L839.8956,160.95000347184913L840.5832235576923,149.3550058218198L841.7243860576923,74.81939503067332L842.0608826923077,84.11133251729643L843.5824326923077,43.69803260691759L845.1332432692308,46.149730575264016L845.5575216346155,40.735575509622095L846.2451451923077,87.21326941731519L846.6694235576923,64.22588349458948L846.9766596153846,99.38428953006644L848.0885615384615,99.63968356654567L848.5128399038462,129.03205800893272L849.5662206730769,170.14405535686865L849.9319778846153,172.78607717599536L850.4001471153846,163.711288966721L851.4388975961539,158.3751343892942L851.8339153846154,145.90542607724004L852.2143028846154,162.02795911854065L854.0138283653846,151.62538340746167L854.4234764423077,186.06781268321677L854.7160822115385,200.31482910080945L855.4037057692308,195.21627628303767L856.5448682692307,171.6005798371459L856.8813649038461,208.60067561962552L857.3202735576923,128.96848565400532L857.7299216346154,131.94377018388928L859.456295673077,176.1842474737894L859.8366831730768,209.81625308342942L861.76788125,240.98089908175544L862.8797831730769,201.43364959561728L863.2162798076923,220.80946144333643L863.5966673076923,244.54741246184864L863.9770548076923,233.0017531175215L864.3867028846154,177.75703451555304L865.1328475961539,154.92649538181308L865.4547139423078,174.2722328585169L866.2008586538462,193.9368037751381L866.9323730769231,190.1969088232589L867.2835,213.75575685737192L869.2732192307692,178.08159199454943L869.6243461538461,171.63346249160904L871.1312658653846,151.86305875655717L871.4531322115384,141.10142456706023L871.7457379807693,143.9885065666295L872.0822346153847,181.80094485175402L873.0624639423078,124.3357338038507L873.3404394230769,95.57298443513315L874.70105625,103.1538568550128L875.5349826923077,146.68118064503633L875.8861096153846,166.90097443567203L876.22260625,197.67752303730595L876.5737331730769,229.00099085408704L876.9394903846153,192.43076387224454L877.2613567307693,156.11995440582888L878.8121673076923,187.19189169323656L880.8457774038461,184.77866449041898L881.1822740384615,211.3379922450172L882.2210245192308,232.78857749539722L882.4697394230769,253.21607829247944L882.7623451923077,243.70682303202574L883.4645990384615,267.3708649071503L883.7279442307691,287.10361800024805L884.4155677884615,241.69276176065057L884.8398461538461,188.1093496670087L886.7125230769232,217.38679314459347L887.0636499999999,118.09344136205692L887.4001466346153,44.81089589640584L887.8097947115384,64.811820669709L888.9070663461538,65.3811710278357L889.3020841346154,96.58537427105728L891.3649548076924,137.82226909656708L892.0525783653846,177.83277826232907L894.4665759615384,146.90976635096823L896.982985576923,180.54898189682442" style="fill: none;" fill="none"></path></g></g></g></g><g opacity="0.20000000298023224"><g><g><g><path stroke="rgb(255, 112, 67)" stroke-width="2px" d="M73.75128413461539,-212.39781240246236L74.92170721153846,83.5427606818759L76.09213028846153,-253.4543426861727L76.67734182692307,360.95300188005115L77.84776490384615,-401.77549405241507L79.60339951923076,391.6922285155888L80.1886110576923,111.96832647195862L80.77382259615383,255.01422351652917L81.35903413461538,326.714955955699L81.94424567307694,382.0561507466728L84.28509182692308,-1178.8498612873955L84.87030336538461,18.088437149274284L86.0407264423077,223.17728396683322L87.21114951923077,426.6848368193113L87.79636105769231,280.6439684635239L88.96678413461538,241.97808966241203L90.72241875,167.5247431670723L91.30763028846154,136.35975881564977L91.89284182692307,-101.00408414536372L94.23368798076923,415.39960979074556L95.98932259615384,107.0214369639445L96.57453413461538,-24.72153755514705L97.74495721153846,341.0170791176609L98.33016875,477.1156665552687L99.50059182692308,464.6936307297852L100.08580336538462,351.4126252832558L100.67101490384616,-549.0455396689314L101.84143798076923,372.2942928443439L102.42664951923076,434.2734136404167L106.52313028846153,417.8228778297959L108.27876490384615,315.42918757349923L108.86397644230769,-89.0278530375262L109.44918798076922,440.2151081202151L110.03439951923076,196.55259870964576L110.6196110576923,464.2265609647013L111.79003413461538,460.4933524696412L112.37524567307692,145.01180793355945L112.96045721153847,410.4826639056152L113.54566875,457.45546196562424L114.71609182692308,89.05516172986694L115.30130336538463,99.7361365990185L115.88651490384616,-593.4782218914389L119.39778413461539,452.5015686949695L120.56820721153846,130.96571120590446L121.15341875000001,95.5606083503315L122.32384182692309,242.86841338282326L122.90905336538461,292.59377474709896L123.49426490384616,-126.93275780216436L124.0794764423077,130.2543725307534L124.66468798076924,450.7992314407736L125.24989951923077,456.6883638661653L126.42032259615384,206.38425739616594L127.00553413461539,-347.5047922381872L127.59074567307692,502.27878158700724L128.17595721153847,184.21819450367522L129.34638028846155,-15.534360369971864L131.6872264423077,436.69353506146916L132.2724379807692,321.71569048358987L132.85764951923076,319.99875359857555L134.02807259615383,301.1600193140106L134.61328413461538,306.0202922405756L135.19849567307693,-17.162887439624285L137.53934182692308,381.47412792085714L139.2949764423077,125.86534794263514L141.0506110576923,337.752107681458L141.63582259615384,-324.12657088983826L142.80624567307694,433.55596781958144L143.39145721153847,313.5464273034528L145.1470918269231,-53.57155842893275L145.7323033653846,102.80476583906926L146.31751490384616,515.2964925002653L146.90272644230768,-3.0285500696179497L147.48793798076923,96.97739847986333L148.6583610576923,463.40920156378036L149.24357259615383,51.98441524610655L150.99920721153848,312.5861674604418L152.7548418269231,-148.23204585732537L154.5104764423077,-127.53196860586132L155.68089951923076,204.49909486936835L156.2661110576923,353.1724644437692L156.85132259615384,34.39326424582845L157.43653413461539,31.4372027270594L158.0217456730769,-323.8426985779796L158.60695721153846,435.1019384600401L159.77738028846156,92.84984769699469L160.36259182692308,188.45005736490623L160.94780336538463,144.07783757640235L161.53301490384615,61.51047980620149L162.70343798076922,2.5282419763657913L163.28864951923077,-1191.5952205708197L165.04428413461537,485.89870633531916L165.62949567307692,240.99664935846857L166.21470721153844,473.7600183853613L171.4816110576923,-134.37718230090104L172.06682259615386,94.09550240896016L173.23724567307693,489.779467530262L173.82245721153845,259.9094137524908L175.57809182692307,117.92585554555319L176.16330336538462,-163.09457153434278L176.74851490384617,361.369539666856L177.3337264423077,452.9285952084342L180.2597841346154,419.07240660370513L181.43020721153846,306.2125404498701L182.01541874999998,40.1752594035799L182.60063028846153,229.97208410470137L183.18584182692308,402.963634109185L184.35626490384615,140.4398058171299L184.9414764423077,486.1516538208324L186.69711105769233,468.9389766799644L189.03795721153847,300.8832184339968L189.62316875,506.06434912886135L191.3788033653846,432.5496760003746L191.96401490384613,302.10664381236376L193.13443798076923,388.47388116111915L198.98655336538462,-29.600148836065728L200.74218798076922,93.6714871750849L201.32739951923077,-414.4152893771983L202.49782259615387,426.99932944609634L203.0830341346154,374.1096884215524L203.66824567307694,402.65917344193105L204.83866875,17.25488789123483L205.42388028846153,137.5815939677167L206.00909182692308,-376.5220237156923L207.76472644230768,-415.45780113798367L208.34993798076923,134.92517168539837L208.93514951923075,404.41757463185394L209.5203610576923,258.6679206965872L210.10557259615385,390.8237281135505L210.6907841346154,141.71875377758988L211.86120721153847,-71.8194390565265L212.44641875,35.939099547878584L213.61684182692306,324.97961304712675L215.95768798076924,-317.54925957445255L216.54289951923076,39.622334335594815L217.71332259615383,431.5801623936814L219.46895721153848,493.987629252702L220.05416875,180.95122682594675L220.63938028846155,-191.12450932173613L224.15064951923077,537.4656935521035L224.7358610576923,53.795378490436235L225.32107259615384,476.658628749716L227.07670721153846,-264.3401522366106L228.2325,185.7705937185383L229.40292307692306,432.4244203032946L232.89956201923076,442.8393875305113L233.4847735576923,355.9763379221639L234.06998509615383,109.62118628769753L235.2404081730769,7.065462121807116L235.82561971153845,-297.6788744363854L236.9814125,369.86825036791896L237.56662403846153,93.7549909731382L238.15183557692308,456.02173761772707L245.17437403846154,422.3251468312385L245.7595855769231,175.49942355036796L246.34479711538464,-187.54595879300575L246.93000865384613,391.58622470712L247.51522019230768,243.68460548997078L248.10043173076923,-62.05348716733994L253.3088144230769,500.1335493909484L254.4792375,49.754511958220974L256.17635096153845,-146.92921066776262L258.50256682692304,36.17303198699551L259.0731480769231,-89.40443215921715L261.99920576923074,457.55128155885234L262.5844173076923,42.774230531483965L263.16962884615384,421.34947532695793L263.7548403846154,252.39048545986702L264.3400519230769,139.4554895720055L266.09568653846156,51.723279786878265L266.68089807692303,446.4768610188487L268.96322307692304,444.28349910126195L270.13364615384614,211.5713725792929L271.30406923076924,365.6817935427445L272.47449230769234,29.43520931911189L273.05970384615387,-482.1239447804222L273.63028509615384,414.60453047532627L274.18623605769227,357.76365077960565L274.77144759615385,416.5786610884209L276.5124519230769,490.9677218397164L277.0830331730769,188.01785415731584L278.23882596153845,47.30908225477634L279.4092490384615,417.7665262999508L279.9944605769231,540.928572034807L281.15025336538463,23.292401964261273L282.2767855769231,-8.384838263387792L282.84736682692306,373.13088721657493L283.41794807692304,474.47134014321136L284.0031596153846,191.37292713898708L284.58837115384614,326.4363618417724L285.1735826923077,428.5543508426244L286.28548461538463,-231.45542272819705L286.87069615384615,63.0156459164931L287.4559076923077,397.30097359314095L289.78212355769233,-261.2258124490842L290.9379163461538,341.7978463963798L292.1083394230769,420.47561214048227L292.67892067307696,456.6410630923895L293.24950192307693,170.10727067834185L293.83471346153846,-708.2522299087948L294.419925,-968.8788167210923L295.5318269230769,130.25237628922778L296.1024081730769,-78.17729914250623L307.4994028846154,-32.95464662950076L308.0553538461539,53.14846089773795L309.2257769230769,266.0616947959374L309.81098846153844,5.626950177708807L310.93752067307696,424.67375882069217L312.10794375,-196.1523311980418L314.96085,3.189234763549507L315.5460615384616,468.91309320933607L317.30169615384614,97.39654153103203L317.8869076923077,-121.11300322843732L318.99880961538463,458.59710911064644L319.5401302884615,172.6587380248574L320.6520322115384,-281.05755847152057L321.7639341346154,453.9467629729882L322.8904663461538,367.907196828547L324.0608894230769,-337.24918598699594L326.88453509615385,401.93802273216266L327.46974663461543,347.20130002551684L329.66428990384617,435.64410412454833L330.20561057692305,196.48834680020363L330.7761918269231,357.41545888910053L331.33214278846157,468.3662752870352L333.0585168269231,443.027981602776L334.75563028846153,111.60352179180842L335.3262115384615,90.29898937331745L335.8821625,230.23156166842537L336.46737403846157,486.3576388785911L338.1352269230769,196.9461628016053L338.70580817307695,28.345396784550587L339.81771009615386,416.63736412311397L340.3736610576923,-36.174144360442824L340.9296120192308,99.61812150679401L341.4709326923077,506.702943409436L342.0415139423077,171.0983876784941L342.6267254807692,453.67085870993077L343.19730673076924,367.6112793983305L343.72399711538463,147.64129787258346L344.30920865384616,385.1397517981655L344.8797899038462,433.54053924101083L345.42111057692307,187.56961334831655L345.9770615384615,-287.2249974167207L349.85408798076924,492.2607111600597L352.0925221153846,313.18256999216214L352.6631033653846,-94.73710380070128L354.90153749999996,369.0624454836249L356.59865096153845,510.4185240767872L360.9877375,520.8590702632131L361.57294903846156,239.9118105104202L363.2993230769231,403.1169556087306L368.84420240384617,447.11511695340204L369.94147403846154,68.38452058225477L370.497425,-435.8047804816339L371.0387456730769,455.0489420546275L371.60932692307694,57.23710188815869L372.1652778846154,274.35002194096495L372.75048942307694,-165.93234728407026L373.9062822115385,78.36478084132358L374.49149374999996,378.2945211858247L376.17397692307696,525.5880480162182L376.71529759615385,8.515680838241963L377.2566182692308,507.45390240367965L380.4899120192308,-264.77431785112447L383.7817269230769,283.76916915833357L384.9082591346154,440.9367325144133L385.44957980769226,502.85002809204497L386.00553076923075,145.32941334374036L386.5907423076923,207.82588212366008L387.14669326923075,235.25836850666718L387.70264423076924,535.8834014662599L388.8291764423077,487.00883654845865L389.37049711538464,130.430853815456L389.9410783653846,425.93272744859524L390.4970293269231,443.0861940357382L391.0676105769231,82.84962502266995L391.62356153846156,523.9892953964389L395.5444788461538,520.6804235639743L396.11506009615385,368.3177120561729L397.2123317307692,186.4204210870196L398.32423365384614,473.10856695597784L399.43613557692305,336.5217462096547L400.02134711538463,-1026.6034900590132L401.6160485576923,497.289226645709L402.18662980769227,331.10621362755774L402.7572110576923,23.46353738182762L403.8398524038462,509.20846336626096L404.3958033653846,-311.81964038079605L404.9663846153846,45.11030680084906L406.04902596153846,483.6198274608525L407.6437274038462,-338.9751567107786L408.18504807692307,71.75519131550726L409.28231971153843,541.9870537277972L411.4476024038462,-83.38234666476137L411.9889230769231,177.82795470345835L412.5595043269231,506.8347630193289L415.3538894230769,457.15609340599065L415.8805798076923,14.273856436094945L416.4365307692308,376.57227226827615L418.1043836538461,343.1051139188214L418.61644375,182.72828779894357L419.14313413461537,550.228240813409L420.8256173076923,343.22786585534385L421.89362836538464,453.60616695066096L422.4349490384615,160.6902212063052L422.97626971153846,-338.2075172576857L430.0865899038461,-138.67174067987628L430.62791057692306,341.49035753223535L432.2811331730769,72.31089082086692L434.51956730769234,-14.369096672663943L435.0608879807692,-26.237666076528285L435.5875783653846,204.25812483300868L436.11426875,86.01207761442328L436.64095913461534,473.48932465103167L437.7236004807692,233.93563857105283L438.77698125,428.21065895420236L440.3570524038462,174.97884436201778L440.8837427884615,-312.96399429398855L443.13680721153844,415.98029614977713L443.6781278846154,212.25012853259418L445.33135048076923,365.48264307461574L446.37010096153847,503.5836637699988L447.9355418269231,-803.9460937553981L448.9889225961539,95.619412888831L449.53024326923077,-77.32832130589617L450.05693365384616,-261.77345931913726L450.61288461538464,268.92751943082953L451.1542052884615,-206.09510271795227L452.1490649038461,486.6154247122087L452.7050158653846,300.39816557788157L453.24633653846155,306.3439878791396L453.80228750000003,-208.21017136621344L455.9675701923077,509.1018505349538L457.0648418269231,90.31604201279026L458.08896201923073,184.00869064729508L459.18623365384616,455.3511527208399L464.0581197115385,504.3396979545617L464.58481009615383,94.47018679293194L465.68208173076926,-162.38512759691082L466.79398365384617,420.6571516982031L467.8619947115385,351.34806886239454L468.41794567307693,148.6123847882756L469.45669615384617,426.64975033690394L471.0660278846154,503.9842147072979L471.5927182692308,122.1565341957097L472.1340389423077,422.30760359003483L473.2313105769231,469.3201573075449L473.77263124999996,188.5182340881953L474.3139519230769,233.32624355211513L474.81138173076926,485.75529837419725L480.07828557692307,-145.34656331859662L480.61960624999995,26.195749172913963L481.1170360576923,357.21011668878225L481.61446586538466,293.6420383902464L482.12652596153845,-19.043752971951562L484.3356995192308,397.21978746533347L484.89165048076916,102.9352997340813L485.34518942307693,461.7845993079749L485.8718798076923,93.70085560973251L486.3839399038461,458.50731207659726L486.91063028846156,-99.97598592508501L488.958870673077,177.25618376208763L489.48556105769234,116.26278334712754L490.53894182692306,410.52727482852174L494.26966538461534,467.84342918034235L494.7378346153846,183.57093856495564L495.293785576923,492.5953522924124L497.8394557692308,-583.9601422974464L498.3807764423077,13.032735560814729L502.0383485576923,337.15441943485683L502.5650389423077,462.7992144393054L505.63739951923077,-544.5265902086394L506.16408990384616,31.449315514621446L506.6907802884615,424.9914319000773L508.2415908653846,277.6363091765088L509.33886249999995,-247.85309197299205L512.0308355769231,424.8642645479771L512.5428956730769,168.59970231129913L513.0549557692308,304.70009990012085L513.5962764423077,506.7743513372284L519.9165610576923,438.80114317996106L520.4286211538462,197.64115936392827L521.4088504807693,519.165885268893L521.9209105769231,514.914550594137L522.4476009615385,345.3038555381466L523.4863514423078,516.004312376795L525.666264423077,421.0217872053427L526.1783245192307,40.118281933595426L526.6903846153847,547.9110865452844L530.2894355769231,389.9566487648016L531.8695067307692,304.2069267394948L532.3961971153847,192.0825402494296L532.9082572115384,377.0679153548576L533.4349475961538,352.8319191733451L534.4005466346154,-147.84802312316606L535.4685576923076,333.6191095276467L536.0098783653846,460.7355743862796L537.5460586538462,379.69787897831145L538.087379326923,311.061208107905L539.5065173076923,190.64856214201652L540.0624682692307,455.826190534725L541.6425394230769,150.31006978467875L542.1253389423076,502.5496106597454L549.118616826923,-85.27214453205056L549.6599375,334.6103618662074L550.7133182692307,490.90732707491685L551.2107480769231,140.67434727908514L551.75206875,410.7347993606773L552.7615586538462,55.58698834234832L553.2882490384616,490.5753081242292L557.83826875,-199.19852809688132L558.3503288461538,265.8973262987968L558.8770192307693,509.9257230967845L560.852108173077,482.28307308265585L561.9054889423077,78.22287851999641L562.4468096153846,448.58353868578206L564.3780076923077,-67.4268956697868L565.44601875,311.8507047139731L566.3677269230769,493.84274948638745L567.8453860576923,453.4202796465666L568.3135552884615,212.13654577324857L569.3376754807692,155.05513589099596L569.8497355769231,-66.68963968940528L570.8445951923077,-84.25108390901454L571.9126062500001,120.87152984146871L572.4831875,357.8343650980544L573.0245081730769,-339.7369089431013L575.5262875,486.0035259327135L576.5650379807693,78.95208186507136L577.0185769230769,-177.60934517068267L577.4867461538461,132.8476256108977L578.5254966346154,-422.62478189926617L586.0015740384615,459.8937525680197L586.4551129807692,179.16925983564133L586.9525427884615,451.32165461493986L588.4887230769231,514.0776178758847L588.9568923076923,188.3112678269748L590.9612418269231,190.4851071791334L591.8683197115384,81.37802283768991L592.83391875,224.54484475026794L593.3020879807693,485.91009167893543L596.1988850961538,-77.49641160927087L597.7204350961538,374.86653463656637L598.2471254807692,34.85219678910033L598.7445552884615,232.15566782227296L599.2858759615384,-239.63696786890682L604.3479557692308,450.49698693995913L604.816125,212.75176034375235L605.7524634615385,188.67671536456552L606.2645235576923,55.24498818403271L606.7619533653846,492.9531362926209L607.1716014423076,63.79708988725457L607.6836615384616,219.77670344529906L608.1664610576923,400.32845995700336L608.6931514423077,549.4002573474197L609.6587504807693,222.90021241000235L610.0976591346154,485.622091545617L611.9995966346154,501.0360535681259L612.4823961538461,97.65300781516663L612.9066745192308,517.9857343466484L613.9307947115385,-499.92189286891016L614.4428548076922,220.81951971750377L616.8568524038462,442.36328392665916L619.2415894230769,491.1267783043228L619.7536495192307,87.85227395499197L620.22181875,451.2142297531816L624.4499721153846,479.0228723253531L624.9620322115385,374.3053539256619L626.4250610576923,539.8428619457537L628.8390586538461,405.0363249182802L629.380379326923,111.37138258660428L630.7263658653845,-648.5050593940362L631.2237956730769,-236.69748530518086L631.7358557692307,46.93338283274073L632.5844125,314.45312697129424L633.9596596153847,432.1691551475356L635.8469668269231,471.74127684936013L636.3005057692308,365.14253765401935L636.7979355769231,421.1125146909505L638.0854009615384,524.7751547827781L638.9924788461537,219.54537627054603L639.4167572115384,164.16276792656683L641.2601735576923,388.5973097896842L642.693941826923,443.1007598319545L643.6888014423076,310.350681463205L645.1079394230769,95.90754836055788L645.5468480769231,518.477435702082L646.4831865384615,-409.15570047631184L648.941075,178.6933084874987L649.4385048076923,471.81100996434714L651.7647206730769,517.0269970607333L652.5840168269231,91.62381705426378L653.0229254807692,-192.00332927742363L653.4910947115385,193.2728077177106L653.9153730769231,-465.9987117519664L656.387891826923,-229.59296321942782L657.3242302884615,353.4011863541583L658.2020475961539,77.28417131854133L658.6555865384615,314.6896308401729L660.1039850961539,443.1650117413967L661.0695841346154,538.3144599224504L661.5523836538462,89.10449257977035L661.9620317307692,515.18482139594L663.3665394230769,453.68456172379285L664.3321384615384,182.25450186533718L665.3123677884615,444.92229638944934L666.7315057692308,-83.2752263144223L667.2143052884616,332.91751521790866L667.6824745192308,400.9744809327452L668.1360134615385,234.17248078595284L669.0723519230769,503.4652764971509L670.8865076923078,491.04819744087916L673.1980932692308,352.1299865175858L674.1783225961539,563.6722846307882L674.6318615384616,113.27911279302162L675.0854004807693,-294.2005419991598L681.7568120192308,-346.1950547897902L682.6492596153846,236.39165850496366L683.4392951923077,-32.91418044535499L684.3171125,84.32264826093945L685.6777293269231,461.48022322722625L687.0676067307692,94.73714180372639L687.4187336538462,171.06039142030372L690.754439423077,443.3508144589857L692.5832254807692,-114.36733093285989L694.2657086538461,235.7632146050276L695.2459379807692,166.98538577454076L695.7433677884616,-442.5682497779311L696.6211850961539,365.70747400576005L697.5282629807692,451.6473295777284L702.6342336538462,457.37094312950705L703.0731423076924,180.07213619344222L703.5705721153846,167.98370954494635L704.5361711538461,-80.85165376395275L705.0043403846154,149.43845659924466L705.8090062499999,499.11441734023373L709.61288125,476.5513392263663L711.2514735576923,254.16788477888508L711.6903822115385,459.21986879742497L713.5191682692308,459.00583110435963L713.9580769230769,16.676654540857555L715.1431302884615,429.5408832541882L715.4796269230769,245.12585803684152L716.9280254807692,-231.5686333069193L717.9228850961539,473.7138341534558L719.3127625,110.22320536337122L720.1759495192308,-286.3819744700853L720.5855975961539,75.16423048757355L721.5073057692308,-237.56128269752332L723.9944548076923,-288.66499808331275L725.1795081730769,149.5148212962488L726.4084524038461,425.36165011656817L727.652026923077,-77.24826863725997L728.5152139423077,149.60993036283227L729.77341875,421.3030711701386L738.1712043269231,536.0738056897384L739.1075427884616,353.31061112426016L739.5171908653847,130.87239537323387L740.3218567307692,73.43961314787606L740.7607653846153,498.7283476126456L741.1996740384616,30.7251873598658L741.6532129807692,323.3100446050924L742.0774913461538,298.028796060022L742.8236360576923,498.3376763791681L744.2427740384616,524.2294026504443L744.7402038461539,127.54679233001661L745.1205913461538,431.5531116292796L747.680891826923,502.21686426511195L748.4416668269231,254.17167425432348L750.4752769230769,546.6755399207049L751.2506822115384,-538.2282113532016L751.6164394230769,206.66017857652443L752.5674081730768,-189.10316252137102L756.3859134615384,455.39270161225375L757.2344701923078,227.61547023184428L757.6294879807692,553.3515552291501L758.0098754807692,511.3656899287744L758.521935576923,154.3183535950442L758.9315836538461,468.72742583015554L760.1020067307693,-147.36479733556587L760.4823942307693,171.93261362857615L760.8188908653847,358.5462789614416L761.2285389423078,159.85152908874218L762.0332048076923,418.94312458897184L763.2036278846155,86.05078439925836L763.9351423076923,542.4461808200314L764.7251778846154,511.4698328341261L765.9687524038461,326.8269484887446L766.7880485576923,511.50667871584415L774.1324533653847,472.8654822569851L774.5128408653846,146.69470720883245L775.7125245192308,-130.6540226826731L782.5741298076922,-180.9525422070068L782.9398870192308,26.828117886696987L783.2763836538461,128.9673719349868L783.7006620192308,477.40393736540415L784.0956798076922,364.0435559422812L784.9881274038462,501.50770792179816L785.3831451923077,190.80007349034824L786.2170716346154,498.85852624433534L786.6120894230769,250.43893944369313L787.7971427884615,551.632190711433L791.6156480769231,396.7940974186528L793.0640466346154,231.10781019435112L794.3515120192308,-155.47799657997587L795.4487836538461,310.6063695514906L796.2388192307692,-135.45258129495562L797.4677634615384,410.89427875781035L798.1407567307692,94.78085610967645L798.5357745192307,385.3516240766946L799.2087677884615,-48.173112320910775L799.6476764423077,232.7603598315148L800.0426942307693,-345.35338522723987L802.0031528846154,-219.82782336069238L802.3689100961539,110.89989740594262L802.6615158653847,314.7573677136343L803.3345091346155,-124.2097490228569L804.5049322115384,519.2347386842247L804.89995,288.47288938084967L805.2364466346154,461.03277753137695L806.9481903846154,445.2979112249797L807.3578384615384,63.735037226950794L807.6943350961538,504.9305008596298L808.0600923076923,555.0015672711542L809.9327692307692,117.91255854691661L811.4982100961538,520.120105635424L811.9078581730769,67.91164818290582L812.2736153846154,64.5530225680111L812.6393725961539,93.81203611232701L813.3562567307692,201.05276996575637L813.6927533653846,405.4522705995478L814.8778067307693,-184.00618271831456L815.6385817307691,193.88264258647595L816.0335995192308,242.02072126109405L816.4286173076923,-634.8824365466224L817.8916461538462,-144.67893894939562L818.2135125000001,219.80536135330195L818.5792697115385,171.07368841894024L819.8228442307693,375.9146967759074L820.4519466346154,255.24558452588434L820.846964423077,310.7001929031931L821.5492182692308,64.61000003799563L823.1878105769231,363.333773658828L823.5681980769231,204.57569640858745L824.2997125,-54.067912042158866L829.9177432692308,463.5542166685034L830.3127610576922,137.9753272326869L831.0296451923077,465.85138314542064L833.4729033653847,442.66038556795013L833.8532908653846,250.2723378628121L834.9066716346155,28.130411722625638L835.6674466346153,31.241841734369075L836.0770947115384,-787.3919056411564L839.8956,510.77331371470734L840.5832235576923,47.273555922541334L841.7243860576923,-581.3862764443217L842.0608826923077,165.9168213701162L843.5824326923077,-312.09749013347584L845.1332432692308,67.73428719854786L845.5575216346155,-6.930221048676287L846.9766596153846,408.9161387443634L848.0885615384615,101.88815263280412L848.5128399038462,387.8002173154382L849.5662206730769,532.0908555377167L849.9319778846153,196.04623005418958L850.4001471153846,83.81756532036411L851.4388975961539,111.39604801155599L851.8339153846154,36.12309211425378L852.2143028846154,303.9694755017565L854.0138283653846,60.04192273541298L854.4234764423077,489.29625865996286L854.7160822115385,325.7444442282431L855.4037057692308,150.32901716187075L856.5448682692307,-36.310159460999614L857.3202735576923,-572.1070691413569L857.7299216346154,158.1379418293386L859.456295673077,565.6739396927145L863.5966673076923,453.5344714287505L863.9770548076923,131.3546737919745L864.3867028846154,-308.61313513707137L865.1328475961539,-46.07178052111368L865.4547139423078,344.5905882906742L866.2008586538462,367.0621438057838L866.9323730769231,157.27116699200883L867.2835,421.16600719691576L869.2732192307692,-135.99095748402544L869.6243461538461,114.86463608336857L871.1312658653846,-22.194025106938568L871.4531322115384,46.356841212469874L871.7457379807693,169.4061500530336L872.0822346153847,514.6986858325567L873.3404394230769,-157.65200510514512L874.70105625,169.89526306140422L875.5349826923077,529.8923253846549L875.8861096153846,344.91445310224884L876.22260625,468.6318430791423L878.8121673076923,460.74679055688523L880.8457774038461,163.53280146953497L881.1822740384615,445.1642307119697L882.4697394230769,433.05819315306593L882.7623451923077,159.98808554293308L883.4645990384615,475.7072335724627L887.4001466346153,-600.3628867325606L887.8097947115384,240.8983936738872L888.9070663461538,70.39368692585356L889.3020841346154,371.30473223588956L891.3649548076924,500.86865687409477" style="fill: none;" fill="none"></path></g></g></g></g></g></g><g transform="translate(78, 377)" clip-path="url(#clip_1)"><clipPath id="clip_1"><rect width="950" height="22"></rect></clipPath><g><g><line x1="0" y1="0" x2="0" y2="5" style="visibility: inherit;" fill="rgb(0, 0, 0)" stroke="rgb(204, 204, 204)" stroke-width="1px"></line><line x1="73.1514423076923" y1="0" x2="73.1514423076923" y2="5" style="visibility: inherit;" fill="rgb(0, 0, 0)" stroke="rgb(204, 204, 204)" stroke-width="1px"></line><line x1="146.3028846153846" y1="0" x2="146.3028846153846" y2="5" style="visibility: inherit;" fill="rgb(0, 0, 0)" stroke="rgb(204, 204, 204)" stroke-width="1px"></line><line x1="219.45432692307693" y1="0" x2="219.45432692307693" y2="5" style="visibility: inherit;" fill="rgb(0, 0, 0)" stroke="rgb(204, 204, 204)" stroke-width="1px"></line><line x1="292.6057692307692" y1="0" x2="292.6057692307692" y2="5" style="visibility: inherit;" fill="rgb(0, 0, 0)" stroke="rgb(204, 204, 204)" stroke-width="1px"></line><line x1="365.75721153846155" y1="0" x2="365.75721153846155" y2="5" style="visibility: inherit;" fill="rgb(0, 0, 0)" stroke="rgb(204, 204, 204)" stroke-width="1px"></line><line x1="438.90865384615387" y1="0" x2="438.90865384615387" y2="5" style="visibility: inherit;" fill="rgb(0, 0, 0)" stroke="rgb(204, 204, 204)" stroke-width="1px"></line><line x1="512.0600961538461" y1="0" x2="512.0600961538461" y2="5" style="visibility: inherit;" fill="rgb(0, 0, 0)" stroke="rgb(204, 204, 204)" stroke-width="1px"></line><line x1="585.2115384615385" y1="0" x2="585.2115384615385" y2="5" style="visibility: inherit;" fill="rgb(0, 0, 0)" stroke="rgb(204, 204, 204)" stroke-width="1px"></line><line x1="658.3629807692307" y1="0" x2="658.3629807692307" y2="5" style="visibility: inherit;" fill="rgb(0, 0, 0)" stroke="rgb(204, 204, 204)" stroke-width="1px"></line><line x1="731.5144230769231" y1="0" x2="731.5144230769231" y2="5" style="visibility: inherit;" fill="rgb(0, 0, 0)" stroke="rgb(204, 204, 204)" stroke-width="1px"></line><line x1="804.6658653846154" y1="0" x2="804.6658653846154" y2="5" style="visibility: inherit;" fill="rgb(0, 0, 0)" stroke="rgb(204, 204, 204)" stroke-width="1px"></line><line x1="877.8173076923077" y1="0" x2="877.8173076923077" y2="5" style="visibility: inherit;" fill="rgb(0, 0, 0)" stroke="rgb(204, 204, 204)" stroke-width="1px"></line><line x1="950.96875" y1="0" x2="950.96875" y2="5" style="visibility: inherit;" fill="rgb(0, 0, 0)" stroke="rgb(204, 204, 204)" stroke-width="1px"></line></g><g transform="translate(0, 8)"><text x="0" y="0" dx="0em" dy="0.95em" style="text-anchor: middle; visibility: hidden; font-family: &quot;Helvetica Neue&quot;, sans-serif; font-size: 12px; font-weight: 200;" fill="rgb(50, 49, 63)" stroke="none" stroke-width="1px">-5k</text><text x="73.1514423076923" y="0" dx="0em" dy="0.95em" style="text-anchor: middle; visibility: inherit; font-family: &quot;Helvetica Neue&quot;, sans-serif; font-size: 12px; font-weight: 200;" fill="rgb(50, 49, 63)" stroke="none" stroke-width="1px">0</text><text x="146.3028846153846" y="0" dx="0em" dy="0.95em" style="text-anchor: middle; visibility: inherit; font-family: &quot;Helvetica Neue&quot;, sans-serif; font-size: 12px; font-weight: 200;" fill="rgb(50, 49, 63)" stroke="none" stroke-width="1px">5k</text><text x="219.45432692307693" y="0" dx="0em" dy="0.95em" style="text-anchor: middle; visibility: inherit; font-family: &quot;Helvetica Neue&quot;, sans-serif; font-size: 12px; font-weight: 200;" fill="rgb(50, 49, 63)" stroke="none" stroke-width="1px">10k</text><text x="292.6057692307692" y="0" dx="0em" dy="0.95em" style="text-anchor: middle; visibility: inherit; font-family: &quot;Helvetica Neue&quot;, sans-serif; font-size: 12px; font-weight: 200;" fill="rgb(50, 49, 63)" stroke="none" stroke-width="1px">15k</text><text x="365.75721153846155" y="0" dx="0em" dy="0.95em" style="text-anchor: middle; visibility: inherit; font-family: &quot;Helvetica Neue&quot;, sans-serif; font-size: 12px; font-weight: 200;" fill="rgb(50, 49, 63)" stroke="none" stroke-width="1px">20k</text><text x="438.90865384615387" y="0" dx="0em" dy="0.95em" style="text-anchor: middle; visibility: inherit; font-family: &quot;Helvetica Neue&quot;, sans-serif; font-size: 12px; font-weight: 200;" fill="rgb(50, 49, 63)" stroke="none" stroke-width="1px">25k</text><text x="512.0600961538461" y="0" dx="0em" dy="0.95em" style="text-anchor: middle; visibility: inherit; font-family: &quot;Helvetica Neue&quot;, sans-serif; font-size: 12px; font-weight: 200;" fill="rgb(50, 49, 63)" stroke="none" stroke-width="1px">30k</text><text x="585.2115384615385" y="0" dx="0em" dy="0.95em" style="text-anchor: middle; visibility: inherit; font-family: &quot;Helvetica Neue&quot;, sans-serif; font-size: 12px; font-weight: 200;" fill="rgb(50, 49, 63)" stroke="none" stroke-width="1px">35k</text><text x="658.3629807692307" y="0" dx="0em" dy="0.95em" style="text-anchor: middle; visibility: inherit; font-family: &quot;Helvetica Neue&quot;, sans-serif; font-size: 12px; font-weight: 200;" fill="rgb(50, 49, 63)" stroke="none" stroke-width="1px">40k</text><text x="731.5144230769231" y="0" dx="0em" dy="0.95em" style="text-anchor: middle; visibility: inherit; font-family: &quot;Helvetica Neue&quot;, sans-serif; font-size: 12px; font-weight: 200;" fill="rgb(50, 49, 63)" stroke="none" stroke-width="1px">45k</text><text x="804.6658653846154" y="0" dx="0em" dy="0.95em" style="text-anchor: middle; visibility: inherit; font-family: &quot;Helvetica Neue&quot;, sans-serif; font-size: 12px; font-weight: 200;" fill="rgb(50, 49, 63)" stroke="none" stroke-width="1px">50k</text><text x="877.8173076923077" y="0" dx="0em" dy="0.95em" style="text-anchor: middle; visibility: inherit; font-family: &quot;Helvetica Neue&quot;, sans-serif; font-size: 12px; font-weight: 200;" fill="rgb(50, 49, 63)" stroke="none" stroke-width="1px">55k</text><text x="950.96875" y="0" dx="0em" dy="0.95em" style="text-anchor: middle; visibility: hidden; font-family: &quot;Helvetica Neue&quot;, sans-serif; font-size: 12px; font-weight: 200;" fill="rgb(50, 49, 63)" stroke="none" stroke-width="1px">60k</text></g><line x1="0" y1="0" x2="950.96875" y2="0" fill="rgb(0, 0, 0)" stroke="rgb(204, 204, 204)" stroke-width="1px"></line></g></g></g></g></svg>