<svg viewBox="0 0 1029 400" xmlns="http://www.w3.org/2000/svg"><g><g><g><g><g><line x1="78.03125" y1="377.828125" x2="73.03125" y2="377.828125" style="visibility: inherit;" fill="rgb(0, 0, 0)" stroke="rgb(204, 204, 204)" stroke-width="1px"></line><line x1="78.03125" y1="343.4801136363636" x2="73.03125" y2="343.4801136363636" style="visibility: inherit;" fill="rgb(0, 0, 0)" stroke="rgb(204, 204, 204)" stroke-width="1px"></line><line x1="78.03125" y1="309.1321022727272" x2="73.03125" y2="309.1321022727272" style="visibility: inherit;" fill="rgb(0, 0, 0)" stroke="rgb(204, 204, 204)" stroke-width="1px"></line><line x1="78.03125" y1="274.7840909090908" x2="73.03125" y2="274.7840909090908" style="visibility: inherit;" fill="rgb(0, 0, 0)" stroke="rgb(204, 204, 204)" stroke-width="1px"></line><line x1="78.03125" y1="240.43607954545448" x2="73.03125" y2="240.43607954545448" style="visibility: inherit;" fill="rgb(0, 0, 0)" stroke="rgb(204, 204, 204)" stroke-width="1px"></line><line x1="78.03125" y1="206.08806818181813" x2="73.03125" y2="206.08806818181813" style="visibility: inherit;" fill="rgb(0, 0, 0)" stroke="rgb(204, 204, 204)" stroke-width="1px"></line><line x1="78.03125" y1="171.74005681818178" x2="73.03125" y2="171.74005681818178" style="visibility: inherit;" fill="rgb(0, 0, 0)" stroke="rgb(204, 204, 204)" stroke-width="1px"></line><line x1="78.03125" y1="137.3920454545454" x2="73.03125" y2="137.3920454545454" style="visibility: inherit;" fill="rgb(0, 0, 0)" stroke="rgb(204, 204, 204)" stroke-width="1px"></line><line x1="78.03125" y1="103.04403409090907" x2="73.03125" y2="103.04403409090907" style="visibility: inherit;" fill="rgb(0, 0, 0)" stroke="rgb(204, 204, 204)" stroke-width="1px"></line><line x1="78.03125" y1="68.69602272727269" x2="73.03125" y2="68.69602272727269" style="visibility: inherit;" fill="rgb(0, 0, 0)" stroke="rgb(204, 204, 204)" stroke-width="1px"></line><line x1="78.03125" y1="34.348011363636374" x2="73.03125" y2="34.348011363636374" style="visibility: inherit;" fill="rgb(0, 0, 0)" stroke="rgb(204, 204, 204)" stroke-width="1px"></line><line x1="78.03125" y1="0" x2="73.03125" y2="0" style="visibility: inherit;" fill="rgb(0, 0, 0)" stroke="rgb(204, 204, 204)" stroke-width="1px"></line></g><g transform="translate(68.03125, 0)"><text x="0" y="377.828125" dx="0em" dy="0.3em" style="text-anchor: end; visibility: hidden; font-family: &quot;Helvetica Neue&quot;, sans-serif; font-size: 12px; font-weight: 200;" fill="rgb(50, 49, 63)" stroke="none" stroke-width="1px">7e-5</text><text x="0" y="343.4801136363636" dx="0em" dy="0.3em" style="text-anchor: end; visibility: inherit; font-family: &quot;Helvetica Neue&quot;, sans-serif; font-size: 12px; font-weight: 200;" fill="rgb(50, 49, 63)" stroke="none" stroke-width="1px">7.5e-5</text><text x="0" y="309.1321022727272" dx="0em" dy="0.3em" style="text-anchor: end; visibility: inherit; font-family: &quot;Helvetica Neue&quot;, sans-serif; font-size: 12px; font-weight: 200;" fill="rgb(50, 49, 63)" stroke="none" stroke-width="1px">8e-5</text><text x="0" y="274.7840909090908" dx="0em" dy="0.3em" style="text-anchor: end; visibility: inherit; font-family: &quot;Helvetica Neue&quot;, sans-serif; font-size: 12px; font-weight: 200;" fill="rgb(50, 49, 63)" stroke="none" stroke-width="1px">8.5e-5</text><text x="0" y="240.43607954545448" dx="0em" dy="0.3em" style="text-anchor: end; visibility: inherit; font-family: &quot;Helvetica Neue&quot;, sans-serif; font-size: 12px; font-weight: 200;" fill="rgb(50, 49, 63)" stroke="none" stroke-width="1px">9e-5</text><text x="0" y="206.08806818181813" dx="0em" dy="0.3em" style="text-anchor: end; visibility: inherit; font-family: &quot;Helvetica Neue&quot;, sans-serif; font-size: 12px; font-weight: 200;" fill="rgb(50, 49, 63)" stroke="none" stroke-width="1px">9.5e-5</text><text x="0" y="171.74005681818178" dx="0em" dy="0.3em" style="text-anchor: end; visibility: inherit; font-family: &quot;Helvetica Neue&quot;, sans-serif; font-size: 12px; font-weight: 200;" fill="rgb(50, 49, 63)" stroke="none" stroke-width="1px">1e-4</text><text x="0" y="137.3920454545454" dx="0em" dy="0.3em" style="text-anchor: end; visibility: inherit; font-family: &quot;Helvetica Neue&quot;, sans-serif; font-size: 12px; font-weight: 200;" fill="rgb(50, 49, 63)" stroke="none" stroke-width="1px">1.05e-4</text><text x="0" y="103.04403409090907" dx="0em" dy="0.3em" style="text-anchor: end; visibility: inherit; font-family: &quot;Helvetica Neue&quot;, sans-serif; font-size: 12px; font-weight: 200;" fill="rgb(50, 49, 63)" stroke="none" stroke-width="1px">1.1e-4</text><text x="0" y="68.69602272727269" dx="0em" dy="0.3em" style="text-anchor: end; visibility: inherit; font-family: &quot;Helvetica Neue&quot;, sans-serif; font-size: 12px; font-weight: 200;" fill="rgb(50, 49, 63)" stroke="none" stroke-width="1px">1.15e-4</text><text x="0" y="34.348011363636374" dx="0em" dy="0.3em" style="text-anchor: end; visibility: inherit; font-family: &quot;Helvetica Neue&quot;, sans-serif; font-size: 12px; font-weight: 200;" fill="rgb(50, 49, 63)" stroke="none" stroke-width="1px">1.2e-4</text><text x="0" y="0" dx="0em" dy="0.3em" style="text-anchor: end; visibility: hidden; font-family: &quot;Helvetica Neue&quot;, sans-serif; font-size: 12px; font-weight: 200;" fill="rgb(50, 49, 63)" stroke="none" stroke-width="1px">1.25e-4</text></g><line x1="78.03125" y1="0" x2="78.03125" y2="377.828125" fill="rgb(0, 0, 0)" stroke="rgb(204, 204, 204)" stroke-width="1px"></line></g></g><g transform="translate(78, 0)" clip-path="url(#clip_0)"><clipPath id="clip_0"><rect width="950" height="377"></rect></clipPath><g><g><g><line x1="0" y1="0" x2="0" y2="377.828125" fill="rgb(0, 0, 0)" stroke="rgb(60, 60, 60)" stroke-width="1px" opacity="0.25"></line><line x1="73.1514423076923" y1="0" x2="73.1514423076923" y2="377.828125" fill="rgb(0, 0, 0)" stroke="rgb(60, 60, 60)" stroke-width="1px" opacity="0.25"></line><line x1="146.3028846153846" y1="0" x2="146.3028846153846" y2="377.828125" fill="rgb(0, 0, 0)" stroke="rgb(60, 60, 60)" stroke-width="1px" opacity="0.25"></line><line x1="219.45432692307693" y1="0" x2="219.45432692307693" y2="377.828125" fill="rgb(0, 0, 0)" stroke="rgb(60, 60, 60)" stroke-width="1px" opacity="0.25"></line><line x1="292.6057692307692" y1="0" x2="292.6057692307692" y2="377.828125" fill="rgb(0, 0, 0)" stroke="rgb(60, 60, 60)" stroke-width="1px" opacity="0.25"></line><line x1="365.75721153846155" y1="0" x2="365.75721153846155" y2="377.828125" fill="rgb(0, 0, 0)" stroke="rgb(60, 60, 60)" stroke-width="1px" opacity="0.25"></line><line x1="438.90865384615387" y1="0" x2="438.90865384615387" y2="377.828125" fill="rgb(0, 0, 0)" stroke="rgb(60, 60, 60)" stroke-width="1px" opacity="0.25"></line><line x1="512.0600961538461" y1="0" x2="512.0600961538461" y2="377.828125" fill="rgb(0, 0, 0)" stroke="rgb(60, 60, 60)" stroke-width="1px" opacity="0.25"></line><line x1="585.2115384615385" y1="0" x2="585.2115384615385" y2="377.828125" fill="rgb(0, 0, 0)" stroke="rgb(60, 60, 60)" stroke-width="1px" opacity="0.25"></line><line x1="658.3629807692307" y1="0" x2="658.3629807692307" y2="377.828125" fill="rgb(0, 0, 0)" stroke="rgb(60, 60, 60)" stroke-width="1px" opacity="0.25"></line><line x1="731.5144230769231" y1="0" x2="731.5144230769231" y2="377.828125" fill="rgb(0, 0, 0)" stroke="rgb(60, 60, 60)" stroke-width="1px" opacity="0.25"></line><line x1="804.6658653846154" y1="0" x2="804.6658653846154" y2="377.828125" fill="rgb(0, 0, 0)" stroke="rgb(60, 60, 60)" stroke-width="1px" opacity="0.25"></line><line x1="877.8173076923077" y1="0" x2="877.8173076923077" y2="377.828125" fill="rgb(0, 0, 0)" stroke="rgb(60, 60, 60)" stroke-width="1px" opacity="0.25"></line><line x1="950.96875" y1="0" x2="950.96875" y2="377.828125" fill="rgb(0, 0, 0)" stroke="rgb(60, 60, 60)" stroke-width="1px" opacity="0.25"></line></g><g><line x1="0" y1="377.828125" x2="950.96875" y2="377.828125" fill="rgb(0, 0, 0)" stroke="rgb(60, 60, 60)" stroke-width="1px" opacity="0.25"></line><line x1="0" y1="343.4801136363636" x2="950.96875" y2="343.4801136363636" fill="rgb(0, 0, 0)" stroke="rgb(60, 60, 60)" stroke-width="1px" opacity="0.25"></line><line x1="0" y1="309.1321022727272" x2="950.96875" y2="309.1321022727272" fill="rgb(0, 0, 0)" stroke="rgb(60, 60, 60)" stroke-width="1px" opacity="0.25"></line><line x1="0" y1="274.7840909090908" x2="950.96875" y2="274.7840909090908" fill="rgb(0, 0, 0)" stroke="rgb(60, 60, 60)" stroke-width="1px" opacity="0.25"></line><line x1="0" y1="240.43607954545448" x2="950.96875" y2="240.43607954545448" fill="rgb(0, 0, 0)" stroke="rgb(60, 60, 60)" stroke-width="1px" opacity="0.25"></line><line x1="0" y1="206.08806818181813" x2="950.96875" y2="206.08806818181813" fill="rgb(0, 0, 0)" stroke="rgb(60, 60, 60)" stroke-width="1px" opacity="0.25"></line><line x1="0" y1="171.74005681818178" x2="950.96875" y2="171.74005681818178" fill="rgb(0, 0, 0)" stroke="rgb(60, 60, 60)" stroke-width="1px" opacity="0.25"></line><line x1="0" y1="137.3920454545454" x2="950.96875" y2="137.3920454545454" fill="rgb(0, 0, 0)" stroke="rgb(60, 60, 60)" stroke-width="1px" opacity="0.25"></line><line x1="0" y1="103.04403409090907" x2="950.96875" y2="103.04403409090907" fill="rgb(0, 0, 0)" stroke="rgb(60, 60, 60)" stroke-width="1px" opacity="0.25"></line><line x1="0" y1="68.69602272727269" x2="950.96875" y2="68.69602272727269" fill="rgb(0, 0, 0)" stroke="rgb(60, 60, 60)" stroke-width="1px" opacity="0.25"></line><line x1="0" y1="34.348011363636374" x2="950.96875" y2="34.348011363636374" fill="rgb(0, 0, 0)" stroke="rgb(60, 60, 60)" stroke-width="1px" opacity="0.25"></line><line x1="0" y1="0" x2="950.96875" y2="0" fill="rgb(0, 0, 0)" stroke="rgb(60, 60, 60)" stroke-width="1px" opacity="0.25"></line></g></g></g><g><g><line x1="0" y1="858.700284090909" x2="950.96875" y2="858.700284090909" fill="rgb(0, 0, 0)" stroke="rgb(153, 153, 153)" stroke-width="1.5px"></line></g></g><g><g><line x1="73.1514423076923" y1="0" x2="73.1514423076923" y2="377.828125" fill="rgb(0, 0, 0)" stroke="rgb(153, 153, 153)" stroke-width="1.5px"></line></g></g><g><g><g><g><g><path stroke="rgb(255, 112, 67)" stroke-width="2px" d="M99.50059182692308,-5.142602003759578L100.08580336538462,22.473554678963012L100.67101490384616,26.920346650358624L101.84143798076923,48.865696992440064L102.42664951923076,58.806019191448286L104.18228413461539,79.7388687651669L104.76749567307692,82.77721894132907L105.35270721153846,91.05641689848358L105.93791875,67.93839055038814L106.52313028846153,80.16597560719009L108.27876490384615,62.91483788742585L108.86397644230769,15.233974228053569L109.44918798076922,23.92599620313149L110.03439951923076,32.9139780747804L110.6196110576923,38.72319183632942L111.20482259615385,12.622346680992052L111.79003413461538,6.486916799670269L112.37524567307692,33.27088246621986L112.96045721153847,34.9662357684353L113.54566875,54.131797013704045L114.71609182692308,41.89162482438746L115.30130336538463,57.754073243898006L115.88651490384616,38.85454219587052L116.4717264423077,51.88920649733802L117.64214951923077,47.851582742439746L118.81257259615384,57.53328769542395L119.39778413461539,65.95380802366947L120.56820721153846,41.00754377109496L121.15341875000001,48.02640284313435L122.32384182692309,66.62410764597018L122.90905336538461,67.9750099420753L123.49426490384616,63.97089768106571L124.0794764423077,66.6924110005358L124.66468798076924,76.4334043883826L125.24989951923077,96.87477735217266L126.42032259615384,106.14326438598772L127.00553413461539,76.63232915379899L127.59074567307692,55.222762659843L128.17595721153847,64.98054767696925L129.34638028846155,75.88204368388244L131.10201490384614,87.78073014098288L131.6872264423077,73.98742630047116L132.2724379807692,65.5050518725746L132.85764951923076,69.9367821772953L134.02807259615383,82.85085191953885L134.61328413461538,107.03241275848643L135.19849567307693,117.59194425981224L136.95413028846156,116.9433351459466L137.53934182692308,122.50412053378037L139.2949764423077,103.77202517072561L141.0506110576923,116.20880682930931L141.63582259615384,111.40639670873594L142.22103413461537,127.70630417280404L142.80624567307694,138.42623717951275L143.39145721153847,126.25639015569524L145.1470918269231,138.16804124356938L145.7323033653846,146.77429276820513L146.31751490384616,129.11771347181852L146.90272644230768,141.20843588662558L147.48793798076923,147.93303173193982L148.6583610576923,166.50702369017966L149.24357259615383,168.82152419006604L150.99920721153848,170.734056325488L152.7548418269231,175.1964136439165L153.34005336538462,161.23836030559852L154.5104764423077,167.52598770165474L155.68089951923076,173.46960029581055L156.2661110576923,178.4598353231439L156.85132259615384,179.3766883819267L157.43653413461539,184.511857322527L158.0217456730769,162.05297684069544L158.60695721153846,169.74748680618563L159.77738028846156,180.0348035927756L160.36259182692308,187.17927301308998L160.94780336538463,179.23393578797655L161.53301490384615,187.1490032180996L162.70343798076922,197.295316996293L163.28864951923077,160.7483527440537L163.8738610576923,147.1516135237445L165.04428413461537,146.36105875926435L165.62949567307692,145.237798783752L166.21470721153844,146.71085449925434L167.38513028846154,136.24400567388042L167.9703418269231,143.9249290845111L169.14076490384616,146.38448612932316L169.7259764423077,147.9204967405906L170.89639951923078,166.19442416309676L171.4816110576923,173.67479151169636L172.06682259615386,181.4415097338721L173.23724567307693,181.89152637393858L173.82245721153845,174.06935686134022L175.57809182692307,179.40681120634446L176.16330336538462,166.28042721095903L176.74851490384617,177.9119213715807L177.3337264423077,173.16793184959087L178.50414951923077,159.7712636774116L179.08936105769232,164.05589908867674L180.2597841346154,155.1724611167552L181.43020721153846,157.7872353252129L182.01541874999998,166.98958188449214L182.60063028846153,150.06971489233788L183.18584182692308,150.60187906907362L184.35626490384615,152.78766303090418L184.9414764423077,156.5516499563626L186.69711105769233,159.18820668516355L189.03795721153847,146.24027160198014L189.62316875,142.93803925906795L191.3788033653846,127.32497832550806L191.96401490384613,132.14408192187562L193.13443798076923,127.79715321718118L193.71964951923079,110.56899025472762L194.3048610576923,114.94629694819974L194.89007259615386,122.14359359757202L195.47528413461538,128.70242262756096L197.23091875,134.86175075466065L197.81613028846152,126.68613119839094L198.40134182692307,137.58663547220877L198.98655336538462,139.61219621576868L200.74218798076922,138.794699396318L201.32739951923077,122.4375829763444L201.91261105769232,131.26234227154671L202.49782259615387,137.66900399912436L203.0830341346154,138.8019226026022L203.66824567307694,143.9395746500016L204.83866875,141.3255238057319L205.42388028846153,138.34327782215962L206.00909182692308,145.29949246176122L207.17951490384615,141.23427866315018L207.76472644230768,119.9141689365996L208.34993798076923,113.99051890521827L208.93514951923075,95.10227525258472L209.5203610576923,105.86669981339622L210.10557259615385,110.3378967661643L210.6907841346154,116.46256999429323L211.86120721153847,94.17040425821148L212.44641875,95.89897129953698L213.61684182692306,105.81718095186136L215.95768798076924,109.18257027103982L216.54289951923076,103.63350435721651L217.71332259615383,119.6010536930292L218.29853413461538,120.56595727491998L218.88374567307693,117.39308844769926L219.46895721153848,125.01834779544859L220.05416875,137.7063621106447L220.63938028846155,126.98052321836343L221.22459182692307,125.82445670372059L222.39501490384615,109.04412016878979L224.15064951923077,121.46780858954588L224.7358610576923,132.7717063062458L225.32107259615384,148.85202809789172L225.90628413461536,97.73391003408375L227.07670721153846,93.36069991386853L228.2325,88.41407375221848L229.40292307692306,75.23810486846554L230.5587158653846,79.58932599106862L231.72913894230769,96.88754975539246L232.31435048076924,94.55192919782854L232.89956201923076,86.12369509325754L233.4847735576923,81.8408824460497L234.06998509615383,96.0031223315292L235.2404081730769,109.33428065993553L235.82561971153845,91.88473640743808L236.9814125,98.20878391518045L237.56662403846153,112.79349929451672L238.15183557692308,85.8643487983478L239.32225865384612,90.31706936143695L242.24831634615384,73.25558428783273L243.41873942307694,82.57191962986707L244.0039509615385,71.16007397362023L245.17437403846154,79.0278606323858L245.7595855769231,76.29142892495287L246.34479711538464,70.4599853555361L246.93000865384613,87.81482289448144L247.51522019230768,84.21473758884372L248.10043173076923,88.24728852634655L248.67101298076923,97.54824922222923L249.25622451923078,50.058233757090136L249.84143605769233,63.85878820304413L250.42664759615383,77.42156541201962L252.7382331730769,64.92108817550303L253.3088144230769,74.93818075695219L254.4792375,80.2103035990562L256.17635096153845,76.22846584694543L258.50256682692304,90.8846167427563L259.0731480769231,85.06307058344902L259.6583596153846,93.0660319480063L260.2435711538462,106.89266570598295L261.4139942307693,120.87732384864876L261.99920576923074,120.77528131407382L262.5844173076923,128.58029913476977L263.16962884615384,144.22633306153267L263.7548403846154,139.44958517318477L264.3400519230769,131.41362634251638L266.09568653846156,143.88300567182205L266.68089807692303,147.84388019523476L267.8220605769231,156.6707281428837L268.96322307692304,172.73005835144298L270.13364615384614,168.60917132909856L271.30406923076924,174.9564127197495L272.47449230769234,186.07425581577297L273.05970384615387,137.5464297395648L273.63028509615384,123.5414337634437L274.18623605769227,127.56883257048736L274.77144759615385,121.1296367392722L275.3420288461538,118.9448161677958L275.9272403846154,127.59417565590613L276.5124519230769,120.12240553083058L277.0830331730769,120.41292590403475L278.23882596153845,134.2643642662358L279.4092490384615,130.81481456250572L279.9944605769231,140.3926848517189L281.15025336538463,153.99304265637L282.2767855769231,161.89879008865177L282.84736682692306,168.6242469541926L283.41794807692304,173.32141716824518L284.0031596153846,145.69789489646718L284.58837115384614,148.4694095594549L285.1735826923077,151.40023468031112L285.7441639423077,97.67183864232175L286.28548461538463,65.46779416310181L286.87069615384615,76.49474751473485L287.4559076923077,74.71618995734235L288.0411192307692,80.23775857242265L289.19691201923075,90.16636665773547L289.78212355769233,90.74641125963927L290.9379163461538,78.80480903135208L292.1083394230769,89.1587649181717L292.67892067307696,100.52150209904681L293.24950192307693,90.4964443314089L293.83471346153846,99.35963288118495L294.419925,79.08209462280286L295.5318269230769,87.09133017325252L296.1024081730769,89.01181796078947L297.2582009615385,99.53806040777704L297.82878221153845,119.80339333426883L298.3993634615385,137.97939044946486L298.95531442307697,120.83552095243903L299.52589567307695,134.33744833286985L300.6670581730769,145.19800122365012L301.2522697115385,143.3181788468785L301.80822067307696,126.70236759360643L302.37880192307694,142.81050449313705L304.0905456730769,146.73163729676438L305.1878173076923,152.10437931556083L305.77302884615386,138.90158758239397L306.9141913461538,146.65501459068795L307.4994028846154,145.15886327858135L308.0553538461539,144.43578777084463L309.2257769230769,159.5396295277973L309.81098846153844,167.300347972211L310.93752067307696,156.2108525921652L312.10794375,156.4906151113546L314.96085,147.41840982625777L315.5460615384616,148.85006095418137L317.30169615384614,160.6653341213964L317.8869076923077,136.23755893429126L318.4574889423077,123.84489794191822L318.99880961538463,128.5734163650788L319.5401302884615,139.88845267759075L320.6520322115384,135.20351549850568L321.7639341346154,151.56379878113458L322.8904663461538,148.23644188386064L324.0608894230769,118.8261394009528L325.1874216346154,133.7529536685265L326.88453509615385,143.03669335687806L327.46974663461543,156.00221049615052L329.66428990384617,158.5920367594699L330.20561057692305,155.41325520793652L330.7761918269231,156.4337546631637L331.33214278846157,166.93352079927394L332.5025658653846,173.9045392375657L333.0585168269231,175.98116492574619L334.75563028846153,185.00660776249893L335.3262115384615,191.12274109395548L335.8821625,192.27831556996784L336.46737403846157,164.95102430518625L338.1352269230769,164.4448731996543L338.70580817307695,167.3911512405355L339.81771009615386,144.5033258420668L340.3736610576923,140.39324749303216L340.9296120192308,126.67988063733736L341.4709326923077,122.09253740884739L342.0415139423077,123.83518294819532L342.6267254807692,129.32644618506694L343.19730673076924,134.78648981302754L343.72399711538463,141.740140190921L344.30920865384616,148.9752881516848L344.8797899038462,155.16908073226372L345.42111057692307,160.37937503076475L345.9770615384615,161.27292093343564L346.5622730769231,168.30980991666863L347.08896346153847,172.49674528638087L347.6302841346154,170.32893881547824L349.32739759615384,157.1703438241834L349.85408798076924,168.33680256937063L352.0925221153846,181.49206035318497L352.6631033653846,177.3326394284806L354.90153749999996,185.71857690154127L356.59865096153845,189.64699070516133L357.13997163461534,185.59003735854606L358.20798269230767,198.13007931101725L358.72004278846157,182.22577403441818L360.40252596153846,193.69998711072745L360.9877375,192.18220329463594L361.57294903846156,189.1890619481556L363.2993230769231,196.03032569993826L363.86990432692306,193.7575541815382L364.98180625,163.5967225321238L367.2202403846154,161.40190696990618L367.76156105769235,173.09043975576492L368.84420240384617,174.67466959584684L369.94147403846154,174.77184022719285L370.497425,134.7643818746088L371.0387456730769,133.01212250835988L371.60932692307694,148.71861781590908L372.1652778846154,164.0618930265176L372.75048942307694,161.68549857216357L373.9062822115385,173.79512359267926L374.49149374999996,175.3641077325103L375.062075,161.5023731404275L375.6180259615385,157.05024498994086L376.17397692307696,173.4160379999421L376.71529759615385,176.48367164643628L377.2566182692308,157.5438158127725L379.4072706730769,163.5382770063511L379.9485913461539,181.95585392476173L380.4899120192308,179.00856410791124L383.7817269230769,178.27803374474945L384.9082591346154,171.42578846354826L385.44957980769226,170.5641703897206L386.00553076923075,154.34922076359587L386.5907423076923,156.20118916341525L387.14669326923075,161.1409734754297L387.70264423076924,168.82991035377623L388.2732254807692,167.24664198604074L388.8291764423077,172.54614681663838L389.37049711538464,189.94454966897092L389.9410783653846,189.69470808531395L390.4970293269231,199.84437302744556L391.0676105769231,168.3223915328321L391.62356153846156,178.71219993341873L392.1648822115385,155.0396961542009L392.75009374999996,169.72871729427973L393.2914144230769,141.79928418517588L393.8473653846154,150.74139695203843L394.97389759615385,153.93152151785318L395.5444788461538,163.14289745355035L396.11506009615385,161.15428093315927L397.2123317307692,177.12024695470112L398.32423365384614,172.24487103827363L399.43613557692305,169.13657776471973L400.02134711538463,133.7840588776234L401.6160485576923,126.40796238681168L402.18662980769227,140.2553707806143L402.7572110576923,140.22060267047783L403.8398524038462,144.01570991322805L404.3958033653846,151.78636760366945L404.9663846153846,149.45261027920628L406.04902596153846,158.85266544902555L407.11703701923074,162.24538139635897L407.6437274038462,174.3021658872651L408.18504807692307,186.12805554059705L409.28231971153843,179.6056647909099L409.7943798076923,175.9744503170145L410.92091201923074,169.71371653662183L411.4476024038462,176.0524804317326L411.9889230769231,182.6657435195074L412.5595043269231,187.25437551564613L413.1300855769231,189.51325663549508L413.68603653846156,176.93211161400765L414.2273572115385,178.06270922120095L415.3538894230769,183.89322367380876L415.8805798076923,190.7945110489514L416.4365307692308,197.33298489457903L418.1043836538461,194.19354286475487L418.61644375,196.84801517588346L419.14313413461537,195.76924854895046L420.8256173076923,192.10535915262943L421.89362836538464,174.4415983984989L422.4349490384615,181.46922231359247L422.97626971153846,183.91276219930518L424.02965048076925,189.75338197937518L424.58560144230773,188.5142713199568L425.14155240384616,169.4507179627819L425.69750336538465,183.1571231104653L426.23882403846153,186.17658395493683L427.2922048076923,198.95662041453807L428.4333673076923,181.19266383772626L429.5306389423077,155.05514001828212L430.0865899038461,144.7363794143234L430.62791057692306,140.59873099325148L432.2811331730769,159.5112578088997L434.51956730769234,172.75882499705403L435.0608879807692,177.65423162644757L435.5875783653846,183.13807386930833L436.11426875,184.49952873376182L436.64095913461534,173.80110471345816L437.7236004807692,176.81117855367188L438.77698125,180.51184689354477L440.3570524038462,191.26325160890013L440.8837427884615,160.6751378663144L442.0395355769231,147.0410063914715L443.13680721153844,156.14775122807936L443.6781278846154,167.4780235991262L445.33135048076923,180.51040876316972L446.37010096153847,191.294565308952L446.8821610576923,193.1533011489679L447.4088514423077,193.54267775893084L447.9355418269231,168.7452644291347L448.9889225961539,179.7509715040266L449.53024326923077,180.17744827103388L450.05693365384616,158.84478144036893L450.61288461538464,169.13934504033057L451.1542052884615,159.33594842039847L451.66626538461543,161.32377527927588L452.1490649038461,135.71637469353828L452.7050158653846,133.01923253463042L453.24633653846155,142.382315721243L453.80228750000003,132.05723155567296L455.4262495192308,140.733886195819L455.9675701923077,150.89433391738498L457.0648418269231,148.40773615816167L458.08896201923073,147.5888717506443L459.18623365384616,160.05890061602176L459.72755432692304,152.0844354496013L460.2835052884615,157.66431564290687L460.8101956730769,134.33394114618167L461.3515163461538,142.26021999950035L461.9074673076923,150.85423674386684L462.4487879807692,163.8340844203681L462.9754783653846,166.87192249146003L464.0581197115385,162.20373146515442L464.58481009615383,178.1162733376853L465.68208173076926,175.48292707100913L466.2380326923077,170.6397174261137L466.79398365384617,184.36036009101633L467.8619947115385,193.45623581514937L468.41794567307693,194.11341682078793L469.45669615384617,205.41302789744665L469.95412596153847,211.18850043161447L470.53933750000004,207.0170732474968L471.0660278846154,200.62805989335132L471.5927182692308,206.3539882733852L472.1340389423077,171.79399726389758L472.67535961538465,174.03310095807163L473.2313105769231,179.7357924068582L473.77263124999996,172.30218101753405L474.3139519230769,184.40559100116218L474.81138173076926,190.44331991392403L476.3183014423077,192.93251231512315L477.44483365384616,207.17913563047577L478.46895384615385,195.12186173670256L480.07828557692307,180.1300667946193L480.61960624999995,187.9359538753014L481.1170360576923,196.56444823631134L481.61446586538466,177.27648551627647L482.12652596153845,179.61970627773712L483.2237975961539,182.84071852537733L483.7797485576923,169.3168922174947L484.3356995192308,172.8610169152392L484.89165048076916,179.62740436841736L485.34518942307693,191.71570901319333L485.8718798076923,181.7005505815901L486.3839399038461,192.93059023921165L486.91063028846156,198.98638871674882L488.958870673077,191.14267097872917L489.48556105769234,199.26035690786208L490.53894182692306,203.02839480107346L491.56306201923076,181.16333757513044L492.11901298076924,153.94140961944598L493.20165432692306,114.88200949660757L493.7722355769231,118.01637377658312L494.26966538461534,126.39687785014374L494.7378346153846,131.02220621040755L495.293785576923,138.23782131490927L495.80584567307693,149.2887926286239L497.3273956730769,158.72328268107833L497.8394557692308,144.71090402977507L498.3807764423077,159.05130374232212L502.0383485576923,166.73995470651457L502.5650389423077,172.8501768453818L504.1012192307692,177.16858959353334L505.63739951923077,168.71117053528644L506.16408990384616,169.60553982720717L506.6907802884615,182.08549197871136L508.2415908653846,188.64888942841282L509.33886249999995,195.10078585854546L509.8801831730769,198.35230401401716L510.40687355769234,186.74635915815514L512.0308355769231,188.08512632543832L512.5428956730769,194.31734879140868L513.0549557692308,203.97594371479858L513.5962764423077,200.09371349208735L514.1375971153847,208.01115220187694L514.6350269230769,213.036921512457L515.1617173076924,217.67128511049552L515.7030379807693,217.9666137537287L517.7366480769231,209.60976450100682L518.2633384615385,189.93394892807754L519.3313495192308,179.7660459819751L519.9165610576923,189.6561026086347L520.4286211538462,169.1200827288552L521.4088504807693,180.15781376122035L521.9209105769231,169.1002246561844L522.4476009615385,180.13108349333524L523.4863514423078,169.0126392380354L524.0715629807692,181.56432713294038L524.5982533653846,200.74935277764112L525.12494375,191.70843054046912L525.666264423077,193.25036393279677L526.1783245192307,207.52423425480964L526.6903846153847,207.32694777361618L527.758395673077,203.11985720817745L529.8066360576923,205.67536867482463L530.2894355769231,184.37712507640333L531.8695067307692,193.8849091525894L532.3961971153847,184.6397463533176L532.9082572115384,187.4639244746731L533.4349475961538,192.58025931125954L534.4005466346154,180.45816307791765L535.4685576923076,187.55271007491038L536.0098783653846,195.69152184443774L536.4926778846153,202.9101042371347L537.0047379807693,209.1069860946118L537.5460586538462,214.4828903367889L538.087379326923,224.4158910133679L539.5065173076923,227.82743285461942L540.0624682692307,212.77298728808626L541.6425394230769,200.8426102729023L542.1253389423076,190.23606919691582L543.1640894230769,201.70624870911567L544.7149,203.27396933271336L546.7631403846153,206.42801889831122L547.6994788461539,215.11924451617995L548.1822783653846,221.7790731377826L548.6504475961539,196.18115892260315L549.118616826923,202.01609168578267L549.6599375,181.24473965117465L550.7133182692307,194.89025941323348L551.2107480769231,209.8036474740559L551.75206875,212.02295159396732L552.7615586538462,216.62908228742316L553.2882490384616,228.98799658877275L554.3123692307693,214.7046445798687L556.2728278846154,223.7995733522745L557.83826875,215.03114933469348L558.3503288461538,225.2853226551106L558.8770192307693,214.83927359575776L560.3839389423076,224.34799734292807L560.852108173077,211.47565029945204L561.9054889423077,206.14339850425782L562.4468096153846,222.53544789820813L563.4270389423077,225.1632001789655L563.9098384615384,208.97337584902837L564.3780076923077,201.1281456721307L565.44601875,199.40308564000472L566.3677269230769,212.74447448379226L567.8453860576923,216.46090403662936L568.3135552884615,228.4022385891588L569.3376754807692,226.29273824004832L569.8497355769231,236.44818293123134L570.39105625,240.82668433967254L570.8445951923077,217.40983255005014L571.9126062500001,229.5262288389464L572.4831875,217.63750821259356L573.0245081730769,211.3619530665832L573.5511985576923,191.22315599367957L574.546058173077,166.97111293287722L575.5262875,188.26207255822737L576.5650379807693,175.395885032918L577.0185769230769,180.93841921263882L577.4867461538461,181.78063029711507L578.5254966346154,193.31673830733675L579.0082961538461,189.2536328208203L580.880973076923,195.58326310547167L581.4222937500001,200.75524280830604L581.9050932692307,199.6426231324495L582.4610442307692,207.75769662714475L583.0023649038461,184.59998764850826L583.9679639423077,166.56124776820045L584.4800240384615,185.92636865593852L585.5041442307692,170.23644160952708L586.0015740384615,165.3009876412116L586.4551129807692,176.7299929072234L586.9525427884615,189.31593150479847L587.4499725961539,202.5008939042571L587.9766629807692,202.24813368440192L588.4887230769231,208.725033270741L588.9568923076923,201.29835072905647L590.9612418269231,209.5301431284342L591.8683197115384,208.250925826517L592.83391875,210.26022438429007L593.3020879807693,204.46369499032733L593.7409966346154,180.38729791641285L594.7212259615385,185.85614982356486L595.2479163461538,193.88664795317283L596.1988850961538,194.72054321663475L597.7204350961538,206.78397888340086L598.2471254807692,206.2208224489046L598.7445552884615,221.04767709785162L599.2858759615384,183.48140645487436L599.7394149038462,168.92809710991168L600.7635350961539,175.9656652579389L601.3048557692308,176.79862883529964L604.3479557692308,189.51462629832932L604.816125,197.70579048150907L605.7524634615385,199.55364793769868L606.2645235576923,199.50200462522218L606.7619533653846,209.0922226684003L607.1716014423076,216.86443740918497L607.6836615384616,219.63519260653337L608.1664610576923,215.87615679519902L608.6931514423077,218.9074887334917L609.6587504807693,235.1408351587883L610.0976591346154,238.54923421856483L610.6097192307693,243.21560798985135L611.1364096153847,250.0802410152109L611.9995966346154,251.84573658926007L612.4823961538461,256.3427411080857L612.9066745192308,259.4242683851309L613.4626254807692,254.81400418227838L613.9307947115385,239.38078070634506L614.4428548076922,247.4824486382833L616.8568524038462,248.74754454345566L618.2759903846154,227.7982566521596L619.2415894230769,234.15142447741647L619.7536495192307,233.61171157250735L620.22181875,232.0177671798706L620.6753576923077,231.44381895316175L622.1383865384615,242.65254446435853L623.1186158653845,250.18972561984805L624.4499721153846,252.4422723914091L624.9620322115385,244.89646095697103L626.4250610576923,259.60311628699276L626.8639697115384,230.14956221325096L628.8390586538461,243.67686501459104L629.380379326923,251.37043189615747L630.7263658653845,230.9942574715883L631.2237956730769,216.28271497762694L631.7358557692307,222.11211014370716L632.5844125,211.6067737063644L633.9596596153847,206.94395703682807L634.8959980769231,188.28537573666532L635.3787975961538,197.28406499626078L635.8469668269231,203.41189831339432L636.3005057692308,207.3093362397481L636.7979355769231,217.96822644034614L637.2514745192308,194.68472957044193L637.7050134615384,190.68635693413404L638.0854009615384,204.46377328091438L638.9924788461537,219.226229642833L639.4167572115384,205.10080879648157L641.2601735576923,219.25596926488933L642.1818817307693,228.02137251330208L642.693941826923,234.17533067331297L643.6888014423076,241.21228984177318L645.1079394230769,246.38561807281172L645.5468480769231,252.28009132190192L646.0296475961538,234.03963346686987L646.4831865384615,235.37484730546387L648.941075,231.40111347360698L649.4385048076923,236.50810788587015L649.9066740384616,236.08376532590415L650.3455826923076,239.07470255058053L651.7647206730769,251.814030752376L652.5840168269231,257.90789237622454L653.0229254807692,255.70657622751486L653.4910947115385,257.7335199597014L653.9153730769231,259.23949736905763L655.4076625,213.94019666588423L656.387891826923,185.31295843262785L657.3242302884615,205.98390238967224L658.2020475961539,212.56926340083118L658.6555865384615,215.64944351065589L660.1039850961539,213.83117755912716L661.0695841346154,214.17692134293299L661.5523836538462,221.91477441046436L661.9620317307692,212.2480847869651L663.3665394230769,217.60566363856628L664.3321384615384,198.56441654509769L665.3123677884615,186.56670731826176L666.7315057692308,171.83214462572795L667.2143052884616,185.45962592097263L667.6824745192308,192.53661561887955L668.1360134615385,206.4971726874426L669.0723519230769,215.47580994085902L669.5112605769231,213.2635127607988L670.8865076923078,221.69586460842774L673.1980932692308,235.2554081419949L674.1783225961539,242.71258563504946L674.6318615384616,247.54404286118051L675.0854004807693,243.99883119876986L675.9339572115384,248.67313817131844L676.8556653846155,251.5235540285858L678.5381485576924,253.35382943442286L679.8695048076922,259.5014907872334L680.32304375,256.2143608396531L680.7619524038462,233.64042231563752L681.2593822115384,226.70361566591427L681.7568120192308,200.67473293037492L682.6492596153846,206.75493811437224L683.4392951923077,191.5048681991773L684.3171125,182.7904899570489L685.6777293269231,189.44144069775226L687.0676067307692,202.92197662387466L687.4187336538462,209.5570940978089L690.754439423077,221.6499556438704L691.2518692307692,210.42641127353596L691.6615173076923,207.13009486066696L692.5832254807692,192.12901072058725L694.2657086538461,192.16373244668188L695.2459379807692,195.3313049441162L695.7433677884616,183.8935666379436L696.6211850961539,192.75717158363724L697.5282629807692,183.73927565417748L700.6884052884616,182.7700355086125L701.1858350961538,170.46117534793646L702.0929129807693,172.80921775177524L702.6342336538462,181.118399482529L703.0731423076924,191.28753723911328L703.5705721153846,200.22428160137196L704.5361711538461,206.10389287102404L705.0043403846154,198.22838272041886L705.8090062499999,195.95806288191673L706.3064360576923,207.33841727471057L707.2574048076923,209.7367733691636L707.740204326923,198.3933449013216L708.2083735576923,197.1202563476903L708.7496942307693,190.71432244634724L709.61288125,203.69684113023018L711.2514735576923,202.60143387227365L711.6903822115385,180.48569275679003L712.5974600961538,185.14971682820888L713.5191682692308,192.5764767707971L713.9580769230769,203.08885417608292L715.1431302884615,217.2697880848367L715.4796269230769,231.31318276094643L716.9280254807692,181.43799477720273L717.9228850961539,154.4126727208351L719.3127625,145.06743599746468L720.1759495192308,121.34508000413649L720.5855975961539,130.05936138934004L721.5073057692308,124.97388253692L723.1312677884615,138.71054296061516L723.9944548076923,158.59132234813723L725.1795081730769,168.67633215233275L726.4084524038461,175.61206324062096L727.2277485576923,189.19715749427064L727.652026923077,179.2923322818818L728.5152139423077,183.9773598792195L729.77341875,190.50831932609822L730.2269576923078,194.17240121461325L732.3337192307692,184.98055347575013L732.7726278846154,200.8192156960086L733.2554274038462,213.1188167674494L736.1375942307693,223.22584539231502L736.9568903846153,211.57009241827816L738.1712043269231,220.4340345969404L739.1075427884616,217.1450991363752L739.5171908653847,199.97473138863847L740.3218567307692,203.46086289587538L740.7607653846153,203.3663187124867L741.1996740384616,206.68297155158152L741.6532129807692,205.71186166120398L742.0774913461538,212.04943759188336L742.8236360576923,220.92590160660893L743.306435576923,198.6184532693997L744.2427740384616,213.60235525092799L744.7402038461539,221.46568013639938L745.1205913461538,226.2368451929345L746.7884442307693,236.79483229532264L747.680891826923,246.41934224397386L748.4416668269231,234.83973686189006L750.4752769230769,232.70918010242673L751.2506822115384,211.9835307938784L751.6164394230769,222.0362489005184L752.5674081730768,223.51159124969394L753.386704326923,215.57105974843014L755.0545572115385,196.87592077371733L755.9031139423076,211.3048766626842L756.3859134615384,213.70918496370484L757.2344701923078,201.20013106864832L757.6294879807692,193.11094158230506L758.0098754807692,210.68716538003247L758.521935576923,215.51227200872657L758.9315836538461,230.886747588376L759.3558620192308,224.0458766451369L760.1020067307693,195.44561484349063L760.4823942307693,208.03280789449L760.8188908653847,211.04180644471606L761.2285389423078,220.45229259830737L762.0332048076923,216.19056015710703L763.2036278846155,203.2630447865615L763.9351423076923,212.23060452489764L764.3447903846154,188.67814478897824L764.7251778846154,198.49389734331677L765.9687524038461,204.32051595878448L766.7880485576923,212.09120131823747L769.4361307692308,217.44830741969704L772.215885576923,204.75181729216308L773.2546360576923,218.8669002748882L773.6496538461538,225.6758190432365L774.1324533653847,235.94764912468415L774.5128408653846,228.2366904500156L775.7125245192308,214.69127168447284L776.4732995192307,220.97896603716657L776.8975778846153,202.17337366712533L777.3072259615385,215.4153165230891L777.70224375,214.71065130899356L778.5508004807692,202.52339680153838L779.0043394230769,211.26072848377197L780.5405197115384,183.96268551420258L781.3890764423077,197.77872729939537L781.7548336538462,189.12669648465993L782.1937423076923,164.46178245670473L782.5741298076922,169.2596190711174L782.9398870192308,179.49643609873198L783.2763836538461,194.54555468327976L783.7006620192308,206.1750488708043L784.0956798076922,218.7929519520384L784.9881274038462,227.31172348558536L785.3831451923077,216.8122788274721L786.2170716346154,232.1809414400138L786.6120894230769,242.22678569500786L787.7971427884615,250.0373652297667L789.1284990384615,263.9707695226765L789.5527774038462,260.62612605050373L789.9624254807693,276.4226885505066L790.415964423077,274.2228174476845L791.1913697115385,278.41284695221555L791.6156480769231,274.46880978347417L793.0640466346154,281.219962523193L794.3515120192308,271.51522298818236L795.4487836538461,258.3577289094673L796.2388192307692,250.77110416914388L797.4677634615384,255.32722805041647L798.1407567307692,259.2275233480838L798.5357745192307,265.0093024744574L799.2087677884615,269.31814864178517L799.6476764423077,270.81093421285846L800.0426942307693,266.3981334248799L800.4523423076923,267.0838603882239L800.8619903846154,275.1777280199597L801.637395673077,251.94795216522692L802.0031528846154,253.8109145545505L802.3689100961539,256.4279849003171L802.6615158653847,258.950102083748L803.3345091346155,236.04482541297287L804.5049322115384,235.55298836714204L804.89995,253.800318333481L805.2364466346154,241.1010740210531L806.3044576923077,234.94501879504764L806.9481903846154,243.0962720535474L807.3578384615384,249.43650110049612L807.6943350961538,260.3536938835373L808.0600923076923,269.7077605769291L809.9327692307692,276.62229676217396L811.4982100961538,285.75978403318993L811.9078581730769,283.9783739609321L812.2736153846154,287.5882786262614L812.6393725961539,291.62870650589645L813.3562567307692,299.15815789922175L813.6927533653846,276.919788818538L814.1024014423077,250.71827163330389L814.8778067307693,233.31498688073805L815.6385817307691,242.42412269954457L816.0335995192308,244.66647868045692L816.4286173076923,212.20856645062673L817.1162408653846,230.33269201529612L817.8916461538462,227.67224249347973L818.2135125000001,241.59786181320243L818.5792697115385,254.61507772373773L819.8228442307693,253.17781794533613L820.4519466346154,230.86889375140652L820.846964423077,240.78156693356442L821.5492182692308,241.85680308125256L823.1878105769231,230.4693082669098L823.5681980769231,239.17613655431393L824.2997125,193.47993660122867L825.0312269230769,194.99393908073728L825.7042201923077,206.5484589420682L827.9865451923077,221.09020795939654L829.9177432692308,212.3443564876861L830.3127610576922,211.02723444103998L831.0296451923077,223.6923938972958L832.4634134615385,235.52045973405666L832.8145403846154,235.97805732194303L833.4729033653847,244.59081619897395L833.8532908653846,248.8787621869358L834.9066716346155,254.69995642005387L835.6674466346153,253.00129808895446L836.0770947115384,198.49577641914456L836.4721125000001,202.4677374287985L837.2182572115385,213.8073119736842L839.5737336538461,199.87668170940023L839.8956,208.72877996900016L840.5832235576923,211.87182569727517L841.7243860576923,201.1410238289257L842.0608826923077,209.63961622608747L843.5824326923077,207.70020920739742L845.1332432692308,213.8626158844993L845.5575216346155,227.17844762964734L846.2451451923077,239.98647556377935L846.6694235576923,236.6083567643296L846.9766596153846,239.41597307557797L848.0885615384615,254.7745372358052L848.5128399038462,266.9949335092871L849.5662206730769,270.88313989114533L849.9319778846153,271.88940857346444L850.4001471153846,237.40590982068466L851.4388975961539,242.45097025219354L851.8339153846154,245.63039027918316L852.2143028846154,253.2808774748134L854.0138283653846,252.0652457786553L854.4234764423077,260.33370689463254L854.7160822115385,278.28232832598445L855.4037057692308,284.0017396176531L856.5448682692307,288.240618596823L856.8813649038461,295.5690230146014L857.3202735576923,282.17606006110793L857.7299216346154,286.3931963878512L859.456295673077,296.05838131856416L859.8366831730768,285.8963524887654L861.76788125,287.63804749115377L862.8797831730769,276.53934073601374L863.2162798076923,276.385573580981L863.5966673076923,273.56059205766877L863.9770548076923,272.9365218948247L864.3867028846154,274.35936467257875L865.1328475961539,273.6394032129648L865.4547139423078,272.62712792115985L866.2008586538462,281.72601313471677L866.9323730769231,287.3843002729348L867.2835,301.1946636714449L869.2732192307692,278.0381735696395L869.6243461538461,285.84185132970447L871.1312658653846,281.14464662547266L871.4531322115384,255.55628867786743L871.7457379807693,265.00809446501285L872.0822346153847,271.74047865150646L873.0624639423078,271.3743978229442L873.3404394230769,265.9179969711223L874.70105625,268.38668273122613L875.5349826923077,269.77332968632686L875.8861096153846,274.8650633711558L876.22260625,283.6416417632832L876.5737331730769,277.8366311220989L876.9394903846153,276.68516859982975L877.2613567307693,279.15422101204L878.8121673076923,287.13266608206516L880.8457774038461,268.4336410153674L881.1822740384615,270.13092031853114L882.2210245192308,276.47599709823277L882.4697394230769,283.6390112583009L882.7623451923077,266.5698323481669L883.4645990384615,260.0697504823111L883.7279442307691,264.8659059721793L884.4155677884615,258.73886497754563L884.8398461538461,260.95160180274974L886.7125230769232,264.81227539511855L887.0636499999999,226.49523493553383L887.4001466346153,199.3294186150208L887.8097947115384,196.01015708236375L888.9070663461538,197.65436852759777L889.3020841346154,204.57435445331816L891.3649548076924,217.98512912642806L892.0525783653846,226.83918997957142L894.4665759615384,236.71103081001945L896.982985576923,241.7550905510215" style="fill: none;" fill="none"></path></g></g></g></g><g opacity="0.20000000298023224"><g><g><g><path stroke="rgb(255, 112, 67)" stroke-width="2px" d="M79.60339951923076,-71.02089304039094L80.1886110576923,96.73578193315649L80.77382259615383,-94.88954387072062L81.35903413461538,-91.9510471242657L81.94424567307694,19.33525780901124L82.52945721153847,-429.77520812055434L83.11466875,-566.8223178701074L83.69988028846154,148.28723137788157L84.28509182692308,-1047.3573549083083L84.87030336538461,54.566979090817426L86.0407264423077,1.1957509499717958L87.21114951923077,141.76080961100195L87.79636105769231,272.19717638239337L88.96678413461538,116.17139627871273L90.72241875,67.13988648306525L91.30763028846154,101.14732575589602L91.89284182692307,-16.347359529093126L92.47805336538461,-67.23018725282265L93.06326490384615,170.09553564611534L94.23368798076923,158.12027420721608L95.98932259615384,-174.57933639909072L96.57453413461538,187.55612429955693L97.74495721153846,49.59012827365024L98.33016875,105.31700215635118L98.91538028846155,-151.7760218445552L99.50059182692308,284.95562042922256L100.08580336538462,324.634023537047L100.67101490384616,75.87955261009154L101.84143798076923,291.87150922533124L102.42664951923076,169.45685370316244L104.18228413461539,313.8781457794969L104.76749567307692,116.91249325540412L105.35270721153846,184.44983484043237L105.93791875,-193.8180679638291L106.52313028846153,219.0890584111912L108.27876490384615,-133.70079303987785L108.86397644230769,-529.7711677727253L109.44918798076922,123.54272957820118L110.03439951923076,136.17486674837974L110.6196110576923,105.61425067057411L111.20482259615385,-288.5424274313581L111.79003413461538,-64.44173927712569L112.37524567307692,343.45019936961097L112.96045721153847,54.631457076919276L113.54566875,276.7728141806153L114.71609182692308,-100.49363053873418L115.30130336538463,242.50836265620651L115.88651490384616,-181.52886371042928L116.4717264423077,204.04604435602363L117.64214951923077,0.6730294161322945L118.81257259615384,170.76395743537103L119.39778413461539,164.51674034319282L120.56820721153846,-251.21527156711215L121.15341875000001,130.30422108821026L122.32384182692309,284.77603174390174L122.90905336538461,83.83068795514686L123.49426490384616,16.94817280106446L124.0794764423077,98.66912185751227L124.66468798076924,190.940118945334L125.24989951923077,337.27015934202257L126.42032259615384,215.18644083224152L127.00553413461539,-270.68992258487424L127.59074567307692,-196.83783696253317L128.17595721153847,179.89753907283804L129.34638028846155,204.3055057714148L131.10201490384614,227.98871991303298L131.6872264423077,-88.58559614735981L132.2724379807692,-34.49396396489732L132.85764951923076,122.19349023181908L134.02807259615383,235.1562228037437L134.61328413461538,392.2742799851634L135.19849567307693,242.17082789640367L136.95413028846156,109.29004569066325L137.53934182692308,188.12792907552978L139.2949764423077,-117.31698675433682L141.0506110576923,263.0135118440937L141.63582259615384,54.71222949981893L142.22103413461537,320.1518038442703L142.80624567307694,265.0032325190874L143.39145721153847,-17.45288208459732L145.1470918269231,278.8394086095815L145.7323033653846,248.41769510803712L146.31751490384616,-79.4277228035009L146.90272644230768,284.0231887774941L147.48793798076923,227.36798184373168L148.6583610576923,385.925597535011L149.24357259615383,196.16453523937128L150.99920721153848,193.32930323654924L152.7548418269231,227.91824397473562L153.34005336538462,-3.6793845945463204L154.5104764423077,241.81839822198194L155.68089951923076,243.6995059793017L156.2661110576923,237.42634774387787L156.85132259615384,190.21086792422878L157.43653413461539,245.19414568349018L158.0217456730769,-103.34975540837064L158.60695721153846,260.67755937861375L159.77738028846156,301.60783507551304L160.36259182692308,271.6124260262652L160.94780336538463,85.33457450230344L161.53301490384615,280.69207607690754L162.70343798076922,317.2097583094331L163.28864951923077,-271.18845237819176L163.8738610576923,-13.545816024435965L165.04428413461537,137.01752904891524L165.62949567307692,131.96190512624693L166.21470721153844,164.1211753958983L167.38513028846154,12.53328012168248L167.9703418269231,234.708725587023L169.14076490384616,175.4551557792266L169.7259764423077,166.07545817000343L170.89639951923078,382.18547447762495L171.4816110576923,262.0904769841383L172.06682259615386,273.2422695695277L173.23724567307693,187.21064225309502L173.82245721153845,81.61229535269905L175.57809182692307,242.4951171784414L176.16330336538462,11.126960263572983L176.74851490384617,315.39632744605274L177.3337264423077,117.09373137757876L178.50414951923077,1.4214738842632073L179.08936105769232,214.7008066361443L180.2597841346154,50.16888067758288L181.43020721153846,188.69433569452667L182.01541874999998,275.76320887730446L182.60063028846153,-49.92699486157852L183.18584182692308,156.8921934951835L184.35626490384615,178.62422380466424L184.9414764423077,201.04306962346692L186.69711105769233,190.3531193571325L189.03795721153847,-6.80851625494887L189.62316875,103.90453439724132L191.3788033653846,-57.226902547005295L191.96401490384613,189.1076445837329L193.13443798076923,76.41481986060666L193.71964951923079,-93.07456353635644L194.3048610576923,166.68779910623098L194.89007259615386,207.2185612039737L195.47528413461538,206.2304985456318L197.23091875,207.66760789167824L197.81613028846152,30.046800703249517L198.40134182692307,266.4353435716376L198.98655336538462,163.55521862331605L200.74218798076922,129.13152146811626L201.32739951923077,-70.91093058347309L201.91261105769232,235.57502981579586L202.49782259615387,213.39870119743202L203.0830341346154,152.19354769401846L203.66824567307694,204.66903165739825L204.83866875,110.42620778529948L205.42388028846153,103.0917119088785L206.00909182692308,227.52527814005919L207.17951490384615,93.18149542796164L207.76472644230768,-132.09983963302375L208.34993798076923,43.970097049383526L208.93514951923075,-128.16598271972242L209.5203610576923,233.10747228255917L210.10557259615385,163.18964343699918L210.6907841346154,188.85922939696846L211.86120721153847,-169.33402723823906L212.44641875,116.33149161939815L213.61684182692306,223.05535424928328L215.95768798076924,148.96315060738164L216.54289951923076,38.04077142356783L217.71332259615383,308.3454847255449L218.29853413461538,131.97160181562967L218.88374567307693,79.888183994097L219.46895721153848,215.1527523340767L220.05416875,287.6850885416636L220.63938028846155,0.19569238723886428L221.22459182692307,112.15916612338998L222.39501490384615,-89.30794952344013L224.15064951923077,268.3220994006081L224.7358610576923,266.3895092202768L225.32107259615384,338.92959278278295L225.90628413461536,-506.5082101482734L227.07670721153846,41.66713332097885L228.2325,29.94243633504749L229.40292307692306,-80.50855378913343L230.5587158653846,131.02297569297332L231.72913894230769,301.36136922321214L232.31435048076924,66.94370346333682L232.89956201923076,-13.502330871018387L233.4847735576923,31.21585156909117L234.06998509615383,263.40802714975405L235.2404081730769,266.915379679019L235.82561971153845,-114.37779024679247L236.9814125,172.96225689796384L237.56662403846153,285.1922896262708L238.15183557692308,-232.45197767973866L239.32225865384612,142.9505034289832L242.24831634615384,-128.41989602933273L243.41873942307694,192.6957695358975L244.0039509615385,-63.733780986314514L245.17437403846154,172.0291254851459L245.7595855769231,43.945405479511976L246.34479711538464,1.5293370579126417L246.93000865384613,292.95788831674474L247.51522019230768,41.65988579540931L248.10043173076923,135.91410577667955L248.67101298076923,207.49036840430065L249.25622451923078,-511.29807480574516L249.84143605769233,226.98841143562524L250.42664759615383,237.7405404730532L252.7382331730769,-82.84095746623115L253.3088144230769,193.34534775867226L254.4792375,142.5294971677927L256.17635096153845,29.1611030957111L258.50256682692304,264.12783139615135L259.0731480769231,16.249411370286396L259.6583596153846,187.66513708071048L260.2435711538462,270.33056367621276L261.4139942307693,286.18315132897055L261.99920576923074,119.56908624866958L262.5844173076923,220.8396107423885L263.16962884615384,329.1704747142582L263.7548403846154,82.98597635427791L264.3400519230769,36.424473255680255L266.09568653846156,291.27746204330003L266.68089807692303,194.6634477365726L267.8220605769231,261.00859635687146L268.96322307692304,362.5595750986659L270.13364615384614,119.89817389246372L271.30406923076924,249.984060323897L272.47449230769234,317.4928616530616L273.05970384615387,-436.07735645825653L273.63028509615384,-42.004799635866505L274.18623605769227,175.17475151408607L274.77144759615385,45.01504028771291L275.3420288461538,93.11911672512821L275.9272403846154,229.83403988891948L276.5124519230769,31.80225136207315L277.0830331730769,123.84702568625389L278.23882596153845,297.99546839989154L279.4092490384615,90.03936820446887L279.9944605769231,253.60802304042983L281.15025336538463,314.75624598092094L282.2767855769231,255.34877871637445L282.84736682692306,248.12259586001758L283.41794807692304,228.84437777665877L284.0031596153846,-180.8263035765941L284.58837115384614,181.23013410187755L285.1735826923077,186.04409053400147L285.7441639423077,-537.4253545011676L286.28548461538463,-315.20052589608395L286.87069615384615,206.83899079586726L287.4559076923077,53.692727575385504L288.0411192307692,145.50553109840453L289.19691201923075,207.52760569084782L289.78212355769233,97.60283590595378L290.9379163461538,-62.3510530735075L292.1083394230769,211.54783311576463L292.67892067307696,234.83488251486875L293.24950192307693,-28.00487945043477L293.83471346153846,204.1270666935981L294.419925,-160.608806179417L295.5318269230769,181.7646016254333L296.1024081730769,111.71296846297827L297.2582009615385,223.96364414342477L297.82878221153845,359.3500208959085L298.3993634615385,352.82899728600484L298.95531442307697,-81.81380815274838L299.52589567307695,293.93715397853316L300.6670581730769,273.5753058651839L301.2522697115385,121.09771434863268L301.80822067307696,-69.70504229456395L302.37880192307694,333.2169431800304L304.0905456730769,193.0814378620694L305.1878173076923,215.61294521627792L305.77302884615386,-17.162181334854438L306.9141913461538,238.30449792823688L307.4994028846154,127.47358751540477L308.0553538461539,135.88866446278357L309.2257769230769,338.0747846290515L309.81098846153844,259.03601982857003L310.93752067307696,25.127330295419426L312.10794375,159.79755155575813L314.96085,40.18029095464459L315.5460615384616,165.77291146467442L317.30169615384614,300.32792205992416L317.8869076923077,-152.51127081785603L318.4574889423077,-22.642710187640375L318.99880961538463,184.4669290041896L319.5401302884615,273.6379844656271L320.6520322115384,79.82515551310911L321.7639341346154,344.95073706012505L322.8904663461538,108.90537702319062L324.0608894230769,-228.81871813730288L325.1874216346154,310.19555308025286L326.88453509615385,252.77525736101694L327.46974663461543,309.2612720599308L329.66428990384617,189.20511130691008L330.20561057692305,117.83842712558743L330.7761918269231,168.49658155665978L331.33214278846157,291.04614102029285L332.5025658653846,256.30555205742974L333.0585168269231,200.5279454957417L334.75563028846153,291.6919705229454L335.3262115384615,263.4185735490312L335.8821625,205.93779847849046L336.46737403846157,-158.07157243484232L338.1352269230769,158.4619075676859L338.70580817307695,202.21766859508946L339.81771009615386,-126.04250771076869L340.3736610576923,91.81001367552113L340.9296120192308,-35.419148091056115L341.4709326923077,67.86778796492649L342.0415139423077,144.4341468874799L342.6267254807692,194.23599367677193L343.19730673076924,199.32700551739384L343.72399711538463,223.93585363158556L344.30920865384616,234.49844737963508L344.8797899038462,228.38288533814853L345.42111057692307,221.96772558449578L345.9770615384615,171.83509173162085L346.5622730769231,251.48944635910246L347.08896346153847,221.9884685025053L347.6302841346154,144.70435463388807L349.32739759615384,1.629003030228148L349.85408798076924,300.33007132612755L352.0925221153846,336.99395364341893L352.6631033653846,128.16615106224742L354.90153749999996,284.84465831360546L356.59865096153845,236.0828564350165L357.13997163461534,137.63476831276918L358.20798269230767,346.35980597965744L358.72004278846157,-5.771270388603682L360.40252596153846,329.33106988429324L360.9877375,174.2412202377884L361.57294903846156,153.80859628853202L363.2993230769231,276.8975715862821L363.86990432692306,166.89222931022826L364.98180625,-192.91977465668003L367.2202403846154,135.45806147808023L367.76156105769235,311.2548914038515L368.84420240384617,193.40107873115562L369.94147403846154,175.920446920794L370.497425,-338.1442924978645L371.0387456730769,112.29951820476509L371.60932692307694,334.3774469639935L372.1652778846154,345.42727436205905L372.75048942307694,133.59529745789175L373.9062822115385,316.93710139921177L374.49149374999996,193.91030487255523L375.062075,-2.350438319759121L375.6180259615385,104.42380710856838L376.17397692307696,366.8681040924473L376.71529759615385,212.7446744934456L377.2566182692308,-66.33499288764142L379.4072706730769,234.3958823970917L379.9485913461539,399.6610580115553L380.4899120192308,144.17008704207217L383.7817269230769,169.64279022122355L384.9082591346154,90.42873526782802L385.44957980769226,160.3794029016585L386.00553076923075,-37.31979917594634L386.5907423076923,178.0924053766615L387.14669326923075,219.5317572661555L387.70264423076924,259.71708730037125L388.2732254807692,148.53159794691405L388.8291764423077,235.18901160907922L389.37049711538464,395.6025936413921L389.9410783653846,186.7414524426005L390.4970293269231,319.8186175998092L391.0676105769231,-204.28359485218107L391.62356153846156,301.5250633352149L392.1648822115385,-124.78143826166075L392.75009374999996,343.360480001353L393.2914144230769,-188.3409379506205L393.8473653846154,256.441755555203L394.97389759615385,191.64042984709587L395.5444788461538,272.0260847960162L396.11506009615385,137.64781385879442L397.2123317307692,365.84615300420074L398.32423365384614,114.61542751332507L399.43613557692305,132.3949572747634L400.02134711538463,-284.100843864706L401.6160485576923,39.21871925183291L402.18662980769227,303.93883923043177L402.7572110576923,139.8096257788645L403.8398524038462,188.87582373137607L404.3958033653846,243.63952645734653L404.9663846153846,121.86640190542346L406.04902596153846,269.9661380974L407.11703701923074,202.34902374817133L407.6437274038462,316.8195415361796L408.18504807692307,325.91613580177426L409.28231971153843,102.50766131383983L409.7943798076923,133.05163307430288L410.92091201923074,95.70863261967384L411.4476024038462,250.97992032009307L411.9889230769231,260.83790463397395L412.5595043269231,241.494358854619L413.1300855769231,216.21438987268365L413.68603653846156,28.216525590786773L414.2273572115385,191.42695273187033L415.3538894230769,252.81289451104385L415.8805798076923,272.37126694486835L416.4365307692308,274.6210988134077L418.1043836538461,157.08372810196042L418.61644375,228.22523916127628L419.14313413461537,183.01767380494724L420.8256173076923,148.79630757047627L421.89362836538464,-34.35311205417247L422.4349490384615,264.53934089969897L422.97626971153846,212.79665674580676L424.02965048076925,258.79250296943195L424.58560144230773,173.8673478842677L425.14155240384616,-55.890258900233846L425.69750336538465,345.17386088179836L426.23882403846153,221.86815957805015L427.2922048076923,350.0232052318758L428.4333673076923,-28.78641262151092L429.5306389423077,-153.9037953859157L430.0865899038461,22.763337403425396L430.62791057692306,91.68960478519608L432.2811331730769,383.06702350156144L434.51956730769234,329.3518627852377L435.0608879807692,235.52044845081664L435.5875783653846,247.95990140671412L436.11426875,200.5926234135834L436.64095913461534,47.340246422175994L437.7236004807692,212.39179497260918L438.77698125,224.25564444947665L440.3570524038462,318.35036888528106L440.8837427884615,-200.89205278322459L442.0395355769231,-14.121419503465916L443.13680721153844,263.7941453223406L443.6781278846154,301.4076534209876L445.33135048076923,334.5598846766072L446.37010096153847,318.76882601678847L446.8821610576923,215.1245119758228L447.4088514423077,198.1453089690066L447.9355418269231,-124.3728777512759L448.9889225961539,309.8440730815954L449.53024326923077,185.2186223630931L450.05693365384616,-93.31828032723433L450.61288461538464,290.82636605526204L451.1542052884615,43.45477298991847L451.66626538461543,184.8209081495952L452.1490649038461,-166.97623223018047L452.7050158653846,101.13762906651328L453.24633653846155,253.05876056812514L453.80228750000003,10.009441803677817L455.4262495192308,243.29639360882786L455.9675701923077,270.99603647230566L457.0648418269231,119.01487546580358L458.08896201923073,137.90947452332395L459.18623365384616,307.46103669138057L459.72755432692304,57.82216771319577L460.2835052884615,223.6213610048005L460.8101956730769,-141.44304969972416L461.3515163461538,235.95290080411357L461.9074673076923,252.43992185035245L462.4487879807692,317.26254028875366L462.9754783653846,202.78072635744385L464.0581197115385,107.0233195901065L464.58481009615383,366.21067854888344L465.68208173076926,144.3554237649137L466.2380326923077,113.39049572619513L466.79398365384617,346.5453926171738L467.8619947115385,300.97415142605644L468.41794567307693,201.88163332333548L469.45669615384617,338.98022549590013L469.95412596153847,279.45754756626474L470.53933750000004,157.70866473779859L471.0660278846154,125.10664563024793L471.5927182692308,274.0373980989137L472.1340389423077,-236.72281954055836L472.67535961538465,200.50045488151224L473.2313105769231,247.14452978866822L473.77263124999996,84.43308228731689L474.3139519230769,327.47410388456046L474.81138173076926,261.812371934006L476.3183014423077,222.3560430062207L477.44483365384616,375.5815291786182L478.46895384615385,52.598701094922774L480.07828557692307,2.919362479224219L480.61960624999995,280.205542187981L481.1170360576923,298.5576764523516L481.61446586538466,-50.71712509746823L482.12652596153845,207.3177773298746L483.2237975961539,220.9147350936374L483.7797485576923,9.458329962779487L484.3356995192308,214.75438834242428L484.89165048076916,259.6095740072666L485.34518942307693,334.605669045033L485.8718798076923,63.316241941356566L486.3839399038461,325.6754179869941L486.91063028846156,270.5690322589196L488.958870673077,98.42590489598393L489.48556105769234,295.21556750607317L490.53894182692306,247.56853502595646L491.56306201923076,-77.29285168537564L493.20165432692306,-346.82013041694347L493.7722355769231,155.06616693219257L494.26966538461534,225.45873369402793L494.7378346153846,185.69595939198652L495.293785576923,223.53009216555867L495.80584567307693,279.91694072150653L497.3273956730769,270.2437933011176L497.8394557692308,-20.922597463835302L498.3807764423077,328.56218239576265L502.0383485576923,257.62375200120005L502.5650389423077,245.07613597404335L504.1012192307692,228.21444284732436L505.63739951923077,68.74014012882981L506.16408990384616,180.17744350862895L506.6907802884615,329.60492638495367L508.2415908653846,266.2316131287298L509.33886249999995,271.36551032754966L509.8801831730769,236.78691605690054L510.40687355769234,49.55813919527412L512.0308355769231,203.91004078999023L512.5428956730769,267.98541435069967L513.0549557692308,318.14548883486907L513.5962764423077,154.2037613723468L514.1375971153847,301.59933797656936L514.6350269230769,272.4440920811089L515.1617173076924,272.45183943602814L515.7030379807693,221.4575497673319L517.7366480769231,110.82752077011475L518.2633384615385,-42.644281305778804L519.3313495192308,59.57621884984047L519.9165610576923,306.56164375966245L520.4286211538462,-73.6262035423847L521.4088504807693,310.6294549386637L521.9209105769231,38.393850876144086L522.4476009615385,310.52149179914437L523.4863514423078,37.586926374106895L524.0715629807692,329.9317148137395L524.5982533653846,427.52619437269453L525.12494375,84.84009332671786L525.666264423077,211.4768073651827L526.1783245192307,376.24870139449985L526.6903846153847,204.99492039335482L527.758395673077,153.3898892423498L529.8066360576923,235.88282472929592L530.2894355769231,-67.37903643314144L531.8695067307692,306.27179271981396L532.3961971153847,75.35718095679675L532.9082572115384,220.84715816556786L533.4349475961538,253.05796084116577L534.4005466346154,37.168769140209236L535.4685576923076,271.4138938085935L536.0098783653846,291.8964507098776L536.4926778846153,288.237449955936L537.0047379807693,282.35730753812356L537.5460586538462,278.02883535329204L538.087379326923,341.829052857032L539.5065173076923,268.153606926849L540.0624682692307,34.82172046316754L541.6425394230769,59.81943581136875L542.1253389423076,64.86131442692238L543.1640894230769,337.28965268665803L544.7149,221.80523106293217L546.7631403846153,243.7105022249935L547.6994788461539,317.8539883581668L548.1822783653846,300.5016627418544L548.6504475961539,-106.39931423631259L549.118616826923,270.98798921977664L549.6599375,-64.28329337329404L550.7133182692307,356.1873007032111L551.2107480769231,386.08754224429003L551.75206875,238.25626439599793L552.7615586538462,271.075909202376L553.2882490384616,375.0767015354954L554.3123692307693,45.868099038720686L556.2728278846154,331.3062955081477L557.83826875,111.38388081918407L558.3503288461538,346.4949098528615L558.8770192307693,91.36161676597112L560.3839389423076,336.74598830306917L560.852108173077,59.31790704195339L561.9054889423077,143.11344779696148L562.4468096153846,416.2978779138773L563.4270389423077,256.2245797027902L563.9098384615384,17.601349795156523L564.3780076923077,108.393501786238L565.44601875,179.01199141410459L566.3677269230769,370.4465323552292L567.8453860576923,260.39100721247286L568.3135552884615,369.55493676136524L569.3376754807692,201.35736231851214L569.8497355769231,356.49074710136944L570.39105625,292.5828163727849L570.8445951923077,-59.3893642452299L571.9126062500001,372.7482465102598L572.4831875,77.10673362929481L573.0245081730769,137.18167300733262L573.5511985576923,-46.827752996283664L575.5262875,439.9321337706996L576.5650379807693,23.31095043887632L577.0185769230769,246.45401554215906L577.4867461538461,191.73599721874447L578.5254966346154,329.679450940983L579.0082961538461,141.2256423263567L580.880973076923,270.40273903429886L581.4222937500001,261.89069519309254L581.9050932692307,186.49088798963268L582.4610442307692,303.68202691059355L583.0023649038461,-89.13600822716859L585.5041442307692,-15.226542195490367L586.0015740384615,106.96139073368778L586.4551129807692,311.82669617982435L586.9525427884615,338.0881800556215L587.4499725961539,358.3539109850376L587.9766629807692,199.26037826508863L588.4887230769231,285.28530786823626L588.9568923076923,113.51115453119502L590.9612418269231,306.8341507210789L591.8683197115384,193.1299213089832L592.83391875,234.0111637466841L593.3020879807693,135.94574497451092L593.7409966346154,-104.20806236754947L594.7212259615385,250.50078390554103L595.2479163461538,288.8112540493073L596.1988850961538,204.57761286935155L597.7204350961538,349.3799748418413L598.2471254807692,199.5640245949868L598.7445552884615,396.30870256360964L599.7394149038462,-3.099482583109591L600.7635350961539,259.1533297769274L601.3048557692308,186.64468548051278L604.3479557692308,339.82423733567964L604.816125,294.52955172371065L605.7524634615385,221.39627068906768L606.2645235576923,198.89155418799913L606.7619533653846,322.4535179993009L607.1716014423076,308.73600139640814L607.6836615384616,252.386939939292L608.1664610576923,171.4424257945542L608.6931514423077,254.7393867733097L609.6587504807693,427.0273146988322L610.0976591346154,278.8382590020774L610.6097192307693,298.3745389786484L611.1364096153847,331.2237236995894L611.9995966346154,272.7147996568667L612.4823961538461,309.49964067676774L612.9066745192308,295.8495010702046L613.4626254807692,200.3183170665083L613.9307947115385,56.952164747235656L614.4428548076922,343.24831829529677L616.8568524038462,263.7016269097247L618.2759903846154,-19.83306944751922L619.2415894230769,309.24912620673484L619.7536495192307,227.23202826063326L620.22181875,213.17652705152298L620.6753576923077,224.65945658104002L622.1383865384615,375.14542807106903L623.1186158653845,339.2830720988389L624.4499721153846,279.06853038345037L624.9620322115385,155.70110015502325L626.4250610576923,433.4433241623793L628.8390586538461,403.5765212047904L629.380379326923,342.312337855186L630.7263658653845,-9.862573547037357L631.2237956730769,42.384738318237794L631.7358557692307,291.01855044019345L632.5844125,87.42830966495438L633.9596596153847,151.82707281487225L634.8959980769231,-32.268623734489665L635.3787975961538,303.6531867571201L635.8469668269231,275.84603060053763L636.3005057692308,253.3790512153659L636.7979355769231,343.96177470895384L637.2514745192308,-80.53814368663137L637.7050134615384,143.42354192546983L638.0854009615384,367.31989984157485L638.9924788461537,393.7260343311539L639.4167572115384,38.13109058704538L641.2601735576923,386.5772250581192L642.1818817307693,331.6329339881287L642.693941826923,306.9182720006211L643.6888014423076,324.39275590998227L645.1079394230769,307.5370107525238L645.5468480769231,321.9557879329427L646.0296475961538,18.428067539438928L646.4831865384615,251.15775960269025L648.941075,184.42954176883754L649.4385048076923,296.8754008103133L649.9066740384616,231.06781865553782L650.3455826923076,274.4291143602161L651.7647206730769,402.39942308641974L652.5840168269231,329.94046182735804L653.0229254807692,229.68589046969015L653.4910947115385,281.6930343324698L653.9153730769231,277.04092264375504L655.4076625,-321.52076805624256L657.3242302884615,450.32506044601837L658.2020475961539,290.41160766094185L658.6555865384615,252.05875198832717L660.1039850961539,192.3383415679795L661.0695841346154,218.26379017202268L661.5523836538462,313.38016579846385L661.9620317307692,97.98285616047491L663.3665394230769,280.93499314082607L664.3321384615384,-26.512888841799338L665.3123677884615,44.7476315856627L666.7315057692308,-2.337942586018471L667.2143052884616,346.54344328271026L667.6824745192308,276.1902630736255L668.1360134615385,371.5181164978937L669.0723519230769,321.6079067056026L669.5112605769231,187.1130255811129L670.8865076923078,321.37058773039985L673.1980932692308,395.53616632082674L674.1783225961539,330.86024779654093L674.6318615384616,304.65434494442223L675.0854004807693,202.0926112918129L675.9339572115384,303.92584366734144L676.8556653846155,285.2169312132074L678.5381485576924,274.9886233341881L679.8695048076922,332.1700006243025L680.32304375,217.35879915158873L680.7619524038462,-33.19510741695757L681.2593822115384,144.70700372944108L681.7568120192308,-107.00000914869383L682.6492596153846,278.62608144316084L683.4392951923077,11.241221252897674L684.3171125,79.78207022317127L685.6777293269231,268.05908919683463L687.0676067307692,362.2688243659881L687.4187336538462,287.98758526405766L690.754439423077,364.5937805857763L691.2518692307692,77.75836115240304L691.6615173076923,168.16594444188175L692.5832254807692,14.808503321182798L694.2657086538461,192.57416105513335L695.2459379807692,232.77363625994354L695.7433677884616,48.69363435215996L696.6211850961539,297.52952748016963L697.5282629807692,77.14312120594764L700.6884052884616,171.31311994180578L701.1858350961538,24.964136012766346L702.0929129807693,200.56428308945956L702.6342336538462,279.33718865887465L703.0731423076924,311.4919604643794L703.5705721153846,305.8611829090957L704.5361711538461,275.6039132635785L705.0043403846154,105.1358140171115L705.8090062499999,169.1217181242378L706.3064360576923,341.86004227670884L707.2574048076923,238.0865723317997L707.740204326923,64.30820326862556L708.2083735576923,182.07169677784393L708.7496942307693,114.99289863816313L709.61288125,357.1568696756168L711.2514735576923,189.6531583359154L711.6903822115385,-80.93370863392585L712.5974600961538,240.2808731595955L713.5191682692308,280.36458788703214L713.9580769230769,327.3505460693327L715.1431302884615,384.8956991601054L717.9228850961539,-165.04049312494647L719.3127625,34.60194549813673L720.1759495192308,-159.06533314777005L720.5855975961539,233.0666362246947L721.5073057692308,64.86091456344269L723.1312677884615,301.08491360993366L723.9944548076923,393.5923299801288L725.1795081730769,287.8863198378233L726.4084524038461,257.5959614893608L727.2277485576923,349.7799382874125L727.652026923077,62.21221887390129L728.5152139423077,239.3567886580058L729.77341875,267.7076091981772L730.2269576923078,237.48372815321503L732.3337192307692,76.32819943431639L732.7726278846154,388.04032553034625L733.2554274038462,358.5064089196087L736.1375942307693,342.6961068298293L736.9568903846153,73.79311495594516L738.1712043269231,325.2103767601015L739.1075427884616,178.26819535892517L739.5171908653847,-2.9878207064029993L740.3218567307692,244.6687250711627L740.7607653846153,202.24875798063624L741.1996740384616,245.88750895729223L741.6532129807692,194.2328447518693L742.0774913461538,286.9628351314532L742.8236360576923,325.8502582934935L743.306435576923,-65.06702579350855L744.2427740384616,390.7197607248897L744.7402038461539,314.41421275697144L745.1205913461538,282.63446291249153L746.7884442307693,361.59565419791096L747.680891826923,360.185985483159L748.4416668269231,97.96286298648988L750.4752769230769,207.52490661235984L751.2506822115384,-33.00427257127012L751.6164394230769,340.8645321610575L752.5674081730768,240.95089440277L753.386704326923,121.70990533605533L755.0545572115385,-24.110209158144187L755.9031139423076,381.8625347348312L756.3859134615384,242.12934206038466L757.2344701923078,53.33669912964649L757.6294879807692,97.49257355142618L758.0098754807692,418.44714411727176L758.521935576923,272.5475067735467L758.9315836538461,412.62093328628407L759.3558620192308,143.18327395710432L760.1020067307693,-142.62414645289186L760.4823942307693,356.81988472809854L760.8188908653847,246.60971238456773L761.2285389423078,331.68906482409176L762.0332048076923,165.8146971983032L763.2036278846155,50.45318361165056L763.9351423076923,318.2317593806147L764.3447903846154,-89.72400747406937L764.7251778846154,314.52112625485654L765.9687524038461,273.19413600315863L766.7880485576923,303.9446872338224L769.4361307692308,280.77204877284777L772.215885576923,54.67279296413341L773.2546360576923,385.7144196347938L773.6496538461538,306.1607306383269L774.1324533653847,357.36594829256563L774.5128408653846,137.0892045776517L775.7125245192308,54.57747550715959L776.4732995192307,295.3027377446481L776.8975778846153,-20.118372040286147L777.3072259615385,371.9418718205071L777.70224375,206.38114711160927L778.5508004807692,58.46379864931146L779.0043394230769,314.5404696506871L780.5405197115384,-138.71418138250272L781.3890764423077,361.0914263500076L781.7548336538462,86.85525531560745L782.1937423076923,-127.0901500275861L782.5741298076922,225.97250828250912L782.9398870192308,300.500863014895L783.2763836538461,372.4338538493446L783.7006620192308,343.641634010518L784.0956798076922,367.9430370917543L784.9881274038462,328.00797161289665L785.3831451923077,92.70345863797871L786.2170716346154,413.8464148856986L786.6120894230769,360.9738165040405L787.7971427884615,342.36242075601854L789.1284990384615,428.6707536004045L789.5527774038462,221.0907250076409L789.9624254807693,463.14615810182323L790.415964423077,248.2192128733004L791.1913697115385,327.94114442885154L791.6156480769231,227.8482678657879L793.0640466346154,361.02205003627944L794.3515120192308,156.80022489485216L795.4487836538461,102.8294014661945L796.2388192307692,161.0933091617302L797.4677634615384,309.1829488008443L798.1407567307692,305.33101391794673L798.5357745192307,333.35289676312885L799.2087677884615,320.2509200043013L799.6476764423077,288.4564251940074L800.0426942307693,214.2365651362111L800.4523423076923,275.18950474980306L800.8619903846154,370.85139412842676L801.637395673077,-22.63991114328246L802.0031528846154,275.832085361683L802.3689100961539,287.36309847463417L802.6615158653847,288.76282058532854L803.3345091346155,-34.70729113131796L804.5049322115384,229.7392222612953L804.89995,469.4931161407194L805.2364466346154,90.98949381517411L806.3044576923077,162.17728907226544L806.9481903846154,339.4482656988905L807.3578384615384,324.38125983494086L807.6943350961538,389.40051113948516L808.0600923076923,380.27762585010015L809.9327692307692,358.3556603877613L811.4982100961538,393.7695694675064L811.9078581730769,262.92119336321775L812.2736153846154,330.2592030036149L812.6393725961539,339.38863605748L813.3562567307692,388.16013462545175L813.6927533653846,14.05086199301877L814.1024014423077,-58.997098171642904L814.8778067307693,27.599236343997916L815.6385817307691,350.0987794295394L816.0335995192308,271.17227630098404L816.4286173076923,-171.46060118916046L817.1162408653846,444.5691506130556L817.8916461538462,196.22436481252157L818.2135125000001,406.2058235155663L818.5792697115385,408.4852452816035L819.8228442307693,236.18867030833246L820.4519466346154,-32.83403069478726L820.846964423077,357.95444736881603L821.5492182692308,254.56664575007875L823.1878105769231,95.86327982044833L823.5681980769231,342.0953119515781L824.2997125,-346.6725807929337L825.0312269230769,212.89022480005687L825.7042201923077,343.1288090978011L827.9865451923077,392.9811386514054L829.9177432692308,108.96390704003187L830.3127610576922,195.45817640247893L831.0296451923077,373.40107362380706L832.4634134615385,375.33426359935794L832.8145403846154,241.38709547618913L833.4729033653847,346.39804292490385L833.8532908653846,299.56448271130444L834.9066716346155,323.5094574833221L835.6674466346153,232.9222855085225L836.0770947115384,-445.78744126758295L836.4721125000001,249.4183534659896L837.2182572115385,347.84689826066653L839.5737336538461,35.20948807260788L839.8956,313.3651209350401L840.5832235576923,249.02423802380903L841.7243860576923,74.29744276971843L842.0608826923077,310.0973366130512L843.5824326923077,184.77542367877916L845.1332432692308,286.70542301639546L845.5575216346155,384.5784074889624L846.2451451923077,391.38393396467353L846.6694235576923,196.67726018621826L846.9766596153846,272.60343767776993L848.0885615384615,436.32064179643993L848.5128399038462,411.44628433172653L849.5662206730769,316.8437332767015L849.9319778846153,283.7840204336978L850.4001471153846,-170.2067292826872L851.4388975961539,302.0861717631057L851.8339153846154,283.2127654700095L852.2143028846154,343.71355945392924L854.0138283653846,237.69585572919655L854.4234764423077,358.0711575219538L854.7160822115385,490.444238065811L855.4037057692308,351.6081141166068L856.5448682692307,338.34634191470366L856.8813649038461,382.1945213888532L857.3202735576923,123.8643697646859L857.7299216346154,336.2419104039707L859.456295673077,410.3058237046835L859.8366831730768,165.77596042370715L861.76788125,308.2257755963093L862.8797831730769,145.346935245768L863.2162798076923,274.56796695354234L863.5966673076923,240.16786174364492L863.9770548076923,265.5596925340267L864.3867028846154,291.1780959685943L865.1328475961539,265.1290895493234L865.4547139423078,260.6615148564908L866.2008586538462,389.27950245394055L866.9323730769231,354.26815593238473L867.2835,464.440241279474L869.2732192307692,4.3165854431704815L869.6243461538461,378.0853243397028L871.1312658653846,225.6212781985265L871.4531322115384,-46.911224497671355L871.7457379807693,376.7332859489629L872.0822346153847,351.32071224057154L873.0624639423078,267.04713469558055L873.3404394230769,201.42054074830494L874.70105625,297.567814408351L875.5349826923077,286.16420779661973L875.8861096153846,335.05196667131463L876.22260625,387.3852991676606L876.5737331730769,209.21842841476476L876.9394903846153,263.07429109300836L877.2613567307693,308.3396867050892L878.8121673076923,381.44197832005534L880.8457774038461,47.401575483375154L881.1822740384615,290.19363208156966L882.2210245192308,351.478058519834L882.4697394230769,368.3095119709006L882.7623451923077,64.80338420530063L883.4645990384615,183.23544945257956L883.7279442307691,321.5589234293392L884.4155677884615,186.31409834866975L884.8398461538461,287.10728581349525L886.7125230769232,310.4474170895297L887.0636499999999,-226.43183306109586L887.4001466346153,-121.78446148129956L887.8097947115384,156.77478358095618L888.9070663461538,217.0897909956197L889.3020841346154,286.3721368060644L891.3649548076924,376.5073630829316L892.0525783653846,331.49872980775393L894.4665759615384,353.40125190839234L896.982985576923,301.3784633869694" style="fill: none;" fill="none"></path></g></g></g></g></g></g><g transform="translate(78, 377)" clip-path="url(#clip_1)"><clipPath id="clip_1"><rect width="950" height="22"></rect></clipPath><g><g><line x1="0" y1="0" x2="0" y2="5" style="visibility: inherit;" fill="rgb(0, 0, 0)" stroke="rgb(204, 204, 204)" stroke-width="1px"></line><line x1="73.1514423076923" y1="0" x2="73.1514423076923" y2="5" style="visibility: inherit;" fill="rgb(0, 0, 0)" stroke="rgb(204, 204, 204)" stroke-width="1px"></line><line x1="146.3028846153846" y1="0" x2="146.3028846153846" y2="5" style="visibility: inherit;" fill="rgb(0, 0, 0)" stroke="rgb(204, 204, 204)" stroke-width="1px"></line><line x1="219.45432692307693" y1="0" x2="219.45432692307693" y2="5" style="visibility: inherit;" fill="rgb(0, 0, 0)" stroke="rgb(204, 204, 204)" stroke-width="1px"></line><line x1="292.6057692307692" y1="0" x2="292.6057692307692" y2="5" style="visibility: inherit;" fill="rgb(0, 0, 0)" stroke="rgb(204, 204, 204)" stroke-width="1px"></line><line x1="365.75721153846155" y1="0" x2="365.75721153846155" y2="5" style="visibility: inherit;" fill="rgb(0, 0, 0)" stroke="rgb(204, 204, 204)" stroke-width="1px"></line><line x1="438.90865384615387" y1="0" x2="438.90865384615387" y2="5" style="visibility: inherit;" fill="rgb(0, 0, 0)" stroke="rgb(204, 204, 204)" stroke-width="1px"></line><line x1="512.0600961538461" y1="0" x2="512.0600961538461" y2="5" style="visibility: inherit;" fill="rgb(0, 0, 0)" stroke="rgb(204, 204, 204)" stroke-width="1px"></line><line x1="585.2115384615385" y1="0" x2="585.2115384615385" y2="5" style="visibility: inherit;" fill="rgb(0, 0, 0)" stroke="rgb(204, 204, 204)" stroke-width="1px"></line><line x1="658.3629807692307" y1="0" x2="658.3629807692307" y2="5" style="visibility: inherit;" fill="rgb(0, 0, 0)" stroke="rgb(204, 204, 204)" stroke-width="1px"></line><line x1="731.5144230769231" y1="0" x2="731.5144230769231" y2="5" style="visibility: inherit;" fill="rgb(0, 0, 0)" stroke="rgb(204, 204, 204)" stroke-width="1px"></line><line x1="804.6658653846154" y1="0" x2="804.6658653846154" y2="5" style="visibility: inherit;" fill="rgb(0, 0, 0)" stroke="rgb(204, 204, 204)" stroke-width="1px"></line><line x1="877.8173076923077" y1="0" x2="877.8173076923077" y2="5" style="visibility: inherit;" fill="rgb(0, 0, 0)" stroke="rgb(204, 204, 204)" stroke-width="1px"></line><line x1="950.96875" y1="0" x2="950.96875" y2="5" style="visibility: inherit;" fill="rgb(0, 0, 0)" stroke="rgb(204, 204, 204)" stroke-width="1px"></line></g><g transform="translate(0, 8)"><text x="0" y="0" dx="0em" dy="0.95em" style="text-anchor: middle; visibility: hidden; font-family: &quot;Helvetica Neue&quot;, sans-serif; font-size: 12px; font-weight: 200;" fill="rgb(50, 49, 63)" stroke="none" stroke-width="1px">-5k</text><text x="73.1514423076923" y="0" dx="0em" dy="0.95em" style="text-anchor: middle; visibility: inherit; font-family: &quot;Helvetica Neue&quot;, sans-serif; font-size: 12px; font-weight: 200;" fill="rgb(50, 49, 63)" stroke="none" stroke-width="1px">0</text><text x="146.3028846153846" y="0" dx="0em" dy="0.95em" style="text-anchor: middle; visibility: inherit; font-family: &quot;Helvetica Neue&quot;, sans-serif; font-size: 12px; font-weight: 200;" fill="rgb(50, 49, 63)" stroke="none" stroke-width="1px">5k</text><text x="219.45432692307693" y="0" dx="0em" dy="0.95em" style="text-anchor: middle; visibility: inherit; font-family: &quot;Helvetica Neue&quot;, sans-serif; font-size: 12px; font-weight: 200;" fill="rgb(50, 49, 63)" stroke="none" stroke-width="1px">10k</text><text x="292.6057692307692" y="0" dx="0em" dy="0.95em" style="text-anchor: middle; visibility: inherit; font-family: &quot;Helvetica Neue&quot;, sans-serif; font-size: 12px; font-weight: 200;" fill="rgb(50, 49, 63)" stroke="none" stroke-width="1px">15k</text><text x="365.75721153846155" y="0" dx="0em" dy="0.95em" style="text-anchor: middle; visibility: inherit; font-family: &quot;Helvetica Neue&quot;, sans-serif; font-size: 12px; font-weight: 200;" fill="rgb(50, 49, 63)" stroke="none" stroke-width="1px">20k</text><text x="438.90865384615387" y="0" dx="0em" dy="0.95em" style="text-anchor: middle; visibility: inherit; font-family: &quot;Helvetica Neue&quot;, sans-serif; font-size: 12px; font-weight: 200;" fill="rgb(50, 49, 63)" stroke="none" stroke-width="1px">25k</text><text x="512.0600961538461" y="0" dx="0em" dy="0.95em" style="text-anchor: middle; visibility: inherit; font-family: &quot;Helvetica Neue&quot;, sans-serif; font-size: 12px; font-weight: 200;" fill="rgb(50, 49, 63)" stroke="none" stroke-width="1px">30k</text><text x="585.2115384615385" y="0" dx="0em" dy="0.95em" style="text-anchor: middle; visibility: inherit; font-family: &quot;Helvetica Neue&quot;, sans-serif; font-size: 12px; font-weight: 200;" fill="rgb(50, 49, 63)" stroke="none" stroke-width="1px">35k</text><text x="658.3629807692307" y="0" dx="0em" dy="0.95em" style="text-anchor: middle; visibility: inherit; font-family: &quot;Helvetica Neue&quot;, sans-serif; font-size: 12px; font-weight: 200;" fill="rgb(50, 49, 63)" stroke="none" stroke-width="1px">40k</text><text x="731.5144230769231" y="0" dx="0em" dy="0.95em" style="text-anchor: middle; visibility: inherit; font-family: &quot;Helvetica Neue&quot;, sans-serif; font-size: 12px; font-weight: 200;" fill="rgb(50, 49, 63)" stroke="none" stroke-width="1px">45k</text><text x="804.6658653846154" y="0" dx="0em" dy="0.95em" style="text-anchor: middle; visibility: inherit; font-family: &quot;Helvetica Neue&quot;, sans-serif; font-size: 12px; font-weight: 200;" fill="rgb(50, 49, 63)" stroke="none" stroke-width="1px">50k</text><text x="877.8173076923077" y="0" dx="0em" dy="0.95em" style="text-anchor: middle; visibility: inherit; font-family: &quot;Helvetica Neue&quot;, sans-serif; font-size: 12px; font-weight: 200;" fill="rgb(50, 49, 63)" stroke="none" stroke-width="1px">55k</text><text x="950.96875" y="0" dx="0em" dy="0.95em" style="text-anchor: middle; visibility: hidden; font-family: &quot;Helvetica Neue&quot;, sans-serif; font-size: 12px; font-weight: 200;" fill="rgb(50, 49, 63)" stroke="none" stroke-width="1px">60k</text></g><line x1="0" y1="0" x2="950.96875" y2="0" fill="rgb(0, 0, 0)" stroke="rgb(204, 204, 204)" stroke-width="1px"></line></g></g></g></g></svg>