<svg viewBox="0 0 1029 400" xmlns="http://www.w3.org/2000/svg"><g><g><g><g><g><line x1="68.3125" y1="372.949716149916" x2="63.3125" y2="372.949716149916" style="visibility: inherit;" fill="rgb(0, 0, 0)" stroke="rgb(204, 204, 204)" stroke-width="1px"></line><line x1="68.3125" y1="347.3113687634231" x2="63.3125" y2="347.3113687634231" style="visibility: inherit;" fill="rgb(0, 0, 0)" stroke="rgb(204, 204, 204)" stroke-width="1px"></line><line x1="68.3125" y1="321.67302137693014" x2="63.3125" y2="321.67302137693014" style="visibility: inherit;" fill="rgb(0, 0, 0)" stroke="rgb(204, 204, 204)" stroke-width="1px"></line><line x1="68.3125" y1="296.0346739904372" x2="63.3125" y2="296.0346739904372" style="visibility: inherit;" fill="rgb(0, 0, 0)" stroke="rgb(204, 204, 204)" stroke-width="1px"></line><line x1="68.3125" y1="270.3963266039443" x2="63.3125" y2="270.3963266039443" style="visibility: inherit;" fill="rgb(0, 0, 0)" stroke="rgb(204, 204, 204)" stroke-width="1px"></line><line x1="68.3125" y1="244.75797921745138" x2="63.3125" y2="244.75797921745138" style="visibility: inherit;" fill="rgb(0, 0, 0)" stroke="rgb(204, 204, 204)" stroke-width="1px"></line><line x1="68.3125" y1="219.11963183095844" x2="63.3125" y2="219.11963183095844" style="visibility: inherit;" fill="rgb(0, 0, 0)" stroke="rgb(204, 204, 204)" stroke-width="1px"></line><line x1="68.3125" y1="193.4812844444655" x2="63.3125" y2="193.4812844444655" style="visibility: inherit;" fill="rgb(0, 0, 0)" stroke="rgb(204, 204, 204)" stroke-width="1px"></line><line x1="68.3125" y1="167.8429370579726" x2="63.3125" y2="167.8429370579726" style="visibility: inherit;" fill="rgb(0, 0, 0)" stroke="rgb(204, 204, 204)" stroke-width="1px"></line><line x1="68.3125" y1="142.20458967147962" x2="63.3125" y2="142.20458967147962" style="visibility: inherit;" fill="rgb(0, 0, 0)" stroke="rgb(204, 204, 204)" stroke-width="1px"></line><line x1="68.3125" y1="116.56624228498674" x2="63.3125" y2="116.56624228498674" style="visibility: inherit;" fill="rgb(0, 0, 0)" stroke="rgb(204, 204, 204)" stroke-width="1px"></line><line x1="68.3125" y1="90.92789489849378" x2="63.3125" y2="90.92789489849378" style="visibility: inherit;" fill="rgb(0, 0, 0)" stroke="rgb(204, 204, 204)" stroke-width="1px"></line><line x1="68.3125" y1="65.28954751200092" x2="63.3125" y2="65.28954751200092" style="visibility: inherit;" fill="rgb(0, 0, 0)" stroke="rgb(204, 204, 204)" stroke-width="1px"></line><line x1="68.3125" y1="39.6512001255079" x2="63.3125" y2="39.6512001255079" style="visibility: inherit;" fill="rgb(0, 0, 0)" stroke="rgb(204, 204, 204)" stroke-width="1px"></line><line x1="68.3125" y1="14.012852739015045" x2="63.3125" y2="14.012852739015045" style="visibility: inherit;" fill="rgb(0, 0, 0)" stroke="rgb(204, 204, 204)" stroke-width="1px"></line></g><g transform="translate(58.3125, 0)"><text x="0" y="372.949716149916" dx="0em" dy="0.3em" style="text-anchor: end; visibility: hidden; font-family: &quot;Helvetica Neue&quot;, sans-serif; font-size: 12px; font-weight: 200;" fill="rgb(50, 49, 63)" stroke="none" stroke-width="1px">3.2e-4</text><text x="0" y="347.3113687634231" dx="0em" dy="0.3em" style="text-anchor: end; visibility: inherit; font-family: &quot;Helvetica Neue&quot;, sans-serif; font-size: 12px; font-weight: 200;" fill="rgb(50, 49, 63)" stroke="none" stroke-width="1px">3.4e-4</text><text x="0" y="321.67302137693014" dx="0em" dy="0.3em" style="text-anchor: end; visibility: inherit; font-family: &quot;Helvetica Neue&quot;, sans-serif; font-size: 12px; font-weight: 200;" fill="rgb(50, 49, 63)" stroke="none" stroke-width="1px">3.6e-4</text><text x="0" y="296.0346739904372" dx="0em" dy="0.3em" style="text-anchor: end; visibility: inherit; font-family: &quot;Helvetica Neue&quot;, sans-serif; font-size: 12px; font-weight: 200;" fill="rgb(50, 49, 63)" stroke="none" stroke-width="1px">3.8e-4</text><text x="0" y="270.3963266039443" dx="0em" dy="0.3em" style="text-anchor: end; visibility: inherit; font-family: &quot;Helvetica Neue&quot;, sans-serif; font-size: 12px; font-weight: 200;" fill="rgb(50, 49, 63)" stroke="none" stroke-width="1px">4e-4</text><text x="0" y="244.75797921745138" dx="0em" dy="0.3em" style="text-anchor: end; visibility: inherit; font-family: &quot;Helvetica Neue&quot;, sans-serif; font-size: 12px; font-weight: 200;" fill="rgb(50, 49, 63)" stroke="none" stroke-width="1px">4.2e-4</text><text x="0" y="219.11963183095844" dx="0em" dy="0.3em" style="text-anchor: end; visibility: inherit; font-family: &quot;Helvetica Neue&quot;, sans-serif; font-size: 12px; font-weight: 200;" fill="rgb(50, 49, 63)" stroke="none" stroke-width="1px">4.4e-4</text><text x="0" y="193.4812844444655" dx="0em" dy="0.3em" style="text-anchor: end; visibility: inherit; font-family: &quot;Helvetica Neue&quot;, sans-serif; font-size: 12px; font-weight: 200;" fill="rgb(50, 49, 63)" stroke="none" stroke-width="1px">4.6e-4</text><text x="0" y="167.8429370579726" dx="0em" dy="0.3em" style="text-anchor: end; visibility: inherit; font-family: &quot;Helvetica Neue&quot;, sans-serif; font-size: 12px; font-weight: 200;" fill="rgb(50, 49, 63)" stroke="none" stroke-width="1px">4.8e-4</text><text x="0" y="142.20458967147962" dx="0em" dy="0.3em" style="text-anchor: end; visibility: inherit; font-family: &quot;Helvetica Neue&quot;, sans-serif; font-size: 12px; font-weight: 200;" fill="rgb(50, 49, 63)" stroke="none" stroke-width="1px">5e-4</text><text x="0" y="116.56624228498674" dx="0em" dy="0.3em" style="text-anchor: end; visibility: inherit; font-family: &quot;Helvetica Neue&quot;, sans-serif; font-size: 12px; font-weight: 200;" fill="rgb(50, 49, 63)" stroke="none" stroke-width="1px">5.2e-4</text><text x="0" y="90.92789489849378" dx="0em" dy="0.3em" style="text-anchor: end; visibility: inherit; font-family: &quot;Helvetica Neue&quot;, sans-serif; font-size: 12px; font-weight: 200;" fill="rgb(50, 49, 63)" stroke="none" stroke-width="1px">5.4e-4</text><text x="0" y="65.28954751200092" dx="0em" dy="0.3em" style="text-anchor: end; visibility: inherit; font-family: &quot;Helvetica Neue&quot;, sans-serif; font-size: 12px; font-weight: 200;" fill="rgb(50, 49, 63)" stroke="none" stroke-width="1px">5.6e-4</text><text x="0" y="39.6512001255079" dx="0em" dy="0.3em" style="text-anchor: end; visibility: inherit; font-family: &quot;Helvetica Neue&quot;, sans-serif; font-size: 12px; font-weight: 200;" fill="rgb(50, 49, 63)" stroke="none" stroke-width="1px">5.8e-4</text><text x="0" y="14.012852739015045" dx="0em" dy="0.3em" style="text-anchor: end; visibility: inherit; font-family: &quot;Helvetica Neue&quot;, sans-serif; font-size: 12px; font-weight: 200;" fill="rgb(50, 49, 63)" stroke="none" stroke-width="1px">6e-4</text></g><line x1="68.3125" y1="0" x2="68.3125" y2="377.828125" fill="rgb(0, 0, 0)" stroke="rgb(204, 204, 204)" stroke-width="1px"></line></g></g><g transform="translate(68, 0)" clip-path="url(#clip_0)"><clipPath id="clip_0"><rect width="960" height="377"></rect></clipPath><g><g><g><line x1="35.75796265352602" y1="0" x2="35.75796265352602" y2="377.828125" fill="rgb(0, 0, 0)" stroke="rgb(60, 60, 60)" stroke-width="1px" opacity="0.25"></line><line x1="105.96207748607348" y1="0" x2="105.96207748607348" y2="377.828125" fill="rgb(0, 0, 0)" stroke="rgb(60, 60, 60)" stroke-width="1px" opacity="0.25"></line><line x1="176.16619231862097" y1="0" x2="176.16619231862097" y2="377.828125" fill="rgb(0, 0, 0)" stroke="rgb(60, 60, 60)" stroke-width="1px" opacity="0.25"></line><line x1="246.37030715116842" y1="0" x2="246.37030715116842" y2="377.828125" fill="rgb(0, 0, 0)" stroke="rgb(60, 60, 60)" stroke-width="1px" opacity="0.25"></line><line x1="316.57442198371587" y1="0" x2="316.57442198371587" y2="377.828125" fill="rgb(0, 0, 0)" stroke="rgb(60, 60, 60)" stroke-width="1px" opacity="0.25"></line><line x1="386.77853681626334" y1="0" x2="386.77853681626334" y2="377.828125" fill="rgb(0, 0, 0)" stroke="rgb(60, 60, 60)" stroke-width="1px" opacity="0.25"></line><line x1="456.9826516488108" y1="0" x2="456.9826516488108" y2="377.828125" fill="rgb(0, 0, 0)" stroke="rgb(60, 60, 60)" stroke-width="1px" opacity="0.25"></line><line x1="527.1867664813583" y1="0" x2="527.1867664813583" y2="377.828125" fill="rgb(0, 0, 0)" stroke="rgb(60, 60, 60)" stroke-width="1px" opacity="0.25"></line><line x1="597.3908813139058" y1="0" x2="597.3908813139058" y2="377.828125" fill="rgb(0, 0, 0)" stroke="rgb(60, 60, 60)" stroke-width="1px" opacity="0.25"></line><line x1="667.5949961464532" y1="0" x2="667.5949961464532" y2="377.828125" fill="rgb(0, 0, 0)" stroke="rgb(60, 60, 60)" stroke-width="1px" opacity="0.25"></line><line x1="737.7991109790007" y1="0" x2="737.7991109790007" y2="377.828125" fill="rgb(0, 0, 0)" stroke="rgb(60, 60, 60)" stroke-width="1px" opacity="0.25"></line><line x1="808.0032258115482" y1="0" x2="808.0032258115482" y2="377.828125" fill="rgb(0, 0, 0)" stroke="rgb(60, 60, 60)" stroke-width="1px" opacity="0.25"></line><line x1="878.2073406440957" y1="0" x2="878.2073406440957" y2="377.828125" fill="rgb(0, 0, 0)" stroke="rgb(60, 60, 60)" stroke-width="1px" opacity="0.25"></line><line x1="948.411455476643" y1="0" x2="948.411455476643" y2="377.828125" fill="rgb(0, 0, 0)" stroke="rgb(60, 60, 60)" stroke-width="1px" opacity="0.25"></line></g><g><line x1="0" y1="372.949716149916" x2="960.6875" y2="372.949716149916" fill="rgb(0, 0, 0)" stroke="rgb(60, 60, 60)" stroke-width="1px" opacity="0.25"></line><line x1="0" y1="347.3113687634231" x2="960.6875" y2="347.3113687634231" fill="rgb(0, 0, 0)" stroke="rgb(60, 60, 60)" stroke-width="1px" opacity="0.25"></line><line x1="0" y1="321.67302137693014" x2="960.6875" y2="321.67302137693014" fill="rgb(0, 0, 0)" stroke="rgb(60, 60, 60)" stroke-width="1px" opacity="0.25"></line><line x1="0" y1="296.0346739904372" x2="960.6875" y2="296.0346739904372" fill="rgb(0, 0, 0)" stroke="rgb(60, 60, 60)" stroke-width="1px" opacity="0.25"></line><line x1="0" y1="270.3963266039443" x2="960.6875" y2="270.3963266039443" fill="rgb(0, 0, 0)" stroke="rgb(60, 60, 60)" stroke-width="1px" opacity="0.25"></line><line x1="0" y1="244.75797921745138" x2="960.6875" y2="244.75797921745138" fill="rgb(0, 0, 0)" stroke="rgb(60, 60, 60)" stroke-width="1px" opacity="0.25"></line><line x1="0" y1="219.11963183095844" x2="960.6875" y2="219.11963183095844" fill="rgb(0, 0, 0)" stroke="rgb(60, 60, 60)" stroke-width="1px" opacity="0.25"></line><line x1="0" y1="193.4812844444655" x2="960.6875" y2="193.4812844444655" fill="rgb(0, 0, 0)" stroke="rgb(60, 60, 60)" stroke-width="1px" opacity="0.25"></line><line x1="0" y1="167.8429370579726" x2="960.6875" y2="167.8429370579726" fill="rgb(0, 0, 0)" stroke="rgb(60, 60, 60)" stroke-width="1px" opacity="0.25"></line><line x1="0" y1="142.20458967147962" x2="960.6875" y2="142.20458967147962" fill="rgb(0, 0, 0)" stroke="rgb(60, 60, 60)" stroke-width="1px" opacity="0.25"></line><line x1="0" y1="116.56624228498674" x2="960.6875" y2="116.56624228498674" fill="rgb(0, 0, 0)" stroke="rgb(60, 60, 60)" stroke-width="1px" opacity="0.25"></line><line x1="0" y1="90.92789489849378" x2="960.6875" y2="90.92789489849378" fill="rgb(0, 0, 0)" stroke="rgb(60, 60, 60)" stroke-width="1px" opacity="0.25"></line><line x1="0" y1="65.28954751200092" x2="960.6875" y2="65.28954751200092" fill="rgb(0, 0, 0)" stroke="rgb(60, 60, 60)" stroke-width="1px" opacity="0.25"></line><line x1="0" y1="39.6512001255079" x2="960.6875" y2="39.6512001255079" fill="rgb(0, 0, 0)" stroke="rgb(60, 60, 60)" stroke-width="1px" opacity="0.25"></line><line x1="0" y1="14.012852739015045" x2="960.6875" y2="14.012852739015045" fill="rgb(0, 0, 0)" stroke="rgb(60, 60, 60)" stroke-width="1px" opacity="0.25"></line></g></g></g><g><g><line x1="0" y1="783.163274333803" x2="960.6875" y2="783.163274333803" fill="rgb(0, 0, 0)" stroke="rgb(153, 153, 153)" stroke-width="1.5px"></line></g></g><g><g><line x1="35.75796265352602" y1="0" x2="35.75796265352602" y2="377.828125" fill="rgb(0, 0, 0)" stroke="rgb(153, 153, 153)" stroke-width="1.5px"></line></g></g><g><g><g><g><g><path stroke="rgb(255, 112, 67)" stroke-width="2px" d="M36.333636395152915,95.81349673442202L37.456902232473674,110.44888821680314L38.580168069794425,63.278053865772165L39.14180098845481,26.471031310429964L40.26506682577557,15.720051307419283L41.38833266309633,44.435577276841L41.94996558175671,78.98918155706338L42.511598500417094,83.94880871415279L43.073231419077466,69.03375472300564L43.634864337737845,92.00720634711791L44.19649725639823,106.88528028343904L44.75813017505861,78.86093325524882L45.31976309371898,56.86395943887237L45.88139601237937,60.84492564210274L46.44302893103975,46.64975814165052L47.00466184970013,35.056178458614795L48.127927687020886,39.945544680420426L49.25119352434165,57.48744932796649L49.812826443002024,65.85273603280882L50.93609228032279,68.13692284168025L52.62099103630393,72.0141239834677L53.182623954964306,96.39201725849995L53.74425687362468,91.6328431503535L54.305889792285065,77.41049439280624L54.867522710945444,81.56125475177839L55.9907885482662,93.33915262729448L57.67568730424735,71.8246686191809L58.23732022290772,90.77018200733812L59.360586060228485,106.52584552528572L59.922218978888864,97.01515684200018L60.483851897549236,78.33091540524066L61.045484816209616,82.8538780289307L61.60711773487001,81.2530154103016L62.16875065353038,88.08444225703374L63.29201649085114,86.59565785305921L63.85364940951152,103.5915794669001L65.53854816549266,111.82904157739688L66.10018108415304,119.81940678329983L66.66181400281341,132.8043196833546L67.2234469214738,147.30031502952556L67.78507984013417,133.15393134014178L69.46997859611533,109.98246887377945L70.03161151477569,122.616926131519L70.59324443343607,121.97907757854401L71.15487735209645,115.30243006723043L71.71651027075684,99.71097138357368L72.27814318941722,108.97031823339432L72.8397761080776,110.47760892309435L73.40140902673798,97.26795841501445L73.96304194539836,91.35719542710132L74.52467486405872,109.5207034325635L75.6479407013795,100.18321650206661L76.20957362003988,118.51026103805634L76.77120653870026,99.59546079299878L77.33283945736063,106.67787367108258L78.4561052946814,72.99584728365568L79.57937113200215,55.92875042199438L80.14100405066253,53.48910739362009L81.26426988798329,12.490035170605722L81.82590280664368,21.58623349492825L82.94916864396443,18.33181483516819L83.5108015626248,27.315672792020848L84.07243448128519,41.3288852597795L84.63406739994556,33.08631921068644L85.19570031860596,23.892629154919348L85.75733323726634,42.209574840796904L86.8805990745871,39.01241317809564L87.44223199324746,34.18493239770555L88.00386491190784,31.16419996339158L88.56549783056823,30.746478458402237L89.68876366788899,9.389785580034527L91.37366242387013,37.39265858734666L91.93529534253051,38.31428261499855L92.49692826119089,44.40491388478341L93.05856117985127,66.83769262544735L94.18182701717203,73.0324093408775L94.7434599358324,72.5349844589465L95.3050928544928,68.69711363221319L96.98999161047392,66.75603802230324L97.5516245291343,82.14187276973144L99.23652328511545,69.21947199854947L100.92142204109658,76.90893280499427L101.48305495975696,87.07709896429697L102.04468787841735,82.69172347608156L102.60632079707773,97.60956239092422L103.16795371573811,97.04324135851544L104.85285247171923,84.78772574270249L105.41448539037962,104.12884482663497L105.97611830904,102.67885487672748L106.53775122770038,133.25957053748166L107.09938414636076,139.48986883414L108.22264998368152,120.67031604266992L108.7842829023419,105.62455175681725L110.46918165832304,82.5530675889782L112.15408041430418,79.86730193142864L112.71571333296457,77.13929496786756L113.83897917028531,80.19804582013853L114.96224500760607,79.4385231063435L115.52387792626647,91.95837232392603L116.08551084492686,85.74051578908285L116.64714376358724,77.83709733103473L117.2087766822476,73.23536353338858L117.77040960090798,49.474606229830044L118.89367543822874,61.640841977706486L119.45530835688913,56.39547937075446L120.01694127554951,83.00882737541451L120.57857419420988,82.53949419505875L121.70184003153065,70.22449835499339L122.26347295019102,41.84810022201748L122.82510586885141,35.67862831247095L123.94837170617217,60.69813437880657L124.51000462483256,45.11442894308891L125.07163754349293,76.93413121476539L126.19490338081367,51.42419277414098L126.75653629947406,55.39160613664319L127.87980213679482,66.89989052888455L128.4414350554552,59.445373903050665L129.56470089277596,67.82211275161734L130.12633381143633,81.3133017510226L130.68796673009672,80.70479686531974L131.81123256741748,88.1141762906206L132.37286548607787,62.437660162567965L134.057764242059,68.95373946715046L134.6193971607194,59.27563234653161L135.18103007937978,67.42737549884282L135.74266299804015,76.24639390391008L136.86592883536088,84.02294353355575L137.42756175402127,76.52799232636352L138.55082759134203,77.44073568682705L139.6740934286628,92.39882917448267L140.23572634732318,97.0263695694249L140.79735926598354,96.91711732032769L141.35899218464394,72.82938054666198L142.4822580219647,83.12378816766602L143.0438909406251,98.35944083253673L144.72878969660624,96.55293703279511L146.97532137124773,106.57195934614396L147.5369542899081,88.35178123382457L149.22185304588925,104.38267589961123L149.78348596454964,109.2290838404437L150.9067518018704,125.01505776186389L151.4683847205308,116.2406621852727L152.03001763919116,128.34696700020973L152.59165055785155,127.06316455745156L153.15328347651192,124.8336231127615L154.83818223249304,134.59952691225482L155.39981515115343,128.40043442880503L155.9614480698138,129.16324998441527L156.5230809884742,136.96207852863463L158.20797974445534,147.5963303692113L158.7696126631157,142.39253904990588L159.3312455817761,139.13118802605658L159.89287850043647,154.45104023305603L160.45451141909686,135.48928455969633L161.01614433775723,147.64743945447626L162.139410175078,151.61532809624515L162.70104309373835,161.8166448088441L163.26267601239874,127.82953909308534L164.3859418497195,129.56169587905478L164.9475747683799,126.65431691573167L165.50920768704026,111.75770822375773L166.07084060570065,115.47960873927752L166.63247352436102,105.74127120082909L167.1941064430214,124.66849758497699L167.75573936168178,120.52303481880682L168.87900519900256,105.67906831242772L169.44063811766293,114.3229573088608L170.5639039549837,107.50295802423369L172.8104356296252,103.50983942778481L173.37206854828557,86.4419739910478L174.49533438560633,117.3144318478735L175.05696730426672,143.10517148987512L175.6186002229271,152.66543088370898L176.18023314158748,139.03238087240646L176.74186606024787,159.16492762943173L177.30349897890824,143.27408699474572L177.86513189756863,159.31983975302703L178.9883977348894,158.97375484213813L180.6732964908705,148.38797031375975L181.23492940953088,143.97981321214462L181.79656232819127,156.71971241075863L182.35819524685166,136.2500099851174L183.48146108417242,132.68486191401533L184.59068609852667,137.27672818002645L185.71395193584743,123.86045971301155L186.82317695020168,138.89980214779277L187.94644278752244,129.14700888656114L188.50807570618284,100.26970517049898L189.0697086248432,117.61137668657238L189.6313415435036,124.71632856645351L190.19297446216396,129.45530263046336L191.31624029948472,125.46204945490541L191.87787321814508,107.85499309080183L192.98709823249933,99.97982874958376L193.54873115115973,90.31412577899653L194.1103640698201,106.31035304649123L195.23362990714085,105.93689237887833L198.04179450044276,94.59154011974317L199.16506033776355,109.15985608791198L199.72669325642389,115.65491172461822L200.84995909374464,134.12709941348533L201.41159201240504,130.53813360802198L201.9732249310654,119.61186147471471L202.5348578497258,128.38289866737924L203.0964907683862,111.0336919947971L203.65812368704655,125.64751968846667L204.20571578274044,112.27410970373302L204.7673487014008,102.94267138161831L205.3289816200612,93.2224957364748L205.89061453872156,113.07989216040289L208.10906456743007,104.51982737330593L208.65665666312395,106.97038953819214L209.7799225004447,93.2327277884828L211.4086579645598,104.19193334315435L213.64114881623482,104.94360645644014L214.18874091192868,138.0571707742932L214.75037383058907,116.42430383038163L215.31200674924946,128.35388603819786L216.43527258657022,108.69432817444948L216.99690550523056,104.4854355466415L217.55853842389095,109.74380783190475L218.12017134255132,102.67061717834264L218.6818042612117,102.90199042229932L219.2434371798721,117.15911151105979L220.92833593585323,101.26949065507688L221.48996885451362,114.12658617274735L222.58515304590136,129.16169635383227L223.6803372372891,138.97310067549543L224.80360307460987,142.36000805448603L225.92686891193063,137.4180926805905L227.05013474925138,131.99626003449296L227.61176766791178,118.50364771148804L228.15935976360564,130.12410070456818L228.692911036333,129.57436489004272L229.25454395499338,127.08830083695912L229.80213605068724,120.55994453480253L230.36376896934763,123.10410798270718L230.925401888008,133.54713174070295L231.47299398370188,136.7224174236978L232.58221899805613,131.42640356871058L233.7054848353769,144.35812216845258L234.26711775403726,169.3333465249687L235.37634276839148,167.86618013968717L236.45748613681275,171.81420048624034L237.0050782325066,160.8584558068887L237.5526703282005,167.43662702815942L238.11430324686086,140.50074716297436L238.67593616552125,133.75119647286203L239.23756908418162,128.78605005012975L239.7851611798755,107.37233932056876L240.30467162963637,82.50206640368515L240.8663045482967,100.08383012956892L241.4279374669571,115.89275031371642L241.9895703856175,123.22130132777727L243.09879539997175,121.28646097655155L243.6604283186321,98.33671240887577L244.76965333298637,75.34424034917265L245.8929191703071,95.78604918210641L246.44051126600095,90.67802518612524L246.98810336169487,108.21553695625954L247.5497362803552,122.00332306379116L248.1113691990156,124.52637577368071L249.17847174447033,130.83587997618778L249.72606384016424,135.66455411558445L250.8352888545185,137.03571841379198L251.38288095021235,155.5284891432724L251.9304730459062,166.67339134016206L252.4640243186336,177.7185927107583L253.01161641432745,167.07747146772948L254.10680060571516,171.723939931788L254.66843352437556,166.794936265598L255.20198479710294,171.212089458991L255.7495768927968,185.92791414666735L257.3923531798784,190.4867084591568L258.4454149023666,192.08006039713112L259.007047821027,180.6196476545317L260.10223201241473,180.7711296253887L260.6638649310751,187.42481590881565L261.1974162038025,165.49643561549405L262.32068204112323,164.4107398742134L262.8823149597836,152.91628987197834L263.96345832820487,148.35955001871386L265.0867241655256,139.15082220095405L267.82468464399494,119.1355480565964L268.38631756265534,124.56774452565733L270.07121631863646,124.05147117653408L270.63284923729685,131.59869914335255L271.1804413329907,114.58680951390329L271.69995178275155,121.82173276696358L272.2194622325124,125.98989883481156L273.28656477796716,104.48860231486003L274.35366732342186,116.77301328104448L275.4348106918431,120.69359363671839L276.5580765291638,122.23822188089486L277.63921989758506,119.07858471541749L279.26795536170016,103.56315597312255L279.82958828036055,94.31830444935213L281.935711725337,108.53914755721627L282.45522217509784,112.00731460535167L283.0028142707917,114.51400740465544L283.5363655435191,116.12152474141033L284.6596313808398,102.0466606167488L285.1931826535672,121.30452682828576L286.8219181176823,121.39629935372062L287.36951021337615,117.1363981236887L287.9030614861035,120.04089816336193L288.4646944047639,129.37611173394254L290.06534822294594,135.1246284348L290.61294031863986,117.27165412113499L291.68004286409456,122.8030166086711L292.21359413682194,132.47768673523348L292.7471454095493,113.43823366779787L293.26665585931016,107.56481003124395L293.814247955004,105.62313171215084L294.3758808736644,115.93640173385012L294.9234729693583,113.73651692896709L295.42894259615264,134.65638875624504L295.990575514813,147.20395639340694L296.5381676105069,156.51964706752352L297.05767806026773,153.16162752690437L297.59122933299506,177.33035162957955L298.15286225165545,169.12740722349196L298.65833187844976,158.44737464974313L299.1778423282106,137.3919193444616L300.8065777923257,149.80974073897733L301.3120474191201,166.37434995856208L303.46029333299606,149.6571286795921L304.0078854286899,159.66898258854943L306.15613134256586,159.5552523523527L307.78486680668095,145.62958092585376L308.3043772564418,135.52412959864841L309.329357332997,128.28497338352363L309.82078613682484,127.59007668597653L311.43548077797345,117.25895980094703L311.99711369663385,86.7523215416984L312.5587466152942,70.26127839714951L314.2155637253423,78.28520392262499L314.7631558210362,97.87402476194745L315.8302583664909,97.14335147793048L317.97850428036685,113.06126773563972L318.4980147301277,135.12222263805506L319.53703562964944,144.84211888645007L320.59009735213766,130.58424333957632L321.123648624865,132.26012668269453L321.6431590746258,140.64367212869792L322.1907511703197,133.1319093107671L322.72430244304707,122.97275507517855L323.28593536170746,135.17622308866828L324.3951603760617,114.32932329507122L324.95679329472205,136.23386428886954L325.50438539041596,138.17689659820388L326.0379366631433,142.6665467668768L326.57148793587066,112.11691560931945L327.0909983856315,109.09403769626317L327.61050883539235,97.82994701625813L329.67450981146925,101.46535361135119L330.1940202612301,104.38667849516781L330.71353071099094,107.60000826575128L333.8727158784556,122.40448094651592L334.95385924687685,103.47203865665642L335.4733696966377,100.55190152455287L336.00692096936507,118.24485068336452L336.5685538880254,137.7144713855795L337.1021051607528,130.16146669161265L337.63565643348016,140.71455970934335L338.183248529174,150.65932367839983L338.71679980190135,166.51951915641433L339.2363102516622,181.9983587159191L339.7839023473561,190.7031310759289L340.3174536200834,180.1810694017629L340.8650457157773,180.55279165497572L341.3985969885047,179.23524858582L341.91810743826557,183.37066395084918L342.47974035692596,179.78709912083107L342.9992508066868,164.28619848540797L343.5328020794141,172.13074042805795L344.61394544783536,171.24949872881675L345.1615375435292,169.53886717130166L345.70912963922314,171.383127402474L346.7621913617113,176.7340784610906L347.829293907166,181.52574586229463L348.89639645262076,144.7738067556522L349.4580293712811,137.0676838435915L350.9884790746307,125.58488147928259L351.53607117032453,124.37471269450208L352.08366326601845,128.18934690766937L353.12268416554014,137.4610921874138L353.65623543826746,130.70297562841913L354.2038275339613,124.97185551869876L355.242848433483,114.89971433624248L356.26782851003827,124.14257321878125L356.7732981368326,115.67837089494105L357.2928085865934,107.30441710117674L358.34587030908165,105.48246481790198L358.8372991129095,110.03228655858828L359.9184424813307,117.85478735782914L360.4239121081251,97.20344890584909L360.9434225578859,128.03439211434434L361.4910146535798,133.9563159285369L362.03860674927364,162.68430220116258L362.572158022001,171.79113310949185L363.09166847176186,155.13714312773L364.1728118401831,162.4855093732437L364.6782814669774,170.53758201502663L365.2118327397048,151.89274880691906L366.8124865578869,163.10948791033832L367.3039153617147,163.09065427120456L367.80938498850907,170.72499112103088L369.4240796296576,160.0142609193093L370.44905970621284,140.01698292230404L370.9685701559737,149.82841943751532L371.4880806057346,165.5753523860705L372.4990198593232,147.88647528043862L373.0325711320506,176.1375746497687L373.56612240477796,171.40161426618246L374.0996736775053,172.38298410194056L374.6191841272661,156.23504176223585L375.63012338085485,164.30909397418625L376.72530757224257,160.34349164106843L377.7783692947308,161.78776954201328L378.3119205674582,157.73023444382483L378.831431017219,143.8686195673507L380.41804401243456,146.20169016988774L382.56628992631056,143.86778940218784L383.0858003760714,145.06573336500438L383.5912700028657,163.63456564878337L384.0967396296601,152.41274120496158L384.6022092564544,136.91600280046123L385.6412301559761,146.97315890236504L386.6521694095648,134.06816056089522L388.1685782899478,118.92430145001885L388.67404791674215,118.95705132259042L389.7832729310964,116.88535184664045L390.83633465358463,137.25260414927723L391.3558451033455,130.07319794995772L392.942458098561,135.9499204847274L393.9393565291832,111.11700142725556L394.4307853330111,99.63749616332296L394.9362549598054,78.59699809214283L395.4417245865997,77.74160287595407L396.4526638401884,94.39177776543852L396.97217428994924,79.65482344047143L397.47764391674366,79.14225964716866L398.011195189471,87.43709994152721L398.5307056392318,87.79825550514772L399.02213444305966,105.73376654265707L399.4854816009545,121.92706582258882L400.0190328736818,135.88924400217354L400.5385433234427,134.43552434746024L401.0720945961701,132.27809622455592L402.6306259454526,154.16844251509036L403.15013639521345,151.36884129327427L404.2031981177016,160.71974773415354L405.18605572535733,154.37401308816854L406.23911744784556,166.91377838989496L406.7586278976064,156.53826389269344L407.2921791703337,171.35686092671347L407.7976487971281,154.63787309254545L408.31715924688893,164.21800252202863L408.85071051961626,168.95787089431076L409.37022096937716,172.51625486369113L409.8756905961715,178.29318972249314L410.9147114956932,172.2786774538725L411.4201811224875,186.3456961984504L412.47324284497574,190.6489711051261L413.00679411770307,183.39872975495913L413.54034539043045,193.4152549705347L414.56532546698566,196.45124080234538L415.09887673971303,193.79615082050287L416.0957751703352,197.47825789171895L416.5731631511965,190.72202187259327L417.13479606985686,206.24320412788254L417.6402656966513,210.5744502223592L418.1457353234456,199.72324874089836L418.66524577320644,204.01167146397827L419.1847562229673,181.03301434608153L419.71830749569466,197.34460141010115L420.2378179454555,213.0992974685423L420.75732839521635,223.14491158400364L421.2347163760777,201.3706845498908L422.6809211416281,198.23134318896484L423.76206451004936,200.5509249091513L424.7449221177051,211.483476475539L426.28941264402107,202.98234272237033L426.8089230937819,194.67454774158702L427.28631107464327,191.79437991580005L427.7636990555046,175.45475772993748L428.2551278593324,198.0579284752351L429.3081895818206,196.72351527022053L429.841740854548,181.80009948456362L430.3752921272754,179.75595143654067L430.90884340000275,179.59959984026145L431.3441089119645,178.58112922464116L431.84957853875886,155.63852105224723L432.34100734258664,158.7606925996887L432.84647696938106,158.4630555192054L434.8121921846923,168.45331427078384L435.31766181148674,155.27922568091557L436.32860106507536,162.80265086274588L437.311458672731,168.24050369145425L437.8450099454584,162.31553501365008L438.88403084498015,168.6984022346467L439.431622940674,181.85811475580854L439.9090109215353,176.81738083271037L440.3583172564636,182.24246491151365L440.89186852919096,194.61072395235888L441.3832973330188,206.12515958163962L442.84354292153574,201.52814098255857L443.33497172536363,197.90925726683312L443.8544821751245,197.97958246432808L447.36468791675185,196.10807006383047L447.87015754354616,192.11242517032815L449.3444439550297,200.81011047782974L450.8187303665132,204.46903856764797L451.32419999330756,180.10611619892887L451.82966962010187,182.30019151428357L453.3179968545519,170.65584315270846L454.3710585770401,186.96279674830413L454.89056902680096,199.63914458979374L455.39603865359527,197.98892930678107L456.9545700028778,208.80811607719488L457.4459988067057,211.24133184614635L457.9374276105335,210.79040463021693L458.45693806029436,189.6794617362378L458.9764485100552,198.5132605256629L459.4538364909165,205.56934537598508L459.9593061177108,182.46368789743707L460.4788165674717,157.53162480958463L462.43049095981655,169.5454841680496L462.93596058661086,170.0684281357373L463.96094066316607,148.2702188499792L464.52257358182646,146.78367242158345L465.0140023856543,132.02657687270957L465.9547375244104,130.72179106064974L466.44616632823823,114.55542802030482L466.9516359550326,121.93320217845138L467.9485343856548,122.54002225719614L468.51016730431513,110.0418877671695L469.0156369311095,124.63798843283394L469.5211065579038,141.0746435790465L470.04061700766465,143.85478688231402L470.5320458114925,141.85000365673176L471.0234746153203,152.6300503453168L472.0484546918756,162.86885063651198L474.0141699071869,168.61708523536325L474.47751706508166,152.31028994277588L475.9939259454647,150.31088694096113L476.49939557225906,145.7733177869132L476.9908243760869,162.65995821216728L477.4962940028812,168.87217703413208L478.4229883186709,165.8940450992684L479.44796839522604,178.13063107260186L479.9674788449869,195.3347752783098L480.4308260028817,187.12038514600331L480.92225480670953,201.3427090423142L481.4417652564704,199.866350096493L481.9612757062312,209.96641284214314L483.32323553398265,201.51886209785226L483.85678680671,195.81432629255048L485.373195687093,209.2427525427536L485.83654284498783,200.19249071623435L486.83344127560997,190.22276114458245L488.32176851006005,187.43400874083227L490.28748372537143,192.73853999217732L491.186096395228,197.35903687213133L491.64944355312275,207.7710906791466L492.0987498880511,198.6442987200311L492.54805622297937,196.33028549757222L493.0675666727402,187.98952631925945L494.07850592632894,192.90771393663746L494.55589390719024,182.4383114387548L495.0754043569511,192.9724076502232L496.0442211416403,189.09066253488578L496.5496907684346,198.68715653419673L497.53254837609023,181.3902949794838L499.41401865360257,174.8128485273199L500.9163867110191,169.42132874675758L501.40781551484685,172.97583780021708L501.91328514164127,192.26129457919333L503.35948990719163,202.8020606579677L503.80879624212,192.0402745670329L504.81973549570864,173.6612578352828L505.3392459454695,163.92437515379424L506.27998108422565,166.37283442776683L506.74332824212047,163.95191296070962L507.1926345770488,164.42783518419645L508.21761465360396,176.51179218410968L509.1021865004941,182.58309688485895L510.52030962011156,210.9583111999078L510.9696159550399,210.99188316684038L511.95247356269545,219.42715122706062L512.4439023665234,217.92118003642327L512.9634128162842,225.31311768013416L513.398678328246,223.59163452260594L514.4236584048012,232.3430125970932L514.971250500495,240.175952704904L515.4907609502559,233.15069834871355L515.9962305770503,235.62938261184343L516.9510065387728,232.50397528619987L517.891741677529,225.28652112767824L518.8886401081512,208.8268163490645L519.323905620113,213.36943987059146L519.7732119550413,194.42463819608935L520.7701103856634,204.40693005714L521.2334575435583,195.77580644007583L523.0306828832715,192.82817693043555L523.5501933330323,204.1983895615027L524.0135404909272,205.86111701886725L524.5470917636545,222.04437367487307L525.0666022134153,207.99341554075014L525.993296529205,203.58846904017685L526.4847253330328,212.4369089686563L527.4675829406885,222.33872229721047L527.9449709215498,217.98138271053026L528.3802364335115,226.03051429287777L528.857624414373,207.22906616386646L529.3350123952343,206.44347422796298L529.8404820220286,200.48947221836764L530.3319108258564,182.9260659879122L530.7812171607848,198.69463955288313L532.7048099071966,183.10092197742375L533.5753409311201,186.9422714046566L534.5020352469097,175.36713153640173L534.9513415818382,183.13255878376026L535.3725662708334,174.99270611990977L536.3133014095895,163.4169000077314L536.8187710363839,176.21227584522796L537.731424529207,173.49819312824349L539.1916701177239,178.9644278555713L539.6971397445183,185.21967095471035L540.1745277253796,188.67388935602582L540.6940381751405,187.5082956383541L541.1293036871022,184.53447052923147L542.1121612947579,199.25403201556577L542.6316717445187,182.63173815820062L545.5521629215527,196.7557433941113L546.0014692564811,183.78315842226627L546.9000819263376,164.83762916051631L547.3915107301655,186.06422207760184L547.8688987110268,187.91724016417433L548.2620417540891,156.93449029851521L548.7534705579169,173.86216407495513L549.2168177158118,177.795344048144L549.722287342606,172.95233586209918L550.6489816583957,184.02613534580993L551.0702063473909,194.14711131147217L551.5616351512188,199.56470763010554L552.0671047780131,212.9832131458276L552.8955133330372,234.42554247397578L553.358860490932,232.9032388372615L553.7660443569607,216.3033783245734L554.2995956296882,194.8003087585985L554.7489019646165,199.52876199040145L555.2403307684442,210.22188152675793L557.5570665579183,221.7426988371003L558.9190263856698,214.55157389767027L559.8457207014594,218.82925956895727L560.3371495052872,212.4323249991939L560.7864558402156,214.16840921663166L561.2217213521774,225.68620366463998L562.6258036488283,230.5437966663263L563.5665387875845,248.01509826188007L564.8442536775368,241.48026962684537L565.3356824813646,235.73817588332975L566.7397647780156,238.68530740693623L567.1609894670108,233.51064799120925L569.0565005674896,234.92318341838495L569.5760110172505,230.4853452415912L570.8677667301694,237.24139234857276L571.3451547110307,246.0526122591662L571.8365835148585,249.25369191739924L572.6509512469161,216.35405998186368L573.9707886057679,212.34555529050803L574.8694012756246,211.9172747702935L575.3327484335193,222.96976477012245L575.7820547684477,227.6322457838629L576.2173202804095,244.64925754706616L576.6947082612708,252.294190749108L577.1299737732326,245.6417412970383L577.5652392851944,224.9807054033468L577.9303006823236,215.85965930692785L578.8008317062472,212.25397167221456L579.2080155722759,194.8642306639965L580.9771592660561,196.91041870258604L581.8617311129462,188.77608616607935L582.3531599167742,198.3760078249619L583.3079358784968,204.4934227820539L584.6698957062482,218.87196804751372L585.0911203952435,234.9160885006468L585.5544675531382,226.1994439884356L585.9897330651002,228.03166040200452L588.3485913234737,200.10670890006443L588.8259793043351,181.05760726642336L589.2752856392633,194.5868682081769L589.6965103282586,203.77486980569205L591.05847015601,182.10735966195642L591.8447562421346,179.95843657411194L592.2659809311299,185.12656284109605L592.7152872660581,197.39780622584377L593.122471132087,205.33187409627251L594.5546350746708,181.81037966816137L595.495370213427,186.16055296396348L596.3939828832836,202.12437381086127L597.2364322612742,199.57795628080552L597.671697773236,201.25924424867935L599.0617392469204,204.89703547799274L599.98843356271,201.35907618027096L600.4517807206049,191.7075217405095L600.8449237636671,187.998421102271L602.192842768452,195.57724072398096L603.1195370842416,211.04881329996277L604.0602722229978,229.4870313646517L605.4222320507492,248.2466234501028L605.885579208644,254.3728525297388L606.3348855435723,244.33718271391743L606.7701510555341,243.90129789443475L607.6687637253907,257.7204749898019L608.0899884143861,269.25392046681065L609.4098257732379,270.8552420737817L611.6282758019464,271.4858831834713L612.5690109407026,274.027859849928L613.0042764526644,269.4589678517581L613.4395419646262,274.74579054034336L614.2539096966836,293.35012089923276L615.1384815435738,293.23346639853906L616.7531761847224,283.5590233720857L618.0308910746747,275.813201367751L618.4661565866364,272.21166740384973L618.8873812756318,253.4300469488175L619.3647692564932,230.63558965281638L619.8421572373545,232.23915420665455L620.6986474383116,240.28298211962516L621.456851878503,218.71872484790848L622.2993012564937,211.56708858625205L623.605097792379,225.92209590824487L624.9389759741974,213.13547263549066L625.2759557253937,224.5456182300685L628.4772633617579,231.9617913619272L628.9546513426192,216.51510022219207L629.3477943856814,212.07349512992255L630.2323662325715,213.6466696752168L631.8470608737201,231.34184576647596L632.7877960124762,223.54424883512704L633.2651839933376,223.73698965510417L634.1076333713281,224.6550674895993L634.9781643952517,227.28291072658874L638.0109821560177,217.8066416581972L638.4883701368791,225.73934301711213L639.3589011608027,224.0780387570617L639.8784116105635,213.37947530209087L640.2996362995588,219.60739830415835L640.7770242804202,231.71891214037626L641.7037185962098,236.12062262977244L642.153024931138,246.1076220110202L642.9252701942961,234.80230533017385L643.4026581751574,214.52432106766722L644.3153116679805,207.86048848230502L644.7786588258754,207.48276394584312L645.2279651608036,207.18877650941198L645.7474756105645,212.54491072833116L646.5758841655886,220.26127106781556L648.1484563378376,240.09198892143033L648.5696810268329,224.72338296481627L649.4402120507565,219.12083441895075L650.3247838976465,204.29396308203124L650.7460085866419,218.53834661904435L651.8833152469291,206.97601563075423L652.2062541751588,185.3030195796303L653.5962956488434,185.9796121980624L654.5510716105659,181.9655299547196L655.8849497923843,158.0789269837347L656.7133583474084,161.45789223053575L657.1065013904706,180.68026182571217L657.9910732373608,179.04741644425607L659.5496045866433,184.4105603962595L660.3780131416673,191.59566365916473L661.5153198019547,164.91758195050596L662.6947489311414,164.12969321047197L663.481035017266,173.4926472096653L663.8882188832948,167.58194423915316L664.7166274383188,175.30665449613053L665.9241382134387,168.05488403006703L666.3594037254004,188.90660839087906L668.3812822325779,176.4340701370016L668.8025069215731,185.78954603913684L669.2658540794679,177.904203344593L672.0318962038702,178.27555548229793L672.8181822899949,179.09413808886686L673.983570596215,200.0368535946241L674.8821832660716,214.30039011339585L675.275326309134,194.5545536616375L676.047571572292,164.47393072620704L676.4687962612873,188.67157601349732L676.8900209502825,211.56192559258625L677.3252864622443,201.48508119745236L677.7324703282732,196.1678506174609L678.4485522995651,182.32861721639458L678.91189945746,174.3199334972357L679.8105121273165,184.65098064965215L680.2879001081778,178.1795343608611L680.6529615053071,171.0174632976198L682.2536153234892,175.13774632986153L683.1101055244462,188.43869463952439L683.8402283187047,191.45571283557004L685.7919027110496,217.97652337461543L686.5360663282745,208.45651700217797L686.8870869024373,205.18568701097507L687.7997403952604,207.2693169507077L688.586026481385,189.839685570697L690.1866802995671,199.17815469509517L691.0010480316246,198.24907594021082L691.4643951895195,210.5930920151277L692.2787629215769,180.36014571510668L692.6578651416727,178.74933486544245L693.0229265388019,174.44917880557463L693.5143553426298,157.24509544930075L693.907498385692,173.24950733034933L694.3146822517208,154.08123378909997L695.0307642230127,148.95552609302428L695.3958256201421,146.34737844319358L695.7187645483718,137.4430098663036L696.111907591434,150.81309602762343L696.884152854592,136.80695175160074L698.0074186919128,140.5434812861395L698.7094598402383,126.96988607664707L699.1026028833005,145.678102553022L699.4676642804297,166.85423611136696L700.6611342325831,165.34546271669984L701.4474203187076,170.43929565598538L703.9888092756458,167.20344808158669L706.6565656392826,175.8869433588859L707.6534640699049,192.57277800508342L708.0325662900007,196.73761710922344L708.4959134478954,212.92241414028416L708.8609748450247,221.91536586556546L710.0123223282785,233.14018057409808L710.7424451225369,239.64142133220653L711.1496289885657,234.83800211209834L711.5427720316279,248.34895029134165L711.9218742517237,235.24094651795818L712.7362419837813,241.5575158463488L713.1715074957431,230.5242394045086L714.6457939072266,221.4664118448093L715.4601616392841,224.2197745314308L715.8111822134468,232.61833711835018L716.2324069024421,224.43680335194284L716.5974682995713,228.97148993139564L716.948488873734,248.67600470515987L717.2714278019638,238.52414141416236L717.6786116679926,234.67733395114087L718.0577138880884,241.71020545301127L718.9142040890455,219.50669305542758L719.2933063091411,224.15305813630013L720.0936332182323,232.70507408067425L720.472735438328,220.45298925958437L721.6100420986153,217.44989364657732L722.8877569885676,219.44742677199346L723.2949408545965,209.6819009483987L723.6880838976587,218.54206685656854L724.1233494096205,209.66462289386268L724.8675130268455,188.35935189274997L725.2746968928743,177.47238669650397L726.6647383665587,196.41825779077672L727.9003307876114,203.477966177566L728.9533925100998,185.13441289147065L729.7115969502913,181.47514754162924L730.891026079478,210.2436088252114L731.5369039359374,213.3927926055113L731.9160061560332,208.89165615720108L732.5618840124927,206.19455977529387L732.9831087014879,212.62091284435684L733.3622109215837,227.70282899950868L733.7553539646459,242.09093404529983L734.1484970077083,250.00240270088995L734.8926606249332,224.99577149166296L735.243681199096,229.31282508930457L735.5947017732586,243.33999344331136L735.8755182325889,245.9646154794412L736.5213960890484,259.12009295064934L737.6446619263692,245.2497464325491L738.0237641464649,224.64078785586514L738.3467030746946,234.00652059359072L739.3716831512497,246.55324004118194L739.9894793617761,241.2819771297325L740.3826224048385,243.34536893823002L740.7055613330682,230.7654259820137L741.0565819072309,236.7152990487372L742.8538072469441,231.92898554706207L744.3561753043607,248.53837544919597L744.7493183474229,244.57375207056197L745.1003389215857,252.5873487834458L745.4513594957484,246.06857230760096L746.1393598211074,253.50208989291357L746.4622987493372,256.2075074196899L746.8554417923993,250.84995831146435L747.5996054096244,248.5777523846334L748.3297282038828,239.4259237526692L748.7088304239786,243.5236477474259L749.0879326440744,247.49643408086104L749.7478513235003,245.63632002101662L750.4920149407253,260.29228022137664L750.8009130459884,254.82880999267235L751.1519336201512,247.56491983810557L752.3454035723046,265.08568936088926L752.9491589598645,260.9179396857808L753.3282611799602,259.76698240671504L754.0022206823527,257.3491993469743L755.5747928546018,265.32951566989675L755.9398542517309,247.91826299117295L756.6418954000565,235.13616076045358L757.343936548382,246.9123404628224L757.9898144048414,249.53386852167978L760.1801827876168,246.81962348525195L762.033571419196,245.67350962703145L762.4126736392918,245.789580020136L763.1006739646508,229.3784195747167L764.4766746153688,245.2116947716937L764.813654366565,235.23078644361192L765.4454914000579,235.13570720668295L765.8105527971871,228.91689928412856L766.8214920507759,198.7739670265762L767.5516148450344,205.8904456582621L767.9447578880967,193.35102021060433L768.3238601081924,209.071347144025L769.0399420794844,221.14576488253488L771.3005145770924,219.22065084515583L771.6094126823556,211.62728373237758L772.2693313617815,223.53972171377904L773.3645155531692,206.39229734929881L773.687454481399,196.0323307018265L775.1477000699159,181.2043873543309L776.636027304366,188.16271140593406L777.0432111703947,194.60983393462166L777.7031298498207,194.64557770683246L778.1103137158495,209.8056472396542L778.4051709981462,219.64918617557458L779.472273543601,218.45196073075135L779.8794574096296,210.38734293545988L780.8903966632184,194.4144155055948L781.241417237381,186.2797760986893L781.6907235723095,185.73609183814492L782.6876220029316,166.75256383919736L783.0667242230273,157.58105664100125L783.4317856201566,156.30147522125938L785.1588068450372,157.76960883248032L785.5519498880994,157.23002799793073L785.8327663474297,175.13701208950664L786.4926850268556,177.0661944762787L787.5878692182434,182.71041358320738L787.9108081464731,183.66815049457117L788.3320328354683,172.25338743000617L788.7251758785306,150.33595095613026L790.3819929885788,166.7803249431465L790.7470543857081,171.28863720491802L792.6004430172873,178.56518671806649L793.6675455627419,187.4738824964808L793.9904844909717,196.15465505188288L794.355545888101,194.95707650339705L794.7206072852302,210.54793022405528L795.1137503282924,217.41138883477745L795.8298322995844,217.9614020825284L796.1387304048477,215.68643711258653L796.8548123761396,210.68935629845095L797.5568535244652,212.7427363185362L797.8938332756613,227.5462418963173L799.8033851991066,232.50847691080023L800.1403649503028,219.7506483365472L801.5865697158533,213.98013762725907L801.8954678211165,212.38010033075096L802.1762842804468,224.61080253276407L802.4992232086764,238.23224943429304L803.4399583474326,247.0979093833333L803.7067339837963,239.10541436134108L805.0125305196817,251.52369605200514L805.8128574287728,235.69495115713912L806.1498371799689,224.20396066856534L806.4727761081987,222.1196553379213L806.809755859395,240.05458559566435L807.1607764335575,228.70131188720248L807.4696745388209,233.12920388024637L808.9580017732708,239.17118393517154L810.9096761656157,220.89830070901715L811.2326150938453,244.16171882692518L812.2295135244676,239.75804967295028L812.4682075148983,231.77563601052327L812.7490239742284,230.35179743939327L813.4229834766209,232.51779635471706L813.675718290018,244.06057808454872L814.335636969444,250.53039413316415L814.7428208354728,253.3600438590151L816.5400461751859,252.1278480563002L816.8770259263822,250.45209611008733L817.199964854612,248.78291564162305L817.5931078976741,264.73759585920004L818.6461696201624,276.20321739256957L819.0252718402581,271.7302770873954L821.0050278785359,275.3475987069902L821.6649465579619,268.9720760875898L823.9816823474359,259.1017289831437L826.3967038976757,250.1661955054755" style="fill: none;" fill="none"></path></g></g></g></g><g opacity="0.20000000298023224"><g><g><g><path stroke="rgb(255, 112, 67)" stroke-width="2px" d="M36.333636395152915,95.81349673442202L37.456902232473674,123.5914697679811L38.580168069794425,-17.12010488546281L40.26506682577557,-17.38051965178181L41.38833266309633,149.61481436887766L41.94996558175671,223.67184916084986L42.511598500417094,107.05125200132142L43.073231419077466,-6.7492547059830486L43.634864337737845,217.45868115308843L44.19649725639823,193.20373189728585L44.75813017505861,-92.31027968927475L45.31976309371898,-83.5413161010091L45.88139601237937,87.23823994654725L46.44302893103975,-50.6102646256183L47.00466184970013,-46.68740344805644L48.127927687020886,75.29363394000882L49.25119352434165,187.1250617738482L49.812826443002024,128.87990419436952L50.93609228032279,85.64262121790364L52.62099103630393,102.17933196622033L53.182623954964306,288.6013463933397L53.74425687362468,53.662494035340785L54.305889792285065,-37.258001150137545L54.867522710945444,115.34087333777228L55.9907885482662,189.9895495859461L57.67568730424735,-106.03689871851554L58.23732022290772,248.43136135357202L59.360586060228485,238.41643622719883L59.922218978888864,16.981246072721092L60.483851897549236,-79.64076552950155L61.045484816209616,121.25572093414593L61.60711773487001,67.6098313679546L62.16875065353038,146.5007313151359L63.29201649085114,73.82650639405898L63.85364940951152,249.7574246829814L65.53854816549266,182.84295506836574L66.10018108415304,188.85234292517669L66.66181400281341,245.20550141732426L67.2234469214738,273.00015144236534L67.78507984013417,10.294406736422957L69.46997859611533,-91.54007876722744L70.03161151477569,232.63675807185297L70.59324443343607,116.41849799541689L71.15487735209645,57.03863343845575L71.71651027075684,-36.471085927902436L72.27814318941722,189.91082821675795L72.8397761080776,123.6631771004833L73.40140902673798,-18.363753283812173L73.96304194539836,39.58651628521011L74.52467486405872,268.6934209910705L75.6479407013795,18.317121591749697L76.20957362003988,279.2601418758762L76.77120653870026,-66.37289434648699L77.33283945736063,168.84390786954592L78.4561052946814,-222.739575030752L79.57937113200215,-93.96529387751434L80.14100405066253,32.05732098989313L81.26426988798329,-347.75873494759844L81.82590280664368,101.5282204330112L82.94916864396443,-10.274778167026568L83.5108015626248,106.29716844016946L84.07243448128519,164.5436691330561L84.63406739994556,-39.39795389605831L85.19570031860596,-56.965131097918345L85.75733323726634,203.32244984312888L86.8805990745871,10.88806286273649L87.44223199324746,-8.284358713857443L88.00386491190784,4.587592483458309L88.56549783056823,27.07108708029324L89.68876366788899,-178.53204185186598L91.37366242387013,283.8090431363654L91.93529534253051,46.424679732137236L92.49692826119089,98.00553243360667L93.05856117985127,264.26525070247357L94.18182701717203,127.55313199955035L94.7434599358324,68.1569262294592L95.3050928544928,34.91733175729786L96.98999161047392,49.67083560432735L97.5516245291343,217.5699730224193L99.23652328511545,-44.527527853251L100.92142204109658,144.59522647631374L101.48305495975696,176.58363619155892L102.04468787841735,44.08833395900962L102.60632079707773,228.92942928756122L103.16795371573811,92.05792779356136L104.85285247171923,-23.098526516479296L105.41448539037962,274.39187809394116L105.97611830904,89.91424417706293L106.53775122770038,402.4710980585651L107.09938414636076,194.33750615712384L108.22264998368152,-45.00627316577339L110.46918165832304,-120.55729777185434L112.15408041430418,56.22299051277281L112.71571333296457,53.12301014981455L113.83897917028531,107.12616788252035L114.96224500760607,72.75194105028811L115.52387792626647,202.17923648072946L116.08551084492686,31.000290737837076L116.64714376358724,8.257500635856445L117.2087766822476,32.72283368353192L117.77040960090798,-159.70965055286592L118.89367543822874,168.74977800487216L119.45530835688913,10.216356923938804L120.01694127554951,317.3077465701437L120.57857419420988,78.40756775892748L121.70184003153065,-38.19467351735898L122.82510586885141,-18.63647992303737L123.94837170617217,280.96630629973515L124.51000462483256,-92.08239811439273L125.07163754349293,357.0706563211855L126.19490338081367,-173.16212521206194L126.75653629947406,90.32023751332133L127.87980213679482,168.21749469956072L128.4414350554552,-6.1833562567671265L129.56470089277596,141.57001275973133L130.12633381143633,200.08830737419876L130.68796673009672,75.34758232856143L131.81123256741748,153.34561032910278L132.37286548607787,-163.61587204765146L134.057764242059,126.3206762129339L134.6193971607194,-25.92951111079003L135.18103007937978,139.19456746295003L135.74266299804015,153.88822814591424L136.86592883536088,152.48698777436547L137.42756175402127,10.543106569128156L138.55082759134203,85.47644824237568L139.6740934286628,224.08858740437188L140.23572634732318,137.76683791030004L140.79735926598354,95.95526981637221L141.35899218464394,-139.2370205799656L142.4822580219647,173.75489011959482L143.0438909406251,232.49285839367354L144.72878969660624,80.6486270975023L146.97532137124773,194.77860698551783L147.5369542899081,-72.05717414116259L149.22185304588925,245.51736488890887L149.78348596454964,151.89646557933713L150.9067518018704,263.99349408959847L151.4683847205308,38.991591662900134L152.03001763919116,234.92990036369156L152.59165055785155,115.76067089516795L153.15328347651192,105.20491876986057L154.83818223249304,220.5777635734042L155.39981515115343,73.8241186368893L155.9614480698138,135.8790173980159L156.5230809884742,205.622345010713L158.20797974445534,241.21943929217724L158.7696126631157,96.57877290730681L159.3312455817761,110.41851193246157L159.89287850043647,289.3258068421052L160.45451141909686,-31.44851333887641L161.01614433775723,254.6868747423896L162.139410175078,186.54830649125134L162.70104309373835,251.62823242543152L163.26267601239874,-171.39026015733077L164.3859418497195,144.81146773499356L164.9475747683799,101.05798150540585L165.50920768704026,-19.39086195383561L166.07084060570065,148.24692798029298L166.63247352436102,20.005713615188085L167.1941064430214,291.3023101480198L167.75573936168178,84.02670655331758L168.87900519900256,-25.00604602541341L169.44063811766293,190.42307674706746L170.5639039549837,47.46022016966606L172.8104356296252,68.35473698748552L173.37206854828557,-63.82217274996833L174.49533438560633,389.11312635110056L175.05696730426672,370.16481817010526L175.6186002229271,236.83320398887292L176.18023314158748,19.00807882272801L176.74186606024787,336.4102889408185L177.30349897890824,3.3723733189105474L177.86513189756863,300.58538770188375L178.9883977348894,155.9268504469465L180.6732964908705,55.19155403287937L181.23492940953088,105.17074399536943L181.79656232819127,268.88078531147937L182.35819524685166,-43.96364407414694L183.48146108417242,101.29757801390167L184.59068609852667,177.70315852579037L185.71395193584743,5.744684684406593L186.82317695020168,271.3049930867104L187.94644278752244,43.2841821147058L188.50807570618284,-153.96381139365917L189.0697086248432,270.2860923319578L189.6313415435036,187.2677675734428L190.19297446216396,171.17685855044786L191.31624029948472,90.30576173548013L191.87787321814508,-47.15615002743067L192.98709823249933,30.64749961601575L193.54873115115973,5.218034993667402L194.1103640698201,247.13988319441728L195.23362990714085,102.64897395453323L198.04179450044276,-5.292051275769779L199.16506033776355,237.41816718674056L199.72669325642389,172.83687210526156L200.84995909374464,296.7547909537069L201.41159201240504,98.94116015706635L201.9732249310654,23.417818610671418L202.5348578497258,205.60242216182843L203.0964907683862,-41.70736278361545L203.65812368704655,254.30651248699957L204.20571578274044,-5.4643428790449775L204.7673487014008,20.789420288726376L205.3289816200612,7.646831739708887L205.89061453872156,287.9028528037946L208.10906456743007,29.1576883769539L208.65665666312395,128.5449466339093L209.7799225004447,-27.71256877725415L211.4086579645598,200.67591949017654L213.64114881623482,111.56127759039168L214.18874091192868,429.58639386012436L214.75037383058907,-74.02976003297067L215.31200674924946,233.38099213467996L216.43527258657022,-64.38687732059941L216.99690550523056,67.43067496281645L217.55853842389095,156.03810500757163L218.12017134255132,40.398801427373144L218.6818042612117,104.9389823150866L219.2434371798721,242.6776873661523L220.92833593585323,-38.62148511144062L221.48996885451362,227.31944670719366L222.58515304590136,261.52962716012723L223.6803372372891,225.35193479937118L224.80360307460987,172.17807497866247L225.92686891193063,93.90985733088871L227.05013474925138,84.26287066088202L227.61176766791178,-0.28425293423117637L228.15935976360564,232.42965744608838L228.692911036333,124.73453389555743L229.25454395499338,105.20118789928296L229.80213605068724,63.08480767916217L230.36376896934763,145.50272343561812L230.925401888008,225.48669384463543L231.47299398370188,164.67738353455863L232.58221899805613,84.8007129633541L233.7054848353769,258.2079584674458L234.26711775403726,389.21326291740434L235.37634276839148,154.94936235560567L236.45748613681275,206.5722619684851L237.0050782325066,64.40493892435313L237.5526703282005,225.3503305250228L238.11430324686086,-96.64062655132608L238.67593616552125,74.32868157380892L239.23756908418162,85.07329036775621L239.7851611798755,-81.15229043532526L240.30467162963637,-136.45386574646022L240.8663045482967,254.87229901009817L241.4279374669571,255.07324369940966L241.9895703856175,187.74128966715645L243.09879539997175,104.25227827656681L243.6604283186321,-103.71107400041689L244.76965333298637,-127.07968033309032L245.8929191703071,275.7541308679537L246.44051126600095,45.70738255488078L246.98810336169487,262.6144150892809L247.5497362803552,243.38991055942313L248.1113691990156,146.7391339450469L249.17847174447033,186.38426011195267L249.72606384016424,178.17582251927115L250.8352888545185,149.10734135290753L251.38288095021235,318.33739223215986L251.9304730459062,264.7922361715647L252.4640243186336,274.9596792871517L253.01161641432745,73.39387464187621L254.10680060571516,212.63108386044968L254.66843352437556,123.40037457699455L255.20198479710294,210.10035973022718L255.7495768927968,315.4848805146162L257.3923531798784,230.62197603381188L258.4454149023666,206.10780589027507L259.007047821027,79.72307272460216L260.10223201241473,182.10476501587453L260.6638649310751,246.00334809035184L261.1974162038025,-27.559304613924837L262.32068204112323,154.85235972058712L262.8823149597836,51.72005357780006L263.96345832820487,108.24236974193764L265.0867241655256,58.07790474656224L267.82468464399494,-57.07735568489369L268.38631756265534,172.3923761846419L270.07121631863646,119.5062411028805L270.63284923729685,198.0439022237712L271.1804413329907,-35.18453251791016L271.69995178275155,185.51742964194457L272.2194622325124,162.6861059811566L273.28656477796716,-84.80712587058969L274.35366732342186,224.92400394411627L275.4348106918431,155.2100755915709L276.5580765291638,135.83700779531168L277.63921989758506,91.26138692523597L279.26795536170016,-33.03346177766798L279.82958828036055,12.927356720472687L281.935711725337,233.73833491860597L282.45522217509784,142.54078528403235L283.0028142707917,136.58273420636974L283.5363655435191,130.27398129440923L284.6596313808398,-21.86733922585927L285.1931826535672,290.84927053377737L286.8219181176823,122.20425746980422L287.36951021337615,79.63256180438867L287.9030614861035,145.61188870871973L288.4646944047639,211.5625998357203L290.06534822294594,185.7341186050937L290.61294031863986,-39.90453150308991L291.68004286409456,171.50069811658673L292.21359413682194,217.6527237318313L292.7471454095493,-54.183617847467076L293.26665585931016,55.85564899569874L293.814247955004,88.52874807935177L294.3758808736644,206.73362212096785L294.9234729693583,94.36890364676105L295.42894259615264,318.8332995493393L295.990575514813,257.67175774802786L296.5381676105069,238.5342571200406L297.05767806026773,123.59788686537465L297.59122933299506,390.1099030433278L298.15286225165545,96.90932804048543L298.65833187844976,64.42120552007162L299.1778423282106,-47.978657754976496L300.8065777923257,259.13526634951734L301.3120474191201,312.20787034274906L303.46029333299606,2.4800236941513845L304.0078854286899,247.81255915956518L306.15613134256586,158.55398027289513L307.78486680668095,23.02906189648172L308.3043772564418,46.55652869835086L309.329357332997,64.55200984252355L309.82078613682484,121.47226066247191L311.43548077797345,26.3046170288236L311.99711369663385,-181.8257290152152L312.5587466152942,-74.924572032311L314.2155637253423,148.92721492141925L314.7631558210362,270.3324670532378L315.8302583664909,90.7105611931537L317.97850428036685,253.20135400449203L318.4980147301277,329.34513932794795L319.53703562964944,230.41532311251657L320.59009735213766,5.0590252896485595L321.123648624865,147.01447219367648L321.6431590746258,214.45174870233637L322.1907511703197,66.99893861957236L322.72430244304707,33.532357981467555L323.28593536170746,242.61459834468448L324.3951603760617,-69.20514743679405L324.95679329472205,329.0797251950549L325.50438539041596,155.28320065489262L326.0379366631433,182.1930747224472L326.57148793587066,-156.83964105231314L327.0909983856315,82.48085763817966L327.61050883539235,-1.3382238724134936L329.67450981146925,133.47118814462075L330.1940202612301,130.10579364876938L330.71353071099094,135.8899115401026L333.8727158784556,252.7418972928561L334.95385924687685,-63.207698365831504L335.4733696966377,74.84324324387654L336.00692096936507,274.01218739525507L336.5685538880254,309.12348501880524L337.1021051607528,63.66540575845397L337.63565643348016,233.62316294387435L338.183248529174,238.21224568048476L338.71679980190135,306.15143620795413L339.2363102516622,318.27284817116674L339.7839023473561,267.3392642062115L340.3174536200834,87.5456636821445L340.8650457157773,183.82540521757477L341.3985969885047,167.63570274168404L341.91810743826557,219.7785364782629L342.47974035692596,148.23767542126043L342.9992508066868,27.817485048055232L343.5328020794141,241.19347243295687L344.61394544783536,163.49111592569324L345.1615375435292,154.4786011061195L345.70912963922314,187.61984982985436L346.7621913617113,223.84343189871538L347.829293907166,223.71120984544393L348.89639645262076,-178.7873826341994L349.4580293712811,69.22358212760554L350.9884790746307,24.49119007585756L351.53607117032453,113.72048162849313L352.08366326601845,161.77308733339737L353.12268416554014,219.0888104345752L353.65623543826746,71.20504749138837L354.2038275339613,74.51552357233692L355.242848433483,26.225373337754604L356.26782851003827,205.51597789054458L356.7732981368326,41.16019749485724L357.2928085865934,33.58078468156526L358.34587030908165,89.44213981416874L358.8372991129095,150.08856031482597L359.9184424813307,186.72347086487142L360.4239121081251,-84.60931511256337L360.9434225578859,399.4675980087445L361.4910146535798,186.09246872407573L362.03860674927364,415.60324016996526L362.572158022001,251.96695816517516L363.09166847176186,8.516721523590604L364.1728118401831,227.17994945629582L364.6782814669774,241.4273980181747L365.2118327397048,-12.254900417401473L366.8124865578869,261.86077923259825L367.3039153617147,162.92484438941958L367.80938498850907,237.93709397538404L369.4240796296576,65.71783228062344L370.44905970621284,-36.03748414936945L370.9685701559737,236.20753699300326L371.4880806057346,304.21011501158665L372.4990198593232,-7.845011394634923L373.0325711320506,424.85803772485076L373.56612240477796,129.70659049696224L374.0996736775053,181.02288716577146L374.6191841272661,14.069823908756575L375.63012338085485,235.3924163892012L376.72530757224257,125.43063972793288L377.7783692947308,174.50307890523408L378.3119205674582,122.00801367742056L378.831431017219,21.83204938035277L380.41804401243456,166.74186076869387L382.56628992631056,123.32031009439848L383.0858003760714,155.61233805725172L383.5912700028657,327.113108696171L384.0967396296601,53.61667894464739L384.6022092564544,0.48393331770421355L385.6412301559761,235.515572426969L386.6521694095648,20.45356731932759L388.1685782899478,-14.401046408481193L388.67404791674215,119.24537863209218L389.7832729310964,98.64627214660999L390.83633465358463,316.564295990138L391.3558451033455,66.8662688618316L392.942458098561,187.68812476142514L393.9393565291832,-107.51007027480114L394.9362549598054,-106.64189669138517L395.4417245865997,70.2107704824482L396.4526638401884,240.97861159639078L396.97217428994924,-50.0881665969838L397.47764391674366,74.62968821201264L398.011195189471,160.46422331735084L398.5307056392318,90.97784076133559L399.02213444305966,263.63659901014177L399.4854816009545,264.49160262041875L400.0190328736818,258.81116562243807L400.5385433234427,121.63709052459188L401.0720945961701,113.28426824055583L402.6306259454526,346.8893343670497L403.15013639521345,126.72137171297206L404.2031981177016,243.0443946352282L405.18605572535733,98.5066629695948L406.23911744784556,277.31288859529025L406.7586278976064,65.19304802517308L407.2921791703337,301.8186269713216L407.7976487971281,7.445215493693411L408.31715924688893,248.56071063649867L408.85071051961626,210.687300289501L409.37022096937716,203.8439882411767L409.8756905961715,229.15287112645586L410.9147114956932,119.32738316738863L411.4201811224875,310.19062593012666L412.47324284497574,228.53466587174148L413.00679411770307,119.5681735544693L413.54034539043045,281.59995735864095L414.56532546698566,223.17982194907114L415.09887673971303,170.42094686271292L416.0957751703352,229.895239753994L416.5731631511965,131.2406498610749L417.13479606985686,342.89047535582137L417.6402656966513,248.70640113255538L418.1457353234456,104.19012197274338L418.66524577320644,241.76660877109342L419.1847562229673,-21.269280672264017L419.71830749569466,340.95053458156764L420.2378179454555,351.80240590462205L420.75732839521635,311.5857103652223L421.2347163760777,9.672097524073138L422.6809211416281,170.59282807022464L423.76206451004936,220.97234044569507L424.7449221177051,307.7328030109912L426.28941264402107,128.13902791506243L426.8089230937819,121.53337232253364L427.28631107464327,166.43760827308762L427.7636990555046,31.60200554459834L428.2551278593324,397.0544709191291L429.3081895818206,184.97544607313128L429.841740854548,50.415517371623594L430.3752921272754,161.7594323470832L430.90884340000275,178.22309264948981L431.3441089119645,169.6145938047683L431.84957853875886,-46.34640187726046L432.34100734258664,186.24804602716318L432.84647696938106,155.842682006715L434.8121921846923,256.40676876997435L435.31766181148674,39.29558299756599L436.32860106507536,229.03829609101666L437.311458672731,216.114933497141L437.8450099454584,110.15257547768766L438.88403084498015,224.89266463126413L439.431622940674,297.7151916578021L439.9090109215353,132.4391547254349L440.3583172564636,230.0044796445072L440.89186852919096,303.49990648842777L441.3832973330188,307.49734776883656L442.84354292153574,161.05634978672757L443.33497172536363,166.04888886760364L443.8544821751245,198.59871998737157L447.36468791675185,179.6314216751361L447.87015754354616,156.935080911847L449.3444439550297,277.3838497536769L450.8187303665132,236.68195449565553L451.32419999330756,-34.38314151783379L451.82966962010187,201.61665850632764L453.3179968545519,68.13991345962518L454.3710585770401,330.5279372271761L454.89056902680096,311.2407167629083L455.39603865359527,183.46056338378773L456.9545700028778,304.0593878402501L457.4459988067057,232.66317263554265L457.9374276105335,206.82047678801524L458.45693806029436,3.8203762578731357L458.9764485100552,276.28533222079756L459.4538364909165,267.69056297980177L459.9593061177108,-20.956708335269695L460.4788165674717,-61.96830315994066L462.43049095981655,275.3145596964965L462.93596058661086,174.67238581204722L463.96094066316607,-43.63950603836196L464.52257358182646,133.69623425786378L465.0140023856543,2.1062650796837943L465.9547375244104,119.234559107417L466.44616632823823,-27.771964236850124L466.9516359550326,186.8865472178199L467.9485343856548,127.88241863673261L468.51016730431513,0.009291962817314925L469.0156369311095,253.1409139011343L469.5211065579038,285.78166633687925L470.04061700766465,168.33095047382665L470.5320458114925,124.20004937660522L471.0234746153203,247.5367358977605L472.0484546918756,253.01044535703437L474.0141699071869,219.2240918017203L474.47751706508166,8.746543151173057L475.9939259454647,132.7082997289056L476.49939557225906,105.82491484245224L476.9908243760869,311.3286160737174L477.4962940028812,223.56406430986192L478.4229883186709,139.67480512370344L479.44796839522604,285.86057424959625L479.9674788449869,346.7987115207189L480.4308260028817,114.80153868706913L480.92225480670953,326.5549331490508L481.4417652564704,186.86860173034145L481.9612757062312,298.8865730930627L483.32323553398265,127.14728789811505L483.85678680671,145.5920404772467L485.373195687093,327.46556403964036L485.83654284498783,120.5146954200157L486.83344127560997,102.45004393533367L488.32176851006005,162.88205130389406L490.28748372537143,239.43921708735212L491.186096395228,238.03752901133402L491.64944355312275,299.43799576443735L492.0987498880511,118.29273813879843L492.54805622297937,175.95789457827772L493.0675666727402,114.55813669058409L494.07850592632894,236.20705197982815L494.55589390719024,90.2665129770034L495.0754043569511,285.7137644923663L496.0442211416403,154.91608299005316L496.5496907684346,283.1739370379343L497.53254837609023,29.11008246838327L499.41401865360257,116.90552584062152L500.9163867110191,121.95481146298349L501.40781551484685,204.2694567218504L501.91328514164127,362.04894347645495L503.35948990719163,295.60213848874605L503.80879624212,97.29435388409757L504.81973549570864,11.853836020463518L505.3392459454695,78.20162370304195L506.27998108422565,187.92887783980004L506.74332824212047,142.6383102409318L507.1926345770488,168.6178171125411L508.21761465360396,282.89800185001235L509.1021865004941,236.03438728949513L510.52030962011156,460.77147252259283L510.9696159550399,211.28744813061962L511.95247356269545,293.6905896395881L512.4439023665234,204.6627277894391L512.9634128162842,290.39115693554936L513.398678328246,208.4358318220146L514.4236584048012,309.389458782285L514.971250500495,309.13654306582697L515.4907609502559,171.30090999715432L515.9962305770503,257.4515244578299L516.9510065387728,204.98813432122054L517.891741677529,161.74462079089L518.8886401081512,63.91686643538668L519.323905620113,253.36234106991705L519.7732119550413,27.636090120570543L520.7701103856634,292.290244676978L521.2334575435583,119.78807106631518L523.0306828832715,166.87747791419096L523.5501933330323,304.30084978403477L524.0135404909272,220.49963914350852L524.5470917636545,364.5204959993161L525.0666022134153,84.28988216386409L525.993296529205,164.8076655351297L526.4847253330328,290.3378801037007L527.4675829406885,309.5135102289914L527.9449709215498,179.61970674152232L528.3802364335115,296.8944374394278L528.857624414373,41.70259145943402L529.3350123952343,199.5271844393222L529.8404820220286,148.07090550644006L530.3319108258564,28.299215057039703L530.7812171607848,337.51992446801916L532.7048099071966,45.81505547975138L533.5753409311201,220.7612104797066L534.5020352469097,73.46050799039284L534.9513415818382,251.49877121638752L535.3725662708334,103.33008168718658L536.3133014095895,61.504410902475286L536.8187710363839,288.8617611596587L537.731424529207,149.60362175714477L539.1916701177239,227.0887296706726L539.6971397445183,240.29034059222838L540.1745277253796,219.08455724211672L540.6940381751405,177.24649996708766L541.1293036871022,158.35314750970093L542.1121612947579,328.84389686584245L542.6316717445187,36.29036674727962L545.5521629215527,321.1023777259522L546.0014692564811,69.57353778778781L546.9000819263376,-1.9573245360664941L547.3915107301655,372.9414812888056L547.8688987110268,204.23106606360653L548.2620417540891,-115.83520949915118L548.7534705579169,322.89207634204445L549.2168177158118,212.42275204739445L549.722287342606,130.31487163594014L550.6489816583957,281.51899746710626L551.0702063473909,283.25138991112607L551.5616351512188,247.2608007098385L552.0671047780131,331.1186832744391L552.8955133330372,423.2021281276725L553.358860490932,219.5009970159925L553.7660443569607,70.15950832071144L554.2995956296882,5.488970815015364L554.7489019646165,241.15769338411735L555.2403307684442,304.36326724879865L557.5570665579183,323.17107084384014L558.9190263856698,151.24147394072727L559.8457207014594,256.4896687142094L560.3371495052872,156.1142147673554L560.7864558402156,229.45275850348628L561.2217213521774,327.0879626284777L562.6258036488283,273.3096644654861L563.5665387875845,401.8310672109715L564.8442536775368,183.94815085957902L565.3356824813646,185.18523292571183L566.7397647780156,264.6316221931975L567.1609894670108,187.95335235078932L569.0565005674896,247.3590345321477L569.5760110172505,191.41496599883794L570.8677667301694,296.7211011923908L571.3451547110307,323.6259012759598L571.8365835148585,277.4357461634118L572.6509512469161,-73.29171921530258L573.9707886057679,177.05499438033755L574.8694012756246,208.14672666095353L575.3327484335193,320.27501986665544L575.7820547684477,268.68036294404874L576.2173202804095,394.4656944427186L576.6947082612708,319.5995830572801L577.1299737732326,187.07409808175768L577.5652392851944,43.082565868690324L577.9303006823236,135.55868485022L578.8008317062472,180.50978053522908L579.2080155722759,41.766314728900056L580.9771592660561,214.92489770899226L581.8617311129462,117.16206050153983L582.3531599167742,282.8929651747325L583.3079358784968,258.3506642670404L584.6698957062482,345.459552835582L585.0911203952435,376.1672666076418L585.5544675531382,149.45878936132092L585.9897330651002,244.16235000381704L588.3485913234737,-45.74237393074111L588.8259793043351,13.350810531034483L589.2752856392633,313.69742042087046L589.6965103282586,284.6653152426388L591.05847015601,-8.65170023093151L591.8447562421346,161.03948625171665L592.2659809311299,230.6263411523877L592.7152872660581,305.4328705347013L593.122471132087,275.18278534769433L594.5546350746708,-25.271012453837102L595.495370213427,224.45913747014274L596.3939828832836,342.66860048256933L597.2364322612742,177.15949606521716L597.671697773236,216.06117165211728L599.0617392469204,236.9238641439095L599.98843356271,170.21116001013243L600.4517807206049,106.73599343751113L600.8449237636671,155.34378999307341L602.192842768452,262.3005742562901L603.1195370842416,347.2593248022339L604.0602722229978,391.81565707142323L605.4222320507492,413.4046008298582L605.885579208644,308.3076928582992L606.3348855435723,155.98393276678433L606.7701510555341,240.06380213075428L607.6687637253907,379.3834262803877L608.0899884143861,370.79346986243706L609.4098257732379,284.9531519077035L611.6282758019464,277.03799805113L612.5690109407026,296.40722305069426L613.0042764526644,229.23480104434077L613.4395419646262,321.29056283788816L614.2539096966836,457.14118621572925L615.1384815435738,292.20644932380424L616.7531761847224,198.3859857470347L618.0308910746747,207.61959195703923L618.4661565866364,240.5040448589154L618.8873812756318,88.07813353098481L619.3647692564932,29.954975419394884L619.8421572373545,246.35681076887712L620.6986474383116,311.10021217695447L621.456851878503,28.868695142010154L622.2993012564937,148.6046438512768L623.605097792379,352.3024544881427L624.9389759741974,100.56304421457662L625.2759557253937,324.99964513135143L628.4772633617579,297.25319795417334L628.9546513426192,80.52364293315145L629.3477943856814,172.96995225876583L630.2323662325715,227.49677498574874L631.8470608737201,387.12878821697296L632.7877960124762,154.89481702776064L633.2651839933376,225.43386471725609L634.1076333713281,232.73775273838962L634.9781643952517,250.41823647969238L638.0109821560177,134.3783120168673L638.4883701368791,295.57822360834336L639.3589011608027,209.45204634995125L639.8784116105635,119.19016174754313L640.2996362995588,274.43754394981147L640.7770242804202,338.3477300317852L641.7037185962098,274.87293654622164L642.153024931138,334.032381269456L642.9252701942961,135.27118396350733L643.4026581751574,35.998538050696936L644.3153116679805,149.19262905431233L644.7786588258754,204.15730675228664L645.2279651608036,204.60053417690986L645.7474756105645,259.6998963027369L646.5758841655886,288.1955022919044L648.1484563378376,414.68007355423487L648.5696810268329,89.41938150364518L649.4402120507565,169.79643643672233L650.3247838976465,73.7593507236615L650.7460085866419,343.94478207235574L651.8833152469291,105.18216045933701L652.2062541751588,-5.504337811637242L653.5962956488434,191.9362805446511L654.5510716105659,146.62586471430984L655.8849497923843,-52.21685211376018L656.7133583474084,191.2060372464903L657.1065013904706,349.9124961048144L657.9910732373608,164.67197377222104L659.5496045866433,231.62725911095606L660.3780131416673,254.85274924827132L661.5153198019547,-69.95415701396041L662.6947489311414,157.1931825384079L663.481035017266,255.92335986922996L663.8882188832948,115.54457887131127L664.7166274383188,243.31439773893177L665.9241382134387,104.21086561315508L666.3594037254004,372.48355423410646L668.3812822325779,66.62682158815886L668.8025069215731,268.1544221187193L669.2658540794679,108.48226472007968L672.0318962038702,181.54491057699437L672.8181822899949,186.30087515454252L673.983570596215,384.4148783413885L674.8821832660716,339.87544691591586L675.275326309134,20.71375823341191L676.047571572292,-100.35351433277856L676.8900209502825,413.08676796534934L677.3252864622443,112.76933348343044L677.7324703282732,149.35536962890882L678.4485522995651,60.48909178347725L678.91189945746,103.81211016581727L679.8105121273165,275.6047095013193L680.2879001081778,121.20542879875933L680.6529615053071,107.96315138790737L682.2536153234892,211.41239498626467L683.1101055244462,305.53920034616397L683.8402283187047,218.01730440467796L685.7919027110496,451.4636592967991L686.5360663282745,124.64312756640533L686.8870869024373,176.38955630411027L687.7997403952604,225.61343151815774L688.586026481385,36.39057793099499L690.1866802995671,281.3933044373457L691.0010480316246,190.06953945113062L691.4643951895195,319.2688413805726L692.2787629215769,-85.80834229880423L692.6578651416727,164.567882483105L693.0229265388019,136.59094212164052L693.5143553426298,5.781694920536722L693.907498385692,314.1510942831111L694.3146822517208,-14.674743074056664L695.0307642230127,103.82919755306278L695.3958256201421,123.38545109468402L695.7187645483718,59.04964729721348L696.111907591434,268.5222859576743L696.884152854592,13.497956066616439L698.0074186919128,173.43959424707873L698.7094598402383,7.469018447978669L699.1026028833005,310.3837730999309L699.4676642804297,353.2872550858157L700.6611342325831,152.06234008521886L701.4474203187076,215.28500133714573L703.9888092756458,138.71529982854685L706.6565656392826,252.33575472177455L707.6534640699049,339.47355753729283L708.0325662900007,233.40453392802485L708.4959134478954,355.4120978058971L708.8609748450247,301.0886075253954L710.0123223282785,331.9625688903947L710.7424451225369,296.8778350653573L711.1496289885657,192.54907603702793L711.5427720316279,367.2982783791897L711.9218742517237,119.83910937581726L712.7362419837813,297.16809679629745L713.1715074957431,133.38813896556255L714.6457939072266,141.72200842706422L715.4601616392841,248.46016367443136L715.8111822134468,306.5586234227974L716.2324069024421,152.4072217614156L716.5974682995713,268.8945149152051L716.948488873734,422.1530073212411L717.2714278019638,149.14793322479224L717.6786116679926,200.8103427570888L718.0577138880884,303.6270545577136L718.9142040890455,24.02871135905366L719.2933063091411,265.05929188751196L720.0936332182323,307.99635170859545L720.472735438328,112.58659544253777L721.6100420986153,191.01087540657412L722.8877569885676,237.03355173889202L723.2949408545965,123.70697752106472L723.6880838976587,296.54627259712277L724.1233494096205,131.50830251631456L724.8675130268455,0.7894170006011336L725.2746968928743,81.62439898837738L726.6647383665587,363.21622095408014L727.9003307876114,265.63108511224056L728.9533925100998,23.63920847074843L729.7115969502913,149.2592624028289L730.891026079478,463.51888561596445L731.5369039359374,241.1179596124655L731.9160061560332,169.2640038965878L732.5618840124927,182.44953476595393L732.9831087014879,269.19802123669587L733.3622109215837,360.4828359340804L733.7553539646459,368.7626823896179L734.1484970077083,319.65435223735983L734.8926606249332,4.839351630037299L735.243681199096,267.319826370502L735.5947017732586,366.83408346192016L735.8755182325889,269.0715820328197L736.5213960890484,374.9398848050109L737.6446619263692,123.13630355750945L738.0237641464649,43.20113293564759L738.3467030746946,316.461697049253L739.3716831512497,357.0135740013476L739.9894793617761,194.87419188971688L740.3826224048385,261.51130858559105L740.7055613330682,120.01259485767736L741.0565819072309,289.0975148714596L742.8538072469441,189.79065687545227L744.3561753043607,394.7661414503357L744.7493183474229,209.6695187959217L745.1003389215857,323.1384257262858L745.4513594957484,188.67777549084903L746.1393598211074,318.9461956930186L746.4622987493372,280.02579113581874L746.8554417923993,203.6825161625766L747.5996054096244,228.57342961704313L748.3297282038828,158.85394226733712L748.7088304239786,279.59968840714686L749.0879326440744,282.47253336933863L749.7478513235003,229.26002172944558L750.4920149407253,389.3222043382713L750.8009130459884,206.72884660662848L751.1519336201512,183.61420063417478L752.3454035723046,419.3371700614756L752.9491589598645,224.22539842845381L753.3282611799602,249.63404479297895L754.0022206823527,236.06322691906027L755.5747928546018,335.5875946697438L755.9398542517309,94.63095999613432L756.6418954000565,122.6035352390229L757.343936548382,350.58890294054L757.9898144048414,272.6135959418164L760.1801827876168,222.9236230665048L762.033571419196,235.58321311054155L762.4126736392918,246.81145465746795L763.1006739646508,84.89585016308388L764.4766746153688,384.6066077803733L764.813654366565,147.35965233951944L765.4454914000579,234.29863706195545L765.8105527971871,174.16700208360058L766.8214920507759,-66.60204441736539L767.5516148450344,268.5433653764379L767.9447578880967,82.95490205377416L768.3238601081924,347.47187249904187L769.0399420794844,327.4479916392197L771.3005145770924,202.27209784940683L771.6094126823556,144.77587522968292L772.2693313617815,328.41589139317597L773.3645155531692,55.4277181404438L773.687454481399,104.82399688388386L775.1477000699159,50.66033709892815L776.636027304366,249.42325060534247L777.0432111703947,251.36979502051867L777.7031298498207,194.96026307394297L778.1103137158495,343.2737103815562L778.4051709981462,306.3109309251481L779.472273543601,207.9116818145624L779.8794574096296,139.3870803847561L780.8903966632184,53.790015191684404L781.241417237381,114.6630487712273L781.6907235723095,180.94953825021514L782.6876220029316,-0.3769277593796687L783.0667242230273,76.83582660198073L783.4317856201566,145.03614076117887L785.1588068450372,170.6949419979346L785.5519498880994,152.47960065062173L785.8327663474297,332.7886955624008L786.4926850268556,194.0505649009978L787.5878692182434,232.4016759167561L787.9108081464731,192.0999911455978L788.3320328354683,71.75870868510964L788.7251758785306,-42.62344074524839L790.3819929885788,311.5553037700146L790.7470543857081,210.9794647644357L792.6004430172873,242.62735792205999L793.6675455627419,265.9053414084026L793.9904844909717,272.5794957847369L794.355545888101,184.41368889025654L794.7206072852302,347.80858356867355L795.1137503282924,277.8367401330962L795.8298322995844,222.8036755774338L796.1387304048477,195.6578239458437L796.8548123761396,166.69544873870805L797.5568535244652,230.82053296595367L797.8938332756613,357.87514394384124L799.8033851991066,276.19560478340543L800.1403649503028,107.43172618282875L801.5865697158533,163.17701393176205L801.8954678211165,198.2934974654151L802.1762842804468,332.28894544852636L802.4992232086764,358.15439960657733L803.4399583474326,325.1504842288053L803.7067339837963,168.74011505007607L805.0125305196817,360.8532740737339L805.8128574287728,96.33992257292653L806.1498371799689,123.0381816613176L806.4727761081987,203.76959468185865L806.809755859395,397.95230492363737L807.1607764335575,128.74798061074426L807.4696745388209,272.112017701359L808.9580017732708,292.36430245794406L810.9096761656157,60.02526995326542L811.2326150938453,448.9710273551743L812.2295135244676,200.98849182717095L812.4682075148983,161.4990921981757L812.7490239742284,217.816434332778L813.4229834766209,251.58708092296018L813.675718290018,345.6823231177727L814.335636969444,307.4901471886217L814.7428208354728,278.2720581120949L816.5400461751859,241.27969285200606L816.8770259263822,235.69890740715405L817.199964854612,234.08758171337854L817.5931078976741,405.2013491472796L818.6461696201624,377.14565010792126L819.0252718402581,232.35086145948867L821.0050278785359,307.19421453440356L821.6649465579619,212.84247498737858L823.9816823474359,172.20396722047127L826.3967038976757,171.4984595942402" style="fill: none;" fill="none"></path></g></g></g></g></g></g><g transform="translate(68, 377)" clip-path="url(#clip_1)"><clipPath id="clip_1"><rect width="960" height="22"></rect></clipPath><g><g><line x1="35.75796265352602" y1="0" x2="35.75796265352602" y2="5" style="visibility: inherit;" fill="rgb(0, 0, 0)" stroke="rgb(204, 204, 204)" stroke-width="1px"></line><line x1="105.96207748607348" y1="0" x2="105.96207748607348" y2="5" style="visibility: inherit;" fill="rgb(0, 0, 0)" stroke="rgb(204, 204, 204)" stroke-width="1px"></line><line x1="176.16619231862097" y1="0" x2="176.16619231862097" y2="5" style="visibility: inherit;" fill="rgb(0, 0, 0)" stroke="rgb(204, 204, 204)" stroke-width="1px"></line><line x1="246.37030715116842" y1="0" x2="246.37030715116842" y2="5" style="visibility: inherit;" fill="rgb(0, 0, 0)" stroke="rgb(204, 204, 204)" stroke-width="1px"></line><line x1="316.57442198371587" y1="0" x2="316.57442198371587" y2="5" style="visibility: inherit;" fill="rgb(0, 0, 0)" stroke="rgb(204, 204, 204)" stroke-width="1px"></line><line x1="386.77853681626334" y1="0" x2="386.77853681626334" y2="5" style="visibility: inherit;" fill="rgb(0, 0, 0)" stroke="rgb(204, 204, 204)" stroke-width="1px"></line><line x1="456.9826516488108" y1="0" x2="456.9826516488108" y2="5" style="visibility: inherit;" fill="rgb(0, 0, 0)" stroke="rgb(204, 204, 204)" stroke-width="1px"></line><line x1="527.1867664813583" y1="0" x2="527.1867664813583" y2="5" style="visibility: inherit;" fill="rgb(0, 0, 0)" stroke="rgb(204, 204, 204)" stroke-width="1px"></line><line x1="597.3908813139058" y1="0" x2="597.3908813139058" y2="5" style="visibility: inherit;" fill="rgb(0, 0, 0)" stroke="rgb(204, 204, 204)" stroke-width="1px"></line><line x1="667.5949961464532" y1="0" x2="667.5949961464532" y2="5" style="visibility: inherit;" fill="rgb(0, 0, 0)" stroke="rgb(204, 204, 204)" stroke-width="1px"></line><line x1="737.7991109790007" y1="0" x2="737.7991109790007" y2="5" style="visibility: inherit;" fill="rgb(0, 0, 0)" stroke="rgb(204, 204, 204)" stroke-width="1px"></line><line x1="808.0032258115482" y1="0" x2="808.0032258115482" y2="5" style="visibility: inherit;" fill="rgb(0, 0, 0)" stroke="rgb(204, 204, 204)" stroke-width="1px"></line><line x1="878.2073406440957" y1="0" x2="878.2073406440957" y2="5" style="visibility: inherit;" fill="rgb(0, 0, 0)" stroke="rgb(204, 204, 204)" stroke-width="1px"></line><line x1="948.411455476643" y1="0" x2="948.411455476643" y2="5" style="visibility: inherit;" fill="rgb(0, 0, 0)" stroke="rgb(204, 204, 204)" stroke-width="1px"></line></g><g transform="translate(0, 8)"><text x="35.75796265352602" y="0" dx="0em" dy="0.95em" style="text-anchor: middle; visibility: inherit; font-family: &quot;Helvetica Neue&quot;, sans-serif; font-size: 12px; font-weight: 200;" fill="rgb(50, 49, 63)" stroke="none" stroke-width="1px">0</text><text x="105.96207748607348" y="0" dx="0em" dy="0.95em" style="text-anchor: middle; visibility: inherit; font-family: &quot;Helvetica Neue&quot;, sans-serif; font-size: 12px; font-weight: 200;" fill="rgb(50, 49, 63)" stroke="none" stroke-width="1px">5k</text><text x="176.16619231862097" y="0" dx="0em" dy="0.95em" style="text-anchor: middle; visibility: inherit; font-family: &quot;Helvetica Neue&quot;, sans-serif; font-size: 12px; font-weight: 200;" fill="rgb(50, 49, 63)" stroke="none" stroke-width="1px">10k</text><text x="246.37030715116842" y="0" dx="0em" dy="0.95em" style="text-anchor: middle; visibility: inherit; font-family: &quot;Helvetica Neue&quot;, sans-serif; font-size: 12px; font-weight: 200;" fill="rgb(50, 49, 63)" stroke="none" stroke-width="1px">15k</text><text x="316.57442198371587" y="0" dx="0em" dy="0.95em" style="text-anchor: middle; visibility: inherit; font-family: &quot;Helvetica Neue&quot;, sans-serif; font-size: 12px; font-weight: 200;" fill="rgb(50, 49, 63)" stroke="none" stroke-width="1px">20k</text><text x="386.77853681626334" y="0" dx="0em" dy="0.95em" style="text-anchor: middle; visibility: inherit; font-family: &quot;Helvetica Neue&quot;, sans-serif; font-size: 12px; font-weight: 200;" fill="rgb(50, 49, 63)" stroke="none" stroke-width="1px">25k</text><text x="456.9826516488108" y="0" dx="0em" dy="0.95em" style="text-anchor: middle; visibility: inherit; font-family: &quot;Helvetica Neue&quot;, sans-serif; font-size: 12px; font-weight: 200;" fill="rgb(50, 49, 63)" stroke="none" stroke-width="1px">30k</text><text x="527.1867664813583" y="0" dx="0em" dy="0.95em" style="text-anchor: middle; visibility: inherit; font-family: &quot;Helvetica Neue&quot;, sans-serif; font-size: 12px; font-weight: 200;" fill="rgb(50, 49, 63)" stroke="none" stroke-width="1px">35k</text><text x="597.3908813139058" y="0" dx="0em" dy="0.95em" style="text-anchor: middle; visibility: inherit; font-family: &quot;Helvetica Neue&quot;, sans-serif; font-size: 12px; font-weight: 200;" fill="rgb(50, 49, 63)" stroke="none" stroke-width="1px">40k</text><text x="667.5949961464532" y="0" dx="0em" dy="0.95em" style="text-anchor: middle; visibility: inherit; font-family: &quot;Helvetica Neue&quot;, sans-serif; font-size: 12px; font-weight: 200;" fill="rgb(50, 49, 63)" stroke="none" stroke-width="1px">45k</text><text x="737.7991109790007" y="0" dx="0em" dy="0.95em" style="text-anchor: middle; visibility: inherit; font-family: &quot;Helvetica Neue&quot;, sans-serif; font-size: 12px; font-weight: 200;" fill="rgb(50, 49, 63)" stroke="none" stroke-width="1px">50k</text><text x="808.0032258115482" y="0" dx="0em" dy="0.95em" style="text-anchor: middle; visibility: inherit; font-family: &quot;Helvetica Neue&quot;, sans-serif; font-size: 12px; font-weight: 200;" fill="rgb(50, 49, 63)" stroke="none" stroke-width="1px">55k</text><text x="878.2073406440957" y="0" dx="0em" dy="0.95em" style="text-anchor: middle; visibility: inherit; font-family: &quot;Helvetica Neue&quot;, sans-serif; font-size: 12px; font-weight: 200;" fill="rgb(50, 49, 63)" stroke="none" stroke-width="1px">60k</text><text x="948.411455476643" y="0" dx="0em" dy="0.95em" style="text-anchor: middle; visibility: inherit; font-family: &quot;Helvetica Neue&quot;, sans-serif; font-size: 12px; font-weight: 200;" fill="rgb(50, 49, 63)" stroke="none" stroke-width="1px">65k</text></g><line x1="0" y1="0" x2="960.6875" y2="0" fill="rgb(0, 0, 0)" stroke="rgb(204, 204, 204)" stroke-width="1px"></line></g></g></g></g></svg>