<svg viewBox="0 0 1029 400" xmlns="http://www.w3.org/2000/svg"><g><g><g><g><g><line x1="68.3125" y1="377.828125" x2="63.3125" y2="377.828125" style="visibility: inherit;" fill="rgb(0, 0, 0)" stroke="rgb(204, 204, 204)" stroke-width="1px"></line><line x1="68.3125" y1="335.8472222222222" x2="63.3125" y2="335.8472222222222" style="visibility: inherit;" fill="rgb(0, 0, 0)" stroke="rgb(204, 204, 204)" stroke-width="1px"></line><line x1="68.3125" y1="293.8663194444444" x2="63.3125" y2="293.8663194444444" style="visibility: inherit;" fill="rgb(0, 0, 0)" stroke="rgb(204, 204, 204)" stroke-width="1px"></line><line x1="68.3125" y1="251.88541666666669" x2="63.3125" y2="251.88541666666669" style="visibility: inherit;" fill="rgb(0, 0, 0)" stroke="rgb(204, 204, 204)" stroke-width="1px"></line><line x1="68.3125" y1="209.90451388888889" x2="63.3125" y2="209.90451388888889" style="visibility: inherit;" fill="rgb(0, 0, 0)" stroke="rgb(204, 204, 204)" stroke-width="1px"></line><line x1="68.3125" y1="167.92361111111111" x2="63.3125" y2="167.92361111111111" style="visibility: inherit;" fill="rgb(0, 0, 0)" stroke="rgb(204, 204, 204)" stroke-width="1px"></line><line x1="68.3125" y1="125.94270833333331" x2="63.3125" y2="125.94270833333331" style="visibility: inherit;" fill="rgb(0, 0, 0)" stroke="rgb(204, 204, 204)" stroke-width="1px"></line><line x1="68.3125" y1="83.9618055555556" x2="63.3125" y2="83.9618055555556" style="visibility: inherit;" fill="rgb(0, 0, 0)" stroke="rgb(204, 204, 204)" stroke-width="1px"></line><line x1="68.3125" y1="41.980902777777715" x2="63.3125" y2="41.980902777777715" style="visibility: inherit;" fill="rgb(0, 0, 0)" stroke="rgb(204, 204, 204)" stroke-width="1px"></line><line x1="68.3125" y1="0" x2="63.3125" y2="0" style="visibility: inherit;" fill="rgb(0, 0, 0)" stroke="rgb(204, 204, 204)" stroke-width="1px"></line></g><g transform="translate(58.3125, 0)"><text x="0" y="377.828125" dx="0em" dy="0.3em" style="text-anchor: end; visibility: hidden; font-family: &quot;Helvetica Neue&quot;, sans-serif; font-size: 12px; font-weight: 200;" fill="rgb(50, 49, 63)" stroke="none" stroke-width="1px">1.4e-3</text><text x="0" y="335.8472222222222" dx="0em" dy="0.3em" style="text-anchor: end; visibility: inherit; font-family: &quot;Helvetica Neue&quot;, sans-serif; font-size: 12px; font-weight: 200;" fill="rgb(50, 49, 63)" stroke="none" stroke-width="1px">1.5e-3</text><text x="0" y="293.8663194444444" dx="0em" dy="0.3em" style="text-anchor: end; visibility: inherit; font-family: &quot;Helvetica Neue&quot;, sans-serif; font-size: 12px; font-weight: 200;" fill="rgb(50, 49, 63)" stroke="none" stroke-width="1px">1.6e-3</text><text x="0" y="251.88541666666669" dx="0em" dy="0.3em" style="text-anchor: end; visibility: inherit; font-family: &quot;Helvetica Neue&quot;, sans-serif; font-size: 12px; font-weight: 200;" fill="rgb(50, 49, 63)" stroke="none" stroke-width="1px">1.7e-3</text><text x="0" y="209.90451388888889" dx="0em" dy="0.3em" style="text-anchor: end; visibility: inherit; font-family: &quot;Helvetica Neue&quot;, sans-serif; font-size: 12px; font-weight: 200;" fill="rgb(50, 49, 63)" stroke="none" stroke-width="1px">1.8e-3</text><text x="0" y="167.92361111111111" dx="0em" dy="0.3em" style="text-anchor: end; visibility: inherit; font-family: &quot;Helvetica Neue&quot;, sans-serif; font-size: 12px; font-weight: 200;" fill="rgb(50, 49, 63)" stroke="none" stroke-width="1px">1.9e-3</text><text x="0" y="125.94270833333331" dx="0em" dy="0.3em" style="text-anchor: end; visibility: inherit; font-family: &quot;Helvetica Neue&quot;, sans-serif; font-size: 12px; font-weight: 200;" fill="rgb(50, 49, 63)" stroke="none" stroke-width="1px">2e-3</text><text x="0" y="83.9618055555556" dx="0em" dy="0.3em" style="text-anchor: end; visibility: inherit; font-family: &quot;Helvetica Neue&quot;, sans-serif; font-size: 12px; font-weight: 200;" fill="rgb(50, 49, 63)" stroke="none" stroke-width="1px">2.1e-3</text><text x="0" y="41.980902777777715" dx="0em" dy="0.3em" style="text-anchor: end; visibility: inherit; font-family: &quot;Helvetica Neue&quot;, sans-serif; font-size: 12px; font-weight: 200;" fill="rgb(50, 49, 63)" stroke="none" stroke-width="1px">2.2e-3</text><text x="0" y="0" dx="0em" dy="0.3em" style="text-anchor: end; visibility: hidden; font-family: &quot;Helvetica Neue&quot;, sans-serif; font-size: 12px; font-weight: 200;" fill="rgb(50, 49, 63)" stroke="none" stroke-width="1px">2.3e-3</text></g><line x1="68.3125" y1="0" x2="68.3125" y2="377.828125" fill="rgb(0, 0, 0)" stroke="rgb(204, 204, 204)" stroke-width="1px"></line></g></g><g transform="translate(68, 0)" clip-path="url(#clip_0)"><clipPath id="clip_0"><rect width="960" height="377"></rect></clipPath><g><g><g><line x1="0" y1="0" x2="0" y2="377.828125" fill="rgb(0, 0, 0)" stroke="rgb(60, 60, 60)" stroke-width="1px" opacity="0.25"></line><line x1="73.89903846153847" y1="0" x2="73.89903846153847" y2="377.828125" fill="rgb(0, 0, 0)" stroke="rgb(60, 60, 60)" stroke-width="1px" opacity="0.25"></line><line x1="147.79807692307693" y1="0" x2="147.79807692307693" y2="377.828125" fill="rgb(0, 0, 0)" stroke="rgb(60, 60, 60)" stroke-width="1px" opacity="0.25"></line><line x1="221.6971153846154" y1="0" x2="221.6971153846154" y2="377.828125" fill="rgb(0, 0, 0)" stroke="rgb(60, 60, 60)" stroke-width="1px" opacity="0.25"></line><line x1="295.59615384615387" y1="0" x2="295.59615384615387" y2="377.828125" fill="rgb(0, 0, 0)" stroke="rgb(60, 60, 60)" stroke-width="1px" opacity="0.25"></line><line x1="369.4951923076923" y1="0" x2="369.4951923076923" y2="377.828125" fill="rgb(0, 0, 0)" stroke="rgb(60, 60, 60)" stroke-width="1px" opacity="0.25"></line><line x1="443.3942307692308" y1="0" x2="443.3942307692308" y2="377.828125" fill="rgb(0, 0, 0)" stroke="rgb(60, 60, 60)" stroke-width="1px" opacity="0.25"></line><line x1="517.2932692307692" y1="0" x2="517.2932692307692" y2="377.828125" fill="rgb(0, 0, 0)" stroke="rgb(60, 60, 60)" stroke-width="1px" opacity="0.25"></line><line x1="591.1923076923077" y1="0" x2="591.1923076923077" y2="377.828125" fill="rgb(0, 0, 0)" stroke="rgb(60, 60, 60)" stroke-width="1px" opacity="0.25"></line><line x1="665.0913461538462" y1="0" x2="665.0913461538462" y2="377.828125" fill="rgb(0, 0, 0)" stroke="rgb(60, 60, 60)" stroke-width="1px" opacity="0.25"></line><line x1="738.9903846153846" y1="0" x2="738.9903846153846" y2="377.828125" fill="rgb(0, 0, 0)" stroke="rgb(60, 60, 60)" stroke-width="1px" opacity="0.25"></line><line x1="812.8894230769231" y1="0" x2="812.8894230769231" y2="377.828125" fill="rgb(0, 0, 0)" stroke="rgb(60, 60, 60)" stroke-width="1px" opacity="0.25"></line><line x1="886.7884615384615" y1="0" x2="886.7884615384615" y2="377.828125" fill="rgb(0, 0, 0)" stroke="rgb(60, 60, 60)" stroke-width="1px" opacity="0.25"></line><line x1="960.6875" y1="0" x2="960.6875" y2="377.828125" fill="rgb(0, 0, 0)" stroke="rgb(60, 60, 60)" stroke-width="1px" opacity="0.25"></line></g><g><line x1="0" y1="377.828125" x2="960.6875" y2="377.828125" fill="rgb(0, 0, 0)" stroke="rgb(60, 60, 60)" stroke-width="1px" opacity="0.25"></line><line x1="0" y1="335.8472222222222" x2="960.6875" y2="335.8472222222222" fill="rgb(0, 0, 0)" stroke="rgb(60, 60, 60)" stroke-width="1px" opacity="0.25"></line><line x1="0" y1="293.8663194444444" x2="960.6875" y2="293.8663194444444" fill="rgb(0, 0, 0)" stroke="rgb(60, 60, 60)" stroke-width="1px" opacity="0.25"></line><line x1="0" y1="251.88541666666669" x2="960.6875" y2="251.88541666666669" fill="rgb(0, 0, 0)" stroke="rgb(60, 60, 60)" stroke-width="1px" opacity="0.25"></line><line x1="0" y1="209.90451388888889" x2="960.6875" y2="209.90451388888889" fill="rgb(0, 0, 0)" stroke="rgb(60, 60, 60)" stroke-width="1px" opacity="0.25"></line><line x1="0" y1="167.92361111111111" x2="960.6875" y2="167.92361111111111" fill="rgb(0, 0, 0)" stroke="rgb(60, 60, 60)" stroke-width="1px" opacity="0.25"></line><line x1="0" y1="125.94270833333331" x2="960.6875" y2="125.94270833333331" fill="rgb(0, 0, 0)" stroke="rgb(60, 60, 60)" stroke-width="1px" opacity="0.25"></line><line x1="0" y1="83.9618055555556" x2="960.6875" y2="83.9618055555556" fill="rgb(0, 0, 0)" stroke="rgb(60, 60, 60)" stroke-width="1px" opacity="0.25"></line><line x1="0" y1="41.980902777777715" x2="960.6875" y2="41.980902777777715" fill="rgb(0, 0, 0)" stroke="rgb(60, 60, 60)" stroke-width="1px" opacity="0.25"></line><line x1="0" y1="0" x2="960.6875" y2="0" fill="rgb(0, 0, 0)" stroke="rgb(60, 60, 60)" stroke-width="1px" opacity="0.25"></line></g></g></g><g><g><line x1="0" y1="965.5607638888889" x2="960.6875" y2="965.5607638888889" fill="rgb(0, 0, 0)" stroke="rgb(153, 153, 153)" stroke-width="1.5px"></line></g></g><g><g><line x1="73.89903846153847" y1="0" x2="73.89903846153847" y2="377.828125" fill="rgb(0, 0, 0)" stroke="rgb(153, 153, 153)" stroke-width="1.5px"></line></g></g><g><g><g><g><g><path stroke="rgb(255, 112, 67)" stroke-width="2px" d="M81.59931826923076,-30.99768717916146L82.19051057692307,16.917570779183905L82.78170288461538,64.18010146573641L83.3728951923077,84.570303404156L83.9640875,18.139128114117227L84.55527980769232,63.02128789197599L85.14647211538463,-68.16808879827767L86.92004903846154,-38.61809061480187L88.10243365384616,3.616497398816307L88.69362596153846,32.490230496365314L89.87601057692308,44.8030876279135L91.6495875,52.49697800884189L92.2407798076923,65.70916726715996L92.83197211538462,52.88007257223023L93.42316442307693,75.16228758214896L94.01435673076922,97.09517797449121L95.19674134615384,124.82674204875849L96.97031826923076,116.80265243991613L97.56151057692307,109.20581347676699L98.7438951923077,128.35647148571175L99.3350875,147.3126231405122L99.92627980769231,161.2965083510672L100.51747211538462,179.30267515579104L101.10866442307693,185.48506923815313L101.69985673076924,136.04530336348975L102.88224134615385,149.16667060060016L103.47343365384616,164.711705174391L105.24701057692307,181.97776664562673L105.83820288461538,192.49242834811795L106.4293951923077,216.23203994890832L107.0205875,166.81585267788745L107.6117798076923,177.98704965349563L109.38535673076923,176.58144356074735L109.97654903846154,162.22166008771708L110.56774134615384,181.0688839177709L111.15893365384615,181.33403419784742L111.75012596153846,192.750178214636L112.34131826923077,157.33373968282325L112.93251057692306,172.38836158181994L113.52370288461537,169.88344858828867L114.1148951923077,176.0805837587632L114.70608750000001,196.2403998042186L115.88847211538462,186.274204235898L116.47966442307693,185.28634223797536L117.07085673076924,130.7831710636021L117.66204903846155,156.67537267695602L118.84443365384615,93.95039661666232L120.02681826923077,81.99046930905553L120.61801057692308,100.91146712157905L121.80039519230769,83.66111261628714L122.39158750000001,81.05353818732578L123.57397211538462,88.34491940338643L124.16516442307692,100.32546374684773L124.75635673076924,93.32017566071227L125.34754903846154,92.86296336624667L125.93874134615386,109.72049391172169L126.52993365384614,138.12096997512737L127.71231826923076,140.3632112201053L128.3035105769231,103.16566383038202L128.89470288461538,123.75222804767282L129.4858951923077,127.01368657002723L130.6682798076923,111.23861515670319L132.44185673076922,103.36721782654837L133.03304903846154,120.1249228280978L133.62424134615384,131.444104444269L134.21543365384616,145.75297862681242L135.39781826923078,153.76794731732346L135.98901057692308,163.84959561784353L136.58020288461537,150.73596524693556L138.35377980769232,163.92108705964367L138.94497211538462,180.9472221955327L140.71854903846156,172.4645070453576L142.49212596153845,183.763126336279L143.08331826923077,155.60906894100845L143.67451057692307,180.86209255877858L144.2657028846154,195.28078892215862L144.8568951923077,201.1490129456145L146.63047211538463,184.73104164821768L147.2216644230769,185.9430444535197L147.81285673076923,202.47426653867325L148.40404903846152,198.104133841282L148.99524134615385,194.30995622605673L150.17762596153847,206.9161968287783L150.76881826923076,194.397630842606L152.54239519230768,194.46160025142717L154.31597211538462,173.67112500497996L154.90716442307692,186.72704626927344L156.08954903846154,165.39706131408937L157.27193365384616,165.72240160198402L157.86312596153846,180.21388390274677L158.45431826923075,169.55511074326165L159.04551057692308,159.41927673997236L159.63670288461537,124.6722264429659L160.2278951923077,136.44642530019365L161.41027980769232,139.97503980165683L162.00147211538462,139.34491662463574L162.59266442307694,146.46952319566543L163.18385673076924,141.75746709795015L164.36624134615383,131.98931582773673L164.95743365384615,39.03711557003044L165.54862596153845,58.73434259195699L166.73101057692307,92.39680767012413L167.3222028846154,95.00664053627145L167.9133951923077,127.9094349950023L169.0957798076923,111.0468708423291L169.6869721153846,133.85236176072902L170.86935673076923,155.10815427966088L171.46054903846155,172.3696671480254L172.64293365384617,189.38352443660762L173.23412596153847,176.9792275710324L173.8253182692308,173.36273922602948L175.00770288461538,191.86867102319053L175.59889519230768,187.31943707148082L177.37247211538462,186.85287430125865L177.96366442307692,160.1212878073025L178.55485673076925,175.0536915010017L179.14604903846154,192.3619237999543L180.32843365384613,183.6965085736656L180.91962596153846,150.61545487977176L182.10201057692308,165.03275649016527L183.2843951923077,176.90268790982665L183.8755875,173.12451576798728L184.46677980769232,174.35115661960518L185.05797211538462,181.92353982318724L186.24035673076924,179.39786794106186L186.83154903846153,203.29748735360025L188.60512596153848,220.2014659057603L190.9698951923077,227.27697141647167L191.56108749999999,235.73273788590393L193.33466442307693,247.27489259125358L193.92585673076923,251.63637692189292L195.10824134615385,261.5404099514363L195.69943365384617,216.17385398230257L196.29062596153844,232.49170879824868L196.88181826923076,246.1764443927642L197.47301057692306,212.97800089678853L199.2465875,231.12732381821206L199.8377798076923,239.26416326751422L200.42897211538462,254.0734509201667L201.02016442307695,239.6660110486057L202.79374134615384,230.46989657020688L203.38493365384616,189.50852544547485L203.97612596153846,200.90187434153478L204.56731826923078,215.6674426613864L205.15851057692308,221.57260654975312L205.7497028846154,235.75218688256416L206.9320875,223.89218412691042L207.5232798076923,221.61918548348714L208.11447211538461,177.78096951699044L209.29685673076924,195.16623381762653L209.88804903846153,154.25974556605422L210.47924134615386,149.21042169108128L211.07043365384615,166.9495029255159L211.66162596153848,170.5262757563039L212.25281826923077,188.2108169609234L212.84401057692307,181.43900078354562L214.0263951923077,157.52117482123572L214.61758749999998,154.49965338355526L215.7999721153846,165.62143883775664L218.16474134615385,132.51942469142082L218.75593365384614,123.4491489749798L219.93831826923076,151.92242768225532L220.5295105769231,130.7341088164574L221.12070288461538,122.18753354433144L221.7118951923077,142.33253852193974L222.3030875,152.8388110605945L222.89427980769233,124.06641476272495L223.4854721153846,116.2301727943485L224.66785673076922,76.93164331687598L226.44143365384616,105.31267068586811L227.03262596153846,105.92414868494967L227.62381826923078,136.08532120321308L228.21501057692308,91.77864459844221L229.39739519230767,65.32423282725438L230.565,72.56868863358716L231.74738461538462,90.92742891891032L232.91498942307692,78.0492585596549L234.09737403846154,100.26501723812117L234.68856634615386,86.6147379672471L235.27975865384616,108.99871773198117L235.87095096153845,128.80110306077592L236.46214326923075,133.2749885324777L237.64452788461537,128.09887176233107L238.2357201923077,93.22392421788425L239.403325,110.03911751463909L239.9945173076923,109.80158584738524L240.58570961538462,135.36573865957033L241.7680942307692,158.5095150865606L244.72405576923074,170.55746021219218L245.9064403846154,188.7329101083226L246.49763269230772,204.34002036302635L247.6800173076923,222.75109996263186L248.27120961538463,217.0998251283634L248.86240192307696,186.91343769925103L249.45359423076923,205.35905217975977L250.04478653846152,202.95731325442586L250.63597884615385,189.56332929480848L251.21239134615385,198.4407933143212L251.80358365384618,137.13867360382358L252.3947759615385,153.87233377111457L252.98596826923074,177.3858327818566L255.32117788461537,186.7311138089771L255.89759038461537,208.5841873137472L257.079975,191.73599782528552L258.7944326923077,177.50161849467463L261.1444221153846,169.60424354886513L261.72083461538466,163.00379951965422L262.3120269230769,130.81309819112153L262.90321923076925,157.4039251598762L264.08560384615384,170.00231165085756L264.6767961538461,186.51578354545768L265.26798846153844,183.8712758045785L265.85918076923076,196.75316510522566L266.4503730769231,201.10444310205156L267.04156538461535,201.54482110649906L268.8151423076923,191.4291765579331L269.4063346153846,209.83705886554833L270.5591596153846,225.62558572651625L271.7119846153846,240.21085081314612L272.89436923076926,239.4638346561589L274.07675384615385,249.42215938783193L275.2591384615385,238.06100382230417L275.8503307692308,188.17782003696212L276.42674326923077,204.219569224266L276.98837596153845,214.44700264216564L277.5795682692308,224.9242082915954L278.1559807692308,239.26936583522365L278.74717307692305,254.785766894767L279.3383653846154,269.78131368265633L279.9147778846154,269.19956480323333L281.0823826923077,254.5554266298682L282.2647673076923,264.36661433274986L282.8559596153846,289.0038044650291L284.0235644230769,276.2974706698313L285.16160961538463,260.1455671517529L285.7380221153846,265.52674756769073L286.3144346153846,280.83990181330233L286.9056269230769,267.81554519481483L287.49681923076923,267.53364551489847L288.08801153846156,275.68971301006803L288.66442403846156,228.61216614484485L289.2112769230769,185.77636848105593L289.80246923076925,181.76879850982442L290.3936615384615,195.2756317550043L290.98485384615384,176.120337796537L292.15245865384617,194.19533900305933L292.7436509615385,157.19767158231264L293.91125576923076,155.177061589845L295.09364038461536,173.78832972373058L295.6700528846154,186.54118344666844L296.2464653846154,184.49350376408643L296.8376576923077,135.05459335620944L297.42885,70.8828267775616L298.5521153846154,76.71604954209545L299.1285278846154,73.85386887884647L300.2961326923077,95.01010994232689L300.8725451923077,125.05576513733226L301.4489576923077,154.9207107912019L302.0105903846154,175.47453441793013L302.5870028846154,191.8102622510238L303.73982788461535,213.8464187535841L304.3310201923077,225.64591094469833L304.8926528846154,206.23597194862967L305.4690653846154,228.2764090673268L307.1983028846154,217.42368097574553L308.3067884615385,233.52067391471599L308.8979807692308,206.14240782214839L310.05080576923075,223.11327131207625L310.6419980769231,212.83195799912272L311.2036307692308,197.8489585312234L312.3860153846154,207.96039342413602L312.97720769230773,194.4551268025045L314.1152528846154,206.84948458726916L315.2976375,180.5359316214596L318.17969999999997,165.4491308321521L318.7708923076923,185.13136550144486L320.5444692307692,180.03241747949596L321.13566153846153,164.61190635021524L321.71207403846154,174.53214843000737L322.2589269230769,193.94547692964682L322.8057798076923,194.780161567474L323.9290451923077,160.34181472905476L325.0523105769231,183.44880356753143L326.19035576923073,192.75172628405875L327.3727403846154,160.7006220240788L328.51078557692307,183.97238309531127L330.22524326923076,194.67651250925078L330.8164355769231,201.1676496935576L333.03340673076923,219.24320630107482L333.5802596153846,218.12281331940684L334.1566721153846,226.85471937551424L334.71830480769233,239.16979756035443L335.9006894230769,251.7361712528609L336.4623221153846,264.72191335497786L338.1767798076923,255.80887384423536L338.7531923076923,242.7010150914692L339.31482500000004,242.26407506724468L339.9060173076923,256.67399062814053L341.59091538461536,255.69094485399933L342.1673278846154,238.39429974700886L343.2905932692308,248.70166669131675L343.85222596153847,231.7226146042783L344.41385865384615,218.1732299005085L344.9607115384615,230.28228129146683L345.5371240384615,227.73214249053532L346.12831634615384,243.07363308982778L346.70472884615384,248.76771602162114L347.23680192307694,247.65303494444706L347.8279942307692,257.57899712961563L348.40440673076927,273.18110002474884L348.95125961538463,266.10473216969865L349.5128923076923,240.57448707391143L350.10408461538464,249.72867258311982L350.63615769230773,263.5936350210445L351.1830105769231,268.4828927645198L352.8974682692308,241.07433453919177L353.4295413461538,265.0454927178671L355.69085192307693,264.42313097929696L356.2672644230769,246.60853794151168L358.528575,253.29609904779L360.2430326923077,266.42698995029355L360.78988557692304,244.55066166881414L361.86881153846156,251.44333789688545L362.38610480769233,255.33930081977124L364.08578269230765,268.05837398749105L364.67697499999997,271.9964253914034L365.2681673076923,262.51897782306514L367.0121846153846,267.5549306691052L367.58859711538463,226.8704589322546L368.7118625,198.46257664095643L370.9731730769231,217.65815368262466L371.52002596153847,236.07991549353778L372.61373173076925,251.38119983317142L373.7222173076923,237.85418141988382L374.28385000000003,195.60459897419335L374.8307028846154,212.40714098019907L375.4071153846154,204.5459105534169L375.9687480769231,208.64872221151333L376.5599403846154,190.4872559358646L377.72754519230773,179.62992234911133L378.3187375,199.32983464065765L378.89515,177.8516593177031L379.4567826923077,163.64624723851384L380.0184153846154,178.3110427318772L380.5652682692308,167.83212931507592L381.11212115384615,183.91944720708545L383.2847528846154,200.33086358328447L383.8316057692308,216.44787036699339L384.37845865384617,185.64320392655492L387.7039153846154,197.2198595915315L388.84196057692304,202.09926677827264L389.38881346153846,219.38388277727273L389.95044615384614,219.75209411564126L390.54163846153847,227.04282121749628L391.10327115384615,224.623241862367L391.66490384615383,247.90545346962216L392.24131634615384,214.30059710106957L392.8029490384615,233.94586766520976L393.34980192307694,236.08943190587976L393.92621442307694,251.95894640165483L394.4878471153846,262.24262762619753L395.06425961538463,248.26274204263808L395.6258923076923,264.53229673186934L396.17274519230773,221.35892543653088L396.7639375,185.15604949188915L397.31079038461536,135.96106836911193L397.8724230769231,130.49211485542367L399.0104682692308,118.90692837127483L399.5868807692308,148.81017197942896L400.16329326923073,163.74960448331422L401.27177884615384,168.8550178706191L402.3950442307692,189.59133402023738L403.51830961538457,188.95962310426165L404.1095019230769,111.643317667659L405.72050096153845,131.29933015299244L406.29691346153845,145.19339906782596L406.8733259615385,143.04563406649496L407.96703173076924,171.94913867830635L408.5286644230769,146.80312125465537L409.1050769230769,142.90622306591825L410.1987826923077,163.32205414005L411.27770865384616,187.30035431049524L411.80978173076926,159.13791671420876L412.3566346153846,153.306112074423L413.46512019230767,177.29815648348534L413.98241346153844,197.52728360565877L415.12045865384613,214.1513765205237L415.6525317307692,191.7630274808713L416.19938461538464,198.7921657086927L416.77579711538465,221.64212459683745L417.3522096153846,238.52659255977196L417.91384230769233,258.31006487548217L418.4606951923077,267.31109804350604L419.5987403846154,282.71090149795157L420.1308134615385,271.87056653425105L420.69244615384616,272.34562225861L422.3773442307692,278.5393609549978L422.8946375,274.71647379283206L423.4267105769231,293.70462168684895L425.12638846153845,292.8989866130935L426.2053144230769,297.09249784136426L426.75216730769233,295.04178407126665L427.2990201923077,261.8575343538004L428.36316634615383,275.37372615831424L428.9247990384616,294.75316620426713L429.4864317307692,245.27656520328702L430.04806442307694,267.5595915197608L430.5949173076923,278.25195285425775L431.6590634615385,288.70371756507313L432.81188846153844,244.3088407896522L433.92037403846155,176.02338507888285L434.4820067307692,161.21306181872956L435.0288596153846,168.21051828053817L436.6989778846154,167.0436445289192L438.9602884615385,160.5213998072309L439.50714134615384,152.0384940683178L440.0392144230769,162.7916698309778L440.5712875,159.91281229282637L441.1033605769231,173.1614218990206L442.1970663461538,183.71109844057355L443.2612125,194.24569644296582L444.85743173076924,189.08686465372733L445.3895048076923,155.43584557144322L446.5571096153846,130.9050261422725L447.6655951923077,155.6956853863213L448.21244807692307,160.11197299624155L449.88256634615385,176.77609019718957L450.9319326923077,189.53364739563125L451.4492259615385,199.33735594014914L451.98129903846154,210.35369138163617L452.51337211538464,149.73773981438242L453.5775182692308,153.39752847074135L454.1243711538462,137.5372024673735L454.65644423076924,109.377906648828L455.2180769230769,123.19624895086463L455.76492980769234,104.2466155828775L456.2822230769231,68.83052365673973L456.7699567307692,97.24615922310312L457.33158942307693,116.95131975799336L457.8784423076923,130.12683298632842L458.44007500000004,107.43213623432268L460.0806336538462,100.68551000109278L460.62748653846154,125.59832010865873L461.73597211538464,127.52576305410312L462.77055865384614,134.58731364791106L463.87904423076924,161.8607902751155L464.4258971153846,176.56408034993316L464.98752980769234,199.11061908835208L465.5196028846154,121.74980094248878L466.06645576923074,149.07812179927123L466.6280884615385,173.74683672315484L467.17494134615384,193.29178201838275L467.70701442307694,209.75638271751086L468.8007201923077,225.0470723876151L469.33279326923076,225.05956962281047L470.44127884615386,207.39463181584688L471.0029115384615,168.55429795075895L471.56454423076923,188.20458601120995L472.6434701923077,204.75442301256555L473.20510288461537,203.8061305335772L474.25446923076925,223.56356949380637L474.7569826923077,238.80241494959634L475.348175,229.4971576483321L475.88024807692307,245.98407648622555L476.41232115384616,239.40797180701537L476.9591740384615,248.587589995452L477.50602692307694,257.2828475160328L478.06765961538457,275.44220117131727L478.6145125,279.0511621766727L479.16136538461535,285.40304454094064L479.66387884615386,292.5661035503076L481.18619903846155,304.6247677299301L482.32424423076924,315.73352043756626L483.3588307692308,295.3061568833162L484.98460961538456,265.2626879559725L485.5314625,254.30225541407634L486.03397596153843,265.3714641793772L486.53648942307694,258.80066357911926L487.05378269230766,252.43733901379545L488.16226826923076,268.5483717429419L488.7239009615385,237.12195559307867L489.2855336538462,245.8940118727406L489.8471663461538,241.36003117545172L490.3053403846154,256.8749446761602L490.83741346153846,242.88310837388775L491.3547067307692,257.9325976099554L491.88677980769233,238.44163397669288L493.95595288461544,237.70089960304966L494.4880259615385,230.17398065067678L495.55217211538456,242.9983418639892L496.5867586538461,208.83009389803703L497.14839134615386,220.07172067698113L498.24209711538464,142.3022520019474L498.81850961538464,139.1820349698373L499.32102307692304,162.5967365331132L499.79397692307685,167.65636909906794L500.3556096153846,194.37086677244088L500.8729028846154,218.93595231869062L502.4100028846154,236.44450106087825L502.92729615384616,184.48421814465192L503.4741490384616,179.05583289973026L507.1691009615385,188.3037399784167L507.70117403846155,207.4233216146009L509.2530538461538,229.43283556543085L510.80493365384615,184.71965744891622L511.33700673076925,173.41412758707102L511.8690798076923,188.8658112053781L513.4357394230768,195.45676199523623L514.544225,177.6716868858082L515.0910778846154,199.39564510145948L515.6231509615385,179.88868446992547L517.2637096153846,202.1189027748843L517.7810028846154,202.39226271321152L518.2982961538462,211.12479438928023L518.8451490384616,222.76772107672383L519.3920019230769,238.04496999132098L519.8945153846154,253.682300111137L520.4265884615385,263.9379611790523L520.9734413461539,274.05862864561715L523.0278346153847,292.46309163333507L523.5599076923077,298.40538420066L524.6388336538462,258.692380381342L525.2300259615386,269.8732181357007L525.7473192307692,257.5064565372083L526.7375663461539,273.1502108030932L527.2548596153846,281.26585354180804L527.7869326923077,286.40661156658797L528.8362990384616,296.1789624717591L529.4274913461538,303.1268598938127L529.9595644230769,315.21179193828465L530.4916375,287.39715044518084L531.0384903846154,293.26912208941263L531.5557836538461,280.5035992141253L532.073076923077,301.58452043533555L533.1520028846154,308.2420707127935L535.2211759615385,324.5190787920212L535.7089096153846,319.1556301344891L537.3051288461538,317.0386235257605L537.8372019230769,307.8442031475312L538.3544951923077,313.77720937984674L538.8865682692307,318.6416215899621L539.8620355769231,286.887292616475L540.9409615384615,294.2224077400158L541.4878144230769,311.2547613144187L541.975548076923,316.9058211527221L542.4928413461539,330.4566943800793L543.0396942307692,334.63755299336754L543.5865471153846,339.6752848516066L545.0201884615385,330.7500712980885L545.5818211538461,337.2803844746147L547.1780403846153,328.65483978921543L547.6657740384614,338.59032908798395L548.7151403846153,348.68594544378794L550.2818,351.31871753598597L552.3509730769231,359.0809614158959L553.2968807692307,363.4450100029395L553.784614423077,368.48143198330126L554.2575682692308,331.96074148252706L554.7305221153846,307.47342010005536L555.277375,308.0247362061951L556.3415211538462,323.7342280311927L556.8440346153847,313.75976184837185L557.3908875000001,322.2977529139722L558.4106942307693,309.77710668759283L558.9427673076923,327.062709077086L559.9773538461538,325.3308475791353L561.957848076923,327.57168947555255L563.5392875,295.96912952449543L564.0565807692308,296.7403593654019L564.5886538461539,314.15285203254257L566.1109740384614,326.72757429248236L566.5839278846155,334.63622836735215L567.6480740384616,315.3022611140718L568.1949269230769,321.35343168281975L569.1851740384616,334.2047669075504L569.6729076923076,334.19883551956366L570.1458615384615,306.3583029247611L571.2247875,312.272717079112L572.1559153846154,326.78357578401756L573.6486759615384,344.03553561855966L574.1216298076923,338.83044430203336L575.1562163461539,332.451262910591L575.6735096153847,314.315286641616L576.2203625,321.8597711530456L576.6785365384615,293.6918693577013L577.7574625000001,292.0420824465724L578.333875,298.4393886326611L578.8807278846153,262.26975310161987L579.4128009615384,240.06195882542508L580.4178278846155,180.5755253464834L581.4080749999999,203.3454632625245L582.4574413461538,192.96447133192996L582.9156153846153,178.0538667514156L583.3885692307692,173.63144172008387L584.4379355769231,147.25573718827624L584.9256692307692,170.546138716251L586.8174846153846,188.8777645005952L587.3643375,215.9848282730953L587.8520711538462,228.81238683845433L588.4137038461538,253.09990248351875L588.9605567307692,264.7777134894025L589.9360240384615,236.97222223837113L590.4533173076923,256.21408790674724L591.4879038461538,229.38607356436518L591.9904173076923,241.94373276947903L592.4485913461538,244.44701349107112L592.9511048076923,252.39164582788172L593.4536182692308,267.2649078253382L593.9856913461539,278.03180840660184L594.5029846153845,288.9994420136832L594.9759384615385,288.35570839332513L597.0007721153846,280.50880429182104L597.9171201923077,269.8710798718467L598.8925875,266.94327411898223L599.3655413461539,284.2239540578398L599.8089355769231,235.92505658130412L600.7991826923077,217.9119793385307L601.3312557692308,237.45389656167708L602.2919432692308,215.6006150253324L603.8290432692307,228.42366620805765L604.3611163461538,220.13594338987764L604.8636298076923,226.67726260702102L605.4104826923076,194.07728544097898L605.8686567307693,206.64670778259696L606.9032432692308,228.85019585452594L607.4500961538462,246.9146891034633L610.5242961538462,265.8840742659129L610.99725,263.3348003424811L611.9431576923076,255.65106277487774L612.4604509615385,251.10893507980927L612.9629644230769,267.4776465826129L613.3767990384615,250.02871866000874L613.8940923076923,256.28242431468834L614.3818259615385,269.1269676562041L614.9138990384615,287.89901467439023L615.8893663461539,288.06416152571467L616.3327605769231,302.3438855375781L616.8500538461539,312.8650453184L617.382126923077,335.04646137251194L618.2541355769231,351.50357340742096L618.7418692307692,340.7788449782129L619.1704836538462,349.0884581588697L619.7321163461539,347.84596814157806L620.2050701923077,297.7772750895691L620.7223634615384,300.8851111067858L623.1610317307693,315.9089276030617L624.5946730769231,281.6476200728042L625.5701403846153,296.9925677749047L626.0874336538461,287.8894339358762L626.5603875,302.03328262302114L627.0185615384615,317.353163069915L628.4965423076924,305.98965098292365L629.4867894230769,317.02868697173034L630.8317519230769,328.2320461017484L631.3490451923077,332.0599971197629L632.8270259615385,349.23111653644406L633.2704201923077,306.6633346950605L635.2656942307692,317.70012311444697L635.8125471153846,306.8654796193739L637.1722894230769,252.08187290456434L637.6748028846154,226.16020510646763L638.1920961538461,223.883693879952L639.0493250000001,220.43895462040678L640.438626923077,234.17742398084053L641.3845346153846,204.91775202967526L641.8722682692307,221.9582702204659L642.3452221153847,244.59982182449733L642.8033961538462,260.0382123301212L643.3059096153846,274.01852324374266L643.7640836538461,243.45361994831956L644.2222576923076,223.209612377971L644.6065326923077,244.52816641067977L645.5228807692307,249.0805954554107L645.9514951923077,241.0340814044335L647.8137509615384,253.11705858983925L648.7448788461539,266.8161955136379L649.2621721153846,280.40791209702655L650.2671990384615,287.87938372273516L651.7008403846154,282.4062941023909L652.1442346153847,305.36769807655077L652.6319682692308,313.3592894852182L653.0901423076923,276.49521617560504L655.57315,261.7039024332154L656.0756634615385,271.4602511875303L656.5486173076923,286.0782030334999L656.9920115384615,294.9284681926183L658.4256528846154,305.10437139952717L659.2533221153845,294.90493187370583L659.6967163461538,271.661768186951L660.1696701923076,272.2254358624963L660.5982846153846,234.15068997701775L662.105825,197.4453536951681L663.0960721153846,171.03311064667594L664.0419798076923,192.87889918958643L664.9287682692308,192.13016038275194L665.3869423076924,202.41069073251228L666.8501432692308,222.74045988846896L667.825610576923,242.82649855118265L668.3133442307692,234.57716300218783L668.7271788461538,250.39708804902557L670.1460403846154,263.12473916468025L671.1215076923077,262.0094571388123L672.1117548076924,279.3923621976146L673.5453961538461,265.5204341521002L674.0331298076924,277.02318114548984L674.5060836538462,284.4226311787382L674.9642576923077,286.0031477956999L675.9101653846153,304.76144691486246L676.3535596153846,320.9692128083903L677.7428615384616,333.34886133927006L680.0780711538462,341.6889548617798L681.0683182692308,357.19224860133016L681.5264923076924,347.76205952969997L681.9846663461539,314.3387975329421L682.8418951923077,332.0756256732425L683.7730230769231,339.5454222190852L685.4727009615385,345.858707549154L686.8176634615385,355.33006505017966L687.2758375000001,356.78528965825507L687.7192317307693,317.4784954640969L688.2217451923077,323.5630209979366L688.7242586538462,283.2250890147311L689.6258269230768,286.94546509337374L690.4239365384616,263.725108260454L691.310725,254.33722741175336L692.6852471153846,273.63125480143515L694.0893288461538,264.78225838531426L694.4440442307692,266.88906052440484L697.8138403846153,280.89941471307577L698.3163538461539,286.50529360466555L698.7301884615385,297.3803693136149L699.6613163461539,274.2775141871941L701.3609942307692,278.97648100675053L702.3512413461539,273.4870149053049L702.8537548076923,233.87619616641797L703.7405432692308,247.47106435308777L704.6568913461538,262.80891628432755L707.8493298076924,274.58585434704116L708.3518432692307,217.2849361478487L709.2681913461538,236.42866477350333L709.8150442307692,247.27658887600884L710.2584384615385,249.7570874093143L710.7609519230768,253.55662599026607L711.7364192307692,236.86141058778884L712.209373076923,238.2704326367189L713.0222625,248.9786290507204L713.5247759615385,262.49237770197226L714.4854634615384,229.42679128278306L714.9731971153847,245.5125997570906L715.4461509615385,263.90293305860433L715.9930038461539,276.4087878139097L716.8650124999999,293.74239826136323L718.5203509615385,298.1425540485334L718.9637451923078,303.96681282572183L719.8800932692308,314.76540628464363L720.8112211538462,320.8823644058183L721.2546153846154,307.80831413067983L722.4517798076923,315.0900604722176L722.7917153846154,307.94108709919374L724.2549163461538,270.6970178958802L725.2599432692308,281.91966510623433L726.6640249999999,262.8238335279519L727.5360336538462,229.81009038729556L727.9498682692308,225.4940688078286L728.8809961538461,200.43787375637297L730.5215548076923,223.14717742614687L731.3935634615384,199.92169917646L732.5907278846154,193.23852850790612L733.8322317307692,205.8178935789071L734.6599009615385,230.8083993211942L735.0885153846154,210.1039385155949L735.9605240384616,213.7282687011521L737.2315874999999,227.84140702073873L737.6897615384615,246.7501218448157L739.8180538461539,217.28170828376014L740.2614480769231,237.39939978769044L740.7491817307692,248.96999469558918L743.660803846154,264.9624281240157L744.488473076923,234.53798124911916L745.7151971153846,260.8697202546079L746.6611048076924,274.0761318158812L747.0749394230769,260.6737553745717L747.8878288461539,243.0671237603055L748.331223076923,266.15735754006255L748.7746173076923,259.25958913469054L749.2327913461538,261.04318913382747L749.6614057692308,264.18728735053L750.4151759615385,277.4493793727562L750.9029096153846,244.75661300956574L751.8488173076923,264.7501101952195L752.3513307692308,254.86034826344869L752.7356057692308,263.803021040298L754.4205038461539,279.5231252068086L755.3220721153846,299.03621109054717L756.0906221153846,295.410189095637L758.1450153846154,319.1616821294313L758.9283451923077,263.73461547923796L759.2978403846155,263.3833027471818L760.2585278846153,240.6716915559937L761.0861971153846,217.12581068110066L762.7710951923077,208.3315122824188L763.6283240384615,191.9164849376397L764.1160576923077,217.0831335245227L764.9732865384616,210.1526794519233L765.3723413461538,228.2097460009617L765.7566163461538,248.9294207625098L766.2739096153846,241.6180999957576L766.6877442307692,262.45841251275993L767.1163586538462,266.8916116830675L767.8701288461539,238.64451335761404L768.2544038461539,236.98003514490551L768.5943394230769,243.64819258634762L769.0081740384616,241.03899785895098L769.8210634615384,248.74681995682758L771.0034480769231,242.83398230272104L771.7424384615384,259.0550926422453L772.1562730769231,233.78377753564266L772.5405480769231,258.9502781348256L773.7968317307692,265.9526334958505L774.6245009615385,283.65906791801314L777.2996461538462,296.48065525437795L780.1078096153846,271.8507517318209L781.1571759615385,293.5592991776142L781.5562307692308,311.7460664220616L782.0439644230769,327.901771417611L782.4282394230769,319.06703676932295L783.6401836538462,296.500685575158L784.4087336538461,311.50424893732213L784.837348076923,281.3371797183177L785.2511826923077,296.34864738444236L785.6502375,300.7856356256025L786.5074663461538,271.25816899607895L786.9656403846154,283.313954788954L788.5175201923076,223.27471581787742L789.3747490384616,240.82636821381675L789.7442442307693,221.10910563074066L790.1876384615384,192.94046682979024L790.5719134615384,176.79513434379646L790.9414086538461,180.93658594558775L791.2813442307693,180.68684587533465L791.7099586538461,202.02050630220876L792.1090134615384,223.2013259378869L793.0105817307692,236.82444191573458L793.4096365384615,238.2285099836223L794.2520855769232,261.85433589915385L794.6511403846154,262.7631909108509L795.8483048076923,281.45903770877L797.1932673076923,294.36420377424247L797.6218817307692,302.89913291601147L798.0357163461539,322.44318065830737L798.4938903846154,295.6482223450857L799.2772201923077,268.11500999737825L799.7058346153846,272.3299221858781L801.1690355769231,278.63144702598925L802.4696586538462,255.7858720921629L803.5781442307692,252.82482118004373L804.3762538461539,230.95452799540234L805.6177576923077,254.0187684044617L806.2976288461538,252.58467885460436L806.6966836538461,264.64416673981816L807.3765548076923,252.37210511049972L807.8199490384616,255.63512590118057L808.2190038461538,226.16770054048592L808.6328384615384,251.36136789039156L809.0466730769231,274.41701161071853L809.8300028846154,242.2942693505054L810.1994980769231,220.73213773790954L810.5689932692308,223.77541818311536L810.864589423077,235.32704630584524L811.5444605769231,222.01432708648116L812.7268451923077,238.7335326733637L813.1259,239.55136774542854L813.4658355769232,256.5801115915479L814.5447615384616,244.00217595133367L815.195073076923,257.97576939105363L815.6089076923076,253.7906306561835L815.9488432692307,267.83705773035865L816.3183384615385,288.9063019576286L818.2101538461538,280.77723893609647L819.7915932692307,305.22399524424816L820.2054278846153,295.418740064879L820.574923076923,288.8095210202049L820.9444182692308,281.8370486091093L821.6686288461539,284.53490215052204L822.0085644230769,296.42066270689986L822.4223990384615,257.5487930005999L823.2057288461539,232.58684407667107L823.9742788461538,231.6531368490876L824.3733336538462,238.82244871304425L824.7723884615385,186.97136356523063L825.4670394230769,209.00525291523147L826.2503692307693,197.54871926361758L826.5755250000001,203.77090714969776L826.9450201923077,207.1436947148815L828.2013038461539,227.2972965442952L828.8368355769231,227.81016478859692L829.2358903846155,237.87538988558956L829.9453211538461,233.15849747947385L831.6006596153846,244.22906948808406L831.9849346153846,243.85256034919104L832.723925,223.0411359161577L833.4629153846154,246.84120940590304L834.1427865384616,267.49684497321925L836.4484365384616,280.7111432298287L838.3993711538461,288.08862321567034L838.7984259615384,284.70379376129097L839.5226365384616,293.0591371664148L840.9710576923077,308.93261131221124L841.325773076923,322.65662345878553L841.9908644230769,331.3901054598312L842.3751394230769,327.15975387076526L843.4392855769231,302.11354877415863L844.207835576923,292.6563225359229L844.6216701923076,217.0965974769151L845.0207250000001,239.9951763104136L845.7744951923078,258.764871278815L848.1540442307693,204.4096073031503L848.4792,225.0848117701064L849.1738509615385,219.02700584812905L850.3266759615384,169.48901979527125L850.6666115384616,172.50708572095016L852.2037115384616,146.82639862166758L853.7703711538461,151.95821287337003L854.1989855769231,149.02698981062747L854.8936365384616,177.063776819979L855.3222509615384,165.6974641997655L855.6326269230769,189.03071703738377L856.7558923076923,191.7930642255463L857.1845067307692,205.30389321287294L858.2486528846155,225.5390159217278L858.618148076923,221.75987600428613L859.0911019230768,215.67609211289596L860.1404682692307,208.61942249951866L860.539523076923,200.12076130645764L860.9237980769232,208.78534882088903L862.7417144230769,201.90947298910015L863.1555490384616,223.0950115822784L863.4511451923078,240.3891193843895L864.1457961538462,240.47464089497973L865.2986211538462,228.7028224975793L865.6385567307692,250.76440070581268L866.0819509615384,202.070651526144L866.495785576923,194.78612959158013L868.2398028846154,222.47549196385432L868.6240778846153,244.8001869183365L870.5750125,266.44722691063373L871.6982778846154,245.35652759340783L872.0382134615385,261.23185945157627L872.4224884615385,275.2901613147908L872.8067634615384,271.88866984742367L873.220598076923,243.73832298480295L873.9743682692307,230.20902095935665L874.2995240384615,241.55325034468814L875.0532942307693,252.5269834820787L875.7922846153846,251.64215892799254L876.147,270.9781766943165L878.1570538461538,246.1298349963045L878.5117692307692,241.60546709330478L880.0340894230769,227.28456422604884L880.3592451923076,217.6143690573142L880.6548413461538,223.52988708263817L880.9947769230769,251.68837438126428L881.9850240384616,219.81238749445015L882.2658403846153,201.83662945489314L883.6403624999999,206.51219521350077L884.4828115384615,226.94708857008018L884.8375269230769,235.49316507321223L885.1774625,253.71173185382122L885.5321778846154,277.758818191221L885.901673076923,256.0987139515853L886.2268288461539,237.54512156626612L887.7934884615385,258.7379874319439L889.8478817307692,252.3774244923332L890.1878173076923,276.77387771070994L891.2371836538462,288.7429937813757L891.4884403846154,297.0334784827076L891.7840365384616,289.51074406333623L892.4934673076923,302.09474178422613L892.7595038461538,318.2834660615638L893.4541548076922,295.3266143464771L893.8827692307692,265.48431933463047L895.7745846153847,280.8844989813797L896.1293,217.87829608709586L896.469235576923,169.88994046244042L896.8830701923076,183.95558934370035L897.9915557692308,185.30234564591106L898.390610576923,203.15156811803223L900.4745634615384,228.09189263804316L901.1692144230769,251.89124868401348L903.6078826923076,232.30638417078498L906.1500096153846,249.1355431486589" style="fill: none;" fill="none"></path></g></g></g></g><g opacity="0.20000000298023224"><g><g><g><path stroke="rgb(255, 112, 67)" stroke-width="2px" d="M74.50501057692308,-153.24770890694992L75.68739519230769,80.33688794370715L76.86977980769231,-314.01546001982126L77.4609721153846,215.67291299824137L78.64335673076923,-476.9493249173652L79.82574134615385,-381.4387694262938L80.41693365384614,347.7635305354035L81.00812596153845,62.07197723304205L81.59931826923076,168.435338499875L82.19051057692307,310.59841934630657L82.78170288461538,374.84127239329325L83.3728951923077,226.9427452828386L83.9640875,-470.778916045978L85.14647211538463,-1121.422668363873L85.73766442307692,14.569368777402076L86.92004903846154,139.1389452390075L88.10243365384616,377.3259840698091L88.69362596153846,294.6708217476844L89.87601057692308,159.2386161974993L91.6495875,125.5201193858326L92.2407798076923,193.50741401578608L92.83197211538462,-73.36179222764139L93.42316442307693,297.86716157316954L94.01435673076922,319.4321189242441L95.19674134615384,409.5869162969789L96.97031826923076,33.43628728554012L97.56151057692307,29.430428288327278L98.7438951923077,331.43083124549594L99.3350875,350.12308049984534L99.92627980769231,312.13242005641223L100.51747211538462,374.9769416290284L101.10866442307693,253.129351389866L101.69985673076924,-408.28681192973306L102.88224134615385,294.4625284181804L103.47343365384616,337.7514732691343L105.24701057692307,375.1030807851639L105.83820288461538,310.6226110868285L106.4293951923077,484.02651466565374L107.0205875,-392.7044964458328L107.6117798076923,304.9080332535183L109.38535673076923,160.56139124591652L109.97654903846154,-1.914541108818355L110.56774134615384,397.07142930041624L111.15893365384615,184.38028573058867L111.75012596153846,324.20307226058986L112.34131826923077,-251.31907009472422L112.93251057692306,346.4273645033439L113.52370288461537,140.87459265899895L114.1148951923077,247.9641459913174L114.70608750000001,430.4313996303277L115.88847211538462,70.34125173767097L116.47966442307693,173.7804424779412L117.07085673076924,-504.76669869658576L120.02681826923077,-57.88474746916398L120.61801057692308,322.3834135235132L121.80039519230769,-118.41111383334243L122.39158750000001,50.486528260989076L123.57397211538462,173.8731530471737L124.16516442307692,240.9423344701677L124.75635673076924,11.052818277372126L125.34754903846154,87.49089877417362L125.93874134615386,307.8830797434817L126.52993365384614,472.1172873482315L127.71231826923076,166.7430407240107L128.3035105769231,-334.62242444622746L128.89470288461538,366.12339993664256L129.4858951923077,165.42373560201182L130.6682798076923,-74.59728152136739L132.44185673076922,10.614727849011388L133.03304903846154,317.6374827551416L133.62424134615384,264.88634179471086L134.21543365384616,314.4759399382456L135.39781826923078,248.29452208410171L135.98901057692308,282.7711245098617L136.58020288461537,-3.975579656880427L138.35377980769232,319.4994648200809L138.94497211538462,381.8756440706331L140.71854903846156,72.34569627457273L142.49212596153845,317.1328772583963L143.08331826923077,-176.75963708411052L143.67451057692307,479.0129108410426L144.2657028846154,365.5314109407999L144.8568951923077,270.44472406699464L146.63047211538463,-9.157988070911358L147.2216644230769,200.2573005990287L147.81285673076923,397.7278807321143L148.40404903846152,146.48443736112029L148.99524134615385,149.49085980545752L150.17762596153847,355.8364365280787L150.76881826923076,46.5059850649688L152.54239519230768,195.21735465696028L154.31597211538462,-71.96404721970771L154.90716442307692,340.9858845408146L156.08954903846154,-86.63059536239598L157.27193365384616,169.5666322566459L157.86312596153846,351.45074276856997L158.45431826923075,43.603562668774316L159.04551057692308,39.64413226448232L159.63670288461537,-285.94316882936334L160.2278951923077,275.58832795178427L161.41027980769232,181.67535590701866L162.00147211538462,131.89813737588054L162.59266442307694,230.66934851168318L163.18385673076924,86.06871766470266L164.36624134615383,16.544196759240663L164.95743365384615,-1059.5350156552545L165.54862596153845,291.53234661063954L166.73101057692307,490.2519047654997L167.3222028846154,125.85245036673987L167.9133951923077,516.7937140444733L170.86935673076923,406.34043359113923L171.46054903846155,376.39306258531803L172.64293365384617,390.48101271580606L173.23412596153847,30.36418060027063L173.8253182692308,130.61670821126444L175.00770288461538,410.6054618812567L175.59889519230768,133.5480629516791L177.37247211538462,181.3381377058039L177.96366442307692,-155.84526650036503L178.55485673076925,351.554889433322L179.14604903846154,396.94612097173297L180.32843365384613,81.27054251124434L180.91962596153846,-240.40659135900853L182.10201057692308,335.4474421273852L183.2843951923077,317.2074073680851L183.8755875,128.46574480954507L184.46677980769232,188.85033291260413L185.05797211538462,271.4310139972432L186.24035673076924,149.54373952918425L186.83154903846153,485.7979365382958L188.60512596153848,420.0116993182132L190.9698951923077,310.91173904021787L191.56108749999999,335.6827617851894L193.33466442307693,383.70722762526L193.92585673076923,303.19071290967986L195.10824134615385,378.60980797237585L199.2465875,445.6599781083738L199.8377798076923,335.4450962616377L200.42897211538462,429.1256809807835L201.02016442307695,69.36370993177275L202.79374134615384,121.76771163376463L203.38493365384616,-294.6734059533919L203.97612596153846,335.5764647435022L204.56731826923078,390.2032719857331L205.15851057692308,291.3743916503024L205.7497028846154,403.36147732492987L206.9320875,83.70134814776895L207.5232798076923,194.75126045623782L208.11447211538461,-340.40772035738667L209.88804903846153,-329.2747302413983L210.47924134615386,89.5249598661386L211.07043365384615,376.634100290882L211.66162596153848,212.80548309944828L212.25281826923077,397.2507902857L212.84401057692307,101.39279242755663L214.0263951923077,-125.19936509599864L214.61758749999998,118.7837704028417L215.7999721153846,297.08647700125584L218.16474134615385,-258.7628930894232L218.75593365384614,16.233956014123066L219.93831826923076,488.49084379990944L220.5295105769231,-119.72245278624018L221.12070288461538,21.162717694196715L221.7118951923077,380.45663965436205L222.3030875,277.02824967097126L222.89427980769233,-216.037835717544L223.4854721153846,23.601831605244L224.66785673076922,-387.59686250250604L226.44143365384616,440.79079164384814L227.03262596153846,113.15212869814906L227.62381826923078,492.6056878099787L229.39739519230767,-247.3803615045358L230.565,158.2018412814747L231.74738461538462,307.9370835278791L232.91498942307692,-74.17727380814421L234.09737403846154,362.86660519595415L234.68856634615386,-74.73852218825294L235.27975865384616,373.58877557289736L235.87095096153845,362.8754021925076L236.46214326923075,186.15859858386423L237.64452788461537,66.9145283468921L238.2357201923077,-319.01577060519617L239.403325,308.8032944551734L239.9945173076923,106.99384013312454L240.58570961538462,437.54709465358366L241.7680942307692,432.08078761189245L244.72405576923074,312.9703339781263L245.9064403846154,403.5760262964274L247.6800173076923,440.3794831827723L248.27120961538463,150.29886393888992L248.86240192307696,-169.90511511408522L249.45359423076923,423.39565953130176L250.04478653846152,174.56752930845767L250.63597884615385,31.239579501742924L251.21239134615385,303.37696487559714L251.80358365384618,-587.4837821000061L252.3947759615385,351.67276918713793L252.98596826923074,455.32743747076404L255.32117788461537,297.1971236690167L255.89759038461537,466.8987135039254L257.079975,-7.418235385861635L258.7944326923077,9.243960297174965L261.1444221153846,76.2532243991995L261.72083461538466,84.98316829000959L262.3120269230769,-249.69749039670887L262.90321923076925,471.7211292701088L264.08560384615384,318.9216976353329L264.6767961538461,381.7134861008316L265.26798846153844,152.61183869380164L265.85918076923076,349.02370029168213L266.4503730769231,252.5387796879125L267.04156538461535,206.75031488291117L268.8151423076923,71.85707198823286L269.4063346153846,427.42766515715954L271.7119846153846,412.616162060152L272.89436923076926,230.6337206756418L274.07675384615385,367.13466356266224L275.2591384615385,103.76631984207779L275.8503307692308,-401.46698922389066L276.42674326923077,393.84126991040347L276.98837596153845,335.340509747058L277.5795682692308,348.7701513021311L278.1559807692308,408.8364836187684L279.3383653846154,447.03636596356387L279.9147778846154,262.3229947434479L281.0823826923077,81.45420425039867L282.2647673076923,380.3398839612168L282.8559596153846,580.2280253637938L284.0235644230769,126.10208958004495L285.16160961538463,69.22178505404412L285.7380221153846,329.13505950606645L286.3144346153846,461.8492374822575L286.9056269230769,113.86097113154312L287.49681923076923,264.20144674082337L288.08801153846156,372.09861322894966L288.66442403846156,-327.8685792145359L289.2112769230769,-320.5647262094426L289.80246923076925,134.39726635230343L290.3936615384615,354.9333270874631L290.98485384615384,-50.30505974991769L292.7436509615385,-280.13373004988534L293.91125576923076,131.2924152909739L295.09364038461536,393.7830631165416L295.6700528846154,337.28645425687944L296.2464653846154,160.28887984157257L296.8376576923077,-449.3386805571499L297.42885,-687.660362307422L298.5521153846154,145.6677339755406L299.1285278846154,40.02142567221824L300.2961326923077,345.08772854486597L300.8725451923077,480.21081741060414L303.73982788461535,474.32508912212666L304.3310201923077,365.1219596234409L304.8926528846154,-23.199460736275398L305.4690653846154,488.8056785321161L307.1983028846154,89.1388694618492L308.3067884615385,423.7953852802489L310.05080576923075,423.71758073295416L310.6419980769231,91.3015621923065L311.2036307692308,20.742221258942834L312.3860153846154,327.48273919231724L312.97720769230773,34.81594957833619L314.1152528846154,353.3571496661041L315.2976375,-130.5037585289037L318.7708923076923,417.78547272375886L320.5444692307692,119.76023702027226L321.13566153846153,-17.666443137387375L321.71207403846154,291.7944971079317L322.2589269230769,423.4209753324944L322.8057798076923,204.64656202936183L323.9290451923077,-246.73710556766798L325.0523105769231,456.5852613612951L326.19035576923073,302.7170435174808L327.3727403846154,-218.15986677504327L328.51078557692307,459.0565331819655L330.22524326923076,321.2048114741661L330.8164355769231,277.8962199975762L333.03340673076923,432.90555491097945L333.5802596153846,204.87919371599693L334.1566721153846,330.07032685630514L334.71830480769233,384.74033712605404L336.4623221153846,418.2200443534982L338.1767798076923,150.45217603993495L338.7531923076923,87.75940265786551L339.31482500000004,237.09921990919327L339.9060173076923,427.00658225546874L341.59091538461536,244.07083967778533L342.1673278846154,33.939084510771636L343.2905932692308,370.5400298006975L343.85222596153847,31.021511731624003L344.41385865384615,58.0125543012594L344.9607115384615,373.41747850112085L345.5371240384615,197.58819410031234L346.12831634615384,424.41791940301323L346.70472884615384,316.07469631742504L347.23680192307694,234.4769329810224L347.8279942307692,374.90896039455157L348.40440673076927,457.6059573225082L348.95125961538463,182.458435216883L349.5128923076923,-61.20610239011393L350.10408461538464,357.9358397555544L350.63615769230773,427.4846012737414L351.1830105769231,326.2764266038268L352.8974682692308,-82.90887935385888L353.4295413461538,548.396875290462L355.69085192307693,257.06649606955597L356.2672644230769,36.030912546770764L358.528575,332.3465008423017L360.2430326923077,421.64085420770505L360.78988557692304,-14.038757247565798L361.86881153846156,332.91830561827453L362.38610480769233,301.3915804978945L364.08578269230765,418.40434143129255L364.67697499999997,318.54621249911077L365.2681673076923,150.49068733595777L367.0121846153846,327.08247584913624L367.58859711538463,-254.040860828355L372.61373173076925,432.2502275399521L373.7222173076923,77.95788684244161L374.28385000000003,-303.8071319860044L374.8307028846154,411.0218041792493L375.4071153846154,111.62213550869558L375.9687480769231,257.1460600161614L376.5599403846154,-24.190589014628358L377.72754519230773,51.29067149037854L378.3187375,432.1929004457456L379.4567826923077,-4.269008364140404L380.0184153846154,351.656445871311L380.5652682692308,43.96599892677557L381.11212115384615,374.07979459718786L383.2847528846154,394.3222212608606L384.37845865384617,-178.48375066417634L387.7039153846154,334.06186629801715L388.84196057692304,259.7763619856365L389.38881346153846,423.6969077910536L389.95044615384614,224.1045409614841L390.54163846153847,313.2229543958189L391.10327115384615,196.02257307481744L391.66490384615383,523.1131342630349L392.8029490384615,466.16304023104345L393.34980192307694,261.4274604943089L393.92621442307694,439.5447459542581L394.4878471153846,383.80101338296015L395.06425961538463,83.01332527288469L395.6258923076923,456.8467765199473L397.31079038461536,-445.54883669752667L397.8724230769231,65.84627973208745L399.0104682692308,-18.03591699263137L399.5868807692308,502.28184642451623L400.16329326923073,340.3413579266667L401.27177884615384,229.20362226927276L402.3950442307692,434.7052249169986L403.51830961538457,181.49247612311348L404.1095019230769,-802.2750619803555L405.72050096153845,363.643477736028L406.29691346153845,309.4284188047006L406.8733259615385,117.65795033281512L407.96703173076924,513.6033854999664L408.5286644230769,-150.43570008644338L409.1050769230769,96.84288806571726L410.1987826923077,404.6476470932442L411.80978173076926,-173.75653794958225L412.3566346153846,84.37119056310945L413.46512019230767,460.89642501111507L415.6525317307692,-72.878739372452L416.19938461538464,281.88018424781166L416.77579711538465,491.7403565823398L417.91384230769233,492.1608530175937L418.4606951923077,373.70792600399324L419.5987403846154,464.74447566460003L420.1308134615385,143.7322481171771L420.69244615384616,277.96102453885317L422.3773442307692,351.75252862255564L422.8946375,229.52798708107892L423.4267105769231,518.1542673058673L425.12638846153845,283.375966895113L426.2053144230769,346.661951078102L426.75216730769233,270.8012956606269L427.2990201923077,-130.3973148706072L434.4820067307692,-13.852554153851486L435.0288596153846,250.92404209832762L436.6989778846154,153.2505983879867L438.9602884615385,83.4251224559913L439.50714134615384,51.76619802629443L440.0392144230769,289.8997217947294L440.5712875,125.88323985467687L441.1033605769231,329.7667816030088L442.1970663461538,308.4136852522626L443.2612125,318.77004718919244L444.85743173076924,128.1068273501652L445.3895048076923,-242.3364569140184L447.6655951923077,448.7339908095633L448.21244807692307,212.3147573083762L449.88256634615385,373.7545012135233L450.9319326923077,340.33451581823624L451.4492259615385,315.22221847919474L451.98129903846154,340.57242570280346L452.51337211538464,-566.7738928139248L453.5775182692308,196.65810720359957L454.1243711538462,-49.93998439295041L454.65644423076924,-223.47941059090147L455.2180769230769,286.5361412903229L455.76492980769234,-119.7477685874328L456.7699567307692,433.1335437383225L457.33158942307693,349.87642249092784L457.8784423076923,285.86815601869927L458.44007500000004,-160.83081768041143L460.0806336538462,20.93692811599209L460.62748653846154,420.08051138014224L461.73597211538464,150.30912710153564L462.77055865384614,218.05846297471888L463.87904423076924,484.2472704069417L464.4258971153846,350.3645091830339L464.98752980769234,465.62226930402295L468.8007201923077,405.7908656675653L469.33279326923076,225.20729335165944L470.44127884615386,-1.413992004928275L472.6434701923077,400.3819834644867L473.20510288461537,192.5968271281001L474.25446923076925,457.10663002369495L474.7569826923077,418.93338302957517L475.348175,119.50424442056749L475.88024807692307,440.8679119802998L476.41232115384616,161.6750421373775L476.9591740384615,357.0953844792804L477.50602692307694,360.0652505157179L478.06765961538457,490.0950738658333L478.6145125,321.71093200920666L479.16136538461535,360.4855514621595L479.66387884615386,377.2371344046195L481.18619903846155,447.16436226341625L482.32424423076924,447.0446742380866L483.3588307692308,53.84424410102656L484.98460961538456,-89.86652167237156L485.5314625,124.74432203422637L486.03397596153843,396.21518830254917L486.53648942307694,181.13043084273684L487.05378269230766,177.219579408301L488.16226826923076,458.98904066951945L488.7239009615385,-134.3543994091516L489.2855336538462,349.58421558874477L489.8471663461538,187.766054215191L490.3053403846154,440.2691786204329L490.83741346153846,77.49242798035914L491.3547067307692,435.82527806706236L491.88677980769233,8.048448465564036L493.95595288461544,228.94503944280504L494.4880259615385,141.20193867519265L495.55217211538456,394.58886800083565L496.5867586538461,-195.05611923796175L497.14839134615386,352.95351414091095L498.24209711538464,-776.9727495157599L498.81850961538464,102.29946953899668L499.32102307692304,439.3705165502971L499.79397692307685,227.46382071201998L500.3556096153846,510.14992901410574L502.92729615384616,-429.71297222407566L503.4741490384616,114.88953551745118L507.1691009615385,297.61874416494135L507.70117403846155,433.42658146795776L510.80493365384615,-343.8130377232188L511.33700673076925,39.77696691243909L511.8690798076923,371.51263551408516L513.4357394230768,273.36518030612365L514.544225,-32.55702145896953L517.2637096153846,464.89148325144845L517.7810028846154,205.62351736882312L518.2982961538462,314.34779702178395L518.8451490384616,360.39308525394233L519.3920019230769,418.6298866484819L523.0278346153847,510.0132823343091L523.5599076923077,368.64632967596276L524.6388336538462,-210.73569040598045L525.2300259615386,402.03645415517127L525.7473192307692,111.32499251400196L526.7375663461539,458.0674086639386L527.2548596153846,377.19691258148913L527.7869326923077,347.1730077056531L528.8362990384616,411.69316163288505L530.4916375,-41.38617592202115L531.0384903846154,362.6788381917415L531.5557836538461,129.60857240624154L532.073076923077,550.7718199988724L535.2211759615385,516.9216614721227L535.7089096153846,255.75691651596892L537.3051288461538,292.0145197661736L537.8372019230769,199.16143918948686L538.3544951923077,383.90838561311506L538.8865682692307,376.14146848389L539.8620355769231,-88.4651601214104L543.5865471153846,399.22385886822786L545.0201884615385,225.24947006291282L545.5818211538461,414.472035099707L547.1780403846153,226.69647825154564L547.6657740384614,456.032907722146L554.2575682692308,-99.73254879585392L554.7305221153846,18.02072375853055L555.277375,314.5415753069748L556.3415211538462,509.42847755231844L556.8440346153847,195.85645645656686L557.3908875000001,423.2211857663254L558.4106942307693,161.7766474475696L558.9427673076923,531.3873937323774L559.9773538461538,304.859356539256L561.957848076923,354.05958984089534L563.5392875,-77.58933553800068L564.0565807692308,305.85669158739944L564.5886538461539,519.9774448415653L566.5839278846155,428.1205752523513L567.6480740384616,86.76485332529734L568.1949269230769,392.8813709698152L569.1851740384616,486.1141396921885L569.6729076923076,334.1287234718232L570.1458615384615,-22.73106954200847L573.6486759615384,547.962548021738L574.1216298076923,277.3035956630936L575.1562163461539,257.0460674886708L575.6735096153847,99.93874664168106L576.2203625,411.0394470445592L576.6785365384615,-39.2671749411125L577.7574625000001,272.5407551124582L578.333875,374.05882842206887L578.8807278846153,-165.27388740632966L581.4080749999999,472.4978063213704L582.4574413461538,70.25582312669655L582.9156153846153,1.80287414584825L583.3885692307692,121.35610993947029L584.4379355769231,-164.5186163800148L591.9904173076923,390.3817043991585L592.4485913461538,274.03707535399326L592.9511048076923,346.3012742194114L593.4536182692308,443.07449194911817L594.5029846153845,418.6424956768751L594.9759384615385,280.74644688088705L597.0007721153846,187.75437375865616L597.9171201923077,144.1277219844568L598.8925875,232.33510868127794L599.3655413461539,488.49045282228485L599.8089355769231,-334.99268025672063L600.7991826923077,4.9881688534385376L601.3312557692308,468.4493796352795L603.8290432692307,379.998707111553L604.3611163461538,122.17080956472392L604.8636298076923,303.9990102763307L605.4104826923076,-191.27116259864613L605.8686567307693,355.2237257181324L606.9032432692308,491.306811268865L610.5242961538462,490.11193477589404L610.99725,233.20107524755682L611.9431576923076,164.82534434756636L612.4604509615385,197.41865642784654L612.9629644230769,460.9642107567795L613.3767990384615,43.77344244666165L613.8940923076923,330.20443218154185L614.3818259615385,420.9560568982237L614.9138990384615,509.79423712012874L615.8893663461539,290.0162819990623L616.3327605769231,471.13754629319493L618.2541355769231,546.0350772046788L618.7418692307692,214.00705508424045L619.1704836538462,447.3123472943262L619.7321163461539,333.1590989628231L620.2050701923077,-294.0603530380241L620.7223634615384,337.62132659234663L623.1610317307693,493.498143110324L625.5701403846153,478.37771881768197L626.0874336538461,180.28572368479539L626.5603875,469.2208273608121L627.0185615384615,498.4420063011477L628.4965423076924,171.66711067258922L629.4867894230769,447.5157534035227L630.8317519230769,460.6614963309354L631.3490451923077,377.3083412044992L632.8270259615385,552.2025537438814L635.2656942307692,448.160622123092L635.8125471153846,178.79443728017696L637.1722894230769,-395.4884526217744L637.6748028846154,-80.24720143000985L638.1920961538461,196.97416374088303L639.0493250000001,179.7203700396284L640.438626923077,396.5731771900707L644.6065326923077,496.52440766910956L645.5228807692307,302.8926413431278L645.9514951923077,145.9201589044209L647.8137509615384,395.9440453198913L649.2621721153846,441.06897222374874L650.2671990384615,376.19600986252124L651.7008403846154,217.71156807729534L652.1442346153847,576.7832681300804L653.0901423076923,-159.25703499700307L655.57315,86.86298870907115L656.0756634615385,386.7852967193046L658.4256528846154,425.38876571709017L659.2533221153845,174.3423261966899L659.6967163461538,-3.084346161612018L660.1696701923076,278.88827684778755L660.5982846153846,-215.91233190004846L664.0419798076923,451.10732273527213L664.9287682692308,183.2796837173486L665.3869423076924,323.93183153352584L666.8501432692308,463.04875683452053L667.825610576923,480.2537760771067L668.3133442307692,137.06578638458285L668.7271788461538,437.3967148847231L670.1460403846154,413.57210235229127L671.1215076923077,248.82625165355338L672.1117548076924,484.86721430294307L673.5453961538461,101.54713084486622L674.0331298076924,412.991549451968L674.5060836538462,371.88792516149505L674.9642576923077,304.68566472952887L675.9101653846153,526.4941621439389L681.0683182692308,540.4491310098609L681.5264923076924,236.29238870863466L681.9846663461539,-80.7412994030941L686.8176634615385,467.2863678187132L687.2758375000001,373.9867907947369L687.7192317307693,-147.14796924120878L688.7242586538462,-193.5899531457237L689.6258269230768,330.92221822809853L690.4239365384616,-10.751417379955683L691.310725,143.36766148224058L692.6852471153846,501.69655292049475L694.0893288461538,160.1825827998853L694.4440442307692,291.79254221980875L697.8138403846153,446.50898602018583L698.3163538461539,352.7696569129443L698.7301884615385,425.92934115529835L699.6613163461539,1.1899189748866092L701.3609942307692,334.5206785404815L702.3512413461539,208.5987104753957L702.8537548076923,-234.3439945676041L709.2681913461538,462.7173544254716L709.8150442307692,375.50461480562484L710.2584384615385,279.07785212351394L710.7609519230768,298.4691204984394L711.7364192307692,39.51540288158378L712.209373076923,254.92579583048223L713.0222625,375.55500204699473L713.5247759615385,422.2318168872832L716.8650124999999,498.6345627812617L718.5203509615385,350.1546519430315L718.9637451923078,372.8125383714634L719.8800932692308,442.4103187093343L720.8112211538462,393.18794629970216L721.2546153846154,153.26633523737672L722.4517798076923,401.1640364580865L722.7917153846154,223.43655568986043L724.2549163461538,-169.54697960995452L725.2599432692308,414.5771103363174L726.6640249999999,37.10131153851074L727.5360336538462,-160.42928365995044L727.9498682692308,174.47648039412968L728.8809961538461,-95.73920108262814L731.3935634615384,-74.61536423650494L732.5907278846154,114.24002393858973L733.8322317307692,354.51243967458464L734.6599009615385,526.2089928389986L735.0885153846154,-34.63340587879719L735.9605240384616,256.56971012530266L737.2315874999999,394.6659394650843L746.6611048076924,430.182688988881L747.0749394230769,102.25079282473433L747.8878288461539,34.94770903782529L748.331223076923,539.0957619623191L748.7746173076923,177.72442926606163L749.2327913461538,282.1262557902923L749.6614057692308,301.3521406300133L750.4151759615385,434.21410814830193L751.8488173076923,501.08350000512695L752.3513307692308,137.95829055713128L752.7356057692308,369.50999924869717L754.4205038461539,465.34281804684235L755.3220721153846,529.6908929470487L756.0906221153846,252.54874961733972L758.1450153846154,599.9165100417174L758.9283451923077,-391.44173646279114L759.2978403846155,259.23060609390245L760.2585278846153,-27.79119970394663L761.0861971153846,-61.19857607084049L762.7710951923077,104.37839531338409L763.6283240384615,-2.117556240390229L764.1160576923077,514.5658257951145L764.9732865384616,128.23115823478693L765.3723413461538,441.65353264472407L765.7566163461538,493.84660191824594L766.2739096153846,155.19453913748214L766.6877442307692,508.8015938034805L767.1163586538462,319.2942993115737L767.8701288461539,-95.25067454069443L768.2544038461539,217.30504909212078L768.5943394230769,322.4692331121122L769.0081740384616,210.19697813254444L769.8210634615384,339.8572298830097L771.0034480769231,172.94120900674412L771.7424384615384,450.79693537354535L772.5405480769231,556.4312211149113L773.7968317307692,348.7240648146318L774.6245009615385,492.9582030107558L782.0439644230769,518.8704894419254L782.4282394230769,214.63594259340445L783.6401836538462,29.754841972336465L784.4087336538461,488.85406201315993L785.2511826923077,473.7918933865828L785.6502375,353.23311201470074L786.5074663461538,-77.77162885546892L790.5719134615384,-14.050975298334379L790.9414086538461,229.89066770009552L791.2813442307693,177.73479017311345L791.7099586538461,454.19531288654093L793.0105817307692,397.8566589872159L793.4096365384615,254.82531458096085L794.2520855769232,541.1237140288997L794.6511403846154,273.5063232286031L795.8483048076923,502.4535344739173L799.2772201923077,-57.341679548598904L799.7058346153846,322.1523457473765L801.1690355769231,353.1187021873031L802.4696586538462,-14.2605393051183L803.5781442307692,217.82368091114847L804.3762538461539,-27.5635529820251L805.6177576923077,526.6499178551377L806.2976288461538,235.63300494475212L806.6966836538461,407.1934978958064L807.3765548076923,107.31004328701721L807.8199490384616,294.20570499102337L808.2190038461538,-122.1523787231094L810.1994980769231,-34.14331542636501L810.5689932692308,259.74855370208707L810.864589423077,371.87321462836957L811.5444605769231,64.65115887810111L812.7268451923077,436.36311666189835L813.1259,249.2185976998363L813.4658355769232,457.8685965418311L814.5447615384616,95.32452646059551L815.195073076923,423.15080979389796L815.6089076923076,204.32014458502655L815.9488432692307,433.87302904304426L816.3183384615385,537.9555734645885L818.2101538461538,184.6875452713187L819.7915932692307,594.197191604709L820.2054278846153,179.51559550874583L820.574923076923,210.68516256905664L820.9444182692308,199.4188490830808L821.6686288461539,316.42491452465765L822.0085644230769,436.916447745109L823.2057288461539,-62.476193203616674L823.9742788461538,220.61623859483126L824.3733336538462,323.5673915151985L824.7723884615385,-425.93505318200266L825.4670394230769,469.4571244626778L826.2503692307693,62.12661635607947L826.5755250000001,277.32035882874817L826.9450201923077,247.01177337000263L828.2013038461539,465.5232053483908L828.8368355769231,233.87253044559878L829.2358903846155,356.8515121859382L829.9453211538461,177.40241032000304L831.6006596153846,375.08890784627226L831.9849346153846,239.40202924586546L832.723925,-22.960573407646734L836.4484365384616,436.9109251861616L838.3993711538461,375.29421997138866L838.7984259615384,244.6933738005496L839.5226365384616,391.8235810064685L841.9908644230769,434.6243414209101L842.3751394230769,277.15482867693447L843.4392855769231,6.054560324526392L844.207835576923,180.8670585403678L844.6216701923076,-676.0581012975113L848.4792,469.4763312384861L849.1738509615385,147.4206332832174L850.3266759615384,-416.07537944492003L850.6666115384616,208.18217268859087L852.2037115384616,-156.73249247498143L853.7703711538461,212.61888902810944L854.1989855769231,114.37843001769699L854.8936365384616,508.47297711000687L855.3222509615384,31.34182015057496L855.6326269230769,464.8417313487185L856.7558923076923,224.44542457792946L857.1845067307692,365.00882047332317L858.2486528846155,464.7285433263977L858.618148076923,177.08850415965492L859.0911019230768,143.76264662748952L860.1404682692307,125.20596886446904L860.539523076923,99.66222771668492L860.9237980769232,311.20521661968087L862.7417144230769,120.63309456718463L863.1555490384616,473.5189421324111L863.4511451923078,444.814342378574L864.1457961538462,241.48554900734192L865.2986211538462,89.55389221035875L865.6385567307692,511.5435687569811L866.0819509615384,-373.51443493096554L866.495785576923,108.67934467276143L868.2398028846154,549.7779548771473L872.4224884615385,441.4664987235576L872.8067634615384,231.68129634854589L873.220598076923,-89.013213006689L873.9743682692307,70.28573291497821L874.2995240384615,375.6478592328365L875.0532942307693,382.24213672148954L875.7922846153846,241.18307894251322L876.147,499.5398225988126L878.1570538461538,-47.59030661352966L878.5117692307692,188.12511829118012L880.0340894230769,58.00414828233056L880.3592451923076,103.30770308842568L880.6548413461538,293.4543437409544L880.9947769230769,584.5361345009215L882.2658403846153,-10.646048910126808L883.6403624999999,261.7797802062737L884.4828115384615,468.4980074773387L884.8375269230769,336.51217194356855L885.1774625,469.0645340553795L885.5321778846154,562.0077105384343L885.901673076923,0.0651740933276983L886.2268288461539,18.232144909031263L887.7934884615385,509.24853010059775L889.8478817307692,177.19230871898537L890.1878173076923,565.1524657535742L891.4884403846154,395.03125918306694L891.7840365384616,200.58816541384374L892.4934673076923,450.8440481773092L892.7595038461538,509.6424889295821L893.4541548076922,23.96485432968217L893.8827692307692,-87.26691144642734L896.469235576923,-397.3570324341289L896.8830701923076,350.2187722734654L897.9915557692308,201.2216957822998L898.390610576923,414.1385311859259L901.1692144230769,533.2118419453553L903.6078826923076,0.803242104160347L906.1500096153846,448.0648326050658" style="fill: none;" fill="none"></path></g></g></g></g></g></g><g transform="translate(68, 377)" clip-path="url(#clip_1)"><clipPath id="clip_1"><rect width="960" height="22"></rect></clipPath><g><g><line x1="0" y1="0" x2="0" y2="5" style="visibility: inherit;" fill="rgb(0, 0, 0)" stroke="rgb(204, 204, 204)" stroke-width="1px"></line><line x1="73.89903846153847" y1="0" x2="73.89903846153847" y2="5" style="visibility: inherit;" fill="rgb(0, 0, 0)" stroke="rgb(204, 204, 204)" stroke-width="1px"></line><line x1="147.79807692307693" y1="0" x2="147.79807692307693" y2="5" style="visibility: inherit;" fill="rgb(0, 0, 0)" stroke="rgb(204, 204, 204)" stroke-width="1px"></line><line x1="221.6971153846154" y1="0" x2="221.6971153846154" y2="5" style="visibility: inherit;" fill="rgb(0, 0, 0)" stroke="rgb(204, 204, 204)" stroke-width="1px"></line><line x1="295.59615384615387" y1="0" x2="295.59615384615387" y2="5" style="visibility: inherit;" fill="rgb(0, 0, 0)" stroke="rgb(204, 204, 204)" stroke-width="1px"></line><line x1="369.4951923076923" y1="0" x2="369.4951923076923" y2="5" style="visibility: inherit;" fill="rgb(0, 0, 0)" stroke="rgb(204, 204, 204)" stroke-width="1px"></line><line x1="443.3942307692308" y1="0" x2="443.3942307692308" y2="5" style="visibility: inherit;" fill="rgb(0, 0, 0)" stroke="rgb(204, 204, 204)" stroke-width="1px"></line><line x1="517.2932692307692" y1="0" x2="517.2932692307692" y2="5" style="visibility: inherit;" fill="rgb(0, 0, 0)" stroke="rgb(204, 204, 204)" stroke-width="1px"></line><line x1="591.1923076923077" y1="0" x2="591.1923076923077" y2="5" style="visibility: inherit;" fill="rgb(0, 0, 0)" stroke="rgb(204, 204, 204)" stroke-width="1px"></line><line x1="665.0913461538462" y1="0" x2="665.0913461538462" y2="5" style="visibility: inherit;" fill="rgb(0, 0, 0)" stroke="rgb(204, 204, 204)" stroke-width="1px"></line><line x1="738.9903846153846" y1="0" x2="738.9903846153846" y2="5" style="visibility: inherit;" fill="rgb(0, 0, 0)" stroke="rgb(204, 204, 204)" stroke-width="1px"></line><line x1="812.8894230769231" y1="0" x2="812.8894230769231" y2="5" style="visibility: inherit;" fill="rgb(0, 0, 0)" stroke="rgb(204, 204, 204)" stroke-width="1px"></line><line x1="886.7884615384615" y1="0" x2="886.7884615384615" y2="5" style="visibility: inherit;" fill="rgb(0, 0, 0)" stroke="rgb(204, 204, 204)" stroke-width="1px"></line><line x1="960.6875" y1="0" x2="960.6875" y2="5" style="visibility: inherit;" fill="rgb(0, 0, 0)" stroke="rgb(204, 204, 204)" stroke-width="1px"></line></g><g transform="translate(0, 8)"><text x="0" y="0" dx="0em" dy="0.95em" style="text-anchor: middle; visibility: hidden; font-family: &quot;Helvetica Neue&quot;, sans-serif; font-size: 12px; font-weight: 200;" fill="rgb(50, 49, 63)" stroke="none" stroke-width="1px">-5k</text><text x="73.89903846153847" y="0" dx="0em" dy="0.95em" style="text-anchor: middle; visibility: inherit; font-family: &quot;Helvetica Neue&quot;, sans-serif; font-size: 12px; font-weight: 200;" fill="rgb(50, 49, 63)" stroke="none" stroke-width="1px">0</text><text x="147.79807692307693" y="0" dx="0em" dy="0.95em" style="text-anchor: middle; visibility: inherit; font-family: &quot;Helvetica Neue&quot;, sans-serif; font-size: 12px; font-weight: 200;" fill="rgb(50, 49, 63)" stroke="none" stroke-width="1px">5k</text><text x="221.6971153846154" y="0" dx="0em" dy="0.95em" style="text-anchor: middle; visibility: inherit; font-family: &quot;Helvetica Neue&quot;, sans-serif; font-size: 12px; font-weight: 200;" fill="rgb(50, 49, 63)" stroke="none" stroke-width="1px">10k</text><text x="295.59615384615387" y="0" dx="0em" dy="0.95em" style="text-anchor: middle; visibility: inherit; font-family: &quot;Helvetica Neue&quot;, sans-serif; font-size: 12px; font-weight: 200;" fill="rgb(50, 49, 63)" stroke="none" stroke-width="1px">15k</text><text x="369.4951923076923" y="0" dx="0em" dy="0.95em" style="text-anchor: middle; visibility: inherit; font-family: &quot;Helvetica Neue&quot;, sans-serif; font-size: 12px; font-weight: 200;" fill="rgb(50, 49, 63)" stroke="none" stroke-width="1px">20k</text><text x="443.3942307692308" y="0" dx="0em" dy="0.95em" style="text-anchor: middle; visibility: inherit; font-family: &quot;Helvetica Neue&quot;, sans-serif; font-size: 12px; font-weight: 200;" fill="rgb(50, 49, 63)" stroke="none" stroke-width="1px">25k</text><text x="517.2932692307692" y="0" dx="0em" dy="0.95em" style="text-anchor: middle; visibility: inherit; font-family: &quot;Helvetica Neue&quot;, sans-serif; font-size: 12px; font-weight: 200;" fill="rgb(50, 49, 63)" stroke="none" stroke-width="1px">30k</text><text x="591.1923076923077" y="0" dx="0em" dy="0.95em" style="text-anchor: middle; visibility: inherit; font-family: &quot;Helvetica Neue&quot;, sans-serif; font-size: 12px; font-weight: 200;" fill="rgb(50, 49, 63)" stroke="none" stroke-width="1px">35k</text><text x="665.0913461538462" y="0" dx="0em" dy="0.95em" style="text-anchor: middle; visibility: inherit; font-family: &quot;Helvetica Neue&quot;, sans-serif; font-size: 12px; font-weight: 200;" fill="rgb(50, 49, 63)" stroke="none" stroke-width="1px">40k</text><text x="738.9903846153846" y="0" dx="0em" dy="0.95em" style="text-anchor: middle; visibility: inherit; font-family: &quot;Helvetica Neue&quot;, sans-serif; font-size: 12px; font-weight: 200;" fill="rgb(50, 49, 63)" stroke="none" stroke-width="1px">45k</text><text x="812.8894230769231" y="0" dx="0em" dy="0.95em" style="text-anchor: middle; visibility: inherit; font-family: &quot;Helvetica Neue&quot;, sans-serif; font-size: 12px; font-weight: 200;" fill="rgb(50, 49, 63)" stroke="none" stroke-width="1px">50k</text><text x="886.7884615384615" y="0" dx="0em" dy="0.95em" style="text-anchor: middle; visibility: inherit; font-family: &quot;Helvetica Neue&quot;, sans-serif; font-size: 12px; font-weight: 200;" fill="rgb(50, 49, 63)" stroke="none" stroke-width="1px">55k</text><text x="960.6875" y="0" dx="0em" dy="0.95em" style="text-anchor: middle; visibility: hidden; font-family: &quot;Helvetica Neue&quot;, sans-serif; font-size: 12px; font-weight: 200;" fill="rgb(50, 49, 63)" stroke="none" stroke-width="1px">60k</text></g><line x1="0" y1="0" x2="960.6875" y2="0" fill="rgb(0, 0, 0)" stroke="rgb(204, 204, 204)" stroke-width="1px"></line></g></g></g></g></svg>