<svg viewBox="0 0 1029 400" xmlns="http://www.w3.org/2000/svg"><g><g><g><g><g><line x1="68.3125" y1="377.828125" x2="63.3125" y2="377.828125" style="visibility: inherit;" fill="rgb(0, 0, 0)" stroke="rgb(204, 204, 204)" stroke-width="1px"></line><line x1="68.3125" y1="352.63958333333335" x2="63.3125" y2="352.63958333333335" style="visibility: inherit;" fill="rgb(0, 0, 0)" stroke="rgb(204, 204, 204)" stroke-width="1px"></line><line x1="68.3125" y1="327.4510416666667" x2="63.3125" y2="327.4510416666667" style="visibility: inherit;" fill="rgb(0, 0, 0)" stroke="rgb(204, 204, 204)" stroke-width="1px"></line><line x1="68.3125" y1="302.2625" x2="63.3125" y2="302.2625" style="visibility: inherit;" fill="rgb(0, 0, 0)" stroke="rgb(204, 204, 204)" stroke-width="1px"></line><line x1="68.3125" y1="277.0739583333334" x2="63.3125" y2="277.0739583333334" style="visibility: inherit;" fill="rgb(0, 0, 0)" stroke="rgb(204, 204, 204)" stroke-width="1px"></line><line x1="68.3125" y1="251.88541666666669" x2="63.3125" y2="251.88541666666669" style="visibility: inherit;" fill="rgb(0, 0, 0)" stroke="rgb(204, 204, 204)" stroke-width="1px"></line><line x1="68.3125" y1="226.696875" x2="63.3125" y2="226.696875" style="visibility: inherit;" fill="rgb(0, 0, 0)" stroke="rgb(204, 204, 204)" stroke-width="1px"></line><line x1="68.3125" y1="201.50833333333333" x2="63.3125" y2="201.50833333333333" style="visibility: inherit;" fill="rgb(0, 0, 0)" stroke="rgb(204, 204, 204)" stroke-width="1px"></line><line x1="68.3125" y1="176.31979166666667" x2="63.3125" y2="176.31979166666667" style="visibility: inherit;" fill="rgb(0, 0, 0)" stroke="rgb(204, 204, 204)" stroke-width="1px"></line><line x1="68.3125" y1="151.13125000000005" x2="63.3125" y2="151.13125000000005" style="visibility: inherit;" fill="rgb(0, 0, 0)" stroke="rgb(204, 204, 204)" stroke-width="1px"></line><line x1="68.3125" y1="125.94270833333334" x2="63.3125" y2="125.94270833333334" style="visibility: inherit;" fill="rgb(0, 0, 0)" stroke="rgb(204, 204, 204)" stroke-width="1px"></line><line x1="68.3125" y1="100.75416666666672" x2="63.3125" y2="100.75416666666672" style="visibility: inherit;" fill="rgb(0, 0, 0)" stroke="rgb(204, 204, 204)" stroke-width="1px"></line><line x1="68.3125" y1="75.56562500000001" x2="63.3125" y2="75.56562500000001" style="visibility: inherit;" fill="rgb(0, 0, 0)" stroke="rgb(204, 204, 204)" stroke-width="1px"></line><line x1="68.3125" y1="50.37708333333336" x2="63.3125" y2="50.37708333333336" style="visibility: inherit;" fill="rgb(0, 0, 0)" stroke="rgb(204, 204, 204)" stroke-width="1px"></line><line x1="68.3125" y1="25.188541666666595" x2="63.3125" y2="25.188541666666595" style="visibility: inherit;" fill="rgb(0, 0, 0)" stroke="rgb(204, 204, 204)" stroke-width="1px"></line><line x1="68.3125" y1="0" x2="63.3125" y2="0" style="visibility: inherit;" fill="rgb(0, 0, 0)" stroke="rgb(204, 204, 204)" stroke-width="1px"></line></g><g transform="translate(58.3125, 0)"><text x="0" y="377.828125" dx="0em" dy="0.3em" style="text-anchor: end; visibility: hidden; font-family: &quot;Helvetica Neue&quot;, sans-serif; font-size: 12px; font-weight: 200;" fill="rgb(50, 49, 63)" stroke="none" stroke-width="1px">1.6e-3</text><text x="0" y="352.63958333333335" dx="0em" dy="0.3em" style="text-anchor: end; visibility: inherit; font-family: &quot;Helvetica Neue&quot;, sans-serif; font-size: 12px; font-weight: 200;" fill="rgb(50, 49, 63)" stroke="none" stroke-width="1px">1.8e-3</text><text x="0" y="327.4510416666667" dx="0em" dy="0.3em" style="text-anchor: end; visibility: inherit; font-family: &quot;Helvetica Neue&quot;, sans-serif; font-size: 12px; font-weight: 200;" fill="rgb(50, 49, 63)" stroke="none" stroke-width="1px">2e-3</text><text x="0" y="302.2625" dx="0em" dy="0.3em" style="text-anchor: end; visibility: inherit; font-family: &quot;Helvetica Neue&quot;, sans-serif; font-size: 12px; font-weight: 200;" fill="rgb(50, 49, 63)" stroke="none" stroke-width="1px">2.2e-3</text><text x="0" y="277.0739583333334" dx="0em" dy="0.3em" style="text-anchor: end; visibility: inherit; font-family: &quot;Helvetica Neue&quot;, sans-serif; font-size: 12px; font-weight: 200;" fill="rgb(50, 49, 63)" stroke="none" stroke-width="1px">2.4e-3</text><text x="0" y="251.88541666666669" dx="0em" dy="0.3em" style="text-anchor: end; visibility: inherit; font-family: &quot;Helvetica Neue&quot;, sans-serif; font-size: 12px; font-weight: 200;" fill="rgb(50, 49, 63)" stroke="none" stroke-width="1px">2.6e-3</text><text x="0" y="226.696875" dx="0em" dy="0.3em" style="text-anchor: end; visibility: inherit; font-family: &quot;Helvetica Neue&quot;, sans-serif; font-size: 12px; font-weight: 200;" fill="rgb(50, 49, 63)" stroke="none" stroke-width="1px">2.8e-3</text><text x="0" y="201.50833333333333" dx="0em" dy="0.3em" style="text-anchor: end; visibility: inherit; font-family: &quot;Helvetica Neue&quot;, sans-serif; font-size: 12px; font-weight: 200;" fill="rgb(50, 49, 63)" stroke="none" stroke-width="1px">3e-3</text><text x="0" y="176.31979166666667" dx="0em" dy="0.3em" style="text-anchor: end; visibility: inherit; font-family: &quot;Helvetica Neue&quot;, sans-serif; font-size: 12px; font-weight: 200;" fill="rgb(50, 49, 63)" stroke="none" stroke-width="1px">3.2e-3</text><text x="0" y="151.13125000000005" dx="0em" dy="0.3em" style="text-anchor: end; visibility: inherit; font-family: &quot;Helvetica Neue&quot;, sans-serif; font-size: 12px; font-weight: 200;" fill="rgb(50, 49, 63)" stroke="none" stroke-width="1px">3.4e-3</text><text x="0" y="125.94270833333334" dx="0em" dy="0.3em" style="text-anchor: end; visibility: inherit; font-family: &quot;Helvetica Neue&quot;, sans-serif; font-size: 12px; font-weight: 200;" fill="rgb(50, 49, 63)" stroke="none" stroke-width="1px">3.6e-3</text><text x="0" y="100.75416666666672" dx="0em" dy="0.3em" style="text-anchor: end; visibility: inherit; font-family: &quot;Helvetica Neue&quot;, sans-serif; font-size: 12px; font-weight: 200;" fill="rgb(50, 49, 63)" stroke="none" stroke-width="1px">3.8e-3</text><text x="0" y="75.56562500000001" dx="0em" dy="0.3em" style="text-anchor: end; visibility: inherit; font-family: &quot;Helvetica Neue&quot;, sans-serif; font-size: 12px; font-weight: 200;" fill="rgb(50, 49, 63)" stroke="none" stroke-width="1px">4e-3</text><text x="0" y="50.37708333333336" dx="0em" dy="0.3em" style="text-anchor: end; visibility: inherit; font-family: &quot;Helvetica Neue&quot;, sans-serif; font-size: 12px; font-weight: 200;" fill="rgb(50, 49, 63)" stroke="none" stroke-width="1px">4.2e-3</text><text x="0" y="25.188541666666595" dx="0em" dy="0.3em" style="text-anchor: end; visibility: inherit; font-family: &quot;Helvetica Neue&quot;, sans-serif; font-size: 12px; font-weight: 200;" fill="rgb(50, 49, 63)" stroke="none" stroke-width="1px">4.4e-3</text><text x="0" y="0" dx="0em" dy="0.3em" style="text-anchor: end; visibility: hidden; font-family: &quot;Helvetica Neue&quot;, sans-serif; font-size: 12px; font-weight: 200;" fill="rgb(50, 49, 63)" stroke="none" stroke-width="1px">4.6e-3</text></g><line x1="68.3125" y1="0" x2="68.3125" y2="377.828125" fill="rgb(0, 0, 0)" stroke="rgb(204, 204, 204)" stroke-width="1px"></line></g></g><g transform="translate(68, 0)" clip-path="url(#clip_0)"><clipPath id="clip_0"><rect width="960" height="377"></rect></clipPath><g><g><g><line x1="0" y1="0" x2="0" y2="377.828125" fill="rgb(0, 0, 0)" stroke="rgb(60, 60, 60)" stroke-width="1px" opacity="0.25"></line><line x1="73.89903846153847" y1="0" x2="73.89903846153847" y2="377.828125" fill="rgb(0, 0, 0)" stroke="rgb(60, 60, 60)" stroke-width="1px" opacity="0.25"></line><line x1="147.79807692307693" y1="0" x2="147.79807692307693" y2="377.828125" fill="rgb(0, 0, 0)" stroke="rgb(60, 60, 60)" stroke-width="1px" opacity="0.25"></line><line x1="221.6971153846154" y1="0" x2="221.6971153846154" y2="377.828125" fill="rgb(0, 0, 0)" stroke="rgb(60, 60, 60)" stroke-width="1px" opacity="0.25"></line><line x1="295.59615384615387" y1="0" x2="295.59615384615387" y2="377.828125" fill="rgb(0, 0, 0)" stroke="rgb(60, 60, 60)" stroke-width="1px" opacity="0.25"></line><line x1="369.4951923076923" y1="0" x2="369.4951923076923" y2="377.828125" fill="rgb(0, 0, 0)" stroke="rgb(60, 60, 60)" stroke-width="1px" opacity="0.25"></line><line x1="443.3942307692308" y1="0" x2="443.3942307692308" y2="377.828125" fill="rgb(0, 0, 0)" stroke="rgb(60, 60, 60)" stroke-width="1px" opacity="0.25"></line><line x1="517.2932692307692" y1="0" x2="517.2932692307692" y2="377.828125" fill="rgb(0, 0, 0)" stroke="rgb(60, 60, 60)" stroke-width="1px" opacity="0.25"></line><line x1="591.1923076923077" y1="0" x2="591.1923076923077" y2="377.828125" fill="rgb(0, 0, 0)" stroke="rgb(60, 60, 60)" stroke-width="1px" opacity="0.25"></line><line x1="665.0913461538462" y1="0" x2="665.0913461538462" y2="377.828125" fill="rgb(0, 0, 0)" stroke="rgb(60, 60, 60)" stroke-width="1px" opacity="0.25"></line><line x1="738.9903846153846" y1="0" x2="738.9903846153846" y2="377.828125" fill="rgb(0, 0, 0)" stroke="rgb(60, 60, 60)" stroke-width="1px" opacity="0.25"></line><line x1="812.8894230769231" y1="0" x2="812.8894230769231" y2="377.828125" fill="rgb(0, 0, 0)" stroke="rgb(60, 60, 60)" stroke-width="1px" opacity="0.25"></line><line x1="886.7884615384615" y1="0" x2="886.7884615384615" y2="377.828125" fill="rgb(0, 0, 0)" stroke="rgb(60, 60, 60)" stroke-width="1px" opacity="0.25"></line><line x1="960.6875" y1="0" x2="960.6875" y2="377.828125" fill="rgb(0, 0, 0)" stroke="rgb(60, 60, 60)" stroke-width="1px" opacity="0.25"></line></g><g><line x1="0" y1="377.828125" x2="960.6875" y2="377.828125" fill="rgb(0, 0, 0)" stroke="rgb(60, 60, 60)" stroke-width="1px" opacity="0.25"></line><line x1="0" y1="352.63958333333335" x2="960.6875" y2="352.63958333333335" fill="rgb(0, 0, 0)" stroke="rgb(60, 60, 60)" stroke-width="1px" opacity="0.25"></line><line x1="0" y1="327.4510416666667" x2="960.6875" y2="327.4510416666667" fill="rgb(0, 0, 0)" stroke="rgb(60, 60, 60)" stroke-width="1px" opacity="0.25"></line><line x1="0" y1="302.2625" x2="960.6875" y2="302.2625" fill="rgb(0, 0, 0)" stroke="rgb(60, 60, 60)" stroke-width="1px" opacity="0.25"></line><line x1="0" y1="277.0739583333334" x2="960.6875" y2="277.0739583333334" fill="rgb(0, 0, 0)" stroke="rgb(60, 60, 60)" stroke-width="1px" opacity="0.25"></line><line x1="0" y1="251.88541666666669" x2="960.6875" y2="251.88541666666669" fill="rgb(0, 0, 0)" stroke="rgb(60, 60, 60)" stroke-width="1px" opacity="0.25"></line><line x1="0" y1="226.696875" x2="960.6875" y2="226.696875" fill="rgb(0, 0, 0)" stroke="rgb(60, 60, 60)" stroke-width="1px" opacity="0.25"></line><line x1="0" y1="201.50833333333333" x2="960.6875" y2="201.50833333333333" fill="rgb(0, 0, 0)" stroke="rgb(60, 60, 60)" stroke-width="1px" opacity="0.25"></line><line x1="0" y1="176.31979166666667" x2="960.6875" y2="176.31979166666667" fill="rgb(0, 0, 0)" stroke="rgb(60, 60, 60)" stroke-width="1px" opacity="0.25"></line><line x1="0" y1="151.13125000000005" x2="960.6875" y2="151.13125000000005" fill="rgb(0, 0, 0)" stroke="rgb(60, 60, 60)" stroke-width="1px" opacity="0.25"></line><line x1="0" y1="125.94270833333334" x2="960.6875" y2="125.94270833333334" fill="rgb(0, 0, 0)" stroke="rgb(60, 60, 60)" stroke-width="1px" opacity="0.25"></line><line x1="0" y1="100.75416666666672" x2="960.6875" y2="100.75416666666672" fill="rgb(0, 0, 0)" stroke="rgb(60, 60, 60)" stroke-width="1px" opacity="0.25"></line><line x1="0" y1="75.56562500000001" x2="960.6875" y2="75.56562500000001" fill="rgb(0, 0, 0)" stroke="rgb(60, 60, 60)" stroke-width="1px" opacity="0.25"></line><line x1="0" y1="50.37708333333336" x2="960.6875" y2="50.37708333333336" fill="rgb(0, 0, 0)" stroke="rgb(60, 60, 60)" stroke-width="1px" opacity="0.25"></line><line x1="0" y1="25.188541666666595" x2="960.6875" y2="25.188541666666595" fill="rgb(0, 0, 0)" stroke="rgb(60, 60, 60)" stroke-width="1px" opacity="0.25"></line><line x1="0" y1="0" x2="960.6875" y2="0" fill="rgb(0, 0, 0)" stroke="rgb(60, 60, 60)" stroke-width="1px" opacity="0.25"></line></g></g></g><g><g><line x1="0" y1="579.3364583333333" x2="960.6875" y2="579.3364583333333" fill="rgb(0, 0, 0)" stroke="rgb(153, 153, 153)" stroke-width="1.5px"></line></g></g><g><g><line x1="73.89903846153847" y1="0" x2="73.89903846153847" y2="377.828125" fill="rgb(0, 0, 0)" stroke="rgb(153, 153, 153)" stroke-width="1.5px"></line></g></g><g><g><g><g><g><path stroke="rgb(255, 112, 67)" stroke-width="2px" d="M93.42316442307693,-1.6959432465421287L94.01435673076922,5.598175542087404L95.19674134615384,20.075937022550136L96.97031826923076,18.417625372068812L97.56151057692307,22.235069626604854L98.7438951923077,37.143123927799195L99.3350875,48.74816580503489L99.92627980769231,56.72925308764309L100.51747211538462,66.64810935649757L101.10866442307693,77.95662286188968L101.69985673076924,54.85748916816186L102.88224134615385,63.175989311495584L103.47343365384616,56.207460454659554L105.24701057692307,65.81542460844724L105.83820288461538,72.84925053049386L106.4293951923077,74.8377184277661L107.0205875,68.70409149586703L107.6117798076923,68.64623682033755L109.38535673076923,69.44387042347881L109.97654903846154,68.17105503009833L110.56774134615384,79.53390854893092L111.15893365384615,72.83411501194456L111.75012596153846,76.63316651644112L112.34131826923077,73.55440128648559L112.93251057692306,85.60688951191156L113.52370288461537,56.73572078338026L114.1148951923077,63.95560731473353L114.70608750000001,72.98383823821257L115.88847211538462,75.801749205671L116.47966442307693,78.83123856689053L117.07085673076924,60.52520004078821L117.66204903846155,76.69026511610122L118.84443365384615,58.85939089035412L120.02681826923077,50.91087887431735L120.61801057692308,53.8918591501141L121.80039519230769,38.285851614287765L122.39158750000001,38.41374469221347L123.57397211538462,42.491116075991044L124.16516442307692,47.78616118032693L124.75635673076924,52.30096803429268L125.34754903846154,44.59350622625152L125.93874134615386,49.58877944821961L126.52993365384614,59.809368942767264L127.71231826923076,66.43215005014383L128.3035105769231,59.740333868689106L128.89470288461538,68.31310011015216L129.4858951923077,68.71206753514093L130.6682798076923,57.74742274974642L132.44185673076922,56.28117757024654L133.03304903846154,63.09943306289233L133.62424134615384,68.29646794515668L134.21543365384616,71.00473293713827L135.39781826923078,61.58909190968012L135.98901057692308,70.2090601836154L136.58020288461537,70.61915356319099L138.35377980769232,63.43584204940413L138.94497211538462,72.54084449376887L140.71854903846156,76.30042589529421L142.49212596153845,81.00061626475815L143.08331826923077,80.1782995235643L143.67451057692307,97.06840361621329L144.2657028846154,108.3639047579756L144.8568951923077,116.59554185244207L146.63047211538463,116.34438840230195L147.2216644230769,116.06272524030953L147.81285673076923,114.68664722421244L148.40404903846152,103.72811089201434L148.99524134615385,104.65606565642315L150.17762596153847,110.64580661713535L150.76881826923076,111.8856419068523L152.54239519230768,117.18588170975414L154.31597211538462,110.70382521141437L154.90716442307692,113.13346930010636L156.08954903846154,113.21476950590784L157.27193365384616,119.37840791723545L157.86312596153846,97.29782675726034L158.45431826923075,80.50241805784026L159.04551057692308,73.94219321354228L159.63670288461537,66.00866709193525L160.2278951923077,74.5868560922321L161.41027980769232,78.04027791200343L162.00147211538462,71.78596804921642L162.59266442307694,75.49893324703464L163.18385673076924,80.97318739551048L164.36624134615383,83.78207576456913L164.95743365384615,57.436003320255L165.54862596153845,64.669555093763L166.73101057692307,74.22487989482124L167.3222028846154,81.62850769490501L167.9133951923077,95.26884472446056L169.0957798076923,91.74412170032684L169.6869721153846,99.46473265275182L170.86935673076923,106.17704276076421L171.46054903846155,113.98126953937498L172.64293365384617,124.68676397440134L173.23412596153847,109.2322438381201L173.8253182692308,108.45589261485827L175.00770288461538,122.94748738255524L175.59889519230768,121.51620004191045L177.37247211538462,130.77547442296716L177.96366442307692,129.94292259522715L178.55485673076925,140.2126667406695L179.14604903846154,142.80463285206403L180.32843365384613,146.11150026220082L180.91962596153846,128.69141308421845L182.10201057692308,136.7480366425217L183.2843951923077,142.88213818420624L183.8755875,132.46706498107633L184.46677980769232,135.60787295479886L185.05797211538462,137.4425608876662L186.24035673076924,139.7631712251284L186.83154903846153,142.67379318802793L188.60512596153848,153.46161528247404L190.9698951923077,156.64847527081366L191.56108749999999,156.27901201249645L193.33466442307693,164.72827214081354L193.92585673076923,174.32960431472L195.10824134615385,175.95776439862502L195.69943365384617,166.37336093632393L196.29062596153844,158.7831327546361L196.88181826923076,168.9105730844705L197.47301057692306,154.1616076301667L199.2465875,160.7765663982354L199.8377798076923,162.12548312692954L200.42897211538462,170.4155849078352L201.02016442307695,162.7851321906L202.79374134615384,150.7116863168825L203.38493365384616,142.38341789957252L203.97612596153846,150.20262192572494L204.56731826923078,160.6718224987966L205.15851057692308,168.4276167222043L205.7497028846154,176.9676385517946L206.9320875,173.37887782454246L207.5232798076923,177.67472006245887L208.11447211538461,166.8149583111304L209.29685673076924,177.4619812426729L209.88804903846153,162.02394856125665L210.47924134615386,160.84476119287814L211.07043365384615,172.01568285673648L211.66162596153848,174.4900727728505L212.25281826923077,184.87392831141617L212.84401057692307,188.27885820278178L214.0263951923077,181.0340831746149L214.61758749999998,179.07921963182292L215.7999721153846,181.08191293766382L218.16474134615385,175.71728011554345L218.75593365384614,177.2322224230518L219.93831826923076,190.2491853079353L220.5295105769231,185.67833989129755L221.12070288461538,182.33438861600212L221.7118951923077,188.3073015889649L222.3030875,191.34184575613287L222.89427980769233,173.07132013292716L223.4854721153846,173.53265364425684L224.66785673076922,167.0467415122877L226.44143365384616,176.86214119222936L227.03262596153846,179.82371122951534L227.62381826923078,191.83643740141628L228.21501057692308,172.06306433282873L229.39739519230767,169.6059305105228L230.565,171.50578936794855L231.74738461538462,166.01601379706145L232.91498942307692,168.07598093565773L234.09737403846154,172.14885201422717L234.68856634615386,169.9396563401153L235.27975865384616,180.079507433563L235.87095096153845,187.7178039970859L236.46214326923075,192.17752087260837L237.64452788461537,192.64815830083148L238.2357201923077,186.03633389581515L239.403325,192.6989777922928L239.9945173076923,195.15324052004593L240.58570961538462,200.61895549775446L241.7680942307692,208.14744309846984L244.72405576923074,211.92823342733877L245.9064403846154,218.86649206781226L246.49763269230772,226.6151369285957L247.6800173076923,218.6672738261234L248.27120961538463,218.6545529776155L248.86240192307696,204.47407740495245L249.45359423076923,213.84710751194535L250.04478653846152,213.22006920623508L250.63597884615385,209.34193770449468L251.21239134615385,213.61305202770416L251.80358365384618,198.25267365160244L252.3947759615385,201.32311488349967L252.98596826923074,207.07774993276175L255.32117788461537,211.6686461959186L255.89759038461537,223.15732372789282L257.079975,220.2841330609722L258.7944326923077,217.88665682396598L261.1444221153846,219.27035882013004L261.72083461538466,220.96281077990125L262.3120269230769,214.31725808623912L262.90321923076925,225.74641421741924L264.08560384615384,223.78072219092556L264.6767961538461,229.66417641144562L265.26798846153844,228.25611373589507L265.85918076923076,232.51062589525924L266.4503730769231,224.50478644974234L267.04156538461535,219.11276394403106L268.8151423076923,219.32734842416107L269.4063346153846,228.49428611190757L270.5591596153846,230.88338513612536L271.7119846153846,235.4263873074527L272.89436923076926,236.53635602369133L274.07675384615385,236.60786604796868L275.2591384615385,233.81257865967663L275.8503307692308,219.84509598827475L276.42674326923077,221.61409884949592L276.98837596153845,227.03419071673932L277.5795682692308,227.53368758673992L278.1559807692308,233.54427753061245L278.74717307692305,241.0559363630637L279.3383653846154,249.08375488468297L279.9147778846154,254.9706583912831L281.0823826923077,252.7431273834486L282.2647673076923,257.3826412172002L282.8559596153846,266.12225777605386L284.0235644230769,262.8873029138606L285.16160961538463,262.2814382699241L285.7380221153846,263.61458313193566L286.3144346153846,267.1584221555849L286.9056269230769,265.1033593593396L287.49681923076923,266.5178452793183L288.08801153846156,265.2466497624002L288.66442403846156,251.43800096860036L289.2112769230769,240.9832070229684L289.80246923076925,240.49505065381499L290.3936615384615,245.45839497138937L290.98485384615384,241.55506981550252L292.15245865384617,248.61604483546213L292.7436509615385,238.41628244741236L293.91125576923076,238.70313121849696L295.09364038461536,246.223833557677L295.6700528846154,247.42730279337823L296.2464653846154,248.61649894065073L296.8376576923077,234.90340221832483L297.42885,214.462591262255L298.5521153846154,214.76098342448483L299.1285278846154,209.80714759449162L300.2961326923077,220.39252380639297L300.8725451923077,231.67370110881075L301.4489576923077,243.6805069195205L302.0105903846154,250.69364172459828L302.5870028846154,254.82036487292459L303.73982788461535,261.6668505056075L304.3310201923077,261.23924379987557L304.8926528846154,257.5481928000181L305.4690653846154,264.3331353502496L307.1983028846154,262.2665163367931L308.3067884615385,266.16600766168943L308.8979807692308,260.56516255479715L310.05080576923075,258.167613755749L310.6419980769231,256.36325185493513L311.2036307692308,254.84484801057323L312.3860153846154,260.5556563090838L312.97720769230773,258.0501694943607L314.1152528846154,262.8421501170916L315.2976375,255.0332557372015L318.17969999999997,247.2506671168994L318.7708923076923,248.4512186812088L320.5444692307692,244.4306851803447L321.13566153846153,241.08177169895652L321.71207403846154,247.16016578355288L322.2589269230769,246.5108701755916L322.8057798076923,246.47840012928737L323.9290451923077,237.6044886476297L325.0523105769231,246.4188935948336L326.19035576923073,251.08790450862642L327.3727403846154,239.12916608093155L328.51078557692307,248.28439323867147L330.22524326923076,254.45977056146535L330.8164355769231,257.55416745121954L333.03340673076923,264.6979020563682L333.5802596153846,258.59915254916854L334.1566721153846,262.87031800876696L334.71830480769233,258.18127603640187L335.9006894230769,264.2525255964954L336.4623221153846,270.30720178062916L338.1767798076923,269.8031585070358L338.7531923076923,264.19715775205134L339.31482500000004,256.5375313780563L339.9060173076923,261.40963286112355L341.59091538461536,261.69650714947784L342.1673278846154,259.69846980798917L343.2905932692308,259.4580738108727L343.85222596153847,257.6788233428885L344.41385865384615,254.58196307255446L344.9607115384615,259.86328433458004L345.5371240384615,259.4588247494306L346.12831634615384,261.94272743815543L346.70472884615384,263.6996526041482L347.23680192307694,261.59421348117013L347.8279942307692,266.36842028087517L348.40440673076927,275.02247889005946L348.95125961538463,277.02761797734206L349.5128923076923,267.90545132818886L350.10408461538464,270.90450553984806L350.63615769230773,275.2936597244059L351.1830105769231,277.57592523716517L352.8974682692308,270.4222475918951L353.4295413461538,277.3827123053626L355.69085192307693,276.6994609788547L356.2672644230769,270.985115825491L358.528575,271.04457564549676L360.2430326923077,277.2237469608998L360.78988557692304,271.3827253484483L361.86881153846156,276.7322747971408L362.38610480769233,275.85724146747003L364.08578269230765,279.38109053770535L364.67697499999997,277.83840338940274L365.2681673076923,277.7728562321659L367.0121846153846,280.6547461528254L367.58859711538463,270.11973609874923L368.7118625,260.3277764917188L370.9731730769231,269.9871281576548L371.52002596153847,271.9385296991285L372.61373173076925,277.8839927119049L373.7222173076923,270.8545890903206L374.28385000000003,258.1586975209425L374.8307028846154,261.17631741629873L375.4071153846154,256.7656019609394L375.9687480769231,258.9027090791431L376.5599403846154,242.91847703597992L377.72754519230773,239.94872307342516L378.3187375,248.0874140391563L378.89515,229.25727102150188L379.4567826923077,223.11566321915564L380.0184153846154,222.9222534022377L380.5652682692308,223.73848103398473L381.11212115384615,231.27540136529663L383.2847528846154,231.27557293465838L383.8316057692308,237.38502371959424L384.37845865384617,220.20265460290952L387.7039153846154,228.44620142234925L388.84196057692304,233.16329334832074L389.38881346153846,241.77079891891125L389.95044615384614,246.45161388040952L390.54163846153847,251.27709609434794L391.10327115384615,252.37070303704374L391.66490384615383,260.33400164346637L392.24131634615384,197.0346930405806L392.8029490384615,209.9382441434239L393.34980192307694,216.33897522269461L393.92621442307694,226.56081518223812L394.4878471153846,232.89687964261796L395.06425961538463,233.85346207830517L395.6258923076923,240.19270384482658L396.17274519230773,232.0847002991738L396.7639375,224.9246154588346L397.31079038461536,208.86488135100043L397.8724230769231,209.83904422843383L399.0104682692308,208.22484944894896L399.5868807692308,219.87867238273253L400.16329326923073,225.9377045142154L401.27177884615384,229.15470123208084L402.3950442307692,237.06232737766314L403.51830961538457,237.0662981919257L404.1095019230769,214.05494513403764L405.72050096153845,222.55304013377005L406.29691346153845,228.99095524360197L406.8733259615385,231.41412767216113L407.96703173076924,240.2103791536158L408.5286644230769,234.7750099476475L409.1050769230769,232.27261714179778L410.1987826923077,239.5658050264503L411.27770865384616,248.56994534979975L411.80978173076926,239.30069257077974L412.3566346153846,238.70349310100795L413.46512019230767,248.2913867109254L413.98241346153844,256.9323725150958L415.12045865384613,263.33576698469085L415.6525317307692,259.85235480632L416.19938461538464,261.7458773486468L416.77579711538465,268.6661289430069L417.3522096153846,275.5800124291019L417.91384230769233,282.78960121988166L418.4606951923077,287.00543325795127L419.5987403846154,291.92781217182966L420.1308134615385,289.135872982229L420.69244615384616,288.6182009262036L422.3773442307692,288.9840471560349L422.8946375,289.8103076438735L423.4267105769231,291.2435375560463L425.12638846153845,288.62552424378566L426.2053144230769,286.5966366473134L426.75216730769233,286.5634306016007L427.2990201923077,274.4803364316889L428.36316634615383,278.2821282999719L428.9247990384616,279.72009800044844L429.4864317307692,265.3717193423708L430.04806442307694,273.7793656408204L430.5949173076923,273.8517275738242L431.6590634615385,279.20492681194537L432.81188846153844,268.4789900776194L433.92037403846155,245.3070082689016L434.4820067307692,242.7399489593763L435.0288596153846,246.09068543249157L436.6989778846154,248.3407373894634L438.9602884615385,243.24195549648726L439.50714134615384,238.09691792700252L440.0392144230769,243.70714826886592L440.5712875,246.34999509254757L441.1033605769231,252.91605438302398L442.1970663461538,250.48954728858092L443.2612125,252.71551849026508L444.85743173076924,253.58891685111692L445.3895048076923,240.9381530792974L446.5571096153846,236.29863332136L447.6655951923077,245.63199454657448L448.21244807692307,248.32716113401403L449.88256634615385,256.4979209957497L450.9319326923077,257.00795900322606L451.4492259615385,263.2577399681411L451.98129903846154,265.87652296412926L452.51337211538464,245.15011075168547L453.5775182692308,246.55077185848623L454.1243711538462,243.21854739546816L454.65644423076924,238.14722066707904L455.2180769230769,245.2281112748099L455.76492980769234,238.0412069427819L456.2822230769231,229.83921819520046L456.7699567307692,239.93600630688974L457.33158942307693,243.7124527846775L457.8784423076923,247.95474530047758L458.44007500000004,241.581248887178L460.0806336538462,242.4884820049933L460.62748653846154,248.8996586781066L461.73597211538464,249.4248703436939L462.77055865384614,249.128393843224L463.87904423076924,257.85216079420354L464.4258971153846,261.3036860147114L464.98752980769234,265.9785010837302L465.5196028846154,243.67026709150244L466.06645576923074,253.68469470017698L466.6280884615385,261.1886671864283L467.17494134615384,267.4425884689308L467.70701442307694,273.25129648555077L468.8007201923077,278.52543737825044L469.33279326923076,276.00380891037514L470.44127884615386,273.5889454439247L471.0029115384615,262.75381063906906L471.56454423076923,269.99911359281236L472.6434701923077,273.3088677221273L473.20510288461537,274.60376468383095L474.25446923076925,281.5288463723925L474.7569826923077,287.7943045174023L475.348175,283.4883181002932L475.88024807692307,287.65875678455285L476.41232115384616,285.3279705248655L476.9591740384615,289.280921351169L477.50602692307694,291.6978691537402L478.06765961538457,299.64852611118044L478.6145125,301.47985034948226L479.16136538461535,304.2564517700723L479.66387884615386,305.4877537933467L481.18619903846155,303.213989662686L482.32424423076924,306.875544585356L483.3588307692308,301.39885670878044L484.98460961538456,290.996711138106L485.5314625,288.84886409668127L486.03397596153843,290.1399540343454L486.53648942307694,286.8102656599693L487.05378269230766,285.61698370016666L488.16226826923076,292.31080618928956L488.7239009615385,283.19480436320475L489.2855336538462,285.70767836060355L489.8471663461538,284.7864657714722L490.3053403846154,290.4046108950127L490.83741346153846,287.6549739259786L491.3547067307692,291.47537526830445L491.88677980769233,287.0246813173479L493.95595288461544,285.47929313740894L494.4880259615385,282.90416843987157L495.55217211538456,283.70649857230524L496.5867586538461,275.14504403374343L497.14839134615386,278.8981153375812L498.24209711538464,254.75133739181734L498.81850961538464,254.44100468960784L499.32102307692304,262.0843669456596L499.79397692307685,264.37213904180567L500.3556096153846,271.69803988565275L500.8729028846154,280.31129997224923L502.4100028846154,285.1274295621997L502.92729615384616,268.95094349355304L503.4741490384616,269.7901379437013L507.1691009615385,272.9120189858998L507.70117403846155,280.42662073868127L509.2530538461538,284.9371784693057L510.80493365384615,272.188156664894L511.33700673076925,270.89040638076244L511.8690798076923,277.0729995241413L513.4357394230768,277.4497049868354L514.544225,270.2985991643654L515.0910778846154,277.063480859404L515.6231509615385,270.56129849855506L517.2637096153846,278.18028449173977L517.7810028846154,277.88817680771706L518.2982961538462,281.39091010977563L518.8451490384616,283.8612473004336L519.3920019230769,289.93275654944614L519.8945153846154,294.7418971118957L520.4265884615385,296.81626251590524L520.9734413461539,295.2196043277791L523.0278346153847,298.8788272296206L523.5599076923077,302.06808647172096L524.6388336538462,288.35353886885036L525.2300259615386,293.9448416861137L525.7473192307692,293.5997515472694L526.7375663461539,297.31025186056274L527.2548596153846,302.11866876907555L527.7869326923077,301.7847120511295L528.8362990384616,306.9203625522538L529.4274913461538,306.4824586008675L529.9595644230769,305.8091440885429L530.4916375,298.1098967337431L531.0384903846154,301.0756580496143L531.5557836538461,299.37985522151735L532.073076923077,302.571471828755L533.1520028846154,304.7722553776517L535.2211759615385,308.69974221933506L535.7089096153846,307.17627517805164L537.3051288461538,307.22356525313853L537.8372019230769,303.4595621563285L538.3544951923077,305.97272690100704L538.8865682692307,308.4445585724733L539.8620355769231,300.3600054874285L540.9409615384615,298.28642628478093L541.4878144230769,291.6338214789221L541.975548076923,293.77484170695044L542.4928413461539,299.16828922579685L543.0396942307692,298.0204152078732L543.5865471153846,303.51862793904866L545.0201884615385,304.0389380067297L545.5818211538461,307.9372845130017L547.1780403846153,307.5248907618657L547.6657740384614,313.44831047743526L548.7151403846153,315.06957007905464L550.2818,315.43869367757645L552.3509730769231,311.65941238253515L553.2968807692307,315.17449622658415L553.784614423077,316.10017971619783L554.2575682692308,301.99878528212565L554.7305221153846,296.3195319493168L555.277375,297.4822018273285L556.3415211538462,301.4325709316531L556.8440346153847,302.25940005984904L557.3908875000001,306.8792596190284L558.4106942307693,303.2783437059449L558.9427673076923,308.77171837255617L559.9773538461538,310.5113866397996L561.957848076923,306.56281390960794L563.5392875,298.36688306244866L564.0565807692308,295.6399358300213L564.5886538461539,301.35949399098484L566.1109740384614,304.11361195293443L566.5839278846155,305.42809830928L567.6480740384616,301.18643923236027L568.1949269230769,305.62836846610423L569.1851740384616,310.2600039836077L569.6729076923076,309.8280507284263L570.1458615384615,302.8323612152328L571.2247875,306.12799196461185L572.1559153846154,312.63196005730305L573.6486759615384,318.83704376682556L574.1216298076923,316.26123678598196L575.1562163461539,313.65687520582713L575.6735096153847,310.59589632953055L576.2203625,314.51831012624683L576.6785365384615,306.4727097415551L577.7574625000001,305.6355856512937L578.333875,306.6225349549819L578.8807278846153,285.1908430813115L579.4128009615384,278.73347703398633L580.4178278846155,260.61688497869017L581.4080749999999,266.795481801341L582.4574413461538,263.6050987759583L582.9156153846153,259.63805892025835L583.3885692307692,258.1460558374404L584.4379355769231,251.22520122362462L584.9256692307692,237.00936598422237L586.8174846153846,241.72822425354803L587.3643375,254.60418049794401L587.8520711538462,262.7488858322979L588.4137038461538,270.951434463911L588.9605567307692,275.0128932874876L589.9360240384615,270.2394008729105L590.4533173076923,279.6371343580878L591.4879038461538,273.0191451929836L591.9904173076923,277.9198894488809L592.4485913461538,281.93358639658936L592.9511048076923,286.93232161035195L593.4536182692308,291.64065179567945L593.9856913461539,296.5386929505399L594.5029846153845,302.32898128520605L594.9759384615385,302.493676773788L597.0007721153846,301.9001944993137L597.9171201923077,299.860433271622L598.8925875,299.6768808459012L599.3655413461539,302.22058013064725L599.8089355769231,288.24570714497304L600.7991826923077,283.9072674219336L601.3312557692308,287.61439273344376L602.2919432692308,282.3642181407846L603.8290432692307,287.61638720384724L604.3611163461538,286.19793584488644L604.8636298076923,287.99065503696875L605.4104826923076,277.0633704679687L605.8686567307693,279.9244816264543L606.9032432692308,287.2035047381718L607.4500961538462,292.77364413322414L610.5242961538462,297.95372816324095L610.99725,298.21343537607754L611.9431576923076,296.28188678674746L612.4604509615385,290.70829567380684L612.9629644230769,295.7194551827672L613.3767990384615,293.0789054498096L613.8940923076923,296.66086560295236L614.3818259615385,300.9485529991201L614.9138990384615,305.52887162956705L615.8893663461539,307.1255414436889L616.3327605769231,310.3086630020905L616.8500538461539,315.5101683755701L617.382126923077,321.6771304593866L618.2541355769231,327.2891294250844L618.7418692307692,323.93072375993836L619.1704836538462,325.8776330306981L619.7321163461539,325.21088084024717L620.2050701923077,311.0120414369378L620.7223634615384,311.0079985292439L623.1610317307693,313.0463127640094L624.5946730769231,300.73537550535036L625.5701403846153,294.64914239434967L626.0874336538461,294.8168366029163L626.5603875,300.20705301014027L627.0185615384615,308.2613430564317L628.4965423076924,306.4307425813237L629.4867894230769,310.8532324921009L630.8317519230769,312.14488500247745L631.3490451923077,313.4361312063515L632.8270259615385,319.3995581285317L633.2704201923077,309.24021964405335L635.2656942307692,314.6249293035835L635.8125471153846,312.090259872716L637.1722894230769,295.5937181494505L637.6748028846154,285.4218932969492L638.1920961538461,284.43832196374774L639.0493250000001,282.05968944556406L640.438626923077,287.39864178730943L641.3845346153846,278.89496356435075L641.8722682692307,283.5839642119477L642.3452221153847,286.7192011801366L642.8033961538462,287.73983187883596L643.3059096153846,290.82619628591374L643.7640836538461,282.64886913651833L644.2222576923076,278.5554258909684L644.6065326923077,286.74964836788604L645.5228807692307,289.4185261710844L645.9514951923077,288.77870930946557L647.8137509615384,291.80686314917284L648.7448788461539,299.06556091122087L649.2621721153846,303.38250815717356L650.2671990384615,305.93397521670454L651.7008403846154,305.384204114903L652.1442346153847,312.21740724482055L652.6319682692308,317.15472956512093L653.0901423076923,307.4766022517962L655.57315,302.66329346166515L656.0756634615385,305.2908083924699L656.5486173076923,309.79694570438147L656.9920115384615,312.73388084978535L658.4256528846154,314.3338735928862L659.2533221153845,313.3921235922184L659.6967163461538,308.4275876435278L660.1696701923076,307.5315966676157L660.5982846153846,295.421179615321L662.105825,279.7729471354339L663.0960721153846,272.7519143709746L664.0419798076923,270.7954276605866L664.9287682692308,272.66674892016306L665.3869423076924,275.3091378873495L666.8501432692308,279.3078564804693L667.825610576923,286.6884103662787L668.3133442307692,285.5485385773023L668.7271788461538,290.6581328276243L670.1460403846154,295.6274972520148L671.1215076923077,295.5600164043845L672.1117548076924,302.3521875922314L673.5453961538461,298.94172771066485L674.0331298076924,301.6080278754315L674.5060836538462,304.538756573845L674.9642576923077,305.86309966666545L675.9101653846153,310.738439678581L676.3535596153846,317.0031097233237L677.7428615384616,318.159902110644L680.0780711538462,323.20078463827616L681.0683182692308,326.49607998090863L681.5264923076924,325.88524431189427L681.9846663461539,317.5202305262961L682.8418951923077,323.9015422266393L683.7730230769231,326.92513167690606L685.4727009615385,330.5298986861531L686.8176634615385,329.44787415934474L687.2758375000001,328.23016674901277L687.7192317307693,317.7154075509673L688.2217451923077,319.5215307580928L688.7242586538462,304.3613464874405L689.6258269230768,307.6619912919877L690.4239365384616,299.87130821072054L691.310725,298.5438858031141L692.6852471153846,299.87332337939637L694.0893288461538,296.4555343022555L694.4440442307692,295.95636103687457L697.8138403846153,297.6654568302511L698.3163538461539,300.85520330187154L698.7301884615385,305.38969855554967L699.6613163461539,299.71136517944836L701.3609942307692,302.92549869401466L702.3512413461539,301.59170254205367L702.8537548076923,292.163826460362L703.7405432692308,297.3950477614927L704.6568913461538,304.6396817889672L707.8493298076924,308.4971033265802L708.3518432692307,291.7922252072828L709.2681913461538,299.58220437796507L709.8150442307692,301.2335627610932L710.2584384615385,300.9123627112803L710.7609519230768,302.25140409598333L711.7364192307692,297.4205193366316L712.209373076923,292.9610594747389L713.0222625,295.0117501061038L713.5247759615385,299.1188627911994L714.4854634615384,285.6833445813957L714.9731971153847,287.2335565040478L715.4461509615385,290.49771852957133L715.9930038461539,296.1485782668593L716.8650124999999,304.0915924300387L718.5203509615385,304.1820961763666L718.9637451923078,308.7336734687531L719.8800932692308,312.7949295734619L720.8112211538462,317.05323147369256L721.2546153846154,315.36104938281085L722.4517798076923,319.35598892519533L722.7917153846154,317.56762950600637L724.2549163461538,307.46394463024353L725.2599432692308,307.9792974865463L726.6640249999999,302.33070271011894L727.5360336538462,293.4419864088774L727.9498682692308,291.34300553356076L728.8809961538461,284.3040741919438L730.5215548076923,289.44623708559413L731.3935634615384,279.3162838271732L732.5907278846154,277.7608250165988L733.8322317307692,282.9735862927253L734.6599009615385,289.7195061158186L735.0885153846154,286.3741419318379L735.9605240384616,287.98126684176714L737.2315874999999,292.8106373358065L737.6897615384615,299.76095218749344L739.8180538461539,290.76691640277033L740.2614480769231,292.4954656496126L740.7491817307692,293.28707861321936L743.660803846154,301.11149230093537L744.488473076923,292.50905162040897L745.7151971153846,299.1985922541118L746.6611048076924,302.69350332996885L747.0749394230769,301.0187917569802L747.8878288461539,296.7810017164305L748.331223076923,304.93462701448163L748.7746173076923,302.9970269864101L749.2327913461538,305.1001519625665L749.6614057692308,307.0959699476738L750.4151759615385,311.8226967127898L750.9029096153846,304.17517603272114L751.8488173076923,311.504668972215L752.3513307692308,307.6943758853841L752.7356057692308,311.97800502866266L754.4205038461539,316.8483397919444L755.3220721153846,323.5670327465973L756.0906221153846,285.4060792947944L758.1450153846154,295.7373449541091L758.9283451923077,281.40904593405855L759.2978403846155,285.01212500581175L760.2585278846153,280.5118631385641L761.0861971153846,273.2681995141441L762.7710951923077,272.8719858854528L763.6283240384615,270.00664808882453L764.1160576923077,280.0114231630108L764.9732865384616,279.8174795035105L765.3723413461538,287.8305090678614L765.7566163461538,294.6376750294929L766.2739096153846,288.05080882549515L766.6877442307692,295.72875047346804L767.1163586538462,298.26181260384465L767.8701288461539,289.1272694731885L768.2544038461539,290.160614216059L768.5943394230769,288.57427497181186L769.0081740384616,285.8697010663265L769.8210634615384,291.26067253472945L771.0034480769231,292.4378273658606L771.7424384615384,297.9952344061229L772.1562730769231,292.0555566757806L772.5405480769231,300.44782748249116L773.7968317307692,303.38739351510685L774.6245009615385,307.5983613084046L777.2996461538462,311.2493201261854L780.1078096153846,305.24938995734516L781.1571759615385,313.7801533973156L781.5562307692308,319.0721602135228L782.0439644230769,322.2101454611975L782.4282394230769,321.41944125572763L783.6401836538462,310.14685110808165L784.4087336538461,316.9536325134684L784.837348076923,308.75702374947446L785.2511826923077,311.4463250875109L785.6502375,315.27525843756064L786.5074663461538,306.7495527708747L786.9656403846154,311.77183903994023L788.5175201923076,293.8118932767686L789.3747490384616,300.200264974166L789.7442442307693,295.40269829790435L790.1876384615384,289.384097986191L790.5719134615384,283.9933064006684L790.9414086538461,282.49444393871966L791.2813442307693,284.1153346787007L791.7099586538461,287.5349871434334L792.1090134615384,294.8313710896108L793.0105817307692,295.8704695586311L793.4096365384615,295.6267219411191L794.2520855769232,303.8239688115883L794.6511403846154,305.00919885665144L795.8483048076923,309.0432463753826L797.1932673076923,312.0981781657812L797.6218817307692,316.13071781381467L798.0357163461539,322.25072713835993L798.4938903846154,313.4646873150404L799.2772201923077,306.02160728131986L799.7058346153846,309.4189920216059L801.1690355769231,312.20883195222666L802.4696586538462,305.3627020798251L803.5781442307692,306.17783096758455L804.3762538461539,293.17377650666066L805.6177576923077,300.33122999171877L806.2976288461538,299.5869215040615L806.6966836538461,305.12010385598177L807.3765548076923,302.76434246243645L807.8199490384616,304.98988886319006L808.2190038461538,297.1992709726619L808.6328384615384,305.70448748267495L809.0466730769231,313.2581955557522L809.8300028846154,304.7152053385797L810.1994980769231,299.21990652836325L810.5689932692308,299.63689228408634L810.864589423077,301.93157221707907L811.5444605769231,299.13914879966796L812.7268451923077,304.9943182869934L813.1259,304.35163507508696L813.4658355769232,309.34291832725L814.5447615384616,306.54061918078713L815.195073076923,310.7882132871807L815.6089076923076,307.20772388444243L815.9488432692307,308.3783576499955L816.3183384615385,315.5135565776469L818.2101538461538,314.02961626570163L819.7915932692307,316.2532195727998L820.2054278846153,313.14332174758204L820.574923076923,313.0347527215191L820.9444182692308,311.0477100420933L821.6686288461539,312.2386650323996L822.0085644230769,311.9960263113339L822.4223990384615,299.99673053390194L823.2057288461539,292.7506753204931L823.9742788461538,294.2503969088824L824.3733336538462,298.0693499133058L824.7723884615385,282.4307389509993L825.4670394230769,289.72005166335066L826.2503692307693,286.8701069033857L826.5755250000001,289.57799107149174L826.9450201923077,290.95437807018027L828.2013038461539,296.99109108923216L828.8368355769231,296.2155649159529L829.2358903846155,298.41653744080793L829.9453211538461,297.0601048391777L831.6006596153846,300.1354492897826L831.9849346153846,300.098526484933L832.723925,279.5891724437751L833.4629153846154,287.5822651255234L834.1427865384616,294.27447717278125L836.4484365384616,301.7559296587655L838.3993711538461,303.64801883284724L838.7984259615384,303.8558157264573L839.5226365384616,299.3973988226095L840.9710576923077,305.9437956938379L841.325773076923,310.2303221617689L841.9908644230769,314.80623793814715L842.3751394230769,313.45459122104705L843.4392855769231,306.94819214446466L844.207835576923,302.74004294661825L844.6216701923076,282.7342008807346L845.0207250000001,292.2881010639312L845.7744951923078,297.66110003113874L848.1540442307693,283.049117338935L848.4792,289.02595790593296L849.1738509615385,287.90027527426986L850.3266759615384,273.91238775633457L850.6666115384616,269.0468463073822L852.2037115384616,261.9233035201386L853.7703711538461,264.8098688303364L854.1989855769231,265.56609028771305L854.8936365384616,275.55522955920355L855.3222509615384,273.40373639688715L855.6326269230769,279.97072425266015L856.7558923076923,265.55098894698773L857.1845067307692,271.3366597819414L858.2486528846155,279.3374551584083L858.618148076923,280.4010314843599L859.0911019230768,277.52060114926553L860.1404682692307,275.2602954144949L860.539523076923,272.7787382512745L860.9237980769232,275.16233953488216L862.7417144230769,276.99998189756764L863.1555490384616,285.9693031401886L863.4511451923078,288.8154947701647L864.1457961538462,289.63378216289595L865.2986211538462,287.49107759335345L865.6385567307692,296.0659082099969L866.0819509615384,281.86427574001965L866.495785576923,277.8921823546099L868.2398028846154,287.7501298254518L868.6240778846153,293.16839144846585L870.5750125,299.36633283347453L871.6982778846154,294.09713748643065L872.0382134615385,300.8247310990438L872.4224884615385,305.85725042601314L872.8067634615384,306.46953189229015L873.220598076923,299.67195683981106L873.9743682692307,297.5749867328484L874.2995240384615,298.98694929546815L875.0532942307693,303.1115525224903L875.7922846153846,302.1192475382098L876.147,308.6273815728938L878.1570538461538,302.7945185472605L878.5117692307692,302.194690449448L880.0340894230769,298.54045201746146L880.3592451923076,292.8091826957609L880.6548413461538,297.39565570454437L880.9947769230769,306.7828302599272L881.9850240384616,296.71276781918465L882.2658403846153,292.36402567052323L883.6403624999999,294.31634157678434L884.4828115384615,300.75389197858703L884.8375269230769,301.03230013110795L885.1774625,307.0432308753416L885.5321778846154,313.81469500791434L885.901673076923,300.2381895746257L886.2268288461539,295.9674510533435L887.7934884615385,304.0232077344509L889.8478817307692,301.61413344327315L890.1878173076923,307.59181259928494L891.2371836538462,307.4154517918011L891.4884403846154,310.0264593841686L891.7840365384616,308.5882748838914L892.4934673076923,311.62477097303304L892.7595038461538,317.50314993976735L893.4541548076922,312.1417277848925L893.8827692307692,304.4075128721362L895.7745846153847,307.15680889323903L896.1293,284.4739942113142L896.469235576923,269.65237396678305L896.8830701923076,275.38609363709L897.9915557692308,274.2929103995923L898.390610576923,281.3978142221616L900.4745634615384,288.7972413597464L901.1692144230769,297.6291610920905L903.6078826923076,293.1533105250976L906.1500096153846,299.9120569872023" style="fill: none;" fill="none"></path></g></g></g></g><g opacity="0.20000000298023224"><g><g><g><path stroke="rgb(255, 112, 67)" stroke-width="2px" d="M81.00812596153845,-90.04401694370898L81.59931826923076,135.64122888183144L82.19051057692307,38.14341232045939L82.78170288461538,183.4136118984432L83.3728951923077,30.855745789024525L83.9640875,-327.30094932891666L84.55527980769232,38.65457646685729L85.14647211538463,-325.50290188003953L85.73766442307692,-126.71095421798526L86.92004903846154,124.88584495567869L88.10243365384616,-197.84200218291562L88.69362596153846,41.16776108888445L89.87601057692308,142.19112063565214L91.6495875,111.93924648135436L92.2407798076923,161.6230115857732L92.83197211538462,45.62121127073573L93.42316442307693,137.91850737961747L94.01435673076922,79.53973223514623L95.19674134615384,168.74010435403713L96.97031826923076,1.1885786723112801L97.56151057692307,62.32254381399446L98.7438951923077,195.2287406760656L99.3350875,172.90964613378748L99.92627980769231,142.81652844395722L100.51747211538462,174.43700999871555L101.10866442307693,201.688023365386L101.69985673076924,-199.46410970072418L102.88224134615385,155.28861692418965L103.47343365384616,-21.362815225621034L105.24701057692307,173.28296134419313L105.83820288461538,151.87291910242445L106.4293951923077,97.26861262248906L107.0205875,-0.7445906436264522L107.6117798076923,67.98892388063251L109.38535673076923,78.53470470223886L109.97654903846154,53.62243151594106L110.56774134615384,209.76026469609934L111.15893365384615,-4.138295974008088L111.75012596153846,120.3779120418398L112.34131826923077,38.03004835820758L112.93251057692306,224.93971683561492L113.52370288461537,-277.6150436220031L114.1148951923077,147.70255626966247L114.70608750000001,177.862296546724L115.88847211538462,108.58143289691071L116.47966442307693,114.11653245164973L117.07085673076924,-152.9376159826527L117.66204903846155,265.38904007132516L118.84443365384615,-149.48960386021452L120.02681826923077,-42.049539087445L120.61801057692308,88.78449591314421L121.80039519230769,-144.52434441888477L122.39158750000001,39.91295750050341L123.57397211538462,90.3188680519932L124.16516442307692,109.93464555340273L124.75635673076924,105.32109003427905L125.34754903846154,-45.96613789296242L125.93874134615386,108.3089019436855L126.52993365384614,180.00591934354162L127.71231826923076,144.34875998031154L128.3035105769231,-19.01747729783341L128.89470288461538,169.24258879716896L129.4858951923077,73.41068879644155L130.6682798076923,-71.41995418708933L132.44185673076922,39.00369993674104L133.03304903846154,143.46193475776042L133.62424134615384,129.5644982492978L134.21543365384616,102.93921524747276L135.39781826923078,-49.456668832075536L135.98901057692308,171.88884265372764L136.58020288461537,75.45733936791851L138.35377980769232,-21.32393250085488L138.94497211538462,179.9905832462168L140.71854903846156,120.67357909600054L142.49212596153845,136.48201648908628L143.08331826923077,70.47055660835468L143.67451057692307,296.4820830360618L144.2657028846154,241.7369952879497L144.8568951923077,213.79993348339923L146.63047211538463,113.37837647085155L147.2216644230769,112.73616639912944L147.81285673076923,98.43351090609406L148.40404903846152,-25.71334054779726L148.99524134615385,115.61762262020494L150.17762596153847,181.40390871249062L150.76881826923076,126.53278932708974L152.54239519230768,179.80455609243364L154.31597211538462,34.11966609692121L154.90716442307692,141.8402964131014L156.08954903846154,114.17538435859217L157.27193365384616,192.20814529283672L157.86312596153846,-163.6147066394799L159.63670288461537,-27.74398058554698L160.2278951923077,175.95982874875773L161.41027980769232,118.8519850196821L162.00147211538462,-2.1273025618943393L162.59266442307694,119.37939428638202L163.18385673076924,145.66986359938358L164.36624134615383,116.97898716016982L164.95743365384615,-253.9397454444047L165.54862596153845,150.16161003956415L166.73101057692307,187.158815887778L167.3222028846154,169.13253837028557L167.9133951923077,256.48653820589925L169.0957798076923,50.084396795439545L169.6869721153846,190.71761152014565L170.86935673076923,185.5130151259189L171.46054903846155,206.2237547883337L172.64293365384617,251.2217410319252L173.23412596153847,-73.43552203741086L173.8253182692308,99.2796060346028L175.00770288461538,294.23553537956906L175.59889519230768,104.59856338402409L177.37247211538462,240.2193960891959L177.96366442307692,120.10218484653353L178.55485673076925,261.6011706487062L179.14604903846154,173.4418057786262L180.32843365384613,185.19896234896152L180.91962596153846,-77.21611927621228L182.10201057692308,231.97854565787517L183.2843951923077,215.38831918108627L183.8755875,9.35875989798609L184.46677980769232,172.73294379635092L185.05797211538462,159.1290337395544L186.24035673076924,167.19341642001334L186.83154903846153,177.0781909205951L188.60512596153848,280.9769954074601L190.9698951923077,194.31819288614207L191.56108749999999,151.91183115051246L193.33466442307693,264.6015036165404L193.92585673076923,287.82085346277455L195.10824134615385,195.20322938606066L195.69943365384617,53.08200269434212L196.29062596153844,69.06362362624299L196.88181826923076,288.6210282692744L197.47301057692306,-20.17727332343742L199.2465875,238.96816994607994L199.8377798076923,178.07025754524705L200.42897211538462,268.40819861178363L201.02016442307695,72.58981172471925L202.79374134615384,7.998157764389191L203.38493365384616,43.93951876293869L203.97612596153846,242.6291866783984L204.56731826923078,284.42260301750696L205.15851057692308,260.1047135650025L205.7497028846154,277.914702260568L206.9320875,130.9580304733264L207.5232798076923,228.45361846223824L208.11447211538461,38.44737787470223L209.29685673076924,303.3149155223626L209.88804903846153,-20.46106443225102L210.47924134615386,146.9061934950024L211.07043365384615,304.0614286498865L211.66162596153848,203.73857393866834L212.25281826923077,307.61620698716143L212.84401057692307,228.52680947356276L214.0263951923077,95.39725686900005L214.61758749999998,155.97176235320705L215.7999721153846,204.7547443338767L218.16474134615385,112.3046443948619L218.75593365384614,195.13959777765754L219.93831826923076,344.11620659017547L220.5295105769231,131.64865334941422L221.12070288461538,142.8072036276106L221.7118951923077,258.9101400796906L222.3030875,227.21168781214706L222.89427980769233,-42.895516922666445L223.4854721153846,178.98584894652788L224.66785673076922,90.37997785471765L226.44143365384616,292.8851377619741L227.03262596153846,214.8309708027829L227.62381826923078,333.83295746904525L228.21501057692308,-61.66824892103904L229.39739519230767,140.56135973084213L230.565,193.96308745860202L231.74738461538462,101.12407230196015L232.91498942307692,192.42584163421222L234.09737403846154,220.29226355643866L234.68856634615386,143.8258371818539L235.27975865384616,299.93771922217957L235.87095096153845,278.0063669646547L236.46214326923075,244.8936508845383L237.64452788461537,198.2113330341837L238.2357201923077,107.8811919712578L239.403325,271.4548331048107L239.9945173076923,224.16388038624623L240.58570961538462,265.2265008983396L241.7680942307692,297.13801642240725L244.72405576923074,256.6191089439594L245.9064403846154,300.8802587562357L246.49763269230772,318.20808407070774L247.6800173076923,124.71946442753153L248.27120961538463,218.50418603698878L248.86240192307696,36.85359668579571L249.45359423076923,324.6411223869771L250.04478653846152,205.80815534782792L250.63597884615385,163.50043726688406L251.21239134615385,264.0998109030984L251.80358365384618,16.685133214256098L252.3947759615385,237.61730315533546L252.98596826923074,275.1004844164825L255.32117788461537,265.9353922039368L255.89759038461537,358.9593788747753L257.079975,186.32154707914452L258.7944326923077,189.54725909867753L261.1444221153846,235.6264255420072L261.72083461538466,240.96846034572033L262.3120269230769,135.76341916395856L262.90321923076925,360.84489779271536L264.08560384615384,200.54523486645195L264.6767961538461,299.2096211407741L265.26798846153844,211.61209111723971L265.85918076923076,282.801140612779L266.4503730769231,129.87166004562167L267.04156538461535,155.37629365650548L268.8151423076923,221.86384699070865L269.4063346153846,336.8521893178084L270.5591596153846,259.1237604793297L271.7119846153846,289.1270021877058L272.89436923076926,249.65675534507028L274.07675384615385,237.4531511996485L275.2591384615385,200.77084850472554L275.8503307692308,54.742289177192504L276.42674326923077,242.5246197127L276.98837596153845,291.1024557337437L277.5795682692308,233.4379967094108L278.1559807692308,304.5925326551388L278.74717307692305,329.8475954738019L279.3383653846154,343.9766862248381L279.9147778846154,324.55687648331707L281.0823826923077,226.41256864523362L282.2647673076923,312.22407378184727L282.8559596153846,369.42900702955086L284.0235644230769,224.64847760305275L285.16160961538463,255.11980749803675L285.7380221153846,279.3730390258735L286.3144346153846,309.0484166727033L286.9056269230769,240.8114632805635L287.49681923076923,283.2377941983694L288.08801153846156,250.22046688421398L288.66442403846156,88.21269113717136L289.2112769230769,117.40218134103344L289.80246923076925,234.72479204192447L290.3936615384615,304.12767003393384L290.98485384615384,195.4157648227915L292.15245865384617,332.0803904923494L292.7436509615385,117.84986049563742L293.91125576923076,242.0938307914786L295.09364038461536,335.122391900525L295.6700528846154,261.65292631176226L296.2464653846154,262.6734072352818L296.8376576923077,72.80756671273849L297.42885,-27.15827655501971L298.5521153846154,218.28813180163658L299.1285278846154,151.25026768637278L300.2961326923077,345.5170989679871L300.8725451923077,365.0230019824444L301.4489576923077,385.60710887947255L302.0105903846154,333.5924915682573L302.5870028846154,303.6003487371995L303.73982788461535,342.5958216758464L304.3310201923077,256.1847132541511L304.8926528846154,213.91807714711177L305.4690653846154,344.5346357312393L307.1983028846154,237.83801979886098L308.3067884615385,312.2599948511071L308.8979807692308,194.36030117631114L310.05080576923075,229.82735744402163L310.6419980769231,235.03476887714547L311.2036307692308,236.89653590439121L312.3860153846154,328.06033900736367L312.97720769230773,228.43403048324595L314.1152528846154,319.4858184967714L315.2976375,162.72811961613672L318.17969999999997,155.25647856344779L318.7708923076923,262.6423538374482L320.5444692307692,196.9059173922986L321.13566153846153,201.4958969606591L321.71207403846154,319.0099009832309L322.2589269230769,238.83586311791638L322.8057798076923,246.0945875306905L323.9290451923077,132.71030421680382L325.0523105769231,350.60968027276687L326.19035576923073,306.2780078714539L327.3727403846154,97.77074518575876L328.51078557692307,356.50387322681684L330.22524326923076,327.4558973741776L330.8164355769231,294.1315255569857L333.03340673076923,349.1405085400397L333.5802596153846,186.50880581244516L334.1566721153846,313.3576840810439L334.71830480769233,202.7543952875926L335.9006894230769,336.01780885637663L336.4623221153846,341.8765792376381L338.1767798076923,263.84510852955475L338.7531923076923,197.9313539572099L339.31482500000004,165.99681962549414L339.9060173076923,319.0003709036314L341.59091538461536,265.08750835279545L342.1673278846154,236.08064379738258L343.2905932692308,256.6164698449934L343.85222596153847,236.64717037542337L344.41385865384615,217.97548654412773L344.9607115384615,322.29121002098157L345.5371240384615,254.67790503783618L346.12831634615384,291.3037310148861L346.70472884615384,284.4674090532858L347.23680192307694,236.70684333537744L347.8279942307692,322.8019929641955L348.40440673076927,377.3178896287689L348.95125961538463,300.7293902653444L349.5128923076923,160.0767635015771L350.10408461538464,306.35486429800903L350.63615769230773,327.1757130339509L351.1830105769231,304.5534739904416L352.8974682692308,185.86210927248078L353.4295413461538,359.65897468734767L355.69085192307693,268.62307991426206L356.2672644230769,203.43862567951825L358.528575,271.7474212101777L360.2430326923077,350.2647207145851L360.78988557692304,202.33885449373048L361.86881153846156,339.96669263924514L362.38610480769233,265.51389877574013L364.08578269230765,321.0347936498991L364.67697499999997,259.60305017488236L365.2681673076923,276.99805521970075L367.0121846153846,314.7201629072389L367.58859711538463,145.59051469047165L368.7118625,144.58179241901186L370.9731730769231,384.1656183625669L371.52002596153847,295.005096638063L372.61373173076925,348.1624144782468L373.7222173076923,187.76343346089513L374.28385000000003,108.08674845738955L374.8307028846154,296.8461320767645L375.4071153846154,204.62868337326606L375.9687480769231,284.16441116866383L376.5599403846154,53.9766572438258L377.72754519230773,204.84470828529643L378.3187375,344.29091494172656L378.89515,6.675324069328269L379.4567826923077,150.51870945298967L380.0184153846154,220.63605018174664L380.5652682692308,233.38671021950432L381.11212115384615,320.3656647687235L383.2847528846154,231.277600972498L383.8316057692308,309.6018650492013L384.37845865384617,17.0982401724051L387.7039153846154,325.889152288012L388.84196057692304,288.9217389347924L389.38881346153846,343.5159288686914L389.95044615384614,301.78124714323786L390.54163846153847,308.31677046935465L391.10327115384615,265.29769792377874L391.66490384615383,354.46427491424356L392.24131634615384,-551.1955958293285L392.8029490384615,362.4648353847074L393.34980192307694,291.99889900585987L393.92621442307694,347.3882054732404L394.4878471153846,307.7924108281266L395.06425961538463,245.1607570232222L395.6258923076923,315.1257924183175L396.17274519230773,136.24394043902868L396.7639375,140.28874080765138L397.31079038461536,19.030588435331197L397.8724230769231,221.354149010403L399.0104682692308,189.14423936324312L399.5868807692308,357.6328357795011L400.16329326923073,297.55857150430484L401.27177884615384,267.18125217915514L402.3950442307692,330.53452361133725L403.51830961538457,237.113235252824L404.1095019230769,-57.95104870406607L405.72050096153845,323.0048810280394L406.29691346153845,305.09041333674105L406.8733259615385,260.0572684302577L407.96703173076924,344.1865825626029L408.5286644230769,170.5261585642797L409.1050769230769,202.69305089829336L410.1987826923077,325.7750259193922L411.27770865384616,355.00350147964684L411.80978173076926,129.73337125980177L412.3566346153846,231.64428911216675L413.46512019230767,361.6252060486654L413.98241346153844,359.07325599515946L415.12045865384613,339.027173407339L415.6525317307692,218.67663649275784L416.19938461538464,284.1282848361511L416.77579711538465,350.46705163531396L417.3522096153846,357.3056608160182L417.91384230769233,368.01063795191976L418.4606951923077,336.83872991308164L419.5987403846154,350.11285523075105L420.1308134615385,256.13371999746306L420.69244615384616,282.4990517511343L422.3773442307692,293.3085372060906L422.8946375,299.57713033345453L423.4267105769231,308.18505010762794L425.12638846153845,257.6792643219349L426.2053144230769,262.6141448018335L426.75216730769233,286.17091811253533L427.2990201923077,131.65196688478267L428.36316634615383,323.2212578199319L428.9247990384616,296.7176372804407L429.4864317307692,95.76652546099115L430.04806442307694,373.162056501981L430.5949173076923,274.7070827306132L431.6590634615385,342.48248703691644L432.81188846153844,141.69291739750963L433.92037403846155,-28.597699777735386L434.4820067307692,212.39599148011573L435.0288596153846,285.69810887111043L436.6989778846154,274.9375053936693L438.9602884615385,182.9717387615645L439.50714134615384,177.27993537488703L440.0392144230769,310.0229479508921L440.5712875,277.589799854528L441.1033605769231,330.53024240634795L442.1970663461538,221.80698906965168L443.2612125,279.02763961786405L444.85743173076924,263.9129333729817L445.3895048076923,91.39963772522555L446.5571096153846,181.45713054163886L447.6655951923077,355.95711056769943L448.21244807692307,280.1854123342608L449.88256634615385,353.0804926947283L450.9319326923077,263.0368698095476L451.4492259615385,337.1333559893169L451.98129903846154,296.83188094234794L452.51337211538464,0.15328947126010917L453.5775182692308,263.1073044286187L454.1243711538462,203.8299454095366L454.65644423076924,178.20153805714605L455.2180769230769,328.92786948414096L455.76492980769234,153.08831214624612L456.2822230769231,132.88750505071172L456.7699567307692,359.2852196271143L457.33158942307693,288.35198679134874L457.8784423076923,298.10081837185817L458.44007500000004,166.24325282227753L460.0806336538462,253.2124427053224L460.62748653846154,324.6830547372151L461.73597211538464,255.63314157025115L462.77055865384614,245.6238895684384L463.87904423076924,360.9715598814238L464.4258971153846,302.10248413404724L464.98752980769234,321.2372125405935L465.5196028846154,-20.024498816626135L466.06645576923074,372.0603646386124L466.6280884615385,349.8894701649377L467.17494134615384,341.36714516722907L467.70701442307694,341.91320406662226L468.8007201923077,340.868487417598L469.33279326923076,246.196867277285L470.44127884615386,245.0440208789582L471.0029115384615,134.6769607662883L471.56454423076923,355.642310046035L472.6434701923077,312.43185884043925L473.20510288461537,289.910110820892L474.25446923076925,363.3868632551331L474.7569826923077,361.8552328468766L475.348175,232.58935045190157L475.88024807692307,336.9554807190066L476.41232115384616,257.77688166035614L476.9591740384615,336.00682727234573L477.50602692307694,320.2674316405435L478.06765961538457,393.6293686081015L478.6145125,323.1270419868447L479.16136538461535,337.0773044596106L479.66387884615386,320.042375145385L481.18619903846155,276.3369316053887L482.32424423076924,350.1570014917884L483.3588307692308,236.661597449771L484.98460961538456,168.038016059108L485.5314625,263.46021060702043L486.03397596153843,305.4012991949392L486.53648942307694,247.45164154234422L487.05378269230766,271.5117789958332L488.16226826923076,371.43522074020393L488.7239009615385,175.43898790615106L489.2855336538462,315.41113766318887L489.8471663461538,273.8972605512264L490.3053403846154,356.8139673553252L490.83741346153846,255.1528548817558L491.3547067307692,336.63447831477197L491.88677980769233,234.4151964098875L493.95595288461544,267.2120123437703L494.4880259615385,252.46487393821204L495.55217211538456,293.19045218902176L496.5867586538461,173.9442608984362L497.14839134615386,323.26134280089366L498.24209711538464,-30.675960890161093L498.81850961538464,250.7727130045164L499.32102307692304,352.4328284851431L499.79397692307685,291.4147784347122L500.3556096153846,358.29394473215217L500.8729028846154,382.12445125227487L502.4100028846154,342.0565511254604L502.92729615384616,77.73658252826812L503.4741490384616,279.70984670058243L507.1691009615385,309.8142538693229L507.70117403846155,369.2530670984823L509.2530538461538,338.25428395181564L510.80493365384615,121.48818097684801L511.33700673076925,255.55033250936154L511.8690798076923,350.154421039466L513.4357394230768,281.9025567381682L514.544225,185.76886110901444L515.0910778846154,357.0278516648609L515.6231509615385,193.70216854082733L517.2637096153846,368.24060610348727L517.7810028846154,274.43531418375596L518.2982961538462,322.7950140135964L518.8451490384616,313.0618997335958L519.3920019230769,361.70110946726055L519.8945153846154,351.5884047859795L520.4265884615385,321.3363253684288L520.9734413461539,276.34628574505723L523.0278346153847,342.1327184539521L523.5599076923077,339.76676623090754L524.6388336538462,126.24055310158485L525.2300259615386,360.0369083209439L525.7473192307692,289.520609136828L526.7375663461539,341.17026838436334L527.2548596153846,358.95662248252194L527.7869326923077,297.8371723851519L528.8362990384616,367.626385142466L529.4274913461538,301.3062093293527L529.9595644230769,297.8502212633728L530.4916375,207.10084466803238L531.0384903846154,336.1324777064506L531.5557836538461,279.334596150935L532.073076923077,340.2980168527691L533.1520028846154,330.7866455325585L535.2211759615385,355.1246507838485L535.7089096153846,289.1681134849321L537.3051288461538,307.78255819198677L537.8372019230769,258.967115294035L538.3544951923077,335.67962298554096L538.8865682692307,337.6628765351896L539.8620355769231,204.79644209753994L540.9409615384615,273.7756567355362L541.4878144230769,212.996621081462L541.975548076923,319.082798761337L542.4928413461539,362.9216047690832L543.0396942307692,284.4519556626736L543.5865471153846,368.5103220178154L545.0201884615385,310.18926983239555L545.5818211538461,354.01773936919153L547.1780403846153,302.6501851394637L547.6657740384614,383.4661691666038L548.7151403846153,334.2336899853758L550.2818,319.8019239062579L552.3509730769231,266.98636938217487L553.2968807692307,356.72458987034236L553.784614423077,327.04223327291356L554.2575682692308,135.3130715870667L554.7305221153846,229.18784511790923L555.277375,311.2255560263894L556.3415211538462,348.12795957507916L556.8440346153847,312.0329443700631L557.3908875000001,361.4883687672768L558.4106942307693,260.7136709897527L558.9427673076923,373.70622404711514L559.9773538461538,331.07515769618914L561.957848076923,259.8886593296503L563.5392875,201.4867774075654L564.0565807692308,263.4060211082513L564.5886538461539,368.96760456032354L566.1109740384614,336.6686986313648L566.5839278846155,320.9660011368513L567.6480740384616,251.04785373338578L568.1949269230769,358.1342499213856L569.1851740384616,365.00831099820016L569.6729076923076,304.7221417376927L570.1458615384615,220.1397236362022L571.2247875,345.0840374893228L572.1559153846154,389.5121982811659L573.6486759615384,392.18431530759165L574.1216298076923,285.81387734575355L575.1562163461539,282.871985758356L575.6735096153847,274.4135562789471L576.2203625,360.8832526976883L576.6785365384615,211.36958724558355L577.7574625000001,295.74034960999853L578.333875,318.28878185242456L578.8807278846153,31.857254523310473L579.4128009615384,202.40409888483507L580.4178278846155,46.46947632506101L581.4080749999999,339.82966475626455L582.4574413461538,225.8931353220755L582.9156153846153,212.74561344647083L583.3885692307692,240.50981426874642L584.4379355769231,169.41715053211084L584.9256692307692,68.97090328256985L586.8174846153846,297.50754892429495L587.3643375,406.80458636118857L587.8520711538462,359.023479656328L588.4137038461538,367.90976572477376L588.9605567307692,323.02141938155984L589.9360240384615,213.81427258778132L590.4533173076923,390.72316350338906L591.4879038461538,194.7911194208544L591.9904173076923,335.84919975576923L592.4485913461538,329.37754262463034L592.9511048076923,346.0199352909811L593.4536182692308,347.29552911455005L593.9856913461539,354.43605121696794L594.5029846153845,370.7731587795929L594.9759384615385,304.44046190805193L597.0007721153846,294.88492966514315L597.9171201923077,275.7494095289071L598.8925875,297.5071970444328L599.3655413461539,332.28841013751617L599.8089355769231,123.05554185277236L600.7991826923077,232.6246850547245L601.3312557692308,331.4345150053967L602.2919432692308,220.3044620583261L603.8290432692307,349.6997189492802L604.3611163461538,269.4311133710163L604.8636298076923,309.18151523055667L605.4104826923076,147.89726312671166L605.8686567307693,313.74428275624524L606.9032432692308,373.2452907510374L607.4500961538462,358.6155482644846L610.5242961538462,359.184977851388L610.99725,301.283307814992L611.9431576923076,273.44999192312827L612.4604509615385,224.82559046699512L612.9629644230769,354.9539304040683L613.3767990384615,261.8662534781829L613.8940923076923,339.001471515742L614.3818259615385,351.6312168358728L614.9138990384615,359.6705867227982L615.8893663461539,325.9989974516425L616.3327605769231,347.9347921924268L616.8500538461539,376.99462932875224L617.382126923077,394.57378483475577L618.2541355769231,393.6258351478192L618.7418692307692,284.2326465385966L619.1704836538462,348.8910990260891L619.7321163461539,317.32952802491684L620.2050701923077,143.17447823371623L620.7223634615384,310.9602092870162L623.1610317307693,337.14023230828946L624.5946730769231,155.21378380684183L625.5701403846153,222.70674587713634L626.0874336538461,296.79906814520365L626.5603875,363.92217515707017L627.0185615384615,403.4671818087489L628.4965423076924,284.79210619607284L629.4867894230769,363.1293311810315L630.8317519230769,327.41288006103133L631.3490451923077,328.6993235136829L632.8270259615385,389.8903225163541L633.2704201923077,189.151628840348L635.2656942307692,378.27495886879916L635.8125471153846,282.1291673693845L637.1722894230769,100.59613521546709L637.6748028846154,165.1857072199462L638.1920961538461,272.8120044097518L639.0493250000001,253.94303326908462L640.438626923077,350.5077963910172L641.3845346153846,178.37712610835248L641.8722682692307,339.010356482261L642.3452221153847,323.7793099579595L642.8033961538462,299.80421013782035L643.3059096153846,327.3086063285514L643.7640836538461,185.9886687295628L644.2222576923076,230.16882752690387L644.6065326923077,383.60956021042466L645.5228807692307,320.9660304601731L645.9514951923077,281.21574589392014L647.8137509615384,327.6011944339184L648.7448788461539,384.86709086773726L649.2621721153846,354.4110384234344L650.2671990384615,336.09362430500624L651.7008403846154,298.88562775771135L652.1442346153847,392.98937244717865L652.6319682692308,375.516411351236L653.0901423076923,193.07617426608536L655.57315,245.76751519883402L656.0756634615385,336.34938231813624L656.5486173076923,363.06179957082304L656.9920115384615,347.4499603890455L658.4256528846154,333.2466083254374L659.2533221153845,302.2601556356065L659.6967163461538,249.7442268141332L660.1696701923076,296.9405238497828L660.5982846153846,152.26983958691514L662.105825,94.80281448856306L663.0960721153846,189.75970656544283L664.0419798076923,247.66875141728283L664.9287682692308,294.78672586028506L665.3869423076924,306.5435305507582L666.8501432692308,326.5747608760644L667.825610576923,373.9303421959747L668.3133442307692,272.07466948196526L668.7271788461538,351.0561571711752L670.1460403846154,354.3679331403226L671.1215076923077,294.76235817983206L672.1117548076924,382.6391341972941L673.5453961538461,258.6283429567625L674.0331298076924,333.12506315639087L674.5060836538462,339.1814727268861L674.9642576923077,321.51751417410753L675.9101653846153,368.3674587937877L676.3535596153846,391.0547223034878L677.7428615384616,331.833781355635L680.0780711538462,382.7866011828514L681.0683182692308,365.4481608258716L681.5264923076924,318.66485345508363L681.9846663461539,218.64147782986598L682.8418951923077,399.33191899223505L683.7730230769231,362.665509537752L685.4727009615385,373.14009333391925L686.8176634615385,316.65778936809704L687.2758375000001,313.8362406935504L687.7192317307693,193.42556164586568L688.2217451923077,340.8708332833456L688.7242586538462,125.1601939548583L689.6258269230768,346.677305520097L690.4239365384616,207.7814389680493L691.310725,282.85307221576613L692.6852471153846,315.5879572939128L694.0893288461538,256.0555146981031L694.4440442307692,290.0558770537823L697.8138403846153,317.867845567343L698.3163538461539,338.5596423638461L698.7301884615385,358.98975783620654L699.6613163461539,232.5905527080972L701.3609942307692,340.9182051097858L702.3512413461539,285.82554802784773L702.8537548076923,180.72149636651932L703.7405432692308,359.2307662184486L704.6568913461538,390.27497119065276L707.8493298076924,354.0938040660568L708.3518432692307,94.33199923302357L709.2681913461538,391.6637530365425L709.8150442307692,320.75346570012044L710.2584384615385,297.11561340451783L710.7609519230768,318.07955995106215L711.7364192307692,240.31698410429527L712.209373076923,240.2479570046727L713.0222625,319.25196500505945L713.5247759615385,347.6670409406623L714.4854634615384,126.86862933217779L714.9731971153847,305.5578564102684L715.4461509615385,329.0817876005041L715.9930038461539,362.94463823839226L716.8650124999999,397.9820931794161L718.5203509615385,305.2518968701402L718.9637451923078,362.5356512069625L719.8800932692308,360.80105942655746L720.8112211538462,367.3885436789831L721.2546153846154,295.35858928290156L722.4517798076923,366.578223003125L722.7917153846154,296.42830406379846L724.2549163461538,188.03320802186693L725.2599432692308,314.0710325315614L726.6640249999999,235.56141573747738L727.5360336538462,188.37280141215112L727.9498682692308,266.5319751868684L728.8809961538461,201.10029602565143L730.5215548076923,350.2292394951529L731.3935634615384,159.5750414648132L732.5907278846154,259.3745042044243L733.8322317307692,344.5910977874514L734.6599009615385,369.45973787084415L735.0885153846154,246.83022170581003L735.9605240384616,306.9783074437505L737.2315874999999,349.89627317560564L737.6897615384615,381.91723799845886L739.8180538461539,184.4528011012997L740.2614480769231,312.9278041827997L740.7491817307692,302.64434979841656L743.660803846154,393.6000746095786L744.488473076923,190.82379126854553L745.7151971153846,378.2723930781377L746.6611048076924,344.00514450868843L747.0749394230769,281.2228421378066L747.8878288461539,246.68815021147216L748.331223076923,401.3146593837514L748.7746173076923,280.0936010135648L749.2327913461538,329.9601677063639L749.6614057692308,330.6875620280451L750.4151759615385,367.6950310389046L750.9029096153846,213.77755978883167L751.8488173076923,398.14303423136107L752.3513307692308,262.6547576025885L752.7356057692308,362.6126982351096L754.4205038461539,374.418194301506L755.3220721153846,402.9854289541613L758.1450153846154,417.85820313216345L758.9283451923077,112.0412036714086L759.2978403846155,327.6023673667922L760.2585278846153,227.3164600410984L761.0861971153846,187.6443807742054L762.7710951923077,268.1885376078445L763.6283240384615,236.1368859286808L764.1160576923077,398.27299519377704L764.9732865384616,277.5249659899292L765.3723413461538,382.54862776442025L765.7566163461538,375.10186755031657L766.2739096153846,210.19067241413674L766.6877442307692,386.48595815848194L767.1163586538462,328.2039059911156L767.8701288461539,181.1522852877407L768.2544038461539,302.37527899716906L768.5943394230769,269.822931597506L769.0081740384616,253.9002505425131L769.8210634615384,354.9847198920053L771.0034480769231,306.3524011389741L771.7424384615384,363.6866355743521L772.1562730769231,221.8455199145557L772.5405480769231,399.64877214642866L773.7968317307692,338.1345714903844L774.6245009615385,357.3741600958475L777.2996461538462,354.40552563892754L780.1078096153846,234.32713847438768L781.1571759615385,414.61815200824833L781.5562307692308,381.6263946307416L782.0439644230769,359.3027403119166L782.4282394230769,312.07291205773754L783.6401836538462,176.89905474744543L784.4087336538461,397.4132793822714L784.837348076923,211.86890476995615L785.2511826923077,343.2352460319933L785.6502375,360.53521419071285L786.5074663461538,205.97133963389402L786.9656403846154,371.1378382717153L788.5175201923076,81.51612412748312L789.3747490384616,375.7140945254524L789.7442442307693,238.6929998938887L790.1876384615384,218.24115584004127L790.5719134615384,220.2713853512852L790.9414086538461,264.77712099106867L791.2813442307693,303.2750944512974L791.7099586538461,327.9570329445046L792.1090134615384,381.0783710687848L793.0105817307692,308.1531463334609L793.4096365384615,292.74550010334934L794.2520855769232,400.7196305368775L794.6511403846154,319.01922579957755L795.8483048076923,356.7277567891016L797.1932673076923,348.20903855997994L797.6218817307692,363.79740442262073L798.0357163461539,394.59237582080533L798.4938903846154,209.60919094195512L799.2772201923077,218.0405843186231L799.7058346153846,349.57782190037153L801.1690355769231,345.1861706193081L802.4696586538462,224.43793615220736L803.5781442307692,315.813072435715L804.3762538461539,139.45918403266307L805.6177576923077,384.93600067407243L806.2976288461538,290.7888134832921L806.6966836538461,370.5251567850908L807.3765548076923,274.9180347079644L807.8199490384616,331.2969886259448L808.2190038461538,205.11017231795705L808.6328384615384,406.2405082805218L809.0466730769231,402.5468986759729L809.8300028846154,203.73267995097754L810.1994980769231,234.26265648965105L810.5689932692308,304.56587775558194L810.864589423077,329.05586578399334L811.5444605769231,266.13127199385974L812.7268451923077,374.2054242782004L813.1259,296.7547899292181L813.4658355769232,368.34244600025414L814.5447615384616,273.4160061931102L815.195073076923,360.99695387814137L815.6089076923076,264.8845029956642L815.9488432692307,322.21584908384057L816.3183384615385,399.85526697885945L818.2101538461538,296.48868078347687L819.7915932692307,342.537350972088L820.2054278846153,276.38273463411025L820.574923076923,311.75141115703155L820.9444182692308,287.5598465750343L821.6686288461539,326.3163637639683L822.0085644230769,309.1279121982244L822.4223990384615,158.1589009596423L823.2057288461539,207.09858677225034L823.9742788461538,311.97787517163863L824.3733336538462,343.21133286302893L824.7723884615385,97.57433757604252L825.4670394230769,375.8834660324278L826.2503692307693,253.18229833046598L826.5755250000001,321.58657059705195L826.9450201923077,307.2239782341659L828.2013038461539,368.34813472469204L828.8368355769231,287.0484478420617L829.2358903846155,324.43316138845404L829.9453211538461,281.0263758814467L831.6006596153846,336.48759779565154L831.9849346153846,299.66207999683877L832.723925,37.15809005983175L833.4629153846154,382.0647196456771L834.1427865384616,373.37985547498295L836.4484365384616,390.1905346854008L838.3993711538461,326.01348317263376L838.7984259615384,306.3120815714375L839.5226365384616,246.69662465148528L840.9710576923077,383.3255638383581L841.325773076923,360.89926323141555L841.9908644230769,368.8959090384131L842.3751394230769,297.47743387276034L843.4392855769231,230.03921844435004L844.207835576923,252.99756140284398L844.6216701923076,46.25488825580106L845.0207250000001,405.22010066530686L845.7744951923078,361.17270320761793L848.1540442307693,110.3279885926284L848.4792,359.67527845429333L849.1738509615385,274.5941292948672L850.3266759615384,108.56838401868976L850.6666115384616,211.533651231305L852.2037115384616,177.71937467605264L853.7703711538461,298.93055108677754L854.1989855769231,274.50501571978094L854.8936365384616,393.6319783837457L855.3222509615384,247.9719838884795L855.6326269230769,357.5958883939767L856.7558923076923,95.10232289788547L857.1845067307692,339.726256061779L858.2486528846155,373.9109594802353L858.618148076923,292.9730490808647L859.0911019230768,243.4724374446882L860.1404682692307,248.5423224983601L860.539523076923,243.44545998859104L860.9237980769232,303.3377290667578L862.7417144230769,298.72185700520834L863.1555490384616,391.9912798798876L863.4511451923078,322.4589394219336L864.1457961538462,299.30635877954L865.2986211538462,262.16321075850476L865.6385567307692,397.4248034477564L866.0819509615384,113.99369705644204L866.495785576923,230.94000156809926L868.2398028846154,404.27612428848033L868.6240778846153,357.215022428196L870.5750125,372.62917843575707L871.6982778846154,231.81254633291198L872.0382134615385,380.34833764813766L872.4224884615385,365.3442096499319L872.8067634615384,313.70701281418053L873.220598076923,219.32113378358386L873.9743682692307,272.78772469926434L874.2995240384615,315.677070868999L875.0532942307693,351.86647784703337L875.7922846153846,290.389693749663L876.147,385.5568633674916L878.1570538461538,233.8470863724671L878.5117692307692,295.1044147291512L880.0340894230769,255.34547978295404L880.3592451923076,225.06264020078817L880.6548413461538,351.6101187058055L880.9947769230769,417.7440474402218L881.9850240384616,177.67946563502193L882.2658403846153,240.9596633491669L883.6403624999999,317.39371677643504L884.4828115384615,376.849039035793L884.8375269230769,304.32322726731655L885.1774625,378.09551480077016L885.5321778846154,393.8568736006341L885.901673076923,139.7569330426748L886.2268288461539,245.48513160946897L887.7934884615385,399.2463828624139L889.8478817307692,273.13763989883785L890.1878173076923,378.2510456998348L891.2371836538462,305.33077660590254L891.4884403846154,340.8899081042056L891.7840365384616,291.5881965601021L892.4934673076923,347.5177119241678L892.7595038461538,386.9886038798839L893.4541548076922,248.76696846701284L893.8827692307692,212.98512633929883L895.7745846153847,339.65489775806975L896.1293,16.35149245830638L896.469235576923,94.45322184552981L896.8830701923076,343.1616005091802L897.9915557692308,261.37092392558117L898.390610576923,365.3814209453529L900.4745634615384,376.26226470401843L901.1692144230769,402.02698151800433L903.6078826923076,240.24646151525863L906.1500096153846,379.80390619310685" style="fill: none;" fill="none"></path></g></g></g></g></g></g><g transform="translate(68, 377)" clip-path="url(#clip_1)"><clipPath id="clip_1"><rect width="960" height="22"></rect></clipPath><g><g><line x1="0" y1="0" x2="0" y2="5" style="visibility: inherit;" fill="rgb(0, 0, 0)" stroke="rgb(204, 204, 204)" stroke-width="1px"></line><line x1="73.89903846153847" y1="0" x2="73.89903846153847" y2="5" style="visibility: inherit;" fill="rgb(0, 0, 0)" stroke="rgb(204, 204, 204)" stroke-width="1px"></line><line x1="147.79807692307693" y1="0" x2="147.79807692307693" y2="5" style="visibility: inherit;" fill="rgb(0, 0, 0)" stroke="rgb(204, 204, 204)" stroke-width="1px"></line><line x1="221.6971153846154" y1="0" x2="221.6971153846154" y2="5" style="visibility: inherit;" fill="rgb(0, 0, 0)" stroke="rgb(204, 204, 204)" stroke-width="1px"></line><line x1="295.59615384615387" y1="0" x2="295.59615384615387" y2="5" style="visibility: inherit;" fill="rgb(0, 0, 0)" stroke="rgb(204, 204, 204)" stroke-width="1px"></line><line x1="369.4951923076923" y1="0" x2="369.4951923076923" y2="5" style="visibility: inherit;" fill="rgb(0, 0, 0)" stroke="rgb(204, 204, 204)" stroke-width="1px"></line><line x1="443.3942307692308" y1="0" x2="443.3942307692308" y2="5" style="visibility: inherit;" fill="rgb(0, 0, 0)" stroke="rgb(204, 204, 204)" stroke-width="1px"></line><line x1="517.2932692307692" y1="0" x2="517.2932692307692" y2="5" style="visibility: inherit;" fill="rgb(0, 0, 0)" stroke="rgb(204, 204, 204)" stroke-width="1px"></line><line x1="591.1923076923077" y1="0" x2="591.1923076923077" y2="5" style="visibility: inherit;" fill="rgb(0, 0, 0)" stroke="rgb(204, 204, 204)" stroke-width="1px"></line><line x1="665.0913461538462" y1="0" x2="665.0913461538462" y2="5" style="visibility: inherit;" fill="rgb(0, 0, 0)" stroke="rgb(204, 204, 204)" stroke-width="1px"></line><line x1="738.9903846153846" y1="0" x2="738.9903846153846" y2="5" style="visibility: inherit;" fill="rgb(0, 0, 0)" stroke="rgb(204, 204, 204)" stroke-width="1px"></line><line x1="812.8894230769231" y1="0" x2="812.8894230769231" y2="5" style="visibility: inherit;" fill="rgb(0, 0, 0)" stroke="rgb(204, 204, 204)" stroke-width="1px"></line><line x1="886.7884615384615" y1="0" x2="886.7884615384615" y2="5" style="visibility: inherit;" fill="rgb(0, 0, 0)" stroke="rgb(204, 204, 204)" stroke-width="1px"></line><line x1="960.6875" y1="0" x2="960.6875" y2="5" style="visibility: inherit;" fill="rgb(0, 0, 0)" stroke="rgb(204, 204, 204)" stroke-width="1px"></line></g><g transform="translate(0, 8)"><text x="0" y="0" dx="0em" dy="0.95em" style="text-anchor: middle; visibility: hidden; font-family: &quot;Helvetica Neue&quot;, sans-serif; font-size: 12px; font-weight: 200;" fill="rgb(50, 49, 63)" stroke="none" stroke-width="1px">-5k</text><text x="73.89903846153847" y="0" dx="0em" dy="0.95em" style="text-anchor: middle; visibility: inherit; font-family: &quot;Helvetica Neue&quot;, sans-serif; font-size: 12px; font-weight: 200;" fill="rgb(50, 49, 63)" stroke="none" stroke-width="1px">0</text><text x="147.79807692307693" y="0" dx="0em" dy="0.95em" style="text-anchor: middle; visibility: inherit; font-family: &quot;Helvetica Neue&quot;, sans-serif; font-size: 12px; font-weight: 200;" fill="rgb(50, 49, 63)" stroke="none" stroke-width="1px">5k</text><text x="221.6971153846154" y="0" dx="0em" dy="0.95em" style="text-anchor: middle; visibility: inherit; font-family: &quot;Helvetica Neue&quot;, sans-serif; font-size: 12px; font-weight: 200;" fill="rgb(50, 49, 63)" stroke="none" stroke-width="1px">10k</text><text x="295.59615384615387" y="0" dx="0em" dy="0.95em" style="text-anchor: middle; visibility: inherit; font-family: &quot;Helvetica Neue&quot;, sans-serif; font-size: 12px; font-weight: 200;" fill="rgb(50, 49, 63)" stroke="none" stroke-width="1px">15k</text><text x="369.4951923076923" y="0" dx="0em" dy="0.95em" style="text-anchor: middle; visibility: inherit; font-family: &quot;Helvetica Neue&quot;, sans-serif; font-size: 12px; font-weight: 200;" fill="rgb(50, 49, 63)" stroke="none" stroke-width="1px">20k</text><text x="443.3942307692308" y="0" dx="0em" dy="0.95em" style="text-anchor: middle; visibility: inherit; font-family: &quot;Helvetica Neue&quot;, sans-serif; font-size: 12px; font-weight: 200;" fill="rgb(50, 49, 63)" stroke="none" stroke-width="1px">25k</text><text x="517.2932692307692" y="0" dx="0em" dy="0.95em" style="text-anchor: middle; visibility: inherit; font-family: &quot;Helvetica Neue&quot;, sans-serif; font-size: 12px; font-weight: 200;" fill="rgb(50, 49, 63)" stroke="none" stroke-width="1px">30k</text><text x="591.1923076923077" y="0" dx="0em" dy="0.95em" style="text-anchor: middle; visibility: inherit; font-family: &quot;Helvetica Neue&quot;, sans-serif; font-size: 12px; font-weight: 200;" fill="rgb(50, 49, 63)" stroke="none" stroke-width="1px">35k</text><text x="665.0913461538462" y="0" dx="0em" dy="0.95em" style="text-anchor: middle; visibility: inherit; font-family: &quot;Helvetica Neue&quot;, sans-serif; font-size: 12px; font-weight: 200;" fill="rgb(50, 49, 63)" stroke="none" stroke-width="1px">40k</text><text x="738.9903846153846" y="0" dx="0em" dy="0.95em" style="text-anchor: middle; visibility: inherit; font-family: &quot;Helvetica Neue&quot;, sans-serif; font-size: 12px; font-weight: 200;" fill="rgb(50, 49, 63)" stroke="none" stroke-width="1px">45k</text><text x="812.8894230769231" y="0" dx="0em" dy="0.95em" style="text-anchor: middle; visibility: inherit; font-family: &quot;Helvetica Neue&quot;, sans-serif; font-size: 12px; font-weight: 200;" fill="rgb(50, 49, 63)" stroke="none" stroke-width="1px">50k</text><text x="886.7884615384615" y="0" dx="0em" dy="0.95em" style="text-anchor: middle; visibility: inherit; font-family: &quot;Helvetica Neue&quot;, sans-serif; font-size: 12px; font-weight: 200;" fill="rgb(50, 49, 63)" stroke="none" stroke-width="1px">55k</text><text x="960.6875" y="0" dx="0em" dy="0.95em" style="text-anchor: middle; visibility: hidden; font-family: &quot;Helvetica Neue&quot;, sans-serif; font-size: 12px; font-weight: 200;" fill="rgb(50, 49, 63)" stroke="none" stroke-width="1px">60k</text></g><line x1="0" y1="0" x2="960.6875" y2="0" fill="rgb(0, 0, 0)" stroke="rgb(204, 204, 204)" stroke-width="1px"></line></g></g></g></g></svg>