<svg viewBox="0 0 1029 400" xmlns="http://www.w3.org/2000/svg"><g><g><g><g><g><line x1="68.3125" y1="377.828125" x2="63.3125" y2="377.828125" style="visibility: inherit;" fill="rgb(0, 0, 0)" stroke="rgb(204, 204, 204)" stroke-width="1px"></line><line x1="68.3125" y1="330.599609375" x2="63.3125" y2="330.599609375" style="visibility: inherit;" fill="rgb(0, 0, 0)" stroke="rgb(204, 204, 204)" stroke-width="1px"></line><line x1="68.3125" y1="283.37109375" x2="63.3125" y2="283.37109375" style="visibility: inherit;" fill="rgb(0, 0, 0)" stroke="rgb(204, 204, 204)" stroke-width="1px"></line><line x1="68.3125" y1="236.142578125" x2="63.3125" y2="236.142578125" style="visibility: inherit;" fill="rgb(0, 0, 0)" stroke="rgb(204, 204, 204)" stroke-width="1px"></line><line x1="68.3125" y1="188.91406250000003" x2="63.3125" y2="188.91406250000003" style="visibility: inherit;" fill="rgb(0, 0, 0)" stroke="rgb(204, 204, 204)" stroke-width="1px"></line><line x1="68.3125" y1="141.685546875" x2="63.3125" y2="141.685546875" style="visibility: inherit;" fill="rgb(0, 0, 0)" stroke="rgb(204, 204, 204)" stroke-width="1px"></line><line x1="68.3125" y1="94.45703125" x2="63.3125" y2="94.45703125" style="visibility: inherit;" fill="rgb(0, 0, 0)" stroke="rgb(204, 204, 204)" stroke-width="1px"></line><line x1="68.3125" y1="47.228515625" x2="63.3125" y2="47.228515625" style="visibility: inherit;" fill="rgb(0, 0, 0)" stroke="rgb(204, 204, 204)" stroke-width="1px"></line><line x1="68.3125" y1="0" x2="63.3125" y2="0" style="visibility: inherit;" fill="rgb(0, 0, 0)" stroke="rgb(204, 204, 204)" stroke-width="1px"></line></g><g transform="translate(58.3125, 0)"><text x="0" y="377.828125" dx="0em" dy="0.3em" style="text-anchor: end; visibility: hidden; font-family: &quot;Helvetica Neue&quot;, sans-serif; font-size: 12px; font-weight: 200;" fill="rgb(50, 49, 63)" stroke="none" stroke-width="1px">-2e-4</text><text x="0" y="330.599609375" dx="0em" dy="0.3em" style="text-anchor: end; visibility: inherit; font-family: &quot;Helvetica Neue&quot;, sans-serif; font-size: 12px; font-weight: 200;" fill="rgb(50, 49, 63)" stroke="none" stroke-width="1px">0</text><text x="0" y="283.37109375" dx="0em" dy="0.3em" style="text-anchor: end; visibility: inherit; font-family: &quot;Helvetica Neue&quot;, sans-serif; font-size: 12px; font-weight: 200;" fill="rgb(50, 49, 63)" stroke="none" stroke-width="1px">2e-4</text><text x="0" y="236.142578125" dx="0em" dy="0.3em" style="text-anchor: end; visibility: inherit; font-family: &quot;Helvetica Neue&quot;, sans-serif; font-size: 12px; font-weight: 200;" fill="rgb(50, 49, 63)" stroke="none" stroke-width="1px">4e-4</text><text x="0" y="188.91406250000003" dx="0em" dy="0.3em" style="text-anchor: end; visibility: inherit; font-family: &quot;Helvetica Neue&quot;, sans-serif; font-size: 12px; font-weight: 200;" fill="rgb(50, 49, 63)" stroke="none" stroke-width="1px">6e-4</text><text x="0" y="141.685546875" dx="0em" dy="0.3em" style="text-anchor: end; visibility: inherit; font-family: &quot;Helvetica Neue&quot;, sans-serif; font-size: 12px; font-weight: 200;" fill="rgb(50, 49, 63)" stroke="none" stroke-width="1px">8e-4</text><text x="0" y="94.45703125" dx="0em" dy="0.3em" style="text-anchor: end; visibility: inherit; font-family: &quot;Helvetica Neue&quot;, sans-serif; font-size: 12px; font-weight: 200;" fill="rgb(50, 49, 63)" stroke="none" stroke-width="1px">1e-3</text><text x="0" y="47.228515625" dx="0em" dy="0.3em" style="text-anchor: end; visibility: inherit; font-family: &quot;Helvetica Neue&quot;, sans-serif; font-size: 12px; font-weight: 200;" fill="rgb(50, 49, 63)" stroke="none" stroke-width="1px">1.2e-3</text><text x="0" y="0" dx="0em" dy="0.3em" style="text-anchor: end; visibility: hidden; font-family: &quot;Helvetica Neue&quot;, sans-serif; font-size: 12px; font-weight: 200;" fill="rgb(50, 49, 63)" stroke="none" stroke-width="1px">1.4e-3</text></g><line x1="68.3125" y1="0" x2="68.3125" y2="377.828125" fill="rgb(0, 0, 0)" stroke="rgb(204, 204, 204)" stroke-width="1px"></line></g></g><g transform="translate(68, 0)" clip-path="url(#clip_0)"><clipPath id="clip_0"><rect width="960" height="377"></rect></clipPath><g><g><g><line x1="0" y1="0" x2="0" y2="377.828125" fill="rgb(0, 0, 0)" stroke="rgb(60, 60, 60)" stroke-width="1px" opacity="0.25"></line><line x1="73.89903846153847" y1="0" x2="73.89903846153847" y2="377.828125" fill="rgb(0, 0, 0)" stroke="rgb(60, 60, 60)" stroke-width="1px" opacity="0.25"></line><line x1="147.79807692307693" y1="0" x2="147.79807692307693" y2="377.828125" fill="rgb(0, 0, 0)" stroke="rgb(60, 60, 60)" stroke-width="1px" opacity="0.25"></line><line x1="221.6971153846154" y1="0" x2="221.6971153846154" y2="377.828125" fill="rgb(0, 0, 0)" stroke="rgb(60, 60, 60)" stroke-width="1px" opacity="0.25"></line><line x1="295.59615384615387" y1="0" x2="295.59615384615387" y2="377.828125" fill="rgb(0, 0, 0)" stroke="rgb(60, 60, 60)" stroke-width="1px" opacity="0.25"></line><line x1="369.4951923076923" y1="0" x2="369.4951923076923" y2="377.828125" fill="rgb(0, 0, 0)" stroke="rgb(60, 60, 60)" stroke-width="1px" opacity="0.25"></line><line x1="443.3942307692308" y1="0" x2="443.3942307692308" y2="377.828125" fill="rgb(0, 0, 0)" stroke="rgb(60, 60, 60)" stroke-width="1px" opacity="0.25"></line><line x1="517.2932692307692" y1="0" x2="517.2932692307692" y2="377.828125" fill="rgb(0, 0, 0)" stroke="rgb(60, 60, 60)" stroke-width="1px" opacity="0.25"></line><line x1="591.1923076923077" y1="0" x2="591.1923076923077" y2="377.828125" fill="rgb(0, 0, 0)" stroke="rgb(60, 60, 60)" stroke-width="1px" opacity="0.25"></line><line x1="665.0913461538462" y1="0" x2="665.0913461538462" y2="377.828125" fill="rgb(0, 0, 0)" stroke="rgb(60, 60, 60)" stroke-width="1px" opacity="0.25"></line><line x1="738.9903846153846" y1="0" x2="738.9903846153846" y2="377.828125" fill="rgb(0, 0, 0)" stroke="rgb(60, 60, 60)" stroke-width="1px" opacity="0.25"></line><line x1="812.8894230769231" y1="0" x2="812.8894230769231" y2="377.828125" fill="rgb(0, 0, 0)" stroke="rgb(60, 60, 60)" stroke-width="1px" opacity="0.25"></line><line x1="886.7884615384615" y1="0" x2="886.7884615384615" y2="377.828125" fill="rgb(0, 0, 0)" stroke="rgb(60, 60, 60)" stroke-width="1px" opacity="0.25"></line><line x1="960.6875" y1="0" x2="960.6875" y2="377.828125" fill="rgb(0, 0, 0)" stroke="rgb(60, 60, 60)" stroke-width="1px" opacity="0.25"></line></g><g><line x1="0" y1="377.828125" x2="960.6875" y2="377.828125" fill="rgb(0, 0, 0)" stroke="rgb(60, 60, 60)" stroke-width="1px" opacity="0.25"></line><line x1="0" y1="330.599609375" x2="960.6875" y2="330.599609375" fill="rgb(0, 0, 0)" stroke="rgb(60, 60, 60)" stroke-width="1px" opacity="0.25"></line><line x1="0" y1="283.37109375" x2="960.6875" y2="283.37109375" fill="rgb(0, 0, 0)" stroke="rgb(60, 60, 60)" stroke-width="1px" opacity="0.25"></line><line x1="0" y1="236.142578125" x2="960.6875" y2="236.142578125" fill="rgb(0, 0, 0)" stroke="rgb(60, 60, 60)" stroke-width="1px" opacity="0.25"></line><line x1="0" y1="188.91406250000003" x2="960.6875" y2="188.91406250000003" fill="rgb(0, 0, 0)" stroke="rgb(60, 60, 60)" stroke-width="1px" opacity="0.25"></line><line x1="0" y1="141.685546875" x2="960.6875" y2="141.685546875" fill="rgb(0, 0, 0)" stroke="rgb(60, 60, 60)" stroke-width="1px" opacity="0.25"></line><line x1="0" y1="94.45703125" x2="960.6875" y2="94.45703125" fill="rgb(0, 0, 0)" stroke="rgb(60, 60, 60)" stroke-width="1px" opacity="0.25"></line><line x1="0" y1="47.228515625" x2="960.6875" y2="47.228515625" fill="rgb(0, 0, 0)" stroke="rgb(60, 60, 60)" stroke-width="1px" opacity="0.25"></line><line x1="0" y1="0" x2="960.6875" y2="0" fill="rgb(0, 0, 0)" stroke="rgb(60, 60, 60)" stroke-width="1px" opacity="0.25"></line></g></g></g><g><g><line x1="0" y1="330.599609375" x2="960.6875" y2="330.599609375" fill="rgb(0, 0, 0)" stroke="rgb(153, 153, 153)" stroke-width="1.5px"></line></g></g><g><g><line x1="73.89903846153847" y1="0" x2="73.89903846153847" y2="377.828125" fill="rgb(0, 0, 0)" stroke="rgb(153, 153, 153)" stroke-width="1.5px"></line></g></g><g><g><g><g><g><path stroke="rgb(255, 112, 67)" stroke-width="2px" d="M89.87601057692308,-6.970013294115859L91.6495875,5.95968348863704L92.2407798076923,20.030427046892044L92.83197211538462,29.477427950714002L93.42316442307693,36.30630248684696L94.01435673076922,36.975913596094074L95.19674134615384,42.749311519246874L96.97031826923076,43.45141979256374L97.56151057692307,49.16688256897788L98.7438951923077,57.75706131609371L99.3350875,63.30537078997031L99.92627980769231,66.85467390117691L100.51747211538462,71.08936744383072L101.10866442307693,79.9523007055102L101.69985673076924,72.20179718937572L102.88224134615385,76.31000555437942L103.47343365384616,65.40497127819026L105.24701057692307,69.55635791222284L105.83820288461538,73.19332001304116L106.4293951923077,68.38074413872982L107.0205875,76.52877157489343L107.6117798076923,73.33263256884197L109.38535673076923,74.47574088752634L109.97654903846154,77.32116786327265L110.56774134615384,82.67306234650164L111.15893365384615,76.31743331756343L111.75012596153846,76.66825445047226L112.34131826923077,83.74278726328862L112.93251057692306,90.80788210283208L113.52370288461537,64.44566777408824L114.1148951923077,69.47136783067845L114.70608750000001,72.26538452344528L115.88847211538462,77.71016714727648L116.47966442307693,80.82814939866489L117.07085673076924,78.99525497851033L117.66204903846155,86.86782160369097L118.84443365384615,87.79277636912826L120.02681826923077,83.70477575760088L120.61801057692308,81.17791399169204L121.80039519230769,71.39894400285863L122.39158750000001,72.25222395314267L123.57397211538462,74.02405746962046L124.16516442307692,75.61863522184211L124.75635673076924,81.82150490116896L125.34754903846154,74.72435023807327L125.93874134615386,74.66623933337189L126.52993365384614,76.26040785797585L127.71231826923076,81.83863458068396L128.3035105769231,86.02686691555675L128.89470288461538,88.27386389803473L129.4858951923077,87.73061155691619L130.6682798076923,81.88799566623157L132.44185673076922,82.72722108896573L133.03304903846154,84.40623087834666L133.62424134615384,86.09492998879773L134.21543365384616,84.60955854086069L135.39781826923078,73.52818711647222L135.98901057692308,78.77394239392135L136.58020288461537,82.84661434152753L138.35377980769232,72.40394400857394L138.94497211538462,76.15128303606974L140.71854903846156,82.06165399897333L142.49212596153845,83.29034557629728L143.08331826923077,90.43775421926028L143.67451057692307,99.16981356033824L144.2657028846154,105.70408720287094L144.8568951923077,111.7708086721189L146.63047211538463,116.15290753629716L147.2216644230769,115.5479721940381L147.81285673076923,109.60849360298499L148.40404903846152,100.56396524092457L148.99524134615385,102.50103494410928L150.17762596153847,104.57091160929554L150.76881826923076,109.25410358572242L152.54239519230768,114.20508673616195L154.31597211538462,113.97548075706067L154.90716442307692,112.58129285009818L156.08954903846154,118.65657093031393L157.27193365384616,124.34348078579171L157.86312596153846,99.56720836202726L158.45431826923075,86.81929003708706L159.04551057692308,83.51978443285822L159.63670288461537,85.854711172711L160.2278951923077,90.58526954727563L161.41027980769232,92.83043039253425L162.00147211538462,87.1442344844209L162.59266442307694,88.62134462036329L163.18385673076924,95.07872445594296L164.36624134615383,100.45935057863994L164.95743365384615,101.90271358713517L165.54862596153845,103.1443239807262L166.73101057692307,102.63487225699379L167.3222028846154,108.84175743736222L167.9133951923077,112.37566210276407L169.0957798076923,113.81383010524172L169.6869721153846,114.63785824777483L170.86935673076923,114.95245704728171L171.46054903846155,117.4141199713169L172.64293365384617,122.66537439160777L173.23412596153847,111.665469876455L173.8253182692308,111.95477760055559L175.00770288461538,120.3358545896831L175.59889519230768,120.27349334426299L177.37247211538462,129.0852830894206L177.96366442307692,135.8230248180803L178.55485673076925,141.25117121670232L179.14604903846154,138.8132000008632L180.32843365384613,144.35053597756757L180.91962596153846,137.32325036663548L182.10201057692308,140.82146973197808L183.2843951923077,143.2337714338449L183.8755875,134.5322531054119L184.46677980769232,137.13176743454656L185.05797211538462,136.72205422061455L186.24035673076924,139.60797021094146L186.83154903846153,135.61490903409126L188.60512596153848,140.9742470745197L190.9698951923077,141.97194127739843L191.56108749999999,139.24738520072867L193.33466442307693,143.92233453182203L193.92585673076923,151.69691610090018L195.10824134615385,150.4378080765058L195.69943365384617,154.21177479087194L196.29062596153844,142.50653699574838L196.88181826923076,148.15218052770186L197.47301057692306,143.66208774774833L199.2465875,144.7591146135588L199.8377798076923,143.73523696464187L200.42897211538462,147.34209646624487L201.02016442307695,144.2406385014685L202.79374134615384,135.50818819201163L203.38493365384616,139.2208246242676L203.97612596153846,143.3469480593212L204.56731826923078,149.00900822744916L205.15851057692308,154.61923702469014L205.7497028846154,158.63750072346627L206.9320875,158.60866350306648L207.5232798076923,163.2752966414103L208.11447211538461,165.4237705428219L209.29685673076924,170.5157494714771L209.88804903846153,167.5475414477897L210.47924134615386,167.86217466833148L211.07043365384615,173.34579624456703L211.66162596153848,174.65956968709688L212.25281826923077,179.42065673959019L212.84401057692307,184.51735260714273L214.0263951923077,184.45226476660594L214.61758749999998,183.46938328073134L215.7999721153846,182.21890626297906L218.16474134615385,186.49950462488684L218.75593365384614,190.47077715326748L219.93831826923076,194.66607043595437L220.5295105769231,196.3401177366587L221.12070288461538,195.6088889658579L221.7118951923077,195.54271338470988L222.3030875,195.4327083120967L222.89427980769233,186.39632707748655L223.4854721153846,189.03277037022062L224.66785673076922,194.00493869259202L226.44143365384616,195.22471312038024L227.03262596153846,197.829207926787L227.62381826923078,200.60830886921286L228.21501057692308,194.5320232730914L229.39739519230767,199.66876364692237L230.565,199.4123781501396L231.74738461538462,189.10231786554434L232.91498942307692,194.65552302451252L234.09737403846154,192.22565857828002L234.68856634615386,193.99367749881003L235.27975865384616,197.20429411039765L235.87095096153845,198.7957762086373L236.46214326923075,201.71847990251135L237.64452788461537,203.615484790927L238.2357201923077,207.22547737217315L239.403325,208.7424335634853L239.9945173076923,211.11010964610463L240.58570961538462,209.044299603822L241.7680942307692,209.59306974267005L244.72405576923074,209.74907730440827L245.9064403846154,211.14184899016135L246.49763269230772,214.01670439323973L247.6800173076923,201.38746661923736L248.27120961538463,202.9649613550743L248.86240192307696,198.1606848863488L249.45359423076923,201.76007283415765L250.04478653846152,201.84771361729526L250.63597884615385,201.9790223633975L251.21239134615385,203.48640547324717L251.80358365384618,206.3272699426785L252.3947759615385,204.49946807416362L252.98596826923074,203.28126812561447L255.32117788461537,204.95687320026718L255.89759038461537,209.58133103491818L257.079975,211.6262682194307L258.7944326923077,213.38205302801802L261.1444221153846,216.90041105077546L261.72083461538466,220.3434602896893L262.3120269230769,223.1668889091235L262.90321923076925,226.4030533277239L264.08560384615384,221.01692196976063L264.6767961538461,221.88824575324182L265.26798846153844,221.3119548002786L265.85918076923076,221.67752805079863L266.4503730769231,212.94825667858944L267.04156538461535,207.76938037896193L268.8151423076923,210.81557831262995L269.4063346153846,214.232365453705L270.5591596153846,212.0316225703807L271.7119846153846,212.1885823366709L272.89436923076926,213.43927725775254L274.07675384615385,210.70553888352524L275.2591384615385,211.28028071138183L275.8503307692308,212.21541160372374L276.42674326923077,209.36210864048425L276.98837596153845,211.56697963129943L277.5795682692308,209.08854379591799L278.1559807692308,210.68889517975848L278.74717307692305,213.36708810408402L279.3383653846154,216.67567042062225L279.9147778846154,222.3582585139553L281.0823826923077,224.38861264277702L282.2647673076923,225.97876032600652L282.8559596153846,227.24294113032036L284.0235644230769,227.7838267955414L285.16160961538463,231.75855079835196L285.7380221153846,231.494916683701L286.3144346153846,230.5104412756593L286.9056269230769,232.24691979509583L287.49681923076923,233.6522847899128L288.08801153846156,230.1666440850431L288.66442403846156,230.461595580154L289.2112769230769,232.70779512934354L289.80246923076925,233.3772766988872L290.3936615384615,234.23161593514854L290.98485384615384,235.95967414634296L292.15245865384617,237.49574332595657L292.7436509615385,238.33906037247135L293.91125576923076,239.17627848982647L295.09364038461536,240.99251800310884L295.6700528846154,238.53403158892223L296.2464653846154,240.22481353818944L296.8376576923077,241.27348004902734L297.42885,240.15852910303312L298.5521153846154,238.79767729355214L299.1285278846154,234.95844346296445L300.2961326923077,238.93204096516186L300.8725451923077,241.05780425722082L301.4489576923077,243.91466855883272L302.0105903846154,244.7087196449323L302.5870028846154,243.98309870081437L303.73982788461535,244.2040106291512L304.3310201923077,240.48452331209012L304.8926528846154,242.4832088650461L305.4690653846154,242.64521951209673L307.1983028846154,243.7600939128049L308.3067884615385,242.8885866476371L308.8979807692308,245.33793227570598L310.05080576923075,238.31717491620975L310.6419980769231,239.51720553598554L311.2036307692308,242.30766968305952L312.3860153846154,244.81771222453528L312.97720769230773,246.26717452984974L314.1152528846154,247.2737431968492L315.2976375,247.35359037846467L318.17969999999997,244.30057631867848L318.7708923076923,239.89046388321952L320.5444692307692,237.55529191112043L321.13566153846153,238.7527050132225L321.71207403846154,241.6611315249245L322.2589269230769,235.5924173110357L322.8057798076923,235.32722179285932L323.9290451923077,236.69371447970585L325.0523105769231,238.45837925871464L326.19035576923073,240.21912959742238L327.3727403846154,238.02218450911923L328.51078557692307,240.06002742395734L330.22524326923076,242.83890777023282L330.8164355769231,243.9142732538529L333.03340673076923,245.52777428967056L333.5802596153846,240.12530728125026L334.1566721153846,241.67367751194098L334.71830480769233,233.81408387682524L335.9006894230769,235.97158730955528L336.4623221153846,237.9956058705696L338.1767798076923,240.02985729942188L338.7531923076923,238.46081813792506L339.31482500000004,231.4028078948469L339.9060173076923,231.91761544872662L341.59091538461536,232.46304064790377L342.1673278846154,235.4545621620711L343.2905932692308,232.33024511262695L343.85222596153847,235.43755725953724L344.41385865384615,236.34501618242922L344.9607115384615,237.89058506395128L345.5371240384615,238.22862996415262L346.12831634615384,236.24249325179676L346.70472884615384,236.2881486160185L347.23680192307694,234.6278034990239L347.8279942307692,236.31194551639908L348.40440673076927,240.03703429795308L348.95125961538463,243.9070803687197L349.5128923076923,242.53543164776045L350.10408461538464,242.77242914769414L350.63615769230773,242.98774159491128L351.1830105769231,243.75226223694514L352.8974682692308,244.75434526514584L353.4295413461538,244.53789268022908L355.69085192307693,244.0723827136779L356.2672644230769,243.7255374221336L358.528575,241.90040405433942L360.2430326923077,244.00031481068274L360.78988557692304,244.67707396479395L361.86881153846156,247.75371153872746L362.38610480769233,245.83762889901115L364.08578269230765,245.5639986998922L364.67697499999997,243.01015365420722L365.2681673076923,245.61423581319522L367.0121846153846,246.8996452557896L367.58859711538463,248.4655820425741L368.7118625,247.27533722498916L370.9731730769231,250.93222268355225L371.52002596153847,247.58053995146693L372.61373173076925,248.85092476468824L373.7222173076923,246.0653328356997L374.28385000000003,246.04563012290916L374.8307028846154,244.14893489782355L375.4071153846154,242.22486065924465L375.9687480769231,243.07448214029858L376.5599403846154,233.19717584211676L377.72754519230773,233.4666565874114L378.3187375,235.55607958468394L378.89515,223.9435572852299L379.4567826923077,222.181072090157L380.0184153846154,217.87527770093303L380.5652682692308,221.58768432491013L381.11212115384615,224.12898896324248L383.2847528846154,219.5134389397496L383.8316057692308,220.70814141590145L384.37845865384617,213.2634848959673L387.7039153846154,217.73587541666848L388.84196057692304,220.78581669828716L389.38881346153846,223.9940551891827L389.95044615384614,228.27876029197182L390.54163846153847,230.75213361328315L391.10327115384615,232.45789750086627L391.66490384615383,233.37536748944507L392.24131634615384,183.48363541038032L392.8029490384615,190.05548097818013L393.34980192307694,195.45328777446278L393.92621442307694,200.5729612623518L394.4878471153846,203.6207364041112L395.06425961538463,208.44937477217766L395.6258923076923,209.8166012240685L396.17274519230773,214.35785709175673L396.7639375,217.82733718839683L397.31079038461536,216.60742561765886L397.8724230769231,219.05884607768215L399.0104682692308,220.80387125345655L399.5868807692308,223.31904267956273L400.16329326923073,224.79766962573044L401.27177884615384,226.37770519829562L402.3950442307692,227.95901509766153L403.51830961538457,228.14040739852734L404.1095019230769,228.3124757027229L405.72050096153845,230.75118546762238L406.29691346153845,232.87902434837343L406.8733259615385,235.75480665510736L407.96703173076924,235.87218212599828L408.5286644230769,237.84884017320027L409.1050769230769,236.59884993919113L410.1987826923077,237.6942603935523L411.27770865384616,239.39174491635694L411.80978173076926,238.62250537489356L412.3566346153846,239.70282641350533L413.46512019230767,241.94371409531678L413.98241346153844,244.35519620299794L415.12045865384613,245.68285177554142L415.6525317307692,248.71387680310326L416.19938461538464,248.51210897260592L416.77579711538465,248.57329382448737L417.3522096153846,250.30630343993477L417.91384230769233,251.50119069615107L418.4606951923077,252.9219925934703L419.5987403846154,253.2055280484736L420.1308134615385,253.6369286798071L420.69244615384616,253.0180022357672L422.3773442307692,251.61899348528596L422.8946375,253.46879970591385L423.4267105769231,249.47203722452187L425.12638846153845,247.24423345209263L426.2053144230769,244.1627263031251L426.75216730769233,244.70835996047697L427.2990201923077,242.71352933042093L428.36316634615383,242.47628018926213L428.9247990384616,238.37391027568106L429.4864317307692,238.837598633803L430.04806442307694,240.45266579485587L430.5949173076923,237.5132783966787L431.6590634615385,239.59234324302568L432.81188846153844,242.02283608113643L433.92037403846155,239.50438649569531L434.4820067307692,241.26317137013518L435.0288596153846,242.43645177830305L436.6989778846154,244.874059696909L438.9602884615385,241.92833308704869L439.50714134615384,239.49067768478318L440.0392144230769,241.72593748477772L440.5712875,245.01328463838598L441.1033605769231,247.44279337851057L442.1970663461538,242.20084769605498L443.2612125,241.32484115817755L444.85743173076924,243.59457462131618L445.3895048076923,241.19883260649942L446.5571096153846,243.74857570971798L447.6655951923077,245.52622832860874L448.21244807692307,246.8108660809051L449.88256634615385,249.78417018992883L450.9319326923077,246.67426785261247L451.4492259615385,249.77614447237764L451.98129903846154,249.13290810988968L452.51337211538464,246.75013311694718L453.5775182692308,247.0339384889605L454.1243711538462,248.3706947259518L454.65644423076924,251.53612811906527L455.2180769230769,254.28805371962005L455.76492980769234,252.8799163741422L456.2822230769231,255.1513277021068L456.7699567307692,256.62516952032024L457.33158942307693,254.62351051476145L457.8784423076923,254.8950455666955L458.44007500000004,255.30277567535686L460.0806336538462,258.0507957264321L460.62748653846154,257.0545450203309L461.73597211538464,257.0048367115833L462.77055865384614,254.74082857863453L463.87904423076924,255.24869504471533L464.4258971153846,254.34919930069748L464.98752980769234,252.39062573498842L465.5196028846154,253.23438662240432L466.06645576923074,254.9368229404139L466.6280884615385,255.0337206249294L467.17494134615384,255.39975662114597L467.70701442307694,256.21475151084775L468.8007201923077,256.85875219326874L469.33279326923076,254.49121071738074L470.44127884615386,257.1955394951775L471.0029115384615,257.96144460812184L471.56454423076923,259.227272427912L472.6434701923077,257.6755253674273L473.20510288461537,259.156198352827L474.25446923076925,260.0916828341308L474.7569826923077,261.6796249262561L475.348175,260.25986634526475L475.88024807692307,259.5327072883481L476.41232115384616,259.1971246278193L476.9591740384615,260.32124815952943L477.50602692307694,260.1415966541838L478.06765961538457,262.4880195531641L478.6145125,263.1898656757909L479.16136538461535,264.0064622618911L479.66387884615386,263.146198061473L481.18619903846155,257.62304481260594L482.32424423076924,257.9314157836492L483.3588307692308,258.5422157623764L484.98460961538456,257.23993048592536L485.5314625,258.30894605354024L486.03397596153843,256.40612784504435L486.53648942307694,255.13258260773978L487.05378269230766,255.80356682570817L488.16226826923076,257.5477967876133L488.7239009615385,257.8402250753595L489.2855336538462,257.7289024329276L489.8471663461538,258.14044714399245L490.3053403846154,259.043888261004L490.83741346153846,260.4013078925259L491.3547067307692,259.7502658755849L491.88677980769233,261.05957407802L493.95595288461544,259.81910417323354L494.4880259615385,259.5218701621366L495.55217211538456,256.6672030874813L496.5867586538461,258.25065867800924L497.14839134615386,258.6074550143441L498.24209711538464,257.84251277693784L498.81850961538464,258.4291376152847L499.32102307692304,259.0094044948169L499.79397692307685,259.73116985989407L500.3556096153846,259.0857495250515L500.8729028846154,260.25175009758743L502.4100028846154,259.84259237673086L502.92729615384616,259.2909652981947L503.4741490384616,261.60444443703943L507.1691009615385,261.93023523059765L507.70117403846155,263.5977920566717L509.2530538461538,261.63626414707414L510.80493365384615,262.259637029958L511.33700673076925,264.2226762001307L511.8690798076923,265.6730710588452L513.4357394230768,264.1725265360718L514.544225,262.47041683048155L515.0910778846154,262.7026309009921L515.6231509615385,262.0931688240398L517.2637096153846,262.98371960472457L517.7810028846154,262.6329867224691L518.2982961538462,263.46077383003245L518.8451490384616,262.50214239105526L519.3920019230769,263.8974560494328L519.8945153846154,264.0080256895394L520.4265884615385,263.06833968985393L520.9734413461539,258.7250348642533L523.0278346153847,256.97930161008236L523.5599076923077,258.2979625493356L524.6388336538462,256.6098569338265L525.2300259615386,258.70709257436545L525.7473192307692,261.8617221468571L526.7375663461539,260.94051072694816L527.2548596153846,263.16587718099515L527.7869326923077,261.40695494450347L528.8362990384616,263.4731531444577L529.4274913461538,261.10852242672655L529.9595644230769,257.0784027543353L530.4916375,257.6832266496408L531.0384903846154,258.8121356638592L531.5557836538461,260.81262417795784L532.073076923077,257.8757549105811L533.1520028846154,258.06655332297646L535.2211759615385,257.170663577246L535.7089096153846,257.2508819620409L537.3051288461538,257.89062394679087L537.8372019230769,256.9478023221026L538.3544951923077,257.635236771913L538.8865682692307,258.58446349497876L539.8620355769231,259.9361004304209L540.9409615384615,255.92911865880188L541.4878144230769,244.90195315297126L541.975548076923,245.3197982979749L542.4928413461539,246.56497264224453L543.0396942307692,244.31297462553664L543.5865471153846,248.05068677181328L545.0201884615385,251.04869304797114L545.5818211538461,252.86674245307267L547.1780403846153,254.90605787988397L547.6657740384614,257.66490734584386L548.7151403846153,256.3454465181156L550.2818,255.9510320336144L552.3509730769231,250.22482461233113L553.2968807692307,252.2928274801754L553.784614423077,251.7441613932578L554.2575682692308,248.79554822703452L554.7305221153846,250.35830728555766L555.277375,251.29325256685462L556.3415211538462,250.57842842163416L556.8440346153847,254.1588998577961L557.3908875000001,256.0887076096169L558.4106942307693,256.2342801411819L558.9427673076923,256.5227427109815L559.9773538461538,258.64076755738284L561.957848076923,254.3087439226905L563.5392875,255.51327935251823L564.0565807692308,252.73985742223465L564.5886538461539,253.20467970399966L566.1109740384614,252.25002472087175L566.5839278846155,251.25804677961503L567.6480740384616,252.71917027473967L568.1949269230769,255.18158775266542L569.1851740384616,255.90930744757407L569.6729076923076,255.5060200195734L570.1458615384615,256.77771086045925L571.2247875,258.20393594489803L572.1559153846154,260.22022750833304L573.6486759615384,261.1853791596943L574.1216298076923,260.23449147365784L575.1562163461539,259.587047801264L575.6735096153847,261.8181233946491L576.2203625,263.37350056334935L576.6785365384615,263.75297304651656L577.7574625000001,263.43217220834435L578.333875,262.5581946739804L578.8807278846153,252.63869554910877L579.4128009615384,252.8308578043163L580.4178278846155,252.5771102113059L581.4080749999999,251.96549896132134L582.4574413461538,251.89416925242762L582.9156153846153,252.36867568374043L583.3885692307692,252.2137302965181L584.4379355769231,253.14359535025739L584.9256692307692,233.26582432460205L586.8174846153846,232.53398307374113L587.3643375,236.98133066837474L587.8520711538462,241.0092416188667L588.4137038461538,241.8682671532137L588.9605567307692,242.39149935270615L589.9360240384615,245.73664414822593L590.4533173076923,249.1352441286351L591.4879038461538,250.47625791196273L591.9904173076923,251.53886362408426L592.4485913461538,254.59765726672453L592.9511048076923,257.0495433022552L593.4536182692308,257.2804980974845L593.9856913461539,258.84422079262674L594.5029846153845,261.18796986715256L594.9759384615385,261.52342208952905L597.0007721153846,263.17397381134936L597.9171201923077,264.2535577982689L598.8925875,264.904923436687L599.3655413461539,262.4294503645799L599.8089355769231,262.912072466763L600.7991826923077,263.9109626921304L601.3312557692308,261.8902290556694L602.2919432692308,263.1144258270549L603.8290432692307,264.4318517329555L604.3611163461538,265.43297533361846L604.8636298076923,265.27390461646513L605.4104826923076,264.19831828939994L605.8686567307693,263.34545885773923L606.9032432692308,263.9248120542319L607.4500961538462,264.0661790564575L610.5242961538462,263.58736829972787L610.99725,264.54782714151463L611.9431576923076,264.89805156566797L612.4604509615385,260.9502844166305L612.9629644230769,261.04454682895846L613.3767990384615,263.47654234165566L613.8940923076923,265.07577518605007L614.3818259615385,265.48295476396106L614.9138990384615,264.4973651430914L615.8893663461539,265.9477954376647L616.3327605769231,264.91579942422857L616.8500538461539,266.83313497097146L617.382126923077,266.37613799975634L618.2541355769231,267.00882393018594L618.7418692307692,266.87664737215937L619.1704836538462,266.3647956120149L619.7321163461539,266.08916529497344L620.2050701923077,266.8595736590486L620.7223634615384,265.9817035669398L623.1610317307693,263.66717493521696L624.5946730769231,261.7616641481756L625.5701403846153,251.74005527589208L626.0874336538461,254.45752556865978L626.5603875,255.53289600587476L627.0185615384615,258.77507627935387L628.4965423076924,260.2548755921427L629.4867894230769,261.2962313397497L630.8317519230769,259.35621138345675L631.3490451923077,259.4901440018159L632.8270259615385,260.25147935436377L633.2704201923077,262.69928812098226L635.2656942307692,264.64335690847224L635.8125471153846,265.31434881123516L637.1722894230769,265.25673073048455L637.6748028846154,263.0111149009076L638.1920961538461,262.7292847814048L639.0493250000001,261.4681495319502L640.438626923077,262.60947267838156L641.3845346153846,262.8665563911971L641.8722682692307,262.46984865757565L642.3452221153847,259.04119683480275L642.8033961538462,255.65599016440515L643.3059096153846,254.6174948514133L643.7640836538461,255.54763016153495L644.2222576923076,257.40365386878835L644.6065326923077,259.0898945736735L645.5228807692307,260.31159726436675L645.9514951923077,261.97485115174436L647.8137509615384,261.415406811987L648.7448788461539,264.36755310509284L649.2621721153846,264.5920208428882L650.2671990384615,264.8826698015249L651.7008403846154,265.9065663715975L652.1442346153847,265.85479938364665L652.6319682692308,268.2359036569433L653.0901423076923,269.5306788214595L655.57315,269.1782583448657L656.0756634615385,268.8975806026376L656.5486173076923,269.0107860016474L656.9920115384615,269.2750256653559L658.4256528846154,267.91304558670765L659.2533221153845,269.89874767232925L659.6967163461538,271.78163478899546L660.1696701923076,270.7831117820583L660.5982846153846,270.1381170652118L662.105825,265.79127615707233L663.0960721153846,266.6375018796238L664.0419798076923,258.6591686334684L664.9287682692308,260.6241144844124L665.3869423076924,260.2099549453232L666.8501432692308,258.2410060190304L667.825610576923,259.51107661533916L668.3133442307692,260.76257216180363L668.7271788461538,261.103463403046L670.1460403846154,262.1825903785451L671.1215076923077,262.43299907657257L672.1117548076924,263.91171759644374L673.5453961538461,264.61589236529653L674.0331298076924,263.8804000893155L674.5060836538462,264.5468624546427L674.9642576923077,265.3439141786291L675.9101653846153,264.6387738883966L676.3535596153846,265.95346823576574L677.7428615384616,263.55618445708336L680.0780711538462,265.93636060552825L681.0683182692308,264.66539923666454L681.5264923076924,266.74498230535L681.9846663461539,268.3030748170015L682.8418951923077,269.2970718137152L683.7730230769231,270.0308062858725L685.4727009615385,271.6346640630752L686.8176634615385,267.95644722917893L687.2758375000001,266.4055644963968L687.7192317307693,267.6030137777318L688.2217451923077,267.5849813597148L688.7242586538462,264.71735240324483L689.6258269230768,266.7653509930074L690.4239365384616,265.99231029623473L691.310725,267.3881937346442L692.6852471153846,263.2080961442034L694.0893288461538,262.4926984844524L694.4440442307692,261.43218539071336L697.8138403846153,259.09405052996937L698.3163538461539,260.5077838253308L698.7301884615385,261.70025808057073L699.6613163461539,262.8744982749583L701.3609942307692,264.5661645821873L702.3512413461539,264.85964407883046L702.8537548076923,267.1615526487143L703.7405432692308,268.24226613240796L704.6568913461538,270.7203398539605L707.8493298076924,271.02440834196034L708.3518432692307,271.4794672002905L709.2681913461538,273.39839927822726L709.8150442307692,271.89556856391897L710.2584384615385,270.8968022664826L710.7609519230768,271.08353425772185L711.7364192307692,271.2501089029354L712.209373076923,266.67307681974546L713.0222625,265.5839202569658L713.5247759615385,265.6335966361811L714.4854634615384,262.33749346433797L714.9731971153847,259.2666841664599L715.4461509615385,257.15455489497845L715.9930038461539,258.93496431388735L716.8650124999999,261.50646274963947L718.5203509615385,260.3537656741669L718.9637451923078,262.982796390971L719.8800932692308,263.7531191137268L720.8112211538462,266.024883048903L721.2546153846154,268.1155398606688L722.4517798076923,269.81280399621136L722.7917153846154,270.14686558412984L724.2549163461538,271.14955607986457L725.2599432692308,268.4763304110071L726.6640249999999,268.551475416313L727.5360336538462,269.5034191208318L727.9498682692308,268.749505063671L728.8809961538461,269.1975626168685L730.5215548076923,267.631348631619L731.3935634615384,264.666684243977L732.5907278846154,265.08808216904606L733.8322317307692,266.43709994971107L734.6599009615385,265.73282051453805L735.0885153846154,268.41967162761205L735.9605240384616,268.9070074259457L737.2315874999999,269.4652215130434L737.6897615384615,270.66306562631166L739.8180538461539,270.51914837750564L740.2614480769231,266.4815614752756L740.7491817307692,263.96946995409576L743.660803846154,266.8069855985263L744.488473076923,267.29907261231824L745.7151971153846,266.16471487082055L746.6611048076924,265.72689083683827L747.0749394230769,267.9262663846364L747.8878288461539,268.90520403333585L748.331223076923,270.05509958156165L748.7746173076923,270.17859592259606L749.2327913461538,271.6486377051324L749.6614057692308,272.6354390897325L750.4151759615385,273.3367825294208L750.9029096153846,275.3620726047793L751.8488173076923,276.6103013118498L752.3513307692308,275.81964776962224L752.7356057692308,277.3204231989198L754.4205038461539,277.46508285023657L755.3220721153846,278.2758021896028L756.0906221153846,243.51972710605057L758.1450153846154,246.52518186628237L758.9283451923077,248.6812635302071L759.2978403846155,252.15795613669965L760.2585278846153,254.32660195155222L761.0861971153846,254.15794584336948L762.7710951923077,256.25989264247744L763.6283240384615,258.1903641592595L764.1160576923077,260.4917209984394L764.9732865384616,262.259089942337L765.3723413461538,264.69275550118533L765.7566163461538,265.2470656166327L766.2739096153846,261.1281874899281L766.6877442307692,262.4649201334598L767.1163586538462,263.5928285709401L767.8701288461539,262.97369128631385L768.2544038461539,264.41058532949444L768.5943394230769,261.0479724828351L769.0081740384616,259.24626997968306L769.8210634615384,262.13248085624963L771.0034480769231,264.89904998770214L771.7424384615384,265.54693208674973L772.1562730769231,267.0860423841658L772.5405480769231,267.87571736557067L773.7968317307692,268.662148052857L774.6245009615385,267.6299951205651L777.2996461538462,267.44669813220804L780.1078096153846,268.7489236753157L781.1571759615385,270.64098570046906L781.5562307692308,270.4872132473662L782.0439644230769,268.8852824106858L782.4282394230769,270.6287660916356L783.6401836538462,266.4074986064973L784.4087336538461,268.5691037900094L784.837348076923,269.3692724580457L785.2511826923077,267.668517720744L785.6502375,270.01023948680336L786.5074663461538,270.32198986294856L786.9656403846154,271.63969378213113L788.5175201923076,271.68828005875025L789.3747490384616,272.7409766031998L789.7442442307693,273.7887385036949L790.1876384615384,276.0687292805062L790.5719134615384,275.55573806661806L790.9414086538461,272.98577068459343L791.2813442307693,274.57559436286067L791.7099586538461,271.7814271696804L792.1090134615384,272.66468162874855L793.0105817307692,269.8073356403129L793.4096365384615,269.1839286263106L794.2520855769232,270.22408343732906L794.6511403846154,271.079621391455L795.8483048076923,269.6033339990405L797.1932673076923,268.8377540335341L797.6218817307692,270.2178108813066L798.0357163461539,270.4585559639994L798.4938903846154,269.75772517371047L799.2772201923077,270.52355397502873L799.7058346153846,272.5231576439786L801.1690355769231,273.3663288184887L802.4696586538462,273.3733993021198L803.5781442307692,274.9703775477648L804.3762538461539,268.9300955762744L805.6177576923077,269.15339033503994L806.2976288461538,268.85894017446856L806.6966836538461,270.6545681121515L807.3765548076923,271.8975598223191L807.8199490384616,273.0662839975134L808.2190038461538,274.0502924740332L808.6328384615384,274.9382136936744L809.0466730769231,275.53541572828186L809.8300028846154,276.5608849369374L810.1994980769231,277.4733911191649L810.5689932692308,277.00839333541194L810.864589423077,275.91076100429893L811.5444605769231,277.03706665409726L812.7268451923077,277.82401097102115L813.1259,276.99147887918593L813.4658355769232,276.8814728271791L814.5447615384616,277.79186133767155L815.195073076923,277.8439075212226L815.6089076923076,275.6642685816617L815.9488432692307,272.8111813674876L816.3183384615385,273.5747054992107L818.2101538461538,274.46980996554504L819.7915932692307,269.6787874246087L820.2054278846153,269.5209869086399L820.574923076923,271.27804531806873L820.9444182692308,271.3762002996692L821.6686288461539,271.7339502916885L822.0085644230769,268.16360752159505L822.4223990384615,267.8469800356523L823.2057288461539,268.07435204850105L823.9742788461538,269.742945445807L824.3733336538462,271.30684477068235L824.7723884615385,271.22876428036795L825.4670394230769,271.8654634576245L826.2503692307693,272.4157907685046L826.5755250000001,273.2044408929686L826.9450201923077,273.54620713879L828.2013038461539,273.5374255578481L828.8368355769231,272.66612467743994L829.2358903846155,271.8986926400558L829.9453211538461,271.95366324750466L831.6006596153846,271.7231999244992L831.9849346153846,271.7944781870135L832.723925,258.42017100448544L833.4629153846154,259.21992443944464L834.1427865384616,259.6844760035639L836.4484365384616,262.98181617427167L838.3993711538461,262.6807343285595L838.7984259615384,263.82752766956463L839.5226365384616,257.29782058195264L840.9710576923077,258.97065354861775L841.325773076923,259.1293938921747L841.9908644230769,260.96302330053527L842.3751394230769,260.8856405183094L843.4392855769231,261.8301364949091L844.207835576923,260.5448406304634L844.6216701923076,263.0405355635104L845.0207250000001,265.5570922881069L845.7744951923078,265.31530293102344L848.1540442307693,266.90398844328774L848.4792,266.6923753385747L849.1738509615385,267.34080589764L850.3266759615384,268.15971949293424L850.6666115384616,262.74944347885605L852.2037115384616,263.2938144156651L853.7703711538461,264.5566465668137L854.1989855769231,266.0900114101024L854.8936365384616,267.5694838135796L855.3222509615384,268.7492339557827L855.6326269230769,268.3433078380162L856.7558923076923,254.04789703245194L857.1845067307692,255.67204281274223L858.2486528846155,257.4816597034882L858.618148076923,259.54164460195545L859.0911019230768,258.5523060602597L860.1404682692307,258.41795731565827L860.539523076923,258.48174605960537L860.9237980769232,258.27945821094005L862.7417144230769,261.93608775732895L863.1555490384616,264.38639426994877L863.4511451923078,262.19073002749525L864.1457961538462,262.9338226853274L865.2986211538462,264.23586079762674L865.6385567307692,266.0699451052933L866.0819509615384,266.4510311380013L866.495785576923,264.77596493751633L868.2398028846154,266.23015738127174L868.6240778846153,265.0309578691937L870.5750125,264.7532985396612L871.6982778846154,265.74518658415013L872.0382134615385,267.58736804928674L872.4224884615385,268.35145789781654L872.8067634615384,269.88214213271556L873.220598076923,271.4266995159261L873.9743682692307,273.2659057938657L874.2995240384615,271.3990563107569L875.0532942307693,272.179510046259L875.7922846153846,271.498081097231L876.147,272.1612012845039L878.1570538461538,273.68148732793713L878.5117692307692,274.3916279384524L880.0340894230769,274.993533170842L880.3592451923076,272.34021068513414L880.6548413461538,274.976289789676L880.9947769230769,275.8571917460045L881.9850240384616,275.3816301228091L882.2658403846153,276.3603663270412L883.6403624999999,276.87565910190415L884.4828115384615,277.16354836978445L884.8375269230769,275.0209710201553L885.1774625,275.5322471260206L885.5321778846154,275.11725185573795L885.901673076923,268.4811835286351L886.2268288461539,269.69556486094007L887.7934884615385,271.28734346098986L889.8478817307692,270.81774458954993L890.1878173076923,269.5603168204009L891.2371836538462,266.02866512006733L891.4884403846154,266.1447852598641L891.7840365384616,266.91225708182395L892.4934673076923,266.2197221443772L892.7595038461538,267.1776239164106L893.4541548076922,268.60790402952705L893.8827692307692,269.7502240942126L895.7745846153847,267.99638904187566L896.1293,264.4517441876069L896.469235576923,264.0532006969561L896.8830701923076,265.47259930454914L897.9915557692308,264.06896469306577L898.390610576923,265.7097180991818L900.4745634615384,265.63221467052205L901.1692144230769,267.21856990441967L903.6078826923076,268.53070229585524L906.1500096153846,270.1338264333468" style="fill: none;" fill="none"></path></g></g></g></g><g opacity="0.20000000298023224"><g><g><g><path stroke="rgb(255, 112, 67)" stroke-width="2px" d="M74.50501057692308,-124.57227708090068L75.68739519230769,21.35199935061428L76.86977980769231,-89.20373251292767L78.64335673076923,-34.19682782030941L79.82574134615385,69.50763818373707L80.41693365384614,-66.92030795896608L81.00812596153845,-42.83833745965603L81.59931826923076,138.82687140018425L82.19051057692307,7.439301885839086L82.78170288461538,125.56178408011965L83.3728951923077,24.13525909766213L83.9640875,-115.40242532667799L84.55527980769232,-19.745644204007476L85.14647211538463,69.27677200543803L85.73766442307692,-63.853537507369765L86.92004903846154,136.98328208342082L88.10243365384616,-232.56415178956013L88.69362596153846,14.754224444928695L89.87601057692308,147.5539593216272L91.6495875,128.67615453025428L92.2407798076923,156.13325770097254L92.83197211538462,122.43854790689602L93.42316442307693,104.55910600718744L94.01435673076922,43.76386005425593L95.19674134615384,102.03315840932737L96.97031826923076,50.74598123748365L97.56151057692307,109.18569391016354L98.7438951923077,148.84766762726576L99.3350875,122.66632139109424L99.92627980769231,105.13891055190106L100.51747211538462,117.10807657188161L101.10866442307693,176.92553635789955L101.69985673076924,-13.131292457941527L102.88224134615385,121.80112303475744L103.47343365384616,-55.98456910909954L105.24701057692307,115.9906793206037L105.83820288461538,114.05388307629528L106.4293951923077,14.092525360425498L107.0205875,168.78573042824064L107.6117798076923,37.01986257148383L109.38535673076923,87.50403890168491L109.97654903846154,109.84516625491415L110.56774134615384,144.00956693840817L111.15893365384615,3.299050439196435L111.75012596153846,80.70783674249105L112.34131826923077,165.37233082182502L112.93251057692306,172.4839327980735L113.52370288461537,-240.84943804972136L114.1148951923077,127.76688871930764L114.70608750000001,104.72270265246698L115.88847211538462,141.0472470755767L116.47966442307693,117.14414425775067L117.07085673076924,57.62226355592793L117.66204903846155,178.76622541486176L118.84443365384615,98.60062533540804L120.02681826923077,35.894286862472654L120.61801057692308,51.6007743963346L121.80039519230769,-43.15280259582687L122.39158750000001,82.25470611456876L123.57397211538462,94.8077452901689L124.16516442307692,94.33435691313753L124.75635673076924,154.6655750431828L125.34754903846154,-8.664425023638614L125.93874134615386,73.98313767090804L126.52993365384614,95.00820684913015L127.71231826923076,147.46612680916405L128.3035105769231,135.3193164400327L128.89470288461538,114.72836529641518L129.4858951923077,81.33275338515523L130.6682798076923,13.059922908738372L132.44185673076922,92.61622101441026L133.03304903846154,104.19566634176681L133.62424134615384,106.00306426489715L134.21543365384616,67.09481446343125L135.39781826923078,-57.162789344360135L135.98901057692308,140.65204200541393L136.58020288461537,130.89504571247835L138.35377980769232,-50.81476666894923L138.94497211538462,120.37429142971268L140.71854903846156,151.81989785652695L142.49212596153845,97.79391326084442L143.08331826923077,174.8154667721028L143.67451057692307,202.2652162035147L144.2657028846154,182.85836828660285L144.8568951923077,183.41050352809452L146.63047211538463,167.90357036292426L147.2216644230769,108.40343473695702L147.81285673076923,39.456108295113154L148.40404903846152,-6.269360240125025L148.99524134615385,125.38286141740718L150.17762596153847,129.02281117568782L150.76881826923076,164.58032622587416L152.54239519230768,172.69753487063645L154.31597211538462,111.26273352296357L154.90716442307692,96.10862864612136L156.08954903846154,190.43993605841118L157.27193365384616,191.5401791664099L157.86312596153846,-193.19863685630844L158.45431826923075,-63.81906427712602L159.04551057692308,44.52952864177496L159.63670288461537,113.44717896555812L160.2278951923077,146.48876674677103L161.41027980769232,119.36320038366011L162.00147211538462,19.944919751893394L162.59266442307694,106.07808615112936L163.18385673076924,171.3943285577816L164.36624134615383,164.0504034006799L164.95743365384615,118.96135633016092L165.54862596153845,117.81869520440614L166.73101057692307,96.61368621074507L167.3222028846154,182.20139758774712L167.9133951923077,154.1435420242724L169.0957798076923,130.8119553309698L169.6869721153846,124.37736471135031L170.86935673076923,118.67084926429106L171.46054903846155,146.50987953849926L172.64293365384617,184.73325566766653L173.23412596153847,-18.350083172648738L173.8253182692308,115.374326004272L175.00770288461538,219.39867966814612L175.59889519230768,119.53639125330574L177.37247211538462,233.23997026246028L177.96366442307692,215.46293090075645L178.55485673076925,205.4119293612903L179.14604903846154,109.99625467071928L180.32843365384613,209.80233165211396L180.91962596153846,54.25988652952219L182.10201057692308,182.170951732488L183.2843951923077,171.74761044124443L183.8755875,31.678518698541666L184.46677980769232,167.85862320865908L185.05797211538462,131.8791409753576L186.24035673076924,173.7202819371223L186.83154903846153,88.41576512260508L188.60512596153848,204.3232735471893L190.9698951923077,153.7650100116398L191.56108749999999,107.04220948277089L193.33466442307693,199.18188265684515L193.92585673076923,243.5953066467537L195.10824134615385,135.55467733375826L195.69943365384617,198.82152194021822L196.29062596153844,4.145981282377761L196.88181826923076,214.88597850726913L197.47301057692306,90.58733121243313L199.2465875,157.72643501271978L199.8377798076923,131.6325639110264L200.42897211538462,189.97674669925894L201.02016442307695,107.58003585955612L202.79374134615384,32.28672104775433L203.38493365384616,183.10586628651072L203.97612596153846,192.11961258783143L204.56731826923078,215.93717148682893L205.15851057692308,220.9347521014852L205.7497028846154,206.13526240289596L206.9320875,158.2677939334335L207.5232798076923,218.43711983628148L208.11447211538461,190.81976012991257L209.29685673076924,230.70539061173216L209.88804903846153,132.46188701579376L210.47924134615386,171.58129222515618L211.07043365384615,238.16487943840096L211.66162596153848,190.18901547703175L212.25281826923077,235.69904694120717L212.84401057692307,244.76281241511836L214.0263951923077,183.68289427918717L214.61758749999998,171.8512363115824L215.7999721153846,167.4376456876562L218.16474134615385,237.09831233283333L218.75593365384614,237.41320357352473L219.93831826923076,244.256538390815L220.5295105769231,216.12819689245592L221.12070288461538,186.9653973259492L221.7118951923077,194.76048469847777L222.3030875,194.1323928898701L222.89427980769233,79.58173871180952L223.4854721153846,220.19686277964504L224.66785673076922,252.7784844762241L226.44143365384616,209.64306477857556L227.03262596153846,228.61565720781167L227.62381826923078,233.45869246192345L228.21501057692308,122.7072411703748L229.39739519230767,260.3876459520652L230.565,196.38177116327464L231.74738461538462,67.23215757212165L232.91498942307692,260.29723619451806L234.09737403846154,163.50342264935625L234.68856634615386,214.8925625093771L235.27975865384616,235.15542004481952L235.87095096153845,217.60790669397105L236.46214326923075,236.26632951113928L237.64452788461537,226.03905128058025L238.2357201923077,249.89743374170848L239.403325,226.67363087414608L239.9945173076923,239.09725111060746L240.58570961538462,184.625368752123L241.7680942307692,216.07981341141206L244.72405576923074,211.59316648017105L245.9064403846154,227.60512284669724L246.49763269230772,247.9989662862895L247.6800173076923,52.10341278690612L248.27120961538463,221.61175658546065L248.86240192307696,141.37167755940573L249.45359423076923,244.30668127116954L250.04478653846152,202.88367255183496L250.63597884615385,203.53115898878153L251.21239134615385,221.30444588164303L251.80358365384618,239.90774314462763L252.3947759615385,182.89391365080155L252.98596826923074,188.88152062835707L255.32117788461537,224.76338369052976L255.89759038461537,264.2447921807193L257.079975,235.79847362022159L258.7944326923077,234.13632923002618L261.1444221153846,258.48920598726045L261.72083461538466,261.04206689645116L262.3120269230769,256.541262298882L262.90321923076925,264.6561754773561L264.08560384615384,157.3500885039184L264.6767961538461,232.1877395122133L265.26798846153844,214.49990032103054L265.85918076923076,225.9987912760412L266.4503730769231,109.76379403679493L267.04156538461535,146.55240751871224L268.8151423076923,246.82319958834887L269.4063346153846,254.62054119124423L270.5591596153846,186.0177133816169L271.7119846153846,214.04392724811353L272.89436923076926,228.22313247253626L274.07675384615385,178.39134965392168L275.2591384615385,218.07402380353872L275.8503307692308,223.2691382267408L276.42674326923077,175.63460460429815L276.98837596153845,237.6296852879282L277.5795682692308,179.79216139259825L278.1559807692308,229.60586913235696L278.74717307692305,245.02470175157535L279.3383653846154,255.78480993978337L279.9147778846154,289.5293636537847L281.0823826923077,248.38843956338542L282.2647673076923,244.7751213376396L282.8559596153846,242.18620648788695L284.0235644230769,234.17737271707077L285.16160961538463,278.7418267052292L285.7380221153846,228.37862625927167L286.3144346153846,218.87343712002442L286.9056269230769,252.7729863533782L287.49681923076923,250.2644196963647L288.08801153846156,188.96458351925142L288.66442403846156,233.9480735037828L289.2112769230769,259.2590256575281L289.80246923076925,241.29089216366177L290.3936615384615,244.33034381736755L290.98485384615384,256.38620836197424L292.15245865384617,255.65286873678906L292.7436509615385,248.30750032244032L293.91125576923076,249.07262597032832L295.09364038461536,262.4614004364648L295.6700528846154,209.4734614340869L296.2464653846154,260.21072323153794L296.8376576923077,253.66925597644786L297.42885,226.97923715988148L298.5521153846154,222.71171104200997L299.1285278846154,189.576730771606L300.2961326923077,285.90200116049436L300.8725451923077,266.18541649305917L301.4489576923077,277.68426964847527L302.0105903846154,254.09481068471996L302.5870028846154,235.40588703106417L303.73982788461535,246.81530290941146L304.3310201923077,196.51827580823104L304.8926528846154,266.1086970613983L305.4690653846154,244.56026844212923L307.1983028846154,256.93848105653706L308.3067884615385,232.5869238487858L308.8979807692308,274.29045366837136L310.05080576923075,155.3282225538769L310.6419980769231,253.7021828596412L311.2036307692308,275.29238690355874L312.3860153846154,274.48770226179454L312.97720769230773,263.400562290386L314.1152528846154,259.1719010283814L315.2976375,248.29742501232522L318.17969999999997,208.21238448753869L318.7708923076923,187.76067330499336L320.5444692307692,209.95236167927126L321.13566153846153,252.90674193691166L321.71207403846154,276.0402243914232L322.2589269230769,163.85710314672542L322.8057798076923,232.19247477051434L323.9290451923077,252.84635880275664L325.0523105769231,259.31762190175823L326.19035576923073,261.032101548793L327.3727403846154,212.05316692807267L328.51078557692307,264.148375723963L330.22524326923076,275.68669852875905L330.8164355769231,256.6256447392593L333.03340673076923,264.60018396882424L333.5802596153846,176.2653767477932L334.1566721153846,259.97620767419994L334.71830480769233,140.90965655135824L335.9006894230769,261.4743842958237L336.4623221153846,261.9205432194608L338.1767798076923,264.0757523938223L338.7531923076923,219.91397061391675L339.31482500000004,147.97350733069015L339.9060173076923,238.00290473936096L341.59091538461536,238.91024620731153L342.1673278846154,270.8158805726416L343.2905932692308,195.39921537479225L343.85222596153847,272.16758032899725L344.41385865384615,247.07164601444765L344.9607115384615,256.1600018427871L345.5371240384615,242.22449404085503L346.12831634615384,212.76533878030116L346.70472884615384,236.82781843412252L347.23680192307694,215.00167275725383L347.8279942307692,256.2193678242156L348.40440673076927,284.0694939975922L348.95125961538463,289.65300956393526L349.5128923076923,226.3218403565052L350.10408461538464,245.57386113407665L350.63615769230773,245.5328451376463L351.1830105769231,252.78928828761627L352.8974682692308,256.5994805471664L353.4295413461538,241.979312125196L355.69085192307693,238.56981618600096L356.2672644230769,239.625648206712L358.528575,220.32639168124072L360.2430326923077,268.82233682791L360.78988557692304,252.67671422234662L361.86881153846156,284.1211454254026L362.38610480769233,223.18854949112713L364.08578269230765,242.32954942313293L364.67697499999997,212.82239555013442L365.2681673076923,276.39582235913485L367.0121846153846,262.09384405156334L367.58859711538463,266.97575790684914L368.7118625,233.206033099194L370.9731730769231,294.1584841295967L371.52002596153847,207.96193124660115L372.61373173076925,263.86752473634124L373.7222173076923,213.1382077264025L374.28385000000003,245.81273395377002L374.8307028846154,221.72902467311L375.4071153846154,219.48131645451988L375.9687480769231,253.11744374967338L376.5599403846154,116.4423501123938L377.72754519230773,236.65205719204644L378.3187375,260.25413091140626L378.89515,86.67758856610453L379.4567826923077,201.34759324584232L380.0184153846154,166.97857992063837L380.5652682692308,265.47023441857255L381.11212115384615,254.16851302146915L383.2847528846154,164.95527071334982L383.8316057692308,234.8301373519494L384.37845865384617,125.2638270577936L387.7039153846154,270.6018249049439L388.84196057692304,256.8376867194647L389.38881346153846,261.9170794020679L389.95044615384614,278.9261718915984L390.54163846153847,259.988674667753L391.10327115384615,252.62090140280725L391.66490384615383,244.2203332518748L392.24131634615384,-406.26222326771676L392.8029490384615,267.7380657667786L393.34980192307694,259.25813221256567L393.92621442307694,261.0901273627778L394.4878471153846,239.64700154131472L395.06425961538463,265.526356507522L395.6258923076923,225.97791902718748L396.17274519230773,268.03783029699025L396.7639375,258.8383711512424L397.31079038461536,202.18744525585956L397.8724230769231,248.03589305385321L399.0104682692308,241.43096371581444L399.5868807692308,253.04965876763708L400.16329326923073,242.27579839966077L401.27177884615384,245.05453594066788L402.3950442307692,246.65090903631926L403.51830961538457,230.28455741645396L404.1095019230769,230.34641129847026L405.72050096153845,259.5779855091255L406.29691346153845,258.03117111827623L406.8733259615385,269.74802828085876L407.96703173076924,237.25962038447827L408.5286644230769,261.2139519619209L409.1050769230769,221.8233243525706L410.1987826923077,250.64257371305166L411.27770865384616,259.45688248079114L411.80978173076926,229.52969951298067L412.3566346153846,252.47277510068534L413.46512019230767,268.4321556674977L413.98241346153844,272.86015137328013L415.12045865384613,261.376421492017L415.6525317307692,284.5421470006929L416.19938461538464,246.1271097454446L416.77579711538465,249.29653015057374L417.3522096153846,270.7913658174025L417.91384230769233,265.62537082732297L418.4606951923077,269.7165996361409L419.5987403846154,256.55706252941036L420.1308134615385,258.736305373262L420.69244615384616,245.7019742690395L422.3773442307692,235.08199261421262L422.8946375,275.33445785231015L423.4267105769231,202.2282550726832L425.12638846153845,220.91045039850636L426.2053144230769,207.73773154225276L426.75216730769233,251.15802960250767L427.2990201923077,219.13360829309207L428.36316634615383,239.67187367453883L428.9247990384616,189.88179411771037L429.4864317307692,244.3186328157058L430.04806442307694,259.54358787807087L430.5949173076923,202.7682119720712L431.6590634615385,264.16795591394794L432.81188846153844,270.75250783418915L433.92037403846155,209.73502088317312L434.4820067307692,262.05291052697567L435.0288596153846,256.3052278851078L436.6989778846154,273.68783535017405L438.9602884615385,207.10833392946918L439.50714134615384,210.6763407503113L440.0392144230769,268.1478546077901L440.5712875,283.87141381308857L441.1033605769231,276.1608325887014L442.1970663461538,180.23836155215668L443.2612125,230.9699946463443L444.85743173076924,270.4239881214935L445.3895048076923,212.87993340571668L446.5571096153846,273.8878467503273L447.6655951923077,266.538993900625L448.21244807692307,261.99594310163866L449.88256634615385,284.9301495299276L450.9319326923077,209.91362740382195L451.4492259615385,286.44191682396104L451.98129903846154,241.52952444048063L452.51337211538464,218.58451076447275L453.5775182692308,250.38866352737477L454.1243711538462,264.17183896320785L454.65644423076924,288.95317412484223L455.2180769230769,286.81722556207524L455.76492980769234,236.23501082887836L456.2822230769231,282.0005744249702L456.7699567307692,274.04673562792004L457.33158942307693,230.96287457725887L457.8784423076923,258.1047291293007L458.44007500000004,260.12235465209733L460.0806336538462,290.5338019711937L460.62748653846154,245.27835077641706L461.73597211538464,256.4172590107464L462.77055865384614,227.97909141736775L463.87904423076924,261.25193711813245L464.4258971153846,243.71669832653745L464.98752980769234,229.23928179160706L465.5196028846154,263.2080730095513L466.06645576923074,275.06049326355287L466.6280884615385,256.179100947023L467.17494134615384,259.72648980719305L467.70701442307694,265.84840905322017L468.8007201923077,264.47117051624537L469.33279326923076,226.5056563485505L470.44127884615386,289.1620924840058L471.0029115384615,267.0148358149763L471.56454423076923,274.1900064003037L472.6434701923077,239.33307934477492L473.20510288461537,276.6585123597313L474.25446923076925,271.1495891387731L474.7569826923077,280.4499147844556L475.348175,243.47759183662313L475.88024807692307,250.93731433351286L476.41232115384616,255.23036548669643L476.9591740384615,273.6089647779497L477.50602692307694,258.018023732021L478.06765961538457,290.2239415129063L478.6145125,271.4860467663275L479.16136538461535,273.6590526770758L479.66387884615386,252.97743405140272L481.18619903846155,192.33654102471613L482.32424423076924,261.5765188003397L483.3588307692308,265.76218474168945L484.98460961538456,241.84625067967184L485.5314625,270.94525827585903L486.03397596153843,233.91384081641357L486.53648942307694,240.07862480267798L487.05378269230766,263.7349443765661L488.16226826923076,278.16548941423525L488.7239009615385,261.29687739974406L489.2855336538462,256.41301171084797L489.8471663461538,263.0051166773487L490.3053403846154,269.72302556721706L490.83741346153846,276.4467040497468L491.3547067307692,252.05461536764096L491.88677980769233,276.5362684709064L493.95595288461544,245.15611376024574L494.4880259615385,256.0084117232723L495.55217211538456,222.9235743332229L496.5867586538461,276.9679157865571L497.14839134615386,262.82497068230305L498.24209711538464,248.8005032527244L498.81850961538464,265.36334403779483L499.32102307692304,265.868456583647L499.79397692307685,268.2628066111906L500.3556096153846,251.45655018242542L500.8729028846154,274.0344748139737L502.4100028846154,255.0061382917338L502.92729615384616,252.77045034421553L503.4741490384616,288.9509542577432L507.1691009615385,265.7812494826576L507.70117403846155,283.309168898214L509.2530538461538,238.44999834388184L510.80493365384615,269.62822418404676L511.33700673076925,287.42680587832615L511.8690798076923,282.81748208108615L513.4357394230768,246.43532076687825L514.544225,242.3506072336327L515.0910778846154,265.44752029856545L515.6231509615385,254.88901452980917L517.2637096153846,273.5104865251262L517.7810028846154,258.48714419119324L518.2982961538462,273.24564194763957L518.8451490384616,251.17062717647832L519.3920019230769,280.39077903692123L519.8945153846154,265.31501553797943L520.4265884615385,251.96076928331513L520.9734413461539,207.38494448984605L523.0278346153847,236.34383929795925L523.5599076923077,273.88521108768805L524.6388336538462,236.65558286332137L525.2300259615386,283.49749335099295L525.7473192307692,299.1510614524632L526.7375663461539,250.05131932751146L527.2548596153846,289.47084988139727L527.7869326923077,240.61559209776854L528.8362990384616,287.89667545673615L529.4274913461538,233.15737471200785L529.9595644230769,209.44032149863327L530.4916375,264.83255525825234L531.0384903846154,272.1564191396201L531.5557836538461,284.4594243061497L532.073076923077,223.16045408338462L533.1520028846154,260.32188840282834L535.2211759615385,246.58078735207346L535.7089096153846,258.1991044079505L537.3051288461538,265.4527022793477L537.8372019230769,245.80316722001817L538.3544951923077,265.7610644991596L538.8865682692307,269.8048101445497L539.8620355769231,275.9131421544939L540.9409615384615,208.56453925581812L541.4878144230769,114.55520191738378L541.975548076923,250.2589421914795L542.4928413461539,261.283571942457L543.0396942307692,217.69320319727152L543.5865471153846,292.23236111626284L545.0201884615385,286.48666467127305L545.5818211538461,274.3570187544012L547.1780403846153,279.01181202757675L547.6657740384614,290.27592282808746L548.7151403846153,240.74874288778895L550.2818,251.28885056297213L552.3509730769231,182.5381163761367L553.2968807692307,276.73768189238535L553.784614423077,245.2586468786681L554.2575682692308,213.94142849295898L554.7305221153846,268.83092077220317L555.277375,262.34478525090344L556.3415211538462,242.12884044864361L556.8440346153847,296.4819083724283L557.3908875000001,278.9000248811394L558.4106942307693,257.9550221168606L558.9427673076923,259.93251821553577L559.9773538461538,283.6769074084348L561.957848076923,203.10200301004537L563.5392875,269.7515058435588L564.0565807692308,219.95658793862597L564.5886538461539,258.6991174448631L566.1109740384614,240.96551325364183L566.5839278846155,239.5323588073243L567.6480740384616,269.99039928121283L568.1949269230769,284.288625119942L569.1851740384616,264.51132743098105L569.6729076923076,250.73895580654016L570.1458615384615,271.80974874887943L571.2247875,275.0626478404431L572.1559153846154,284.0538277838082L573.6486759615384,272.5939666283498L574.1216298076923,248.9945113899953L575.1562163461539,251.93393157117362L575.6735096153847,288.1905810497901L576.2203625,281.75885632670406L576.6785365384615,268.238532398826L577.7574625000001,259.6401417878983L578.333875,252.22733202419113L578.8807278846153,135.38512897049804L579.4128009615384,255.10231420561558L580.4178278846155,249.57768353495203L581.4080749999999,244.73594033970906L582.4574413461538,251.05101551396592L582.9156153846153,257.97758503848945L583.3885692307692,250.3821963603773L584.4379355769231,264.1350771393295L584.9256692307692,-1.699622927375458L586.8174846153846,223.88324418535925L587.3643375,289.55125992801845L587.8520711538462,288.6212146490411L588.4137038461538,252.02238949511047L588.9605567307692,248.5763722749116L589.9360240384615,285.2779710901391L590.4533173076923,289.3084387688564L591.4879038461538,266.32772853027154L591.9904173076923,264.09940806736677L592.4485913461538,290.7541667348571L592.9511048076923,286.03209361968175L593.4536182692308,260.0105022154512L593.9856913461539,277.32822495828236L594.5029846153845,288.89228585065075L594.9759384615385,265.48863938479917L597.0007721153846,282.6843416000461L597.9171201923077,277.0147941564719L598.8925875,272.60439931644987L599.3655413461539,233.16808917890378L599.8089355769231,268.61691321308035L600.7991826923077,275.71835740737106L601.3312557692308,238.0041211990406L602.2919432692308,277.5850594580479L603.8290432692307,280.0045015437295L604.3611163461538,277.2667696901724L604.8636298076923,263.39360716498595L605.4104826923076,251.48433632075785L605.8686567307693,253.26422301169805L606.9032432692308,270.7730639409792L607.4500961538462,265.737209518662L610.5242961538462,257.92757961120606L610.99725,275.9009431944296L611.9431576923076,269.0378838614297L612.4604509615385,214.2856522190332L612.9629644230769,262.15877688237333L613.3767990384615,292.22397647892285L613.8940923076923,283.9795275261995L614.3818259615385,270.2960261849089L614.9138990384615,252.84719039383708L615.8893663461539,283.0926253299285L616.3327605769231,252.71707731668903L616.8500538461539,289.4970243824705L617.382126923077,260.97419944257217L618.2541355769231,274.4874960821878L618.7418692307692,265.31425267343457L619.1704836538462,260.3144453190257L619.7321163461539,262.831073598662L620.2050701923077,275.96619560363L620.7223634615384,255.60482888842307L623.1610317307693,236.30825957049277L624.5946730769231,239.23754946032753L625.5701403846153,133.27949911889937L626.0874336538461,286.57941800368326L626.5603875,268.24432604577487L627.0185615384615,297.0993097684275L628.4965423076924,277.746862340749L629.4867894230769,273.60559030505306L630.8317519230769,236.42418061804486L631.3490451923077,261.07329623421583L632.8270259615385,269.25085364986535L633.2704201923077,291.63364302895934L635.2656942307692,287.62324693495634L635.8125471153846,273.2458172003053L637.1722894230769,264.575655468278L637.6748028846154,236.46678419744697L638.1920961538461,259.3979082406154L639.0493250000001,246.56088414737133L640.438626923077,276.1004975631213L641.3845346153846,265.9054177144785L641.8722682692307,257.7805598063069L642.3452221153847,218.51277400664097L642.8033961538462,215.64111131688472L643.3059096153846,242.34194769015042L643.7640836538461,266.5423065196396L644.2222576923076,279.34280589555306L644.6065326923077,279.0221244442396L645.5228807692307,274.75274958256114L645.9514951923077,281.63536505125853L647.8137509615384,254.80248782152194L648.7448788461539,299.2634362107797L649.2621721153846,267.2453446152904L650.2671990384615,268.31828954335924L651.7008403846154,278.0095489050186L652.1442346153847,265.2428870388949L652.6319682692308,296.38177724642424L653.0901423076923,284.835585253305L655.57315,265.01246758307707L656.0756634615385,265.5798257521983L656.5486173076923,270.3489318719935L656.9920115384615,272.3984739979105L658.4256528846154,251.8137426057624L659.2533221153845,293.37076463313883L659.6967163461538,294.03832609112646L660.1696701923076,258.9800577769811L660.5982846153846,262.51394874556445L662.105825,214.40938747368003L663.0960721153846,276.6403238820917L664.0419798076923,164.35117821096446L664.9287682692308,283.85078210710935L665.3869423076924,255.31437680378167L666.8501432692308,234.96701999285145L667.825610576923,274.5239623819632L668.3133442307692,275.5558913136017L668.7271788461538,265.1329726905519L670.1460403846154,274.9384246273937L671.1215076923077,265.3929583019735L672.1117548076924,281.3909288185105L673.5453961538461,272.9395992484033L674.0331298076924,255.18650421169332L674.5060836538462,272.42478938838167L674.9642576923077,274.7654743006226L675.9101653846153,256.30365404744316L676.3535596153846,281.49382962389814L677.7428615384616,235.21906081676073L680.0780711538462,294.07126328330014L681.0683182692308,249.64198408163475L681.5264923076924,291.3267206300677L681.9846663461539,286.7205273265231L682.8418951923077,281.04662605692033L683.7730230769231,278.7039240208603L685.4727009615385,290.59308548077956L686.8176634615385,224.47803798748149L687.2758375000001,248.07333527043374L687.7192317307693,281.7574783596658L688.2217451923077,267.37182893136014L688.7242586538462,230.82050755881804L689.6258269230768,290.9737445796882L690.4239365384616,256.8545728292552L691.310725,283.8882518143041L692.6852471153846,213.7971989854041L694.0893288461538,254.03633127560033L694.4440442307692,248.89637676984967L697.8138403846153,231.4560974324568L698.3163538461539,277.21883636793655L698.7301884615385,275.79591530276593L699.6613163461539,276.7546195470775L701.3609942307692,284.5625278548173L702.3512413461539,268.3287222314593L702.8537548076923,294.37129241067373L703.7405432692308,281.0168537217098L704.6568913461538,300.01244204974887L707.8493298076924,274.6186538026766L708.3518432692307,276.8584962692703L709.2681913461538,296.0811605071715L709.8150442307692,254.13133883837736L710.2584384615385,259.09087244294005L710.7609519230768,273.290802154165L711.7364192307692,273.2191066322546L712.209373076923,212.57021040050043L713.0222625,252.70953114308304L713.5247759615385,266.2207969135725L714.4854634615384,223.37586366383314L714.9731971153847,222.9681434915424L715.4461509615385,232.18810376285185L715.9930038461539,279.9803166758611L716.8650124999999,291.90289297737627L718.5203509615385,246.7282951153752L718.9637451923078,294.05928768447643L719.8800932692308,272.85872873399376L720.8112211538462,292.8782977698322L721.2546153846154,292.82817550743835L722.4517798076923,289.87533647018927L722.7917153846154,274.09564486696104L724.2549163461538,283.0018719397035L725.2599432692308,236.87743212015314L726.6640249999999,269.4397279149289L727.5360336538462,280.75588188450274L727.9498682692308,259.8378542854366L728.8809961538461,274.4938326687677L730.5215548076923,249.1178961393107L731.3935634615384,229.62283084133654L732.5907278846154,270.06922174486226L733.8322317307692,282.3831819211623L734.6599009615385,257.4078764218516L735.0885153846154,300.17962965651213L735.9605240384616,274.66756647804436L737.2315874999999,276.0635982861718L737.6897615384615,284.82219732417525L739.8180538461539,268.8179726929011L740.2614480769231,218.7552137335306L740.7491817307692,234.27525992168833L743.660803846154,300.34787565192323L744.488473076923,273.1157934676535L745.7151971153846,252.75602464439862L746.6611048076924,260.5515862300226L747.0749394230769,293.9240132445068L747.8878288461539,280.4767490602703L748.331223076923,283.6474546516147L748.7746173076923,271.63838600508006L749.2327913461538,289.0252854422929L749.6614057692308,284.29993750769745L750.4151759615385,281.6270216498399L750.9029096153846,299.3020399058114L751.8488173076923,291.365004746709L752.3513307692308,266.4737174371371L752.7356057692308,295.06035840164236L754.4205038461539,279.1750341132374L755.3220721153846,287.85892053441876L756.0906221153846,-167.3149040097851L758.1450153846154,282.05119839107374L758.9283451923077,274.167254480702L759.2978403846155,293.25424566472725L760.2585278846153,279.96110760916827L761.0861971153846,252.16434415433787L762.7710951923077,281.1059817293685L763.6283240384615,281.00952747301767L764.1160576923077,287.69493902054L764.9732865384616,283.15029720225516L765.3723413461538,293.4599304403921L765.7566163461538,271.7992954428187L766.2739096153846,212.44093578708637L766.6877442307692,278.2657854839247L767.1163586538462,276.9252847165408L767.8701288461539,255.65517107573078L768.2544038461539,281.3954097886299L768.5943394230769,221.3001642184768L769.0081740384616,237.94922244242437L769.8210634615384,296.2489735254085L771.0034480769231,297.6013158748717L771.7424384615384,273.20523074472226L772.1562730769231,285.2791153869564L772.5405480769231,277.21008060730446L773.7968317307692,277.9581620743702L774.6245009615385,255.42941815167842L777.2996461538462,265.28003373137244L780.1078096153846,284.14189740281904L781.1571759615385,293.0061291259992L781.5562307692308,268.66954399402266L782.0439644230769,249.94963841813023L782.4282394230769,291.23763729465713L783.6401836538462,216.50995217960693L784.4087336538461,294.1203855746014L784.837348076923,278.827676457141L785.2511826923077,247.56472454392087L785.6502375,297.6905916445819L786.5074663461538,274.0070391809727L786.9656403846154,287.21562985246896L788.5175201923076,272.26259476442783L789.3747490384616,285.1843896029752L789.7442442307693,286.17382148134175L790.1876384615384,303.0193894884551L790.5719134615384,269.4919188460435L790.9414086538461,242.60743829707147L791.2813442307693,293.3681255341728L791.7099586538461,238.75293804003698L792.1090134615384,283.1052022859385L793.0105817307692,236.03204075136867L793.4096365384615,261.8149380248983L794.2520855769232,282.51924671629104L794.6511403846154,281.1925187466361L795.8483048076923,252.1528599502435L797.1932673076923,259.7882062361382L797.6218817307692,286.5307905434381L798.0357163461539,273.3042863004446L798.4938903846154,261.4735458320897L799.2772201923077,279.5760431393294L799.7058346153846,296.1594984487451L801.1690355769231,283.3330444966723L802.4696586538462,273.4569760445286L803.5781442307692,293.84747937449197L804.3762538461539,197.53086509275911L805.6177576923077,271.79284889378187L806.2976288461538,265.3783882764319L806.6966836538461,291.87981117040385L807.3765548076923,286.5903592681466L807.8199490384616,286.88120309404076L808.2190038461538,285.6817772862289L808.6328384615384,285.4338978540486L809.0466730769231,282.5946500347957L809.8300028846154,288.6824568648908L810.1994980769231,288.25968214498266L810.5689932692308,271.51188107104963L810.864589423077,262.93618396216834L811.5444605769231,290.35057702735435L812.7268451923077,287.1260963582504L813.1259,267.1505226141594L813.4658355769232,275.58114487909825L814.5447615384616,288.55312039759474L815.195073076923,278.45912010114694L815.6089076923076,249.8998185524929L815.9488432692307,239.08622737430144L816.3183384615385,282.5999522870152L818.2101538461538,285.0504037855476L819.7915932692307,213.04644405610455L820.2054278846153,267.65570388654714L820.574923076923,292.0473767731128L820.9444182692308,272.53644251807464L821.6686288461539,275.96273865889066L822.0085644230769,225.96032503408063L822.4223990384615,264.10428077873894L823.2057288461539,270.7620058414054L823.9742788461538,289.4665750908846L824.3733336538462,289.7929367903632L824.7723884615385,270.3058128435746L825.4670394230769,279.3915742451961L826.2503692307693,278.92094180224126L826.5755250000001,282.52668980009366L826.9450201923077,277.5860594291405L828.2013038461539,273.43362276774064L828.8368355769231,262.36690145005105L829.2358903846155,262.8272524032841L829.9453211538461,272.6034440176054L831.6006596153846,268.9990052602557L831.9849346153846,272.6370238028867L832.723925,100.32900148793578L833.4629153846154,268.673420170629L834.1427865384616,265.1757137230252L836.4484365384616,301.9580679357151L838.3993711538461,259.12179251129464L838.7984259615384,277.38321305939485L839.5226365384616,180.11333423864107L840.9710576923077,278.74439707765964L841.325773076923,261.0057861583218L841.9908644230769,282.6374632301313L842.3751394230769,259.97093634892144L843.4392855769231,272.9945632952283L844.207835576923,245.35198438663065L844.6216701923076,292.54092951568146L845.0207250000001,295.30408331474723L845.7744951923078,262.4572287357555L848.1540442307693,285.6830659087709L848.4792,264.1909999213258L849.1738509615385,275.0055876342831L850.3266759615384,277.8396981450019L850.6666115384616,198.79720649193226L852.2037115384616,269.72855805333074L853.7703711538461,279.48397019962135L854.1989855769231,284.2151701987209L854.8936365384616,285.0576063264757L855.3222509615384,282.69448563669675L855.6326269230769,263.54505295877607L856.7558923076923,85.06881033078207L857.1845067307692,274.87027883104565L858.2486528846155,278.87225936076766L858.618148076923,283.8917225043506L859.0911019230768,246.85781714431732L860.1404682692307,256.8298862576771L860.539523076923,259.23576172523644L860.9237980769232,255.8883121023573L862.7417144230769,305.15932419028536L863.1555490384616,293.35027381655755L863.4511451923078,236.23685270003173L864.1457961538462,271.7175589740609L865.2986211538462,279.62661899685804L865.6385567307692,287.7497621779671L866.0819509615384,270.9556634733449L866.495785576923,244.97582343947536L868.2398028846154,283.41945780617584L868.6240778846153,250.8558046623225L870.5750125,261.4712228751873L871.6982778846154,277.46981193054444L872.0382134615385,289.36289767564494L872.4224884615385,277.38339174838734L872.8067634615384,287.97561475549605L873.220598076923,289.684159866184L873.9743682692307,295.0062671818191L874.2995240384615,249.3319380617013L875.0532942307693,281.40487343257837L875.7922846153846,263.44324146897725L876.147,279.99962195970375L878.1570538461538,291.65204799518597L878.5117692307692,282.78585412941516L880.0340894230769,282.10836168703713L880.3592451923076,240.9765782258692L880.6548413461538,306.1360966407992L880.9947769230769,286.2699046144005L881.9850240384616,269.76024785888376L882.2658403846153,287.92953017706714L883.6403624999999,282.9666839534898L884.4828115384615,280.56654715165087L884.8375269230769,249.6946079899235L885.1774625,281.5757928902233L885.5321778846154,270.2117949429098L885.901673076923,190.03945279031635L886.2268288461539,284.05017496844243L887.7934884615385,290.1029828102967L889.8478817307692,265.26684510919586L890.1878173076923,254.6968757543059L891.2371836538462,224.28273091868826L891.4884403846154,267.5173848610516L891.7840365384616,275.9841675926825L892.4934673076923,258.03360403763554L892.7595038461538,278.50051409352295L893.4541548076922,285.5145484435443L893.8827692307692,283.25303306395745L895.7745846153847,247.2651593206624L896.1293,222.55222424355773L896.469235576923,259.3422122561865L896.8830701923076,282.25061874302105L897.9915557692308,247.4772837727105L898.390610576923,285.10426477147666L900.4745634615384,264.71608439841566L901.1692144230769,285.9701022845943L903.6078826923076,284.0407800510295L906.1500096153846,289.0835758534397" style="fill: none;" fill="none"></path></g></g></g></g></g></g><g transform="translate(68, 377)" clip-path="url(#clip_1)"><clipPath id="clip_1"><rect width="960" height="22"></rect></clipPath><g><g><line x1="0" y1="0" x2="0" y2="5" style="visibility: inherit;" fill="rgb(0, 0, 0)" stroke="rgb(204, 204, 204)" stroke-width="1px"></line><line x1="73.89903846153847" y1="0" x2="73.89903846153847" y2="5" style="visibility: inherit;" fill="rgb(0, 0, 0)" stroke="rgb(204, 204, 204)" stroke-width="1px"></line><line x1="147.79807692307693" y1="0" x2="147.79807692307693" y2="5" style="visibility: inherit;" fill="rgb(0, 0, 0)" stroke="rgb(204, 204, 204)" stroke-width="1px"></line><line x1="221.6971153846154" y1="0" x2="221.6971153846154" y2="5" style="visibility: inherit;" fill="rgb(0, 0, 0)" stroke="rgb(204, 204, 204)" stroke-width="1px"></line><line x1="295.59615384615387" y1="0" x2="295.59615384615387" y2="5" style="visibility: inherit;" fill="rgb(0, 0, 0)" stroke="rgb(204, 204, 204)" stroke-width="1px"></line><line x1="369.4951923076923" y1="0" x2="369.4951923076923" y2="5" style="visibility: inherit;" fill="rgb(0, 0, 0)" stroke="rgb(204, 204, 204)" stroke-width="1px"></line><line x1="443.3942307692308" y1="0" x2="443.3942307692308" y2="5" style="visibility: inherit;" fill="rgb(0, 0, 0)" stroke="rgb(204, 204, 204)" stroke-width="1px"></line><line x1="517.2932692307692" y1="0" x2="517.2932692307692" y2="5" style="visibility: inherit;" fill="rgb(0, 0, 0)" stroke="rgb(204, 204, 204)" stroke-width="1px"></line><line x1="591.1923076923077" y1="0" x2="591.1923076923077" y2="5" style="visibility: inherit;" fill="rgb(0, 0, 0)" stroke="rgb(204, 204, 204)" stroke-width="1px"></line><line x1="665.0913461538462" y1="0" x2="665.0913461538462" y2="5" style="visibility: inherit;" fill="rgb(0, 0, 0)" stroke="rgb(204, 204, 204)" stroke-width="1px"></line><line x1="738.9903846153846" y1="0" x2="738.9903846153846" y2="5" style="visibility: inherit;" fill="rgb(0, 0, 0)" stroke="rgb(204, 204, 204)" stroke-width="1px"></line><line x1="812.8894230769231" y1="0" x2="812.8894230769231" y2="5" style="visibility: inherit;" fill="rgb(0, 0, 0)" stroke="rgb(204, 204, 204)" stroke-width="1px"></line><line x1="886.7884615384615" y1="0" x2="886.7884615384615" y2="5" style="visibility: inherit;" fill="rgb(0, 0, 0)" stroke="rgb(204, 204, 204)" stroke-width="1px"></line><line x1="960.6875" y1="0" x2="960.6875" y2="5" style="visibility: inherit;" fill="rgb(0, 0, 0)" stroke="rgb(204, 204, 204)" stroke-width="1px"></line></g><g transform="translate(0, 8)"><text x="0" y="0" dx="0em" dy="0.95em" style="text-anchor: middle; visibility: hidden; font-family: &quot;Helvetica Neue&quot;, sans-serif; font-size: 12px; font-weight: 200;" fill="rgb(50, 49, 63)" stroke="none" stroke-width="1px">-5k</text><text x="73.89903846153847" y="0" dx="0em" dy="0.95em" style="text-anchor: middle; visibility: inherit; font-family: &quot;Helvetica Neue&quot;, sans-serif; font-size: 12px; font-weight: 200;" fill="rgb(50, 49, 63)" stroke="none" stroke-width="1px">0</text><text x="147.79807692307693" y="0" dx="0em" dy="0.95em" style="text-anchor: middle; visibility: inherit; font-family: &quot;Helvetica Neue&quot;, sans-serif; font-size: 12px; font-weight: 200;" fill="rgb(50, 49, 63)" stroke="none" stroke-width="1px">5k</text><text x="221.6971153846154" y="0" dx="0em" dy="0.95em" style="text-anchor: middle; visibility: inherit; font-family: &quot;Helvetica Neue&quot;, sans-serif; font-size: 12px; font-weight: 200;" fill="rgb(50, 49, 63)" stroke="none" stroke-width="1px">10k</text><text x="295.59615384615387" y="0" dx="0em" dy="0.95em" style="text-anchor: middle; visibility: inherit; font-family: &quot;Helvetica Neue&quot;, sans-serif; font-size: 12px; font-weight: 200;" fill="rgb(50, 49, 63)" stroke="none" stroke-width="1px">15k</text><text x="369.4951923076923" y="0" dx="0em" dy="0.95em" style="text-anchor: middle; visibility: inherit; font-family: &quot;Helvetica Neue&quot;, sans-serif; font-size: 12px; font-weight: 200;" fill="rgb(50, 49, 63)" stroke="none" stroke-width="1px">20k</text><text x="443.3942307692308" y="0" dx="0em" dy="0.95em" style="text-anchor: middle; visibility: inherit; font-family: &quot;Helvetica Neue&quot;, sans-serif; font-size: 12px; font-weight: 200;" fill="rgb(50, 49, 63)" stroke="none" stroke-width="1px">25k</text><text x="517.2932692307692" y="0" dx="0em" dy="0.95em" style="text-anchor: middle; visibility: inherit; font-family: &quot;Helvetica Neue&quot;, sans-serif; font-size: 12px; font-weight: 200;" fill="rgb(50, 49, 63)" stroke="none" stroke-width="1px">30k</text><text x="591.1923076923077" y="0" dx="0em" dy="0.95em" style="text-anchor: middle; visibility: inherit; font-family: &quot;Helvetica Neue&quot;, sans-serif; font-size: 12px; font-weight: 200;" fill="rgb(50, 49, 63)" stroke="none" stroke-width="1px">35k</text><text x="665.0913461538462" y="0" dx="0em" dy="0.95em" style="text-anchor: middle; visibility: inherit; font-family: &quot;Helvetica Neue&quot;, sans-serif; font-size: 12px; font-weight: 200;" fill="rgb(50, 49, 63)" stroke="none" stroke-width="1px">40k</text><text x="738.9903846153846" y="0" dx="0em" dy="0.95em" style="text-anchor: middle; visibility: inherit; font-family: &quot;Helvetica Neue&quot;, sans-serif; font-size: 12px; font-weight: 200;" fill="rgb(50, 49, 63)" stroke="none" stroke-width="1px">45k</text><text x="812.8894230769231" y="0" dx="0em" dy="0.95em" style="text-anchor: middle; visibility: inherit; font-family: &quot;Helvetica Neue&quot;, sans-serif; font-size: 12px; font-weight: 200;" fill="rgb(50, 49, 63)" stroke="none" stroke-width="1px">50k</text><text x="886.7884615384615" y="0" dx="0em" dy="0.95em" style="text-anchor: middle; visibility: inherit; font-family: &quot;Helvetica Neue&quot;, sans-serif; font-size: 12px; font-weight: 200;" fill="rgb(50, 49, 63)" stroke="none" stroke-width="1px">55k</text><text x="960.6875" y="0" dx="0em" dy="0.95em" style="text-anchor: middle; visibility: hidden; font-family: &quot;Helvetica Neue&quot;, sans-serif; font-size: 12px; font-weight: 200;" fill="rgb(50, 49, 63)" stroke="none" stroke-width="1px">60k</text></g><line x1="0" y1="0" x2="960.6875" y2="0" fill="rgb(0, 0, 0)" stroke="rgb(204, 204, 204)" stroke-width="1px"></line></g></g></g></g></svg>