<svg viewBox="0 0 330 200" xmlns="http://www.w3.org/2000/svg"><g><g><g><g><g><line x1="58.59375" y1="177.828125" x2="53.59375" y2="177.828125" style="visibility: inherit;" fill="rgb(0, 0, 0)" stroke="rgb(204, 204, 204)" stroke-width="1px"></line><line x1="58.59375" y1="152.42410714285714" x2="53.59375" y2="152.42410714285714" style="visibility: inherit;" fill="rgb(0, 0, 0)" stroke="rgb(204, 204, 204)" stroke-width="1px"></line><line x1="58.59375" y1="127.02008928571428" x2="53.59375" y2="127.02008928571428" style="visibility: inherit;" fill="rgb(0, 0, 0)" stroke="rgb(204, 204, 204)" stroke-width="1px"></line><line x1="58.59375" y1="101.61607142857142" x2="53.59375" y2="101.61607142857142" style="visibility: inherit;" fill="rgb(0, 0, 0)" stroke="rgb(204, 204, 204)" stroke-width="1px"></line><line x1="58.59375" y1="76.21205357142856" x2="53.59375" y2="76.21205357142856" style="visibility: inherit;" fill="rgb(0, 0, 0)" stroke="rgb(204, 204, 204)" stroke-width="1px"></line><line x1="58.59375" y1="50.808035714285694" x2="53.59375" y2="50.808035714285694" style="visibility: inherit;" fill="rgb(0, 0, 0)" stroke="rgb(204, 204, 204)" stroke-width="1px"></line><line x1="58.59375" y1="25.404017857142833" x2="53.59375" y2="25.404017857142833" style="visibility: inherit;" fill="rgb(0, 0, 0)" stroke="rgb(204, 204, 204)" stroke-width="1px"></line><line x1="58.59375" y1="0" x2="53.59375" y2="0" style="visibility: inherit;" fill="rgb(0, 0, 0)" stroke="rgb(204, 204, 204)" stroke-width="1px"></line></g><g transform="translate(48.59375, 0)"><text x="0" y="177.828125" dx="0em" dy="0.3em" style="text-anchor: end; visibility: hidden; font-family: &quot;Helvetica Neue&quot;, sans-serif; font-size: 12px; font-weight: 200;" fill="rgb(50, 49, 63)" stroke="none" stroke-width="1px">-5e-3</text><text x="0" y="152.42410714285714" dx="0em" dy="0.3em" style="text-anchor: end; visibility: inherit; font-family: &quot;Helvetica Neue&quot;, sans-serif; font-size: 12px; font-weight: 200;" fill="rgb(50, 49, 63)" stroke="none" stroke-width="1px">0</text><text x="0" y="127.02008928571428" dx="0em" dy="0.3em" style="text-anchor: end; visibility: inherit; font-family: &quot;Helvetica Neue&quot;, sans-serif; font-size: 12px; font-weight: 200;" fill="rgb(50, 49, 63)" stroke="none" stroke-width="1px">5e-3</text><text x="0" y="101.61607142857142" dx="0em" dy="0.3em" style="text-anchor: end; visibility: inherit; font-family: &quot;Helvetica Neue&quot;, sans-serif; font-size: 12px; font-weight: 200;" fill="rgb(50, 49, 63)" stroke="none" stroke-width="1px">0.01</text><text x="0" y="76.21205357142856" dx="0em" dy="0.3em" style="text-anchor: end; visibility: inherit; font-family: &quot;Helvetica Neue&quot;, sans-serif; font-size: 12px; font-weight: 200;" fill="rgb(50, 49, 63)" stroke="none" stroke-width="1px">0.015</text><text x="0" y="50.808035714285694" dx="0em" dy="0.3em" style="text-anchor: end; visibility: inherit; font-family: &quot;Helvetica Neue&quot;, sans-serif; font-size: 12px; font-weight: 200;" fill="rgb(50, 49, 63)" stroke="none" stroke-width="1px">0.02</text><text x="0" y="25.404017857142833" dx="0em" dy="0.3em" style="text-anchor: end; visibility: inherit; font-family: &quot;Helvetica Neue&quot;, sans-serif; font-size: 12px; font-weight: 200;" fill="rgb(50, 49, 63)" stroke="none" stroke-width="1px">0.025</text><text x="0" y="0" dx="0em" dy="0.3em" style="text-anchor: end; visibility: hidden; font-family: &quot;Helvetica Neue&quot;, sans-serif; font-size: 12px; font-weight: 200;" fill="rgb(50, 49, 63)" stroke="none" stroke-width="1px">0.03</text></g><line x1="58.59375" y1="0" x2="58.59375" y2="177.828125" fill="rgb(0, 0, 0)" stroke="rgb(204, 204, 204)" stroke-width="1px"></line></g></g><g transform="translate(58, 0)" clip-path="url(#clip_0)"><clipPath id="clip_0"><rect width="271" height="177"></rect></clipPath><g><g><g><line x1="0" y1="0" x2="0" y2="177.828125" fill="rgb(0, 0, 0)" stroke="rgb(60, 60, 60)" stroke-width="1px" opacity="0.25"></line><line x1="20.877403846153847" y1="0" x2="20.877403846153847" y2="177.828125" fill="rgb(0, 0, 0)" stroke="rgb(60, 60, 60)" stroke-width="1px" opacity="0.25"></line><line x1="41.75480769230769" y1="0" x2="41.75480769230769" y2="177.828125" fill="rgb(0, 0, 0)" stroke="rgb(60, 60, 60)" stroke-width="1px" opacity="0.25"></line><line x1="62.63221153846154" y1="0" x2="62.63221153846154" y2="177.828125" fill="rgb(0, 0, 0)" stroke="rgb(60, 60, 60)" stroke-width="1px" opacity="0.25"></line><line x1="83.50961538461539" y1="0" x2="83.50961538461539" y2="177.828125" fill="rgb(0, 0, 0)" stroke="rgb(60, 60, 60)" stroke-width="1px" opacity="0.25"></line><line x1="104.38701923076924" y1="0" x2="104.38701923076924" y2="177.828125" fill="rgb(0, 0, 0)" stroke="rgb(60, 60, 60)" stroke-width="1px" opacity="0.25"></line><line x1="125.26442307692308" y1="0" x2="125.26442307692308" y2="177.828125" fill="rgb(0, 0, 0)" stroke="rgb(60, 60, 60)" stroke-width="1px" opacity="0.25"></line><line x1="146.1418269230769" y1="0" x2="146.1418269230769" y2="177.828125" fill="rgb(0, 0, 0)" stroke="rgb(60, 60, 60)" stroke-width="1px" opacity="0.25"></line><line x1="167.01923076923077" y1="0" x2="167.01923076923077" y2="177.828125" fill="rgb(0, 0, 0)" stroke="rgb(60, 60, 60)" stroke-width="1px" opacity="0.25"></line><line x1="187.8966346153846" y1="0" x2="187.8966346153846" y2="177.828125" fill="rgb(0, 0, 0)" stroke="rgb(60, 60, 60)" stroke-width="1px" opacity="0.25"></line><line x1="208.77403846153848" y1="0" x2="208.77403846153848" y2="177.828125" fill="rgb(0, 0, 0)" stroke="rgb(60, 60, 60)" stroke-width="1px" opacity="0.25"></line><line x1="229.6514423076923" y1="0" x2="229.6514423076923" y2="177.828125" fill="rgb(0, 0, 0)" stroke="rgb(60, 60, 60)" stroke-width="1px" opacity="0.25"></line><line x1="250.52884615384616" y1="0" x2="250.52884615384616" y2="177.828125" fill="rgb(0, 0, 0)" stroke="rgb(60, 60, 60)" stroke-width="1px" opacity="0.25"></line><line x1="271.40625" y1="0" x2="271.40625" y2="177.828125" fill="rgb(0, 0, 0)" stroke="rgb(60, 60, 60)" stroke-width="1px" opacity="0.25"></line></g><g><line x1="0" y1="177.828125" x2="271.40625" y2="177.828125" fill="rgb(0, 0, 0)" stroke="rgb(60, 60, 60)" stroke-width="1px" opacity="0.25"></line><line x1="0" y1="152.42410714285714" x2="271.40625" y2="152.42410714285714" fill="rgb(0, 0, 0)" stroke="rgb(60, 60, 60)" stroke-width="1px" opacity="0.25"></line><line x1="0" y1="127.02008928571428" x2="271.40625" y2="127.02008928571428" fill="rgb(0, 0, 0)" stroke="rgb(60, 60, 60)" stroke-width="1px" opacity="0.25"></line><line x1="0" y1="101.61607142857142" x2="271.40625" y2="101.61607142857142" fill="rgb(0, 0, 0)" stroke="rgb(60, 60, 60)" stroke-width="1px" opacity="0.25"></line><line x1="0" y1="76.21205357142856" x2="271.40625" y2="76.21205357142856" fill="rgb(0, 0, 0)" stroke="rgb(60, 60, 60)" stroke-width="1px" opacity="0.25"></line><line x1="0" y1="50.808035714285694" x2="271.40625" y2="50.808035714285694" fill="rgb(0, 0, 0)" stroke="rgb(60, 60, 60)" stroke-width="1px" opacity="0.25"></line><line x1="0" y1="25.404017857142833" x2="271.40625" y2="25.404017857142833" fill="rgb(0, 0, 0)" stroke="rgb(60, 60, 60)" stroke-width="1px" opacity="0.25"></line><line x1="0" y1="0" x2="271.40625" y2="0" fill="rgb(0, 0, 0)" stroke="rgb(60, 60, 60)" stroke-width="1px" opacity="0.25"></line></g></g></g><g><g><line x1="0" y1="152.42410714285714" x2="271.40625" y2="152.42410714285714" fill="rgb(0, 0, 0)" stroke="rgb(153, 153, 153)" stroke-width="1.5px"></line></g></g><g><g><line x1="20.877403846153847" y1="0" x2="20.877403846153847" y2="177.828125" fill="rgb(0, 0, 0)" stroke="rgb(153, 153, 153)" stroke-width="1.5px"></line></g></g><g><g><g><g><g><path stroke="rgb(255, 112, 67)" stroke-width="2px" d="M35.95088942307692,-7.1188652091654205L37.62108173076923,11.341222107392582L39.29127403846154,23.185544598506823L40.96146634615384,39.49238055799148L42.63165865384616,50.07377250964204L44.30185096153846,58.399981097498056L45.97204326923077,64.75203833392716L47.64223557692308,68.81397821702605L49.31242788461538,76.34061138334651L50.98262019230769,82.98177092149025L52.6528125,85.46046398263105L54.32300480769231,90.91159505542943L55.99319711538461,95.08887841679008L57.66338942307692,99.60518701476215L59.33358173076923,102.37592694973257L61.00377403846154,104.68848634409117L62.67396634615385,108.34766665704171L64.34415865384615,111.18325664008015L66.01435096153845,112.70190190564105L67.68454326923077,114.42478058962342L69.35473557692308,115.12936272657169L71.02492788461538,117.04234050735667L72.6951201923077,116.83219020731492L74.3653125,115.38299480973473L76.0355048076923,116.95958443691512L77.70569711538462,117.42492219284858L79.37588942307691,119.41583250326468L81.04608173076923,121.44429463161708L82.71627403846155,122.67637958962851L84.38646634615384,123.2596464777657L86.05665865384616,121.68435958181124L87.72685096153846,121.37656501807786L89.39704326923076,123.23753420103836L91.06723557692308,119.96256532672979L92.73742788461539,121.2014680449897L94.40762019230769,120.23333684027236L96.0778125,119.69635366147472L97.74800480769231,121.27040423532296L99.41819711538463,122.13514013575548L101.08838942307692,121.26672131320396L102.75858173076924,122.15684502726111L104.42877403846154,123.0670258803093L106.09896634615384,123.41933017678787L107.76915865384615,123.07045265196363L109.43935096153847,123.13189060431625L111.10954326923077,124.04816665741768L112.77973557692307,124.36646133648117L114.44992788461539,125.26276341605872L116.12012019230768,124.80157873995236L117.7903125,124.78306248639576L119.46050480769232,126.29431587073464L121.1306971153846,127.2469664906873L122.80088942307692,127.97892924985322L124.47108173076923,128.52086892787042L126.14127403846153,129.03877232706435L127.81146634615385,129.0786279333711L129.48165865384615,127.80158699768793L131.15185096153846,127.13206885475958L132.82204326923076,125.89003847795388L134.49223557692306,125.405995282393L136.16242788461537,126.11674669387867L137.8326201923077,126.83244659308554L139.5028125,127.03308962118115L141.1730048076923,126.3286978720181L142.8431971153846,126.98854788864617L144.51338942307692,127.13112534231158L146.18358173076922,126.16386572696054L147.85377403846155,125.1469036745429L149.52396634615386,125.69630717037609L151.19415865384613,127.13108251650428L152.86435096153846,128.1788475867374L154.53454326923077,129.11568544349217L156.20473557692307,126.74389955573616L157.8749278846154,128.4752995015344L159.54512019230768,127.62105510375933L161.21531249999998,127.87167295595742L162.8855048076923,126.36303529110921L164.55569711538462,127.8383576575426L166.22588942307692,129.46749273745115L167.81257211538463,130.70847815392275L169.44100961538462,128.58658335581512L170.9859375,128.24408619534066L172.614375,128.43900776610428L174.28456730769233,128.93129997268136L175.95475961538463,126.9280554443536L177.5414423076923,127.91054144627525L179.2116346153846,129.0214958403585L180.7565625,129.38471431193085L182.25973557692308,130.22813444832016L183.34536057692307,130.00082479396724L184.76502403846155,130.26206170243174L185.85064903846154,130.7535137707381L187.10329326923076,131.84015033182203L188.35593749999998,131.3551357494149L190.69420673076922,130.95954974577512L191.94685096153844,131.97270518324535L192.90721153846155,131.7527057053849L194.61915865384614,132.71445515909062L196.08057692307693,133.3538357881085L198.75288461538463,134.05393230148397L200.13079326923076,135.03239830085602L200.6736057692308,135.1152311409058L202.05151442307692,133.86078938925198L206.51927884615384,134.09404595253324L208.39824519230768,134.1107919232034L208.77403846153848,133.90262631220418L211.27932692307692,134.57142115763074L213.20004807692308,135.16660645005058L220.381875,135.29374718839836L222.92891826923076,135.14719548165561L225.93526442307692,134.6452619737061L227.81423076923076,134.6892457462902L229.27564903846152,134.73827894615602L232.11497596153848,135.06828866046285L235.28834134615383,135.52901477570458L235.87290865384617,136.28727968374022L237.62661057692307,136.51951430034853L238.37819711538464,136.4426211275259L238.75399038461538,136.41165071766403L243.09649038461538,136.4935423157423L243.43052884615386,137.29165941471297L243.80632211538463,136.03445906934985L245.64353365384616,136.28625680737696L246.56213942307693,136.91643429645023L247.27197115384615,137.12871306820975L248.23233173076923,137.29641881592727L248.98391826923077,137.15733151430035L249.2762019230769,137.66520599929146L249.6102403846154,137.20542941905043L254.20326923076922,137.78409597987414" style="fill: none;" fill="none"></path></g></g></g></g><g opacity="0.20000000298023224"><g><g><g><path stroke="rgb(255, 112, 67)" stroke-width="2px" d="M24.259543269230768,-54.60219360275991L25.92973557692308,23.85346830137337L27.599927884615386,37.73494922802115L29.27012019230769,49.46751897402905L30.9403125,32.64058329278069L32.61050480769231,55.86486128754248L34.28069711538462,66.69144883815063L35.95088942307692,58.21960868543411L37.62108173076923,89.75134177113482L39.29127403846154,75.14600348048509L40.96146634615384,112.93006608167862L42.63165865384616,98.75789236573368L44.30185096153846,97.38635123371412L45.97204326923077,94.92722831214111L47.64223557692308,88.34128324122034L49.31242788461538,112.88221271006789L50.98262019230769,115.48863628738658L52.6528125,97.6755061662157L54.32300480769231,117.92643268410548L55.99319711538461,115.88785444777957L57.66338942307692,122.17995767187259L59.33358173076923,116.27048504818231L61.00377403846154,116.31679346519687L62.67396634615385,126.78877253215094L64.34415865384615,125.50064475272248L66.01435096153845,120.38185765156854L67.68454326923077,123.14899672775728L69.35473557692308,118.7010937388321L71.02492788461538,126.74864866538803L72.6951201923077,115.76508852275686L74.3653125,108.01957103678224L76.0355048076923,124.97457470009768L77.70569711538462,119.79163767716713L79.37588942307691,129.5454044975257L81.04608173076923,131.7681375362195L82.71627403846155,128.94869713338056L84.38646634615384,126.22959597161804L86.05665865384616,113.66166478019606L87.72685096153846,119.80877649967024L89.39704326923076,132.71780669428074L91.06723557692308,103.27723235171287L92.73742788461539,127.51399740573416L94.40762019230769,115.30009267831753L96.0778125,116.95991334743198L97.74800480769231,129.29210528769596L99.41819711538463,126.54221150101927L101.08838942307692,116.84071998204203L102.75858173076924,126.69360522177467L104.42877403846154,127.70613013597071L106.09896634615384,125.21502925678422L107.76915865384615,121.29218843279938L109.43935096153847,123.4450507224371L111.10954326923077,128.71864558643261L112.77973557692307,125.9889024556448L114.44992788461539,129.83151683950564L116.12012019230768,122.45074822830168L117.7903125,124.68867765806914L119.46050480769232,133.99782405356277L121.1306971153846,132.1030567210234L122.80088942307692,131.71008699108745L124.47108173076923,131.28339797645873L126.14127403846153,131.67878332453046L127.81146634615385,129.28179218343158L129.48165865384615,121.29185010430436L131.15185096153846,123.71918434294639L132.82204326923076,119.55875174184828L134.49223557692306,122.93856823352064L136.16242788461537,129.7398298173544L137.8326201923077,130.48075739178705L139.5028125,128.05587662621733L141.1730048076923,122.7380269755127L142.8431971153846,130.35216653840948L144.51338942307692,127.85792133355945L146.18358173076922,121.23320807578939L147.85377403846155,119.96288394618645L149.52396634615386,128.496922125516L151.19415865384613,134.44493107456947L152.86435096153846,133.5198901016057L154.53454326923077,133.89127068806556L156.20473557692307,114.6535824133316L157.8749278846154,137.30121261139615L159.54512019230768,123.26649371880504L161.21531249999998,129.14921236611968L162.8855048076923,118.67266468151604L164.55569711538462,135.3589018445387L166.22588942307692,137.77210672812984L167.81257211538463,137.03447608207352L169.44100961538462,117.77009652820249L170.9859375,126.49818620986271L172.614375,129.43263227574062L174.28456730769233,131.44078933871683L175.95475961538463,116.71639490682199L177.5414423076923,132.91882350492855L179.2116346153846,134.68465337482797L180.7565625,131.2362425552398L182.25973557692308,134.5275198993248L183.34536057692307,128.842099998113L184.76502403846155,131.59373274593545L185.85064903846154,133.25872061388299L187.10329326923076,137.37934638331143L188.35593749999998,128.88274437025288L190.69420673076922,128.94302599070525L191.94685096153844,137.13732676159373L192.90721153846155,130.63124495999986L194.61915865384614,137.6170316147992L196.08057692307693,136.61311751569156L198.75288461538463,137.62271695307572L200.13079326923076,140.02018837868152L200.6736057692308,135.53747659267225L202.05151442307692,127.46619608466114L206.51927884615384,135.28308550451766L208.39824519230768,134.19615552965217L208.77403846153848,132.84148941854696L211.27932692307692,137.98064365850794L213.20004807692308,138.20059976707645L220.381875,135.9418548540977L222.92891826923076,134.40013922094866L225.93526442307692,132.08662531264625L227.81423076923076,134.91345570887123L229.27564903846152,134.98822867220483L232.11497596153848,136.7505333011421L235.28834134615383,137.87759424057106L235.87290865384617,140.15258128724443L237.62661057692307,137.70334441893334L238.37819711538464,136.05065349051645L238.75399038461538,136.25377716497417L243.09649038461538,136.91098973029042L243.43052884615386,141.36010999201764L243.80632211538463,129.62580365079754L245.64353365384616,137.5698111304082L246.56213942307693,140.1288024722848L247.27197115384615,138.2108170510328L248.23233173076923,138.15130909084525L248.98391826923077,136.4483255133465L249.2762019230769,140.25412715442195L249.6102403846154,134.86169026616594L254.20326923076922,140.73388405816513" style="fill: none;" fill="none"></path></g></g></g></g></g></g><g transform="translate(58, 177)" clip-path="url(#clip_1)"><clipPath id="clip_1"><rect width="271" height="22"></rect></clipPath><g><g><line x1="0" y1="0" x2="0" y2="5" style="visibility: inherit;" fill="rgb(0, 0, 0)" stroke="rgb(204, 204, 204)" stroke-width="1px"></line><line x1="20.877403846153847" y1="0" x2="20.877403846153847" y2="5" style="visibility: inherit;" fill="rgb(0, 0, 0)" stroke="rgb(204, 204, 204)" stroke-width="1px"></line><line x1="41.75480769230769" y1="0" x2="41.75480769230769" y2="5" style="visibility: inherit;" fill="rgb(0, 0, 0)" stroke="rgb(204, 204, 204)" stroke-width="1px"></line><line x1="62.63221153846154" y1="0" x2="62.63221153846154" y2="5" style="visibility: inherit;" fill="rgb(0, 0, 0)" stroke="rgb(204, 204, 204)" stroke-width="1px"></line><line x1="83.50961538461539" y1="0" x2="83.50961538461539" y2="5" style="visibility: inherit;" fill="rgb(0, 0, 0)" stroke="rgb(204, 204, 204)" stroke-width="1px"></line><line x1="104.38701923076924" y1="0" x2="104.38701923076924" y2="5" style="visibility: inherit;" fill="rgb(0, 0, 0)" stroke="rgb(204, 204, 204)" stroke-width="1px"></line><line x1="125.26442307692308" y1="0" x2="125.26442307692308" y2="5" style="visibility: inherit;" fill="rgb(0, 0, 0)" stroke="rgb(204, 204, 204)" stroke-width="1px"></line><line x1="146.1418269230769" y1="0" x2="146.1418269230769" y2="5" style="visibility: inherit;" fill="rgb(0, 0, 0)" stroke="rgb(204, 204, 204)" stroke-width="1px"></line><line x1="167.01923076923077" y1="0" x2="167.01923076923077" y2="5" style="visibility: inherit;" fill="rgb(0, 0, 0)" stroke="rgb(204, 204, 204)" stroke-width="1px"></line><line x1="187.8966346153846" y1="0" x2="187.8966346153846" y2="5" style="visibility: inherit;" fill="rgb(0, 0, 0)" stroke="rgb(204, 204, 204)" stroke-width="1px"></line><line x1="208.77403846153848" y1="0" x2="208.77403846153848" y2="5" style="visibility: inherit;" fill="rgb(0, 0, 0)" stroke="rgb(204, 204, 204)" stroke-width="1px"></line><line x1="229.6514423076923" y1="0" x2="229.6514423076923" y2="5" style="visibility: inherit;" fill="rgb(0, 0, 0)" stroke="rgb(204, 204, 204)" stroke-width="1px"></line><line x1="250.52884615384616" y1="0" x2="250.52884615384616" y2="5" style="visibility: inherit;" fill="rgb(0, 0, 0)" stroke="rgb(204, 204, 204)" stroke-width="1px"></line><line x1="271.40625" y1="0" x2="271.40625" y2="5" style="visibility: inherit;" fill="rgb(0, 0, 0)" stroke="rgb(204, 204, 204)" stroke-width="1px"></line></g><g transform="translate(0, 8)"><text x="0" y="0" dx="0em" dy="0.95em" style="text-anchor: middle; visibility: hidden; font-family: &quot;Helvetica Neue&quot;, sans-serif; font-size: 12px; font-weight: 200;" fill="rgb(50, 49, 63)" stroke="none" stroke-width="1px">-500</text><text x="20.877403846153847" y="0" dx="0em" dy="0.95em" style="text-anchor: middle; visibility: inherit; font-family: &quot;Helvetica Neue&quot;, sans-serif; font-size: 12px; font-weight: 200;" fill="rgb(50, 49, 63)" stroke="none" stroke-width="1px">0</text><text x="41.75480769230769" y="0" dx="0em" dy="0.95em" style="text-anchor: middle; visibility: hidden; font-family: &quot;Helvetica Neue&quot;, sans-serif; font-size: 12px; font-weight: 200;" fill="rgb(50, 49, 63)" stroke="none" stroke-width="1px">500</text><text x="62.63221153846154" y="0" dx="0em" dy="0.95em" style="text-anchor: middle; visibility: inherit; font-family: &quot;Helvetica Neue&quot;, sans-serif; font-size: 12px; font-weight: 200;" fill="rgb(50, 49, 63)" stroke="none" stroke-width="1px">1k</text><text x="83.50961538461539" y="0" dx="0em" dy="0.95em" style="text-anchor: middle; visibility: hidden; font-family: &quot;Helvetica Neue&quot;, sans-serif; font-size: 12px; font-weight: 200;" fill="rgb(50, 49, 63)" stroke="none" stroke-width="1px">1.5k</text><text x="104.38701923076924" y="0" dx="0em" dy="0.95em" style="text-anchor: middle; visibility: inherit; font-family: &quot;Helvetica Neue&quot;, sans-serif; font-size: 12px; font-weight: 200;" fill="rgb(50, 49, 63)" stroke="none" stroke-width="1px">2k</text><text x="125.26442307692308" y="0" dx="0em" dy="0.95em" style="text-anchor: middle; visibility: hidden; font-family: &quot;Helvetica Neue&quot;, sans-serif; font-size: 12px; font-weight: 200;" fill="rgb(50, 49, 63)" stroke="none" stroke-width="1px">2.5k</text><text x="146.1418269230769" y="0" dx="0em" dy="0.95em" style="text-anchor: middle; visibility: inherit; font-family: &quot;Helvetica Neue&quot;, sans-serif; font-size: 12px; font-weight: 200;" fill="rgb(50, 49, 63)" stroke="none" stroke-width="1px">3k</text><text x="167.01923076923077" y="0" dx="0em" dy="0.95em" style="text-anchor: middle; visibility: hidden; font-family: &quot;Helvetica Neue&quot;, sans-serif; font-size: 12px; font-weight: 200;" fill="rgb(50, 49, 63)" stroke="none" stroke-width="1px">3.5k</text><text x="187.8966346153846" y="0" dx="0em" dy="0.95em" style="text-anchor: middle; visibility: inherit; font-family: &quot;Helvetica Neue&quot;, sans-serif; font-size: 12px; font-weight: 200;" fill="rgb(50, 49, 63)" stroke="none" stroke-width="1px">4k</text><text x="208.77403846153848" y="0" dx="0em" dy="0.95em" style="text-anchor: middle; visibility: hidden; font-family: &quot;Helvetica Neue&quot;, sans-serif; font-size: 12px; font-weight: 200;" fill="rgb(50, 49, 63)" stroke="none" stroke-width="1px">4.5k</text><text x="229.6514423076923" y="0" dx="0em" dy="0.95em" style="text-anchor: middle; visibility: inherit; font-family: &quot;Helvetica Neue&quot;, sans-serif; font-size: 12px; font-weight: 200;" fill="rgb(50, 49, 63)" stroke="none" stroke-width="1px">5k</text><text x="250.52884615384616" y="0" dx="0em" dy="0.95em" style="text-anchor: middle; visibility: hidden; font-family: &quot;Helvetica Neue&quot;, sans-serif; font-size: 12px; font-weight: 200;" fill="rgb(50, 49, 63)" stroke="none" stroke-width="1px">5.5k</text><text x="271.40625" y="0" dx="0em" dy="0.95em" style="text-anchor: middle; visibility: hidden; font-family: &quot;Helvetica Neue&quot;, sans-serif; font-size: 12px; font-weight: 200;" fill="rgb(50, 49, 63)" stroke="none" stroke-width="1px">6k</text></g><line x1="0" y1="0" x2="271.40625" y2="0" fill="rgb(0, 0, 0)" stroke="rgb(204, 204, 204)" stroke-width="1px"></line></g></g></g></g></svg>