<svg viewBox="0 0 330 200" xmlns="http://www.w3.org/2000/svg"><g><g><g><g><g><line x1="58.59375" y1="175.16281657217502" x2="53.59375" y2="175.16281657217502" style="visibility: inherit;" fill="rgb(0, 0, 0)" stroke="rgb(204, 204, 204)" stroke-width="1px"></line><line x1="58.59375" y1="150.040806785937" x2="53.59375" y2="150.040806785937" style="visibility: inherit;" fill="rgb(0, 0, 0)" stroke="rgb(204, 204, 204)" stroke-width="1px"></line><line x1="58.59375" y1="124.91879699969903" x2="53.59375" y2="124.91879699969903" style="visibility: inherit;" fill="rgb(0, 0, 0)" stroke="rgb(204, 204, 204)" stroke-width="1px"></line><line x1="58.59375" y1="99.79678721346103" x2="53.59375" y2="99.79678721346103" style="visibility: inherit;" fill="rgb(0, 0, 0)" stroke="rgb(204, 204, 204)" stroke-width="1px"></line><line x1="58.59375" y1="74.67477742722303" x2="53.59375" y2="74.67477742722303" style="visibility: inherit;" fill="rgb(0, 0, 0)" stroke="rgb(204, 204, 204)" stroke-width="1px"></line><line x1="58.59375" y1="49.55276764098505" x2="53.59375" y2="49.55276764098505" style="visibility: inherit;" fill="rgb(0, 0, 0)" stroke="rgb(204, 204, 204)" stroke-width="1px"></line><line x1="58.59375" y1="24.430757854747043" x2="53.59375" y2="24.430757854747043" style="visibility: inherit;" fill="rgb(0, 0, 0)" stroke="rgb(204, 204, 204)" stroke-width="1px"></line></g><g transform="translate(48.59375, 0)"><text x="0" y="175.16281657217502" dx="0em" dy="0.3em" style="text-anchor: end; visibility: hidden; font-family: &quot;Helvetica Neue&quot;, sans-serif; font-size: 12px; font-weight: 200;" fill="rgb(50, 49, 63)" stroke="none" stroke-width="1px">-1e-3</text><text x="0" y="150.040806785937" dx="0em" dy="0.3em" style="text-anchor: end; visibility: inherit; font-family: &quot;Helvetica Neue&quot;, sans-serif; font-size: 12px; font-weight: 200;" fill="rgb(50, 49, 63)" stroke="none" stroke-width="1px">0</text><text x="0" y="124.91879699969903" dx="0em" dy="0.3em" style="text-anchor: end; visibility: inherit; font-family: &quot;Helvetica Neue&quot;, sans-serif; font-size: 12px; font-weight: 200;" fill="rgb(50, 49, 63)" stroke="none" stroke-width="1px">1e-3</text><text x="0" y="99.79678721346103" dx="0em" dy="0.3em" style="text-anchor: end; visibility: inherit; font-family: &quot;Helvetica Neue&quot;, sans-serif; font-size: 12px; font-weight: 200;" fill="rgb(50, 49, 63)" stroke="none" stroke-width="1px">2e-3</text><text x="0" y="74.67477742722303" dx="0em" dy="0.3em" style="text-anchor: end; visibility: inherit; font-family: &quot;Helvetica Neue&quot;, sans-serif; font-size: 12px; font-weight: 200;" fill="rgb(50, 49, 63)" stroke="none" stroke-width="1px">3e-3</text><text x="0" y="49.55276764098505" dx="0em" dy="0.3em" style="text-anchor: end; visibility: inherit; font-family: &quot;Helvetica Neue&quot;, sans-serif; font-size: 12px; font-weight: 200;" fill="rgb(50, 49, 63)" stroke="none" stroke-width="1px">4e-3</text><text x="0" y="24.430757854747043" dx="0em" dy="0.3em" style="text-anchor: end; visibility: inherit; font-family: &quot;Helvetica Neue&quot;, sans-serif; font-size: 12px; font-weight: 200;" fill="rgb(50, 49, 63)" stroke="none" stroke-width="1px">5e-3</text></g><line x1="58.59375" y1="0" x2="58.59375" y2="177.828125" fill="rgb(0, 0, 0)" stroke="rgb(204, 204, 204)" stroke-width="1px"></line></g></g><g transform="translate(58, 0)" clip-path="url(#clip_0)"><clipPath id="clip_0"><rect width="271" height="177"></rect></clipPath><g><g><g><line x1="20.408408279898975" y1="0" x2="20.408408279898975" y2="177.828125" fill="rgb(0, 0, 0)" stroke="rgb(60, 60, 60)" stroke-width="1px" opacity="0.25"></line><line x1="57.11079958171654" y1="0" x2="57.11079958171654" y2="177.828125" fill="rgb(0, 0, 0)" stroke="rgb(60, 60, 60)" stroke-width="1px" opacity="0.25"></line><line x1="93.8131908835341" y1="0" x2="93.8131908835341" y2="177.828125" fill="rgb(0, 0, 0)" stroke="rgb(60, 60, 60)" stroke-width="1px" opacity="0.25"></line><line x1="130.5155821853517" y1="0" x2="130.5155821853517" y2="177.828125" fill="rgb(0, 0, 0)" stroke="rgb(60, 60, 60)" stroke-width="1px" opacity="0.25"></line><line x1="167.21797348716927" y1="0" x2="167.21797348716927" y2="177.828125" fill="rgb(0, 0, 0)" stroke="rgb(60, 60, 60)" stroke-width="1px" opacity="0.25"></line><line x1="203.92036478898683" y1="0" x2="203.92036478898683" y2="177.828125" fill="rgb(0, 0, 0)" stroke="rgb(60, 60, 60)" stroke-width="1px" opacity="0.25"></line><line x1="240.62275609080442" y1="0" x2="240.62275609080442" y2="177.828125" fill="rgb(0, 0, 0)" stroke="rgb(60, 60, 60)" stroke-width="1px" opacity="0.25"></line></g><g><line x1="0" y1="175.16281657217502" x2="271.40625" y2="175.16281657217502" fill="rgb(0, 0, 0)" stroke="rgb(60, 60, 60)" stroke-width="1px" opacity="0.25"></line><line x1="0" y1="150.040806785937" x2="271.40625" y2="150.040806785937" fill="rgb(0, 0, 0)" stroke="rgb(60, 60, 60)" stroke-width="1px" opacity="0.25"></line><line x1="0" y1="124.91879699969903" x2="271.40625" y2="124.91879699969903" fill="rgb(0, 0, 0)" stroke="rgb(60, 60, 60)" stroke-width="1px" opacity="0.25"></line><line x1="0" y1="99.79678721346103" x2="271.40625" y2="99.79678721346103" fill="rgb(0, 0, 0)" stroke="rgb(60, 60, 60)" stroke-width="1px" opacity="0.25"></line><line x1="0" y1="74.67477742722303" x2="271.40625" y2="74.67477742722303" fill="rgb(0, 0, 0)" stroke="rgb(60, 60, 60)" stroke-width="1px" opacity="0.25"></line><line x1="0" y1="49.55276764098505" x2="271.40625" y2="49.55276764098505" fill="rgb(0, 0, 0)" stroke="rgb(60, 60, 60)" stroke-width="1px" opacity="0.25"></line><line x1="0" y1="24.430757854747043" x2="271.40625" y2="24.430757854747043" fill="rgb(0, 0, 0)" stroke="rgb(60, 60, 60)" stroke-width="1px" opacity="0.25"></line></g></g></g><g><g><line x1="0" y1="150.040806785937" x2="271.40625" y2="150.040806785937" fill="rgb(0, 0, 0)" stroke="rgb(153, 153, 153)" stroke-width="1.5px"></line></g></g><g><g><line x1="57.11079958171654" y1="0" x2="57.11079958171654" y2="177.828125" fill="rgb(0, 0, 0)" stroke="rgb(153, 153, 153)" stroke-width="1.5px"></line></g></g><g><g><g><g><g><path stroke="rgb(255, 112, 67)" stroke-width="2px" d="M65.95607588545458,-23.251964243323613L66.69012371149093,9.562188657963333L67.42417153752729,24.758157357618558L68.15821936356363,41.07447005442654L68.89226718959998,51.95166480285653L69.62631501563634,56.43185774710449L70.36036284167268,63.025972790385794L71.09441066770904,69.09873640071952L71.8284584937454,73.66567943554136L72.56250631978173,78.68546810405947L73.29655414581809,82.96945287462931L74.03060197185444,85.69722643444281L74.7646497978908,88.37819206172239L75.49869762392716,89.71822585758844L76.23274544996349,91.75788154305502L76.96679327599985,93.53245320993037L77.7008411020362,95.10654642615349L78.43488892807255,96.30419405315219L79.16893675410891,97.21034676825163L79.90298458014524,98.6626607349116L80.6370324061816,100.19681543597729L81.37108023221796,101.40336790731038L82.10512805825431,102.78381180613842L82.83917588429067,103.20503295784619L83.57322371032701,104.95197334402738L84.30727153636336,105.22622637357524L85.04131936239972,106.91124867268043L85.77536718843606,107.77760613456489L86.50941501447242,108.83774154220622L87.24346284050877,110.16424404326798L87.97751066654513,110.5557371826846L88.71155849258147,111.6326496977673L89.44560631861782,112.25651068503144L90.17965414465418,113.23059803994182L90.91370197069052,113.6477582356087L91.64774979672688,114.19441911662841L92.38179762276323,114.76337118631876L93.11584544879958,115.41784167773328L93.84989327483594,115.85329196089995L94.58394110087228,116.34400298852003L95.31798892690864,116.79873439941358L96.052036752945,117.30127029747865L96.78608457898133,117.49795475627201L97.52013240501769,117.82120240846339L98.25418023105404,118.35873731258386L98.9882280570904,118.71431544518651L99.72227588312676,119.26800234614555L100.45632370916309,119.74817752451835L101.19037153519945,120.08179505216714L101.92441936123579,120.44603957061625L102.65846718727215,120.59976924815335L103.39251501330851,121.02950320781602L104.12656283934484,121.40262494823267L104.8606106653812,121.57635302628046L105.59465849141755,121.88652758103478L106.3287063174539,122.16851898832408L107.06275414349027,122.52338415372365L107.79680196952661,122.96220185108636L108.53084979556296,122.92394182847121L109.2648976215993,123.35772088359269L109.99894544763566,123.76510088460576L110.73299327367202,123.70572514246835L111.46704109970837,123.95288852863159L112.20108892574473,123.82178557029576L112.93513675178106,124.18622911940949L113.66918457781742,123.54057103882938L114.40323240385378,124.23647825632085L115.13728022989012,123.8494008928091L115.87132805592648,124.43827200840113L116.60537588196281,124.36592457063114L117.33942370799917,125.10885386988065L118.07347153403553,125.2354518709484L118.80751936007188,125.73497741584872L119.54156718610824,125.78273022662128L120.27561501214457,125.90986094130908L121.00966283818093,126.02211354318057L121.74371066421729,125.90627892735142L122.47775849025363,126.18728813757821L123.21180631629,126.23423026566199L123.94585414232634,126.52683025177834L124.67990196836269,126.47010727222246L125.41394979439904,126.78235275686993L126.14799762043539,126.90426943580401L126.88204544647175,127.2358113710724L127.61609327250811,127.50311863714106L128.35014109854444,127.43650826350634L129.08418892458081,127.69968716511119L129.81823675061716,127.49425553365518L130.5522845766535,127.57380144526898L131.28633240268985,127.66193157471074L132.0203802287262,127.95935541628117L132.75442805476257,127.70586345070909L133.48847588079892,128.04752568504378L134.22252370683526,128.2290233853537L134.9565715328716,128.5609182436685L135.69061935890795,128.214641352291L136.42466718494433,128.61658021664687L137.15871501098067,128.63155364828674L137.89276283701702,129.06961086365942L138.62681066305336,128.47635778925084L139.3608584890897,129.08994860082515L140.09490631512608,128.86918371227756L140.82895414116243,129.49913766584103L141.56300196719877,129.01400070130998L142.29704979323512,129.68305980190928L143.03109761927146,129.26281679281112L143.76514544530784,129.94950840618935L144.49919327134418,129.79760804649288L145.23324109738053,130.15451921607803L145.96728892341687,130.0589720571595L146.70133674945322,130.3755521911184L147.4353845754896,130.36069847310227L148.16943240152594,130.52866174573063L148.90348022756228,130.49905928767777L149.63752805359863,130.75517191864273L150.37157587963503,130.6915655057318L151.10562370567135,130.35517334761883L151.8396715317077,130.98923761824602L152.57371935774407,131.29930828124068L153.3077671837804,131.249083835599L154.0418150098168,131.6928182214486L154.7758628358531,130.42335712598094L155.50991066188945,131.24097199290492L156.24395848792582,130.74299721604814L156.97800631396217,131.375311311955L157.71205413999854,131.29539164929417L158.44610196603486,131.73857917522375L159.1801497920712,131.99287055245765L159.91419761810758,131.74606496782258L160.64824544414392,132.16875100651652L161.3822932701803,131.66475425432492L162.11634109621662,132.203735274435L162.85038892225296,131.33306011256698L163.58443674828933,132.10546671208596L164.31848457432568,131.4326560363756L165.05253240036205,131.99691487782906L165.78658022639837,132.66125745991206L166.52062805243474,131.91983682653296L167.2546758784711,132.75559493429864L167.98872370450744,132.22235378171803L168.7227715305438,132.90143977072265L169.45681935658013,133.3136601954499L170.1908671826165,132.78261775346138L170.92491500865285,133.2991618768844L171.6589628346892,133.74104453996517L172.39301066072557,133.55098442081686L173.1270584867619,133.89412327588127L173.86110631279826,134.0925594209544L174.5951541388346,132.72577481312447L175.32920196487095,133.40260411177445L176.06324979090732,132.80701957996945L176.79729761694367,133.42725705554176L177.53134544298,133.5278598403155L178.26539326901636,133.59526040682042L178.9994410950527,133.83452936892382L179.73348892108908,133.55074836029743L180.46753674712542,133.77921734190642L181.20158457316177,133.82587752434827L181.9356323991981,133.79046625114478L182.6696802252345,133.68987603078546L183.40372805127083,134.16192480293927L184.13777587730718,134.47483862280174L184.87182370334352,133.91318200543733L185.60587152937987,134.25273739134076L186.33991935541624,133.7747968054748L187.0739671814526,134.16028383743637L187.80801500748893,133.9199513313306L188.54206283352528,134.5203288289701L189.27611065956162,132.46032458978704L190.010158485598,133.75708269735054L190.74420631163434,134.08392996235253L191.4782541376707,134.11030348917888L192.21230196370703,134.6558387199035L192.94634978974338,134.2555109506648L193.68039761577975,134.87586578212802L194.4144454418161,133.81010845785283L195.14849326785247,134.65947700266176L195.8825410938888,135.00350217268834L196.61658891992514,135.01443028544344L197.3506367459615,135.19530364303714L198.08468457199785,134.54372402468144L198.81873239803423,135.16907486484297L199.55278022407055,134.88661363584436L200.2868280501069,135.29842778158684L201.02087587614326,135.11600033019383L201.7549237021796,135.4845465236524L202.48897152821598,135.47026547007204L203.2230193542523,135.76393826637158L203.95706718028865,135.53134319367064L204.69111500632502,135.9185498660472L205.42516283236137,135.73482623801561L206.15921065839774,135.60914556326748L206.89325848443406,135.82600633061088L207.6273063104704,135.91063025758243L208.36135413650678,135.96235978383191L209.09540196254312,135.96601225319623L209.8294497885795,136.10392913137946L210.5634976146158,136.33921518009203L211.29754544065216,135.67833465732303L212.03159326668853,136.30785377265642L212.76564109272488,136.21205240330067L213.49968891876125,136.50553545729127L214.23373674479757,136.7216529401244L214.96778457083394,136.50426680225743L215.7018323968703,136.99040295423168L216.43588022290663,136.36217281303004L217.169928048943,136.85058780801268L217.90397587497932,136.2948532645798L218.6380237010157,136.55717135282947L219.37207152705204,136.39890511251394L219.9226073965793,136.6334123607155L220.65665522261565,137.1454830880528L221.390703048652,136.8673425593871L222.12475087468835,137.34494067348817L222.85879870072472,137.0948431184586L223.59284652676106,137.4127000572164L224.32689435279744,136.13485428111642L225.06094217883376,136.7745256514104L225.7949900048701,137.09868269453005L226.52903783090647,135.63916161715497L227.26308565694282,136.63804948270305L227.9971334829792,136.64103905526903L228.7311813090155,137.04174469096995L229.42852674375004,137.5207640567997L230.12587217848457,136.83495213506342L230.82321761321913,137.37695048657676L231.55726543925547,137.23038848645467L232.29131326529182,137.53085893993853L233.0253610913282,138.0078420106813L233.72270652606272,137.16660011132694L234.45675435209907,137.68154902822704L235.19080217813544,137.79102558249207L235.88814761286997,137.88930896012803L236.47538587369903,137.98201994524658L237.20943369973537,138.00189082989687L237.90677913446993,137.99173009780966L238.64082696050627,138.0073604142972L239.19136283003354,137.42466623161005L239.55838674305173,138.1344470922671L240.25573217778626,138.2753871494731L241.13658956902987,138.2144395347005L241.76053022116076,138.61228266306935L243.00841152542256,138.7379026628231L243.37543543844075,138.79319093983014L243.9626736992698,138.81780948948585L244.29299522098617,138.47827160123137L244.9903406557207,138.96598963594496L245.43076935134252,138.823771533806L246.16481717737886,138.65693740869358L246.89886500341524,138.84893852699167L247.22918652513158,138.79631470592886L247.74302000335703,138.21325370232205L248.2935558728843,138.44832072544062L248.550472611997,138.83924963094105L248.9174965250152,139.1091304267251L249.24781804673154,139.21046087965902L250.49569935099333,139.12751161311365L250.71591369880426,139.08002264601535L251.19304478572786,138.94464292770232L251.89039022046242,139.12237556430688L251.96379500306605,139.23217779449374L252.5143308725933,139.14394890569963" style="fill: none;" fill="none"></path></g></g></g></g><g opacity="0.20000000298023224"><g><g><g><path stroke="rgb(255, 112, 67)" stroke-width="2px" d="M64.48798023338188,-51.994659995190574L65.22202805941822,36.15829545597259L65.95607588545458,52.84048982277643L66.69012371149093,58.71913166832799L67.42417153752729,47.534248116329735L68.15821936356363,65.53743157178799L68.89226718959998,68.26285406122099L69.62631501563634,63.15100964297325L70.36036284167268,72.91614080825062L71.09441066770904,78.20732674157186L71.8284584937454,80.51584352576432L72.56250631978173,86.21498592855225L73.29655414581809,89.39534545067784L74.03060197185444,89.78885446108474L74.7646497978908,92.3996214474855L75.49869762392716,91.7282708367555L76.23274544996349,94.81735985233507L76.96679327599985,96.19430798585783L77.7008411020362,97.46768480052582L78.43488892807255,98.10066483172866L79.16893675410891,98.56957554041065L79.90298458014524,100.84113139593968L80.6370324061816,102.49804730442857L81.37108023221796,103.21319652788713L82.10512805825431,104.85447759505345L82.83917588429067,103.8368646745462L83.57322371032701,107.57238389627113L84.30727153636336,105.63760591535114L85.04131936239972,109.43878211195296L85.77536718843606,109.07714232449634L86.50941501447242,110.4279446515425L87.24346284050877,112.15399779326478L87.97751066654513,111.14297689152691L88.71155849258147,113.24801846992497L89.44560631861782,113.19230216576551L90.17965414465418,114.6917290721555L90.91370197069052,114.27349852907001L91.64774979672688,115.01441043812727L92.38179762276323,115.61679929083516L93.11584544879958,116.3995474148418L93.84989327483594,116.50646738564467L94.58394110087228,117.08006952994661L95.31798892690864,117.48083151575193L96.052036752945,118.05507414457495L96.78608457898133,117.79298144446172L97.52013240501769,118.30607388675018L98.25418023105404,119.16503966876425L98.9882280570904,119.24768264409036L99.72227588312676,120.098532697584L100.45632370916309,120.46844029207747L101.19037153519945,120.5822213436403L101.92441936123579,120.99240634828988L102.65846718727215,120.83036376445897L103.39251501330851,121.67410414731006L104.12656283934484,121.96230755885762L104.8606106653812,121.83694514335215L105.59465849141755,122.35178941316627L106.3287063174539,122.591506099258L107.06275414349027,123.05568190182302L107.79680196952661,123.62042839713044L108.53084979556296,122.86655179454849L109.2648976215993,124.0083894662749L109.99894544763566,124.37617088612537L110.73299327367202,123.61666152926222L111.46704109970837,124.32363360787645L112.20108892574473,123.62513113279199L112.93513675178106,124.73289444308008L113.66918457781742,122.57208391795922L114.40323240385378,125.28033908255803L115.13728022989012,123.26878484754147L115.87132805592648,125.32157868178916L116.60537588196281,124.25740341397614L117.33942370799917,126.22324781875491L118.07347153403553,125.42534887255005L118.80751936007188,126.48426573319921L119.54156718610824,125.85435944278012L120.27561501214457,126.10055701334076L121.00966283818093,126.19049244598781L121.74371066421729,125.73252700360769L122.47775849025363,126.60880195291837L123.21180631629,126.30464345778769L123.94585414232634,126.96573023095289L124.67990196836269,126.38502280288864L125.41394979439904,127.25072098384109L126.14799762043539,127.08714445420517L126.88204544647175,127.73312427397497L127.61609327250811,127.90407953624404L128.35014109854444,127.33659270305424L129.08418892458081,128.09445551751847L129.81823675061716,127.18610808647117L130.5522845766535,127.69312031268973L131.28633240268985,127.79412676887338L132.0203802287262,128.4054911786368L132.75442805476257,127.32562550235097L133.48847588079892,128.56001903654584L134.22252370683526,128.50126993581858L134.9565715328716,129.0587605311407L135.69061935890795,127.69522601522475L136.42466718494433,129.21948851318064L137.15871501098067,128.65401379574652L137.89276283701702,129.72669668671844L138.62681066305336,127.58647817763801L139.3608584890897,130.01033481818658L140.09490631512608,128.5380363794562L140.82895414116243,130.4440685961862L141.56300196719877,128.28629525451342L142.29704979323512,130.68664845280819L143.03109761927146,128.6324522791639L143.76514544530784,130.97954582625675L144.49919327134418,129.56975750694812L145.23324109738053,130.6898859704558L145.96728892341687,129.91565131878173L146.70133674945322,130.85042239205677L147.4353845754896,130.33841789607808L148.16943240152594,130.7806066546732L148.90348022756228,130.45465560059841L149.63752805359863,131.1393408650902L150.37157587963503,130.5961558863654L151.10562370567135,129.85058511044937L151.8396715317077,131.9403340241868L152.57371935774407,131.7644142757327L153.3077671837804,131.17374716713647L154.0418150098168,132.358419800223L154.7758628358531,128.51916548277944L155.50991066188945,132.46739429329094L156.24395848792582,129.99603505076294L156.97800631396217,132.32378245581523L157.71205413999854,131.17551215530298L158.44610196603486,132.40336046411812L159.1801497920712,132.37430761830848L159.91419761810758,131.37585659086997L160.64824544414392,132.8027800645574L161.3822932701803,130.90875912603758L162.11634109621662,133.01220680460008L162.85038892225296,130.02704736976494L163.58443674828933,133.26407661136443L164.31848457432568,130.42344002281007L165.05253240036205,132.84330314000923L165.78658022639837,133.65777133303658L166.52062805243474,130.80770587646427L167.2546758784711,134.00923209594717L167.98872370450744,131.4224920528471L168.7227715305438,133.9200687542296L169.45681935658013,133.93199083254078L170.1908671826165,131.98605409047858L170.92491500865285,134.07397806201897L171.6589628346892,134.40386853458637L172.39301066072557,133.26589424209433L173.1270584867619,134.40883155847794L173.86110631279826,134.3902136385641L174.5951541388346,130.67559790137958L175.32920196487095,134.41784805974945L176.06324979090732,131.9136427822619L176.79729761694367,134.35761326890025L177.53134544298,133.67876401747606L178.26539326901636,133.6963612565778L178.9994410950527,134.19343281207892L179.73348892108908,133.12507684735783L180.46753674712542,134.12192081431994L181.20158457316177,133.89586779801107L181.9356323991981,133.7373493413395L182.6696802252345,133.5389907002465L183.40372805127083,134.86999796117L184.13777587730718,134.94420935259544L184.87182370334352,133.07069707939075L185.60587152937987,134.76207047019585L186.33991935541624,133.0578859266759L187.0739671814526,134.73851438537866L187.80801500748893,133.55945257217195L188.54206283352528,135.4208950754293L189.27611065956162,129.3703182310125L190.010158485598,135.7022198586958L190.74420631163434,134.5742008598555L191.4782541376707,134.14986377941844L192.21230196370703,135.4741415659904L192.94634978974338,133.65501929680678L193.68039761577975,135.80639802932285L194.4144454418161,132.2114724714401L195.14849326785247,135.9335298198751L195.8825410938888,135.5195399277282L196.61658891992514,135.0308224545761L197.3506367459615,135.46661367942767L198.08468457199785,133.56635459714786L198.81873239803423,136.10710112508528L199.55278022407055,134.46292179234644L200.2868280501069,135.91614900020056L201.02087587614326,134.84235915310433L201.7549237021796,136.0373658138402L202.48897152821598,135.44884388970152L203.2230193542523,136.2044474608209L203.95706718028865,135.1824505846192L204.69111500632502,136.499359874612L205.42516283236137,135.45924079596824L206.15921065839774,135.4206245511453L206.89325848443406,136.15129748162602L207.6273063104704,136.0375661480397L208.36135413650678,136.03995407320616L209.09540196254312,135.97149095724268L209.8294497885795,136.31080444865432L210.5634976146158,136.69214425316085L211.29754544065216,134.68701387316958L212.03159326668853,137.25213244565649L212.76564109272488,136.06835034926706L213.49968891876125,136.94576003827717L214.23373674479757,137.04582916437406L214.96778457083394,136.178187595457L215.7018323968703,137.71960718219307L216.43588022290663,135.41982760122755L217.169928048943,137.58321030048668L217.90397587497932,135.4612514494305L218.6380237010157,136.950648485204L219.37207152705204,136.16150575204063L219.9226073965793,136.98517323301786L220.65665522261565,137.91358917905873L221.390703048652,136.4501317663886L222.12475087468835,138.0613378446397L222.85879870072472,136.71969678591432L223.59284652676106,137.8894854653531L224.32689435279744,134.21808561696645L225.06094217883376,137.73403270685142L225.7949900048701,137.58491825920953L226.52903783090647,133.4498800010923L227.26308565694282,138.13638128102517L227.9971334829792,136.645523414118L228.7311813090155,137.6428031445214L229.42852674375004,138.23929310554433L230.12587217848457,135.806234252459L230.82321761321913,138.18994801384676L231.55726543925547,137.0105454862715L232.29131326529182,137.98156462016428L233.0253610913282,138.72331661679542L233.72270652606272,135.90473726229544L234.45675435209907,138.45397240357718L235.19080217813544,137.95524041388958L235.88814761286997,138.036734026582L236.47538587369903,138.12108642292438L237.20943369973537,138.03169715687233L237.90677913446993,137.97648899967882L238.64082696050627,138.03080588902853L239.19136283003354,136.55062495757934L239.55838674305173,139.19911838325262L240.25573217778626,138.48679723528207L241.13658956902987,138.1230181125416L241.76053022116076,139.20904735562266L243.00841152542256,138.92633266245372L243.37543543844075,138.87612335534072L243.9626736992698,138.85473731396937L244.29299522098617,137.96896476884967L244.9903406557207,139.69756668801537L245.43076935134252,138.61044438059753L246.16481717737886,138.40668622102498L246.89886500341524,139.13694020443882L247.22918652513158,138.71737897433468L247.74302000335703,137.33866219691183L248.2935558728843,138.80092126011846L248.550472611997,139.42564298919174L248.9174965250152,139.51395162040114L249.24781804673154,139.36245655905995L250.49569935099333,139.0030877132956L250.71591369880426,139.00878919536785L251.19304478572786,138.74157335023278L251.89039022046242,139.38897451921372L251.96379500306605,139.39688113977405L252.5143308725933,139.01160557250847" style="fill: none;" fill="none"></path></g></g></g></g></g></g><g transform="translate(58, 177)" clip-path="url(#clip_1)"><clipPath id="clip_1"><rect width="271" height="22"></rect></clipPath><g><g><line x1="20.408408279898975" y1="0" x2="20.408408279898975" y2="5" style="visibility: inherit;" fill="rgb(0, 0, 0)" stroke="rgb(204, 204, 204)" stroke-width="1px"></line><line x1="57.11079958171654" y1="0" x2="57.11079958171654" y2="5" style="visibility: inherit;" fill="rgb(0, 0, 0)" stroke="rgb(204, 204, 204)" stroke-width="1px"></line><line x1="93.8131908835341" y1="0" x2="93.8131908835341" y2="5" style="visibility: inherit;" fill="rgb(0, 0, 0)" stroke="rgb(204, 204, 204)" stroke-width="1px"></line><line x1="130.5155821853517" y1="0" x2="130.5155821853517" y2="5" style="visibility: inherit;" fill="rgb(0, 0, 0)" stroke="rgb(204, 204, 204)" stroke-width="1px"></line><line x1="167.21797348716927" y1="0" x2="167.21797348716927" y2="5" style="visibility: inherit;" fill="rgb(0, 0, 0)" stroke="rgb(204, 204, 204)" stroke-width="1px"></line><line x1="203.92036478898683" y1="0" x2="203.92036478898683" y2="5" style="visibility: inherit;" fill="rgb(0, 0, 0)" stroke="rgb(204, 204, 204)" stroke-width="1px"></line><line x1="240.62275609080442" y1="0" x2="240.62275609080442" y2="5" style="visibility: inherit;" fill="rgb(0, 0, 0)" stroke="rgb(204, 204, 204)" stroke-width="1px"></line></g><g transform="translate(0, 8)"><text x="20.408408279898975" y="0" dx="0em" dy="0.95em" style="text-anchor: middle; visibility: inherit; font-family: &quot;Helvetica Neue&quot;, sans-serif; font-size: 12px; font-weight: 200;" fill="rgb(50, 49, 63)" stroke="none" stroke-width="1px">-1k</text><text x="57.11079958171654" y="0" dx="0em" dy="0.95em" style="text-anchor: middle; visibility: inherit; font-family: &quot;Helvetica Neue&quot;, sans-serif; font-size: 12px; font-weight: 200;" fill="rgb(50, 49, 63)" stroke="none" stroke-width="1px">0</text><text x="93.8131908835341" y="0" dx="0em" dy="0.95em" style="text-anchor: middle; visibility: inherit; font-family: &quot;Helvetica Neue&quot;, sans-serif; font-size: 12px; font-weight: 200;" fill="rgb(50, 49, 63)" stroke="none" stroke-width="1px">1k</text><text x="130.5155821853517" y="0" dx="0em" dy="0.95em" style="text-anchor: middle; visibility: inherit; font-family: &quot;Helvetica Neue&quot;, sans-serif; font-size: 12px; font-weight: 200;" fill="rgb(50, 49, 63)" stroke="none" stroke-width="1px">2k</text><text x="167.21797348716927" y="0" dx="0em" dy="0.95em" style="text-anchor: middle; visibility: inherit; font-family: &quot;Helvetica Neue&quot;, sans-serif; font-size: 12px; font-weight: 200;" fill="rgb(50, 49, 63)" stroke="none" stroke-width="1px">3k</text><text x="203.92036478898683" y="0" dx="0em" dy="0.95em" style="text-anchor: middle; visibility: inherit; font-family: &quot;Helvetica Neue&quot;, sans-serif; font-size: 12px; font-weight: 200;" fill="rgb(50, 49, 63)" stroke="none" stroke-width="1px">4k</text><text x="240.62275609080442" y="0" dx="0em" dy="0.95em" style="text-anchor: middle; visibility: inherit; font-family: &quot;Helvetica Neue&quot;, sans-serif; font-size: 12px; font-weight: 200;" fill="rgb(50, 49, 63)" stroke="none" stroke-width="1px">5k</text></g><line x1="0" y1="0" x2="271.40625" y2="0" fill="rgb(0, 0, 0)" stroke="rgb(204, 204, 204)" stroke-width="1px"></line></g></g></g></g></svg>