<svg viewBox="0 0 330 200" xmlns="http://www.w3.org/2000/svg"><g><g><g><g><g><line x1="48.875" y1="165.96819259886036" x2="43.875" y2="165.96819259886036" style="visibility: inherit;" fill="rgb(0, 0, 0)" stroke="rgb(204, 204, 204)" stroke-width="1px"></line><line x1="48.875" y1="146.04447855518782" x2="43.875" y2="146.04447855518782" style="visibility: inherit;" fill="rgb(0, 0, 0)" stroke="rgb(204, 204, 204)" stroke-width="1px"></line><line x1="48.875" y1="126.12076451151529" x2="43.875" y2="126.12076451151529" style="visibility: inherit;" fill="rgb(0, 0, 0)" stroke="rgb(204, 204, 204)" stroke-width="1px"></line><line x1="48.875" y1="106.19705046784276" x2="43.875" y2="106.19705046784276" style="visibility: inherit;" fill="rgb(0, 0, 0)" stroke="rgb(204, 204, 204)" stroke-width="1px"></line><line x1="48.875" y1="86.27333642417022" x2="43.875" y2="86.27333642417022" style="visibility: inherit;" fill="rgb(0, 0, 0)" stroke="rgb(204, 204, 204)" stroke-width="1px"></line><line x1="48.875" y1="66.34962238049768" x2="43.875" y2="66.34962238049768" style="visibility: inherit;" fill="rgb(0, 0, 0)" stroke="rgb(204, 204, 204)" stroke-width="1px"></line><line x1="48.875" y1="46.42590833682516" x2="43.875" y2="46.42590833682516" style="visibility: inherit;" fill="rgb(0, 0, 0)" stroke="rgb(204, 204, 204)" stroke-width="1px"></line><line x1="48.875" y1="26.5021942931526" x2="43.875" y2="26.5021942931526" style="visibility: inherit;" fill="rgb(0, 0, 0)" stroke="rgb(204, 204, 204)" stroke-width="1px"></line><line x1="48.875" y1="6.578480249480094" x2="43.875" y2="6.578480249480094" style="visibility: inherit;" fill="rgb(0, 0, 0)" stroke="rgb(204, 204, 204)" stroke-width="1px"></line></g><g transform="translate(38.875, 0)"><text x="0" y="165.96819259886036" dx="0em" dy="0.3em" style="text-anchor: end; visibility: inherit; font-family: &quot;Helvetica Neue&quot;, sans-serif; font-size: 12px; font-weight: 200;" fill="rgb(50, 49, 63)" stroke="none" stroke-width="1px">0</text><text x="0" y="146.04447855518782" dx="0em" dy="0.3em" style="text-anchor: end; visibility: hidden; font-family: &quot;Helvetica Neue&quot;, sans-serif; font-size: 12px; font-weight: 200;" fill="rgb(50, 49, 63)" stroke="none" stroke-width="1px">0.01</text><text x="0" y="126.12076451151529" dx="0em" dy="0.3em" style="text-anchor: end; visibility: inherit; font-family: &quot;Helvetica Neue&quot;, sans-serif; font-size: 12px; font-weight: 200;" fill="rgb(50, 49, 63)" stroke="none" stroke-width="1px">0.02</text><text x="0" y="106.19705046784276" dx="0em" dy="0.3em" style="text-anchor: end; visibility: hidden; font-family: &quot;Helvetica Neue&quot;, sans-serif; font-size: 12px; font-weight: 200;" fill="rgb(50, 49, 63)" stroke="none" stroke-width="1px">0.03</text><text x="0" y="86.27333642417022" dx="0em" dy="0.3em" style="text-anchor: end; visibility: inherit; font-family: &quot;Helvetica Neue&quot;, sans-serif; font-size: 12px; font-weight: 200;" fill="rgb(50, 49, 63)" stroke="none" stroke-width="1px">0.04</text><text x="0" y="66.34962238049768" dx="0em" dy="0.3em" style="text-anchor: end; visibility: hidden; font-family: &quot;Helvetica Neue&quot;, sans-serif; font-size: 12px; font-weight: 200;" fill="rgb(50, 49, 63)" stroke="none" stroke-width="1px">0.05</text><text x="0" y="46.42590833682516" dx="0em" dy="0.3em" style="text-anchor: end; visibility: inherit; font-family: &quot;Helvetica Neue&quot;, sans-serif; font-size: 12px; font-weight: 200;" fill="rgb(50, 49, 63)" stroke="none" stroke-width="1px">0.06</text><text x="0" y="26.5021942931526" dx="0em" dy="0.3em" style="text-anchor: end; visibility: hidden; font-family: &quot;Helvetica Neue&quot;, sans-serif; font-size: 12px; font-weight: 200;" fill="rgb(50, 49, 63)" stroke="none" stroke-width="1px">0.07</text><text x="0" y="6.578480249480094" dx="0em" dy="0.3em" style="text-anchor: end; visibility: hidden; font-family: &quot;Helvetica Neue&quot;, sans-serif; font-size: 12px; font-weight: 200;" fill="rgb(50, 49, 63)" stroke="none" stroke-width="1px">0.08</text></g><line x1="48.875" y1="0" x2="48.875" y2="177.828125" fill="rgb(0, 0, 0)" stroke="rgb(204, 204, 204)" stroke-width="1px"></line></g></g><g transform="translate(48, 0)" clip-path="url(#clip_0)"><clipPath id="clip_0"><rect width="281" height="177"></rect></clipPath><g><g><g><line x1="25.357099417713314" y1="0" x2="25.357099417713314" y2="177.828125" fill="rgb(0, 0, 0)" stroke="rgb(60, 60, 60)" stroke-width="1px" opacity="0.25"></line><line x1="64.72836106802484" y1="0" x2="64.72836106802484" y2="177.828125" fill="rgb(0, 0, 0)" stroke="rgb(60, 60, 60)" stroke-width="1px" opacity="0.25"></line><line x1="104.09962271833633" y1="0" x2="104.09962271833633" y2="177.828125" fill="rgb(0, 0, 0)" stroke="rgb(60, 60, 60)" stroke-width="1px" opacity="0.25"></line><line x1="143.47088436864786" y1="0" x2="143.47088436864786" y2="177.828125" fill="rgb(0, 0, 0)" stroke="rgb(60, 60, 60)" stroke-width="1px" opacity="0.25"></line><line x1="182.8421460189594" y1="0" x2="182.8421460189594" y2="177.828125" fill="rgb(0, 0, 0)" stroke="rgb(60, 60, 60)" stroke-width="1px" opacity="0.25"></line><line x1="222.2134076692709" y1="0" x2="222.2134076692709" y2="177.828125" fill="rgb(0, 0, 0)" stroke="rgb(60, 60, 60)" stroke-width="1px" opacity="0.25"></line><line x1="261.5846693195824" y1="0" x2="261.5846693195824" y2="177.828125" fill="rgb(0, 0, 0)" stroke="rgb(60, 60, 60)" stroke-width="1px" opacity="0.25"></line></g><g><line x1="0" y1="165.96819259886036" x2="281.125" y2="165.96819259886036" fill="rgb(0, 0, 0)" stroke="rgb(60, 60, 60)" stroke-width="1px" opacity="0.25"></line><line x1="0" y1="146.04447855518782" x2="281.125" y2="146.04447855518782" fill="rgb(0, 0, 0)" stroke="rgb(60, 60, 60)" stroke-width="1px" opacity="0.25"></line><line x1="0" y1="126.12076451151529" x2="281.125" y2="126.12076451151529" fill="rgb(0, 0, 0)" stroke="rgb(60, 60, 60)" stroke-width="1px" opacity="0.25"></line><line x1="0" y1="106.19705046784276" x2="281.125" y2="106.19705046784276" fill="rgb(0, 0, 0)" stroke="rgb(60, 60, 60)" stroke-width="1px" opacity="0.25"></line><line x1="0" y1="86.27333642417022" x2="281.125" y2="86.27333642417022" fill="rgb(0, 0, 0)" stroke="rgb(60, 60, 60)" stroke-width="1px" opacity="0.25"></line><line x1="0" y1="66.34962238049768" x2="281.125" y2="66.34962238049768" fill="rgb(0, 0, 0)" stroke="rgb(60, 60, 60)" stroke-width="1px" opacity="0.25"></line><line x1="0" y1="46.42590833682516" x2="281.125" y2="46.42590833682516" fill="rgb(0, 0, 0)" stroke="rgb(60, 60, 60)" stroke-width="1px" opacity="0.25"></line><line x1="0" y1="26.5021942931526" x2="281.125" y2="26.5021942931526" fill="rgb(0, 0, 0)" stroke="rgb(60, 60, 60)" stroke-width="1px" opacity="0.25"></line><line x1="0" y1="6.578480249480094" x2="281.125" y2="6.578480249480094" fill="rgb(0, 0, 0)" stroke="rgb(60, 60, 60)" stroke-width="1px" opacity="0.25"></line></g></g></g><g><g><line x1="0" y1="165.96819259886036" x2="281.125" y2="165.96819259886036" fill="rgb(0, 0, 0)" stroke="rgb(153, 153, 153)" stroke-width="1.5px"></line></g></g><g><g><line x1="143.47088436864786" y1="0" x2="143.47088436864786" y2="177.828125" fill="rgb(0, 0, 0)" stroke="rgb(153, 153, 153)" stroke-width="1.5px"></line></g></g><g><g><g><g><g><path stroke="rgb(255, 112, 67)" stroke-width="2px" d="M145.36857918019288,-13.05739693852135L145.68354927339536,10.742590486697367L145.99851936659786,32.22809718531647L146.31348945980037,48.5518265240016L146.62845955300287,56.09606323860929L146.94342964620535,63.42328460157309L147.25839973940782,72.55747886742974L147.57336983261033,79.23310340721659L147.8883399258128,83.89421639195656L148.2033100190153,89.73996160833158L148.5182801122178,93.71781772597305L148.83325020542028,96.96065515643453L149.1482202986228,98.80059011656611L149.46319039182526,101.22352999030291L149.77816048502777,105.29190222679675L150.09313057823024,108.92715979450816L150.40810067143278,109.70682277437727L150.72307076463525,112.51854300763809L151.03804085783773,113.17347518076983L151.35301095104023,116.3258830529538L151.6679810442427,117.07980463880084L151.9829511374452,118.61252427360715L152.29792123064772,119.30746896888529L152.61289132385022,119.57583177634164L152.9278614170527,121.49552088891373L153.24283151025517,124.29822029896553L153.55780160345768,124.31707885422918L153.87277169666015,125.07544105188654L154.18774178986266,126.27760577104377L154.50271188306516,126.66291121815593L154.81768197626764,128.4617547675906L155.13265206947014,129.28155761607422L155.44762216267262,129.90767201310672L155.76259225587512,131.06772719997656L156.0775623490776,131.88962486141315L156.39253244228013,133.37522261881875L156.7075025354826,133.47929829546882L157.02247262868508,135.32164657648153L157.33744272188758,136.1607437056815L157.65241281509006,137.73809231361003L157.96738290829256,138.22223434817968L158.28235300149507,138.97333425569644L158.59732309469754,140.4414486088058L158.91229318790005,140.69881910061466L159.22726328110252,141.60921907070303L159.54223337430503,141.92157294669164L159.8572034675075,142.13350137634575L160.17217356070998,142.0796297659562L160.4871436539125,142.89954140115478L160.802113747115,143.39121086884109L161.1170838403175,143.93561975917504L161.43205393351997,143.89615830003152L161.74702402672247,144.7453126194212L162.06199411992495,145.1458489827485L162.37696421312748,145.5644809838497L162.69193430632996,145.70845541826964L163.00690439953243,145.341152114489L163.32187449273493,145.53479319598844L163.6368445859374,145.90406590134805L163.95181467913991,144.22147399785115L164.26678477234242,144.88815555445075L164.5817548655449,145.7909381288573L164.8967249587474,145.25008378085303L165.21169505194987,144.95272103867887L165.52666514515238,143.41666513813982L165.84163523835485,144.16281249931583L166.1566053315574,143.9363102421019L166.47157542475986,144.3701261180743L166.78654551796234,144.55408314994477L167.10151561116484,144.92522324842287L167.41648570436732,145.60145239265967L167.73145579756982,146.0875410596452L168.0464258907723,145.93019351488795L168.3613959839748,146.4754335089398L168.6763660771773,146.99053278921272L168.99133617037978,146.35372151367562L169.3063062635823,146.48636147915306L169.62127635678476,147.3664968090244L169.93624644998727,146.9524715764505L170.25121654318977,148.07393531194646L170.56618663639225,147.73946145748724L170.88115672959475,147.5559344057052L171.19612682279723,148.0740937373137L171.51109691599973,148.49285723177022L171.8260670092022,147.99476176968804L172.14103710240474,147.6093971106639L172.4560071956072,147.3182489233748L172.7709772888097,147.11146924268593L173.0859473820122,147.92441447367622L173.40091747521467,147.7496067704659L173.71588756841717,148.50592692387423L174.03085766161965,148.2206142578023L174.34582775482215,148.4472873625745L174.66079784802466,148.62444118814886L174.97576794122713,149.12489680442332L175.29073803442964,148.5944610080932L175.6057081276321,148.73025418104748L175.9206782208346,149.0203774664124L176.23564831403712,149.04383976632622L176.5506184072396,149.57204360222386L176.8655885004421,149.5165297400342L177.18055859364458,149.95916239048879L177.49552868684708,150.2226465732623L177.81049878004956,150.51619869550004L178.12546887325206,148.95331201203962L178.44043896645456,149.5427448158378L178.75540905965704,149.52709200545905L179.07037915285954,149.48730925928177L179.38534924606202,149.28808156162603L179.70031933926452,149.37501447497004L180.015289432467,148.794231718049L180.3302595256695,148.79569035659244L180.645229618872,149.4072232679082L180.96019971207448,149.85069083583164L181.275169805277,150.467597455294L181.59013989847946,151.14648296500656L181.90510999168194,151.56536385332612L182.22008008488447,151.46418857704515L182.53505017808695,149.7334933626425L182.85002027128945,150.1626949072547L183.16499036449193,148.92251310368113L183.47996045769443,149.5836738405505L183.7949305508969,149.65615315147758L184.1099006440994,150.37086913745796L184.42487073730192,150.5503957254081L184.7398408305044,150.61248317669023L185.0548109237069,150.75003199566987L185.36978101690937,150.40886933558826L185.68475111011185,150.06341276239493L185.99972120331435,150.66632514295674L186.31469129651686,150.9754888586745L186.62966138971936,151.38469205114663L186.94463148292184,151.0586102738318L187.25960157612434,150.6302665297463L187.57457166932682,151.46139333458632L187.8895417625293,151.59735085896313L188.20451185573182,151.68241211938326L188.5194819489343,151.76508325741995L188.8344520421368,151.840175080598L189.14942213533928,152.06763302799746L189.46439222854178,152.14085484401363L189.77936232174426,151.80810986504443L190.09433241494676,151.9800857431954L190.40930250814927,152.3685615854338L190.72427260135174,152.52561955262485L191.03924269455425,152.24250703457926L191.35421278775672,152.43907830440773L191.6691828809592,152.39034730327057L191.98415297416173,152.88547484989417L192.2991230673642,152.95057401049922L192.6140931605667,151.51474882688981L192.9290632537692,150.49411269894466L193.2440333469717,151.09991825555164L193.55900344017417,151.42738299064922L193.87397353337664,151.15463517260162L194.18894362657917,151.56282176034733L194.50391371978165,151.27207513714032L194.81888381298415,151.8278581042111L195.13385390618663,150.77828499447435L195.4488239993891,150.4909617470875L195.7637940925916,149.8318771527126L196.0787641857941,149.78390765088486L196.39373427899662,150.1214701193494L196.7087043721991,150.58957235880726L197.0236744654016,150.97413724614873L197.33864455860407,151.12187934674964L197.65361465180655,151.96639628126744L197.96858474500908,152.2946020070036L198.28355483821156,152.60894973787057L198.59852493141406,151.725117106604L198.91349502461654,151.6222729202978L199.22846511781904,151.33892075112558L199.54343521102152,152.07753831890193L199.858405304224,151.1515308588108L200.17337539742653,151.0226963872834L200.488345490629,151.3978558453027L200.8033155838315,150.97071063859758L201.11828567703398,151.06301384955884L201.43325577023646,151.25327381279186L201.74822586343896,150.89808545494338L202.06319595664147,151.47378738955936L202.37816604984397,151.88349807683733L202.69313614304644,152.4000801428101L203.00810623624895,152.74113324900108L203.32307632945142,152.86703160733757L203.6380464226539,152.3469810324815L203.95301651585643,153.03035625516966L204.2679866090589,152.74010648119014L204.5829567022614,152.64380364940436L204.8979267954639,152.9186924303264L205.21289688866636,153.28685626365237L205.52786698186887,153.14181232743613L205.84283707507134,153.35058348619117L206.15780716827388,153.69482438465158L206.47277726147635,152.6397926855944L206.78774735467886,153.1940438287853L207.10271744788133,152.52426319085126L207.4176875410838,150.4422615061844L207.7326576342863,149.08497721764348L208.04762772748882,149.7489169853415L208.36259782069132,149.86268476545652L208.6775679138938,150.5699030832809L208.9925380070963,151.05993656470372L209.30750810029878,151.7957736589411L209.62247819350125,152.07289237312347L209.93744828670378,152.70288429964023L210.25241837990626,152.59248346387477L210.56738847310876,153.25386393525804L210.88235856631124,153.0695475822714L211.19732865951372,153.23913394920413L211.51229875271622,153.20529072496265L211.8272688459187,153.84028958640002L212.14223893912123,153.83272349612727L212.4572090323237,153.4803603735573L212.7721791255262,153.60610593388125L213.08714921872868,153.99006159614342L213.40211931193116,152.90983309075455L213.71708940513366,152.08320682418434L214.03205949833617,152.3486708642782L214.34702959153867,152.68739808616L214.66199968474115,152.90033595866646L214.97696977794365,152.10605899544237L215.29193987114613,152.49511109819457L215.6069099643486,152.86295304024216L215.92188005755114,152.68009014303615L216.2368501507536,152.90087627053774L216.55182024395612,152.48693270440512L216.8667903371586,152.57353825066022L217.18176043036107,153.2926827633503L217.49673052356357,152.92442066562606L217.81170061676607,153.40371783098556L218.12667070996858,153.9411464780581L218.44164080317105,154.5998341863468L218.75661089637356,154.44584337940367L219.07158098957603,154.42920828027934L219.3865510827785,154.94320880859993L219.70152117598101,154.9463306649808L220.01649126918352,154.4755338295815L220.33146136238602,154.09777111566365L220.6464314555885,154.4589555408575L220.96140154879097,155.03102558573622L221.27637164199348,155.20520106372473L221.59134173519595,155.5756503514879L221.9063118283985,155.653217198045L222.22128192160096,155.28987602918613L222.53625201480347,154.9647474126272L222.85122210800594,154.8454665290048L223.16619220120842,155.00684375956342L223.48116229441092,154.82477370689298L223.79613238761343,154.91068069483788L224.11110248081593,154.1141572858545L224.4260725740184,154.0143813967549L224.7410426672209,154.3545811343172L225.05601276042339,154.71854397819845L225.37098285362586,154.67184574512214L225.68595294682837,154.78430364243724L226.00092304003087,154.88182651455315L226.31589313323337,155.010292808339L226.63086322643585,154.4599247735692L226.94583331963833,154.57770817414624L227.26080341284083,154.35660401311534L227.5757735060433,154.08351386440415L227.89074359924584,153.9991375299919L228.2057136924483,154.05140525126933L228.52068378565082,154.04010564871393L228.8356538788533,154.32543276272722L229.15062397205577,154.6107267515758L229.46559406525827,154.4252812977371L229.78056415846078,154.1751454503516L230.09553425166328,154.15832359635797L230.41050434486576,154.5049615091666L230.72547443806823,154.61322157339782L231.04044453127074,154.62545637134176L231.3554146244732,154.21345795094928L231.67038471767572,154.44062189914976L231.98535481087822,154.90696325146138L232.30032490408072,154.98335675209242L232.6152949972832,154.89762131064677L232.93026509048568,153.30254306086127L233.24523518368818,153.58535127604125L233.56020527689066,153.79717802514713L233.8751753700932,153.6136813634774L234.19014546329566,153.24024109997634L234.50511555649817,153.77793995751867L234.82008564970064,154.02149083588932L235.13505574290312,154.32152138750507L235.45002583610562,154.44675814579278L235.76499592930813,154.7093647180857L236.07996602251063,155.11775790443204L236.3949361157131,154.63326879665942L236.70990620891558,153.69712786528953L237.0248763021181,154.17804002206884L237.33984639532056,154.77126905058952L237.65481648852307,154.8088434826882L237.96978658172557,155.16642024706098L238.28475667492808,155.06222733785856L238.59972676813055,155.11030220038504L238.91469686133303,155.01017379089444L239.22966695453553,154.5318720183528L239.544637047738,154.27508746300794L239.85960714094054,154.21058823510361L240.17457723414302,153.2366563619858L240.4895473273455,153.3488637055937L240.804517420548,153.44984342526183L241.11948751375047,153.3216220944301L241.43445760695298,154.06108537502098L241.74942770015548,154.01509356069565L242.06439779335798,153.71451781345556L242.37936788656046,153.9528025933071L242.69433797976293,153.6665945517539L243.00930807296544,153.79715213207723L243.32427816616791,154.19283406403525L243.63924825937045,154.2020055345788L243.95421835257292,154.20427384012606L244.26918844577543,154.59763292559379L244.5841585389779,154.50153525975057L244.89912863218038,153.88383511842957L245.21409872538288,154.4966387483383L245.52906881858536,155.02259660714907L245.8440389117879,155.36238448329442L246.15900900499037,154.8934657056684L246.47397909819284,154.8083949261617L246.78894919139535,154.88887425297398L247.10391928459782,154.77496656498505L247.41888937780033,155.1840979808777L247.73385947100283,155.1018274658753L248.04882956420533,155.66725559707723L248.3637996574078,155.62474301711904L248.6787697506103,155.74011082676645L248.9937398438128,156.0262895771856L249.30870993701527,156.11635196385765L249.6236800302178,156.14210084725633L249.93865012342027,156.44109628922652L250.25362021662278,156.53056182155697L250.56859030982525,156.58583954157803L250.88356040302773,156.5125285645478L251.19853049623023,156.56715813783987L251.5135005894327,156.59853858400928L251.82847068263524,156.5096222489899L252.14344077583772,156.57105990352258L252.4584108690402,156.8563857500338L252.7733809622427,156.63367093879998L253.08835105544517,156.692637567346L253.40332114864768,156.82888849227533L253.71829124185018,156.94201036646888L254.03326133505269,157.08504931566728L254.34823142825516,157.26225512997632L254.66320152145764,157.14731478884147L254.97817161466014,157.00222747364165L255.29314170786262,156.4950801042734L255.60811180106515,156.44176940744777L255.92308189426763,156.4029038001306L256.2380519874701,156.54173335008184L256.5530220806726,156.6212292802446L256.8679921738751,156.8915659914582L257.1829622670776,156.91519326171635L257.49793236028006,156.98724870653487L257.8129024534826,157.15918582571166L258.1278725466851,157.12135996589328L258.4428426398876,157.17095858722277L258.7578127330901,157.3441098582823L259.07278282629255,157.07520998370205L259.38775291949503,156.77238449771485L259.70272301269756,157.0335359393668L260.01769310590004,157.1534938209551L260.33266319910257,157.10356395500716L260.64763329230504,156.95071052681715L260.9626033855075,157.21566259175844L261.27757347871,157.1022057416336L261.5925435719125,157.18432848043875L261.907513665115,157.11502476976403L262.2224837583175,157.28923449278832L262.53745385151996,157.1428158897583" style="fill: none;" fill="none"></path></g></g></g></g><g opacity="0.20000000298023224"><g><g><g><path stroke="rgb(255, 112, 67)" stroke-width="2px" d="M143.79372871418042,-369.97501201915554L144.1086988073829,6.7187329826928135L144.42366890058543,50.56735115195298L144.7386389937879,66.64572804361453L145.05360908699038,67.90031090774633L145.36857918019288,110.5413359196333L145.68354927339536,97.44001041795622L145.99851936659786,115.62064414695108L146.31348945980037,115.16569902443942L146.62845955300287,88.1405759984917L146.94342964620535,95.56744351273551L147.25839973940782,113.69323859880099L147.57336983261033,109.9471065075889L147.8883399258128,105.719261267104L148.2033100190153,117.50993689393147L148.5182801122178,112.8408997968682L148.83325020542028,112.70454355019066L149.1482202986228,107.80662553665795L149.46319039182526,113.16381950414974L149.77816048502777,125.45403260196552L150.09313057823024,127.02735278516872L150.40810067143278,113.60396854698628L150.72307076463525,126.61860690917717L151.03804085783773,116.46668895562352L151.35301095104023,132.21301688091128L151.6679810442427,120.88648614622542L151.9829511374452,126.36365564916174L152.29792123064772,122.82649081413902L152.61289132385022,120.93624060827821L152.9278614170527,131.23588184940354L153.24283151025517,138.5297739116987L153.55780160345768,124.4128999797887L153.87277169666015,128.93076619509463L154.18774178986266,132.3918353156106L154.50271188306516,128.62331056205596L154.81768197626764,137.61695562382016L155.13265206947014,133.45502289176517L155.44762216267262,133.09579767972772L155.76259225587512,136.97571052745064L156.0775623490776,136.07605915471822L156.39253244228013,140.94325312921646L156.7075025354826,134.00954373783918L157.02247262868508,144.70888695072523L157.33744272188758,140.43647719487066L157.65241281509006,145.77618454901176L157.96738290829256,140.68952652590855L158.28235300149507,142.80126703056308L158.59732309469754,147.92387058357184L158.91229318790005,142.01057856061L159.22726328110252,146.249440144841L159.54223337430503,143.51364427069308L159.8572034675075,143.21372213194599L160.17217356070998,141.8050366321207L160.4871436539125,147.078827766751L160.802113747115,145.89739401886612L161.1170838403175,146.71065513858696L161.43205393351997,143.69500850691162L161.74702402672247,149.07379539880517L162.06199411992495,147.1875550158912L162.37696421312748,147.69843726128803L162.69193430632996,146.4423606870812L163.00690439953243,143.46882925736054L163.32187449273493,146.5218780182071L163.6368445859374,147.78643626788363L163.95181467913991,135.64443446478205L164.26678477234242,148.28658050060426L164.5817548655449,150.39289911601745L164.8967249587474,142.4930599036357L165.21169505194987,143.43690282810417L165.52666514515238,135.58655459102906L165.84163523835485,147.9663327715936L166.1566053315574,142.78170406743104L166.47157542475986,146.58152436648365L166.78654551796234,145.4918136949094L167.10151561116484,146.81712976160154L167.41648570436732,149.04856747063073L167.73145579756982,148.56540514425404L168.0464258907723,145.12810549710633L168.3613959839748,149.25482563773986L168.6763660771773,149.6162812094173L168.99133617037978,143.10753882878453L169.3063062635823,147.16250150852053L169.62127635678476,151.85303875296225L169.93624644998727,144.8419533241567L170.25121654318977,153.7906636902283L170.56618663639225,146.03446093754212L170.88115672959475,146.62039422816343L171.19612682279723,150.7154421485844L171.51109691599973,150.6275294246205L171.8260670092022,145.45569003311917L172.14103710240474,145.64497742712712L172.4560071956072,145.83410338911455L172.7709772888097,146.05739727324118L173.0859473820122,152.06845215673016L173.40091747521467,146.85851388061263L173.71588756841717,152.36131489177473L174.03085766161965,146.76621558675757L174.34582775482215,149.60276730820414L174.66079784802466,149.52749359812373L174.97576794122713,151.67599978156974L175.29073803442964,145.89053223022322L175.6057081276321,149.422468152213L175.9206782208346,150.49929858964316L176.23564831403712,149.163440269794L176.5506184072396,152.2645948449894L176.8655885004421,149.23354444413638L177.18055859364458,152.2155093052746L177.49552868684708,151.5657732557331L177.81049878004956,152.01259853316594L178.12546887325206,140.98640186721065L178.44043896645456,152.54741446726229L178.75540905965704,149.44730085026822L179.07037915285954,149.28451428519435L179.38534924606202,148.27250622617038L179.70031933926452,149.81816030102692L180.015289432467,145.83365620386226L180.3302595256695,148.80312585550305L180.645229618872,152.52454956987117L180.96019971207448,152.11129380277723L181.275169805277,153.61231656280734L181.59013989847946,154.60714324488725L181.90510999168194,153.70063472236305L182.22008008488447,150.94844143711794L182.53505017808695,140.9111689790205L182.85002027128945,152.35057595132832L183.16499036449193,142.60061074012052L183.47996045769443,152.9539810109766L183.7949305508969,150.02562085835797L184.1099006440994,154.01417745590015L184.42487073730192,151.4655434541565L184.7398408305044,150.92897774540083L185.0548109237069,151.4511954875039L185.36978101690937,148.66977187329937L185.68475111011185,148.3024268161831L185.99972120331435,153.73970776572386L186.31469129651686,152.5514697509505L186.62966138971936,153.4706302761415L186.94463148292184,149.3963885309647L187.25960157612434,148.4467581757831L187.57457166932682,155.69811290066758L187.8895417625293,152.29040262955945L188.20451185573182,152.1160170810332L188.5194819489343,152.18650442448177L188.8344520421368,152.22296022801544L189.14942213533928,153.2271137842472L189.46439222854178,152.51410751589927L189.77936232174426,150.11192204542724L190.09433241494676,152.8567432684013L190.40930250814927,154.3488408787904L190.72427260135174,153.32623211708471L191.03924269455425,150.79932371088614L191.35421278775672,153.44111233840988L191.6691828809592,152.14193805357166L191.98415297416173,155.40941770950946L192.2991230673642,153.28242095114422L192.6140931605667,144.1955424031301L192.9290632537692,145.29135780283718L193.2440333469717,154.18804901971737L193.55900344017417,153.09665444517032L193.87397353337664,149.76428653913982L194.18894362657917,153.64357778080668L194.50391371978165,149.7899764968903L194.81888381298415,154.660995668059L195.13385390618663,145.42802206923204L195.4488239993891,149.0263139738231L195.7637940925916,146.47215324480177L196.0787641857941,149.53938019034834L196.39373427899662,151.84221538542462L196.7087043721991,152.97575206726307L197.0236744654016,152.93448020845017L197.33864455860407,151.87500371322741L197.65361465180655,156.27137284990678L197.96858474500908,153.9676507064878L198.28355483821156,154.2113564635096L198.59852493141406,147.21972637648906L198.91349502461654,151.09801840961504L199.22846511781904,149.89451579119893L199.54343521102152,155.8426864082984L199.858405304224,146.43115136712666L200.17337539742653,150.36595481291204L200.488345490629,153.3102540581328L200.8033155838315,148.79331190197888L201.11828567703398,151.53353509567845L201.43325577023646,152.22313557658944L201.74822586343896,149.08749114298402L202.06319595664147,154.40846310504088L202.37816604984397,153.9720232875957L202.69313614304644,155.03338872301276L203.00810623624895,154.4796722537307L203.32307632945142,153.50880616568702L203.6380464226539,149.6959915167517L203.95301651585643,156.51390312204344L204.2679866090589,151.26054056017256L204.5829567022614,152.1528940922526L204.8979267954639,154.31995475258742L205.21289688866636,155.16359385304582L205.52786698186887,152.40244201843132L205.84283707507134,154.41480719789382L206.15780716827388,155.44961335485212L206.47277726147635,147.26170426844925L206.78774735467886,156.0193728270024L207.10271744788133,149.11001554869964L207.4176875410838,139.8291309672728L207.7326576342863,142.1661377955692L208.04762772748882,153.1333904353143L208.36259782069132,150.44262296165255L208.6775679138938,154.17499158145878L208.9925380070963,153.55791211634698L209.30750810029878,155.54674811493157L209.62247819350125,153.48552191615062L209.93744828670378,155.9143065592014L210.25241837990626,152.02970847180205L210.56738847310876,156.62529121621176L210.88235856631124,152.12998373412006L211.19732865951372,154.10361079527587L211.51229875271622,153.03277282578037L211.8272688459187,157.07723500201982L212.14223893912123,153.79415488961493L212.4572090323237,151.68416787070066L212.7721791255262,154.2471015950448L213.08714921872868,155.94729899645546L213.40211931193116,147.40330241694298L213.71708940513366,147.86942902630219L214.03205949833617,153.70188999548824L214.34702959153867,154.41408075380141L214.66199968474115,153.98579974778482L214.97696977794365,148.0571837438853L215.29193987114613,154.47832791466317L215.6069099643486,154.73804976921642L215.92188005755114,151.74793537435198L216.2368501507536,154.02634701804578L216.55182024395612,150.3768301355827L216.8667903371586,153.01501530352164L217.18176043036107,156.95856576706328L217.49673052356357,151.04718216747062L217.81170061676607,155.84696435684253L218.12667070996858,156.68072177654975L218.44164080317105,157.95753494323333L218.75661089637356,153.66086585132751L219.07158098957603,154.34440984815782L219.3865510827785,157.56335784320984L219.70152117598101,154.96224451823923L220.01649126918352,152.0756182540095L220.33146136238602,152.17210264715564L220.6464314555885,156.30011517172366L220.96140154879097,157.9471875218252L221.27637164199348,156.09307118322724L221.59134173519595,157.46403818423178L221.9063118283985,156.04861892805576L222.22128192160096,153.43772226597866L222.53625201480347,153.30738446480228L222.85122210800594,154.2374249515151L223.16619220120842,155.82947403241093L223.48116229441092,153.89666051157295L223.79613238761343,155.348596804118L224.11110248081593,150.0538306400611L224.4260725740184,153.50576771817413L224.7410426672209,156.08877004042725L225.05601276042339,156.57386676773964L225.37098285362586,154.43379865456237L225.68595294682837,155.35756463118972L226.00092304003087,155.37895530168066L226.31589313323337,155.6651575742229L226.63086322643585,151.6543901573038L226.94583331963833,155.17811624050222L227.26080341284083,153.2295120702994L227.5757735060433,152.69142017951052L227.89074359924584,153.56902402042707L228.2057136924483,154.31784314753722L228.52068378565082,153.9825052356876L228.8356538788533,155.7799051244047L229.15062397205577,156.06503025570646L229.46559406525827,153.47996178914454L229.78056415846078,152.90006271611833L230.09553425166328,154.07257316990265L230.41050434486576,156.2719694061666L230.72547443806823,155.16508385203994L231.04044453127074,154.6878239998853L231.3554146244732,152.11327088114365L231.67038471767572,155.598603976562L231.98535481087822,157.28416673031808L232.30032490408072,155.37277727969945L232.6152949972832,154.46057967010677L232.93026509048568,145.17153442171087L233.24523518368818,155.02698339732444L233.56020527689066,154.8769777949797L233.8751753700932,152.67829594179517L234.19014546329566,151.33660658603188L234.50511555649817,156.51889267035625L234.82008564970064,155.26300628904715L235.13505574290312,155.85094541891215L235.45002583610562,155.08516015755197L235.76499592930813,156.0480177329448L236.07996602251063,157.19956707385603L236.3949361157131,152.1635560277697L236.70990620891558,148.9250923858675L237.0248763021181,156.62951906516332L237.33984639532056,157.7952901959755L237.65481648852307,155.000381441435L237.96978658172557,156.9891896069126L238.28475667492808,154.53109762997303L238.59972676813055,155.35536674350786L238.91469686133303,154.4997631181253L239.22966695453553,152.0936995680795L239.544637047738,152.9661125345427L239.85960714094054,153.8817994879815L240.17457723414302,148.27197925267805L240.4895473273455,153.92084748154602L240.804517420548,153.96459370357022L241.11948751375047,152.66800604214149L241.43445760695298,157.83054453705745L241.74942770015548,153.78064748279337L242.06439779335798,152.18231461410977L242.37936788656046,155.16747378816L242.69433797976293,152.20763160822656L243.00930807296544,154.4626773586035L243.32427816616791,156.2098468391383L243.63924825937045,154.2487576649106L243.95421835257292,154.21583666596453L244.26918844577543,156.60280484907568L244.5841585389779,154.01167154850094L244.89912863218038,150.73507098340298L245.21409872538288,157.6204426178732L245.52906881858536,157.7036988630379L245.8440389117879,157.0944739007183L246.15900900499037,152.50312364411133L246.47397909819284,154.37474144038376L246.78894919139535,155.29912252867555L247.10391928459782,154.19431517987073L247.41888937780033,157.2696703204282L247.73385947100283,154.68244849915556L248.04882956420533,158.54955997320423L248.3637996574078,155.40803254855166L248.6787697506103,156.3282052710668L248.9937398438128,157.48510320737097L249.30870993701527,156.5754504715273L249.6236800302178,156.27335735043508L249.93865012342027,157.96524378609894L250.25362021662278,156.98661782782685L250.56859030982525,156.8676210899781L250.88356040302773,156.1388213889546L251.19853049623023,156.84563571876782L251.5135005894327,156.7585023217996L251.82847068263524,156.0563658095009L252.14344077583772,156.88424209370143L252.4584108690402,158.31085165054222L252.7733809622427,155.49836860836402L253.08835105544517,156.99322355188548L253.40332114864768,157.5234358900859L253.71829124185018,157.51865601784573L254.03326133505269,157.8141990810933L254.34823142825516,158.16557257364926L254.66320152145764,156.56139939134923L254.97817161466014,156.26263603762308L255.29314170786262,153.90986546529857L255.60811180106515,156.17001487972692L255.92308189426763,156.20478399697708L256.2380519874701,157.2494254461749L256.5530220806726,157.02646463156194L256.8679921738751,158.2696238608154L257.1829622670776,157.03563471254444L257.49793236028006,157.35455573012197L257.8129024534826,158.0356457746861L258.1278725466851,156.92854033901423L258.4428426398876,157.42379058375607L258.7578127330901,158.2267590205125L259.07278282629255,155.70447647669542L259.38775291949503,155.22871311792653L259.70272301269756,158.36477133705586L260.01769310590004,157.76498643685653L260.33266319910257,156.84904341883345L260.64763329230504,156.17153085628757L260.9626033855075,158.5662718984104L261.27757347871,156.52385253002163L261.5925435719125,157.60295414898204L261.907513665115,156.76174487876375L262.2224837583175,158.17727917844866L262.53745385151996,156.39643813284928" style="fill: none;" fill="none"></path></g></g></g></g></g></g><g transform="translate(48, 177)" clip-path="url(#clip_1)"><clipPath id="clip_1"><rect width="281" height="22"></rect></clipPath><g><g><line x1="25.357099417713314" y1="0" x2="25.357099417713314" y2="5" style="visibility: inherit;" fill="rgb(0, 0, 0)" stroke="rgb(204, 204, 204)" stroke-width="1px"></line><line x1="64.72836106802484" y1="0" x2="64.72836106802484" y2="5" style="visibility: inherit;" fill="rgb(0, 0, 0)" stroke="rgb(204, 204, 204)" stroke-width="1px"></line><line x1="104.09962271833633" y1="0" x2="104.09962271833633" y2="5" style="visibility: inherit;" fill="rgb(0, 0, 0)" stroke="rgb(204, 204, 204)" stroke-width="1px"></line><line x1="143.47088436864786" y1="0" x2="143.47088436864786" y2="5" style="visibility: inherit;" fill="rgb(0, 0, 0)" stroke="rgb(204, 204, 204)" stroke-width="1px"></line><line x1="182.8421460189594" y1="0" x2="182.8421460189594" y2="5" style="visibility: inherit;" fill="rgb(0, 0, 0)" stroke="rgb(204, 204, 204)" stroke-width="1px"></line><line x1="222.2134076692709" y1="0" x2="222.2134076692709" y2="5" style="visibility: inherit;" fill="rgb(0, 0, 0)" stroke="rgb(204, 204, 204)" stroke-width="1px"></line><line x1="261.5846693195824" y1="0" x2="261.5846693195824" y2="5" style="visibility: inherit;" fill="rgb(0, 0, 0)" stroke="rgb(204, 204, 204)" stroke-width="1px"></line></g><g transform="translate(0, 8)"><text x="25.357099417713314" y="0" dx="0em" dy="0.95em" style="text-anchor: middle; visibility: inherit; font-family: &quot;Helvetica Neue&quot;, sans-serif; font-size: 12px; font-weight: 200;" fill="rgb(50, 49, 63)" stroke="none" stroke-width="1px">-15k</text><text x="64.72836106802484" y="0" dx="0em" dy="0.95em" style="text-anchor: middle; visibility: inherit; font-family: &quot;Helvetica Neue&quot;, sans-serif; font-size: 12px; font-weight: 200;" fill="rgb(50, 49, 63)" stroke="none" stroke-width="1px">-10k</text><text x="104.09962271833633" y="0" dx="0em" dy="0.95em" style="text-anchor: middle; visibility: inherit; font-family: &quot;Helvetica Neue&quot;, sans-serif; font-size: 12px; font-weight: 200;" fill="rgb(50, 49, 63)" stroke="none" stroke-width="1px">-5k</text><text x="143.47088436864786" y="0" dx="0em" dy="0.95em" style="text-anchor: middle; visibility: inherit; font-family: &quot;Helvetica Neue&quot;, sans-serif; font-size: 12px; font-weight: 200;" fill="rgb(50, 49, 63)" stroke="none" stroke-width="1px">0</text><text x="182.8421460189594" y="0" dx="0em" dy="0.95em" style="text-anchor: middle; visibility: inherit; font-family: &quot;Helvetica Neue&quot;, sans-serif; font-size: 12px; font-weight: 200;" fill="rgb(50, 49, 63)" stroke="none" stroke-width="1px">5k</text><text x="222.2134076692709" y="0" dx="0em" dy="0.95em" style="text-anchor: middle; visibility: inherit; font-family: &quot;Helvetica Neue&quot;, sans-serif; font-size: 12px; font-weight: 200;" fill="rgb(50, 49, 63)" stroke="none" stroke-width="1px">10k</text><text x="261.5846693195824" y="0" dx="0em" dy="0.95em" style="text-anchor: middle; visibility: inherit; font-family: &quot;Helvetica Neue&quot;, sans-serif; font-size: 12px; font-weight: 200;" fill="rgb(50, 49, 63)" stroke="none" stroke-width="1px">15k</text></g><line x1="0" y1="0" x2="281.125" y2="0" fill="rgb(0, 0, 0)" stroke="rgb(204, 204, 204)" stroke-width="1px"></line></g></g></g></g></svg>