<svg viewBox="0 0 1029 400" xmlns="http://www.w3.org/2000/svg"><g><g><g><g><g><line x1="58.59375" y1="377.828125" x2="53.59375" y2="377.828125" style="visibility: inherit;" fill="rgb(0, 0, 0)" stroke="rgb(204, 204, 204)" stroke-width="1px"></line><line x1="58.59375" y1="335.84722222222223" x2="53.59375" y2="335.84722222222223" style="visibility: inherit;" fill="rgb(0, 0, 0)" stroke="rgb(204, 204, 204)" stroke-width="1px"></line><line x1="58.59375" y1="293.86631944444446" x2="53.59375" y2="293.86631944444446" style="visibility: inherit;" fill="rgb(0, 0, 0)" stroke="rgb(204, 204, 204)" stroke-width="1px"></line><line x1="58.59375" y1="251.88541666666669" x2="53.59375" y2="251.88541666666669" style="visibility: inherit;" fill="rgb(0, 0, 0)" stroke="rgb(204, 204, 204)" stroke-width="1px"></line><line x1="58.59375" y1="209.90451388888889" x2="53.59375" y2="209.90451388888889" style="visibility: inherit;" fill="rgb(0, 0, 0)" stroke="rgb(204, 204, 204)" stroke-width="1px"></line><line x1="58.59375" y1="167.92361111111111" x2="53.59375" y2="167.92361111111111" style="visibility: inherit;" fill="rgb(0, 0, 0)" stroke="rgb(204, 204, 204)" stroke-width="1px"></line><line x1="58.59375" y1="125.94270833333331" x2="53.59375" y2="125.94270833333331" style="visibility: inherit;" fill="rgb(0, 0, 0)" stroke="rgb(204, 204, 204)" stroke-width="1px"></line><line x1="58.59375" y1="83.9618055555556" x2="53.59375" y2="83.9618055555556" style="visibility: inherit;" fill="rgb(0, 0, 0)" stroke="rgb(204, 204, 204)" stroke-width="1px"></line><line x1="58.59375" y1="41.98090277777777" x2="53.59375" y2="41.98090277777777" style="visibility: inherit;" fill="rgb(0, 0, 0)" stroke="rgb(204, 204, 204)" stroke-width="1px"></line><line x1="58.59375" y1="0" x2="53.59375" y2="0" style="visibility: inherit;" fill="rgb(0, 0, 0)" stroke="rgb(204, 204, 204)" stroke-width="1px"></line></g><g transform="translate(48.59375, 0)"><text x="0" y="377.828125" dx="0em" dy="0.3em" style="text-anchor: end; visibility: hidden; font-family: &quot;Helvetica Neue&quot;, sans-serif; font-size: 12px; font-weight: 200;" fill="rgb(50, 49, 63)" stroke="none" stroke-width="1px">-5e-3</text><text x="0" y="335.84722222222223" dx="0em" dy="0.3em" style="text-anchor: end; visibility: inherit; font-family: &quot;Helvetica Neue&quot;, sans-serif; font-size: 12px; font-weight: 200;" fill="rgb(50, 49, 63)" stroke="none" stroke-width="1px">0</text><text x="0" y="293.86631944444446" dx="0em" dy="0.3em" style="text-anchor: end; visibility: inherit; font-family: &quot;Helvetica Neue&quot;, sans-serif; font-size: 12px; font-weight: 200;" fill="rgb(50, 49, 63)" stroke="none" stroke-width="1px">5e-3</text><text x="0" y="251.88541666666669" dx="0em" dy="0.3em" style="text-anchor: end; visibility: inherit; font-family: &quot;Helvetica Neue&quot;, sans-serif; font-size: 12px; font-weight: 200;" fill="rgb(50, 49, 63)" stroke="none" stroke-width="1px">0.01</text><text x="0" y="209.90451388888889" dx="0em" dy="0.3em" style="text-anchor: end; visibility: inherit; font-family: &quot;Helvetica Neue&quot;, sans-serif; font-size: 12px; font-weight: 200;" fill="rgb(50, 49, 63)" stroke="none" stroke-width="1px">0.015</text><text x="0" y="167.92361111111111" dx="0em" dy="0.3em" style="text-anchor: end; visibility: inherit; font-family: &quot;Helvetica Neue&quot;, sans-serif; font-size: 12px; font-weight: 200;" fill="rgb(50, 49, 63)" stroke="none" stroke-width="1px">0.02</text><text x="0" y="125.94270833333331" dx="0em" dy="0.3em" style="text-anchor: end; visibility: inherit; font-family: &quot;Helvetica Neue&quot;, sans-serif; font-size: 12px; font-weight: 200;" fill="rgb(50, 49, 63)" stroke="none" stroke-width="1px">0.025</text><text x="0" y="83.9618055555556" dx="0em" dy="0.3em" style="text-anchor: end; visibility: inherit; font-family: &quot;Helvetica Neue&quot;, sans-serif; font-size: 12px; font-weight: 200;" fill="rgb(50, 49, 63)" stroke="none" stroke-width="1px">0.03</text><text x="0" y="41.98090277777777" dx="0em" dy="0.3em" style="text-anchor: end; visibility: inherit; font-family: &quot;Helvetica Neue&quot;, sans-serif; font-size: 12px; font-weight: 200;" fill="rgb(50, 49, 63)" stroke="none" stroke-width="1px">0.035</text><text x="0" y="0" dx="0em" dy="0.3em" style="text-anchor: end; visibility: hidden; font-family: &quot;Helvetica Neue&quot;, sans-serif; font-size: 12px; font-weight: 200;" fill="rgb(50, 49, 63)" stroke="none" stroke-width="1px">0.04</text></g><line x1="58.59375" y1="0" x2="58.59375" y2="377.828125" fill="rgb(0, 0, 0)" stroke="rgb(204, 204, 204)" stroke-width="1px"></line></g></g><g transform="translate(58, 0)" clip-path="url(#clip_0)"><clipPath id="clip_0"><rect width="970" height="377"></rect></clipPath><g><g><g><line x1="0" y1="0" x2="0" y2="377.828125" fill="rgb(0, 0, 0)" stroke="rgb(60, 60, 60)" stroke-width="1px" opacity="0.25"></line><line x1="88.21875" y1="0" x2="88.21875" y2="377.828125" fill="rgb(0, 0, 0)" stroke="rgb(60, 60, 60)" stroke-width="1px" opacity="0.25"></line><line x1="176.4375" y1="0" x2="176.4375" y2="377.828125" fill="rgb(0, 0, 0)" stroke="rgb(60, 60, 60)" stroke-width="1px" opacity="0.25"></line><line x1="264.65625" y1="0" x2="264.65625" y2="377.828125" fill="rgb(0, 0, 0)" stroke="rgb(60, 60, 60)" stroke-width="1px" opacity="0.25"></line><line x1="352.875" y1="0" x2="352.875" y2="377.828125" fill="rgb(0, 0, 0)" stroke="rgb(60, 60, 60)" stroke-width="1px" opacity="0.25"></line><line x1="441.09375" y1="0" x2="441.09375" y2="377.828125" fill="rgb(0, 0, 0)" stroke="rgb(60, 60, 60)" stroke-width="1px" opacity="0.25"></line><line x1="529.3125" y1="0" x2="529.3125" y2="377.828125" fill="rgb(0, 0, 0)" stroke="rgb(60, 60, 60)" stroke-width="1px" opacity="0.25"></line><line x1="617.53125" y1="0" x2="617.53125" y2="377.828125" fill="rgb(0, 0, 0)" stroke="rgb(60, 60, 60)" stroke-width="1px" opacity="0.25"></line><line x1="705.75" y1="0" x2="705.75" y2="377.828125" fill="rgb(0, 0, 0)" stroke="rgb(60, 60, 60)" stroke-width="1px" opacity="0.25"></line><line x1="793.96875" y1="0" x2="793.96875" y2="377.828125" fill="rgb(0, 0, 0)" stroke="rgb(60, 60, 60)" stroke-width="1px" opacity="0.25"></line><line x1="882.1875" y1="0" x2="882.1875" y2="377.828125" fill="rgb(0, 0, 0)" stroke="rgb(60, 60, 60)" stroke-width="1px" opacity="0.25"></line><line x1="970.40625" y1="0" x2="970.40625" y2="377.828125" fill="rgb(0, 0, 0)" stroke="rgb(60, 60, 60)" stroke-width="1px" opacity="0.25"></line></g><g><line x1="0" y1="377.828125" x2="970.40625" y2="377.828125" fill="rgb(0, 0, 0)" stroke="rgb(60, 60, 60)" stroke-width="1px" opacity="0.25"></line><line x1="0" y1="335.84722222222223" x2="970.40625" y2="335.84722222222223" fill="rgb(0, 0, 0)" stroke="rgb(60, 60, 60)" stroke-width="1px" opacity="0.25"></line><line x1="0" y1="293.86631944444446" x2="970.40625" y2="293.86631944444446" fill="rgb(0, 0, 0)" stroke="rgb(60, 60, 60)" stroke-width="1px" opacity="0.25"></line><line x1="0" y1="251.88541666666669" x2="970.40625" y2="251.88541666666669" fill="rgb(0, 0, 0)" stroke="rgb(60, 60, 60)" stroke-width="1px" opacity="0.25"></line><line x1="0" y1="209.90451388888889" x2="970.40625" y2="209.90451388888889" fill="rgb(0, 0, 0)" stroke="rgb(60, 60, 60)" stroke-width="1px" opacity="0.25"></line><line x1="0" y1="167.92361111111111" x2="970.40625" y2="167.92361111111111" fill="rgb(0, 0, 0)" stroke="rgb(60, 60, 60)" stroke-width="1px" opacity="0.25"></line><line x1="0" y1="125.94270833333331" x2="970.40625" y2="125.94270833333331" fill="rgb(0, 0, 0)" stroke="rgb(60, 60, 60)" stroke-width="1px" opacity="0.25"></line><line x1="0" y1="83.9618055555556" x2="970.40625" y2="83.9618055555556" fill="rgb(0, 0, 0)" stroke="rgb(60, 60, 60)" stroke-width="1px" opacity="0.25"></line><line x1="0" y1="41.98090277777777" x2="970.40625" y2="41.98090277777777" fill="rgb(0, 0, 0)" stroke="rgb(60, 60, 60)" stroke-width="1px" opacity="0.25"></line><line x1="0" y1="0" x2="970.40625" y2="0" fill="rgb(0, 0, 0)" stroke="rgb(60, 60, 60)" stroke-width="1px" opacity="0.25"></line></g></g></g><g><g><line x1="0" y1="335.84722222222223" x2="970.40625" y2="335.84722222222223" fill="rgb(0, 0, 0)" stroke="rgb(153, 153, 153)" stroke-width="1.5px"></line></g></g><g><g><line x1="88.21875" y1="0" x2="88.21875" y2="377.828125" fill="rgb(0, 0, 0)" stroke="rgb(153, 153, 153)" stroke-width="1.5px"></line></g></g><g><g><g><g><g><path stroke="rgb(255, 112, 67)" stroke-width="2px" d="M98.805,-10.768171726986054L100.56937500000001,3.2240106212241812L102.33375,0.8432232085372107L104.098125,24.04011034923724L105.8625,39.32257416558559L107.62687500000001,51.78279857939344L109.39125,41.64289071275755L111.155625,54.93863910461096L112.92,59.17351632086093L114.684375,67.08333497103177L116.44874999999999,50.26618510326682L118.21312499999999,74.49906455529191L119.9775,66.67415435390103L121.74187500000001,53.76095396212685L123.50625,49.35818858014267L125.270625,66.21177992089258L127.03500000000001,85.98205478227374L128.799375,101.63020402822184L130.56375,91.47468233341044L132.328125,91.09878539114442L134.0925,115.43088841669254L135.856875,147.68622209256586L137.62125,176.91555833272656L139.385625,192.15285434587992L141.15,202.33030275281666L142.914375,191.86438081805346L144.67874999999998,201.8946897847084L146.443125,213.82155400197323L148.2075,210.01963875120356L149.97187499999998,212.81782708649806L151.73625,218.8389751343009L153.50062499999999,185.828395495157L155.26500000000001,212.10520125570034L157.029375,229.46481874417898L158.79375,237.09196788782762L160.55812500000002,248.36429656275718L162.3225,246.9457081358746L164.086875,241.5951845750226L165.85125,248.57583046704266L167.615625,249.71564973280553L169.38000000000002,256.40155453712447L171.144375,260.303360947594L172.90875,261.4305937656847L174.673125,260.24547334668745L176.4375,262.47238838016136L178.201875,254.02663380436792L179.96625,248.2631970976398L181.730625,251.4414078599138L183.495,249.14587534934995L185.259375,253.7098111647172L187.02374999999998,258.28274288663755L188.788125,254.6335173062697L190.55249999999998,261.79447927897905L192.316875,253.6545352168801L194.08125,244.5156312310167L195.84562499999998,260.00617716508214L197.61,264.0438199462797L199.374375,257.93086361869007L201.13875000000002,265.7295314609041L202.903125,267.1308070398227L204.6675,264.14575311240105L206.43187500000002,266.90507630596625L208.19625,271.61902700627303L209.960625,274.37046866904143L211.725,271.2346884433935L213.489375,274.7893137718L215.25375000000003,270.50516088559607L217.018125,273.4084716276061L218.7825,278.2640162058414L220.546875,275.35442873849524L222.31125,268.0968269697504L224.075625,270.5114570119605L225.84,276.66339715428114L227.604375,280.76578524958245L229.36875,274.7669158445326L231.133125,273.9741050946521L232.89749999999998,279.8897345657395L234.661875,273.912391928595L236.42624999999998,276.7700076150302L238.190625,280.50747336180825L239.955,280.0636221828847L241.71937499999999,281.8326315154468L243.48375000000001,283.1356065501174L245.24812500000002,284.8028745672857L247.0125,286.4130775847013L248.776875,285.8331127847135L250.54125,283.7406824505787L252.30562500000002,284.1583566937819L254.07000000000002,280.0172972518676L255.83437499999997,278.4418988196449L257.59875,275.05366891513853L259.363125,278.9449177749556L261.1275,276.1774872853823L262.891875,268.86844388060615L264.65625,267.39459380208206L266.420625,277.1535110577732L268.185,281.5213510684678L269.94937500000003,282.8976905890803L271.71375,285.0070378730577L273.478125,284.0056766526858L275.2425,285.93746909283504L277.006875,286.6750597302357L278.77125,286.28703375826666L280.535625,285.6364679666665L282.3,282.706772609444L284.064375,282.21857077982173L285.82875,284.98200466077816L287.59312500000004,283.63986378097735L289.35749999999996,281.51526748447833L291.121875,283.56583226846334L292.88625,282.709642413579L294.650625,279.0012174879473L296.415,278.58432300868316L298.179375,281.5813634032257L299.94374999999997,284.28574084137426L301.708125,283.5691356650167L303.4725,282.2825030498585L305.23687500000005,286.5055331915042L307.00124999999997,287.762335467302L308.765625,283.6524299796844L310.53000000000003,282.76107713029467L312.294375,285.8520652344214L314.05875,287.6180375445958L315.823125,290.186929057947L317.5875,285.5772006674358L319.351875,280.2610681969304L321.11625000000004,286.9602575328937L322.88062499999995,286.38887746042485L324.645,290.066617774349L326.409375,287.40196382802736L328.17375,285.0590300029812L329.938125,286.9585054033966L331.7025,289.40186487119104L333.466875,292.32819918275226L335.23125,292.5746822589794L336.995625,294.404324823067L338.76000000000005,287.61675007972144L340.52437499999996,290.6535406149285L342.28875,292.7508475446638L344.053125,291.5393494163125L345.8175,291.8118910019536L347.58187499999997,291.4800535586161L349.34625,289.2524747250383L351.11062499999997,292.17113709392265L352.875,290.19045778020813L354.63937500000003,288.62667883024596L356.40375,291.9104834297494L358.168125,291.1349444071024L359.9325,285.6445951485781L361.69687500000003,290.3360519668071L363.46125,296.1742074572544L365.225625,296.3036519718715L366.99,294.4863470966718L368.754375,292.26262638375977L370.51875,295.04797505098134L372.283125,296.0607435254623L374.04749999999996,286.6862954479705L375.811875,286.2127333468811L377.57625,288.9105104891445L379.34062500000005,292.57041621565503L381.10499999999996,296.0505772685961L382.869375,294.5977209228692L384.63375,294.01528676814075L386.398125,287.67796485684084L388.1625,290.4948823230841L389.926875,292.4901564327969L391.69124999999997,294.13715160309664L393.455625,293.5822335247863L395.22,294.30164587171737L396.984375,289.3772782892402L398.74875,293.48298485768026L400.513125,293.821989649914L402.27750000000003,296.31371262213645L404.041875,294.789440466447L405.80625,295.1678511249485L407.570625,297.6813643829911L409.335,292.5385597853526L411.099375,291.67380822027627L412.86375000000004,291.8490457829827L414.62812499999995,291.57387656560877L416.3925,293.24824969120857L418.156875,282.5233915654349L419.92125,288.52355601021407L421.685625,287.84875693878644L423.45,282.7062186411618L425.214375,287.3826024135529L426.97875,290.9187960827499L428.743125,294.7689242723388L430.50750000000005,295.93318964816467L432.27187499999997,295.50805259409043L434.03625,295.6720983752137L435.800625,296.6943355948375L437.565,292.76955997624356L439.32937499999997,297.20191290485917L441.09375,294.32951674791093L442.858125,295.8521567067627L444.6225,296.28310695489785L446.38687500000003,295.55326221014076L448.15125,298.55639948249905L449.915625,297.74923029229103L451.68,292.91934384925435L453.44437500000004,294.2608996602231L455.20875,293.54467996144297L456.973125,296.2197608876972L458.7375,296.20486403190523L460.501875,299.3456275869875L462.26625,299.6745687292945L464.03062500000004,300.44862384704845L465.79499999999996,301.4677978662258L467.559375,299.9772079512664L469.32375,300.60272634495396L471.088125,298.03774958398503L472.85249999999996,297.5413241303171L474.616875,294.40941750109033L476.38125,298.12276898456173L478.145625,294.7539132837941L479.91,296.68046358557945L481.674375,290.38636673900476L483.43874999999997,294.52259824881725L485.203125,296.1288600577076L486.96750000000003,297.380339140893L488.731875,296.1669362379039L490.49625000000003,294.98212941248846L492.26062500000006,292.51373364652505L494.025,291.35594553959015L495.78937499999995,295.438412450729L497.55375,298.0167854089579L499.318125,302.7976320342505L501.0825,301.2508031083757L502.846875,301.3345417701129L504.61125000000004,301.31597916086815L506.375625,294.3302980960525L508.14000000000004,295.41833382588743L509.9043750000001,297.2084450534101L511.66874999999993,296.5491062356317L513.433125,299.20025160345807L515.1975,299.8561074139667L516.961875,302.8811653966379L518.72625,303.06400779158326L520.490625,303.49876342413256L522.255,305.2136774466874L524.0193750000001,304.3860576624488L525.78375,303.43187228683837L527.5481249999999,298.36882352410674L529.3125,296.0263370244397L531.076875,299.85965284297373L532.84125,303.4215202716146L534.605625,303.5495083701785L536.37,303.93157577664675L538.134375,300.57700427582785L539.8987500000001,302.65035054502715L541.663125,304.37412460382376L543.4275,303.4940906491928L545.191875,303.15531595800303L546.95625,302.67820415937956L548.7206249999999,302.66251861899445L550.485,304.1682058006303L552.249375,304.1824333370962L554.01375,303.77523631314466L555.778125,304.67922876567764L557.5425,299.5107829770455L559.306875,300.50658705448797L561.07125,298.4063442220719L562.8356249999999,298.6017753768757L564.6,299.4979631521373L566.364375,297.18416339955365L568.12875,296.7732181357607L569.893125,297.7104545931497L571.6575,298.1399672933131L573.421875,293.0256095093303L575.1862500000001,299.1763911066995L576.9506250000001,299.924229530013L578.7149999999999,300.72466856637243L580.479375,297.56899334266643L582.24375,301.33848622835626L584.008125,302.87881651306026L585.7725,300.4304080700348L587.536875,301.17051795167333L589.30125,301.2269076711218L591.0656250000001,304.1993434044551L592.83,303.4994088076459L594.5943749999999,300.5089296867072L596.35875,303.36498012623446L598.123125,304.0800066194156L599.8874999999999,303.7648529076822L601.651875,300.6153109493155L603.41625,302.09027196342424L605.180625,303.9874740028657L606.945,305.1976717710812L608.709375,304.4720084065813L610.4737500000001,304.1592194070445L612.238125,306.2613252326996L614.0024999999999,304.19753203099305L615.766875,302.32925040479876L617.53125,303.00790295387594L619.295625,301.4257690511636L621.0600000000001,303.5605084830272L622.824375,305.10648345284744L624.58875,304.67305264681585L626.3531250000001,301.70457173650635L628.1175,301.5558695098798L629.8818749999999,305.0528411723375L631.64625,304.78870061010144L633.410625,302.3835227816131L635.175,304.1296229142221L636.939375,305.67203780928105L638.70375,300.2218584115101L640.468125,303.799759055647L642.2325000000001,305.32768508048525L643.996875,305.53869558673625L645.7612499999999,304.50510393988475L647.525625,302.7837307577974L649.29,298.1325262261888L651.0543749999999,300.8169415605216L652.81875,301.0507333418042L654.583125,304.6583340457117L656.3475,302.5141943682488L658.111875,303.00354344397385L659.87625,305.5455690279696L661.640625,305.9525172140924L663.405,304.0905381432885L665.169375,301.1223015431834L666.93375,300.1923145635029L668.698125,297.1156726684308L670.4625,297.82165791573L672.2268750000001,303.6705875154073L673.99125,304.61162186074495L675.755625,304.97105193687236L677.5200000000001,307.0232945319719L679.284375,307.2749823122291L681.0487499999999,308.47281802136024L682.813125,304.2075102825439L684.5775,308.0861444389394L686.341875,305.8409729815987L688.10625,305.5753736454281L689.870625,300.1146514693665L691.635,302.43013888762886L693.3993750000001,305.0151159823073L695.1637499999999,307.00308307297644L696.9281249999999,305.29645927844535L698.6925,302.1117940767073L700.456875,303.6345307405743L702.2212499999999,305.5947322609523L703.985625,304.7928223026398L705.75,302.35585455010073L707.5143750000001,300.192324160381L709.2787500000001,299.74373305664665L711.043125,303.8159548401666L712.8075,303.9839787667877L714.571875,305.28443289613176L716.33625,306.3438493225059L718.100625,307.3124690166762L719.865,306.12234798315245L721.629375,305.4532221507619L723.3937500000001,306.5020187211705L725.158125,307.9328320720491L726.9225,304.2054340499453L728.686875,305.9585348278452L730.45125,307.3384481983241L732.2156249999999,306.97432186427596L733.98,309.3729204783268L735.744375,309.87080023358527L737.50875,306.58370182531854L739.273125,308.4194459867337L741.0375,307.0371179804331L742.801875,307.7494061609921L744.56625,303.64219633864093L746.3306249999999,303.0191983351949L748.0949999999999,301.5961469571913L749.859375,302.3290542483661L751.62375,304.3028204459684L753.3881250000001,306.63818084776267L755.1525,307.1396520106834L756.916875,308.6751036408334L758.6812500000001,308.57204921242123L760.4456250000001,310.3220045218899L762.2099999999999,310.21726830086305L763.974375,307.19817124487696L765.73875,308.96416765980916L767.503125,309.03181148567245L769.2675,305.4118869739182L771.031875,307.58338402185757L772.79625,310.3409317059492L774.5606250000001,311.3024446572538L776.325,311.689354505498L778.0893749999999,310.86253673626874L779.85375,311.84701109092794L781.618125,311.94048789461317L783.3824999999999,312.2002827027023L785.146875,307.2521789391532L786.91125,308.26931792468343L788.675625,310.38779750288376L790.44,304.1701436177704L792.204375,300.35934457288215L793.96875,301.0507868853638L795.733125,303.56975935213L797.4975,306.86058131004654L799.261875,308.2600277223604L801.02625,304.4641061156133L802.790625,307.983167083001L804.5550000000001,308.7778520163009L806.319375,309.7903171791283L808.08375,307.8346986692863L809.8481250000001,310.19438201090054L811.6125,309.7942495211142L813.3768749999999,306.48364132766574L815.14125,304.22412536785885L816.905625,305.94117150010106L818.67,304.9672345825238L820.434375,303.74305084256406L822.19875,305.1855994108837L823.963125,309.1539441836913L825.7275000000001,309.38284129926114L827.491875,310.7535779139927L829.2562499999999,307.34567482681445L831.020625,308.8274995393244L832.785,309.7614895455076L834.5493749999999,310.79649441553653L836.31375,310.5434535645285L838.078125,307.4792249989732L839.8425,309.733044400653L841.6068750000001,307.1674094761303L843.37125,302.09226694482453L845.1356249999999,303.58697901628454L846.9,302.2747388906946L848.664375,304.7554110048327L850.42875,304.5929151632316L852.193125,306.8833072448541L853.9575,307.88739381120354L855.7218750000001,308.8444421256861L857.48625,307.57796018710246L859.250625,305.2594379415418L861.0150000000001,308.0054465093242L862.779375,309.2249514818966L864.5437499999999,310.8542264899585L866.308125,312.2657438159776L868.0725,309.18077991027866L869.836875,305.6578842816324L871.60125,305.6779323132497L873.365625,309.5736458773885L875.13,306.7962617233574L876.8943750000001,309.0172498124221L878.6587499999999,304.7570531896797L880.4231249999999,305.56389015624137L882.1875,308.2682346271106L883.951875,310.2279789694562L885.71625,304.78667003050725L887.480625,302.6146217744815L889.245,304.9981006928968L891.009375,308.74838611047215L892.7737500000001,306.47734997486816L894.538125,303.90976731466355L896.3025,308.6504523254408L898.066875,309.16181695868147L899.83125,311.4700181387718L901.595625,310.70257418130006L903.36,310.0167795822094L905.124375,308.81524182544814L906.8887500000001,310.8445073918519L908.653125,313.0624385030478L910.4175,307.5994565812599L912.181875,309.8337043857841L913.94625,311.3279526283696L915.7106249999999,308.0697833198295L917.475,307.3098508893735L919.239375,309.32319741627373L921.00375,313.19765787501444L922.768125,313.3218471767423L924.5325,313.54899294873485L926.296875,310.7548734012778L928.0612500000001,309.66650239616956L929.825625,313.30845579633336L931.5899999999999,308.94704140744926L933.354375,312.35579213486295L935.11875,310.2222432233656L936.883125,301.7235127604621L938.6475,304.9145710722682L940.411875,309.57925274591224" style="fill: none;" fill="none"></path></g></g></g></g><g opacity="0.20000000298023224"><g><g><g><path stroke="rgb(255, 112, 67)" stroke-width="2px" d="M95.27624999999999,-2.06979675963521L97.040625,22.93566203370898L98.805,5.563337600893419L100.56937500000001,23.233055254082274L102.33375,-2.627987694719593L104.098125,58.25101311841149L105.8625,62.01525185339983L107.62687500000001,70.36012188174453L109.39125,26.48820984363556L111.155625,74.83884876702604L112.92,65.51753557990821L114.684375,78.93876525138819L116.44874999999999,25.05232105864627L118.21312499999999,110.83812919088331L119.9775,54.93877579566714L121.74187500000001,34.393120570573956L123.50625,42.754442937361716L125.270625,91.49124264101397L127.03500000000001,115.63681652502981L128.799375,125.10211895173416L130.56375,76.24152009302958L132.328125,90.5349426494601L134.0925,151.9289391897101L135.856875,196.0691400738174L137.62125,220.75951781905152L139.385625,215.00878432990672L141.15,217.59646973830078L142.914375,176.16550138652218L144.67874999999998,216.94015123899507L146.443125,231.7118489040424L148.2075,204.31676614737242L149.97187499999998,217.01510946918276L151.73625,227.87069705074342L153.50062499999999,136.3125265471689L155.26500000000001,251.52040965258814L157.029375,255.5042448802075L158.79375,248.53269157781162L160.55812500000002,265.27278955254906L162.3225,244.81782549725742L164.086875,233.56939923760686L165.85125,259.0467993020494L167.615625,251.42537863115365L169.38000000000002,266.43041174256035L171.144375,266.1560705629332L172.90875,263.1214429927576L174.673125,258.46779271823146L176.4375,265.8127609303273L178.201875,241.3580019407802L179.96625,239.61804203758945L181.730625,256.20872400331103L183.495,245.70257658351002L185.259375,260.55571488776087L187.02374999999998,265.14214046951383L188.788125,249.15967893572005L190.55249999999998,272.53592223804054L192.316875,241.44461912373336L194.08125,230.8072752522227L195.84562499999998,283.2419960661791L197.61,270.10028411807593L199.374375,248.76142912730572L201.13875000000002,277.42753322422504L202.903125,269.2327204082006L204.6675,259.6681722212686L206.43187500000002,271.04406109631395L208.19625,278.6899530567332L209.960625,278.497631163194L211.725,266.5310181049216L213.489375,280.12125176440975L215.25375000000003,264.0789315562902L217.018125,277.76343774062116L218.7825,285.54733307319435L220.546875,270.9900475374759L222.31125,257.21042431663307L224.075625,274.13340207527574L225.84,285.8913073677621L227.604375,286.91936739253447L229.36875,265.7686117369578L231.133125,272.7848889698313L232.89749999999998,288.7631787723706L234.661875,264.94637797287817L236.42624999999998,281.05643114468285L238.190625,286.1136719819753L239.955,279.39784541449944L241.71937499999999,284.4861455142899L243.48375000000001,285.0900691021234L245.24812500000002,287.3037765930381L247.0125,288.82838211082463L248.776875,284.9631655847317L250.54125,280.60203694937644L252.30562500000002,284.7848680585868L254.07000000000002,273.80570808899614L255.83437499999997,276.07880117131083L257.59875,269.9713240583789L259.363125,284.7817910646813L261.1275,272.02634155102226L262.891875,257.90487877344196L264.65625,265.18381868429583L266.420625,291.7918869413099L268.185,288.0731110845097L269.94937500000003,284.962199869999L271.71375,288.17105879902374L273.478125,282.503634822128L275.2425,288.8351577530589L277.006875,287.7814456863367L278.77125,285.704994800313L280.535625,284.6606192792662L282.3,278.31222957361024L284.064375,281.4862680353884L285.82875,289.1271554822128L287.59312500000004,281.6266524612761L289.35749999999996,278.32837303972985L291.121875,286.64167944444085L292.88625,281.42535763125244L294.650625,273.43858009949975L296.415,277.958981289787L298.179375,286.07692399503946L299.94374999999997,288.3423069985971L301.708125,282.4942279004802L303.4725,280.3525541271212L305.23687500000005,292.84007840397277L307.00124999999997,289.6475388809987L308.765625,277.4875717482581L310.53000000000003,281.42404785621005L312.294375,290.4885473906114L314.05875,290.2669960098574L315.823125,294.0402663279739L317.5875,278.6626080816689L319.351875,272.28686949117235L321.11625000000004,297.0090415368387L322.88062499999995,285.53180735172157L324.645,295.58322824523526L326.409375,283.4049829085448L328.17375,281.5446292654119L329.938125,289.80771850401976L331.7025,293.0669040728826L333.466875,296.7177006500941L335.23125,292.9444068733202L336.995625,297.1487886691983L338.76000000000005,277.4353879647032L340.52437499999996,295.20872641773894L342.28875,295.89680793926686L344.053125,289.72210222378555L345.8175,292.2207033804152L347.58187499999997,290.98229739360977L349.34625,285.9111064746717L351.11062499999997,296.54913064724917L352.875,287.2194388096363L354.63937500000003,286.28101040530277L356.40375,296.8361903290044L358.168125,289.97163587313196L359.9325,277.40907126079156L361.69687500000003,297.37323719415065L363.46125,304.9314406929253L365.225625,296.4978187437971L366.99,291.76038978387237L368.754375,288.92704531439165L370.51875,299.2259980518138L372.283125,297.5798962371838L374.04749999999996,272.62462333173283L375.811875,285.5023901952469L377.57625,292.9571762025395L379.34062500000005,298.0602748054209L381.10499999999996,301.27081884800765L382.869375,292.4184364042788L384.63375,293.14163553604806L386.398125,278.1719819898911L388.1625,294.7202585224489L389.926875,295.483067597366L391.69124999999997,296.60764435854634L393.455625,292.7498564073208L395.22,295.38076439211403L396.984375,281.9907269155244L398.74875,299.64154471034027L400.513125,294.3304968382646L402.27750000000003,300.05129708047025L404.041875,292.5030322329128L405.80625,295.73546711270075L407.570625,301.45163427005497L409.335,284.82435288889485L411.099375,290.3766808726618L412.86375000000004,292.1119021270424L414.62812499999995,291.16112273954786L416.3925,295.75980937960816L418.156875,266.43610437677444L419.92125,297.52380267738283L421.685625,286.8365583316449L423.45,274.9924111947249L425.214375,294.3971780721396L426.97875,296.22308658654543L428.743125,300.54411655672203L430.50750000000005,297.6795877119035L432.27187499999997,294.8703470129791L434.03625,295.9181670468986L435.800625,298.22769142427325L437.565,286.88239654835263L439.32937499999997,303.85044229778254L441.09375,290.02092251248865L442.858125,298.1361166450402L444.6225,296.9295323271007L446.38687500000003,294.45849509300507L448.15125,303.0611053910365L449.915625,296.53847650697895L451.68,285.67451418469943L453.44437500000004,296.2732333766762L455.20875,292.47035041327274L456.973125,300.2323822770785L458.7375,296.18251874821726L460.501875,304.05677291961103L462.26625,300.1679804427549L464.03062500000004,301.60970652367945L465.79499999999996,302.99655889499184L467.559375,297.7413230788273L469.32375,301.54100393548526L471.088125,294.19028444253166L472.85249999999996,296.7966859498152L474.616875,289.71155755725016L476.38125,303.69279620976886L478.145625,289.70062973264265L479.91,299.5702890382575L481.674375,280.94522146914255L483.43874999999997,300.726945513536L485.203125,298.538252771043L486.96750000000003,299.25755776567127L488.731875,294.34683188342024L490.49625000000003,293.2049191743653L492.26062500000006,288.8111399975799L494.025,289.6192633791878L495.78937499999995,301.56211281743725L497.55375,301.88434484630125L499.318125,309.96890197218937L501.0825,298.93055971956346L502.846875,301.4601497627187L504.61125000000004,301.28813524700104L506.375625,283.85177649882905L508.14000000000004,297.0503874206398L509.9043750000001,299.8936118946941L511.66874999999993,295.5600980089641L513.433125,303.17696965519764L515.1975,300.83989112972955L516.961875,307.4187523706447L518.72625,303.3382713840013L520.490625,304.1508968729564L522.255,307.78604848051975L524.0193750000001,303.144627986091L525.78375,302.0005942234226L527.5481249999999,290.7742503800093L529.3125,292.51260727493917L531.076875,305.6096265707747L532.84125,308.76432141457593L534.605625,303.74149051802425L536.37,304.5046768863491L538.134375,295.5451470245995L539.8987500000001,305.7603699488261L541.663125,306.95978569201867L543.4275,302.1740397172463L545.191875,302.6471539212184L546.95625,301.96253646144436L548.7206249999999,302.6389903084168L550.485,306.426736573084L552.249375,304.20377464179506L554.01375,303.16444077721746L555.778125,306.0352174444771L557.5425,291.75811429409725L559.306875,302.0002931706517L561.07125,295.2559799734477L562.8356249999999,298.89492210908145L564.6,300.84224481502963L566.364375,293.71346377067835L568.12875,296.1568002400713L569.893125,299.1163092792332L571.6575,298.78423634355806L573.421875,285.3540728333561L575.1862500000001,308.40256350275337L576.9506250000001,301.0459871649833L578.7149999999999,301.92532712091145L580.479375,292.8354805071075L582.24375,306.99272555689095L584.008125,305.1893119401162L585.7725,296.7577954054965L587.536875,302.28068277413126L589.30125,301.31149225029446L591.0656250000001,308.65799700445496L592.83,302.4495069124322L594.5943749999999,296.023211005299L596.35875,307.6490557855254L598.123125,305.1525463591873L599.8874999999999,303.292122340082L601.651875,295.89099801176536L603.41625,304.3027134845874L605.180625,306.83327706202783L606.945,307.01296842340446L608.709375,303.3835133598315L610.4737500000001,303.6900359077392L612.238125,309.41448397118234L614.0024999999999,301.10184222843316L615.766875,299.5268279655073L617.53125,304.02588177749163L619.295625,299.0525681970951L621.0600000000001,306.7626176308226L622.824375,307.42544590757785L624.58875,304.0229064377684L626.3531250000001,297.25185037104205L628.1175,301.33281616994L629.8818749999999,310.2982986660241L631.64625,304.3924897667473L633.410625,298.77575603888056L635.175,306.7487731131356L636.939375,307.9856601518695L638.70375,292.0465893148535L640.468125,309.1666100218523L642.2325000000001,307.6195741177427L643.996875,305.8552113461127L645.7612499999999,302.95471646960743L647.525625,300.2016709846664L649.29,291.1557194287759L651.0543749999999,304.8435645620209L652.81875,301.401421013728L654.583125,310.0697351015729L656.3475,299.2979848520546L658.111875,303.7375670575614L659.87625,309.3586074039631L661.640625,306.56293949327664L663.405,301.29756953708255L665.169375,296.66994664302587L666.93375,298.7973340939821L668.698125,292.5007098258227L670.4625,298.8806357866787L672.2268750000001,312.4439819149233L673.99125,306.0231733787514L675.755625,305.51019705106347L677.5200000000001,310.10165842462123L679.284375,307.65251398261495L681.0487499999999,310.26957158505684L682.813125,297.80954867431944L684.5775,313.90409567353265L686.341875,302.47321579558775L688.10625,305.1769746411721L689.870625,291.92356820527414L691.635,305.9033700150224L693.3993750000001,308.8925816243249L695.1637499999999,309.98503370898027L696.9281249999999,302.73652358664873L698.6925,297.33479627410026L700.456875,305.91863573637477L702.2212499999999,308.5350345415192L703.985625,303.58995736517113L705.75,298.70040292129204L707.5143750000001,296.94702857580137L709.2787500000001,299.07084640104506L711.043125,309.9242875154466L712.8075,304.2360146567193L714.571875,307.2351140901479L716.33625,307.93297396206697L718.100625,308.7653985579317L719.865,304.33716643286687L721.629375,304.449533402176L723.3937500000001,308.0752135767834L725.158125,310.079052098367L726.9225,298.61433701678953L728.686875,308.58818599469504L730.45125,309.40831825404246L732.2156249999999,306.42813236320376L733.98,312.97081839940313L735.744375,310.6176198664729L737.50875,301.6530542129185L739.273125,311.1730622288564L741.0375,304.9636259709821L742.801875,308.81783843183075L744.56625,297.4813816051141L746.3306249999999,302.0847013300259L748.0949999999999,299.46156989018584L749.859375,303.42841518512836L751.62375,307.26346974237174L753.3881250000001,310.14122145045417L755.1525,307.8918587550644L756.916875,310.9782810860585L758.6812500000001,308.41746756980297L760.4456250000001,312.9469374860928L762.2099999999999,310.0601639693228L763.974375,302.6695256608978L765.73875,311.61316228220755L767.503125,309.13327722446735L769.2675,299.98200020628667L771.031875,310.8406295937667L772.79625,314.4772532320866L774.5606250000001,312.7447140842107L776.325,312.2697192778643L778.0893749999999,309.6223100824249L779.85375,313.32372262291676L781.618125,312.080703100141L783.3824999999999,312.5899749148359L785.146875,299.83002329382964L786.91125,309.7950264029787L788.675625,313.5655168701843L790.44,294.8436627901004L792.204375,294.6431460055497L793.96875,302.0879503540863L795.733125,307.3482180522793L797.4975,311.7968142469213L799.261875,310.35919734083126L801.02625,298.7702237054925L802.790625,313.2617585340825L804.5550000000001,309.9698794162509L806.319375,311.3090149233693L808.08375,304.9012709045233L809.8481250000001,313.7339070233219L811.6125,309.1940507864347L813.3768749999999,301.51772903749304L815.14125,300.83485142814845L816.905625,308.51674069846433L818.67,303.506329206158L820.434375,301.90677523262434L822.19875,307.3494222633631L823.963125,315.1064613429028L825.7275000000001,309.7261869726159L827.491875,312.80968283608996L829.2562499999999,302.2338201960471L831.020625,311.0502366080893L832.785,311.1624745547823L834.5493749999999,312.34900172058L836.31375,310.1638922880164L838.078125,302.8828821506403L839.8425,313.11377350317264L841.6068750000001,303.3189570893462L843.37125,294.4795531478659L845.1356249999999,305.82904712347465L846.9,300.3063787023097L848.664375,308.4764191760397L850.42875,304.34917140083013L852.193125,310.31889536728784L853.9575,309.39352366072774L855.7218750000001,310.28001459740983L857.48625,305.67823727922706L859.250625,301.78165457320085L861.0150000000001,312.1244593609978L862.779375,311.0542089407552L864.5437499999999,313.29813900205124L866.308125,314.38301980500626L868.0725,304.5533340517302L869.836875,300.37354083866296L871.60125,305.7080043606758L873.365625,315.41721622359665L875.13,302.6301854923109L876.8943750000001,312.34873194601903L878.6587499999999,298.3667582555661L880.4231249999999,306.77414560608383L882.1875,312.3247513334144L883.951875,313.1675954829746L885.71625,296.62470662208375L887.480625,299.3565493904429L889.245,308.57331907051974L891.009375,314.37381423683513L892.7737500000001,303.07079577146214L894.538125,300.05839332435664L896.3025,315.7614798416067L898.066875,309.92886390854255L899.83125,314.93231990890735L901.595625,309.5514082450924L903.36,308.9880876835733L905.124375,307.01293519030634L906.8887500000001,313.8884057414576L908.653125,316.38933516984173L910.4175,299.40498369857795L912.181875,313.18507609257034L913.94625,313.56932499224786L915.7106249999999,303.1825293570194L917.475,306.1699522436894L919.239375,312.3432172066241L921.00375,319.00934856312557L922.768125,313.50813112933406L924.5325,313.8897116067237L926.296875,306.5636940800921L928.0612500000001,308.0339458885072L929.825625,318.7713858965791L931.5899999999999,302.40491982412317L933.354375,317.46891822598343L935.11875,307.02191985611955L936.883125,288.9754170661068L938.6475,309.70115853997737L940.411875,316.5762752563783" style="fill: none;" fill="none"></path></g></g></g></g></g></g><g transform="translate(58, 377)" clip-path="url(#clip_1)"><clipPath id="clip_1"><rect width="970" height="22"></rect></clipPath><g><g><line x1="0" y1="0" x2="0" y2="5" style="visibility: inherit;" fill="rgb(0, 0, 0)" stroke="rgb(204, 204, 204)" stroke-width="1px"></line><line x1="88.21875" y1="0" x2="88.21875" y2="5" style="visibility: inherit;" fill="rgb(0, 0, 0)" stroke="rgb(204, 204, 204)" stroke-width="1px"></line><line x1="176.4375" y1="0" x2="176.4375" y2="5" style="visibility: inherit;" fill="rgb(0, 0, 0)" stroke="rgb(204, 204, 204)" stroke-width="1px"></line><line x1="264.65625" y1="0" x2="264.65625" y2="5" style="visibility: inherit;" fill="rgb(0, 0, 0)" stroke="rgb(204, 204, 204)" stroke-width="1px"></line><line x1="352.875" y1="0" x2="352.875" y2="5" style="visibility: inherit;" fill="rgb(0, 0, 0)" stroke="rgb(204, 204, 204)" stroke-width="1px"></line><line x1="441.09375" y1="0" x2="441.09375" y2="5" style="visibility: inherit;" fill="rgb(0, 0, 0)" stroke="rgb(204, 204, 204)" stroke-width="1px"></line><line x1="529.3125" y1="0" x2="529.3125" y2="5" style="visibility: inherit;" fill="rgb(0, 0, 0)" stroke="rgb(204, 204, 204)" stroke-width="1px"></line><line x1="617.53125" y1="0" x2="617.53125" y2="5" style="visibility: inherit;" fill="rgb(0, 0, 0)" stroke="rgb(204, 204, 204)" stroke-width="1px"></line><line x1="705.75" y1="0" x2="705.75" y2="5" style="visibility: inherit;" fill="rgb(0, 0, 0)" stroke="rgb(204, 204, 204)" stroke-width="1px"></line><line x1="793.96875" y1="0" x2="793.96875" y2="5" style="visibility: inherit;" fill="rgb(0, 0, 0)" stroke="rgb(204, 204, 204)" stroke-width="1px"></line><line x1="882.1875" y1="0" x2="882.1875" y2="5" style="visibility: inherit;" fill="rgb(0, 0, 0)" stroke="rgb(204, 204, 204)" stroke-width="1px"></line><line x1="970.40625" y1="0" x2="970.40625" y2="5" style="visibility: inherit;" fill="rgb(0, 0, 0)" stroke="rgb(204, 204, 204)" stroke-width="1px"></line></g><g transform="translate(0, 8)"><text x="0" y="0" dx="0em" dy="0.95em" style="text-anchor: middle; visibility: hidden; font-family: &quot;Helvetica Neue&quot;, sans-serif; font-size: 12px; font-weight: 200;" fill="rgb(50, 49, 63)" stroke="none" stroke-width="1px">-2k</text><text x="88.21875" y="0" dx="0em" dy="0.95em" style="text-anchor: middle; visibility: inherit; font-family: &quot;Helvetica Neue&quot;, sans-serif; font-size: 12px; font-weight: 200;" fill="rgb(50, 49, 63)" stroke="none" stroke-width="1px">0</text><text x="176.4375" y="0" dx="0em" dy="0.95em" style="text-anchor: middle; visibility: inherit; font-family: &quot;Helvetica Neue&quot;, sans-serif; font-size: 12px; font-weight: 200;" fill="rgb(50, 49, 63)" stroke="none" stroke-width="1px">2k</text><text x="264.65625" y="0" dx="0em" dy="0.95em" style="text-anchor: middle; visibility: inherit; font-family: &quot;Helvetica Neue&quot;, sans-serif; font-size: 12px; font-weight: 200;" fill="rgb(50, 49, 63)" stroke="none" stroke-width="1px">4k</text><text x="352.875" y="0" dx="0em" dy="0.95em" style="text-anchor: middle; visibility: inherit; font-family: &quot;Helvetica Neue&quot;, sans-serif; font-size: 12px; font-weight: 200;" fill="rgb(50, 49, 63)" stroke="none" stroke-width="1px">6k</text><text x="441.09375" y="0" dx="0em" dy="0.95em" style="text-anchor: middle; visibility: inherit; font-family: &quot;Helvetica Neue&quot;, sans-serif; font-size: 12px; font-weight: 200;" fill="rgb(50, 49, 63)" stroke="none" stroke-width="1px">8k</text><text x="529.3125" y="0" dx="0em" dy="0.95em" style="text-anchor: middle; visibility: inherit; font-family: &quot;Helvetica Neue&quot;, sans-serif; font-size: 12px; font-weight: 200;" fill="rgb(50, 49, 63)" stroke="none" stroke-width="1px">10k</text><text x="617.53125" y="0" dx="0em" dy="0.95em" style="text-anchor: middle; visibility: inherit; font-family: &quot;Helvetica Neue&quot;, sans-serif; font-size: 12px; font-weight: 200;" fill="rgb(50, 49, 63)" stroke="none" stroke-width="1px">12k</text><text x="705.75" y="0" dx="0em" dy="0.95em" style="text-anchor: middle; visibility: inherit; font-family: &quot;Helvetica Neue&quot;, sans-serif; font-size: 12px; font-weight: 200;" fill="rgb(50, 49, 63)" stroke="none" stroke-width="1px">14k</text><text x="793.96875" y="0" dx="0em" dy="0.95em" style="text-anchor: middle; visibility: inherit; font-family: &quot;Helvetica Neue&quot;, sans-serif; font-size: 12px; font-weight: 200;" fill="rgb(50, 49, 63)" stroke="none" stroke-width="1px">16k</text><text x="882.1875" y="0" dx="0em" dy="0.95em" style="text-anchor: middle; visibility: inherit; font-family: &quot;Helvetica Neue&quot;, sans-serif; font-size: 12px; font-weight: 200;" fill="rgb(50, 49, 63)" stroke="none" stroke-width="1px">18k</text><text x="970.40625" y="0" dx="0em" dy="0.95em" style="text-anchor: middle; visibility: hidden; font-family: &quot;Helvetica Neue&quot;, sans-serif; font-size: 12px; font-weight: 200;" fill="rgb(50, 49, 63)" stroke="none" stroke-width="1px">20k</text></g><line x1="0" y1="0" x2="970.40625" y2="0" fill="rgb(0, 0, 0)" stroke="rgb(204, 204, 204)" stroke-width="1px"></line></g></g></g></g></svg>